ISO-10303-21;
HEADER;
/* Generated by software containing ST-Developer
 * from STEP Tools, Inc. (www.steptools.com) 
 */

FILE_DESCRIPTION(
/* description */ (''),
/* implementation_level */ '2;1');

FILE_NAME(
/* name */ 'motor-cable-clip-2x.step',
/* time_stamp */ '2026-03-30T11:12:52+02:00',
/* author */ (''),
/* organization */ (''),
/* preprocessor_version */ 'ST-DEVELOPER v20.1',
/* originating_system */ 'Autodesk Translation Framework v14.24.0.0',
/* authorisation */ '');

FILE_SCHEMA (('AUTOMOTIVE_DESIGN { 1 0 10303 214 3 1 1 }'));
ENDSEC;

DATA;
#10=MECHANICAL_DESIGN_GEOMETRIC_PRESENTATION_REPRESENTATION('',(#13),#1033);
#11=SHAPE_REPRESENTATION_RELATIONSHIP('SRR','None',#1040,#12);
#12=ADVANCED_BREP_SHAPE_REPRESENTATION('',(#14),#1032);
#13=STYLED_ITEM('',(#1050),#14);
#14=MANIFOLD_SOLID_BREP('K\X\F6rper1',#601);
#15=CONICAL_SURFACE('',#651,0.95,0.785398163397448);
#16=CONICAL_SURFACE('',#662,0.95,0.785398163397449);
#17=ELLIPSE('',#650,89.7780184792042,3.02400266760655);
#18=ELLIPSE('',#653,89.7780152529902,3.02400261104509);
#19=ELLIPSE('',#661,89.7780112775128,3.02400254140383);
#20=ELLIPSE('',#663,89.7780207117657,3.02400270658951);
#21=PLANE('',#618);
#22=PLANE('',#622);
#23=PLANE('',#626);
#24=PLANE('',#630);
#25=PLANE('',#637);
#26=PLANE('',#638);
#27=PLANE('',#641);
#28=PLANE('',#648);
#29=PLANE('',#649);
#30=PLANE('',#655);
#31=PLANE('',#656);
#32=PLANE('',#659);
#33=PLANE('',#660);
#34=PLANE('',#664);
#35=PLANE('',#666);
#36=PLANE('',#668);
#37=PLANE('',#672);
#38=PLANE('',#673);
#39=PLANE('',#674);
#40=FACE_OUTER_BOUND('',#72,.T.);
#41=FACE_OUTER_BOUND('',#73,.T.);
#42=FACE_OUTER_BOUND('',#74,.T.);
#43=FACE_OUTER_BOUND('',#75,.T.);
#44=FACE_OUTER_BOUND('',#76,.T.);
#45=FACE_OUTER_BOUND('',#77,.T.);
#46=FACE_OUTER_BOUND('',#78,.T.);
#47=FACE_OUTER_BOUND('',#79,.T.);
#48=FACE_OUTER_BOUND('',#80,.T.);
#49=FACE_OUTER_BOUND('',#81,.T.);
#50=FACE_OUTER_BOUND('',#82,.T.);
#51=FACE_OUTER_BOUND('',#83,.T.);
#52=FACE_OUTER_BOUND('',#84,.T.);
#53=FACE_OUTER_BOUND('',#85,.T.);
#54=FACE_OUTER_BOUND('',#86,.T.);
#55=FACE_OUTER_BOUND('',#87,.T.);
#56=FACE_OUTER_BOUND('',#88,.T.);
#57=FACE_OUTER_BOUND('',#89,.T.);
#58=FACE_OUTER_BOUND('',#90,.T.);
#59=FACE_OUTER_BOUND('',#91,.T.);
#60=FACE_OUTER_BOUND('',#92,.T.);
#61=FACE_OUTER_BOUND('',#93,.T.);
#62=FACE_OUTER_BOUND('',#94,.T.);
#63=FACE_OUTER_BOUND('',#95,.T.);
#64=FACE_OUTER_BOUND('',#96,.T.);
#65=FACE_OUTER_BOUND('',#97,.T.);
#66=FACE_OUTER_BOUND('',#98,.T.);
#67=FACE_OUTER_BOUND('',#99,.T.);
#68=FACE_OUTER_BOUND('',#100,.T.);
#69=FACE_OUTER_BOUND('',#101,.T.);
#70=FACE_OUTER_BOUND('',#102,.T.);
#71=FACE_OUTER_BOUND('',#103,.T.);
#72=EDGE_LOOP('',(#386,#387,#388,#389));
#73=EDGE_LOOP('',(#390,#391,#392,#393));
#74=EDGE_LOOP('',(#394,#395,#396,#397));
#75=EDGE_LOOP('',(#398,#399,#400,#401));
#76=EDGE_LOOP('',(#402,#403,#404,#405));
#77=EDGE_LOOP('',(#406,#407,#408,#409));
#78=EDGE_LOOP('',(#410,#411,#412,#413));
#79=EDGE_LOOP('',(#414,#415,#416,#417,#418,#419,#420,#421,#422,#423,#424,
#425,#426,#427,#428,#429,#430,#431,#432,#433));
#80=EDGE_LOOP('',(#434,#435,#436,#437));
#81=EDGE_LOOP('',(#438,#439,#440,#441));
#82=EDGE_LOOP('',(#442,#443,#444,#445));
#83=EDGE_LOOP('',(#446,#447,#448,#449,#450,#451,#452,#453,#454,#455,#456,
#457,#458,#459,#460,#461,#462,#463,#464,#465,#466,#467,#468,#469));
#84=EDGE_LOOP('',(#470,#471,#472,#473));
#85=EDGE_LOOP('',(#474,#475,#476,#477));
#86=EDGE_LOOP('',(#478,#479,#480,#481));
#87=EDGE_LOOP('',(#482,#483,#484,#485));
#88=EDGE_LOOP('',(#486,#487,#488,#489));
#89=EDGE_LOOP('',(#490,#491,#492,#493));
#90=EDGE_LOOP('',(#494,#495,#496,#497));
#91=EDGE_LOOP('',(#498,#499,#500,#501));
#92=EDGE_LOOP('',(#502,#503,#504,#505));
#93=EDGE_LOOP('',(#506,#507,#508,#509));
#94=EDGE_LOOP('',(#510,#511,#512,#513));
#95=EDGE_LOOP('',(#514,#515,#516,#517));
#96=EDGE_LOOP('',(#518,#519,#520,#521));
#97=EDGE_LOOP('',(#522,#523,#524,#525));
#98=EDGE_LOOP('',(#526,#527,#528,#529));
#99=EDGE_LOOP('',(#530,#531,#532,#533));
#100=EDGE_LOOP('',(#534,#535,#536,#537));
#101=EDGE_LOOP('',(#538,#539,#540,#541,#542,#543,#544,#545,#546,#547,#548,
#549));
#102=EDGE_LOOP('',(#550,#551,#552,#553));
#103=EDGE_LOOP('',(#554,#555,#556,#557));
#104=LINE('',#861,#162);
#105=LINE('',#864,#163);
#106=LINE('',#867,#164);
#107=LINE('',#869,#165);
#108=LINE('',#870,#166);
#109=LINE('',#875,#167);
#110=LINE('',#879,#168);
#111=LINE('',#881,#169);
#112=LINE('',#882,#170);
#113=LINE('',#887,#171);
#114=LINE('',#891,#172);
#115=LINE('',#893,#173);
#116=LINE('',#894,#174);
#117=LINE('',#900,#175);
#118=LINE('',#903,#176);
#119=LINE('',#907,#177);
#120=LINE('',#911,#178);
#121=LINE('',#915,#179);
#122=LINE('',#919,#180);
#123=LINE('',#923,#181);
#124=LINE('',#926,#182);
#125=LINE('',#929,#183);
#126=LINE('',#930,#184);
#127=LINE('',#933,#185);
#128=LINE('',#934,#186);
#129=LINE('',#938,#187);
#130=LINE('',#943,#188);
#131=LINE('',#947,#189);
#132=LINE('',#951,#190);
#133=LINE('',#955,#191);
#134=LINE('',#957,#192);
#135=LINE('',#961,#193);
#136=LINE('',#963,#194);
#137=LINE('',#966,#195);
#138=LINE('',#968,#196);
#139=LINE('',#972,#197);
#140=LINE('',#974,#198);
#141=LINE('',#976,#199);
#142=LINE('',#986,#200);
#143=LINE('',#988,#201);
#144=LINE('',#989,#202);
#145=LINE('',#992,#203);
#146=LINE('',#994,#204);
#147=LINE('',#995,#205);
#148=LINE('',#998,#206);
#149=LINE('',#1002,#207);
#150=LINE('',#1003,#208);
#151=LINE('',#1005,#209);
#152=LINE('',#1010,#210);
#153=LINE('',#1012,#211);
#154=LINE('',#1013,#212);
#155=LINE('',#1015,#213);
#156=LINE('',#1017,#214);
#157=LINE('',#1019,#215);
#158=LINE('',#1021,#216);
#159=LINE('',#1023,#217);
#160=LINE('',#1025,#218);
#161=LINE('',#1027,#219);
#162=VECTOR('',#681,10.);
#163=VECTOR('',#684,10.);
#164=VECTOR('',#687,10.);
#165=VECTOR('',#688,10.);
#166=VECTOR('',#689,10.);
#167=VECTOR('',#694,10.);
#168=VECTOR('',#699,10.);
#169=VECTOR('',#700,10.);
#170=VECTOR('',#701,10.);
#171=VECTOR('',#706,10.);
#172=VECTOR('',#711,10.);
#173=VECTOR('',#712,10.);
#174=VECTOR('',#713,10.);
#175=VECTOR('',#720,10.);
#176=VECTOR('',#723,10.);
#177=VECTOR('',#726,10.);
#178=VECTOR('',#729,10.);
#179=VECTOR('',#732,10.);
#180=VECTOR('',#735,10.);
#181=VECTOR('',#738,10.);
#182=VECTOR('',#741,10.);
#183=VECTOR('',#744,10.);
#184=VECTOR('',#745,10.);
#185=VECTOR('',#748,10.);
#186=VECTOR('',#749,10.);
#187=VECTOR('',#754,10.);
#188=VECTOR('',#759,10.);
#189=VECTOR('',#762,10.);
#190=VECTOR('',#765,10.);
#191=VECTOR('',#768,10.);
#192=VECTOR('',#769,10.);
#193=VECTOR('',#772,10.);
#194=VECTOR('',#773,10.);
#195=VECTOR('',#776,10.);
#196=VECTOR('',#779,10.);
#197=VECTOR('',#782,10.);
#198=VECTOR('',#783,10.);
#199=VECTOR('',#784,10.);
#200=VECTOR('',#797,10.);
#201=VECTOR('',#798,9.99999999999999);
#202=VECTOR('',#799,10.);
#203=VECTOR('',#802,10.);
#204=VECTOR('',#803,10.);
#205=VECTOR('',#804,10.);
#206=VECTOR('',#807,10.);
#207=VECTOR('',#812,10.);
#208=VECTOR('',#813,10.);
#209=VECTOR('',#816,10.);
#210=VECTOR('',#825,10.);
#211=VECTOR('',#828,10.);
#212=VECTOR('',#829,10.);
#213=VECTOR('',#832,10.);
#214=VECTOR('',#835,10.);
#215=VECTOR('',#838,10.);
#216=VECTOR('',#841,10.);
#217=VECTOR('',#844,10.);
#218=VECTOR('',#847,10.);
#219=VECTOR('',#850,10.);
#220=CIRCLE('',#616,0.3);
#221=CIRCLE('',#617,0.3);
#222=CIRCLE('',#620,0.3);
#223=CIRCLE('',#621,0.3);
#224=CIRCLE('',#624,0.3);
#225=CIRCLE('',#625,0.3);
#226=CIRCLE('',#628,0.3);
#227=CIRCLE('',#629,0.3);
#228=CIRCLE('',#631,0.3);
#229=CIRCLE('',#632,0.3);
#230=CIRCLE('',#633,0.3);
#231=CIRCLE('',#634,0.3);
#232=CIRCLE('',#635,0.3);
#233=CIRCLE('',#636,0.3);
#234=CIRCLE('',#640,0.3);
#235=CIRCLE('',#642,0.3);
#236=CIRCLE('',#643,0.3);
#237=CIRCLE('',#644,0.3);
#238=CIRCLE('',#645,0.3);
#239=CIRCLE('',#646,0.85);
#240=CIRCLE('',#647,0.3);
#241=CIRCLE('',#652,0.85);
#242=CIRCLE('',#654,1.05);
#243=CIRCLE('',#658,1.05);
#244=VERTEX_POINT('',#857);
#245=VERTEX_POINT('',#858);
#246=VERTEX_POINT('',#860);
#247=VERTEX_POINT('',#862);
#248=VERTEX_POINT('',#866);
#249=VERTEX_POINT('',#868);
#250=VERTEX_POINT('',#872);
#251=VERTEX_POINT('',#874);
#252=VERTEX_POINT('',#878);
#253=VERTEX_POINT('',#880);
#254=VERTEX_POINT('',#884);
#255=VERTEX_POINT('',#886);
#256=VERTEX_POINT('',#890);
#257=VERTEX_POINT('',#892);
#258=VERTEX_POINT('',#896);
#259=VERTEX_POINT('',#898);
#260=VERTEX_POINT('',#902);
#261=VERTEX_POINT('',#904);
#262=VERTEX_POINT('',#906);
#263=VERTEX_POINT('',#908);
#264=VERTEX_POINT('',#910);
#265=VERTEX_POINT('',#912);
#266=VERTEX_POINT('',#914);
#267=VERTEX_POINT('',#916);
#268=VERTEX_POINT('',#918);
#269=VERTEX_POINT('',#920);
#270=VERTEX_POINT('',#922);
#271=VERTEX_POINT('',#924);
#272=VERTEX_POINT('',#928);
#273=VERTEX_POINT('',#932);
#274=VERTEX_POINT('',#936);
#275=VERTEX_POINT('',#940);
#276=VERTEX_POINT('',#942);
#277=VERTEX_POINT('',#944);
#278=VERTEX_POINT('',#946);
#279=VERTEX_POINT('',#948);
#280=VERTEX_POINT('',#950);
#281=VERTEX_POINT('',#952);
#282=VERTEX_POINT('',#954);
#283=VERTEX_POINT('',#956);
#284=VERTEX_POINT('',#958);
#285=VERTEX_POINT('',#960);
#286=VERTEX_POINT('',#962);
#287=VERTEX_POINT('',#964);
#288=VERTEX_POINT('',#970);
#289=VERTEX_POINT('',#971);
#290=VERTEX_POINT('',#973);
#291=VERTEX_POINT('',#975);
#292=VERTEX_POINT('',#979);
#293=VERTEX_POINT('',#981);
#294=VERTEX_POINT('',#985);
#295=VERTEX_POINT('',#987);
#296=VERTEX_POINT('',#991);
#297=VERTEX_POINT('',#993);
#298=VERTEX_POINT('',#997);
#299=VERTEX_POINT('',#1001);
#300=EDGE_CURVE('',#244,#245,#220,.T.);
#301=EDGE_CURVE('',#245,#246,#104,.T.);
#302=EDGE_CURVE('',#246,#247,#221,.T.);
#303=EDGE_CURVE('',#247,#244,#105,.T.);
#304=EDGE_CURVE('',#248,#245,#106,.F.);
#305=EDGE_CURVE('',#249,#248,#107,.T.);
#306=EDGE_CURVE('',#246,#249,#108,.T.);
#307=EDGE_CURVE('',#248,#250,#222,.T.);
#308=EDGE_CURVE('',#250,#251,#109,.T.);
#309=EDGE_CURVE('',#251,#249,#223,.T.);
#310=EDGE_CURVE('',#252,#250,#110,.T.);
#311=EDGE_CURVE('',#253,#252,#111,.T.);
#312=EDGE_CURVE('',#253,#251,#112,.T.);
#313=EDGE_CURVE('',#252,#254,#224,.T.);
#314=EDGE_CURVE('',#254,#255,#113,.T.);
#315=EDGE_CURVE('',#255,#253,#225,.T.);
#316=EDGE_CURVE('',#256,#254,#114,.F.);
#317=EDGE_CURVE('',#257,#256,#115,.T.);
#318=EDGE_CURVE('',#255,#257,#116,.T.);
#319=EDGE_CURVE('',#258,#257,#226,.T.);
#320=EDGE_CURVE('',#256,#259,#227,.T.);
#321=EDGE_CURVE('',#259,#258,#117,.T.);
#322=EDGE_CURVE('',#244,#260,#118,.F.);
#323=EDGE_CURVE('',#261,#260,#228,.T.);
#324=EDGE_CURVE('',#261,#262,#119,.F.);
#325=EDGE_CURVE('',#263,#262,#229,.T.);
#326=EDGE_CURVE('',#263,#264,#120,.T.);
#327=EDGE_CURVE('',#265,#264,#230,.T.);
#328=EDGE_CURVE('',#265,#266,#121,.F.);
#329=EDGE_CURVE('',#267,#266,#231,.T.);
#330=EDGE_CURVE('',#267,#268,#122,.F.);
#331=EDGE_CURVE('',#269,#268,#232,.T.);
#332=EDGE_CURVE('',#269,#270,#123,.F.);
#333=EDGE_CURVE('',#271,#270,#233,.T.);
#334=EDGE_CURVE('',#271,#259,#124,.F.);
#335=EDGE_CURVE('',#247,#272,#125,.F.);
#336=EDGE_CURVE('',#260,#272,#126,.T.);
#337=EDGE_CURVE('',#273,#271,#127,.T.);
#338=EDGE_CURVE('',#273,#258,#128,.F.);
#339=EDGE_CURVE('',#272,#274,#234,.T.);
#340=EDGE_CURVE('',#274,#261,#129,.T.);
#341=EDGE_CURVE('',#275,#273,#235,.T.);
#342=EDGE_CURVE('',#275,#276,#130,.T.);
#343=EDGE_CURVE('',#277,#276,#236,.T.);
#344=EDGE_CURVE('',#278,#277,#131,.F.);
#345=EDGE_CURVE('',#279,#278,#237,.T.);
#346=EDGE_CURVE('',#280,#279,#132,.F.);
#347=EDGE_CURVE('',#281,#280,#238,.T.);
#348=EDGE_CURVE('',#281,#282,#133,.T.);
#349=EDGE_CURVE('',#283,#282,#134,.T.);
#350=EDGE_CURVE('',#284,#283,#239,.T.);
#351=EDGE_CURVE('',#285,#284,#135,.T.);
#352=EDGE_CURVE('',#285,#286,#136,.T.);
#353=EDGE_CURVE('',#287,#286,#240,.T.);
#354=EDGE_CURVE('',#287,#274,#137,.T.);
#355=EDGE_CURVE('',#262,#287,#138,.T.);
#356=EDGE_CURVE('',#288,#289,#139,.T.);
#357=EDGE_CURVE('',#289,#290,#140,.F.);
#358=EDGE_CURVE('',#290,#291,#141,.T.);
#359=EDGE_CURVE('',#291,#288,#17,.T.);
#360=EDGE_CURVE('',#291,#292,#241,.T.);
#361=EDGE_CURVE('',#292,#293,#18,.T.);
#362=EDGE_CURVE('',#293,#288,#242,.T.);
#363=EDGE_CURVE('',#292,#294,#142,.T.);
#364=EDGE_CURVE('',#294,#295,#143,.F.);
#365=EDGE_CURVE('',#295,#293,#144,.T.);
#366=EDGE_CURVE('',#296,#288,#145,.T.);
#367=EDGE_CURVE('',#297,#296,#146,.T.);
#368=EDGE_CURVE('',#297,#289,#147,.T.);
#369=EDGE_CURVE('',#298,#293,#148,.T.);
#370=EDGE_CURVE('',#296,#298,#243,.T.);
#371=EDGE_CURVE('',#299,#295,#149,.T.);
#372=EDGE_CURVE('',#298,#299,#150,.T.);
#373=EDGE_CURVE('',#299,#285,#151,.F.);
#374=EDGE_CURVE('',#284,#298,#19,.T.);
#375=EDGE_CURVE('',#283,#296,#20,.T.);
#376=EDGE_CURVE('',#282,#297,#152,.F.);
#377=EDGE_CURVE('',#264,#281,#153,.T.);
#378=EDGE_CURVE('',#280,#265,#154,.T.);
#379=EDGE_CURVE('',#266,#279,#155,.T.);
#380=EDGE_CURVE('',#278,#267,#156,.T.);
#381=EDGE_CURVE('',#268,#277,#157,.T.);
#382=EDGE_CURVE('',#276,#269,#158,.T.);
#383=EDGE_CURVE('',#270,#275,#159,.T.);
#384=EDGE_CURVE('',#286,#263,#160,.T.);
#385=EDGE_CURVE('',#290,#294,#161,.T.);
#386=ORIENTED_EDGE('',*,*,#300,.T.);
#387=ORIENTED_EDGE('',*,*,#301,.T.);
#388=ORIENTED_EDGE('',*,*,#302,.T.);
#389=ORIENTED_EDGE('',*,*,#303,.T.);
#390=ORIENTED_EDGE('',*,*,#301,.F.);
#391=ORIENTED_EDGE('',*,*,#304,.F.);
#392=ORIENTED_EDGE('',*,*,#305,.F.);
#393=ORIENTED_EDGE('',*,*,#306,.F.);
#394=ORIENTED_EDGE('',*,*,#307,.T.);
#395=ORIENTED_EDGE('',*,*,#308,.T.);
#396=ORIENTED_EDGE('',*,*,#309,.T.);
#397=ORIENTED_EDGE('',*,*,#305,.T.);
#398=ORIENTED_EDGE('',*,*,#308,.F.);
#399=ORIENTED_EDGE('',*,*,#310,.F.);
#400=ORIENTED_EDGE('',*,*,#311,.F.);
#401=ORIENTED_EDGE('',*,*,#312,.T.);
#402=ORIENTED_EDGE('',*,*,#313,.T.);
#403=ORIENTED_EDGE('',*,*,#314,.T.);
#404=ORIENTED_EDGE('',*,*,#315,.T.);
#405=ORIENTED_EDGE('',*,*,#311,.T.);
#406=ORIENTED_EDGE('',*,*,#314,.F.);
#407=ORIENTED_EDGE('',*,*,#316,.F.);
#408=ORIENTED_EDGE('',*,*,#317,.F.);
#409=ORIENTED_EDGE('',*,*,#318,.F.);
#410=ORIENTED_EDGE('',*,*,#319,.T.);
#411=ORIENTED_EDGE('',*,*,#317,.T.);
#412=ORIENTED_EDGE('',*,*,#320,.T.);
#413=ORIENTED_EDGE('',*,*,#321,.T.);
#414=ORIENTED_EDGE('',*,*,#320,.F.);
#415=ORIENTED_EDGE('',*,*,#316,.T.);
#416=ORIENTED_EDGE('',*,*,#313,.F.);
#417=ORIENTED_EDGE('',*,*,#310,.T.);
#418=ORIENTED_EDGE('',*,*,#307,.F.);
#419=ORIENTED_EDGE('',*,*,#304,.T.);
#420=ORIENTED_EDGE('',*,*,#300,.F.);
#421=ORIENTED_EDGE('',*,*,#322,.T.);
#422=ORIENTED_EDGE('',*,*,#323,.F.);
#423=ORIENTED_EDGE('',*,*,#324,.T.);
#424=ORIENTED_EDGE('',*,*,#325,.F.);
#425=ORIENTED_EDGE('',*,*,#326,.T.);
#426=ORIENTED_EDGE('',*,*,#327,.F.);
#427=ORIENTED_EDGE('',*,*,#328,.T.);
#428=ORIENTED_EDGE('',*,*,#329,.F.);
#429=ORIENTED_EDGE('',*,*,#330,.T.);
#430=ORIENTED_EDGE('',*,*,#331,.F.);
#431=ORIENTED_EDGE('',*,*,#332,.T.);
#432=ORIENTED_EDGE('',*,*,#333,.F.);
#433=ORIENTED_EDGE('',*,*,#334,.T.);
#434=ORIENTED_EDGE('',*,*,#303,.F.);
#435=ORIENTED_EDGE('',*,*,#335,.T.);
#436=ORIENTED_EDGE('',*,*,#336,.F.);
#437=ORIENTED_EDGE('',*,*,#322,.F.);
#438=ORIENTED_EDGE('',*,*,#321,.F.);
#439=ORIENTED_EDGE('',*,*,#334,.F.);
#440=ORIENTED_EDGE('',*,*,#337,.F.);
#441=ORIENTED_EDGE('',*,*,#338,.T.);
#442=ORIENTED_EDGE('',*,*,#323,.T.);
#443=ORIENTED_EDGE('',*,*,#336,.T.);
#444=ORIENTED_EDGE('',*,*,#339,.T.);
#445=ORIENTED_EDGE('',*,*,#340,.T.);
#446=ORIENTED_EDGE('',*,*,#319,.F.);
#447=ORIENTED_EDGE('',*,*,#338,.F.);
#448=ORIENTED_EDGE('',*,*,#341,.F.);
#449=ORIENTED_EDGE('',*,*,#342,.T.);
#450=ORIENTED_EDGE('',*,*,#343,.F.);
#451=ORIENTED_EDGE('',*,*,#344,.F.);
#452=ORIENTED_EDGE('',*,*,#345,.F.);
#453=ORIENTED_EDGE('',*,*,#346,.F.);
#454=ORIENTED_EDGE('',*,*,#347,.F.);
#455=ORIENTED_EDGE('',*,*,#348,.T.);
#456=ORIENTED_EDGE('',*,*,#349,.F.);
#457=ORIENTED_EDGE('',*,*,#350,.F.);
#458=ORIENTED_EDGE('',*,*,#351,.F.);
#459=ORIENTED_EDGE('',*,*,#352,.T.);
#460=ORIENTED_EDGE('',*,*,#353,.F.);
#461=ORIENTED_EDGE('',*,*,#354,.T.);
#462=ORIENTED_EDGE('',*,*,#339,.F.);
#463=ORIENTED_EDGE('',*,*,#335,.F.);
#464=ORIENTED_EDGE('',*,*,#302,.F.);
#465=ORIENTED_EDGE('',*,*,#306,.T.);
#466=ORIENTED_EDGE('',*,*,#309,.F.);
#467=ORIENTED_EDGE('',*,*,#312,.F.);
#468=ORIENTED_EDGE('',*,*,#315,.F.);
#469=ORIENTED_EDGE('',*,*,#318,.T.);
#470=ORIENTED_EDGE('',*,*,#340,.F.);
#471=ORIENTED_EDGE('',*,*,#354,.F.);
#472=ORIENTED_EDGE('',*,*,#355,.F.);
#473=ORIENTED_EDGE('',*,*,#324,.F.);
#474=ORIENTED_EDGE('',*,*,#356,.T.);
#475=ORIENTED_EDGE('',*,*,#357,.T.);
#476=ORIENTED_EDGE('',*,*,#358,.T.);
#477=ORIENTED_EDGE('',*,*,#359,.T.);
#478=ORIENTED_EDGE('',*,*,#360,.T.);
#479=ORIENTED_EDGE('',*,*,#361,.T.);
#480=ORIENTED_EDGE('',*,*,#362,.T.);
#481=ORIENTED_EDGE('',*,*,#359,.F.);
#482=ORIENTED_EDGE('',*,*,#363,.T.);
#483=ORIENTED_EDGE('',*,*,#364,.T.);
#484=ORIENTED_EDGE('',*,*,#365,.T.);
#485=ORIENTED_EDGE('',*,*,#361,.F.);
#486=ORIENTED_EDGE('',*,*,#356,.F.);
#487=ORIENTED_EDGE('',*,*,#366,.F.);
#488=ORIENTED_EDGE('',*,*,#367,.F.);
#489=ORIENTED_EDGE('',*,*,#368,.T.);
#490=ORIENTED_EDGE('',*,*,#362,.F.);
#491=ORIENTED_EDGE('',*,*,#369,.F.);
#492=ORIENTED_EDGE('',*,*,#370,.F.);
#493=ORIENTED_EDGE('',*,*,#366,.T.);
#494=ORIENTED_EDGE('',*,*,#365,.F.);
#495=ORIENTED_EDGE('',*,*,#371,.F.);
#496=ORIENTED_EDGE('',*,*,#372,.F.);
#497=ORIENTED_EDGE('',*,*,#369,.T.);
#498=ORIENTED_EDGE('',*,*,#372,.T.);
#499=ORIENTED_EDGE('',*,*,#373,.T.);
#500=ORIENTED_EDGE('',*,*,#351,.T.);
#501=ORIENTED_EDGE('',*,*,#374,.T.);
#502=ORIENTED_EDGE('',*,*,#370,.T.);
#503=ORIENTED_EDGE('',*,*,#374,.F.);
#504=ORIENTED_EDGE('',*,*,#350,.T.);
#505=ORIENTED_EDGE('',*,*,#375,.T.);
#506=ORIENTED_EDGE('',*,*,#349,.T.);
#507=ORIENTED_EDGE('',*,*,#376,.T.);
#508=ORIENTED_EDGE('',*,*,#367,.T.);
#509=ORIENTED_EDGE('',*,*,#375,.F.);
#510=ORIENTED_EDGE('',*,*,#327,.T.);
#511=ORIENTED_EDGE('',*,*,#377,.T.);
#512=ORIENTED_EDGE('',*,*,#347,.T.);
#513=ORIENTED_EDGE('',*,*,#378,.T.);
#514=ORIENTED_EDGE('',*,*,#378,.F.);
#515=ORIENTED_EDGE('',*,*,#346,.T.);
#516=ORIENTED_EDGE('',*,*,#379,.F.);
#517=ORIENTED_EDGE('',*,*,#328,.F.);
#518=ORIENTED_EDGE('',*,*,#329,.T.);
#519=ORIENTED_EDGE('',*,*,#379,.T.);
#520=ORIENTED_EDGE('',*,*,#345,.T.);
#521=ORIENTED_EDGE('',*,*,#380,.T.);
#522=ORIENTED_EDGE('',*,*,#380,.F.);
#523=ORIENTED_EDGE('',*,*,#344,.T.);
#524=ORIENTED_EDGE('',*,*,#381,.F.);
#525=ORIENTED_EDGE('',*,*,#330,.F.);
#526=ORIENTED_EDGE('',*,*,#331,.T.);
#527=ORIENTED_EDGE('',*,*,#381,.T.);
#528=ORIENTED_EDGE('',*,*,#343,.T.);
#529=ORIENTED_EDGE('',*,*,#382,.T.);
#530=ORIENTED_EDGE('',*,*,#333,.T.);
#531=ORIENTED_EDGE('',*,*,#383,.T.);
#532=ORIENTED_EDGE('',*,*,#341,.T.);
#533=ORIENTED_EDGE('',*,*,#337,.T.);
#534=ORIENTED_EDGE('',*,*,#325,.T.);
#535=ORIENTED_EDGE('',*,*,#355,.T.);
#536=ORIENTED_EDGE('',*,*,#353,.T.);
#537=ORIENTED_EDGE('',*,*,#384,.T.);
#538=ORIENTED_EDGE('',*,*,#377,.F.);
#539=ORIENTED_EDGE('',*,*,#326,.F.);
#540=ORIENTED_EDGE('',*,*,#384,.F.);
#541=ORIENTED_EDGE('',*,*,#352,.F.);
#542=ORIENTED_EDGE('',*,*,#373,.F.);
#543=ORIENTED_EDGE('',*,*,#371,.T.);
#544=ORIENTED_EDGE('',*,*,#364,.F.);
#545=ORIENTED_EDGE('',*,*,#385,.F.);
#546=ORIENTED_EDGE('',*,*,#357,.F.);
#547=ORIENTED_EDGE('',*,*,#368,.F.);
#548=ORIENTED_EDGE('',*,*,#376,.F.);
#549=ORIENTED_EDGE('',*,*,#348,.F.);
#550=ORIENTED_EDGE('',*,*,#382,.F.);
#551=ORIENTED_EDGE('',*,*,#342,.F.);
#552=ORIENTED_EDGE('',*,*,#383,.F.);
#553=ORIENTED_EDGE('',*,*,#332,.F.);
#554=ORIENTED_EDGE('',*,*,#358,.F.);
#555=ORIENTED_EDGE('',*,*,#385,.T.);
#556=ORIENTED_EDGE('',*,*,#363,.F.);
#557=ORIENTED_EDGE('',*,*,#360,.F.);
#558=CYLINDRICAL_SURFACE('',#615,0.3);
#559=CYLINDRICAL_SURFACE('',#619,0.3);
#560=CYLINDRICAL_SURFACE('',#623,0.3);
#561=CYLINDRICAL_SURFACE('',#627,0.3);
#562=CYLINDRICAL_SURFACE('',#639,0.3);
#563=CYLINDRICAL_SURFACE('',#657,1.05);
#564=CYLINDRICAL_SURFACE('',#665,0.3);
#565=CYLINDRICAL_SURFACE('',#667,0.3);
#566=CYLINDRICAL_SURFACE('',#669,0.3);
#567=CYLINDRICAL_SURFACE('',#670,0.3);
#568=CYLINDRICAL_SURFACE('',#671,0.3);
#569=ADVANCED_FACE('',(#40),#558,.F.);
#570=ADVANCED_FACE('',(#41),#21,.T.);
#571=ADVANCED_FACE('',(#42),#559,.F.);
#572=ADVANCED_FACE('',(#43),#22,.F.);
#573=ADVANCED_FACE('',(#44),#560,.F.);
#574=ADVANCED_FACE('',(#45),#23,.T.);
#575=ADVANCED_FACE('',(#46),#561,.T.);
#576=ADVANCED_FACE('',(#47),#24,.T.);
#577=ADVANCED_FACE('',(#48),#25,.T.);
#578=ADVANCED_FACE('',(#49),#26,.T.);
#579=ADVANCED_FACE('',(#50),#562,.T.);
#580=ADVANCED_FACE('',(#51),#27,.F.);
#581=ADVANCED_FACE('',(#52),#28,.T.);
#582=ADVANCED_FACE('',(#53),#29,.T.);
#583=ADVANCED_FACE('',(#54),#15,.T.);
#584=ADVANCED_FACE('',(#55),#30,.T.);
#585=ADVANCED_FACE('',(#56),#31,.T.);
#586=ADVANCED_FACE('',(#57),#563,.T.);
#587=ADVANCED_FACE('',(#58),#32,.T.);
#588=ADVANCED_FACE('',(#59),#33,.T.);
#589=ADVANCED_FACE('',(#60),#16,.T.);
#590=ADVANCED_FACE('',(#61),#34,.T.);
#591=ADVANCED_FACE('',(#62),#564,.T.);
#592=ADVANCED_FACE('',(#63),#35,.T.);
#593=ADVANCED_FACE('',(#64),#565,.T.);
#594=ADVANCED_FACE('',(#65),#36,.T.);
#595=ADVANCED_FACE('',(#66),#566,.T.);
#596=ADVANCED_FACE('',(#67),#567,.T.);
#597=ADVANCED_FACE('',(#68),#568,.T.);
#598=ADVANCED_FACE('',(#69),#37,.F.);
#599=ADVANCED_FACE('',(#70),#38,.T.);
#600=ADVANCED_FACE('',(#71),#39,.T.);
#601=CLOSED_SHELL('',(#569,#570,#571,#572,#573,#574,#575,#576,#577,#578,
#579,#580,#581,#582,#583,#584,#585,#586,#587,#588,#589,#590,#591,#592,#593,
#594,#595,#596,#597,#598,#599,#600));
#602=DERIVED_UNIT_ELEMENT(#604,1.);
#603=DERIVED_UNIT_ELEMENT(#1035,-3.);
#604=(
MASS_UNIT()
NAMED_UNIT(*)
SI_UNIT(.KILO.,.GRAM.)
);
#605=DERIVED_UNIT((#602,#603));
#606=MEASURE_REPRESENTATION_ITEM('density measure',
POSITIVE_RATIO_MEASURE(7850.),#605);
#607=PROPERTY_DEFINITION_REPRESENTATION(#612,#609);
#608=PROPERTY_DEFINITION_REPRESENTATION(#613,#610);
#609=REPRESENTATION('material name',(#611),#1032);
#610=REPRESENTATION('density',(#606),#1032);
#611=DESCRIPTIVE_REPRESENTATION_ITEM('Stahl','Stahl');
#612=PROPERTY_DEFINITION('material property','material name',#1042);
#613=PROPERTY_DEFINITION('material property','density of part',#1042);
#614=AXIS2_PLACEMENT_3D('',#855,#675,#676);
#615=AXIS2_PLACEMENT_3D('',#856,#677,#678);
#616=AXIS2_PLACEMENT_3D('',#859,#679,#680);
#617=AXIS2_PLACEMENT_3D('',#863,#682,#683);
#618=AXIS2_PLACEMENT_3D('',#865,#685,#686);
#619=AXIS2_PLACEMENT_3D('',#871,#690,#691);
#620=AXIS2_PLACEMENT_3D('',#873,#692,#693);
#621=AXIS2_PLACEMENT_3D('',#876,#695,#696);
#622=AXIS2_PLACEMENT_3D('',#877,#697,#698);
#623=AXIS2_PLACEMENT_3D('',#883,#702,#703);
#624=AXIS2_PLACEMENT_3D('',#885,#704,#705);
#625=AXIS2_PLACEMENT_3D('',#888,#707,#708);
#626=AXIS2_PLACEMENT_3D('',#889,#709,#710);
#627=AXIS2_PLACEMENT_3D('',#895,#714,#715);
#628=AXIS2_PLACEMENT_3D('',#897,#716,#717);
#629=AXIS2_PLACEMENT_3D('',#899,#718,#719);
#630=AXIS2_PLACEMENT_3D('',#901,#721,#722);
#631=AXIS2_PLACEMENT_3D('',#905,#724,#725);
#632=AXIS2_PLACEMENT_3D('',#909,#727,#728);
#633=AXIS2_PLACEMENT_3D('',#913,#730,#731);
#634=AXIS2_PLACEMENT_3D('',#917,#733,#734);
#635=AXIS2_PLACEMENT_3D('',#921,#736,#737);
#636=AXIS2_PLACEMENT_3D('',#925,#739,#740);
#637=AXIS2_PLACEMENT_3D('',#927,#742,#743);
#638=AXIS2_PLACEMENT_3D('',#931,#746,#747);
#639=AXIS2_PLACEMENT_3D('',#935,#750,#751);
#640=AXIS2_PLACEMENT_3D('',#937,#752,#753);
#641=AXIS2_PLACEMENT_3D('',#939,#755,#756);
#642=AXIS2_PLACEMENT_3D('',#941,#757,#758);
#643=AXIS2_PLACEMENT_3D('',#945,#760,#761);
#644=AXIS2_PLACEMENT_3D('',#949,#763,#764);
#645=AXIS2_PLACEMENT_3D('',#953,#766,#767);
#646=AXIS2_PLACEMENT_3D('',#959,#770,#771);
#647=AXIS2_PLACEMENT_3D('',#965,#774,#775);
#648=AXIS2_PLACEMENT_3D('',#967,#777,#778);
#649=AXIS2_PLACEMENT_3D('',#969,#780,#781);
#650=AXIS2_PLACEMENT_3D('',#977,#785,#786);
#651=AXIS2_PLACEMENT_3D('',#978,#787,#788);
#652=AXIS2_PLACEMENT_3D('',#980,#789,#790);
#653=AXIS2_PLACEMENT_3D('',#982,#791,#792);
#654=AXIS2_PLACEMENT_3D('',#983,#793,#794);
#655=AXIS2_PLACEMENT_3D('',#984,#795,#796);
#656=AXIS2_PLACEMENT_3D('',#990,#800,#801);
#657=AXIS2_PLACEMENT_3D('',#996,#805,#806);
#658=AXIS2_PLACEMENT_3D('',#999,#808,#809);
#659=AXIS2_PLACEMENT_3D('',#1000,#810,#811);
#660=AXIS2_PLACEMENT_3D('',#1004,#814,#815);
#661=AXIS2_PLACEMENT_3D('',#1006,#817,#818);
#662=AXIS2_PLACEMENT_3D('',#1007,#819,#820);
#663=AXIS2_PLACEMENT_3D('',#1008,#821,#822);
#664=AXIS2_PLACEMENT_3D('',#1009,#823,#824);
#665=AXIS2_PLACEMENT_3D('',#1011,#826,#827);
#666=AXIS2_PLACEMENT_3D('',#1014,#830,#831);
#667=AXIS2_PLACEMENT_3D('',#1016,#833,#834);
#668=AXIS2_PLACEMENT_3D('',#1018,#836,#837);
#669=AXIS2_PLACEMENT_3D('',#1020,#839,#840);
#670=AXIS2_PLACEMENT_3D('',#1022,#842,#843);
#671=AXIS2_PLACEMENT_3D('',#1024,#845,#846);
#672=AXIS2_PLACEMENT_3D('',#1026,#848,#849);
#673=AXIS2_PLACEMENT_3D('',#1028,#851,#852);
#674=AXIS2_PLACEMENT_3D('',#1029,#853,#854);
#675=DIRECTION('axis',(0.,0.,1.));
#676=DIRECTION('refdir',(1.,0.,0.));
#677=DIRECTION('center_axis',(0.,0.,-1.));
#678=DIRECTION('ref_axis',(-0.707106781186547,0.707106781186548,0.));
#679=DIRECTION('center_axis',(0.,0.,1.));
#680=DIRECTION('ref_axis',(-0.707106781186547,0.707106781186548,0.));
#681=DIRECTION('',(0.,0.,-1.));
#682=DIRECTION('center_axis',(0.,0.,-1.));
#683=DIRECTION('ref_axis',(-0.707106781186547,0.707106781186548,0.));
#684=DIRECTION('',(0.,0.,1.));
#685=DIRECTION('center_axis',(1.,0.,0.));
#686=DIRECTION('ref_axis',(0.,0.,1.));
#687=DIRECTION('',(0.,-1.,0.));
#688=DIRECTION('',(0.,0.,1.));
#689=DIRECTION('',(0.,-1.,0.));
#690=DIRECTION('center_axis',(0.,0.,-1.));
#691=DIRECTION('ref_axis',(-0.707106781186547,-0.707106781186547,0.));
#692=DIRECTION('center_axis',(0.,0.,1.));
#693=DIRECTION('ref_axis',(-0.707106781186547,-0.707106781186547,0.));
#694=DIRECTION('',(0.,0.,-1.));
#695=DIRECTION('center_axis',(0.,0.,-1.));
#696=DIRECTION('ref_axis',(-0.707106781186547,-0.707106781186547,0.));
#697=DIRECTION('center_axis',(0.,-1.,0.));
#698=DIRECTION('ref_axis',(0.,0.,-1.));
#699=DIRECTION('',(-1.,0.,0.));
#700=DIRECTION('',(0.,0.,1.));
#701=DIRECTION('',(-1.,0.,0.));
#702=DIRECTION('center_axis',(0.,0.,-1.));
#703=DIRECTION('ref_axis',(0.707106781186547,-0.707106781186547,0.));
#704=DIRECTION('center_axis',(0.,0.,1.));
#705=DIRECTION('ref_axis',(0.707106781186547,-0.707106781186547,0.));
#706=DIRECTION('',(0.,0.,-1.));
#707=DIRECTION('center_axis',(0.,0.,-1.));
#708=DIRECTION('ref_axis',(0.707106781186547,-0.707106781186547,0.));
#709=DIRECTION('center_axis',(-1.,0.,0.));
#710=DIRECTION('ref_axis',(0.,0.,1.));
#711=DIRECTION('',(0.,1.,0.));
#712=DIRECTION('',(0.,0.,1.));
#713=DIRECTION('',(0.,1.,0.));
#714=DIRECTION('center_axis',(0.,0.,-1.));
#715=DIRECTION('ref_axis',(-0.707106781186547,0.707106781186547,0.));
#716=DIRECTION('center_axis',(0.,0.,1.));
#717=DIRECTION('ref_axis',(-0.707106781186547,0.707106781186547,0.));
#718=DIRECTION('center_axis',(0.,0.,-1.));
#719=DIRECTION('ref_axis',(-0.707106781186547,0.707106781186547,0.));
#720=DIRECTION('',(0.,0.,-1.));
#721=DIRECTION('center_axis',(0.,0.,1.));
#722=DIRECTION('ref_axis',(1.,0.,0.));
#723=DIRECTION('',(-1.,0.,0.));
#724=DIRECTION('center_axis',(0.,0.,-1.));
#725=DIRECTION('ref_axis',(0.707106781186547,-0.707106781186548,0.));
#726=DIRECTION('',(0.,-1.,0.));
#727=DIRECTION('center_axis',(0.,0.,-1.));
#728=DIRECTION('ref_axis',(0.707106781186548,0.707106781186547,0.));
#729=DIRECTION('',(-1.,0.,0.));
#730=DIRECTION('center_axis',(0.,0.,-1.));
#731=DIRECTION('ref_axis',(-0.707106781186548,0.707106781186547,0.));
#732=DIRECTION('',(0.,1.,0.));
#733=DIRECTION('center_axis',(0.,0.,-1.));
#734=DIRECTION('ref_axis',(-0.707106781186547,-0.707106781186547,0.));
#735=DIRECTION('',(-1.,0.,0.));
#736=DIRECTION('center_axis',(0.,0.,-1.));
#737=DIRECTION('ref_axis',(0.707106781186547,-0.707106781186547,0.));
#738=DIRECTION('',(0.,-1.,0.));
#739=DIRECTION('center_axis',(0.,0.,-1.));
#740=DIRECTION('ref_axis',(0.707106781186547,0.707106781186547,0.));
#741=DIRECTION('',(1.,0.,0.));
#742=DIRECTION('center_axis',(0.,-1.,0.));
#743=DIRECTION('ref_axis',(0.,0.,-1.));
#744=DIRECTION('',(-1.,0.,0.));
#745=DIRECTION('',(0.,0.,-1.));
#746=DIRECTION('center_axis',(0.,1.,0.));
#747=DIRECTION('ref_axis',(0.,0.,1.));
#748=DIRECTION('',(0.,0.,1.));
#749=DIRECTION('',(1.,0.,0.));
#750=DIRECTION('center_axis',(0.,0.,1.));
#751=DIRECTION('ref_axis',(0.707106781186547,-0.707106781186548,0.));
#752=DIRECTION('center_axis',(0.,0.,1.));
#753=DIRECTION('ref_axis',(0.707106781186547,-0.707106781186548,0.));
#754=DIRECTION('',(0.,0.,1.));
#755=DIRECTION('center_axis',(0.,0.,1.));
#756=DIRECTION('ref_axis',(1.,0.,0.));
#757=DIRECTION('center_axis',(0.,0.,1.));
#758=DIRECTION('ref_axis',(0.707106781186547,0.707106781186547,0.));
#759=DIRECTION('',(0.,-1.,0.));
#760=DIRECTION('center_axis',(0.,0.,1.));
#761=DIRECTION('ref_axis',(0.707106781186547,-0.707106781186547,0.));
#762=DIRECTION('',(-1.,0.,0.));
#763=DIRECTION('center_axis',(0.,0.,1.));
#764=DIRECTION('ref_axis',(-0.707106781186547,-0.707106781186547,0.));
#765=DIRECTION('',(0.,1.,0.));
#766=DIRECTION('center_axis',(0.,0.,1.));
#767=DIRECTION('ref_axis',(-0.707106781186548,0.707106781186547,0.));
#768=DIRECTION('',(1.,0.,0.));
#769=DIRECTION('',(-4.07477197799523E-13,-1.,0.));
#770=DIRECTION('center_axis',(0.,0.,1.));
#771=DIRECTION('ref_axis',(-0.857142857142901,0.51507875363764,0.));
#772=DIRECTION('',(-4.71295710429986E-13,1.,0.));
#773=DIRECTION('',(1.,0.,0.));
#774=DIRECTION('center_axis',(0.,0.,1.));
#775=DIRECTION('ref_axis',(0.707106781186548,0.707106781186547,0.));
#776=DIRECTION('',(0.,-1.,0.));
#777=DIRECTION('center_axis',(1.,0.,0.));
#778=DIRECTION('ref_axis',(0.,0.,1.));
#779=DIRECTION('',(0.,0.,-1.));
#780=DIRECTION('center_axis',(-0.707106781186548,2.88129889742935E-13,0.707106781186547));
#781=DIRECTION('ref_axis',(0.707106781186547,0.,0.707106781186548));
#782=DIRECTION('',(-4.07477197799523E-13,-1.,0.));
#783=DIRECTION('',(-0.707106781186547,0.,-0.707106781186548));
#784=DIRECTION('',(4.07477197799523E-13,1.,0.));
#785=DIRECTION('center_axis',(0.707106781186577,-4.74565249619192E-13,-0.707106781186519));
#786=DIRECTION('ref_axis',(0.707095781920739,0.00557766794637653,0.707095781920793));
#787=DIRECTION('center_axis',(0.,0.,-1.));
#788=DIRECTION('ref_axis',(4.3094183192687E-15,1.,0.));
#789=DIRECTION('center_axis',(0.,0.,-1.));
#790=DIRECTION('ref_axis',(-0.857142857142901,0.51507875363764,0.));
#791=DIRECTION('center_axis',(0.707106781186621,8.33125660441323E-13,0.707106781186474));
#792=DIRECTION('ref_axis',(0.707095781919912,-0.00557766814525133,-0.707095781920053));
#793=DIRECTION('center_axis',(0.,0.,1.));
#794=DIRECTION('ref_axis',(-0.857142857142901,0.51507875363764,0.));
#795=DIRECTION('center_axis',(0.707106781186548,3.33256392789175E-13,0.707106781186548));
#796=DIRECTION('ref_axis',(0.707106781186548,0.,-0.707106781186548));
#797=DIRECTION('',(4.71295710429986E-13,-1.,0.));
#798=DIRECTION('',(-0.707106781186547,0.,0.707106781186547));
#799=DIRECTION('',(-4.71295710429986E-13,1.,0.));
#800=DIRECTION('center_axis',(-1.,4.07477197799523E-13,0.));
#801=DIRECTION('ref_axis',(-4.07477197799523E-13,-1.,0.));
#802=DIRECTION('',(0.,0.,1.));
#803=DIRECTION('',(4.07477197799523E-13,1.,0.));
#804=DIRECTION('',(0.,0.,1.));
#805=DIRECTION('center_axis',(0.,0.,1.));
#806=DIRECTION('ref_axis',(3.30423519233678E-16,1.,0.));
#807=DIRECTION('',(0.,0.,1.));
#808=DIRECTION('center_axis',(0.,0.,-1.));
#809=DIRECTION('ref_axis',(-0.857142857142901,0.51507875363764,0.));
#810=DIRECTION('center_axis',(1.,4.71295710429986E-13,0.));
#811=DIRECTION('ref_axis',(-4.71295710429986E-13,1.,0.));
#812=DIRECTION('',(0.,0.,1.));
#813=DIRECTION('',(4.71295710429986E-13,-1.,0.));
#814=DIRECTION('center_axis',(0.707106781186548,3.33256392789175E-13,-0.707106781186548));
#815=DIRECTION('ref_axis',(-0.707106781186548,0.,-0.707106781186548));
#816=DIRECTION('',(0.707106781186547,0.,0.707106781186547));
#817=DIRECTION('center_axis',(-0.707106781186526,-1.7928020541115E-13,0.707106781186569));
#818=DIRECTION('ref_axis',(0.707095781919047,-0.00557766838788361,0.707095781919003));
#819=DIRECTION('center_axis',(0.,0.,1.));
#820=DIRECTION('ref_axis',(4.01725436541997E-15,1.,0.));
#821=DIRECTION('center_axis',(-0.70710678118655,2.95285044206011E-13,-0.707106781186545));
#822=DIRECTION('ref_axis',(0.707095781921282,0.00557766781525879,-0.707095781921285));
#823=DIRECTION('center_axis',(-0.707106781186547,2.88129889742935E-13,-0.707106781186548));
#824=DIRECTION('ref_axis',(-0.707106781186548,0.,0.707106781186547));
#825=DIRECTION('',(0.707106781186548,0.,-0.707106781186547));
#826=DIRECTION('center_axis',(0.,0.,1.));
#827=DIRECTION('ref_axis',(-0.707106781186548,0.707106781186547,0.));
#828=DIRECTION('',(0.,0.,-1.));
#829=DIRECTION('',(0.,0.,1.));
#830=DIRECTION('center_axis',(-1.,0.,0.));
#831=DIRECTION('ref_axis',(0.,0.,-1.));
#832=DIRECTION('',(0.,0.,-1.));
#833=DIRECTION('center_axis',(0.,0.,1.));
#834=DIRECTION('ref_axis',(-0.707106781186547,-0.707106781186547,0.));
#835=DIRECTION('',(0.,0.,1.));
#836=DIRECTION('center_axis',(0.,-1.,0.));
#837=DIRECTION('ref_axis',(0.,0.,-1.));
#838=DIRECTION('',(0.,0.,-1.));
#839=DIRECTION('center_axis',(0.,0.,1.));
#840=DIRECTION('ref_axis',(0.707106781186547,-0.707106781186547,0.));
#841=DIRECTION('',(0.,0.,1.));
#842=DIRECTION('center_axis',(0.,0.,1.));
#843=DIRECTION('ref_axis',(0.707106781186547,0.707106781186547,0.));
#844=DIRECTION('',(0.,0.,-1.));
#845=DIRECTION('center_axis',(0.,0.,1.));
#846=DIRECTION('ref_axis',(0.707106781186548,0.707106781186547,0.));
#847=DIRECTION('',(0.,0.,1.));
#848=DIRECTION('center_axis',(0.,-1.,0.));
#849=DIRECTION('ref_axis',(1.,0.,0.));
#850=DIRECTION('',(1.,0.,0.));
#851=DIRECTION('center_axis',(1.,0.,0.));
#852=DIRECTION('ref_axis',(0.,0.,1.));
#853=DIRECTION('center_axis',(0.,0.,1.));
#854=DIRECTION('ref_axis',(1.,0.,0.));
#855=CARTESIAN_POINT('',(0.,0.,0.));
#856=CARTESIAN_POINT('Origin',(1.2,3.3,-0.34999998473392));
#857=CARTESIAN_POINT('',(1.2,3.6,2.9));
#858=CARTESIAN_POINT('',(0.899999999999999,3.3,2.9));
#859=CARTESIAN_POINT('Origin',(1.2,3.3,2.9));
#860=CARTESIAN_POINT('',(0.899999999999999,3.3,0.));
#861=CARTESIAN_POINT('',(0.899999999999999,3.3,-0.34999998473392));
#862=CARTESIAN_POINT('',(1.2,3.6,0.));
#863=CARTESIAN_POINT('Origin',(1.2,3.3,0.));
#864=CARTESIAN_POINT('',(1.2,3.6,-0.34999998473392));
#865=CARTESIAN_POINT('Origin',(0.899999999999999,3.8,-1.09999998224026));
#866=CARTESIAN_POINT('',(0.899999999999999,1.2,2.9));
#867=CARTESIAN_POINT('',(0.899999999999999,4.2125,2.9));
#868=CARTESIAN_POINT('',(0.899999999999999,1.2,0.));
#869=CARTESIAN_POINT('',(0.899999999999999,1.2,-0.349999978347708));
#870=CARTESIAN_POINT('',(0.899999999999999,5.0875,0.));
#871=CARTESIAN_POINT('Origin',(1.2,1.2,-0.349999978347708));
#872=CARTESIAN_POINT('',(1.2,0.9,2.9));
#873=CARTESIAN_POINT('Origin',(1.2,1.2,2.9));
#874=CARTESIAN_POINT('',(1.2,0.9,0.));
#875=CARTESIAN_POINT('',(1.2,0.9,-0.349999978347708));
#876=CARTESIAN_POINT('Origin',(1.2,1.2,0.));
#877=CARTESIAN_POINT('Origin',(4.,0.9,0.40000002554485));
#878=CARTESIAN_POINT('',(6.80000005960464,0.9,2.9));
#879=CARTESIAN_POINT('',(4.125,0.9,2.9));
#880=CARTESIAN_POINT('',(6.80000005960464,0.9,0.));
#881=CARTESIAN_POINT('',(6.80000005960464,0.9,-0.349999974455152));
#882=CARTESIAN_POINT('',(4.,0.9,0.));
#883=CARTESIAN_POINT('Origin',(6.80000005960464,1.2,-0.349999974455152));
#884=CARTESIAN_POINT('',(7.10000005960465,1.2,2.9));
#885=CARTESIAN_POINT('Origin',(6.80000005960464,1.2,2.9));
#886=CARTESIAN_POINT('',(7.10000005960465,1.2,0.));
#887=CARTESIAN_POINT('',(7.10000005960465,1.2,-0.349999974455152));
#888=CARTESIAN_POINT('Origin',(6.80000005960464,1.2,0.));
#889=CARTESIAN_POINT('Origin',(7.10000005960465,2.3,-1.09999997445515));
#890=CARTESIAN_POINT('',(7.10000005960465,2.95,2.9));
#891=CARTESIAN_POINT('',(7.10000005960465,3.4625,2.9));
#892=CARTESIAN_POINT('',(7.10000005960465,2.95,0.));
#893=CARTESIAN_POINT('',(7.10000005960465,2.95,-0.349999969665493));
#894=CARTESIAN_POINT('',(7.10000005960465,4.3375,0.));
#895=CARTESIAN_POINT('Origin',(7.40000005960465,2.95,-0.349999969665493));
#896=CARTESIAN_POINT('',(7.40000005960465,3.25,0.));
#897=CARTESIAN_POINT('Origin',(7.40000005960465,2.95,0.));
#898=CARTESIAN_POINT('',(7.40000005960465,3.25,2.9));
#899=CARTESIAN_POINT('Origin',(7.40000005960465,2.95,2.9));
#900=CARTESIAN_POINT('',(7.40000005960465,3.25,-0.349999969665493));
#901=CARTESIAN_POINT('Origin',(4.25,4.625,2.9));
#902=CARTESIAN_POINT('',(7.7,3.6,2.9));
#903=CARTESIAN_POINT('',(4.125,3.6,2.9));
#904=CARTESIAN_POINT('',(8.,3.9,2.9));
#905=CARTESIAN_POINT('Origin',(7.7,3.9,2.9));
#906=CARTESIAN_POINT('',(8.,4.5,2.9));
#907=CARTESIAN_POINT('',(8.,4.7125,2.9));
#908=CARTESIAN_POINT('',(7.7,4.8,2.9));
#909=CARTESIAN_POINT('Origin',(7.7,4.5,2.9));
#910=CARTESIAN_POINT('',(0.299999999999999,4.8,2.9));
#911=CARTESIAN_POINT('',(9.,4.8,2.9));
#912=CARTESIAN_POINT('',(-5.55111512312578E-16,4.5,2.9));
#913=CARTESIAN_POINT('Origin',(0.299999999999999,4.5,2.9));
#914=CARTESIAN_POINT('',(-5.55111512312578E-16,0.3,2.9));
#915=CARTESIAN_POINT('',(-5.55111512312578E-16,4.7125,2.9));
#916=CARTESIAN_POINT('',(0.299999999999999,5.55111512312578E-16,2.9));
#917=CARTESIAN_POINT('Origin',(0.299999999999999,0.3,2.9));
#918=CARTESIAN_POINT('',(7.7,5.55111512312578E-16,2.9));
#919=CARTESIAN_POINT('',(4.125,5.55111512312578E-16,2.9));
#920=CARTESIAN_POINT('',(8.,0.3,2.9));
#921=CARTESIAN_POINT('Origin',(7.7,0.3,2.9));
#922=CARTESIAN_POINT('',(8.,2.95,2.9));
#923=CARTESIAN_POINT('',(8.,3.4625,2.9));
#924=CARTESIAN_POINT('',(7.7,3.25,2.9));
#925=CARTESIAN_POINT('Origin',(7.7,2.95,2.9));
#926=CARTESIAN_POINT('',(6.37500001490116,3.25,2.9));
#927=CARTESIAN_POINT('Origin',(4.,3.6,0.40000001277242));
#928=CARTESIAN_POINT('',(7.7,3.6,0.));
#929=CARTESIAN_POINT('',(4.,3.6,0.));
#930=CARTESIAN_POINT('',(7.7,3.6,-0.349999980841364));
#931=CARTESIAN_POINT('Origin',(8.50000002980232,3.25,0.40000003512417));
#932=CARTESIAN_POINT('',(7.7,3.25,0.));
#933=CARTESIAN_POINT('',(7.7,3.25,-0.349999969665494));
#934=CARTESIAN_POINT('',(6.25000001490116,3.25,0.));
#935=CARTESIAN_POINT('Origin',(7.7,3.9,-0.349999980841364));
#936=CARTESIAN_POINT('',(8.,3.9,0.));
#937=CARTESIAN_POINT('Origin',(7.7,3.9,0.));
#938=CARTESIAN_POINT('',(8.,3.9,-0.349999980841364));
#939=CARTESIAN_POINT('Origin',(4.,6.375,0.));
#940=CARTESIAN_POINT('',(8.,2.95,0.));
#941=CARTESIAN_POINT('Origin',(7.7,2.95,0.));
#942=CARTESIAN_POINT('',(8.,0.3,0.));
#943=CARTESIAN_POINT('',(8.,4.3375,0.));
#944=CARTESIAN_POINT('',(7.7,5.55111512312578E-16,0.));
#945=CARTESIAN_POINT('Origin',(7.7,0.3,0.));
#946=CARTESIAN_POINT('',(0.299999999999999,5.55111512312578E-16,0.));
#947=CARTESIAN_POINT('',(4.,5.55111512312578E-16,0.));
#948=CARTESIAN_POINT('',(-5.55111512312578E-16,0.3,0.));
#949=CARTESIAN_POINT('Origin',(0.299999999999999,0.3,0.));
#950=CARTESIAN_POINT('',(-5.55111512312578E-16,4.5,0.));
#951=CARTESIAN_POINT('',(-5.55111512312578E-16,5.5875,0.));
#952=CARTESIAN_POINT('',(0.299999999999999,4.8,0.));
#953=CARTESIAN_POINT('Origin',(0.299999999999999,4.5,0.));
#954=CARTESIAN_POINT('',(3.29999999999932,4.8,0.));
#955=CARTESIAN_POINT('',(4.,4.8,0.));
#956=CARTESIAN_POINT('',(3.29999999999998,6.41781746195039,0.));
#957=CARTESIAN_POINT('',(3.29999999999996,6.36708365434034,0.));
#958=CARTESIAN_POINT('',(4.70000000000002,6.41781746195038,0.));
#959=CARTESIAN_POINT('Origin',(4.,6.9,0.));
#960=CARTESIAN_POINT('',(4.70000000000078,4.8,0.));
#961=CARTESIAN_POINT('',(4.70000000000041,5.58750000000012,0.));
#962=CARTESIAN_POINT('',(7.7,4.8,0.));
#963=CARTESIAN_POINT('',(4.,4.8,0.));
#964=CARTESIAN_POINT('',(8.,4.5,0.));
#965=CARTESIAN_POINT('Origin',(7.7,4.5,0.));
#966=CARTESIAN_POINT('',(8.,5.5875,0.));
#967=CARTESIAN_POINT('Origin',(8.,4.8,-1.09999997445515));
#968=CARTESIAN_POINT('',(8.,4.5,-0.349999980841364));
#969=CARTESIAN_POINT('Origin',(3.19999999999996,6.36708365434038,1.8));
#970=CARTESIAN_POINT('',(3.09999999999995,6.35916730868048,1.7));
#971=CARTESIAN_POINT('',(3.09999999999932,4.8,1.7));
#972=CARTESIAN_POINT('',(3.09999999999996,6.36708365434042,1.7));
#973=CARTESIAN_POINT('',(3.29999999999932,4.8,1.9));
#974=CARTESIAN_POINT('',(3.05000000319275,4.8,1.65000000319344));
#975=CARTESIAN_POINT('',(3.29999999999998,6.41781746195039,1.9));
#976=CARTESIAN_POINT('',(3.29999999999996,6.36708365434034,1.9));
#977=CARTESIAN_POINT('Origin',(-59.4123988000489,6.39304476473854,-60.812398800054));
#978=CARTESIAN_POINT('Origin',(4.,6.9,1.8));
#979=CARTESIAN_POINT('',(4.70000000000002,6.41781746195038,1.9));
#980=CARTESIAN_POINT('Origin',(4.,6.9,1.9));
#981=CARTESIAN_POINT('',(4.90000000000005,6.35916730868048,1.7));
#982=CARTESIAN_POINT('Origin',(67.4123965189444,6.39304476465172,-60.8123965189575));
#983=CARTESIAN_POINT('Origin',(4.,6.9,1.7));
#984=CARTESIAN_POINT('Origin',(4.80000000000041,5.58750000000017,1.8));
#985=CARTESIAN_POINT('',(4.70000000000078,4.8,1.9));
#986=CARTESIAN_POINT('',(4.70000000000041,5.58750000000012,1.9));
#987=CARTESIAN_POINT('',(4.90000000000078,4.8,1.7));
#988=CARTESIAN_POINT('',(4.94999999680739,4.8,1.65000000319339));
#989=CARTESIAN_POINT('',(4.90000000000041,5.58750000000021,1.7));
#990=CARTESIAN_POINT('Origin',(3.09999999999995,6.35916730868048,-1.1));
#991=CARTESIAN_POINT('',(3.09999999999995,6.35916730868048,0.2));
#992=CARTESIAN_POINT('',(3.09999999999995,6.35916730868048,-1.1));
#993=CARTESIAN_POINT('',(3.09999999999932,4.8,0.2));
#994=CARTESIAN_POINT('',(3.09999999999996,6.36708365434042,0.2));
#995=CARTESIAN_POINT('',(3.09999999999932,4.8,-1.1));
#996=CARTESIAN_POINT('Origin',(4.,6.9,-1.1));
#997=CARTESIAN_POINT('',(4.90000000000005,6.35916730868048,0.2));
#998=CARTESIAN_POINT('',(4.90000000000005,6.35916730868048,-1.1));
#999=CARTESIAN_POINT('Origin',(4.,6.9,0.2));
#1000=CARTESIAN_POINT('Origin',(4.90000000000078,4.8,-1.1));
#1001=CARTESIAN_POINT('',(4.90000000000078,4.8,0.2));
#1002=CARTESIAN_POINT('',(4.90000000000078,4.8,-1.1));
#1003=CARTESIAN_POINT('',(4.90000000000041,5.58750000000021,0.2));
#1004=CARTESIAN_POINT('Origin',(4.80000000000041,5.58750000000017,0.0999999999999998));
#1005=CARTESIAN_POINT('',(4.6750000031936,4.8,-0.0249999968071801));
#1006=CARTESIAN_POINT('Origin',(67.4123937080745,6.39304476477204,62.7123937080707));
#1007=CARTESIAN_POINT('Origin',(4.,6.9,0.0999999999999998));
#1008=CARTESIAN_POINT('Origin',(-59.4124003786192,6.39304476418735,62.7124003786196));
#1009=CARTESIAN_POINT('Origin',(3.19999999999996,6.36708365434038,0.0999999999999998));
#1010=CARTESIAN_POINT('',(3.32499999680654,4.8,-0.0249999968072201));
#1011=CARTESIAN_POINT('Origin',(0.299999999999999,4.5,1.15000001915864));
#1012=CARTESIAN_POINT('',(0.299999999999999,4.8,1.15000001915864));
#1013=CARTESIAN_POINT('',(-5.55111512312578E-16,4.5,1.15000001915864));
#1014=CARTESIAN_POINT('Origin',(-5.55111512312578E-16,4.8,1.90000002554485));
#1015=CARTESIAN_POINT('',(-5.55111512312578E-16,0.3,1.15000002554485));
#1016=CARTESIAN_POINT('Origin',(0.299999999999999,0.3,1.15000002554485));
#1017=CARTESIAN_POINT('',(0.299999999999999,5.55111512312578E-16,1.15000002554485));
#1018=CARTESIAN_POINT('Origin',(4.,5.55111512312578E-16,0.40000002554485));
#1019=CARTESIAN_POINT('',(7.7,5.55111512312578E-16,-0.349999974455153));
#1020=CARTESIAN_POINT('Origin',(7.7,0.3,-0.349999974455153));
#1021=CARTESIAN_POINT('',(8.,0.3,-0.349999974455153));
#1022=CARTESIAN_POINT('Origin',(7.7,2.95,-0.349999969665494));
#1023=CARTESIAN_POINT('',(8.,2.95,-0.349999969665494));
#1024=CARTESIAN_POINT('Origin',(7.7,4.5,-0.349999980841364));
#1025=CARTESIAN_POINT('',(7.7,4.8,-0.349999980841364));
#1026=CARTESIAN_POINT('Origin',(4.,4.8,0.40000001277242));
#1027=CARTESIAN_POINT('',(6.5,4.8,1.9));
#1028=CARTESIAN_POINT('Origin',(8.,2.3,-1.09999997445515));
#1029=CARTESIAN_POINT('Origin',(4.,6.375,1.9));
#1030=UNCERTAINTY_MEASURE_WITH_UNIT(LENGTH_MEASURE(0.01),#1034,
'DISTANCE_ACCURACY_VALUE',
'Maximum model space distance between geometric entities at asserted c
onnectivities');
#1031=UNCERTAINTY_MEASURE_WITH_UNIT(LENGTH_MEASURE(0.01),#1034,
'DISTANCE_ACCURACY_VALUE',
'Maximum model space distance between geometric entities at asserted c
onnectivities');
#1032=(
GEOMETRIC_REPRESENTATION_CONTEXT(3)
GLOBAL_UNCERTAINTY_ASSIGNED_CONTEXT((#1030))
GLOBAL_UNIT_ASSIGNED_CONTEXT((#1034,#1036,#1037))
REPRESENTATION_CONTEXT('','3D')
);
#1033=(
GEOMETRIC_REPRESENTATION_CONTEXT(3)
GLOBAL_UNCERTAINTY_ASSIGNED_CONTEXT((#1031))
GLOBAL_UNIT_ASSIGNED_CONTEXT((#1034,#1036,#1037))
REPRESENTATION_CONTEXT('','3D')
);
#1034=(
LENGTH_UNIT()
NAMED_UNIT(*)
SI_UNIT(.MILLI.,.METRE.)
);
#1035=(
LENGTH_UNIT()
NAMED_UNIT(*)
SI_UNIT($,.METRE.)
);
#1036=(
NAMED_UNIT(*)
PLANE_ANGLE_UNIT()
SI_UNIT($,.RADIAN.)
);
#1037=(
NAMED_UNIT(*)
SI_UNIT($,.STERADIAN.)
SOLID_ANGLE_UNIT()
);
#1038=SHAPE_DEFINITION_REPRESENTATION(#1039,#1040);
#1039=PRODUCT_DEFINITION_SHAPE('',$,#1042);
#1040=SHAPE_REPRESENTATION('',(#614),#1032);
#1041=PRODUCT_DEFINITION_CONTEXT('part definition',#1046,'design');
#1042=PRODUCT_DEFINITION('2026-03-28-17-47-35-593',
'motor-cable-clip-2x',#1043,#1041);
#1043=PRODUCT_DEFINITION_FORMATION('',$,#1048);
#1044=PRODUCT_RELATED_PRODUCT_CATEGORY('motor-cable-clip-2x',
'motor-cable-clip-2x',(#1048));
#1045=APPLICATION_PROTOCOL_DEFINITION('international standard',
'automotive_design',2009,#1046);
#1046=APPLICATION_CONTEXT(
'Core Data for Automotive Mechanical Design Process');
#1047=PRODUCT_CONTEXT('part definition',#1046,'mechanical');
#1048=PRODUCT('2026-03-28-17-47-35-593','motor-cable-clip-2x',$,(#1047));
#1049=PRESENTATION_STYLE_ASSIGNMENT((#1051));
#1050=PRESENTATION_STYLE_ASSIGNMENT((#1052));
#1051=SURFACE_STYLE_USAGE(.BOTH.,#1053);
#1052=SURFACE_STYLE_USAGE(.BOTH.,#1054);
#1053=SURFACE_SIDE_STYLE('',(#1055));
#1054=SURFACE_SIDE_STYLE('',(#1056));
#1055=SURFACE_STYLE_FILL_AREA(#1057);
#1056=SURFACE_STYLE_FILL_AREA(#1058);
#1057=FILL_AREA_STYLE('Stahl - satiniert',(#1059));
#1058=FILL_AREA_STYLE('Opaque(108,108,108)',(#1060));
#1059=FILL_AREA_STYLE_COLOUR('Stahl - satiniert',#1061);
#1060=FILL_AREA_STYLE_COLOUR('Opaque(108,108,108)',#1062);
#1061=COLOUR_RGB('Stahl - satiniert',0.627450980392157,0.627450980392157,
0.627450980392157);
#1062=COLOUR_RGB('Opaque(108,108,108)',0.423529411764706,0.423529411764706,
0.423529411764706);
ENDSEC;
END-ISO-10303-21;
