ISO-10303-21;
HEADER;
/* Generated by software containing ST-Developer
 * from STEP Tools, Inc. (www.steptools.com) 
 */

FILE_DESCRIPTION(
/* description */ (''),
/* implementation_level */ '2;1');

FILE_NAME(
/* name */ 'motor-cable-clip.step',
/* time_stamp */ '2026-03-30T11:12:22+02:00',
/* author */ (''),
/* organization */ (''),
/* preprocessor_version */ 'ST-DEVELOPER v20.1',
/* originating_system */ 'Autodesk Translation Framework v14.24.0.0',
/* authorisation */ '');

FILE_SCHEMA (('AUTOMOTIVE_DESIGN { 1 0 10303 214 3 1 1 }'));
ENDSEC;

DATA;
#10=MECHANICAL_DESIGN_GEOMETRIC_PRESENTATION_REPRESENTATION('',(#13),#1033);
#11=SHAPE_REPRESENTATION_RELATIONSHIP('SRR','None',#1040,#12);
#12=ADVANCED_BREP_SHAPE_REPRESENTATION('',(#14),#1032);
#13=STYLED_ITEM('',(#1050),#14);
#14=MANIFOLD_SOLID_BREP('K\X\F6rper1',#601);
#15=CYLINDRICAL_SURFACE('',#623,1.05);
#16=CYLINDRICAL_SURFACE('',#632,0.3);
#17=CYLINDRICAL_SURFACE('',#646,0.3);
#18=CYLINDRICAL_SURFACE('',#649,0.3);
#19=CYLINDRICAL_SURFACE('',#652,0.3);
#20=CYLINDRICAL_SURFACE('',#656,0.3);
#21=CYLINDRICAL_SURFACE('',#659,0.3);
#22=CYLINDRICAL_SURFACE('',#662,0.3);
#23=CYLINDRICAL_SURFACE('',#669,0.3);
#24=CYLINDRICAL_SURFACE('',#670,0.3);
#25=CYLINDRICAL_SURFACE('',#671,0.3);
#26=CIRCLE('',#618,0.85);
#27=CIRCLE('',#620,1.05);
#28=CIRCLE('',#624,1.05);
#29=CIRCLE('',#629,0.85);
#30=CIRCLE('',#633,0.3);
#31=CIRCLE('',#634,0.3);
#32=CIRCLE('',#636,0.3);
#33=CIRCLE('',#637,0.3);
#34=CIRCLE('',#638,0.3);
#35=CIRCLE('',#639,0.3);
#36=CIRCLE('',#640,0.3);
#37=CIRCLE('',#641,0.3);
#38=CIRCLE('',#642,0.3);
#39=CIRCLE('',#643,0.3);
#40=CIRCLE('',#644,0.3);
#41=CIRCLE('',#647,0.3);
#42=CIRCLE('',#650,0.3);
#43=CIRCLE('',#653,0.3);
#44=CIRCLE('',#657,0.3);
#45=CIRCLE('',#660,0.3);
#46=CIRCLE('',#663,0.3);
#47=CIRCLE('',#665,0.3);
#48=CIRCLE('',#666,0.3);
#49=CIRCLE('',#667,0.3);
#50=CONICAL_SURFACE('',#617,0.95,0.785398163397448);
#51=CONICAL_SURFACE('',#628,0.95,0.785398163397449);
#52=FACE_OUTER_BOUND('',#84,.T.);
#53=FACE_OUTER_BOUND('',#85,.T.);
#54=FACE_OUTER_BOUND('',#86,.T.);
#55=FACE_OUTER_BOUND('',#87,.T.);
#56=FACE_OUTER_BOUND('',#88,.T.);
#57=FACE_OUTER_BOUND('',#89,.T.);
#58=FACE_OUTER_BOUND('',#90,.T.);
#59=FACE_OUTER_BOUND('',#91,.T.);
#60=FACE_OUTER_BOUND('',#92,.T.);
#61=FACE_OUTER_BOUND('',#93,.T.);
#62=FACE_OUTER_BOUND('',#94,.T.);
#63=FACE_OUTER_BOUND('',#95,.T.);
#64=FACE_OUTER_BOUND('',#96,.T.);
#65=FACE_OUTER_BOUND('',#97,.T.);
#66=FACE_OUTER_BOUND('',#98,.T.);
#67=FACE_OUTER_BOUND('',#99,.T.);
#68=FACE_OUTER_BOUND('',#100,.T.);
#69=FACE_OUTER_BOUND('',#101,.T.);
#70=FACE_OUTER_BOUND('',#102,.T.);
#71=FACE_OUTER_BOUND('',#103,.T.);
#72=FACE_OUTER_BOUND('',#104,.T.);
#73=FACE_OUTER_BOUND('',#105,.T.);
#74=FACE_OUTER_BOUND('',#106,.T.);
#75=FACE_OUTER_BOUND('',#107,.T.);
#76=FACE_OUTER_BOUND('',#108,.T.);
#77=FACE_OUTER_BOUND('',#109,.T.);
#78=FACE_OUTER_BOUND('',#110,.T.);
#79=FACE_OUTER_BOUND('',#111,.T.);
#80=FACE_OUTER_BOUND('',#112,.T.);
#81=FACE_OUTER_BOUND('',#113,.T.);
#82=FACE_OUTER_BOUND('',#114,.T.);
#83=FACE_OUTER_BOUND('',#115,.T.);
#84=EDGE_LOOP('',(#378,#379,#380,#381));
#85=EDGE_LOOP('',(#382,#383,#384,#385));
#86=EDGE_LOOP('',(#386,#387,#388,#389));
#87=EDGE_LOOP('',(#390,#391,#392,#393));
#88=EDGE_LOOP('',(#394,#395,#396,#397));
#89=EDGE_LOOP('',(#398,#399,#400,#401));
#90=EDGE_LOOP('',(#402,#403,#404,#405));
#91=EDGE_LOOP('',(#406,#407,#408,#409));
#92=EDGE_LOOP('',(#410,#411,#412,#413));
#93=EDGE_LOOP('',(#414,#415,#416,#417));
#94=EDGE_LOOP('',(#418,#419,#420,#421,#422,#423,#424,#425,#426,#427,#428,
#429,#430,#431,#432,#433,#434,#435,#436,#437,#438,#439,#440,#441));
#95=EDGE_LOOP('',(#442,#443,#444,#445));
#96=EDGE_LOOP('',(#446,#447,#448,#449));
#97=EDGE_LOOP('',(#450,#451,#452,#453));
#98=EDGE_LOOP('',(#454,#455,#456,#457));
#99=EDGE_LOOP('',(#458,#459,#460,#461));
#100=EDGE_LOOP('',(#462,#463,#464,#465));
#101=EDGE_LOOP('',(#466,#467,#468,#469));
#102=EDGE_LOOP('',(#470,#471,#472,#473));
#103=EDGE_LOOP('',(#474,#475,#476,#477));
#104=EDGE_LOOP('',(#478,#479,#480,#481));
#105=EDGE_LOOP('',(#482,#483,#484,#485));
#106=EDGE_LOOP('',(#486,#487,#488,#489));
#107=EDGE_LOOP('',(#490,#491,#492,#493));
#108=EDGE_LOOP('',(#494,#495,#496,#497,#498,#499,#500,#501,#502,#503,#504,
#505,#506,#507,#508,#509,#510,#511,#512,#513));
#109=EDGE_LOOP('',(#514,#515,#516,#517));
#110=EDGE_LOOP('',(#518,#519,#520,#521));
#111=EDGE_LOOP('',(#522,#523,#524,#525));
#112=EDGE_LOOP('',(#526,#527,#528,#529));
#113=EDGE_LOOP('',(#530,#531,#532,#533,#534,#535,#536,#537,#538,#539,#540,
#541));
#114=EDGE_LOOP('',(#542,#543,#544,#545));
#115=EDGE_LOOP('',(#546,#547,#548,#549));
#116=ELLIPSE('',#616,89.7780202814681,3.02400269923287);
#117=ELLIPSE('',#619,89.7780152529902,3.02400261104509);
#118=ELLIPSE('',#627,89.7780112775128,3.02400254140383);
#119=ELLIPSE('',#630,89.7780207117657,3.02400270658951);
#120=LINE('',#859,#178);
#121=LINE('',#861,#179);
#122=LINE('',#863,#180);
#123=LINE('',#873,#181);
#124=LINE('',#875,#182);
#125=LINE('',#876,#183);
#126=LINE('',#879,#184);
#127=LINE('',#881,#185);
#128=LINE('',#882,#186);
#129=LINE('',#885,#187);
#130=LINE('',#889,#188);
#131=LINE('',#890,#189);
#132=LINE('',#893,#190);
#133=LINE('',#895,#191);
#134=LINE('',#903,#192);
#135=LINE('',#904,#193);
#136=LINE('',#910,#194);
#137=LINE('',#913,#195);
#138=LINE('',#916,#196);
#139=LINE('',#920,#197);
#140=LINE('',#924,#198);
#141=LINE('',#928,#199);
#142=LINE('',#932,#200);
#143=LINE('',#935,#201);
#144=LINE('',#937,#202);
#145=LINE('',#941,#203);
#146=LINE('',#945,#204);
#147=LINE('',#949,#205);
#148=LINE('',#952,#206);
#149=LINE('',#955,#207);
#150=LINE('',#956,#208);
#151=LINE('',#959,#209);
#152=LINE('',#962,#210);
#153=LINE('',#965,#211);
#154=LINE('',#966,#212);
#155=LINE('',#971,#213);
#156=LINE('',#972,#214);
#157=LINE('',#975,#215);
#158=LINE('',#976,#216);
#159=LINE('',#980,#217);
#160=LINE('',#983,#218);
#161=LINE('',#984,#219);
#162=LINE('',#988,#220);
#163=LINE('',#991,#221);
#164=LINE('',#992,#222);
#165=LINE('',#997,#223);
#166=LINE('',#998,#224);
#167=LINE('',#1001,#225);
#168=LINE('',#1002,#226);
#169=LINE('',#1006,#227);
#170=LINE('',#1010,#228);
#171=LINE('',#1012,#229);
#172=LINE('',#1016,#230);
#173=LINE('',#1019,#231);
#174=LINE('',#1021,#232);
#175=LINE('',#1023,#233);
#176=LINE('',#1025,#234);
#177=LINE('',#1027,#235);
#178=VECTOR('',#679,10.);
#179=VECTOR('',#680,10.);
#180=VECTOR('',#681,10.);
#181=VECTOR('',#694,10.);
#182=VECTOR('',#695,9.99999999999999);
#183=VECTOR('',#696,10.);
#184=VECTOR('',#699,10.);
#185=VECTOR('',#700,10.);
#186=VECTOR('',#701,10.);
#187=VECTOR('',#704,10.);
#188=VECTOR('',#709,10.);
#189=VECTOR('',#710,10.);
#190=VECTOR('',#713,10.);
#191=VECTOR('',#714,10.);
#192=VECTOR('',#725,10.);
#193=VECTOR('',#726,10.);
#194=VECTOR('',#731,10.);
#195=VECTOR('',#734,10.);
#196=VECTOR('',#737,10.);
#197=VECTOR('',#740,10.);
#198=VECTOR('',#743,10.);
#199=VECTOR('',#746,10.);
#200=VECTOR('',#749,10.);
#201=VECTOR('',#752,10.);
#202=VECTOR('',#753,10.);
#203=VECTOR('',#756,10.);
#204=VECTOR('',#759,10.);
#205=VECTOR('',#762,10.);
#206=VECTOR('',#765,10.);
#207=VECTOR('',#768,10.);
#208=VECTOR('',#769,10.);
#209=VECTOR('',#772,10.);
#210=VECTOR('',#775,10.);
#211=VECTOR('',#778,10.);
#212=VECTOR('',#779,10.);
#213=VECTOR('',#784,10.);
#214=VECTOR('',#785,10.);
#215=VECTOR('',#788,10.);
#216=VECTOR('',#789,10.);
#217=VECTOR('',#796,10.);
#218=VECTOR('',#799,10.);
#219=VECTOR('',#800,10.);
#220=VECTOR('',#805,10.);
#221=VECTOR('',#808,10.);
#222=VECTOR('',#809,10.);
#223=VECTOR('',#814,10.);
#224=VECTOR('',#815,10.);
#225=VECTOR('',#818,10.);
#226=VECTOR('',#819,10.);
#227=VECTOR('',#824,10.);
#228=VECTOR('',#829,10.);
#229=VECTOR('',#830,10.);
#230=VECTOR('',#833,10.);
#231=VECTOR('',#838,10.);
#232=VECTOR('',#841,10.);
#233=VECTOR('',#844,10.);
#234=VECTOR('',#847,10.);
#235=VECTOR('',#850,10.);
#236=VERTEX_POINT('',#857);
#237=VERTEX_POINT('',#858);
#238=VERTEX_POINT('',#860);
#239=VERTEX_POINT('',#862);
#240=VERTEX_POINT('',#866);
#241=VERTEX_POINT('',#868);
#242=VERTEX_POINT('',#872);
#243=VERTEX_POINT('',#874);
#244=VERTEX_POINT('',#878);
#245=VERTEX_POINT('',#880);
#246=VERTEX_POINT('',#884);
#247=VERTEX_POINT('',#888);
#248=VERTEX_POINT('',#892);
#249=VERTEX_POINT('',#894);
#250=VERTEX_POINT('',#898);
#251=VERTEX_POINT('',#902);
#252=VERTEX_POINT('',#906);
#253=VERTEX_POINT('',#907);
#254=VERTEX_POINT('',#909);
#255=VERTEX_POINT('',#911);
#256=VERTEX_POINT('',#915);
#257=VERTEX_POINT('',#917);
#258=VERTEX_POINT('',#919);
#259=VERTEX_POINT('',#921);
#260=VERTEX_POINT('',#923);
#261=VERTEX_POINT('',#925);
#262=VERTEX_POINT('',#927);
#263=VERTEX_POINT('',#929);
#264=VERTEX_POINT('',#931);
#265=VERTEX_POINT('',#933);
#266=VERTEX_POINT('',#936);
#267=VERTEX_POINT('',#938);
#268=VERTEX_POINT('',#940);
#269=VERTEX_POINT('',#942);
#270=VERTEX_POINT('',#944);
#271=VERTEX_POINT('',#946);
#272=VERTEX_POINT('',#948);
#273=VERTEX_POINT('',#950);
#274=VERTEX_POINT('',#954);
#275=VERTEX_POINT('',#958);
#276=VERTEX_POINT('',#960);
#277=VERTEX_POINT('',#964);
#278=VERTEX_POINT('',#968);
#279=VERTEX_POINT('',#969);
#280=VERTEX_POINT('',#974);
#281=VERTEX_POINT('',#982);
#282=VERTEX_POINT('',#986);
#283=VERTEX_POINT('',#990);
#284=VERTEX_POINT('',#994);
#285=VERTEX_POINT('',#995);
#286=VERTEX_POINT('',#1000);
#287=VERTEX_POINT('',#1004);
#288=VERTEX_POINT('',#1008);
#289=VERTEX_POINT('',#1011);
#290=VERTEX_POINT('',#1013);
#291=VERTEX_POINT('',#1015);
#292=EDGE_CURVE('',#236,#237,#120,.T.);
#293=EDGE_CURVE('',#237,#238,#121,.F.);
#294=EDGE_CURVE('',#238,#239,#122,.T.);
#295=EDGE_CURVE('',#239,#236,#116,.T.);
#296=EDGE_CURVE('',#239,#240,#26,.T.);
#297=EDGE_CURVE('',#240,#241,#117,.T.);
#298=EDGE_CURVE('',#241,#236,#27,.T.);
#299=EDGE_CURVE('',#240,#242,#123,.T.);
#300=EDGE_CURVE('',#242,#243,#124,.F.);
#301=EDGE_CURVE('',#243,#241,#125,.T.);
#302=EDGE_CURVE('',#244,#236,#126,.T.);
#303=EDGE_CURVE('',#245,#244,#127,.T.);
#304=EDGE_CURVE('',#245,#237,#128,.T.);
#305=EDGE_CURVE('',#246,#241,#129,.T.);
#306=EDGE_CURVE('',#244,#246,#28,.T.);
#307=EDGE_CURVE('',#247,#243,#130,.T.);
#308=EDGE_CURVE('',#246,#247,#131,.T.);
#309=EDGE_CURVE('',#247,#248,#132,.F.);
#310=EDGE_CURVE('',#248,#249,#133,.T.);
#311=EDGE_CURVE('',#249,#246,#118,.T.);
#312=EDGE_CURVE('',#249,#250,#29,.T.);
#313=EDGE_CURVE('',#250,#244,#119,.T.);
#314=EDGE_CURVE('',#250,#251,#134,.T.);
#315=EDGE_CURVE('',#251,#245,#135,.F.);
#316=EDGE_CURVE('',#252,#253,#30,.T.);
#317=EDGE_CURVE('',#253,#254,#136,.T.);
#318=EDGE_CURVE('',#254,#255,#31,.T.);
#319=EDGE_CURVE('',#255,#252,#137,.T.);
#320=EDGE_CURVE('',#248,#256,#138,.T.);
#321=EDGE_CURVE('',#257,#256,#32,.T.);
#322=EDGE_CURVE('',#257,#258,#139,.T.);
#323=EDGE_CURVE('',#259,#258,#33,.T.);
#324=EDGE_CURVE('',#260,#259,#140,.F.);
#325=EDGE_CURVE('',#261,#260,#34,.T.);
#326=EDGE_CURVE('',#261,#262,#141,.T.);
#327=EDGE_CURVE('',#263,#262,#35,.T.);
#328=EDGE_CURVE('',#264,#263,#142,.T.);
#329=EDGE_CURVE('',#265,#264,#36,.T.);
#330=EDGE_CURVE('',#265,#253,#143,.T.);
#331=EDGE_CURVE('',#266,#252,#144,.F.);
#332=EDGE_CURVE('',#267,#266,#37,.T.);
#333=EDGE_CURVE('',#267,#268,#145,.T.);
#334=EDGE_CURVE('',#269,#268,#38,.T.);
#335=EDGE_CURVE('',#270,#269,#146,.T.);
#336=EDGE_CURVE('',#271,#270,#39,.T.);
#337=EDGE_CURVE('',#272,#271,#147,.F.);
#338=EDGE_CURVE('',#273,#272,#40,.T.);
#339=EDGE_CURVE('',#273,#251,#148,.T.);
#340=EDGE_CURVE('',#274,#255,#149,.F.);
#341=EDGE_CURVE('',#266,#274,#150,.T.);
#342=EDGE_CURVE('',#264,#275,#151,.T.);
#343=EDGE_CURVE('',#275,#276,#41,.T.);
#344=EDGE_CURVE('',#276,#265,#152,.T.);
#345=EDGE_CURVE('',#277,#263,#153,.T.);
#346=EDGE_CURVE('',#275,#277,#154,.T.);
#347=EDGE_CURVE('',#278,#279,#42,.T.);
#348=EDGE_CURVE('',#279,#261,#155,.T.);
#349=EDGE_CURVE('',#260,#278,#156,.T.);
#350=EDGE_CURVE('',#280,#279,#157,.F.);
#351=EDGE_CURVE('',#262,#280,#158,.T.);
#352=EDGE_CURVE('',#280,#277,#43,.T.);
#353=EDGE_CURVE('',#254,#276,#159,.F.);
#354=EDGE_CURVE('',#281,#259,#160,.T.);
#355=EDGE_CURVE('',#278,#281,#161,.F.);
#356=EDGE_CURVE('',#282,#281,#44,.T.);
#357=EDGE_CURVE('',#258,#282,#162,.T.);
#358=EDGE_CURVE('',#283,#257,#163,.T.);
#359=EDGE_CURVE('',#282,#283,#164,.F.);
#360=EDGE_CURVE('',#284,#285,#45,.T.);
#361=EDGE_CURVE('',#285,#273,#165,.T.);
#362=EDGE_CURVE('',#272,#284,#166,.T.);
#363=EDGE_CURVE('',#286,#271,#167,.T.);
#364=EDGE_CURVE('',#284,#286,#168,.F.);
#365=EDGE_CURVE('',#287,#286,#46,.T.);
#366=EDGE_CURVE('',#270,#287,#169,.T.);
#367=EDGE_CURVE('',#288,#283,#47,.T.);
#368=EDGE_CURVE('',#288,#285,#170,.T.);
#369=EDGE_CURVE('',#287,#289,#171,.T.);
#370=EDGE_CURVE('',#290,#289,#48,.T.);
#371=EDGE_CURVE('',#290,#291,#172,.F.);
#372=EDGE_CURVE('',#274,#291,#49,.T.);
#373=EDGE_CURVE('',#289,#269,#173,.T.);
#374=EDGE_CURVE('',#268,#290,#174,.T.);
#375=EDGE_CURVE('',#291,#267,#175,.T.);
#376=EDGE_CURVE('',#256,#288,#176,.T.);
#377=EDGE_CURVE('',#238,#242,#177,.T.);
#378=ORIENTED_EDGE('',*,*,#292,.T.);
#379=ORIENTED_EDGE('',*,*,#293,.T.);
#380=ORIENTED_EDGE('',*,*,#294,.T.);
#381=ORIENTED_EDGE('',*,*,#295,.T.);
#382=ORIENTED_EDGE('',*,*,#296,.T.);
#383=ORIENTED_EDGE('',*,*,#297,.T.);
#384=ORIENTED_EDGE('',*,*,#298,.T.);
#385=ORIENTED_EDGE('',*,*,#295,.F.);
#386=ORIENTED_EDGE('',*,*,#299,.T.);
#387=ORIENTED_EDGE('',*,*,#300,.T.);
#388=ORIENTED_EDGE('',*,*,#301,.T.);
#389=ORIENTED_EDGE('',*,*,#297,.F.);
#390=ORIENTED_EDGE('',*,*,#292,.F.);
#391=ORIENTED_EDGE('',*,*,#302,.F.);
#392=ORIENTED_EDGE('',*,*,#303,.F.);
#393=ORIENTED_EDGE('',*,*,#304,.T.);
#394=ORIENTED_EDGE('',*,*,#298,.F.);
#395=ORIENTED_EDGE('',*,*,#305,.F.);
#396=ORIENTED_EDGE('',*,*,#306,.F.);
#397=ORIENTED_EDGE('',*,*,#302,.T.);
#398=ORIENTED_EDGE('',*,*,#301,.F.);
#399=ORIENTED_EDGE('',*,*,#307,.F.);
#400=ORIENTED_EDGE('',*,*,#308,.F.);
#401=ORIENTED_EDGE('',*,*,#305,.T.);
#402=ORIENTED_EDGE('',*,*,#308,.T.);
#403=ORIENTED_EDGE('',*,*,#309,.T.);
#404=ORIENTED_EDGE('',*,*,#310,.T.);
#405=ORIENTED_EDGE('',*,*,#311,.T.);
#406=ORIENTED_EDGE('',*,*,#312,.T.);
#407=ORIENTED_EDGE('',*,*,#313,.T.);
#408=ORIENTED_EDGE('',*,*,#306,.T.);
#409=ORIENTED_EDGE('',*,*,#311,.F.);
#410=ORIENTED_EDGE('',*,*,#314,.T.);
#411=ORIENTED_EDGE('',*,*,#315,.T.);
#412=ORIENTED_EDGE('',*,*,#303,.T.);
#413=ORIENTED_EDGE('',*,*,#313,.F.);
#414=ORIENTED_EDGE('',*,*,#316,.T.);
#415=ORIENTED_EDGE('',*,*,#317,.T.);
#416=ORIENTED_EDGE('',*,*,#318,.T.);
#417=ORIENTED_EDGE('',*,*,#319,.T.);
#418=ORIENTED_EDGE('',*,*,#320,.T.);
#419=ORIENTED_EDGE('',*,*,#321,.F.);
#420=ORIENTED_EDGE('',*,*,#322,.T.);
#421=ORIENTED_EDGE('',*,*,#323,.F.);
#422=ORIENTED_EDGE('',*,*,#324,.F.);
#423=ORIENTED_EDGE('',*,*,#325,.F.);
#424=ORIENTED_EDGE('',*,*,#326,.T.);
#425=ORIENTED_EDGE('',*,*,#327,.F.);
#426=ORIENTED_EDGE('',*,*,#328,.F.);
#427=ORIENTED_EDGE('',*,*,#329,.F.);
#428=ORIENTED_EDGE('',*,*,#330,.T.);
#429=ORIENTED_EDGE('',*,*,#316,.F.);
#430=ORIENTED_EDGE('',*,*,#331,.F.);
#431=ORIENTED_EDGE('',*,*,#332,.F.);
#432=ORIENTED_EDGE('',*,*,#333,.T.);
#433=ORIENTED_EDGE('',*,*,#334,.F.);
#434=ORIENTED_EDGE('',*,*,#335,.F.);
#435=ORIENTED_EDGE('',*,*,#336,.F.);
#436=ORIENTED_EDGE('',*,*,#337,.F.);
#437=ORIENTED_EDGE('',*,*,#338,.F.);
#438=ORIENTED_EDGE('',*,*,#339,.T.);
#439=ORIENTED_EDGE('',*,*,#314,.F.);
#440=ORIENTED_EDGE('',*,*,#312,.F.);
#441=ORIENTED_EDGE('',*,*,#310,.F.);
#442=ORIENTED_EDGE('',*,*,#319,.F.);
#443=ORIENTED_EDGE('',*,*,#340,.F.);
#444=ORIENTED_EDGE('',*,*,#341,.F.);
#445=ORIENTED_EDGE('',*,*,#331,.T.);
#446=ORIENTED_EDGE('',*,*,#329,.T.);
#447=ORIENTED_EDGE('',*,*,#342,.T.);
#448=ORIENTED_EDGE('',*,*,#343,.T.);
#449=ORIENTED_EDGE('',*,*,#344,.T.);
#450=ORIENTED_EDGE('',*,*,#342,.F.);
#451=ORIENTED_EDGE('',*,*,#328,.T.);
#452=ORIENTED_EDGE('',*,*,#345,.F.);
#453=ORIENTED_EDGE('',*,*,#346,.F.);
#454=ORIENTED_EDGE('',*,*,#347,.T.);
#455=ORIENTED_EDGE('',*,*,#348,.T.);
#456=ORIENTED_EDGE('',*,*,#325,.T.);
#457=ORIENTED_EDGE('',*,*,#349,.T.);
#458=ORIENTED_EDGE('',*,*,#348,.F.);
#459=ORIENTED_EDGE('',*,*,#350,.F.);
#460=ORIENTED_EDGE('',*,*,#351,.F.);
#461=ORIENTED_EDGE('',*,*,#326,.F.);
#462=ORIENTED_EDGE('',*,*,#327,.T.);
#463=ORIENTED_EDGE('',*,*,#351,.T.);
#464=ORIENTED_EDGE('',*,*,#352,.T.);
#465=ORIENTED_EDGE('',*,*,#345,.T.);
#466=ORIENTED_EDGE('',*,*,#317,.F.);
#467=ORIENTED_EDGE('',*,*,#330,.F.);
#468=ORIENTED_EDGE('',*,*,#344,.F.);
#469=ORIENTED_EDGE('',*,*,#353,.F.);
#470=ORIENTED_EDGE('',*,*,#349,.F.);
#471=ORIENTED_EDGE('',*,*,#324,.T.);
#472=ORIENTED_EDGE('',*,*,#354,.F.);
#473=ORIENTED_EDGE('',*,*,#355,.F.);
#474=ORIENTED_EDGE('',*,*,#356,.T.);
#475=ORIENTED_EDGE('',*,*,#354,.T.);
#476=ORIENTED_EDGE('',*,*,#323,.T.);
#477=ORIENTED_EDGE('',*,*,#357,.T.);
#478=ORIENTED_EDGE('',*,*,#357,.F.);
#479=ORIENTED_EDGE('',*,*,#322,.F.);
#480=ORIENTED_EDGE('',*,*,#358,.F.);
#481=ORIENTED_EDGE('',*,*,#359,.F.);
#482=ORIENTED_EDGE('',*,*,#360,.T.);
#483=ORIENTED_EDGE('',*,*,#361,.T.);
#484=ORIENTED_EDGE('',*,*,#338,.T.);
#485=ORIENTED_EDGE('',*,*,#362,.T.);
#486=ORIENTED_EDGE('',*,*,#362,.F.);
#487=ORIENTED_EDGE('',*,*,#337,.T.);
#488=ORIENTED_EDGE('',*,*,#363,.F.);
#489=ORIENTED_EDGE('',*,*,#364,.F.);
#490=ORIENTED_EDGE('',*,*,#365,.T.);
#491=ORIENTED_EDGE('',*,*,#363,.T.);
#492=ORIENTED_EDGE('',*,*,#336,.T.);
#493=ORIENTED_EDGE('',*,*,#366,.T.);
#494=ORIENTED_EDGE('',*,*,#318,.F.);
#495=ORIENTED_EDGE('',*,*,#353,.T.);
#496=ORIENTED_EDGE('',*,*,#343,.F.);
#497=ORIENTED_EDGE('',*,*,#346,.T.);
#498=ORIENTED_EDGE('',*,*,#352,.F.);
#499=ORIENTED_EDGE('',*,*,#350,.T.);
#500=ORIENTED_EDGE('',*,*,#347,.F.);
#501=ORIENTED_EDGE('',*,*,#355,.T.);
#502=ORIENTED_EDGE('',*,*,#356,.F.);
#503=ORIENTED_EDGE('',*,*,#359,.T.);
#504=ORIENTED_EDGE('',*,*,#367,.F.);
#505=ORIENTED_EDGE('',*,*,#368,.T.);
#506=ORIENTED_EDGE('',*,*,#360,.F.);
#507=ORIENTED_EDGE('',*,*,#364,.T.);
#508=ORIENTED_EDGE('',*,*,#365,.F.);
#509=ORIENTED_EDGE('',*,*,#369,.T.);
#510=ORIENTED_EDGE('',*,*,#370,.F.);
#511=ORIENTED_EDGE('',*,*,#371,.T.);
#512=ORIENTED_EDGE('',*,*,#372,.F.);
#513=ORIENTED_EDGE('',*,*,#340,.T.);
#514=ORIENTED_EDGE('',*,*,#366,.F.);
#515=ORIENTED_EDGE('',*,*,#335,.T.);
#516=ORIENTED_EDGE('',*,*,#373,.F.);
#517=ORIENTED_EDGE('',*,*,#369,.F.);
#518=ORIENTED_EDGE('',*,*,#370,.T.);
#519=ORIENTED_EDGE('',*,*,#373,.T.);
#520=ORIENTED_EDGE('',*,*,#334,.T.);
#521=ORIENTED_EDGE('',*,*,#374,.T.);
#522=ORIENTED_EDGE('',*,*,#372,.T.);
#523=ORIENTED_EDGE('',*,*,#375,.T.);
#524=ORIENTED_EDGE('',*,*,#332,.T.);
#525=ORIENTED_EDGE('',*,*,#341,.T.);
#526=ORIENTED_EDGE('',*,*,#367,.T.);
#527=ORIENTED_EDGE('',*,*,#358,.T.);
#528=ORIENTED_EDGE('',*,*,#321,.T.);
#529=ORIENTED_EDGE('',*,*,#376,.T.);
#530=ORIENTED_EDGE('',*,*,#361,.F.);
#531=ORIENTED_EDGE('',*,*,#368,.F.);
#532=ORIENTED_EDGE('',*,*,#376,.F.);
#533=ORIENTED_EDGE('',*,*,#320,.F.);
#534=ORIENTED_EDGE('',*,*,#309,.F.);
#535=ORIENTED_EDGE('',*,*,#307,.T.);
#536=ORIENTED_EDGE('',*,*,#300,.F.);
#537=ORIENTED_EDGE('',*,*,#377,.F.);
#538=ORIENTED_EDGE('',*,*,#293,.F.);
#539=ORIENTED_EDGE('',*,*,#304,.F.);
#540=ORIENTED_EDGE('',*,*,#315,.F.);
#541=ORIENTED_EDGE('',*,*,#339,.F.);
#542=ORIENTED_EDGE('',*,*,#374,.F.);
#543=ORIENTED_EDGE('',*,*,#333,.F.);
#544=ORIENTED_EDGE('',*,*,#375,.F.);
#545=ORIENTED_EDGE('',*,*,#371,.F.);
#546=ORIENTED_EDGE('',*,*,#294,.F.);
#547=ORIENTED_EDGE('',*,*,#377,.T.);
#548=ORIENTED_EDGE('',*,*,#299,.F.);
#549=ORIENTED_EDGE('',*,*,#296,.F.);
#550=PLANE('',#615);
#551=PLANE('',#621);
#552=PLANE('',#622);
#553=PLANE('',#625);
#554=PLANE('',#626);
#555=PLANE('',#631);
#556=PLANE('',#635);
#557=PLANE('',#645);
#558=PLANE('',#648);
#559=PLANE('',#651);
#560=PLANE('',#654);
#561=PLANE('',#655);
#562=PLANE('',#658);
#563=PLANE('',#661);
#564=PLANE('',#664);
#565=PLANE('',#668);
#566=PLANE('',#672);
#567=PLANE('',#673);
#568=PLANE('',#674);
#569=ADVANCED_FACE('',(#52),#550,.T.);
#570=ADVANCED_FACE('',(#53),#50,.T.);
#571=ADVANCED_FACE('',(#54),#551,.T.);
#572=ADVANCED_FACE('',(#55),#552,.T.);
#573=ADVANCED_FACE('',(#56),#15,.T.);
#574=ADVANCED_FACE('',(#57),#553,.T.);
#575=ADVANCED_FACE('',(#58),#554,.T.);
#576=ADVANCED_FACE('',(#59),#51,.T.);
#577=ADVANCED_FACE('',(#60),#555,.T.);
#578=ADVANCED_FACE('',(#61),#16,.T.);
#579=ADVANCED_FACE('',(#62),#556,.F.);
#580=ADVANCED_FACE('',(#63),#557,.T.);
#581=ADVANCED_FACE('',(#64),#17,.F.);
#582=ADVANCED_FACE('',(#65),#558,.F.);
#583=ADVANCED_FACE('',(#66),#18,.F.);
#584=ADVANCED_FACE('',(#67),#559,.T.);
#585=ADVANCED_FACE('',(#68),#19,.F.);
#586=ADVANCED_FACE('',(#69),#560,.T.);
#587=ADVANCED_FACE('',(#70),#561,.T.);
#588=ADVANCED_FACE('',(#71),#20,.T.);
#589=ADVANCED_FACE('',(#72),#562,.T.);
#590=ADVANCED_FACE('',(#73),#21,.T.);
#591=ADVANCED_FACE('',(#74),#563,.T.);
#592=ADVANCED_FACE('',(#75),#22,.T.);
#593=ADVANCED_FACE('',(#76),#564,.T.);
#594=ADVANCED_FACE('',(#77),#565,.T.);
#595=ADVANCED_FACE('',(#78),#23,.T.);
#596=ADVANCED_FACE('',(#79),#24,.T.);
#597=ADVANCED_FACE('',(#80),#25,.T.);
#598=ADVANCED_FACE('',(#81),#566,.F.);
#599=ADVANCED_FACE('',(#82),#567,.T.);
#600=ADVANCED_FACE('',(#83),#568,.T.);
#601=CLOSED_SHELL('',(#569,#570,#571,#572,#573,#574,#575,#576,#577,#578,
#579,#580,#581,#582,#583,#584,#585,#586,#587,#588,#589,#590,#591,#592,#593,
#594,#595,#596,#597,#598,#599,#600));
#602=DERIVED_UNIT_ELEMENT(#604,1.);
#603=DERIVED_UNIT_ELEMENT(#1035,-3.);
#604=(
MASS_UNIT()
NAMED_UNIT(*)
SI_UNIT(.KILO.,.GRAM.)
);
#605=DERIVED_UNIT((#602,#603));
#606=MEASURE_REPRESENTATION_ITEM('density measure',
POSITIVE_RATIO_MEASURE(7850.),#605);
#607=PROPERTY_DEFINITION_REPRESENTATION(#612,#609);
#608=PROPERTY_DEFINITION_REPRESENTATION(#613,#610);
#609=REPRESENTATION('material name',(#611),#1032);
#610=REPRESENTATION('density',(#606),#1032);
#611=DESCRIPTIVE_REPRESENTATION_ITEM('Stahl','Stahl');
#612=PROPERTY_DEFINITION('material property','material name',#1042);
#613=PROPERTY_DEFINITION('material property','density of part',#1042);
#614=AXIS2_PLACEMENT_3D('',#855,#675,#676);
#615=AXIS2_PLACEMENT_3D('',#856,#677,#678);
#616=AXIS2_PLACEMENT_3D('',#864,#682,#683);
#617=AXIS2_PLACEMENT_3D('',#865,#684,#685);
#618=AXIS2_PLACEMENT_3D('',#867,#686,#687);
#619=AXIS2_PLACEMENT_3D('',#869,#688,#689);
#620=AXIS2_PLACEMENT_3D('',#870,#690,#691);
#621=AXIS2_PLACEMENT_3D('',#871,#692,#693);
#622=AXIS2_PLACEMENT_3D('',#877,#697,#698);
#623=AXIS2_PLACEMENT_3D('',#883,#702,#703);
#624=AXIS2_PLACEMENT_3D('',#886,#705,#706);
#625=AXIS2_PLACEMENT_3D('',#887,#707,#708);
#626=AXIS2_PLACEMENT_3D('',#891,#711,#712);
#627=AXIS2_PLACEMENT_3D('',#896,#715,#716);
#628=AXIS2_PLACEMENT_3D('',#897,#717,#718);
#629=AXIS2_PLACEMENT_3D('',#899,#719,#720);
#630=AXIS2_PLACEMENT_3D('',#900,#721,#722);
#631=AXIS2_PLACEMENT_3D('',#901,#723,#724);
#632=AXIS2_PLACEMENT_3D('',#905,#727,#728);
#633=AXIS2_PLACEMENT_3D('',#908,#729,#730);
#634=AXIS2_PLACEMENT_3D('',#912,#732,#733);
#635=AXIS2_PLACEMENT_3D('',#914,#735,#736);
#636=AXIS2_PLACEMENT_3D('',#918,#738,#739);
#637=AXIS2_PLACEMENT_3D('',#922,#741,#742);
#638=AXIS2_PLACEMENT_3D('',#926,#744,#745);
#639=AXIS2_PLACEMENT_3D('',#930,#747,#748);
#640=AXIS2_PLACEMENT_3D('',#934,#750,#751);
#641=AXIS2_PLACEMENT_3D('',#939,#754,#755);
#642=AXIS2_PLACEMENT_3D('',#943,#757,#758);
#643=AXIS2_PLACEMENT_3D('',#947,#760,#761);
#644=AXIS2_PLACEMENT_3D('',#951,#763,#764);
#645=AXIS2_PLACEMENT_3D('',#953,#766,#767);
#646=AXIS2_PLACEMENT_3D('',#957,#770,#771);
#647=AXIS2_PLACEMENT_3D('',#961,#773,#774);
#648=AXIS2_PLACEMENT_3D('',#963,#776,#777);
#649=AXIS2_PLACEMENT_3D('',#967,#780,#781);
#650=AXIS2_PLACEMENT_3D('',#970,#782,#783);
#651=AXIS2_PLACEMENT_3D('',#973,#786,#787);
#652=AXIS2_PLACEMENT_3D('',#977,#790,#791);
#653=AXIS2_PLACEMENT_3D('',#978,#792,#793);
#654=AXIS2_PLACEMENT_3D('',#979,#794,#795);
#655=AXIS2_PLACEMENT_3D('',#981,#797,#798);
#656=AXIS2_PLACEMENT_3D('',#985,#801,#802);
#657=AXIS2_PLACEMENT_3D('',#987,#803,#804);
#658=AXIS2_PLACEMENT_3D('',#989,#806,#807);
#659=AXIS2_PLACEMENT_3D('',#993,#810,#811);
#660=AXIS2_PLACEMENT_3D('',#996,#812,#813);
#661=AXIS2_PLACEMENT_3D('',#999,#816,#817);
#662=AXIS2_PLACEMENT_3D('',#1003,#820,#821);
#663=AXIS2_PLACEMENT_3D('',#1005,#822,#823);
#664=AXIS2_PLACEMENT_3D('',#1007,#825,#826);
#665=AXIS2_PLACEMENT_3D('',#1009,#827,#828);
#666=AXIS2_PLACEMENT_3D('',#1014,#831,#832);
#667=AXIS2_PLACEMENT_3D('',#1017,#834,#835);
#668=AXIS2_PLACEMENT_3D('',#1018,#836,#837);
#669=AXIS2_PLACEMENT_3D('',#1020,#839,#840);
#670=AXIS2_PLACEMENT_3D('',#1022,#842,#843);
#671=AXIS2_PLACEMENT_3D('',#1024,#845,#846);
#672=AXIS2_PLACEMENT_3D('',#1026,#848,#849);
#673=AXIS2_PLACEMENT_3D('',#1028,#851,#852);
#674=AXIS2_PLACEMENT_3D('',#1029,#853,#854);
#675=DIRECTION('axis',(0.,0.,1.));
#676=DIRECTION('refdir',(1.,0.,0.));
#677=DIRECTION('center_axis',(-0.707106781186548,2.88129889742935E-13,0.707106781186547));
#678=DIRECTION('ref_axis',(0.707106781186547,0.,0.707106781186548));
#679=DIRECTION('',(-4.07477197799523E-13,-1.,0.));
#680=DIRECTION('',(-0.707106781186547,0.,-0.707106781186548));
#681=DIRECTION('',(4.07477197799523E-13,1.,0.));
#682=DIRECTION('center_axis',(0.707106781186577,-4.74565249619192E-13,-0.707106781186519));
#683=DIRECTION('ref_axis',(0.707095781921183,0.00557766783392647,0.707095781921237));
#684=DIRECTION('center_axis',(0.,0.,-1.));
#685=DIRECTION('ref_axis',(4.3094183192687E-15,1.,0.));
#686=DIRECTION('center_axis',(0.,0.,-1.));
#687=DIRECTION('ref_axis',(-0.857142857142901,0.51507875363764,0.));
#688=DIRECTION('center_axis',(0.707106781186621,8.33125660441323E-13,0.707106781186474));
#689=DIRECTION('ref_axis',(0.707095781919912,-0.00557766814525133,-0.707095781920053));
#690=DIRECTION('center_axis',(0.,0.,1.));
#691=DIRECTION('ref_axis',(-0.857142857142901,0.51507875363764,0.));
#692=DIRECTION('center_axis',(0.707106781186548,3.33256392789175E-13,0.707106781186548));
#693=DIRECTION('ref_axis',(0.707106781186548,0.,-0.707106781186548));
#694=DIRECTION('',(4.71295710429986E-13,-1.,0.));
#695=DIRECTION('',(-0.707106781186547,0.,0.707106781186547));
#696=DIRECTION('',(-4.71295710429986E-13,1.,0.));
#697=DIRECTION('center_axis',(-1.,4.07477197799523E-13,0.));
#698=DIRECTION('ref_axis',(-4.07477197799523E-13,-1.,0.));
#699=DIRECTION('',(0.,0.,1.));
#700=DIRECTION('',(4.07477197799523E-13,1.,0.));
#701=DIRECTION('',(0.,0.,1.));
#702=DIRECTION('center_axis',(0.,0.,1.));
#703=DIRECTION('ref_axis',(3.30423519233678E-16,1.,0.));
#704=DIRECTION('',(0.,0.,1.));
#705=DIRECTION('center_axis',(0.,0.,-1.));
#706=DIRECTION('ref_axis',(-0.857142857142901,0.51507875363764,0.));
#707=DIRECTION('center_axis',(1.,4.71295710429986E-13,0.));
#708=DIRECTION('ref_axis',(-4.71295710429986E-13,1.,0.));
#709=DIRECTION('',(0.,0.,1.));
#710=DIRECTION('',(4.71295710429986E-13,-1.,0.));
#711=DIRECTION('center_axis',(0.707106781186548,3.33256392789175E-13,-0.707106781186548));
#712=DIRECTION('ref_axis',(-0.707106781186548,0.,-0.707106781186548));
#713=DIRECTION('',(0.707106781186547,0.,0.707106781186547));
#714=DIRECTION('',(-4.71295710429986E-13,1.,0.));
#715=DIRECTION('center_axis',(-0.707106781186526,-1.7928020541115E-13,0.707106781186569));
#716=DIRECTION('ref_axis',(0.707095781919047,-0.00557766838788361,0.707095781919003));
#717=DIRECTION('center_axis',(0.,0.,1.));
#718=DIRECTION('ref_axis',(4.3094183192687E-15,1.,0.));
#719=DIRECTION('center_axis',(0.,0.,1.));
#720=DIRECTION('ref_axis',(-0.857142857142901,0.51507875363764,0.));
#721=DIRECTION('center_axis',(-0.70710678118655,2.95285044206011E-13,-0.707106781186545));
#722=DIRECTION('ref_axis',(0.707095781921282,0.00557766781525879,-0.707095781921285));
#723=DIRECTION('center_axis',(-0.707106781186547,2.88129889742935E-13,-0.707106781186548));
#724=DIRECTION('ref_axis',(-0.707106781186548,0.,0.707106781186547));
#725=DIRECTION('',(-4.07477197799523E-13,-1.,0.));
#726=DIRECTION('',(0.707106781186548,0.,-0.707106781186547));
#727=DIRECTION('center_axis',(0.,0.,-1.));
#728=DIRECTION('ref_axis',(-0.707106781186547,0.707106781186547,0.));
#729=DIRECTION('center_axis',(0.,0.,1.));
#730=DIRECTION('ref_axis',(-0.707106781186547,0.707106781186547,0.));
#731=DIRECTION('',(0.,0.,1.));
#732=DIRECTION('center_axis',(0.,0.,-1.));
#733=DIRECTION('ref_axis',(-0.707106781186547,0.707106781186547,0.));
#734=DIRECTION('',(0.,0.,-1.));
#735=DIRECTION('center_axis',(0.,0.,1.));
#736=DIRECTION('ref_axis',(1.,0.,0.));
#737=DIRECTION('',(1.,0.,0.));
#738=DIRECTION('center_axis',(0.,0.,1.));
#739=DIRECTION('ref_axis',(0.707106781186548,0.707106781186547,0.));
#740=DIRECTION('',(0.,-1.,0.));
#741=DIRECTION('center_axis',(0.,0.,1.));
#742=DIRECTION('ref_axis',(0.707106781186547,-0.707106781186548,0.));
#743=DIRECTION('',(-1.,0.,0.));
#744=DIRECTION('center_axis',(0.,0.,-1.));
#745=DIRECTION('ref_axis',(-0.707106781186547,0.707106781186548,0.));
#746=DIRECTION('',(0.,-1.,0.));
#747=DIRECTION('center_axis',(0.,0.,-1.));
#748=DIRECTION('ref_axis',(-0.707106781186547,-0.707106781186548,0.));
#749=DIRECTION('',(-1.,0.,0.));
#750=DIRECTION('center_axis',(0.,0.,-1.));
#751=DIRECTION('ref_axis',(0.707106781186548,-0.707106781186547,0.));
#752=DIRECTION('',(0.,1.,0.));
#753=DIRECTION('',(1.,0.,0.));
#754=DIRECTION('center_axis',(0.,0.,1.));
#755=DIRECTION('ref_axis',(0.707106781186547,0.707106781186547,0.));
#756=DIRECTION('',(0.,-1.,0.));
#757=DIRECTION('center_axis',(0.,0.,1.));
#758=DIRECTION('ref_axis',(0.707106781186547,-0.707106781186547,0.));
#759=DIRECTION('',(1.,0.,0.));
#760=DIRECTION('center_axis',(0.,0.,1.));
#761=DIRECTION('ref_axis',(-0.707106781186547,-0.707106781186547,0.));
#762=DIRECTION('',(0.,1.,0.));
#763=DIRECTION('center_axis',(0.,0.,1.));
#764=DIRECTION('ref_axis',(-0.707106781186548,0.707106781186547,0.));
#765=DIRECTION('',(1.,0.,0.));
#766=DIRECTION('center_axis',(0.,1.,0.));
#767=DIRECTION('ref_axis',(0.,0.,1.));
#768=DIRECTION('',(1.,0.,0.));
#769=DIRECTION('',(0.,0.,1.));
#770=DIRECTION('center_axis',(0.,0.,1.));
#771=DIRECTION('ref_axis',(0.707106781186548,-0.707106781186547,0.));
#772=DIRECTION('',(0.,0.,1.));
#773=DIRECTION('center_axis',(0.,0.,1.));
#774=DIRECTION('ref_axis',(0.707106781186548,-0.707106781186547,0.));
#775=DIRECTION('',(0.,0.,-1.));
#776=DIRECTION('center_axis',(0.,-1.,0.));
#777=DIRECTION('ref_axis',(0.,0.,-1.));
#778=DIRECTION('',(0.,0.,-1.));
#779=DIRECTION('',(-1.,0.,0.));
#780=DIRECTION('center_axis',(0.,0.,-1.));
#781=DIRECTION('ref_axis',(-0.707106781186547,0.707106781186548,0.));
#782=DIRECTION('center_axis',(0.,0.,1.));
#783=DIRECTION('ref_axis',(-0.707106781186547,0.707106781186548,0.));
#784=DIRECTION('',(0.,0.,-1.));
#785=DIRECTION('',(0.,0.,1.));
#786=DIRECTION('center_axis',(1.,0.,0.));
#787=DIRECTION('ref_axis',(0.,0.,1.));
#788=DIRECTION('',(0.,-1.,0.));
#789=DIRECTION('',(0.,0.,1.));
#790=DIRECTION('center_axis',(0.,0.,1.));
#791=DIRECTION('ref_axis',(-0.707106781186547,-0.707106781186548,0.));
#792=DIRECTION('center_axis',(0.,0.,1.));
#793=DIRECTION('ref_axis',(-0.707106781186547,-0.707106781186548,0.));
#794=DIRECTION('center_axis',(-1.,0.,0.));
#795=DIRECTION('ref_axis',(0.,0.,1.));
#796=DIRECTION('',(0.,1.,0.));
#797=DIRECTION('center_axis',(0.,-1.,0.));
#798=DIRECTION('ref_axis',(0.,0.,-1.));
#799=DIRECTION('',(0.,0.,-1.));
#800=DIRECTION('',(-1.,0.,0.));
#801=DIRECTION('center_axis',(0.,0.,1.));
#802=DIRECTION('ref_axis',(0.707106781186547,-0.707106781186548,0.));
#803=DIRECTION('center_axis',(0.,0.,-1.));
#804=DIRECTION('ref_axis',(0.707106781186547,-0.707106781186548,0.));
#805=DIRECTION('',(0.,0.,1.));
#806=DIRECTION('center_axis',(1.,0.,0.));
#807=DIRECTION('ref_axis',(0.,0.,1.));
#808=DIRECTION('',(0.,0.,-1.));
#809=DIRECTION('',(0.,-1.,0.));
#810=DIRECTION('center_axis',(0.,0.,1.));
#811=DIRECTION('ref_axis',(-0.707106781186548,0.707106781186547,0.));
#812=DIRECTION('center_axis',(0.,0.,-1.));
#813=DIRECTION('ref_axis',(-0.707106781186548,0.707106781186547,0.));
#814=DIRECTION('',(0.,0.,-1.));
#815=DIRECTION('',(0.,0.,1.));
#816=DIRECTION('center_axis',(-1.,0.,0.));
#817=DIRECTION('ref_axis',(0.,0.,-1.));
#818=DIRECTION('',(0.,0.,-1.));
#819=DIRECTION('',(0.,1.,0.));
#820=DIRECTION('center_axis',(0.,0.,1.));
#821=DIRECTION('ref_axis',(-0.707106781186547,-0.707106781186547,0.));
#822=DIRECTION('center_axis',(0.,0.,-1.));
#823=DIRECTION('ref_axis',(-0.707106781186547,-0.707106781186547,0.));
#824=DIRECTION('',(0.,0.,1.));
#825=DIRECTION('center_axis',(0.,0.,1.));
#826=DIRECTION('ref_axis',(1.,0.,0.));
#827=DIRECTION('center_axis',(0.,0.,-1.));
#828=DIRECTION('ref_axis',(0.707106781186548,0.707106781186547,0.));
#829=DIRECTION('',(-1.,0.,0.));
#830=DIRECTION('',(1.,0.,0.));
#831=DIRECTION('center_axis',(0.,0.,-1.));
#832=DIRECTION('ref_axis',(0.707106781186547,-0.707106781186547,0.));
#833=DIRECTION('',(0.,-1.,0.));
#834=DIRECTION('center_axis',(0.,0.,-1.));
#835=DIRECTION('ref_axis',(0.707106781186547,0.707106781186547,0.));
#836=DIRECTION('center_axis',(0.,-1.,0.));
#837=DIRECTION('ref_axis',(0.,0.,-1.));
#838=DIRECTION('',(0.,0.,-1.));
#839=DIRECTION('center_axis',(0.,0.,1.));
#840=DIRECTION('ref_axis',(0.707106781186547,-0.707106781186547,0.));
#841=DIRECTION('',(0.,0.,1.));
#842=DIRECTION('center_axis',(0.,0.,1.));
#843=DIRECTION('ref_axis',(0.707106781186547,0.707106781186547,0.));
#844=DIRECTION('',(0.,0.,-1.));
#845=DIRECTION('center_axis',(0.,0.,1.));
#846=DIRECTION('ref_axis',(0.707106781186548,0.707106781186547,0.));
#847=DIRECTION('',(0.,0.,1.));
#848=DIRECTION('center_axis',(0.,-1.,0.));
#849=DIRECTION('ref_axis',(1.,0.,0.));
#850=DIRECTION('',(1.,0.,0.));
#851=DIRECTION('center_axis',(1.,0.,0.));
#852=DIRECTION('ref_axis',(0.,0.,1.));
#853=DIRECTION('center_axis',(0.,0.,1.));
#854=DIRECTION('ref_axis',(1.,0.,0.));
#855=CARTESIAN_POINT('',(0.,0.,0.));
#856=CARTESIAN_POINT('Origin',(3.19999999999996,5.06708365434038,1.8));
#857=CARTESIAN_POINT('',(3.09999999999995,5.05916730868048,1.7));
#858=CARTESIAN_POINT('',(3.09999999999932,3.5,1.7));
#859=CARTESIAN_POINT('',(3.09999999999996,5.06708365434042,1.7));
#860=CARTESIAN_POINT('',(3.29999999999932,3.5,1.9));
#861=CARTESIAN_POINT('',(3.05000000319275,3.5,1.65000000319344));
#862=CARTESIAN_POINT('',(3.29999999999998,5.11781746195039,1.9));
#863=CARTESIAN_POINT('',(3.29999999999996,5.06708365434034,1.9));
#864=CARTESIAN_POINT('Origin',(-59.4124000743381,5.09304476491302,-60.8124000743432));
#865=CARTESIAN_POINT('Origin',(4.,5.6,1.8));
#866=CARTESIAN_POINT('',(4.70000000000002,5.11781746195038,1.9));
#867=CARTESIAN_POINT('Origin',(4.,5.6,1.9));
#868=CARTESIAN_POINT('',(4.90000000000005,5.05916730868048,1.7));
#869=CARTESIAN_POINT('Origin',(67.4123965189444,5.09304476465172,-60.8123965189575));
#870=CARTESIAN_POINT('Origin',(4.,5.6,1.7));
#871=CARTESIAN_POINT('Origin',(4.80000000000041,4.28750000000016,1.8));
#872=CARTESIAN_POINT('',(4.70000000000078,3.5,1.9));
#873=CARTESIAN_POINT('',(4.70000000000041,4.28750000000012,1.9));
#874=CARTESIAN_POINT('',(4.90000000000078,3.5,1.7));
#875=CARTESIAN_POINT('',(4.94999999680739,3.5,1.65000000319339));
#876=CARTESIAN_POINT('',(4.90000000000041,4.28750000000021,1.7));
#877=CARTESIAN_POINT('Origin',(3.09999999999995,5.05916730868048,-1.1));
#878=CARTESIAN_POINT('',(3.09999999999995,5.05916730868048,0.2));
#879=CARTESIAN_POINT('',(3.09999999999995,5.05916730868048,-1.1));
#880=CARTESIAN_POINT('',(3.09999999999932,3.5,0.2));
#881=CARTESIAN_POINT('',(3.09999999999996,5.06708365434042,0.2));
#882=CARTESIAN_POINT('',(3.09999999999932,3.5,-1.1));
#883=CARTESIAN_POINT('Origin',(4.,5.6,-1.1));
#884=CARTESIAN_POINT('',(4.90000000000005,5.05916730868048,0.2));
#885=CARTESIAN_POINT('',(4.90000000000005,5.05916730868048,-1.1));
#886=CARTESIAN_POINT('Origin',(4.,5.6,0.2));
#887=CARTESIAN_POINT('Origin',(4.90000000000078,3.5,-1.1));
#888=CARTESIAN_POINT('',(4.90000000000078,3.5,0.2));
#889=CARTESIAN_POINT('',(4.90000000000078,3.5,-1.1));
#890=CARTESIAN_POINT('',(4.90000000000041,4.28750000000021,0.2));
#891=CARTESIAN_POINT('Origin',(4.80000000000041,4.28750000000016,0.1));
#892=CARTESIAN_POINT('',(4.70000000000078,3.5,0.));
#893=CARTESIAN_POINT('',(4.6750000031936,3.5,-0.0249999968071801));
#894=CARTESIAN_POINT('',(4.70000000000002,5.11781746195038,0.));
#895=CARTESIAN_POINT('',(4.70000000000041,4.28750000000012,0.));
#896=CARTESIAN_POINT('Origin',(67.4123937080745,5.09304476477204,62.7123937080707));
#897=CARTESIAN_POINT('Origin',(4.,5.6,0.1));
#898=CARTESIAN_POINT('',(3.29999999999998,5.11781746195039,0.));
#899=CARTESIAN_POINT('Origin',(4.,5.6,0.));
#900=CARTESIAN_POINT('Origin',(-59.4124003786192,5.09304476418735,62.7124003786196));
#901=CARTESIAN_POINT('Origin',(3.19999999999996,5.06708365434038,0.1));
#902=CARTESIAN_POINT('',(3.29999999999932,3.5,0.));
#903=CARTESIAN_POINT('',(3.29999999999996,5.06708365434034,0.));
#904=CARTESIAN_POINT('',(3.32499999680654,3.5,-0.0249999968072201));
#905=CARTESIAN_POINT('Origin',(7.40000005960465,1.65,-0.349999969665493));
#906=CARTESIAN_POINT('',(7.40000005960465,1.95,0.));
#907=CARTESIAN_POINT('',(7.10000005960465,1.65,0.));
#908=CARTESIAN_POINT('Origin',(7.40000005960465,1.65,0.));
#909=CARTESIAN_POINT('',(7.10000005960465,1.65,2.9));
#910=CARTESIAN_POINT('',(7.10000005960465,1.65,-0.349999969665493));
#911=CARTESIAN_POINT('',(7.40000005960465,1.95,2.9));
#912=CARTESIAN_POINT('Origin',(7.40000005960465,1.65,2.9));
#913=CARTESIAN_POINT('',(7.40000005960465,1.95,-0.349999969665493));
#914=CARTESIAN_POINT('Origin',(4.,5.075,0.));
#915=CARTESIAN_POINT('',(7.7,3.5,0.));
#916=CARTESIAN_POINT('',(4.,3.5,0.));
#917=CARTESIAN_POINT('',(8.,3.2,0.));
#918=CARTESIAN_POINT('Origin',(7.7,3.2,0.));
#919=CARTESIAN_POINT('',(8.,2.6,0.));
#920=CARTESIAN_POINT('',(8.,4.2875,0.));
#921=CARTESIAN_POINT('',(7.7,2.3,0.));
#922=CARTESIAN_POINT('Origin',(7.7,2.6,0.));
#923=CARTESIAN_POINT('',(1.2,2.3,0.));
#924=CARTESIAN_POINT('',(4.,2.3,0.));
#925=CARTESIAN_POINT('',(0.899999999999999,2.,0.));
#926=CARTESIAN_POINT('Origin',(1.2,2.,0.));
#927=CARTESIAN_POINT('',(0.899999999999999,1.2,0.));
#928=CARTESIAN_POINT('',(0.899999999999999,3.7875,0.));
#929=CARTESIAN_POINT('',(1.2,0.9,0.));
#930=CARTESIAN_POINT('Origin',(1.2,1.2,0.));
#931=CARTESIAN_POINT('',(6.80000005960464,0.9,0.));
#932=CARTESIAN_POINT('',(4.,0.9,0.));
#933=CARTESIAN_POINT('',(7.10000005960465,1.2,0.));
#934=CARTESIAN_POINT('Origin',(6.80000005960464,1.2,0.));
#935=CARTESIAN_POINT('',(7.10000005960465,3.0375,0.));
#936=CARTESIAN_POINT('',(7.7,1.95,0.));
#937=CARTESIAN_POINT('',(6.25000001490116,1.95,0.));
#938=CARTESIAN_POINT('',(8.,1.65,0.));
#939=CARTESIAN_POINT('Origin',(7.7,1.65,0.));
#940=CARTESIAN_POINT('',(8.,0.3,0.));
#941=CARTESIAN_POINT('',(8.,3.0375,0.));
#942=CARTESIAN_POINT('',(7.7,0.,0.));
#943=CARTESIAN_POINT('Origin',(7.7,0.3,0.));
#944=CARTESIAN_POINT('',(0.299999999999999,0.,0.));
#945=CARTESIAN_POINT('',(4.,0.,0.));
#946=CARTESIAN_POINT('',(-5.55111512312578E-16,0.3,0.));
#947=CARTESIAN_POINT('Origin',(0.299999999999999,0.3,0.));
#948=CARTESIAN_POINT('',(-5.55111512312578E-16,3.2,0.));
#949=CARTESIAN_POINT('',(-5.55111512312578E-16,4.2875,0.));
#950=CARTESIAN_POINT('',(0.299999999999999,3.5,0.));
#951=CARTESIAN_POINT('Origin',(0.299999999999999,3.2,0.));
#952=CARTESIAN_POINT('',(4.,3.5,0.));
#953=CARTESIAN_POINT('Origin',(8.50000002980232,1.95,0.400000035124171));
#954=CARTESIAN_POINT('',(7.7,1.95,2.9));
#955=CARTESIAN_POINT('',(6.37500001490116,1.95,2.9));
#956=CARTESIAN_POINT('',(7.7,1.95,-0.349999969665494));
#957=CARTESIAN_POINT('Origin',(6.80000005960464,1.2,-0.349999974455152));
#958=CARTESIAN_POINT('',(6.80000005960464,0.9,2.9));
#959=CARTESIAN_POINT('',(6.80000005960464,0.9,-0.349999974455152));
#960=CARTESIAN_POINT('',(7.10000005960465,1.2,2.9));
#961=CARTESIAN_POINT('Origin',(6.80000005960464,1.2,2.9));
#962=CARTESIAN_POINT('',(7.10000005960465,1.2,-0.349999974455152));
#963=CARTESIAN_POINT('Origin',(4.,0.9,0.40000002554485));
#964=CARTESIAN_POINT('',(1.2,0.9,2.9));
#965=CARTESIAN_POINT('',(1.2,0.9,-0.349999978347708));
#966=CARTESIAN_POINT('',(4.125,0.9,2.9));
#967=CARTESIAN_POINT('Origin',(1.2,2.,-0.34999998473392));
#968=CARTESIAN_POINT('',(1.2,2.3,2.9));
#969=CARTESIAN_POINT('',(0.899999999999999,2.,2.9));
#970=CARTESIAN_POINT('Origin',(1.2,2.,2.9));
#971=CARTESIAN_POINT('',(0.899999999999999,2.,-0.34999998473392));
#972=CARTESIAN_POINT('',(1.2,2.3,-0.34999998473392));
#973=CARTESIAN_POINT('Origin',(0.899999999999999,2.5,-1.09999998224026));
#974=CARTESIAN_POINT('',(0.899999999999999,1.2,2.9));
#975=CARTESIAN_POINT('',(0.899999999999999,2.9125,2.9));
#976=CARTESIAN_POINT('',(0.899999999999999,1.2,-0.349999978347708));
#977=CARTESIAN_POINT('Origin',(1.2,1.2,-0.349999978347708));
#978=CARTESIAN_POINT('Origin',(1.2,1.2,2.9));
#979=CARTESIAN_POINT('Origin',(7.10000005960465,1.,-1.09999997445515));
#980=CARTESIAN_POINT('',(7.10000005960465,2.1625,2.9));
#981=CARTESIAN_POINT('Origin',(4.,2.3,0.40000001277242));
#982=CARTESIAN_POINT('',(7.7,2.3,2.9));
#983=CARTESIAN_POINT('',(7.7,2.3,-0.349999980841364));
#984=CARTESIAN_POINT('',(4.125,2.3,2.9));
#985=CARTESIAN_POINT('Origin',(7.7,2.6,-0.349999980841364));
#986=CARTESIAN_POINT('',(8.,2.6,2.9));
#987=CARTESIAN_POINT('Origin',(7.7,2.6,2.9));
#988=CARTESIAN_POINT('',(8.,2.6,-0.349999980841364));
#989=CARTESIAN_POINT('Origin',(8.,3.5,-1.09999997445515));
#990=CARTESIAN_POINT('',(8.,3.2,2.9));
#991=CARTESIAN_POINT('',(8.,3.2,-0.349999980841364));
#992=CARTESIAN_POINT('',(8.,3.4125,2.9));
#993=CARTESIAN_POINT('Origin',(0.299999999999999,3.2,1.15000001915864));
#994=CARTESIAN_POINT('',(-5.55111512312578E-16,3.2,2.9));
#995=CARTESIAN_POINT('',(0.299999999999999,3.5,2.9));
#996=CARTESIAN_POINT('Origin',(0.299999999999999,3.2,2.9));
#997=CARTESIAN_POINT('',(0.299999999999999,3.5,1.15000001915864));
#998=CARTESIAN_POINT('',(-5.55111512312578E-16,3.2,1.15000001915864));
#999=CARTESIAN_POINT('Origin',(-5.55111512312578E-16,3.5,1.90000002554485));
#1000=CARTESIAN_POINT('',(-5.55111512312578E-16,0.3,2.9));
#1001=CARTESIAN_POINT('',(-5.55111512312578E-16,0.3,1.15000002554485));
#1002=CARTESIAN_POINT('',(-5.55111512312578E-16,3.4125,2.9));
#1003=CARTESIAN_POINT('Origin',(0.299999999999999,0.3,1.15000002554485));
#1004=CARTESIAN_POINT('',(0.299999999999999,0.,2.9));
#1005=CARTESIAN_POINT('Origin',(0.299999999999999,0.3,2.9));
#1006=CARTESIAN_POINT('',(0.299999999999999,0.,1.15000002554485));
#1007=CARTESIAN_POINT('Origin',(4.25,3.325,2.9));
#1008=CARTESIAN_POINT('',(7.7,3.5,2.9));
#1009=CARTESIAN_POINT('Origin',(7.7,3.2,2.9));
#1010=CARTESIAN_POINT('',(9.,3.5,2.9));
#1011=CARTESIAN_POINT('',(7.7,0.,2.9));
#1012=CARTESIAN_POINT('',(-0.5,0.,2.9));
#1013=CARTESIAN_POINT('',(8.,0.3,2.9));
#1014=CARTESIAN_POINT('Origin',(7.7,0.3,2.9));
#1015=CARTESIAN_POINT('',(8.,1.65,2.9));
#1016=CARTESIAN_POINT('',(8.,2.1625,2.9));
#1017=CARTESIAN_POINT('Origin',(7.7,1.65,2.9));
#1018=CARTESIAN_POINT('Origin',(4.,0.,0.40000002554485));
#1019=CARTESIAN_POINT('',(7.7,0.,-0.349999974455153));
#1020=CARTESIAN_POINT('Origin',(7.7,0.3,-0.349999974455153));
#1021=CARTESIAN_POINT('',(8.,0.3,-0.349999974455153));
#1022=CARTESIAN_POINT('Origin',(7.7,1.65,-0.349999969665494));
#1023=CARTESIAN_POINT('',(8.,1.65,-0.349999969665494));
#1024=CARTESIAN_POINT('Origin',(7.7,3.2,-0.349999980841364));
#1025=CARTESIAN_POINT('',(7.7,3.5,-0.349999980841364));
#1026=CARTESIAN_POINT('Origin',(4.,3.5,0.40000001277242));
#1027=CARTESIAN_POINT('',(6.5,3.5,1.9));
#1028=CARTESIAN_POINT('Origin',(8.,1.,-1.09999997445515));
#1029=CARTESIAN_POINT('Origin',(4.,5.075,1.9));
#1030=UNCERTAINTY_MEASURE_WITH_UNIT(LENGTH_MEASURE(0.01),#1034,
'DISTANCE_ACCURACY_VALUE',
'Maximum model space distance between geometric entities at asserted c
onnectivities');
#1031=UNCERTAINTY_MEASURE_WITH_UNIT(LENGTH_MEASURE(0.01),#1034,
'DISTANCE_ACCURACY_VALUE',
'Maximum model space distance between geometric entities at asserted c
onnectivities');
#1032=(
GEOMETRIC_REPRESENTATION_CONTEXT(3)
GLOBAL_UNCERTAINTY_ASSIGNED_CONTEXT((#1030))
GLOBAL_UNIT_ASSIGNED_CONTEXT((#1034,#1036,#1037))
REPRESENTATION_CONTEXT('','3D')
);
#1033=(
GEOMETRIC_REPRESENTATION_CONTEXT(3)
GLOBAL_UNCERTAINTY_ASSIGNED_CONTEXT((#1031))
GLOBAL_UNIT_ASSIGNED_CONTEXT((#1034,#1036,#1037))
REPRESENTATION_CONTEXT('','3D')
);
#1034=(
LENGTH_UNIT()
NAMED_UNIT(*)
SI_UNIT(.MILLI.,.METRE.)
);
#1035=(
LENGTH_UNIT()
NAMED_UNIT(*)
SI_UNIT($,.METRE.)
);
#1036=(
NAMED_UNIT(*)
PLANE_ANGLE_UNIT()
SI_UNIT($,.RADIAN.)
);
#1037=(
NAMED_UNIT(*)
SI_UNIT($,.STERADIAN.)
SOLID_ANGLE_UNIT()
);
#1038=SHAPE_DEFINITION_REPRESENTATION(#1039,#1040);
#1039=PRODUCT_DEFINITION_SHAPE('',$,#1042);
#1040=SHAPE_REPRESENTATION('',(#614),#1032);
#1041=PRODUCT_DEFINITION_CONTEXT('part definition',#1046,'design');
#1042=PRODUCT_DEFINITION('2026-03-28-17-28-30-078','motor-cable-clip',#1043,
#1041);
#1043=PRODUCT_DEFINITION_FORMATION('',$,#1048);
#1044=PRODUCT_RELATED_PRODUCT_CATEGORY('motor-cable-clip',
'motor-cable-clip',(#1048));
#1045=APPLICATION_PROTOCOL_DEFINITION('international standard',
'automotive_design',2009,#1046);
#1046=APPLICATION_CONTEXT(
'Core Data for Automotive Mechanical Design Process');
#1047=PRODUCT_CONTEXT('part definition',#1046,'mechanical');
#1048=PRODUCT('2026-03-28-17-28-30-078','motor-cable-clip',$,(#1047));
#1049=PRESENTATION_STYLE_ASSIGNMENT((#1051));
#1050=PRESENTATION_STYLE_ASSIGNMENT((#1052));
#1051=SURFACE_STYLE_USAGE(.BOTH.,#1053);
#1052=SURFACE_STYLE_USAGE(.BOTH.,#1054);
#1053=SURFACE_SIDE_STYLE('',(#1055));
#1054=SURFACE_SIDE_STYLE('',(#1056));
#1055=SURFACE_STYLE_FILL_AREA(#1057);
#1056=SURFACE_STYLE_FILL_AREA(#1058);
#1057=FILL_AREA_STYLE('Stahl - satiniert',(#1059));
#1058=FILL_AREA_STYLE('Opaque(108,108,108)',(#1060));
#1059=FILL_AREA_STYLE_COLOUR('Stahl - satiniert',#1061);
#1060=FILL_AREA_STYLE_COLOUR('Opaque(108,108,108)',#1062);
#1061=COLOUR_RGB('Stahl - satiniert',0.627450980392157,0.627450980392157,
0.627450980392157);
#1062=COLOUR_RGB('Opaque(108,108,108)',0.423529411764706,0.423529411764706,
0.423529411764706);
ENDSEC;
END-ISO-10303-21;
