ISO-10303-21;
HEADER;
/* Generated by software containing ST-Developer
 * from STEP Tools, Inc. (www.steptools.com) 
 */

FILE_DESCRIPTION(
/* description */ (''),
/* implementation_level */ '2;1');

FILE_NAME(
/* name */ 'pcb-nipple.step',
/* time_stamp */ '2026-03-30T11:13:52+02:00',
/* author */ (''),
/* organization */ (''),
/* preprocessor_version */ 'ST-DEVELOPER v20.1',
/* originating_system */ 'Autodesk Translation Framework v14.24.0.0',
/* authorisation */ '');

FILE_SCHEMA (('AUTOMOTIVE_DESIGN { 1 0 10303 214 3 1 1 }'));
ENDSEC;

DATA;
#10=MECHANICAL_DESIGN_GEOMETRIC_PRESENTATION_REPRESENTATION('',(#13),#335);
#11=SHAPE_REPRESENTATION_RELATIONSHIP('SRR','None',#342,#12);
#12=ADVANCED_BREP_SHAPE_REPRESENTATION('',(#14),#334);
#13=STYLED_ITEM('',(#352),#14);
#14=MANIFOLD_SOLID_BREP('K\X\F6rper1',#180);
#15=FACE_BOUND('',#60,.T.);
#16=FACE_BOUND('',#61,.T.);
#17=CYLINDRICAL_SURFACE('',#207,6.);
#18=LINE('',#280,#24);
#19=LINE('',#295,#25);
#20=LINE('',#301,#26);
#21=LINE('',#312,#27);
#22=LINE('',#320,#28);
#23=LINE('',#324,#29);
#24=VECTOR('',#225,10.);
#25=VECTOR('',#234,10.);
#26=VECTOR('',#235,10.);
#27=VECTOR('',#240,10.);
#28=VECTOR('',#245,5.8);
#29=VECTOR('',#250,6.);
#30=PLANE('',#197);
#31=PLANE('',#201);
#32=PLANE('',#202);
#33=PLANE('',#203);
#34=PLANE('',#209);
#35=PLANE('',#214);
#36=FACE_OUTER_BOUND('',#48,.T.);
#37=FACE_OUTER_BOUND('',#49,.T.);
#38=FACE_OUTER_BOUND('',#50,.T.);
#39=FACE_OUTER_BOUND('',#51,.T.);
#40=FACE_OUTER_BOUND('',#52,.T.);
#41=FACE_OUTER_BOUND('',#53,.T.);
#42=FACE_OUTER_BOUND('',#54,.T.);
#43=FACE_OUTER_BOUND('',#55,.T.);
#44=FACE_OUTER_BOUND('',#56,.T.);
#45=FACE_OUTER_BOUND('',#57,.T.);
#46=FACE_OUTER_BOUND('',#58,.T.);
#47=FACE_OUTER_BOUND('',#59,.T.);
#48=EDGE_LOOP('',(#117,#118,#119,#120));
#49=EDGE_LOOP('',(#121,#122));
#50=EDGE_LOOP('',(#123,#124,#125,#126));
#51=EDGE_LOOP('',(#127,#128,#129,#130,#131,#132));
#52=EDGE_LOOP('',(#133,#134));
#53=EDGE_LOOP('',(#135,#136,#137,#138,#139,#140));
#54=EDGE_LOOP('',(#141,#142,#143,#144));
#55=EDGE_LOOP('',(#145,#146,#147,#148));
#56=EDGE_LOOP('',(#149));
#57=EDGE_LOOP('',(#150,#151,#152,#153));
#58=EDGE_LOOP('',(#154,#155,#156,#157));
#59=EDGE_LOOP('',(#158));
#60=EDGE_LOOP('',(#159,#160));
#61=EDGE_LOOP('',(#161,#162));
#62=CIRCLE('',#195,1.5);
#63=CIRCLE('',#196,1.68256885145047);
#64=CIRCLE('',#199,1.5);
#65=CIRCLE('',#200,1.68256885145047);
#66=CIRCLE('',#205,6.);
#67=CIRCLE('',#206,5.6);
#68=CIRCLE('',#208,6.);
#69=CIRCLE('',#211,1.52502267294815);
#70=CIRCLE('',#213,1.52502267294815);
#71=(
BOUNDED_CURVE()
B_SPLINE_CURVE(2,(#269,#270,#271),.UNSPECIFIED.,.F.,.F.)
B_SPLINE_CURVE_WITH_KNOTS((3,3),(2.06105336064643,2.0758338071149),
 .UNSPECIFIED.)
CURVE()
GEOMETRIC_REPRESENTATION_ITEM()
RATIONAL_B_SPLINE_CURVE((4.49387937057102,4.2781583589994,4.05916366222462))
REPRESENTATION_ITEM('')
);
#72=(
BOUNDED_CURVE()
B_SPLINE_CURVE(2,(#275,#276,#277),.UNSPECIFIED.,.F.,.F.)
B_SPLINE_CURVE_WITH_KNOTS((3,3),(0.0983441025803491,0.113124549048772),
 .UNSPECIFIED.)
CURVE()
GEOMETRIC_REPRESENTATION_ITEM()
RATIONAL_B_SPLINE_CURVE((4.05916366222462,4.27815835899868,4.49387937056959))
REPRESENTATION_ITEM('')
);
#73=(
BOUNDED_CURVE()
B_SPLINE_CURVE(2,(#284,#285,#286),.UNSPECIFIED.,.F.,.F.)
B_SPLINE_CURVE_WITH_KNOTS((3,3),(2.06105336064643,2.07583380711491),
 .UNSPECIFIED.)
CURVE()
GEOMETRIC_REPRESENTATION_ITEM()
RATIONAL_B_SPLINE_CURVE((4.49387937057102,4.2781583589994,4.05916366222462))
REPRESENTATION_ITEM('')
);
#74=(
BOUNDED_CURVE()
B_SPLINE_CURVE(2,(#290,#291,#292),.UNSPECIFIED.,.F.,.F.)
B_SPLINE_CURVE_WITH_KNOTS((3,3),(0.0983441025803484,0.113124549048771),
 .UNSPECIFIED.)
CURVE()
GEOMETRIC_REPRESENTATION_ITEM()
RATIONAL_B_SPLINE_CURVE((4.05916366222463,4.27815835899867,4.4938793705696))
REPRESENTATION_ITEM('')
);
#75=(
BOUNDED_CURVE()
B_SPLINE_CURVE(2,(#297,#298,#299),.UNSPECIFIED.,.F.,.F.)
B_SPLINE_CURVE_WITH_KNOTS((3,3),(0.297704136979688,0.470254855794047),
 .UNSPECIFIED.)
CURVE()
GEOMETRIC_REPRESENTATION_ITEM()
RATIONAL_B_SPLINE_CURVE((1.01741012201175,1.02029793949332,1.02068455766868))
REPRESENTATION_ITEM('')
);
#76=(
BOUNDED_CURVE()
B_SPLINE_CURVE(2,(#302,#303,#304),.UNSPECIFIED.,.F.,.F.)
B_SPLINE_CURVE_WITH_KNOTS((3,3),(0.484801122501073,0.657815127699754),
 .UNSPECIFIED.)
CURVE()
GEOMETRIC_REPRESENTATION_ITEM()
RATIONAL_B_SPLINE_CURVE((1.0181408375346,1.01788131429394,1.01512612672851))
REPRESENTATION_ITEM('')
);
#77=(
BOUNDED_CURVE()
B_SPLINE_CURVE(2,(#308,#309,#310),.UNSPECIFIED.,.F.,.F.)
B_SPLINE_CURVE_WITH_KNOTS((3,3),(0.29770413698032,0.470254855794743),
 .UNSPECIFIED.)
CURVE()
GEOMETRIC_REPRESENTATION_ITEM()
RATIONAL_B_SPLINE_CURVE((1.01741012201114,1.0202979394926,1.02068455766793))
REPRESENTATION_ITEM('')
);
#78=(
BOUNDED_CURVE()
B_SPLINE_CURVE(2,(#313,#314,#315),.UNSPECIFIED.,.F.,.F.)
B_SPLINE_CURVE_WITH_KNOTS((3,3),(0.484801122500305,0.657815127699027),
 .UNSPECIFIED.)
CURVE()
GEOMETRIC_REPRESENTATION_ITEM()
RATIONAL_B_SPLINE_CURVE((1.01814083753351,1.01788131429287,1.01512612672762))
REPRESENTATION_ITEM('')
);
#79=VERTEX_POINT('',#267);
#80=VERTEX_POINT('',#268);
#81=VERTEX_POINT('',#272);
#82=VERTEX_POINT('',#274);
#83=VERTEX_POINT('',#282);
#84=VERTEX_POINT('',#283);
#85=VERTEX_POINT('',#287);
#86=VERTEX_POINT('',#289);
#87=VERTEX_POINT('',#296);
#88=VERTEX_POINT('',#300);
#89=VERTEX_POINT('',#307);
#90=VERTEX_POINT('',#311);
#91=VERTEX_POINT('',#317);
#92=VERTEX_POINT('',#319);
#93=VERTEX_POINT('',#323);
#94=EDGE_CURVE('',#79,#80,#71,.F.);
#95=EDGE_CURVE('',#80,#81,#62,.T.);
#96=EDGE_CURVE('',#81,#82,#72,.F.);
#97=EDGE_CURVE('',#82,#79,#63,.T.);
#98=EDGE_CURVE('',#80,#81,#18,.F.);
#99=EDGE_CURVE('',#83,#84,#73,.F.);
#100=EDGE_CURVE('',#84,#85,#64,.T.);
#101=EDGE_CURVE('',#85,#86,#74,.F.);
#102=EDGE_CURVE('',#86,#83,#65,.T.);
#103=EDGE_CURVE('',#85,#84,#19,.T.);
#104=EDGE_CURVE('',#87,#83,#75,.F.);
#105=EDGE_CURVE('',#88,#87,#20,.T.);
#106=EDGE_CURVE('',#88,#86,#76,.T.);
#107=EDGE_CURVE('',#89,#79,#77,.F.);
#108=EDGE_CURVE('',#90,#89,#21,.T.);
#109=EDGE_CURVE('',#90,#82,#78,.T.);
#110=EDGE_CURVE('',#91,#91,#66,.T.);
#111=EDGE_CURVE('',#91,#92,#22,.T.);
#112=EDGE_CURVE('',#92,#92,#67,.T.);
#113=EDGE_CURVE('',#91,#93,#23,.T.);
#114=EDGE_CURVE('',#93,#93,#68,.T.);
#115=EDGE_CURVE('',#89,#90,#69,.T.);
#116=EDGE_CURVE('',#87,#88,#70,.T.);
#117=ORIENTED_EDGE('',*,*,#94,.T.);
#118=ORIENTED_EDGE('',*,*,#95,.T.);
#119=ORIENTED_EDGE('',*,*,#96,.T.);
#120=ORIENTED_EDGE('',*,*,#97,.T.);
#121=ORIENTED_EDGE('',*,*,#95,.F.);
#122=ORIENTED_EDGE('',*,*,#98,.T.);
#123=ORIENTED_EDGE('',*,*,#99,.T.);
#124=ORIENTED_EDGE('',*,*,#100,.T.);
#125=ORIENTED_EDGE('',*,*,#101,.T.);
#126=ORIENTED_EDGE('',*,*,#102,.T.);
#127=ORIENTED_EDGE('',*,*,#101,.F.);
#128=ORIENTED_EDGE('',*,*,#103,.T.);
#129=ORIENTED_EDGE('',*,*,#99,.F.);
#130=ORIENTED_EDGE('',*,*,#104,.F.);
#131=ORIENTED_EDGE('',*,*,#105,.F.);
#132=ORIENTED_EDGE('',*,*,#106,.T.);
#133=ORIENTED_EDGE('',*,*,#100,.F.);
#134=ORIENTED_EDGE('',*,*,#103,.F.);
#135=ORIENTED_EDGE('',*,*,#96,.F.);
#136=ORIENTED_EDGE('',*,*,#98,.F.);
#137=ORIENTED_EDGE('',*,*,#94,.F.);
#138=ORIENTED_EDGE('',*,*,#107,.F.);
#139=ORIENTED_EDGE('',*,*,#108,.F.);
#140=ORIENTED_EDGE('',*,*,#109,.T.);
#141=ORIENTED_EDGE('',*,*,#110,.T.);
#142=ORIENTED_EDGE('',*,*,#111,.T.);
#143=ORIENTED_EDGE('',*,*,#112,.T.);
#144=ORIENTED_EDGE('',*,*,#111,.F.);
#145=ORIENTED_EDGE('',*,*,#110,.F.);
#146=ORIENTED_EDGE('',*,*,#113,.T.);
#147=ORIENTED_EDGE('',*,*,#114,.F.);
#148=ORIENTED_EDGE('',*,*,#113,.F.);
#149=ORIENTED_EDGE('',*,*,#112,.F.);
#150=ORIENTED_EDGE('',*,*,#97,.F.);
#151=ORIENTED_EDGE('',*,*,#109,.F.);
#152=ORIENTED_EDGE('',*,*,#115,.F.);
#153=ORIENTED_EDGE('',*,*,#107,.T.);
#154=ORIENTED_EDGE('',*,*,#102,.F.);
#155=ORIENTED_EDGE('',*,*,#106,.F.);
#156=ORIENTED_EDGE('',*,*,#116,.F.);
#157=ORIENTED_EDGE('',*,*,#104,.T.);
#158=ORIENTED_EDGE('',*,*,#114,.T.);
#159=ORIENTED_EDGE('',*,*,#108,.T.);
#160=ORIENTED_EDGE('',*,*,#115,.T.);
#161=ORIENTED_EDGE('',*,*,#105,.T.);
#162=ORIENTED_EDGE('',*,*,#116,.T.);
#163=CONICAL_SURFACE('',#194,1.59128442572523,0.74176493209759);
#164=CONICAL_SURFACE('',#198,1.59128442572523,0.74176493209759);
#165=CONICAL_SURFACE('',#204,5.8,0.785398163397449);
#166=CONICAL_SURFACE('',#210,1.7,0.0872664625997165);
#167=CONICAL_SURFACE('',#212,1.7,0.0872664625997165);
#168=ADVANCED_FACE('',(#36),#163,.T.);
#169=ADVANCED_FACE('',(#37),#30,.T.);
#170=ADVANCED_FACE('',(#38),#164,.T.);
#171=ADVANCED_FACE('',(#39),#31,.T.);
#172=ADVANCED_FACE('',(#40),#32,.T.);
#173=ADVANCED_FACE('',(#41),#33,.T.);
#174=ADVANCED_FACE('',(#42),#165,.T.);
#175=ADVANCED_FACE('',(#43),#17,.T.);
#176=ADVANCED_FACE('',(#44),#34,.F.);
#177=ADVANCED_FACE('',(#45),#166,.T.);
#178=ADVANCED_FACE('',(#46),#167,.T.);
#179=ADVANCED_FACE('',(#47,#15,#16),#35,.T.);
#180=CLOSED_SHELL('',(#168,#169,#170,#171,#172,#173,#174,#175,#176,#177,
#178,#179));
#181=DERIVED_UNIT_ELEMENT(#183,1.);
#182=DERIVED_UNIT_ELEMENT(#337,-3.);
#183=(
MASS_UNIT()
NAMED_UNIT(*)
SI_UNIT(.KILO.,.GRAM.)
);
#184=DERIVED_UNIT((#181,#182));
#185=MEASURE_REPRESENTATION_ITEM('density measure',
POSITIVE_RATIO_MEASURE(7850.),#184);
#186=PROPERTY_DEFINITION_REPRESENTATION(#191,#188);
#187=PROPERTY_DEFINITION_REPRESENTATION(#192,#189);
#188=REPRESENTATION('material name',(#190),#334);
#189=REPRESENTATION('density',(#185),#334);
#190=DESCRIPTIVE_REPRESENTATION_ITEM('Stahl','Stahl');
#191=PROPERTY_DEFINITION('material property','material name',#344);
#192=PROPERTY_DEFINITION('material property','density of part',#344);
#193=AXIS2_PLACEMENT_3D('',#265,#215,#216);
#194=AXIS2_PLACEMENT_3D('',#266,#217,#218);
#195=AXIS2_PLACEMENT_3D('',#273,#219,#220);
#196=AXIS2_PLACEMENT_3D('',#278,#221,#222);
#197=AXIS2_PLACEMENT_3D('',#279,#223,#224);
#198=AXIS2_PLACEMENT_3D('',#281,#226,#227);
#199=AXIS2_PLACEMENT_3D('',#288,#228,#229);
#200=AXIS2_PLACEMENT_3D('',#293,#230,#231);
#201=AXIS2_PLACEMENT_3D('',#294,#232,#233);
#202=AXIS2_PLACEMENT_3D('',#305,#236,#237);
#203=AXIS2_PLACEMENT_3D('',#306,#238,#239);
#204=AXIS2_PLACEMENT_3D('',#316,#241,#242);
#205=AXIS2_PLACEMENT_3D('',#318,#243,#244);
#206=AXIS2_PLACEMENT_3D('',#321,#246,#247);
#207=AXIS2_PLACEMENT_3D('',#322,#248,#249);
#208=AXIS2_PLACEMENT_3D('',#325,#251,#252);
#209=AXIS2_PLACEMENT_3D('',#326,#253,#254);
#210=AXIS2_PLACEMENT_3D('',#327,#255,#256);
#211=AXIS2_PLACEMENT_3D('',#328,#257,#258);
#212=AXIS2_PLACEMENT_3D('',#329,#259,#260);
#213=AXIS2_PLACEMENT_3D('',#330,#261,#262);
#214=AXIS2_PLACEMENT_3D('',#331,#263,#264);
#215=DIRECTION('axis',(0.,0.,1.));
#216=DIRECTION('refdir',(1.,0.,0.));
#217=DIRECTION('center_axis',(0.,-5.17105883573997E-16,-1.));
#218=DIRECTION('ref_axis',(-1.,-3.23724741624168E-17,1.67399968552329E-32));
#219=DIRECTION('center_axis',(0.,0.,-1.));
#220=DIRECTION('ref_axis',(-1.,0.,0.));
#221=DIRECTION('center_axis',(0.,0.,1.));
#222=DIRECTION('ref_axis',(-1.,-6.12323399573676E-17,0.));
#223=DIRECTION('center_axis',(0.,0.,1.));
#224=DIRECTION('ref_axis',(1.,0.,0.));
#225=DIRECTION('',(0.,-1.,0.));
#226=DIRECTION('center_axis',(0.,-5.17105883573997E-16,-1.));
#227=DIRECTION('ref_axis',(1.,3.23724741624168E-17,-1.67399968552329E-32));
#228=DIRECTION('center_axis',(0.,0.,-1.));
#229=DIRECTION('ref_axis',(1.,0.,0.));
#230=DIRECTION('center_axis',(0.,0.,1.));
#231=DIRECTION('ref_axis',(1.,6.12323399573676E-17,0.));
#232=DIRECTION('center_axis',(-1.,0.,0.));
#233=DIRECTION('ref_axis',(0.,-1.,0.));
#234=DIRECTION('',(0.,1.,0.));
#235=DIRECTION('',(0.,1.,0.));
#236=DIRECTION('center_axis',(0.,0.,1.));
#237=DIRECTION('ref_axis',(1.,0.,0.));
#238=DIRECTION('center_axis',(1.,0.,0.));
#239=DIRECTION('ref_axis',(0.,1.,0.));
#240=DIRECTION('',(0.,-1.,0.));
#241=DIRECTION('center_axis',(0.,0.,1.));
#242=DIRECTION('ref_axis',(1.,0.,0.));
#243=DIRECTION('center_axis',(0.,0.,-1.));
#244=DIRECTION('ref_axis',(1.,0.,0.));
#245=DIRECTION('',(0.707106781186548,8.65956056235494E-17,-0.707106781186547));
#246=DIRECTION('center_axis',(0.,0.,1.));
#247=DIRECTION('ref_axis',(1.,0.,0.));
#248=DIRECTION('center_axis',(0.,0.,-1.));
#249=DIRECTION('ref_axis',(1.,0.,0.));
#250=DIRECTION('',(0.,0.,1.));
#251=DIRECTION('center_axis',(0.,0.,1.));
#252=DIRECTION('ref_axis',(1.,0.,0.));
#253=DIRECTION('center_axis',(0.,0.,1.));
#254=DIRECTION('ref_axis',(1.,0.,0.));
#255=DIRECTION('center_axis',(0.,0.,1.));
#256=DIRECTION('ref_axis',(-1.,-2.54207057918564E-15,0.));
#257=DIRECTION('center_axis',(0.,0.,-1.));
#258=DIRECTION('ref_axis',(1.,0.,0.));
#259=DIRECTION('center_axis',(0.,0.,1.));
#260=DIRECTION('ref_axis',(1.,0.,0.));
#261=DIRECTION('center_axis',(0.,0.,-1.));
#262=DIRECTION('ref_axis',(1.,0.,0.));
#263=DIRECTION('center_axis',(0.,0.,1.));
#264=DIRECTION('ref_axis',(1.,0.,0.));
#265=CARTESIAN_POINT('',(0.,0.,0.));
#266=CARTESIAN_POINT('Origin',(0.,-5.15138139568464E-17,3.00038053019083));
#267=CARTESIAN_POINT('',(-0.204739059190791,-1.67006582430544,2.90076106038165));
#268=CARTESIAN_POINT('',(-0.204739059190791,-1.48596161378471,3.1));
#269=CARTESIAN_POINT('Ctrl Pts',(-0.204739059190791,-1.4859616137847,3.10000000000002));
#270=CARTESIAN_POINT('Ctrl Pts',(-0.204739059190791,-1.5727331271976,3.00619174831282));
#271=CARTESIAN_POINT('Ctrl Pts',(-0.204739059190791,-1.67006582430544,2.90076106038166));
#272=CARTESIAN_POINT('',(-0.204739059190791,1.48596161378471,3.1));
#273=CARTESIAN_POINT('Origin',(0.,0.,3.1));
#274=CARTESIAN_POINT('',(-0.204739059190791,1.67006582430544,2.90076106038165));
#275=CARTESIAN_POINT('Ctrl Pts',(-0.204739059190791,1.67006582430544,2.90076106038166));
#276=CARTESIAN_POINT('Ctrl Pts',(-0.204739059190791,1.57273312719789,3.00619174831247));
#277=CARTESIAN_POINT('Ctrl Pts',(-0.204739059190791,1.48596161378524,3.09999999999943));
#278=CARTESIAN_POINT('Origin',(0.,-1.03027627913693E-16,2.90076106038165));
#279=CARTESIAN_POINT('Origin',(0.902369529595395,0.,3.1));
#280=CARTESIAN_POINT('',(-0.204739059190791,-0.848385191036452,3.1));
#281=CARTESIAN_POINT('Origin',(0.,-5.15138139568464E-17,3.00038053019083));
#282=CARTESIAN_POINT('',(0.204739059190789,1.67006582430544,2.90076106038165));
#283=CARTESIAN_POINT('',(0.204739059190789,1.48596161378471,3.1));
#284=CARTESIAN_POINT('Ctrl Pts',(0.204739059190789,1.4859616137847,3.10000000000002));
#285=CARTESIAN_POINT('Ctrl Pts',(0.204739059190789,1.5727331271976,3.00619174831282));
#286=CARTESIAN_POINT('Ctrl Pts',(0.204739059190789,1.67006582430544,2.90076106038165));
#287=CARTESIAN_POINT('',(0.204739059190789,-1.48596161378471,3.1));
#288=CARTESIAN_POINT('Origin',(0.,0.,3.1));
#289=CARTESIAN_POINT('',(0.204739059190789,-1.67006582430544,2.90076106038165));
#290=CARTESIAN_POINT('Ctrl Pts',(0.204739059190789,-1.67006582430544,2.90076106038166));
#291=CARTESIAN_POINT('Ctrl Pts',(0.204739059190789,-1.57273312719791,3.00619174831249));
#292=CARTESIAN_POINT('Ctrl Pts',(0.204739059190789,-1.48596161378524,3.09999999999943));
#293=CARTESIAN_POINT('Origin',(0.,-1.03027627913693E-16,2.90076106038165));
#294=CARTESIAN_POINT('Origin',(0.204739059190789,1.6967703820729,1.1));
#295=CARTESIAN_POINT('',(0.204739059190789,0.848385191036452,3.1));
#296=CARTESIAN_POINT('',(0.204739059190789,1.51121675170956,1.1));
#297=CARTESIAN_POINT('Ctrl Pts',(0.204739059190789,1.67006582430552,2.90076106038162));
#298=CARTESIAN_POINT('Ctrl Pts',(0.204739059190789,1.58674022016006,1.95542236986335));
#299=CARTESIAN_POINT('Ctrl Pts',(0.204739059190789,1.51121675170957,1.09999999999996));
#300=CARTESIAN_POINT('',(0.204739059190789,-1.51121675170956,1.1));
#301=CARTESIAN_POINT('',(0.204739059190789,0.848385191036452,1.1));
#302=CARTESIAN_POINT('Ctrl Pts',(0.204739059190789,-1.51121675170954,1.1));
#303=CARTESIAN_POINT('Ctrl Pts',(0.204739059190789,-1.58674022014893,1.95542236973921));
#304=CARTESIAN_POINT('Ctrl Pts',(0.204739059190789,-1.67006582430528,2.90076106038183));
#305=CARTESIAN_POINT('Origin',(0.902369529595395,0.,3.1));
#306=CARTESIAN_POINT('Origin',(-0.204739059190791,-1.6967703820729,1.1));
#307=CARTESIAN_POINT('',(-0.204739059190791,-1.51121675170956,1.1));
#308=CARTESIAN_POINT('Ctrl Pts',(-0.204739059190791,-1.67006582430552,2.90076106038162));
#309=CARTESIAN_POINT('Ctrl Pts',(-0.204739059190791,-1.5867402201601,1.9554223698638));
#310=CARTESIAN_POINT('Ctrl Pts',(-0.204739059190791,-1.51121675170957,1.09999999999997));
#311=CARTESIAN_POINT('',(-0.204739059190791,1.51121675170956,1.1));
#312=CARTESIAN_POINT('',(-0.204739059190791,-0.848385191036452,1.1));
#313=CARTESIAN_POINT('Ctrl Pts',(-0.204739059190791,1.51121675170954,1.1));
#314=CARTESIAN_POINT('Ctrl Pts',(-0.204739059190791,1.58674022014898,1.95542236973982));
#315=CARTESIAN_POINT('Ctrl Pts',(-0.204739059190791,1.67006582430528,2.90076106038183));
#316=CARTESIAN_POINT('Origin',(0.,0.,0.2));
#317=CARTESIAN_POINT('',(-6.,7.34788079488412E-16,0.4));
#318=CARTESIAN_POINT('Origin',(0.,0.,0.4));
#319=CARTESIAN_POINT('',(-5.6,-6.85802207522518E-16,0.));
#320=CARTESIAN_POINT('',(-5.8,-7.10295143505465E-16,0.2));
#321=CARTESIAN_POINT('Origin',(0.,0.,0.));
#322=CARTESIAN_POINT('Origin',(0.,0.,1.1));
#323=CARTESIAN_POINT('',(-6.,-7.34788079488412E-16,1.1));
#324=CARTESIAN_POINT('',(-6.,7.34788079488412E-16,1.1));
#325=CARTESIAN_POINT('Origin',(0.,0.,1.1));
#326=CARTESIAN_POINT('Origin',(0.,0.,0.));
#327=CARTESIAN_POINT('Origin',(0.,0.,3.1));
#328=CARTESIAN_POINT('Origin',(0.,0.,1.1));
#329=CARTESIAN_POINT('Origin',(0.,0.,3.1));
#330=CARTESIAN_POINT('Origin',(0.,0.,1.1));
#331=CARTESIAN_POINT('Origin',(0.,0.,1.1));
#332=UNCERTAINTY_MEASURE_WITH_UNIT(LENGTH_MEASURE(0.01),#336,
'DISTANCE_ACCURACY_VALUE',
'Maximum model space distance between geometric entities at asserted c
onnectivities');
#333=UNCERTAINTY_MEASURE_WITH_UNIT(LENGTH_MEASURE(0.01),#336,
'DISTANCE_ACCURACY_VALUE',
'Maximum model space distance between geometric entities at asserted c
onnectivities');
#334=(
GEOMETRIC_REPRESENTATION_CONTEXT(3)
GLOBAL_UNCERTAINTY_ASSIGNED_CONTEXT((#332))
GLOBAL_UNIT_ASSIGNED_CONTEXT((#336,#338,#339))
REPRESENTATION_CONTEXT('','3D')
);
#335=(
GEOMETRIC_REPRESENTATION_CONTEXT(3)
GLOBAL_UNCERTAINTY_ASSIGNED_CONTEXT((#333))
GLOBAL_UNIT_ASSIGNED_CONTEXT((#336,#338,#339))
REPRESENTATION_CONTEXT('','3D')
);
#336=(
LENGTH_UNIT()
NAMED_UNIT(*)
SI_UNIT(.MILLI.,.METRE.)
);
#337=(
LENGTH_UNIT()
NAMED_UNIT(*)
SI_UNIT($,.METRE.)
);
#338=(
NAMED_UNIT(*)
PLANE_ANGLE_UNIT()
SI_UNIT($,.RADIAN.)
);
#339=(
NAMED_UNIT(*)
SI_UNIT($,.STERADIAN.)
SOLID_ANGLE_UNIT()
);
#340=SHAPE_DEFINITION_REPRESENTATION(#341,#342);
#341=PRODUCT_DEFINITION_SHAPE('',$,#344);
#342=SHAPE_REPRESENTATION('',(#193),#334);
#343=PRODUCT_DEFINITION_CONTEXT('part definition',#348,'design');
#344=PRODUCT_DEFINITION('2026-03-28-17-52-34-086','pcb-nipple',#345,#343);
#345=PRODUCT_DEFINITION_FORMATION('',$,#350);
#346=PRODUCT_RELATED_PRODUCT_CATEGORY('pcb-nipple','pcb-nipple',(#350));
#347=APPLICATION_PROTOCOL_DEFINITION('international standard',
'automotive_design',2009,#348);
#348=APPLICATION_CONTEXT(
'Core Data for Automotive Mechanical Design Process');
#349=PRODUCT_CONTEXT('part definition',#348,'mechanical');
#350=PRODUCT('2026-03-28-17-52-34-086','pcb-nipple',$,(#349));
#351=PRESENTATION_STYLE_ASSIGNMENT((#353));
#352=PRESENTATION_STYLE_ASSIGNMENT((#354));
#353=SURFACE_STYLE_USAGE(.BOTH.,#355);
#354=SURFACE_STYLE_USAGE(.BOTH.,#356);
#355=SURFACE_SIDE_STYLE('',(#357));
#356=SURFACE_SIDE_STYLE('',(#358));
#357=SURFACE_STYLE_FILL_AREA(#359);
#358=SURFACE_STYLE_FILL_AREA(#360);
#359=FILL_AREA_STYLE('Stahl - satiniert',(#361));
#360=FILL_AREA_STYLE('Opaque(160,160,160)',(#362));
#361=FILL_AREA_STYLE_COLOUR('Stahl - satiniert',#363);
#362=FILL_AREA_STYLE_COLOUR('Opaque(160,160,160)',#364);
#363=COLOUR_RGB('Stahl - satiniert',0.627450980392157,0.627450980392157,
0.627450980392157);
#364=COLOUR_RGB('Opaque(160,160,160)',0.627450980392157,0.627450980392157,
0.627450980392157);
ENDSEC;
END-ISO-10303-21;
