ISO-10303-21;
HEADER;
/* Generated by software containing ST-Developer
 * from STEP Tools, Inc. (www.steptools.com) 
 */

FILE_DESCRIPTION(
/* description */ (''),
/* implementation_level */ '2;1');

FILE_NAME(
/* name */ 'pcb-clip.step',
/* time_stamp */ '2026-03-30T11:08:20+02:00',
/* author */ (''),
/* organization */ (''),
/* preprocessor_version */ 'ST-DEVELOPER v20.1',
/* originating_system */ 'Autodesk Translation Framework v14.24.0.0',
/* authorisation */ '');

FILE_SCHEMA (('AUTOMOTIVE_DESIGN { 1 0 10303 214 3 1 1 }'));
ENDSEC;

DATA;
#10=MECHANICAL_DESIGN_GEOMETRIC_PRESENTATION_REPRESENTATION('',(#13),#922);
#11=SHAPE_REPRESENTATION_RELATIONSHIP('SRR','None',#929,#12);
#12=ADVANCED_BREP_SHAPE_REPRESENTATION('',(#14),#921);
#13=STYLED_ITEM('',(#939),#14);
#14=MANIFOLD_SOLID_BREP('K\X\F6rper1',#544);
#15=CYLINDRICAL_SURFACE('',#571,1.);
#16=CYLINDRICAL_SURFACE('',#578,0.500000000000001);
#17=CYLINDRICAL_SURFACE('',#581,0.999999999999998);
#18=CYLINDRICAL_SURFACE('',#586,0.500000000000002);
#19=CYLINDRICAL_SURFACE('',#589,1.5);
#20=CYLINDRICAL_SURFACE('',#594,0.999999999999998);
#21=CYLINDRICAL_SURFACE('',#597,1.);
#22=CYLINDRICAL_SURFACE('',#602,0.5);
#23=FACE_OUTER_BOUND('',#58,.T.);
#24=FACE_OUTER_BOUND('',#59,.T.);
#25=FACE_OUTER_BOUND('',#60,.T.);
#26=FACE_OUTER_BOUND('',#61,.T.);
#27=FACE_OUTER_BOUND('',#62,.T.);
#28=FACE_OUTER_BOUND('',#63,.T.);
#29=FACE_OUTER_BOUND('',#64,.T.);
#30=FACE_OUTER_BOUND('',#65,.T.);
#31=FACE_OUTER_BOUND('',#66,.T.);
#32=FACE_OUTER_BOUND('',#67,.T.);
#33=FACE_OUTER_BOUND('',#68,.T.);
#34=FACE_OUTER_BOUND('',#69,.T.);
#35=FACE_OUTER_BOUND('',#70,.T.);
#36=FACE_OUTER_BOUND('',#71,.T.);
#37=FACE_OUTER_BOUND('',#72,.T.);
#38=FACE_OUTER_BOUND('',#73,.T.);
#39=FACE_OUTER_BOUND('',#74,.T.);
#40=FACE_OUTER_BOUND('',#75,.T.);
#41=FACE_OUTER_BOUND('',#76,.T.);
#42=FACE_OUTER_BOUND('',#77,.T.);
#43=FACE_OUTER_BOUND('',#78,.T.);
#44=FACE_OUTER_BOUND('',#79,.T.);
#45=FACE_OUTER_BOUND('',#80,.T.);
#46=FACE_OUTER_BOUND('',#81,.T.);
#47=FACE_OUTER_BOUND('',#82,.T.);
#48=FACE_OUTER_BOUND('',#83,.T.);
#49=FACE_OUTER_BOUND('',#84,.T.);
#50=FACE_OUTER_BOUND('',#85,.T.);
#51=FACE_OUTER_BOUND('',#86,.T.);
#52=FACE_OUTER_BOUND('',#87,.T.);
#53=FACE_OUTER_BOUND('',#88,.T.);
#54=FACE_OUTER_BOUND('',#89,.T.);
#55=FACE_OUTER_BOUND('',#90,.T.);
#56=FACE_OUTER_BOUND('',#91,.T.);
#57=FACE_OUTER_BOUND('',#92,.T.);
#58=EDGE_LOOP('',(#336,#337,#338,#339));
#59=EDGE_LOOP('',(#340,#341,#342,#343));
#60=EDGE_LOOP('',(#344,#345,#346,#347,#348,#349));
#61=EDGE_LOOP('',(#350,#351,#352,#353,#354,#355));
#62=EDGE_LOOP('',(#356,#357,#358,#359,#360,#361));
#63=EDGE_LOOP('',(#362,#363,#364,#365));
#64=EDGE_LOOP('',(#366,#367,#368,#369));
#65=EDGE_LOOP('',(#370,#371,#372,#373));
#66=EDGE_LOOP('',(#374,#375,#376,#377));
#67=EDGE_LOOP('',(#378,#379,#380,#381));
#68=EDGE_LOOP('',(#382,#383,#384,#385));
#69=EDGE_LOOP('',(#386,#387,#388,#389));
#70=EDGE_LOOP('',(#390,#391,#392,#393));
#71=EDGE_LOOP('',(#394,#395,#396,#397));
#72=EDGE_LOOP('',(#398,#399,#400,#401));
#73=EDGE_LOOP('',(#402,#403,#404,#405));
#74=EDGE_LOOP('',(#406,#407,#408,#409));
#75=EDGE_LOOP('',(#410,#411,#412,#413));
#76=EDGE_LOOP('',(#414,#415,#416,#417));
#77=EDGE_LOOP('',(#418,#419,#420,#421));
#78=EDGE_LOOP('',(#422,#423,#424,#425));
#79=EDGE_LOOP('',(#426,#427,#428,#429));
#80=EDGE_LOOP('',(#430,#431,#432,#433));
#81=EDGE_LOOP('',(#434,#435,#436,#437));
#82=EDGE_LOOP('',(#438,#439,#440,#441));
#83=EDGE_LOOP('',(#442,#443,#444,#445));
#84=EDGE_LOOP('',(#446,#447,#448,#449));
#85=EDGE_LOOP('',(#450,#451,#452,#453));
#86=EDGE_LOOP('',(#454,#455,#456,#457));
#87=EDGE_LOOP('',(#458,#459,#460,#461));
#88=EDGE_LOOP('',(#462,#463,#464,#465));
#89=EDGE_LOOP('',(#466,#467,#468,#469));
#90=EDGE_LOOP('',(#470,#471,#472,#473));
#91=EDGE_LOOP('',(#474,#475,#476,#477));
#92=EDGE_LOOP('',(#478,#479,#480,#481));
#93=CIRCLE('',#559,1.5);
#94=CIRCLE('',#560,0.999999999999998);
#95=CIRCLE('',#563,0.500000000000002);
#96=CIRCLE('',#564,0.999999999999998);
#97=CIRCLE('',#566,1.);
#98=CIRCLE('',#567,0.5);
#99=CIRCLE('',#569,0.500000000000001);
#100=CIRCLE('',#570,1.);
#101=CIRCLE('',#572,1.);
#102=CIRCLE('',#575,0.500000000000001);
#103=CIRCLE('',#582,1.);
#104=CIRCLE('',#584,0.500000000000002);
#105=CIRCLE('',#590,1.5);
#106=CIRCLE('',#592,0.999999999999998);
#107=CIRCLE('',#598,1.);
#108=CIRCLE('',#600,0.5);
#109=LINE('',#774,#166);
#110=LINE('',#778,#167);
#111=LINE('',#782,#168);
#112=LINE('',#784,#169);
#113=LINE('',#785,#170);
#114=LINE('',#790,#171);
#115=LINE('',#792,#172);
#116=LINE('',#794,#173);
#117=LINE('',#799,#174);
#118=LINE('',#803,#175);
#119=LINE('',#805,#176);
#120=LINE('',#807,#177);
#121=LINE('',#813,#178);
#122=LINE('',#815,#179);
#123=LINE('',#817,#180);
#124=LINE('',#821,#181);
#125=LINE('',#824,#182);
#126=LINE('',#827,#183);
#127=LINE('',#829,#184);
#128=LINE('',#830,#185);
#129=LINE('',#832,#186);
#130=LINE('',#835,#187);
#131=LINE('',#838,#188);
#132=LINE('',#839,#189);
#133=LINE('',#841,#190);
#134=LINE('',#843,#191);
#135=LINE('',#847,#192);
#136=LINE('',#848,#193);
#137=LINE('',#851,#194);
#138=LINE('',#854,#195);
#139=LINE('',#856,#196);
#140=LINE('',#859,#197);
#141=LINE('',#861,#198);
#142=LINE('',#863,#199);
#143=LINE('',#867,#200);
#144=LINE('',#868,#201);
#145=LINE('',#871,#202);
#146=LINE('',#874,#203);
#147=LINE('',#876,#204);
#148=LINE('',#879,#205);
#149=LINE('',#881,#206);
#150=LINE('',#883,#207);
#151=LINE('',#886,#208);
#152=LINE('',#888,#209);
#153=LINE('',#889,#210);
#154=LINE('',#892,#211);
#155=LINE('',#895,#212);
#156=LINE('',#897,#213);
#157=LINE('',#900,#214);
#158=LINE('',#902,#215);
#159=LINE('',#904,#216);
#160=LINE('',#906,#217);
#161=LINE('',#910,#218);
#162=LINE('',#911,#219);
#163=LINE('',#914,#220);
#164=LINE('',#915,#221);
#165=LINE('',#917,#222);
#166=VECTOR('',#613,10.);
#167=VECTOR('',#616,10.);
#168=VECTOR('',#621,10.);
#169=VECTOR('',#622,10.);
#170=VECTOR('',#623,10.);
#171=VECTOR('',#628,10.);
#172=VECTOR('',#629,10.);
#173=VECTOR('',#630,10.);
#174=VECTOR('',#635,10.);
#175=VECTOR('',#638,10.);
#176=VECTOR('',#639,10.);
#177=VECTOR('',#640,10.);
#178=VECTOR('',#647,9.99999999999999);
#179=VECTOR('',#648,10.);
#180=VECTOR('',#649,10.);
#181=VECTOR('',#654,10.);
#182=VECTOR('',#657,10.);
#183=VECTOR('',#660,10.);
#184=VECTOR('',#661,0.72);
#185=VECTOR('',#662,10.);
#186=VECTOR('',#665,9.99999999999999);
#187=VECTOR('',#668,10.);
#188=VECTOR('',#671,10.);
#189=VECTOR('',#672,10.);
#190=VECTOR('',#675,10.);
#191=VECTOR('',#678,10.);
#192=VECTOR('',#683,10.);
#193=VECTOR('',#684,0.72);
#194=VECTOR('',#687,10.);
#195=VECTOR('',#690,10.);
#196=VECTOR('',#693,10.);
#197=VECTOR('',#696,10.);
#198=VECTOR('',#699,10.);
#199=VECTOR('',#702,10.);
#200=VECTOR('',#707,10.);
#201=VECTOR('',#708,1.22);
#202=VECTOR('',#711,10.);
#203=VECTOR('',#714,10.);
#204=VECTOR('',#717,10.);
#205=VECTOR('',#720,10.);
#206=VECTOR('',#723,10.);
#207=VECTOR('',#726,10.);
#208=VECTOR('',#731,10.);
#209=VECTOR('',#732,10.);
#210=VECTOR('',#733,0.72);
#211=VECTOR('',#736,10.);
#212=VECTOR('',#739,10.);
#213=VECTOR('',#742,10.);
#214=VECTOR('',#745,10.);
#215=VECTOR('',#748,10.);
#216=VECTOR('',#751,10.);
#217=VECTOR('',#754,10.);
#218=VECTOR('',#759,10.);
#219=VECTOR('',#760,10.);
#220=VECTOR('',#763,10.);
#221=VECTOR('',#764,10.);
#222=VECTOR('',#767,10.);
#223=VERTEX_POINT('',#772);
#224=VERTEX_POINT('',#773);
#225=VERTEX_POINT('',#775);
#226=VERTEX_POINT('',#777);
#227=VERTEX_POINT('',#781);
#228=VERTEX_POINT('',#783);
#229=VERTEX_POINT('',#787);
#230=VERTEX_POINT('',#789);
#231=VERTEX_POINT('',#791);
#232=VERTEX_POINT('',#793);
#233=VERTEX_POINT('',#797);
#234=VERTEX_POINT('',#798);
#235=VERTEX_POINT('',#800);
#236=VERTEX_POINT('',#802);
#237=VERTEX_POINT('',#804);
#238=VERTEX_POINT('',#806);
#239=VERTEX_POINT('',#810);
#240=VERTEX_POINT('',#812);
#241=VERTEX_POINT('',#814);
#242=VERTEX_POINT('',#816);
#243=VERTEX_POINT('',#820);
#244=VERTEX_POINT('',#822);
#245=VERTEX_POINT('',#826);
#246=VERTEX_POINT('',#828);
#247=VERTEX_POINT('',#833);
#248=VERTEX_POINT('',#837);
#249=VERTEX_POINT('',#846);
#250=VERTEX_POINT('',#850);
#251=VERTEX_POINT('',#852);
#252=VERTEX_POINT('',#857);
#253=VERTEX_POINT('',#866);
#254=VERTEX_POINT('',#870);
#255=VERTEX_POINT('',#872);
#256=VERTEX_POINT('',#877);
#257=VERTEX_POINT('',#887);
#258=VERTEX_POINT('',#891);
#259=VERTEX_POINT('',#893);
#260=VERTEX_POINT('',#898);
#261=VERTEX_POINT('',#909);
#262=VERTEX_POINT('',#913);
#263=EDGE_CURVE('',#223,#224,#109,.T.);
#264=EDGE_CURVE('',#225,#223,#93,.F.);
#265=EDGE_CURVE('',#226,#225,#110,.T.);
#266=EDGE_CURVE('',#224,#226,#94,.T.);
#267=EDGE_CURVE('',#227,#224,#111,.T.);
#268=EDGE_CURVE('',#227,#228,#112,.T.);
#269=EDGE_CURVE('',#223,#228,#113,.F.);
#270=EDGE_CURVE('',#229,#227,#95,.F.);
#271=EDGE_CURVE('',#230,#229,#114,.F.);
#272=EDGE_CURVE('',#230,#231,#115,.T.);
#273=EDGE_CURVE('',#232,#231,#116,.F.);
#274=EDGE_CURVE('',#228,#232,#96,.F.);
#275=EDGE_CURVE('',#233,#234,#117,.T.);
#276=EDGE_CURVE('',#235,#233,#97,.F.);
#277=EDGE_CURVE('',#235,#236,#118,.F.);
#278=EDGE_CURVE('',#236,#237,#119,.T.);
#279=EDGE_CURVE('',#238,#237,#120,.F.);
#280=EDGE_CURVE('',#234,#238,#98,.T.);
#281=EDGE_CURVE('',#239,#230,#99,.T.);
#282=EDGE_CURVE('',#240,#239,#121,.T.);
#283=EDGE_CURVE('',#240,#241,#122,.T.);
#284=EDGE_CURVE('',#242,#241,#123,.F.);
#285=EDGE_CURVE('',#231,#242,#100,.F.);
#286=EDGE_CURVE('',#243,#242,#124,.T.);
#287=EDGE_CURVE('',#243,#244,#101,.T.);
#288=EDGE_CURVE('',#231,#244,#125,.T.);
#289=EDGE_CURVE('',#239,#245,#126,.T.);
#290=EDGE_CURVE('',#246,#245,#127,.T.);
#291=EDGE_CURVE('',#246,#240,#128,.T.);
#292=EDGE_CURVE('',#245,#243,#129,.T.);
#293=EDGE_CURVE('',#245,#247,#102,.T.);
#294=EDGE_CURVE('',#244,#247,#130,.T.);
#295=EDGE_CURVE('',#248,#243,#131,.T.);
#296=EDGE_CURVE('',#246,#248,#132,.T.);
#297=EDGE_CURVE('',#241,#248,#133,.T.);
#298=EDGE_CURVE('',#247,#230,#134,.T.);
#299=EDGE_CURVE('',#229,#249,#135,.T.);
#300=EDGE_CURVE('',#247,#249,#136,.T.);
#301=EDGE_CURVE('',#250,#232,#137,.T.);
#302=EDGE_CURVE('',#250,#251,#103,.T.);
#303=EDGE_CURVE('',#228,#251,#138,.T.);
#304=EDGE_CURVE('',#249,#250,#139,.T.);
#305=EDGE_CURVE('',#249,#252,#104,.T.);
#306=EDGE_CURVE('',#251,#252,#140,.T.);
#307=EDGE_CURVE('',#244,#250,#141,.T.);
#308=EDGE_CURVE('',#252,#227,#142,.T.);
#309=EDGE_CURVE('',#224,#253,#143,.T.);
#310=EDGE_CURVE('',#252,#253,#144,.T.);
#311=EDGE_CURVE('',#254,#223,#145,.T.);
#312=EDGE_CURVE('',#254,#255,#105,.T.);
#313=EDGE_CURVE('',#225,#255,#146,.T.);
#314=EDGE_CURVE('',#253,#254,#147,.T.);
#315=EDGE_CURVE('',#253,#256,#106,.T.);
#316=EDGE_CURVE('',#255,#256,#148,.T.);
#317=EDGE_CURVE('',#251,#254,#149,.T.);
#318=EDGE_CURVE('',#256,#226,#150,.T.);
#319=EDGE_CURVE('',#226,#234,#151,.T.);
#320=EDGE_CURVE('',#234,#257,#152,.T.);
#321=EDGE_CURVE('',#256,#257,#153,.T.);
#322=EDGE_CURVE('',#258,#233,#154,.T.);
#323=EDGE_CURVE('',#258,#259,#107,.T.);
#324=EDGE_CURVE('',#235,#259,#155,.T.);
#325=EDGE_CURVE('',#257,#258,#156,.T.);
#326=EDGE_CURVE('',#257,#260,#108,.T.);
#327=EDGE_CURVE('',#259,#260,#157,.T.);
#328=EDGE_CURVE('',#255,#258,#158,.T.);
#329=EDGE_CURVE('',#260,#238,#159,.T.);
#330=EDGE_CURVE('',#233,#225,#160,.F.);
#331=EDGE_CURVE('',#261,#259,#161,.T.);
#332=EDGE_CURVE('',#236,#261,#162,.T.);
#333=EDGE_CURVE('',#262,#260,#163,.T.);
#334=EDGE_CURVE('',#261,#262,#164,.T.);
#335=EDGE_CURVE('',#237,#262,#165,.T.);
#336=ORIENTED_EDGE('',*,*,#263,.F.);
#337=ORIENTED_EDGE('',*,*,#264,.F.);
#338=ORIENTED_EDGE('',*,*,#265,.F.);
#339=ORIENTED_EDGE('',*,*,#266,.F.);
#340=ORIENTED_EDGE('',*,*,#263,.T.);
#341=ORIENTED_EDGE('',*,*,#267,.F.);
#342=ORIENTED_EDGE('',*,*,#268,.T.);
#343=ORIENTED_EDGE('',*,*,#269,.F.);
#344=ORIENTED_EDGE('',*,*,#268,.F.);
#345=ORIENTED_EDGE('',*,*,#270,.F.);
#346=ORIENTED_EDGE('',*,*,#271,.F.);
#347=ORIENTED_EDGE('',*,*,#272,.T.);
#348=ORIENTED_EDGE('',*,*,#273,.F.);
#349=ORIENTED_EDGE('',*,*,#274,.F.);
#350=ORIENTED_EDGE('',*,*,#275,.F.);
#351=ORIENTED_EDGE('',*,*,#276,.F.);
#352=ORIENTED_EDGE('',*,*,#277,.T.);
#353=ORIENTED_EDGE('',*,*,#278,.T.);
#354=ORIENTED_EDGE('',*,*,#279,.F.);
#355=ORIENTED_EDGE('',*,*,#280,.F.);
#356=ORIENTED_EDGE('',*,*,#272,.F.);
#357=ORIENTED_EDGE('',*,*,#281,.F.);
#358=ORIENTED_EDGE('',*,*,#282,.F.);
#359=ORIENTED_EDGE('',*,*,#283,.T.);
#360=ORIENTED_EDGE('',*,*,#284,.F.);
#361=ORIENTED_EDGE('',*,*,#285,.F.);
#362=ORIENTED_EDGE('',*,*,#286,.F.);
#363=ORIENTED_EDGE('',*,*,#287,.T.);
#364=ORIENTED_EDGE('',*,*,#288,.F.);
#365=ORIENTED_EDGE('',*,*,#285,.T.);
#366=ORIENTED_EDGE('',*,*,#289,.T.);
#367=ORIENTED_EDGE('',*,*,#290,.F.);
#368=ORIENTED_EDGE('',*,*,#291,.T.);
#369=ORIENTED_EDGE('',*,*,#282,.T.);
#370=ORIENTED_EDGE('',*,*,#292,.F.);
#371=ORIENTED_EDGE('',*,*,#293,.T.);
#372=ORIENTED_EDGE('',*,*,#294,.F.);
#373=ORIENTED_EDGE('',*,*,#287,.F.);
#374=ORIENTED_EDGE('',*,*,#292,.T.);
#375=ORIENTED_EDGE('',*,*,#295,.F.);
#376=ORIENTED_EDGE('',*,*,#296,.F.);
#377=ORIENTED_EDGE('',*,*,#290,.T.);
#378=ORIENTED_EDGE('',*,*,#291,.F.);
#379=ORIENTED_EDGE('',*,*,#296,.T.);
#380=ORIENTED_EDGE('',*,*,#297,.F.);
#381=ORIENTED_EDGE('',*,*,#283,.F.);
#382=ORIENTED_EDGE('',*,*,#289,.F.);
#383=ORIENTED_EDGE('',*,*,#281,.T.);
#384=ORIENTED_EDGE('',*,*,#298,.F.);
#385=ORIENTED_EDGE('',*,*,#293,.F.);
#386=ORIENTED_EDGE('',*,*,#286,.T.);
#387=ORIENTED_EDGE('',*,*,#284,.T.);
#388=ORIENTED_EDGE('',*,*,#297,.T.);
#389=ORIENTED_EDGE('',*,*,#295,.T.);
#390=ORIENTED_EDGE('',*,*,#298,.T.);
#391=ORIENTED_EDGE('',*,*,#271,.T.);
#392=ORIENTED_EDGE('',*,*,#299,.T.);
#393=ORIENTED_EDGE('',*,*,#300,.F.);
#394=ORIENTED_EDGE('',*,*,#301,.F.);
#395=ORIENTED_EDGE('',*,*,#302,.T.);
#396=ORIENTED_EDGE('',*,*,#303,.F.);
#397=ORIENTED_EDGE('',*,*,#274,.T.);
#398=ORIENTED_EDGE('',*,*,#304,.F.);
#399=ORIENTED_EDGE('',*,*,#305,.T.);
#400=ORIENTED_EDGE('',*,*,#306,.F.);
#401=ORIENTED_EDGE('',*,*,#302,.F.);
#402=ORIENTED_EDGE('',*,*,#294,.T.);
#403=ORIENTED_EDGE('',*,*,#300,.T.);
#404=ORIENTED_EDGE('',*,*,#304,.T.);
#405=ORIENTED_EDGE('',*,*,#307,.F.);
#406=ORIENTED_EDGE('',*,*,#299,.F.);
#407=ORIENTED_EDGE('',*,*,#270,.T.);
#408=ORIENTED_EDGE('',*,*,#308,.F.);
#409=ORIENTED_EDGE('',*,*,#305,.F.);
#410=ORIENTED_EDGE('',*,*,#288,.T.);
#411=ORIENTED_EDGE('',*,*,#307,.T.);
#412=ORIENTED_EDGE('',*,*,#301,.T.);
#413=ORIENTED_EDGE('',*,*,#273,.T.);
#414=ORIENTED_EDGE('',*,*,#308,.T.);
#415=ORIENTED_EDGE('',*,*,#267,.T.);
#416=ORIENTED_EDGE('',*,*,#309,.T.);
#417=ORIENTED_EDGE('',*,*,#310,.F.);
#418=ORIENTED_EDGE('',*,*,#311,.F.);
#419=ORIENTED_EDGE('',*,*,#312,.T.);
#420=ORIENTED_EDGE('',*,*,#313,.F.);
#421=ORIENTED_EDGE('',*,*,#264,.T.);
#422=ORIENTED_EDGE('',*,*,#314,.F.);
#423=ORIENTED_EDGE('',*,*,#315,.T.);
#424=ORIENTED_EDGE('',*,*,#316,.F.);
#425=ORIENTED_EDGE('',*,*,#312,.F.);
#426=ORIENTED_EDGE('',*,*,#306,.T.);
#427=ORIENTED_EDGE('',*,*,#310,.T.);
#428=ORIENTED_EDGE('',*,*,#314,.T.);
#429=ORIENTED_EDGE('',*,*,#317,.F.);
#430=ORIENTED_EDGE('',*,*,#309,.F.);
#431=ORIENTED_EDGE('',*,*,#266,.T.);
#432=ORIENTED_EDGE('',*,*,#318,.F.);
#433=ORIENTED_EDGE('',*,*,#315,.F.);
#434=ORIENTED_EDGE('',*,*,#303,.T.);
#435=ORIENTED_EDGE('',*,*,#317,.T.);
#436=ORIENTED_EDGE('',*,*,#311,.T.);
#437=ORIENTED_EDGE('',*,*,#269,.T.);
#438=ORIENTED_EDGE('',*,*,#318,.T.);
#439=ORIENTED_EDGE('',*,*,#319,.T.);
#440=ORIENTED_EDGE('',*,*,#320,.T.);
#441=ORIENTED_EDGE('',*,*,#321,.F.);
#442=ORIENTED_EDGE('',*,*,#322,.F.);
#443=ORIENTED_EDGE('',*,*,#323,.T.);
#444=ORIENTED_EDGE('',*,*,#324,.F.);
#445=ORIENTED_EDGE('',*,*,#276,.T.);
#446=ORIENTED_EDGE('',*,*,#325,.F.);
#447=ORIENTED_EDGE('',*,*,#326,.T.);
#448=ORIENTED_EDGE('',*,*,#327,.F.);
#449=ORIENTED_EDGE('',*,*,#323,.F.);
#450=ORIENTED_EDGE('',*,*,#316,.T.);
#451=ORIENTED_EDGE('',*,*,#321,.T.);
#452=ORIENTED_EDGE('',*,*,#325,.T.);
#453=ORIENTED_EDGE('',*,*,#328,.F.);
#454=ORIENTED_EDGE('',*,*,#320,.F.);
#455=ORIENTED_EDGE('',*,*,#280,.T.);
#456=ORIENTED_EDGE('',*,*,#329,.F.);
#457=ORIENTED_EDGE('',*,*,#326,.F.);
#458=ORIENTED_EDGE('',*,*,#313,.T.);
#459=ORIENTED_EDGE('',*,*,#328,.T.);
#460=ORIENTED_EDGE('',*,*,#322,.T.);
#461=ORIENTED_EDGE('',*,*,#330,.T.);
#462=ORIENTED_EDGE('',*,*,#265,.T.);
#463=ORIENTED_EDGE('',*,*,#330,.F.);
#464=ORIENTED_EDGE('',*,*,#275,.T.);
#465=ORIENTED_EDGE('',*,*,#319,.F.);
#466=ORIENTED_EDGE('',*,*,#324,.T.);
#467=ORIENTED_EDGE('',*,*,#331,.F.);
#468=ORIENTED_EDGE('',*,*,#332,.F.);
#469=ORIENTED_EDGE('',*,*,#277,.F.);
#470=ORIENTED_EDGE('',*,*,#327,.T.);
#471=ORIENTED_EDGE('',*,*,#333,.F.);
#472=ORIENTED_EDGE('',*,*,#334,.F.);
#473=ORIENTED_EDGE('',*,*,#331,.T.);
#474=ORIENTED_EDGE('',*,*,#332,.T.);
#475=ORIENTED_EDGE('',*,*,#334,.T.);
#476=ORIENTED_EDGE('',*,*,#335,.F.);
#477=ORIENTED_EDGE('',*,*,#278,.F.);
#478=ORIENTED_EDGE('',*,*,#329,.T.);
#479=ORIENTED_EDGE('',*,*,#279,.T.);
#480=ORIENTED_EDGE('',*,*,#335,.T.);
#481=ORIENTED_EDGE('',*,*,#333,.T.);
#482=PLANE('',#558);
#483=PLANE('',#561);
#484=PLANE('',#562);
#485=PLANE('',#565);
#486=PLANE('',#568);
#487=PLANE('',#573);
#488=PLANE('',#574);
#489=PLANE('',#576);
#490=PLANE('',#577);
#491=PLANE('',#579);
#492=PLANE('',#580);
#493=PLANE('',#583);
#494=PLANE('',#585);
#495=PLANE('',#587);
#496=PLANE('',#588);
#497=PLANE('',#591);
#498=PLANE('',#593);
#499=PLANE('',#595);
#500=PLANE('',#596);
#501=PLANE('',#599);
#502=PLANE('',#601);
#503=PLANE('',#603);
#504=PLANE('',#604);
#505=PLANE('',#605);
#506=PLANE('',#606);
#507=PLANE('',#607);
#508=PLANE('',#608);
#509=ADVANCED_FACE('',(#23),#482,.T.);
#510=ADVANCED_FACE('',(#24),#483,.T.);
#511=ADVANCED_FACE('',(#25),#484,.T.);
#512=ADVANCED_FACE('',(#26),#485,.T.);
#513=ADVANCED_FACE('',(#27),#486,.T.);
#514=ADVANCED_FACE('',(#28),#15,.T.);
#515=ADVANCED_FACE('',(#29),#487,.F.);
#516=ADVANCED_FACE('',(#30),#488,.T.);
#517=ADVANCED_FACE('',(#31),#489,.T.);
#518=ADVANCED_FACE('',(#32),#490,.T.);
#519=ADVANCED_FACE('',(#33),#16,.F.);
#520=ADVANCED_FACE('',(#34),#491,.T.);
#521=ADVANCED_FACE('',(#35),#492,.T.);
#522=ADVANCED_FACE('',(#36),#17,.T.);
#523=ADVANCED_FACE('',(#37),#493,.T.);
#524=ADVANCED_FACE('',(#38),#494,.T.);
#525=ADVANCED_FACE('',(#39),#18,.F.);
#526=ADVANCED_FACE('',(#40),#495,.T.);
#527=ADVANCED_FACE('',(#41),#496,.F.);
#528=ADVANCED_FACE('',(#42),#19,.T.);
#529=ADVANCED_FACE('',(#43),#497,.T.);
#530=ADVANCED_FACE('',(#44),#498,.T.);
#531=ADVANCED_FACE('',(#45),#20,.F.);
#532=ADVANCED_FACE('',(#46),#499,.T.);
#533=ADVANCED_FACE('',(#47),#500,.F.);
#534=ADVANCED_FACE('',(#48),#21,.T.);
#535=ADVANCED_FACE('',(#49),#501,.T.);
#536=ADVANCED_FACE('',(#50),#502,.T.);
#537=ADVANCED_FACE('',(#51),#22,.F.);
#538=ADVANCED_FACE('',(#52),#503,.T.);
#539=ADVANCED_FACE('',(#53),#504,.T.);
#540=ADVANCED_FACE('',(#54),#505,.F.);
#541=ADVANCED_FACE('',(#55),#506,.T.);
#542=ADVANCED_FACE('',(#56),#507,.T.);
#543=ADVANCED_FACE('',(#57),#508,.T.);
#544=CLOSED_SHELL('',(#509,#510,#511,#512,#513,#514,#515,#516,#517,#518,
#519,#520,#521,#522,#523,#524,#525,#526,#527,#528,#529,#530,#531,#532,#533,
#534,#535,#536,#537,#538,#539,#540,#541,#542,#543));
#545=DERIVED_UNIT_ELEMENT(#547,1.);
#546=DERIVED_UNIT_ELEMENT(#924,-3.);
#547=(
MASS_UNIT()
NAMED_UNIT(*)
SI_UNIT(.KILO.,.GRAM.)
);
#548=DERIVED_UNIT((#545,#546));
#549=MEASURE_REPRESENTATION_ITEM('density measure',
POSITIVE_RATIO_MEASURE(7850.),#548);
#550=PROPERTY_DEFINITION_REPRESENTATION(#555,#552);
#551=PROPERTY_DEFINITION_REPRESENTATION(#556,#553);
#552=REPRESENTATION('material name',(#554),#921);
#553=REPRESENTATION('density',(#549),#921);
#554=DESCRIPTIVE_REPRESENTATION_ITEM('Stahl','Stahl');
#555=PROPERTY_DEFINITION('material property','material name',#931);
#556=PROPERTY_DEFINITION('material property','density of part',#931);
#557=AXIS2_PLACEMENT_3D('',#770,#609,#610);
#558=AXIS2_PLACEMENT_3D('',#771,#611,#612);
#559=AXIS2_PLACEMENT_3D('',#776,#614,#615);
#560=AXIS2_PLACEMENT_3D('',#779,#617,#618);
#561=AXIS2_PLACEMENT_3D('',#780,#619,#620);
#562=AXIS2_PLACEMENT_3D('',#786,#624,#625);
#563=AXIS2_PLACEMENT_3D('',#788,#626,#627);
#564=AXIS2_PLACEMENT_3D('',#795,#631,#632);
#565=AXIS2_PLACEMENT_3D('',#796,#633,#634);
#566=AXIS2_PLACEMENT_3D('',#801,#636,#637);
#567=AXIS2_PLACEMENT_3D('',#808,#641,#642);
#568=AXIS2_PLACEMENT_3D('',#809,#643,#644);
#569=AXIS2_PLACEMENT_3D('',#811,#645,#646);
#570=AXIS2_PLACEMENT_3D('',#818,#650,#651);
#571=AXIS2_PLACEMENT_3D('',#819,#652,#653);
#572=AXIS2_PLACEMENT_3D('',#823,#655,#656);
#573=AXIS2_PLACEMENT_3D('',#825,#658,#659);
#574=AXIS2_PLACEMENT_3D('',#831,#663,#664);
#575=AXIS2_PLACEMENT_3D('',#834,#666,#667);
#576=AXIS2_PLACEMENT_3D('',#836,#669,#670);
#577=AXIS2_PLACEMENT_3D('',#840,#673,#674);
#578=AXIS2_PLACEMENT_3D('',#842,#676,#677);
#579=AXIS2_PLACEMENT_3D('',#844,#679,#680);
#580=AXIS2_PLACEMENT_3D('',#845,#681,#682);
#581=AXIS2_PLACEMENT_3D('',#849,#685,#686);
#582=AXIS2_PLACEMENT_3D('',#853,#688,#689);
#583=AXIS2_PLACEMENT_3D('',#855,#691,#692);
#584=AXIS2_PLACEMENT_3D('',#858,#694,#695);
#585=AXIS2_PLACEMENT_3D('',#860,#697,#698);
#586=AXIS2_PLACEMENT_3D('',#862,#700,#701);
#587=AXIS2_PLACEMENT_3D('',#864,#703,#704);
#588=AXIS2_PLACEMENT_3D('',#865,#705,#706);
#589=AXIS2_PLACEMENT_3D('',#869,#709,#710);
#590=AXIS2_PLACEMENT_3D('',#873,#712,#713);
#591=AXIS2_PLACEMENT_3D('',#875,#715,#716);
#592=AXIS2_PLACEMENT_3D('',#878,#718,#719);
#593=AXIS2_PLACEMENT_3D('',#880,#721,#722);
#594=AXIS2_PLACEMENT_3D('',#882,#724,#725);
#595=AXIS2_PLACEMENT_3D('',#884,#727,#728);
#596=AXIS2_PLACEMENT_3D('',#885,#729,#730);
#597=AXIS2_PLACEMENT_3D('',#890,#734,#735);
#598=AXIS2_PLACEMENT_3D('',#894,#737,#738);
#599=AXIS2_PLACEMENT_3D('',#896,#740,#741);
#600=AXIS2_PLACEMENT_3D('',#899,#743,#744);
#601=AXIS2_PLACEMENT_3D('',#901,#746,#747);
#602=AXIS2_PLACEMENT_3D('',#903,#749,#750);
#603=AXIS2_PLACEMENT_3D('',#905,#752,#753);
#604=AXIS2_PLACEMENT_3D('',#907,#755,#756);
#605=AXIS2_PLACEMENT_3D('',#908,#757,#758);
#606=AXIS2_PLACEMENT_3D('',#912,#761,#762);
#607=AXIS2_PLACEMENT_3D('',#916,#765,#766);
#608=AXIS2_PLACEMENT_3D('',#918,#768,#769);
#609=DIRECTION('axis',(0.,0.,1.));
#610=DIRECTION('refdir',(1.,0.,0.));
#611=DIRECTION('center_axis',(0.,2.22044604925031E-16,-1.));
#612=DIRECTION('ref_axis',(-1.,0.,0.));
#613=DIRECTION('',(0.087155742747658,-0.996194698091746,-2.21199658166192E-16));
#614=DIRECTION('center_axis',(0.,2.22044604925031E-16,-1.));
#615=DIRECTION('ref_axis',(1.,-9.18794589678809E-16,-2.04013381672487E-31));
#616=DIRECTION('',(1.,0.,0.));
#617=DIRECTION('center_axis',(0.,2.22044604925031E-16,-1.));
#618=DIRECTION('ref_axis',(1.,-9.18794589678809E-16,-2.04013381672487E-31));
#619=DIRECTION('center_axis',(0.,2.22044604925031E-16,-1.));
#620=DIRECTION('ref_axis',(-1.,0.,0.));
#621=DIRECTION('',(0.996194698091746,0.087155742747658,1.93524624653514E-17));
#622=DIRECTION('',(-0.087155742747658,0.996194698091746,2.21199658166192E-16));
#623=DIRECTION('',(0.996194698091746,0.0871557427476589,1.93524624653516E-17));
#624=DIRECTION('center_axis',(0.,2.22044604925031E-16,-1.));
#625=DIRECTION('ref_axis',(-1.,0.,0.));
#626=DIRECTION('center_axis',(0.,-2.22044604925031E-16,1.));
#627=DIRECTION('ref_axis',(-0.0871557427476581,0.996194698091746,2.21199658166193E-16));
#628=DIRECTION('',(0.0871557427476592,-0.996194698091746,-2.21199658166192E-16));
#629=DIRECTION('',(-0.996194698091746,-0.0871557427476588,-1.93524624653516E-17));
#630=DIRECTION('',(-0.087155742747659,0.996194698091746,2.21199658166192E-16));
#631=DIRECTION('center_axis',(0.,2.22044604925031E-16,-1.));
#632=DIRECTION('ref_axis',(-0.0871557427476581,0.996194698091746,2.21199658166192E-16));
#633=DIRECTION('center_axis',(0.,2.22044604925031E-16,-1.));
#634=DIRECTION('ref_axis',(-1.,0.,0.));
#635=DIRECTION('',(-1.,9.49410759657493E-16,2.10811537039722E-31));
#636=DIRECTION('center_axis',(0.,2.22044604925031E-16,-1.));
#637=DIRECTION('ref_axis',(0.,-1.,-2.22044604925031E-16));
#638=DIRECTION('',(1.,0.,0.));
#639=DIRECTION('',(0.,1.,2.22044604925031E-16));
#640=DIRECTION('',(1.,0.,0.));
#641=DIRECTION('center_axis',(0.,2.22044604925031E-16,-1.));
#642=DIRECTION('ref_axis',(0.,-1.,-2.22044604925031E-16));
#643=DIRECTION('center_axis',(0.,2.22044604925031E-16,-1.));
#644=DIRECTION('ref_axis',(-1.,0.,0.));
#645=DIRECTION('center_axis',(0.,2.22044604925031E-16,-1.));
#646=DIRECTION('ref_axis',(-0.996194698091746,-0.0871557427476593,-1.93524624653517E-17));
#647=DIRECTION('',(-0.866025403784438,-0.5,-1.11022302462516E-16));
#648=DIRECTION('',(0.5,-0.866025403784439,-1.92296268638356E-16));
#649=DIRECTION('',(-0.866025403784439,-0.5,-1.11022302462516E-16));
#650=DIRECTION('center_axis',(0.,2.22044604925031E-16,-1.));
#651=DIRECTION('ref_axis',(-0.996194698091745,-0.0871557427476593,-1.93524624653517E-17));
#652=DIRECTION('center_axis',(0.,-2.22044604925031E-16,1.));
#653=DIRECTION('ref_axis',(-0.996194698091745,-0.0871557427476593,-1.93524624653517E-17));
#654=DIRECTION('',(0.,2.22044604925031E-16,-1.));
#655=DIRECTION('center_axis',(0.,2.22044604925031E-16,-1.));
#656=DIRECTION('ref_axis',(0.5,-0.866025403784438,-1.92296268638356E-16));
#657=DIRECTION('',(0.,-2.22044604925031E-16,1.));
#658=DIRECTION('center_axis',(0.5,-0.866025403784438,-1.36996354096808E-16));
#659=DIRECTION('ref_axis',(-0.866025403784438,-0.5,-1.11022302462516E-16));
#660=DIRECTION('',(-2.76499572707741E-17,-1.74153474104942E-16,1.));
#661=DIRECTION('',(-0.866025403784438,-0.5,-1.11022302462516E-16));
#662=DIRECTION('',(0.,2.22044604925031E-16,-1.));
#663=DIRECTION('center_axis',(0.,-2.22044604925031E-16,1.));
#664=DIRECTION('ref_axis',(0.,-1.,-2.22044604925031E-16));
#665=DIRECTION('',(0.5,-0.866025403784439,-1.92296268638356E-16));
#666=DIRECTION('center_axis',(0.,2.22044604925031E-16,-1.));
#667=DIRECTION('ref_axis',(0.5,-0.866025403784438,-1.92296268638356E-16));
#668=DIRECTION('',(0.996194698091746,0.0871557427476588,1.93524624653516E-17));
#669=DIRECTION('center_axis',(0.,-2.22044604925031E-16,1.));
#670=DIRECTION('ref_axis',(-0.866025403784438,-0.5,-1.11022302462516E-16));
#671=DIRECTION('',(-0.866025403784438,-0.500000000000001,-1.11022302462516E-16));
#672=DIRECTION('',(0.5,-0.866025403784439,-1.92296268638356E-16));
#673=DIRECTION('center_axis',(0.866025403784439,0.5,1.11022302462516E-16));
#674=DIRECTION('ref_axis',(0.,-2.22044604925031E-16,1.));
#675=DIRECTION('',(0.,-2.22044604925031E-16,1.));
#676=DIRECTION('center_axis',(0.,-2.22044604925031E-16,1.));
#677=DIRECTION('ref_axis',(-0.996194698091746,-0.0871557427476593,-1.93524624653517E-17));
#678=DIRECTION('',(0.,2.22044604925031E-16,-1.));
#679=DIRECTION('center_axis',(0.5,-0.866025403784439,-1.92296268638356E-16));
#680=DIRECTION('ref_axis',(-0.866025403784439,-0.5,-1.11022302462516E-16));
#681=DIRECTION('center_axis',(0.996194698091745,0.0871557427476592,1.93524624653517E-17));
#682=DIRECTION('ref_axis',(0.0871557427476592,-0.996194698091746,-2.21199658166192E-16));
#683=DIRECTION('',(0.,-2.22044604925031E-16,1.));
#684=DIRECTION('',(-0.0871557427476592,0.996194698091745,2.21199658166192E-16));
#685=DIRECTION('center_axis',(0.,-2.22044604925031E-16,1.));
#686=DIRECTION('ref_axis',(-0.0871557427476581,0.996194698091746,2.21199658166192E-16));
#687=DIRECTION('',(0.,2.22044604925031E-16,-1.));
#688=DIRECTION('center_axis',(0.,2.22044604925031E-16,-1.));
#689=DIRECTION('ref_axis',(-0.996194698091746,-0.0871557427476598,-1.93524624653518E-17));
#690=DIRECTION('',(0.,-2.22044604925031E-16,1.));
#691=DIRECTION('center_axis',(0.,-2.22044604925031E-16,1.));
#692=DIRECTION('ref_axis',(0.,-1.,-2.22044604925031E-16));
#693=DIRECTION('',(-0.996194698091745,-0.0871557427476594,-1.93524624653517E-17));
#694=DIRECTION('center_axis',(0.,2.22044604925031E-16,-1.));
#695=DIRECTION('ref_axis',(-0.996194698091746,-0.0871557427476596,-1.93524624653517E-17));
#696=DIRECTION('',(0.087155742747658,-0.996194698091746,-2.21199658166192E-16));
#697=DIRECTION('center_axis',(0.,-2.22044604925031E-16,1.));
#698=DIRECTION('ref_axis',(-0.0871557427476593,0.996194698091745,2.21199658166192E-16));
#699=DIRECTION('',(-0.0871557427476593,0.996194698091746,2.21199658166192E-16));
#700=DIRECTION('center_axis',(0.,-2.22044604925031E-16,1.));
#701=DIRECTION('ref_axis',(-0.0871557427476581,0.996194698091746,2.21199658166193E-16));
#702=DIRECTION('',(0.,2.22044604925031E-16,-1.));
#703=DIRECTION('center_axis',(-0.996194698091745,-0.087155742747659,-1.93524624653516E-17));
#704=DIRECTION('ref_axis',(-0.0871557427476591,0.996194698091746,2.21199658166192E-16));
#705=DIRECTION('center_axis',(-0.0871557427476581,0.996194698091746,2.21199658166192E-16));
#706=DIRECTION('ref_axis',(0.996194698091746,0.0871557427476581,1.93524624653514E-17));
#707=DIRECTION('',(0.,-2.22044604925031E-16,1.));
#708=DIRECTION('',(0.996194698091746,0.0871557427476581,1.93524624653514E-17));
#709=DIRECTION('center_axis',(0.,-2.22044604925031E-16,1.));
#710=DIRECTION('ref_axis',(1.,-9.18794589678809E-16,-2.04013381672487E-31));
#711=DIRECTION('',(0.,2.22044604925031E-16,-1.));
#712=DIRECTION('center_axis',(0.,2.22044604925031E-16,-1.));
#713=DIRECTION('ref_axis',(-0.087155742747658,0.996194698091746,2.21199658166193E-16));
#714=DIRECTION('',(0.,-2.22044604925031E-16,1.));
#715=DIRECTION('center_axis',(0.,-2.22044604925031E-16,1.));
#716=DIRECTION('ref_axis',(0.,-1.,-2.22044604925031E-16));
#717=DIRECTION('',(-0.087155742747658,0.996194698091746,2.21199658166192E-16));
#718=DIRECTION('center_axis',(0.,2.22044604925031E-16,-1.));
#719=DIRECTION('ref_axis',(-0.0871557427476579,0.996194698091746,2.21199658166192E-16));
#720=DIRECTION('',(-1.,0.,0.));
#721=DIRECTION('center_axis',(0.,-2.22044604925031E-16,1.));
#722=DIRECTION('ref_axis',(0.996194698091746,0.087155742747658,1.93524624653514E-17));
#723=DIRECTION('',(0.996194698091746,0.087155742747658,1.93524624653514E-17));
#724=DIRECTION('center_axis',(0.,-2.22044604925031E-16,1.));
#725=DIRECTION('ref_axis',(1.,-9.18794589678809E-16,-2.04013381672487E-31));
#726=DIRECTION('',(0.,2.22044604925031E-16,-1.));
#727=DIRECTION('center_axis',(-0.0871557427476589,0.996194698091746,2.21199658166192E-16));
#728=DIRECTION('ref_axis',(0.996194698091745,0.0871557427476588,1.93524624653516E-17));
#729=DIRECTION('center_axis',(1.,-9.18794589678809E-16,-2.04013381672487E-31));
#730=DIRECTION('ref_axis',(-9.18794589678809E-16,-1.,-2.22044604925031E-16));
#731=DIRECTION('',(-9.18794589678809E-16,-1.,-2.22044604925031E-16));
#732=DIRECTION('',(0.,-2.22044604925031E-16,1.));
#733=DIRECTION('',(-8.88178419700125E-16,-1.,-2.22044604925031E-16));
#734=DIRECTION('center_axis',(0.,-2.22044604925031E-16,1.));
#735=DIRECTION('ref_axis',(0.,-1.,-2.22044604925031E-16));
#736=DIRECTION('',(0.,2.22044604925031E-16,-1.));
#737=DIRECTION('center_axis',(0.,2.22044604925031E-16,-1.));
#738=DIRECTION('ref_axis',(1.,-9.71445146547012E-16,-2.1570415377137E-31));
#739=DIRECTION('',(0.,-2.22044604925031E-16,1.));
#740=DIRECTION('center_axis',(0.,-2.22044604925031E-16,1.));
#741=DIRECTION('ref_axis',(0.,-1.,-2.22044604925031E-16));
#742=DIRECTION('',(1.,-9.49410759657493E-16,-2.10811537039722E-31));
#743=DIRECTION('center_axis',(0.,2.22044604925031E-16,-1.));
#744=DIRECTION('ref_axis',(1.,-8.32667268468868E-16,-1.84889274661175E-31));
#745=DIRECTION('',(0.,1.,2.22044604925031E-16));
#746=DIRECTION('center_axis',(0.,-2.22044604925031E-16,1.));
#747=DIRECTION('ref_axis',(-9.49410759657493E-16,-1.,-2.22044604925031E-16));
#748=DIRECTION('',(-9.49410759657493E-16,-1.,-2.22044604925031E-16));
#749=DIRECTION('center_axis',(0.,-2.22044604925031E-16,1.));
#750=DIRECTION('ref_axis',(0.,-1.,-2.22044604925031E-16));
#751=DIRECTION('',(0.,2.22044604925031E-16,-1.));
#752=DIRECTION('center_axis',(1.,-9.49410759657493E-16,-2.10811537039722E-31));
#753=DIRECTION('ref_axis',(-9.49410759657493E-16,-1.,-2.22044604925031E-16));
#754=DIRECTION('',(-9.49410759657493E-16,-1.,-2.22044604925031E-16));
#755=DIRECTION('center_axis',(0.,2.22044604925031E-16,-1.));
#756=DIRECTION('ref_axis',(-1.,0.,0.));
#757=DIRECTION('center_axis',(0.,1.,2.22044604925031E-16));
#758=DIRECTION('ref_axis',(1.,0.,0.));
#759=DIRECTION('',(1.,0.,0.));
#760=DIRECTION('',(3.39869990185983E-33,-2.22044604925031E-16,1.));
#761=DIRECTION('center_axis',(0.,-2.22044604925031E-16,1.));
#762=DIRECTION('ref_axis',(1.,0.,0.));
#763=DIRECTION('',(1.,0.,0.));
#764=DIRECTION('',(0.,1.,2.22044604925031E-16));
#765=DIRECTION('center_axis',(-1.,-7.54662976967209E-49,3.39869990185983E-33));
#766=DIRECTION('ref_axis',(3.39869990185983E-33,-2.22044604925031E-16,1.));
#767=DIRECTION('',(3.39869990185983E-33,-2.22044604925031E-16,1.));
#768=DIRECTION('center_axis',(0.,1.,2.22044604925031E-16));
#769=DIRECTION('ref_axis',(1.,0.,0.));
#770=CARTESIAN_POINT('',(0.,0.,0.));
#771=CARTESIAN_POINT('Origin',(4.5,0.,0.));
#772=CARTESIAN_POINT('',(3.36926638587852,7.10298354606835,1.11022302462516E-15));
#773=CARTESIAN_POINT('',(3.41284425725235,6.60488619702247,1.11022302462516E-15));
#774=CARTESIAN_POINT('',(3.40325712555011,6.71446761381256,1.11022302462516E-15));
#775=CARTESIAN_POINT('',(5.,5.60869149893073,1.11022302462516E-15));
#776=CARTESIAN_POINT('Origin',(3.50000000000001,5.60869149893073,1.11022302462516E-15));
#777=CARTESIAN_POINT('',(4.50000000000001,5.60869149893073,1.11022302462516E-15));
#778=CARTESIAN_POINT('',(4.5,5.60869149893073,1.11022302462516E-15));
#779=CARTESIAN_POINT('Origin',(3.50000000000001,5.60869149893073,1.11022302462516E-15));
#780=CARTESIAN_POINT('Origin',(4.5,0.,0.));
#781=CARTESIAN_POINT('',(1.21255749629725,6.41238604893273,1.11022302462516E-15));
#782=CARTESIAN_POINT('',(3.37022584104128,6.60115756874657,1.11022302462516E-15));
#783=CARTESIAN_POINT('',(1.16897962492342,6.9104833979786,1.11022302462516E-15));
#784=CARTESIAN_POINT('',(1.21255749629725,6.41238604893273,1.11022302462516E-15));
#785=CARTESIAN_POINT('',(3.32664796966745,7.09925491779245,1.11022302462516E-15));
#786=CARTESIAN_POINT('Origin',(4.5,0.,0.));
#787=CARTESIAN_POINT('',(0.7580380186252,5.87071082851303,1.11022302462516E-15));
#788=CARTESIAN_POINT('Origin',(1.25613536767108,5.91428869988686,1.11022302462516E-15));
#789=CARTESIAN_POINT('',(0.882698134514215,4.44583918383331,1.11022302462516E-15));
#790=CARTESIAN_POINT('',(1.06783388188906,2.32972790822802,0.));
#791=CARTESIAN_POINT('',(0.384600785468345,4.40226131245948,1.11022302462516E-15));
#792=CARTESIAN_POINT('',(0.882698134514217,4.44583918383331,1.11022302462516E-15));
#793=CARTESIAN_POINT('',(0.25994066957933,5.8271329571392,1.11022302462516E-15));
#794=CARTESIAN_POINT('',(0.569736532843192,2.28615003685419,0.));
#795=CARTESIAN_POINT('Origin',(1.25613536767108,5.91428869988686,1.11022302462516E-15));
#796=CARTESIAN_POINT('Origin',(4.5,0.,0.));
#797=CARTESIAN_POINT('',(5.,0.999999999999999,0.));
#798=CARTESIAN_POINT('',(4.5,0.999999999999999,0.));
#799=CARTESIAN_POINT('',(4.61,0.999999999999999,0.));
#800=CARTESIAN_POINT('',(4.,0.,0.));
#801=CARTESIAN_POINT('Origin',(4.,1.,0.));
#802=CARTESIAN_POINT('',(-1.10457746810444E-32,0.,0.));
#803=CARTESIAN_POINT('',(3.375,0.,0.));
#804=CARTESIAN_POINT('',(-1.10457746810444E-32,0.5,0.));
#805=CARTESIAN_POINT('',(0.,0.,0.));
#806=CARTESIAN_POINT('',(4.,0.5,0.));
#807=CARTESIAN_POINT('',(3.375,0.5,0.));
#808=CARTESIAN_POINT('Origin',(4.,1.,0.));
#809=CARTESIAN_POINT('Origin',(4.5,0.,0.));
#810=CARTESIAN_POINT('',(1.63079548356009,4.05640435331492,1.11022302462516E-15));
#811=CARTESIAN_POINT('Origin',(1.38079548356009,4.48941705520714,1.11022302462516E-15));
#812=CARTESIAN_POINT('',(2.00345870539118,4.27156156475618,1.11022302462516E-15));
#813=CARTESIAN_POINT('',(1.6087952878543,4.04370253440196,1.11022302462516E-15));
#814=CARTESIAN_POINT('',(2.25345870539118,3.83854886286396,1.11022302462516E-15));
#815=CARTESIAN_POINT('',(3.2403465744443,2.12920893229058,0.));
#816=CARTESIAN_POINT('',(1.88079548356009,3.6233916514227,1.11022302462516E-15));
#817=CARTESIAN_POINT('',(1.8587952878543,3.61068983250974,1.11022302462516E-15));
#818=CARTESIAN_POINT('Origin',(1.38079548356009,4.48941705520714,1.11022302462516E-15));
#819=CARTESIAN_POINT('Origin',(1.38079548356009,4.48941705520714,3.1));
#820=CARTESIAN_POINT('',(1.88079548356009,3.6233916514227,6.5));
#821=CARTESIAN_POINT('',(1.88079548356009,3.6233916514227,3.1));
#822=CARTESIAN_POINT('',(0.384600785468344,4.40226131245948,6.5));
#823=CARTESIAN_POINT('Origin',(1.38079548356009,4.48941705520714,6.5));
#824=CARTESIAN_POINT('',(0.384600785468345,4.40226131245948,4.8));
#825=CARTESIAN_POINT('Origin',(1.19136631381483,3.80269980387272,3.1));
#826=CARTESIAN_POINT('',(1.63079548356009,4.05640435331492,6.5));
#827=CARTESIAN_POINT('',(1.63079548356009,4.05640435331492,3.1));
#828=CARTESIAN_POINT('',(2.00345870539118,4.27156156475618,6.5));
#829=CARTESIAN_POINT('',(-0.328107829812865,2.9254309980226,6.5));
#830=CARTESIAN_POINT('',(2.00345870539118,4.27156156475618,6.5));
#831=CARTESIAN_POINT('Origin',(1.63079548356009,4.05640435331492,6.5));
#832=CARTESIAN_POINT('',(1.68579548356009,3.96114155889863,6.5));
#833=CARTESIAN_POINT('',(0.882698134514217,4.44583918383331,6.5));
#834=CARTESIAN_POINT('Origin',(1.38079548356009,4.48941705520714,6.5));
#835=CARTESIAN_POINT('',(0.882698134514217,4.44583918383331,6.5));
#836=CARTESIAN_POINT('Origin',(2.00345870539118,4.27156156475618,6.5));
#837=CARTESIAN_POINT('',(2.25345870539118,3.83854886286396,6.5));
#838=CARTESIAN_POINT('',(1.88079548356009,3.6233916514227,6.5));
#839=CARTESIAN_POINT('',(2.00345870539118,4.27156156475618,6.5));
#840=CARTESIAN_POINT('Origin',(2.00345870539118,4.27156156475618,-0.299999999999999));
#841=CARTESIAN_POINT('',(2.25345870539118,3.83854886286396,6.5));
#842=CARTESIAN_POINT('Origin',(1.38079548356009,4.48941705520714,3.1));
#843=CARTESIAN_POINT('',(0.882698134514215,4.44583918383331,4.8));
#844=CARTESIAN_POINT('Origin',(1.44136631381483,3.3696871019805,3.1));
#845=CARTESIAN_POINT('Origin',(0.839486221342531,4.93975361148803,3.1));
#846=CARTESIAN_POINT('',(0.758038018625201,5.87071082851303,6.5));
#847=CARTESIAN_POINT('',(0.7580380186252,5.87071082851303,3.1));
#848=CARTESIAN_POINT('',(0.560896373008571,8.12405014896352,6.5));
#849=CARTESIAN_POINT('Origin',(1.25613536767108,5.91428869988686,3.1));
#850=CARTESIAN_POINT('',(0.259940669579329,5.8271329571392,6.5));
#851=CARTESIAN_POINT('',(0.25994066957933,5.8271329571392,3.1));
#852=CARTESIAN_POINT('',(1.16897962492342,6.9104833979786,6.5));
#853=CARTESIAN_POINT('Origin',(1.25613536767108,5.91428869988686,6.5));
#854=CARTESIAN_POINT('',(1.16897962492342,6.9104833979786,4.8));
#855=CARTESIAN_POINT('Origin',(0.758038018625201,5.87071082851303,6.5));
#856=CARTESIAN_POINT('',(0.648456601835109,5.86112369681078,6.5));
#857=CARTESIAN_POINT('',(1.21255749629725,6.41238604893273,6.5));
#858=CARTESIAN_POINT('Origin',(1.25613536767108,5.91428869988686,6.5));
#859=CARTESIAN_POINT('',(1.21255749629725,6.41238604893273,6.5));
#860=CARTESIAN_POINT('Origin',(1.01950524686818,2.88212673423779,6.5));
#861=CARTESIAN_POINT('',(0.259940669579329,5.8271329571392,6.5));
#862=CARTESIAN_POINT('Origin',(1.25613536767108,5.91428869988686,3.1));
#863=CARTESIAN_POINT('',(1.21255749629725,6.41238604893273,4.8));
#864=CARTESIAN_POINT('Origin',(0.341388872296662,4.8961757401142,3.1));
#865=CARTESIAN_POINT('Origin',(2.82217307726678,6.55320916490225,3.1));
#866=CARTESIAN_POINT('',(3.41284425725235,6.60488619702247,6.5));
#867=CARTESIAN_POINT('',(3.41284425725235,6.60488619702247,3.1));
#868=CARTESIAN_POINT('',(7.2310025502379,6.9389317632062,6.5));
#869=CARTESIAN_POINT('Origin',(3.50000000000001,5.60869149893073,3.1));
#870=CARTESIAN_POINT('',(3.36926638587852,7.10298354606834,6.5));
#871=CARTESIAN_POINT('',(3.36926638587852,7.10298354606835,3.1));
#872=CARTESIAN_POINT('',(5.00000000000001,5.60869149893073,6.5));
#873=CARTESIAN_POINT('Origin',(3.50000000000001,5.60869149893073,6.5));
#874=CARTESIAN_POINT('',(5.,5.60869149893073,4.8));
#875=CARTESIAN_POINT('Origin',(3.41284425725235,6.60488619702247,6.5));
#876=CARTESIAN_POINT('',(3.40325712555011,6.71446761381256,6.5));
#877=CARTESIAN_POINT('',(4.50000000000001,5.60869149893073,6.5));
#878=CARTESIAN_POINT('Origin',(3.50000000000001,5.60869149893073,6.5));
#879=CARTESIAN_POINT('',(4.50000000000001,5.60869149893073,6.5));
#880=CARTESIAN_POINT('Origin',(0.216362798205498,6.32523030618507,6.5));
#881=CARTESIAN_POINT('',(3.36926638587852,7.10298354606834,6.5));
#882=CARTESIAN_POINT('Origin',(3.50000000000001,5.60869149893073,3.1));
#883=CARTESIAN_POINT('',(4.50000000000001,5.60869149893073,4.8));
#884=CARTESIAN_POINT('Origin',(2.77859520589295,7.05130651394813,3.1));
#885=CARTESIAN_POINT('Origin',(4.5,3.28451332235384,3.1));
#886=CARTESIAN_POINT('',(4.5,1.64225666117692,0.));
#887=CARTESIAN_POINT('',(4.5,0.999999999999998,6.5));
#888=CARTESIAN_POINT('',(4.5,0.999999999999998,3.1));
#889=CARTESIAN_POINT('',(4.5,-1.26194671058465,6.5));
#890=CARTESIAN_POINT('Origin',(4.,0.999999999999999,3.1));
#891=CARTESIAN_POINT('',(5.,0.999999999999998,6.5));
#892=CARTESIAN_POINT('',(5.,0.999999999999998,3.1));
#893=CARTESIAN_POINT('',(4.,-1.4432899320127E-15,6.5));
#894=CARTESIAN_POINT('Origin',(4.,0.999999999999999,6.5));
#895=CARTESIAN_POINT('',(4.,-1.06581410364015E-15,4.8));
#896=CARTESIAN_POINT('Origin',(4.5,0.999999999999999,6.5));
#897=CARTESIAN_POINT('',(4.61,0.999999999999998,6.5));
#898=CARTESIAN_POINT('',(4.,0.499999999999999,6.5));
#899=CARTESIAN_POINT('Origin',(4.,0.999999999999999,6.5));
#900=CARTESIAN_POINT('',(4.,0.249999999999999,6.5));
#901=CARTESIAN_POINT('Origin',(4.50000000000001,6.7,6.5));
#902=CARTESIAN_POINT('',(5.,0.999999999999998,6.5));
#903=CARTESIAN_POINT('Origin',(4.,0.999999999999999,3.1));
#904=CARTESIAN_POINT('',(4.,0.499999999999999,4.8));
#905=CARTESIAN_POINT('Origin',(5.,3.28451332235384,3.1));
#906=CARTESIAN_POINT('',(5.,1.64225666117692,0.));
#907=CARTESIAN_POINT('Origin',(4.5,0.,0.));
#908=CARTESIAN_POINT('Origin',(2.25,-6.88338275267597E-16,3.1));
#909=CARTESIAN_POINT('',(0.,-1.4432899320127E-15,6.5));
#910=CARTESIAN_POINT('',(0.,-1.4432899320127E-15,6.5));
#911=CARTESIAN_POINT('',(-2.31111593326468E-32,6.66133814775095E-17,-0.3));
#912=CARTESIAN_POINT('Origin',(0.,-1.4432899320127E-15,6.5));
#913=CARTESIAN_POINT('',(0.,0.499999999999999,6.5));
#914=CARTESIAN_POINT('',(0.,0.499999999999999,6.5));
#915=CARTESIAN_POINT('',(0.,-1.4432899320127E-15,6.5));
#916=CARTESIAN_POINT('Origin',(-2.31111593326468E-32,6.66133814775095E-17,
-0.3));
#917=CARTESIAN_POINT('',(-2.31111593326468E-32,0.5,-0.3));
#918=CARTESIAN_POINT('Origin',(2.25,0.499999999999999,3.1));
#919=UNCERTAINTY_MEASURE_WITH_UNIT(LENGTH_MEASURE(0.01),#923,
'DISTANCE_ACCURACY_VALUE',
'Maximum model space distance between geometric entities at asserted c
onnectivities');
#920=UNCERTAINTY_MEASURE_WITH_UNIT(LENGTH_MEASURE(0.01),#923,
'DISTANCE_ACCURACY_VALUE',
'Maximum model space distance between geometric entities at asserted c
onnectivities');
#921=(
GEOMETRIC_REPRESENTATION_CONTEXT(3)
GLOBAL_UNCERTAINTY_ASSIGNED_CONTEXT((#919))
GLOBAL_UNIT_ASSIGNED_CONTEXT((#923,#925,#926))
REPRESENTATION_CONTEXT('','3D')
);
#922=(
GEOMETRIC_REPRESENTATION_CONTEXT(3)
GLOBAL_UNCERTAINTY_ASSIGNED_CONTEXT((#920))
GLOBAL_UNIT_ASSIGNED_CONTEXT((#923,#925,#926))
REPRESENTATION_CONTEXT('','3D')
);
#923=(
LENGTH_UNIT()
NAMED_UNIT(*)
SI_UNIT(.MILLI.,.METRE.)
);
#924=(
LENGTH_UNIT()
NAMED_UNIT(*)
SI_UNIT($,.METRE.)
);
#925=(
NAMED_UNIT(*)
PLANE_ANGLE_UNIT()
SI_UNIT($,.RADIAN.)
);
#926=(
NAMED_UNIT(*)
SI_UNIT($,.STERADIAN.)
SOLID_ANGLE_UNIT()
);
#927=SHAPE_DEFINITION_REPRESENTATION(#928,#929);
#928=PRODUCT_DEFINITION_SHAPE('',$,#931);
#929=SHAPE_REPRESENTATION('',(#557),#921);
#930=PRODUCT_DEFINITION_CONTEXT('part definition',#935,'design');
#931=PRODUCT_DEFINITION('2026-03-28-16-51-46-616','pcb-clip',#932,#930);
#932=PRODUCT_DEFINITION_FORMATION('',$,#937);
#933=PRODUCT_RELATED_PRODUCT_CATEGORY('pcb-clip','pcb-clip',(#937));
#934=APPLICATION_PROTOCOL_DEFINITION('international standard',
'automotive_design',2009,#935);
#935=APPLICATION_CONTEXT(
'Core Data for Automotive Mechanical Design Process');
#936=PRODUCT_CONTEXT('part definition',#935,'mechanical');
#937=PRODUCT('2026-03-28-16-51-46-616','pcb-clip',$,(#936));
#938=PRESENTATION_STYLE_ASSIGNMENT((#940));
#939=PRESENTATION_STYLE_ASSIGNMENT((#941));
#940=SURFACE_STYLE_USAGE(.BOTH.,#942);
#941=SURFACE_STYLE_USAGE(.BOTH.,#943);
#942=SURFACE_SIDE_STYLE('',(#944));
#943=SURFACE_SIDE_STYLE('',(#945));
#944=SURFACE_STYLE_FILL_AREA(#946);
#945=SURFACE_STYLE_FILL_AREA(#947);
#946=FILL_AREA_STYLE('Stahl - satiniert',(#948));
#947=FILL_AREA_STYLE('Opaque(160,160,160)',(#949));
#948=FILL_AREA_STYLE_COLOUR('Stahl - satiniert',#950);
#949=FILL_AREA_STYLE_COLOUR('Opaque(160,160,160)',#951);
#950=COLOUR_RGB('Stahl - satiniert',0.627450980392157,0.627450980392157,
0.627450980392157);
#951=COLOUR_RGB('Opaque(160,160,160)',0.627450980392157,0.627450980392157,
0.627450980392157);
ENDSEC;
END-ISO-10303-21;
