ISO-10303-21;
HEADER;
/* Generated by software containing ST-Developer
 * from STEP Tools, Inc. (www.steptools.com) 
 */

FILE_DESCRIPTION(
/* description */ (''),
/* implementation_level */ '2;1');

FILE_NAME(
/* name */ 'BW0041CG-L2.5W1.0H1.8.step',
/* time_stamp */ '2026-09-28T12:03:16+02:00',
/* author */ (''),
/* organization */ (''),
/* preprocessor_version */ 'ST-DEVELOPER v20.2',
/* originating_system */ 'Autodesk Translation Framework v15.15.0.0',
/* authorisation */ '');

FILE_SCHEMA (('AUTOMOTIVE_DESIGN { 1 0 10303 214 3 1 1 }'));
ENDSEC;

DATA;
#10=MECHANICAL_DESIGN_GEOMETRIC_PRESENTATION_REPRESENTATION('',(#13),#1619);
#11=SHAPE_REPRESENTATION_RELATIONSHIP('SRR','None',#1626,#12);
#12=ADVANCED_BREP_SHAPE_REPRESENTATION('',(#14),#1618);
#13=STYLED_ITEM('',(#1636),#14);
#14=MANIFOLD_SOLID_BREP('spring',#899);
#15=FACE_BOUND('',#137,.T.);
#16=ELLIPSE('',#945,0.046052279204009,0.0458);
#17=ELLIPSE('',#946,0.438158168294565,0.0458);
#18=ELLIPSE('',#947,0.046052279204009,0.0458);
#19=ELLIPSE('',#948,1.48920444869064,0.0458);
#20=ELLIPSE('',#950,0.046052279204009,0.0458);
#21=ELLIPSE('',#951,1.48920444869064,0.0458);
#22=ELLIPSE('',#952,0.046052279204009,0.0458);
#23=ELLIPSE('',#953,0.438158168294565,0.0458);
#24=ELLIPSE('',#955,0.0460660383578548,0.0460442474207992);
#25=ELLIPSE('',#956,0.0130061523903113,0.013);
#26=ELLIPSE('',#957,0.023010884998243,0.023);
#27=ELLIPSE('',#958,0.036061305749923,0.0360442474207992);
#28=ELLIPSE('',#963,0.0460660383578548,0.0460442474207992);
#29=ELLIPSE('',#965,0.036061305749923,0.0360442474207992);
#30=ELLIPSE('',#966,0.023010884998243,0.023);
#31=ELLIPSE('',#967,0.0130061523903113,0.013);
#32=B_SPLINE_CURVE_WITH_KNOTS('',3,(#1331,#1332,#1333,#1334,#1335,#1336,
#1337,#1338,#1339,#1340),.UNSPECIFIED.,.F.,.F.,(4,2,2,2,4),(0.0243249308800293,
0.0273389610828,0.0303529912855706,0.0333835146830739,0.0364140380805772),
 .UNSPECIFIED.);
#33=B_SPLINE_CURVE_WITH_KNOTS('',3,(#1344,#1345,#1346,#1347,#1348,#1349,
#1350,#1351,#1352,#1353),.UNSPECIFIED.,.F.,.F.,(4,2,2,2,4),(0.0243559087675712,
0.0273700113131341,0.0303841138586971,0.0334169652241416,0.0364498165895861),
 .UNSPECIFIED.);
#34=B_SPLINE_CURVE_WITH_KNOTS('',3,(#1365,#1366,#1367,#1368,#1369,#1370,
#1371,#1372,#1373,#1374),.UNSPECIFIED.,.F.,.F.,(4,2,2,2,4),(0.0122358236794815,
0.0152663470769848,0.0182968704744881,0.0213109006772588,0.0243249308800294),
 .UNSPECIFIED.);
#35=B_SPLINE_CURVE_WITH_KNOTS('',3,(#1378,#1379,#1380,#1381,#1382,#1383,
#1384,#1385,#1386,#1387),.UNSPECIFIED.,.F.,.F.,(4,2,2,2,4),(0.0486498617600587,
0.0516638919628293,0.0546779221655999,0.0577084455631032,0.0607389689606065),
 .UNSPECIFIED.);
#36=B_SPLINE_CURVE_WITH_KNOTS('',3,(#1390,#1391,#1392,#1393,#1394,#1395,
#1396,#1397,#1398,#1399),.UNSPECIFIED.,.F.,.F.,(4,2,2,2,4),(0.0365607545595109,
0.0395912779570142,0.0426218013545175,0.0456358315572881,0.0486498617600587),
 .UNSPECIFIED.);
#37=B_SPLINE_CURVE_WITH_KNOTS('',3,(#1403,#1404,#1405,#1406,#1407,#1408,
#1409,#1410,#1411,#1412),.UNSPECIFIED.,.F.,.F.,(4,2,2,2,4),(-0.0120939078220149,
-0.00906105645657039,-0.0060282050911259,-0.00301410254556295,0.),
 .UNSPECIFIED.);
#38=B_SPLINE_CURVE_WITH_KNOTS('',3,(#1421,#1422,#1423,#1424,#1425,#1426,
#1427,#1428,#1429,#1430),.UNSPECIFIED.,.F.,.F.,(4,2,2,2,4),(0.0122620009455563,
0.0152948523110008,0.0183277036764453,0.0213418062220083,0.0243559087675712),
 .UNSPECIFIED.);
#39=B_SPLINE_CURVE_WITH_KNOTS('',3,(#1437,#1438,#1439,#1440,#1441,#1442,
#1443,#1444,#1445,#1446),.UNSPECIFIED.,.F.,.F.,(4,2,2,2,4),(0.,0.00301410254556295,
0.0060282050911259,0.00906105645657039,0.0120939078220149),
 .UNSPECIFIED.);
#40=B_SPLINE_CURVE_WITH_KNOTS('',3,(#1458,#1459,#1460,#1461,#1462,#1463),
 .UNSPECIFIED.,.F.,.F.,(4,2,4),(0.250977259308393,0.256859551708053,0.257770232016354),
 .UNSPECIFIED.);
#41=B_SPLINE_CURVE_WITH_KNOTS('',3,(#1468,#1469,#1470,#1471),
 .UNSPECIFIED.,.F.,.F.,(4,4),(0.402072488568686,0.407144621616274),
 .UNSPECIFIED.);
#42=B_SPLINE_CURVE_WITH_KNOTS('',3,(#1477,#1478,#1479,#1480),
 .UNSPECIFIED.,.F.,.F.,(4,4),(0.293810048626114,0.298882181673702),
 .UNSPECIFIED.);
#43=B_SPLINE_CURVE_WITH_KNOTS('',3,(#1486,#1487,#1488,#1489,#1490,#1491),
 .UNSPECIFIED.,.F.,.F.,(4,2,4),(0.362305214571595,0.363215894879896,0.369098187279556),
 .UNSPECIFIED.);
#44=PLANE('',#916);
#45=PLANE('',#917);
#46=PLANE('',#921);
#47=PLANE('',#922);
#48=PLANE('',#932);
#49=PLANE('',#938);
#50=PLANE('',#940);
#51=PLANE('',#943);
#52=PLANE('',#954);
#53=PLANE('',#959);
#54=PLANE('',#964);
#55=PLANE('',#968);
#56=PLANE('',#969);
#57=PLANE('',#971);
#58=PLANE('',#972);
#59=PLANE('',#974);
#60=PLANE('',#975);
#61=PLANE('',#976);
#62=PLANE('',#978);
#63=PLANE('',#981);
#64=PLANE('',#984);
#65=PLANE('',#987);
#66=PLANE('',#992);
#67=PLANE('',#995);
#68=PLANE('',#998);
#69=PLANE('',#1001);
#70=FACE_OUTER_BOUND('',#117,.T.);
#71=FACE_OUTER_BOUND('',#118,.T.);
#72=FACE_OUTER_BOUND('',#119,.T.);
#73=FACE_OUTER_BOUND('',#120,.T.);
#74=FACE_OUTER_BOUND('',#121,.T.);
#75=FACE_OUTER_BOUND('',#122,.T.);
#76=FACE_OUTER_BOUND('',#123,.T.);
#77=FACE_OUTER_BOUND('',#124,.T.);
#78=FACE_OUTER_BOUND('',#125,.T.);
#79=FACE_OUTER_BOUND('',#126,.T.);
#80=FACE_OUTER_BOUND('',#127,.T.);
#81=FACE_OUTER_BOUND('',#128,.T.);
#82=FACE_OUTER_BOUND('',#129,.T.);
#83=FACE_OUTER_BOUND('',#130,.T.);
#84=FACE_OUTER_BOUND('',#131,.T.);
#85=FACE_OUTER_BOUND('',#132,.T.);
#86=FACE_OUTER_BOUND('',#133,.T.);
#87=FACE_OUTER_BOUND('',#134,.T.);
#88=FACE_OUTER_BOUND('',#135,.T.);
#89=FACE_OUTER_BOUND('',#136,.T.);
#90=FACE_OUTER_BOUND('',#138,.T.);
#91=FACE_OUTER_BOUND('',#139,.T.);
#92=FACE_OUTER_BOUND('',#140,.T.);
#93=FACE_OUTER_BOUND('',#141,.T.);
#94=FACE_OUTER_BOUND('',#142,.T.);
#95=FACE_OUTER_BOUND('',#143,.T.);
#96=FACE_OUTER_BOUND('',#144,.T.);
#97=FACE_OUTER_BOUND('',#145,.T.);
#98=FACE_OUTER_BOUND('',#146,.T.);
#99=FACE_OUTER_BOUND('',#147,.T.);
#100=FACE_OUTER_BOUND('',#148,.T.);
#101=FACE_OUTER_BOUND('',#149,.T.);
#102=FACE_OUTER_BOUND('',#150,.T.);
#103=FACE_OUTER_BOUND('',#151,.T.);
#104=FACE_OUTER_BOUND('',#152,.T.);
#105=FACE_OUTER_BOUND('',#153,.T.);
#106=FACE_OUTER_BOUND('',#154,.T.);
#107=FACE_OUTER_BOUND('',#155,.T.);
#108=FACE_OUTER_BOUND('',#156,.T.);
#109=FACE_OUTER_BOUND('',#157,.T.);
#110=FACE_OUTER_BOUND('',#158,.T.);
#111=FACE_OUTER_BOUND('',#159,.T.);
#112=FACE_OUTER_BOUND('',#160,.T.);
#113=FACE_OUTER_BOUND('',#161,.T.);
#114=FACE_OUTER_BOUND('',#162,.T.);
#115=FACE_OUTER_BOUND('',#163,.T.);
#116=FACE_OUTER_BOUND('',#164,.T.);
#117=EDGE_LOOP('',(#567,#568,#569,#570));
#118=EDGE_LOOP('',(#571,#572,#573,#574));
#119=EDGE_LOOP('',(#575,#576,#577,#578,#579,#580));
#120=EDGE_LOOP('',(#581,#582,#583,#584));
#121=EDGE_LOOP('',(#585,#586,#587,#588,#589,#590));
#122=EDGE_LOOP('',(#591,#592,#593,#594,#595,#596,#597,#598,#599,#600,#601,
#602,#603,#604,#605,#606,#607,#608,#609,#610));
#123=EDGE_LOOP('',(#611,#612,#613,#614));
#124=EDGE_LOOP('',(#615,#616,#617,#618));
#125=EDGE_LOOP('',(#619,#620,#621,#622,#623,#624,#625,#626));
#126=EDGE_LOOP('',(#627,#628,#629,#630));
#127=EDGE_LOOP('',(#631,#632,#633,#634));
#128=EDGE_LOOP('',(#635,#636,#637,#638));
#129=EDGE_LOOP('',(#639,#640,#641,#642));
#130=EDGE_LOOP('',(#643,#644,#645,#646));
#131=EDGE_LOOP('',(#647,#648,#649,#650));
#132=EDGE_LOOP('',(#651,#652,#653,#654,#655,#656,#657));
#133=EDGE_LOOP('',(#658,#659,#660,#661,#662,#663,#664));
#134=EDGE_LOOP('',(#665,#666,#667,#668,#669,#670,#671,#672,#673,#674,#675));
#135=EDGE_LOOP('',(#676,#677,#678));
#136=EDGE_LOOP('',(#679,#680,#681,#682,#683,#684,#685,#686));
#137=EDGE_LOOP('',(#687,#688,#689,#690,#691,#692,#693,#694));
#138=EDGE_LOOP('',(#695,#696,#697,#698,#699,#700,#701,#702,#703,#704,#705));
#139=EDGE_LOOP('',(#706,#707,#708));
#140=EDGE_LOOP('',(#709,#710,#711,#712));
#141=EDGE_LOOP('',(#713,#714,#715,#716));
#142=EDGE_LOOP('',(#717,#718,#719,#720));
#143=EDGE_LOOP('',(#721,#722,#723,#724));
#144=EDGE_LOOP('',(#725,#726,#727,#728,#729,#730));
#145=EDGE_LOOP('',(#731,#732,#733,#734));
#146=EDGE_LOOP('',(#735,#736,#737,#738,#739,#740));
#147=EDGE_LOOP('',(#741,#742,#743,#744));
#148=EDGE_LOOP('',(#745,#746,#747,#748));
#149=EDGE_LOOP('',(#749,#750,#751,#752,#753,#754));
#150=EDGE_LOOP('',(#755,#756,#757,#758));
#151=EDGE_LOOP('',(#759,#760,#761,#762));
#152=EDGE_LOOP('',(#763,#764,#765,#766));
#153=EDGE_LOOP('',(#767,#768,#769,#770));
#154=EDGE_LOOP('',(#771,#772,#773,#774));
#155=EDGE_LOOP('',(#775,#776,#777,#778));
#156=EDGE_LOOP('',(#779,#780,#781,#782));
#157=EDGE_LOOP('',(#783,#784,#785,#786));
#158=EDGE_LOOP('',(#787,#788,#789,#790));
#159=EDGE_LOOP('',(#791,#792,#793,#794));
#160=EDGE_LOOP('',(#795,#796,#797,#798));
#161=EDGE_LOOP('',(#799,#800,#801,#802));
#162=EDGE_LOOP('',(#803,#804,#805,#806));
#163=EDGE_LOOP('',(#807,#808,#809,#810));
#164=EDGE_LOOP('',(#811,#812,#813,#814,#815,#816,#817,#818,#819,#820,#821,
#822,#823,#824,#825,#826,#827,#828,#829,#830));
#165=LINE('',#1266,#243);
#166=LINE('',#1269,#244);
#167=LINE('',#1272,#245);
#168=LINE('',#1274,#246);
#169=LINE('',#1275,#247);
#170=LINE('',#1278,#248);
#171=LINE('',#1280,#249);
#172=LINE('',#1282,#250);
#173=LINE('',#1287,#251);
#174=LINE('',#1290,#252);
#175=LINE('',#1292,#253);
#176=LINE('',#1293,#254);
#177=LINE('',#1298,#255);
#178=LINE('',#1302,#256);
#179=LINE('',#1306,#257);
#180=LINE('',#1310,#258);
#181=LINE('',#1312,#259);
#182=LINE('',#1314,#260);
#183=LINE('',#1318,#261);
#184=LINE('',#1322,#262);
#185=LINE('',#1326,#263);
#186=LINE('',#1342,#264);
#187=LINE('',#1354,#265);
#188=LINE('',#1359,#266);
#189=LINE('',#1363,#267);
#190=LINE('',#1389,#268);
#191=LINE('',#1402,#269);
#192=LINE('',#1415,#270);
#193=LINE('',#1416,#271);
#194=LINE('',#1419,#272);
#195=LINE('',#1431,#273);
#196=LINE('',#1435,#274);
#197=LINE('',#1448,#275);
#198=LINE('',#1467,#276);
#199=LINE('',#1482,#277);
#200=LINE('',#1497,#278);
#201=LINE('',#1501,#279);
#202=LINE('',#1504,#280);
#203=LINE('',#1506,#281);
#204=LINE('',#1510,#282);
#205=LINE('',#1515,#283);
#206=LINE('',#1520,#284);
#207=LINE('',#1525,#285);
#208=LINE('',#1529,#286);
#209=LINE('',#1531,#287);
#210=LINE('',#1533,#288);
#211=LINE('',#1536,#289);
#212=LINE('',#1537,#290);
#213=LINE('',#1540,#291);
#214=LINE('',#1542,#292);
#215=LINE('',#1543,#293);
#216=LINE('',#1545,#294);
#217=LINE('',#1547,#295);
#218=LINE('',#1549,#296);
#219=LINE('',#1553,#297);
#220=LINE('',#1554,#298);
#221=LINE('',#1556,#299);
#222=LINE('',#1558,#300);
#223=LINE('',#1561,#301);
#224=LINE('',#1562,#302);
#225=LINE('',#1566,#303);
#226=LINE('',#1569,#304);
#227=LINE('',#1570,#305);
#228=LINE('',#1574,#306);
#229=LINE('',#1577,#307);
#230=LINE('',#1578,#308);
#231=LINE('',#1582,#309);
#232=LINE('',#1585,#310);
#233=LINE('',#1586,#311);
#234=LINE('',#1591,#312);
#235=LINE('',#1595,#313);
#236=LINE('',#1596,#314);
#237=LINE('',#1599,#315);
#238=LINE('',#1603,#316);
#239=LINE('',#1604,#317);
#240=LINE('',#1607,#318);
#241=LINE('',#1611,#319);
#242=LINE('',#1612,#320);
#243=VECTOR('',#1008,1.);
#244=VECTOR('',#1011,1.);
#245=VECTOR('',#1014,1.);
#246=VECTOR('',#1015,1.);
#247=VECTOR('',#1016,1.);
#248=VECTOR('',#1019,1.);
#249=VECTOR('',#1020,1.);
#250=VECTOR('',#1021,1.);
#251=VECTOR('',#1028,1.);
#252=VECTOR('',#1031,1.);
#253=VECTOR('',#1032,1.);
#254=VECTOR('',#1033,1.);
#255=VECTOR('',#1038,1.);
#256=VECTOR('',#1041,1.);
#257=VECTOR('',#1044,1.);
#258=VECTOR('',#1047,1.);
#259=VECTOR('',#1048,1.);
#260=VECTOR('',#1049,1.);
#261=VECTOR('',#1052,1.);
#262=VECTOR('',#1055,1.);
#263=VECTOR('',#1058,1.);
#264=VECTOR('',#1063,1.);
#265=VECTOR('',#1064,1.);
#266=VECTOR('',#1069,1.);
#267=VECTOR('',#1074,1.);
#268=VECTOR('',#1077,1.);
#269=VECTOR('',#1080,1.);
#270=VECTOR('',#1083,1.);
#271=VECTOR('',#1084,1.);
#272=VECTOR('',#1087,1.);
#273=VECTOR('',#1088,1.);
#274=VECTOR('',#1093,1.);
#275=VECTOR('',#1098,1.);
#276=VECTOR('',#1109,1.);
#277=VECTOR('',#1114,1.);
#278=VECTOR('',#1123,1.);
#279=VECTOR('',#1126,1.);
#280=VECTOR('',#1129,1.);
#281=VECTOR('',#1130,1.);
#282=VECTOR('',#1133,1.);
#283=VECTOR('',#1142,1.);
#284=VECTOR('',#1147,1.);
#285=VECTOR('',#1152,1.);
#286=VECTOR('',#1155,1.);
#287=VECTOR('',#1156,1.);
#288=VECTOR('',#1157,1.);
#289=VECTOR('',#1160,1.);
#290=VECTOR('',#1161,1.);
#291=VECTOR('',#1166,1.);
#292=VECTOR('',#1169,1.);
#293=VECTOR('',#1170,1.);
#294=VECTOR('',#1173,1.);
#295=VECTOR('',#1176,1.);
#296=VECTOR('',#1179,1.);
#297=VECTOR('',#1184,1.);
#298=VECTOR('',#1185,1.);
#299=VECTOR('',#1188,1.);
#300=VECTOR('',#1191,1.);
#301=VECTOR('',#1194,1.);
#302=VECTOR('',#1195,1.);
#303=VECTOR('',#1200,1.);
#304=VECTOR('',#1203,1.);
#305=VECTOR('',#1204,1.);
#306=VECTOR('',#1209,1.);
#307=VECTOR('',#1212,1.);
#308=VECTOR('',#1213,1.);
#309=VECTOR('',#1218,1.);
#310=VECTOR('',#1221,1.);
#311=VECTOR('',#1222,1.);
#312=VECTOR('',#1229,1.);
#313=VECTOR('',#1234,1.);
#314=VECTOR('',#1235,1.);
#315=VECTOR('',#1238,1.);
#316=VECTOR('',#1243,1.);
#317=VECTOR('',#1244,1.);
#318=VECTOR('',#1247,1.);
#319=VECTOR('',#1252,1.);
#320=VECTOR('',#1253,1.);
#321=CIRCLE('',#914,0.01);
#322=CIRCLE('',#915,0.01);
#323=CIRCLE('',#918,0.01);
#324=CIRCLE('',#920,0.01);
#325=CIRCLE('',#923,0.00500000000000001);
#326=CIRCLE('',#924,0.0275);
#327=CIRCLE('',#925,0.00499999999999995);
#328=CIRCLE('',#926,0.024);
#329=CIRCLE('',#927,0.034);
#330=CIRCLE('',#928,0.015);
#331=CIRCLE('',#929,0.0175);
#332=CIRCLE('',#930,0.015);
#333=CIRCLE('',#933,0.0490442474207992);
#334=CIRCLE('',#934,0.0460442474207992);
#335=CIRCLE('',#936,0.0490442474207992);
#336=CIRCLE('',#941,0.0460442474207992);
#337=CIRCLE('',#960,0.0460442474207992);
#338=CIRCLE('',#962,0.0460442474207992);
#339=CIRCLE('',#980,0.034);
#340=CIRCLE('',#983,0.015);
#341=CIRCLE('',#986,0.0175);
#342=CIRCLE('',#989,0.015);
#343=CIRCLE('',#991,0.024);
#344=CIRCLE('',#994,0.00499999999999995);
#345=CIRCLE('',#997,0.0275);
#346=CIRCLE('',#1000,0.00500000000000001);
#347=VERTEX_POINT('',#1262);
#348=VERTEX_POINT('',#1263);
#349=VERTEX_POINT('',#1265);
#350=VERTEX_POINT('',#1267);
#351=VERTEX_POINT('',#1271);
#352=VERTEX_POINT('',#1273);
#353=VERTEX_POINT('',#1277);
#354=VERTEX_POINT('',#1279);
#355=VERTEX_POINT('',#1281);
#356=VERTEX_POINT('',#1285);
#357=VERTEX_POINT('',#1289);
#358=VERTEX_POINT('',#1291);
#359=VERTEX_POINT('',#1295);
#360=VERTEX_POINT('',#1297);
#361=VERTEX_POINT('',#1299);
#362=VERTEX_POINT('',#1301);
#363=VERTEX_POINT('',#1303);
#364=VERTEX_POINT('',#1305);
#365=VERTEX_POINT('',#1307);
#366=VERTEX_POINT('',#1309);
#367=VERTEX_POINT('',#1311);
#368=VERTEX_POINT('',#1313);
#369=VERTEX_POINT('',#1315);
#370=VERTEX_POINT('',#1317);
#371=VERTEX_POINT('',#1319);
#372=VERTEX_POINT('',#1321);
#373=VERTEX_POINT('',#1323);
#374=VERTEX_POINT('',#1325);
#375=VERTEX_POINT('',#1329);
#376=VERTEX_POINT('',#1330);
#377=VERTEX_POINT('',#1341);
#378=VERTEX_POINT('',#1343);
#379=VERTEX_POINT('',#1356);
#380=VERTEX_POINT('',#1358);
#381=VERTEX_POINT('',#1362);
#382=VERTEX_POINT('',#1364);
#383=VERTEX_POINT('',#1375);
#384=VERTEX_POINT('',#1377);
#385=VERTEX_POINT('',#1388);
#386=VERTEX_POINT('',#1401);
#387=VERTEX_POINT('',#1414);
#388=VERTEX_POINT('',#1418);
#389=VERTEX_POINT('',#1420);
#390=VERTEX_POINT('',#1433);
#391=VERTEX_POINT('',#1450);
#392=VERTEX_POINT('',#1451);
#393=VERTEX_POINT('',#1453);
#394=VERTEX_POINT('',#1455);
#395=VERTEX_POINT('',#1457);
#396=VERTEX_POINT('',#1464);
#397=VERTEX_POINT('',#1466);
#398=VERTEX_POINT('',#1473);
#399=VERTEX_POINT('',#1474);
#400=VERTEX_POINT('',#1476);
#401=VERTEX_POINT('',#1481);
#402=VERTEX_POINT('',#1483);
#403=VERTEX_POINT('',#1485);
#404=VERTEX_POINT('',#1492);
#405=VERTEX_POINT('',#1496);
#406=VERTEX_POINT('',#1498);
#407=VERTEX_POINT('',#1500);
#408=VERTEX_POINT('',#1502);
#409=VERTEX_POINT('',#1505);
#410=VERTEX_POINT('',#1507);
#411=VERTEX_POINT('',#1509);
#412=VERTEX_POINT('',#1516);
#413=VERTEX_POINT('',#1518);
#414=VERTEX_POINT('',#1522);
#415=VERTEX_POINT('',#1524);
#416=VERTEX_POINT('',#1526);
#417=VERTEX_POINT('',#1528);
#418=VERTEX_POINT('',#1530);
#419=VERTEX_POINT('',#1532);
#420=VERTEX_POINT('',#1534);
#421=VERTEX_POINT('',#1552);
#422=VERTEX_POINT('',#1560);
#423=VERTEX_POINT('',#1564);
#424=VERTEX_POINT('',#1568);
#425=VERTEX_POINT('',#1572);
#426=VERTEX_POINT('',#1576);
#427=VERTEX_POINT('',#1580);
#428=VERTEX_POINT('',#1584);
#429=VERTEX_POINT('',#1590);
#430=VERTEX_POINT('',#1594);
#431=VERTEX_POINT('',#1598);
#432=VERTEX_POINT('',#1602);
#433=VERTEX_POINT('',#1606);
#434=VERTEX_POINT('',#1610);
#435=EDGE_CURVE('',#347,#348,#321,.T.);
#436=EDGE_CURVE('',#348,#349,#165,.T.);
#437=EDGE_CURVE('',#349,#350,#322,.T.);
#438=EDGE_CURVE('',#350,#347,#166,.T.);
#439=EDGE_CURVE('',#351,#350,#167,.T.);
#440=EDGE_CURVE('',#352,#351,#168,.T.);
#441=EDGE_CURVE('',#347,#352,#169,.T.);
#442=EDGE_CURVE('',#349,#353,#170,.T.);
#443=EDGE_CURVE('',#353,#354,#171,.T.);
#444=EDGE_CURVE('',#354,#355,#172,.T.);
#445=EDGE_CURVE('',#351,#355,#323,.T.);
#446=EDGE_CURVE('',#356,#352,#324,.T.);
#447=EDGE_CURVE('',#355,#356,#173,.T.);
#448=EDGE_CURVE('',#357,#356,#174,.T.);
#449=EDGE_CURVE('',#357,#358,#175,.T.);
#450=EDGE_CURVE('',#348,#358,#176,.T.);
#451=EDGE_CURVE('',#359,#354,#325,.T.);
#452=EDGE_CURVE('',#360,#359,#177,.T.);
#453=EDGE_CURVE('',#361,#360,#326,.T.);
#454=EDGE_CURVE('',#362,#361,#178,.T.);
#455=EDGE_CURVE('',#363,#362,#327,.T.);
#456=EDGE_CURVE('',#364,#363,#179,.T.);
#457=EDGE_CURVE('',#365,#364,#328,.T.);
#458=EDGE_CURVE('',#366,#365,#180,.T.);
#459=EDGE_CURVE('',#367,#366,#181,.T.);
#460=EDGE_CURVE('',#367,#368,#182,.T.);
#461=EDGE_CURVE('',#368,#369,#329,.T.);
#462=EDGE_CURVE('',#369,#370,#183,.T.);
#463=EDGE_CURVE('',#370,#371,#330,.T.);
#464=EDGE_CURVE('',#371,#372,#184,.T.);
#465=EDGE_CURVE('',#372,#373,#331,.T.);
#466=EDGE_CURVE('',#373,#374,#185,.T.);
#467=EDGE_CURVE('',#374,#357,#332,.T.);
#468=EDGE_CURVE('',#375,#376,#32,.T.);
#469=EDGE_CURVE('',#376,#377,#186,.T.);
#470=EDGE_CURVE('',#377,#378,#33,.F.);
#471=EDGE_CURVE('',#378,#375,#187,.T.);
#472=EDGE_CURVE('',#376,#379,#333,.T.);
#473=EDGE_CURVE('',#380,#379,#188,.T.);
#474=EDGE_CURVE('',#377,#380,#334,.T.);
#475=EDGE_CURVE('',#375,#381,#189,.T.);
#476=EDGE_CURVE('',#382,#381,#34,.T.);
#477=EDGE_CURVE('',#383,#382,#335,.T.);
#478=EDGE_CURVE('',#384,#383,#35,.T.);
#479=EDGE_CURVE('',#384,#385,#190,.T.);
#480=EDGE_CURVE('',#379,#385,#36,.T.);
#481=EDGE_CURVE('',#385,#386,#191,.T.);
#482=EDGE_CURVE('',#386,#380,#37,.F.);
#483=EDGE_CURVE('',#387,#384,#192,.T.);
#484=EDGE_CURVE('',#386,#387,#193,.T.);
#485=EDGE_CURVE('',#381,#388,#194,.T.);
#486=EDGE_CURVE('',#388,#389,#38,.F.);
#487=EDGE_CURVE('',#389,#382,#195,.T.);
#488=EDGE_CURVE('',#390,#389,#336,.T.);
#489=EDGE_CURVE('',#383,#390,#196,.T.);
#490=EDGE_CURVE('',#390,#387,#39,.F.);
#491=EDGE_CURVE('',#388,#378,#197,.T.);
#492=EDGE_CURVE('',#391,#392,#16,.T.);
#493=EDGE_CURVE('',#393,#391,#17,.T.);
#494=EDGE_CURVE('',#394,#393,#18,.T.);
#495=EDGE_CURVE('',#395,#394,#40,.T.);
#496=EDGE_CURVE('',#396,#395,#19,.T.);
#497=EDGE_CURVE('',#397,#396,#198,.T.);
#498=EDGE_CURVE('',#392,#397,#41,.T.);
#499=EDGE_CURVE('',#398,#399,#20,.T.);
#500=EDGE_CURVE('',#400,#398,#42,.T.);
#501=EDGE_CURVE('',#401,#400,#199,.T.);
#502=EDGE_CURVE('',#402,#401,#21,.T.);
#503=EDGE_CURVE('',#403,#402,#43,.T.);
#504=EDGE_CURVE('',#404,#403,#22,.T.);
#505=EDGE_CURVE('',#399,#404,#23,.T.);
#506=EDGE_CURVE('',#401,#405,#200,.T.);
#507=EDGE_CURVE('',#405,#406,#24,.T.);
#508=EDGE_CURVE('',#406,#407,#201,.T.);
#509=EDGE_CURVE('',#407,#408,#25,.T.);
#510=EDGE_CURVE('',#408,#367,#202,.T.);
#511=EDGE_CURVE('',#366,#409,#203,.T.);
#512=EDGE_CURVE('',#409,#410,#26,.T.);
#513=EDGE_CURVE('',#410,#411,#204,.T.);
#514=EDGE_CURVE('',#411,#402,#27,.T.);
#515=EDGE_CURVE('',#400,#405,#337,.T.);
#516=EDGE_CURVE('',#398,#392,#205,.T.);
#517=EDGE_CURVE('',#412,#397,#338,.T.);
#518=EDGE_CURVE('',#413,#412,#28,.T.);
#519=EDGE_CURVE('',#406,#413,#206,.T.);
#520=EDGE_CURVE('',#395,#414,#29,.T.);
#521=EDGE_CURVE('',#414,#415,#207,.T.);
#522=EDGE_CURVE('',#415,#416,#30,.T.);
#523=EDGE_CURVE('',#416,#417,#208,.T.);
#524=EDGE_CURVE('',#417,#418,#209,.T.);
#525=EDGE_CURVE('',#418,#419,#210,.T.);
#526=EDGE_CURVE('',#419,#420,#31,.T.);
#527=EDGE_CURVE('',#420,#413,#211,.T.);
#528=EDGE_CURVE('',#396,#412,#212,.T.);
#529=EDGE_CURVE('',#399,#391,#213,.T.);
#530=EDGE_CURVE('',#415,#410,#214,.T.);
#531=EDGE_CURVE('',#416,#409,#215,.T.);
#532=EDGE_CURVE('',#393,#404,#216,.T.);
#533=EDGE_CURVE('',#414,#411,#217,.T.);
#534=EDGE_CURVE('',#394,#403,#218,.T.);
#535=EDGE_CURVE('',#421,#365,#219,.T.);
#536=EDGE_CURVE('',#421,#417,#220,.T.);
#537=EDGE_CURVE('',#407,#420,#221,.T.);
#538=EDGE_CURVE('',#408,#419,#222,.T.);
#539=EDGE_CURVE('',#422,#418,#223,.T.);
#540=EDGE_CURVE('',#368,#422,#224,.T.);
#541=EDGE_CURVE('',#423,#422,#339,.T.);
#542=EDGE_CURVE('',#369,#423,#225,.T.);
#543=EDGE_CURVE('',#424,#423,#226,.T.);
#544=EDGE_CURVE('',#370,#424,#227,.T.);
#545=EDGE_CURVE('',#425,#424,#340,.T.);
#546=EDGE_CURVE('',#371,#425,#228,.T.);
#547=EDGE_CURVE('',#426,#425,#229,.T.);
#548=EDGE_CURVE('',#372,#426,#230,.T.);
#549=EDGE_CURVE('',#427,#426,#341,.T.);
#550=EDGE_CURVE('',#373,#427,#231,.T.);
#551=EDGE_CURVE('',#428,#427,#232,.T.);
#552=EDGE_CURVE('',#374,#428,#233,.T.);
#553=EDGE_CURVE('',#358,#428,#342,.T.);
#554=EDGE_CURVE('',#429,#364,#234,.T.);
#555=EDGE_CURVE('',#429,#421,#343,.T.);
#556=EDGE_CURVE('',#430,#363,#235,.T.);
#557=EDGE_CURVE('',#430,#429,#236,.T.);
#558=EDGE_CURVE('',#431,#362,#237,.T.);
#559=EDGE_CURVE('',#431,#430,#344,.T.);
#560=EDGE_CURVE('',#432,#361,#238,.T.);
#561=EDGE_CURVE('',#432,#431,#239,.T.);
#562=EDGE_CURVE('',#433,#360,#240,.T.);
#563=EDGE_CURVE('',#433,#432,#345,.T.);
#564=EDGE_CURVE('',#434,#359,#241,.T.);
#565=EDGE_CURVE('',#434,#433,#242,.T.);
#566=EDGE_CURVE('',#353,#434,#346,.T.);
#567=ORIENTED_EDGE('',*,*,#435,.T.);
#568=ORIENTED_EDGE('',*,*,#436,.T.);
#569=ORIENTED_EDGE('',*,*,#437,.T.);
#570=ORIENTED_EDGE('',*,*,#438,.T.);
#571=ORIENTED_EDGE('',*,*,#438,.F.);
#572=ORIENTED_EDGE('',*,*,#439,.F.);
#573=ORIENTED_EDGE('',*,*,#440,.F.);
#574=ORIENTED_EDGE('',*,*,#441,.F.);
#575=ORIENTED_EDGE('',*,*,#437,.F.);
#576=ORIENTED_EDGE('',*,*,#442,.T.);
#577=ORIENTED_EDGE('',*,*,#443,.T.);
#578=ORIENTED_EDGE('',*,*,#444,.T.);
#579=ORIENTED_EDGE('',*,*,#445,.F.);
#580=ORIENTED_EDGE('',*,*,#439,.T.);
#581=ORIENTED_EDGE('',*,*,#446,.T.);
#582=ORIENTED_EDGE('',*,*,#440,.T.);
#583=ORIENTED_EDGE('',*,*,#445,.T.);
#584=ORIENTED_EDGE('',*,*,#447,.T.);
#585=ORIENTED_EDGE('',*,*,#435,.F.);
#586=ORIENTED_EDGE('',*,*,#441,.T.);
#587=ORIENTED_EDGE('',*,*,#446,.F.);
#588=ORIENTED_EDGE('',*,*,#448,.F.);
#589=ORIENTED_EDGE('',*,*,#449,.T.);
#590=ORIENTED_EDGE('',*,*,#450,.F.);
#591=ORIENTED_EDGE('',*,*,#447,.F.);
#592=ORIENTED_EDGE('',*,*,#444,.F.);
#593=ORIENTED_EDGE('',*,*,#451,.F.);
#594=ORIENTED_EDGE('',*,*,#452,.F.);
#595=ORIENTED_EDGE('',*,*,#453,.F.);
#596=ORIENTED_EDGE('',*,*,#454,.F.);
#597=ORIENTED_EDGE('',*,*,#455,.F.);
#598=ORIENTED_EDGE('',*,*,#456,.F.);
#599=ORIENTED_EDGE('',*,*,#457,.F.);
#600=ORIENTED_EDGE('',*,*,#458,.F.);
#601=ORIENTED_EDGE('',*,*,#459,.F.);
#602=ORIENTED_EDGE('',*,*,#460,.T.);
#603=ORIENTED_EDGE('',*,*,#461,.T.);
#604=ORIENTED_EDGE('',*,*,#462,.T.);
#605=ORIENTED_EDGE('',*,*,#463,.T.);
#606=ORIENTED_EDGE('',*,*,#464,.T.);
#607=ORIENTED_EDGE('',*,*,#465,.T.);
#608=ORIENTED_EDGE('',*,*,#466,.T.);
#609=ORIENTED_EDGE('',*,*,#467,.T.);
#610=ORIENTED_EDGE('',*,*,#448,.T.);
#611=ORIENTED_EDGE('',*,*,#468,.T.);
#612=ORIENTED_EDGE('',*,*,#469,.T.);
#613=ORIENTED_EDGE('',*,*,#470,.T.);
#614=ORIENTED_EDGE('',*,*,#471,.T.);
#615=ORIENTED_EDGE('',*,*,#469,.F.);
#616=ORIENTED_EDGE('',*,*,#472,.T.);
#617=ORIENTED_EDGE('',*,*,#473,.F.);
#618=ORIENTED_EDGE('',*,*,#474,.F.);
#619=ORIENTED_EDGE('',*,*,#468,.F.);
#620=ORIENTED_EDGE('',*,*,#475,.T.);
#621=ORIENTED_EDGE('',*,*,#476,.F.);
#622=ORIENTED_EDGE('',*,*,#477,.F.);
#623=ORIENTED_EDGE('',*,*,#478,.F.);
#624=ORIENTED_EDGE('',*,*,#479,.T.);
#625=ORIENTED_EDGE('',*,*,#480,.F.);
#626=ORIENTED_EDGE('',*,*,#472,.F.);
#627=ORIENTED_EDGE('',*,*,#480,.T.);
#628=ORIENTED_EDGE('',*,*,#481,.T.);
#629=ORIENTED_EDGE('',*,*,#482,.T.);
#630=ORIENTED_EDGE('',*,*,#473,.T.);
#631=ORIENTED_EDGE('',*,*,#481,.F.);
#632=ORIENTED_EDGE('',*,*,#479,.F.);
#633=ORIENTED_EDGE('',*,*,#483,.F.);
#634=ORIENTED_EDGE('',*,*,#484,.F.);
#635=ORIENTED_EDGE('',*,*,#476,.T.);
#636=ORIENTED_EDGE('',*,*,#485,.T.);
#637=ORIENTED_EDGE('',*,*,#486,.T.);
#638=ORIENTED_EDGE('',*,*,#487,.T.);
#639=ORIENTED_EDGE('',*,*,#487,.F.);
#640=ORIENTED_EDGE('',*,*,#488,.F.);
#641=ORIENTED_EDGE('',*,*,#489,.F.);
#642=ORIENTED_EDGE('',*,*,#477,.T.);
#643=ORIENTED_EDGE('',*,*,#478,.T.);
#644=ORIENTED_EDGE('',*,*,#489,.T.);
#645=ORIENTED_EDGE('',*,*,#490,.T.);
#646=ORIENTED_EDGE('',*,*,#483,.T.);
#647=ORIENTED_EDGE('',*,*,#471,.F.);
#648=ORIENTED_EDGE('',*,*,#491,.F.);
#649=ORIENTED_EDGE('',*,*,#485,.F.);
#650=ORIENTED_EDGE('',*,*,#475,.F.);
#651=ORIENTED_EDGE('',*,*,#492,.F.);
#652=ORIENTED_EDGE('',*,*,#493,.F.);
#653=ORIENTED_EDGE('',*,*,#494,.F.);
#654=ORIENTED_EDGE('',*,*,#495,.F.);
#655=ORIENTED_EDGE('',*,*,#496,.F.);
#656=ORIENTED_EDGE('',*,*,#497,.F.);
#657=ORIENTED_EDGE('',*,*,#498,.F.);
#658=ORIENTED_EDGE('',*,*,#499,.F.);
#659=ORIENTED_EDGE('',*,*,#500,.F.);
#660=ORIENTED_EDGE('',*,*,#501,.F.);
#661=ORIENTED_EDGE('',*,*,#502,.F.);
#662=ORIENTED_EDGE('',*,*,#503,.F.);
#663=ORIENTED_EDGE('',*,*,#504,.F.);
#664=ORIENTED_EDGE('',*,*,#505,.F.);
#665=ORIENTED_EDGE('',*,*,#502,.T.);
#666=ORIENTED_EDGE('',*,*,#506,.T.);
#667=ORIENTED_EDGE('',*,*,#507,.T.);
#668=ORIENTED_EDGE('',*,*,#508,.T.);
#669=ORIENTED_EDGE('',*,*,#509,.T.);
#670=ORIENTED_EDGE('',*,*,#510,.T.);
#671=ORIENTED_EDGE('',*,*,#459,.T.);
#672=ORIENTED_EDGE('',*,*,#511,.T.);
#673=ORIENTED_EDGE('',*,*,#512,.T.);
#674=ORIENTED_EDGE('',*,*,#513,.T.);
#675=ORIENTED_EDGE('',*,*,#514,.T.);
#676=ORIENTED_EDGE('',*,*,#501,.T.);
#677=ORIENTED_EDGE('',*,*,#515,.T.);
#678=ORIENTED_EDGE('',*,*,#506,.F.);
#679=ORIENTED_EDGE('',*,*,#500,.T.);
#680=ORIENTED_EDGE('',*,*,#516,.T.);
#681=ORIENTED_EDGE('',*,*,#498,.T.);
#682=ORIENTED_EDGE('',*,*,#517,.F.);
#683=ORIENTED_EDGE('',*,*,#518,.F.);
#684=ORIENTED_EDGE('',*,*,#519,.F.);
#685=ORIENTED_EDGE('',*,*,#507,.F.);
#686=ORIENTED_EDGE('',*,*,#515,.F.);
#687=ORIENTED_EDGE('',*,*,#488,.T.);
#688=ORIENTED_EDGE('',*,*,#486,.F.);
#689=ORIENTED_EDGE('',*,*,#491,.T.);
#690=ORIENTED_EDGE('',*,*,#470,.F.);
#691=ORIENTED_EDGE('',*,*,#474,.T.);
#692=ORIENTED_EDGE('',*,*,#482,.F.);
#693=ORIENTED_EDGE('',*,*,#484,.T.);
#694=ORIENTED_EDGE('',*,*,#490,.F.);
#695=ORIENTED_EDGE('',*,*,#496,.T.);
#696=ORIENTED_EDGE('',*,*,#520,.T.);
#697=ORIENTED_EDGE('',*,*,#521,.T.);
#698=ORIENTED_EDGE('',*,*,#522,.T.);
#699=ORIENTED_EDGE('',*,*,#523,.T.);
#700=ORIENTED_EDGE('',*,*,#524,.T.);
#701=ORIENTED_EDGE('',*,*,#525,.T.);
#702=ORIENTED_EDGE('',*,*,#526,.T.);
#703=ORIENTED_EDGE('',*,*,#527,.T.);
#704=ORIENTED_EDGE('',*,*,#518,.T.);
#705=ORIENTED_EDGE('',*,*,#528,.F.);
#706=ORIENTED_EDGE('',*,*,#497,.T.);
#707=ORIENTED_EDGE('',*,*,#528,.T.);
#708=ORIENTED_EDGE('',*,*,#517,.T.);
#709=ORIENTED_EDGE('',*,*,#499,.T.);
#710=ORIENTED_EDGE('',*,*,#529,.T.);
#711=ORIENTED_EDGE('',*,*,#492,.T.);
#712=ORIENTED_EDGE('',*,*,#516,.F.);
#713=ORIENTED_EDGE('',*,*,#522,.F.);
#714=ORIENTED_EDGE('',*,*,#530,.T.);
#715=ORIENTED_EDGE('',*,*,#512,.F.);
#716=ORIENTED_EDGE('',*,*,#531,.F.);
#717=ORIENTED_EDGE('',*,*,#505,.T.);
#718=ORIENTED_EDGE('',*,*,#532,.F.);
#719=ORIENTED_EDGE('',*,*,#493,.T.);
#720=ORIENTED_EDGE('',*,*,#529,.F.);
#721=ORIENTED_EDGE('',*,*,#521,.F.);
#722=ORIENTED_EDGE('',*,*,#533,.T.);
#723=ORIENTED_EDGE('',*,*,#513,.F.);
#724=ORIENTED_EDGE('',*,*,#530,.F.);
#725=ORIENTED_EDGE('',*,*,#503,.T.);
#726=ORIENTED_EDGE('',*,*,#514,.F.);
#727=ORIENTED_EDGE('',*,*,#533,.F.);
#728=ORIENTED_EDGE('',*,*,#520,.F.);
#729=ORIENTED_EDGE('',*,*,#495,.T.);
#730=ORIENTED_EDGE('',*,*,#534,.T.);
#731=ORIENTED_EDGE('',*,*,#504,.T.);
#732=ORIENTED_EDGE('',*,*,#534,.F.);
#733=ORIENTED_EDGE('',*,*,#494,.T.);
#734=ORIENTED_EDGE('',*,*,#532,.T.);
#735=ORIENTED_EDGE('',*,*,#523,.F.);
#736=ORIENTED_EDGE('',*,*,#531,.T.);
#737=ORIENTED_EDGE('',*,*,#511,.F.);
#738=ORIENTED_EDGE('',*,*,#458,.T.);
#739=ORIENTED_EDGE('',*,*,#535,.F.);
#740=ORIENTED_EDGE('',*,*,#536,.T.);
#741=ORIENTED_EDGE('',*,*,#527,.F.);
#742=ORIENTED_EDGE('',*,*,#537,.F.);
#743=ORIENTED_EDGE('',*,*,#508,.F.);
#744=ORIENTED_EDGE('',*,*,#519,.T.);
#745=ORIENTED_EDGE('',*,*,#526,.F.);
#746=ORIENTED_EDGE('',*,*,#538,.F.);
#747=ORIENTED_EDGE('',*,*,#509,.F.);
#748=ORIENTED_EDGE('',*,*,#537,.T.);
#749=ORIENTED_EDGE('',*,*,#525,.F.);
#750=ORIENTED_EDGE('',*,*,#539,.F.);
#751=ORIENTED_EDGE('',*,*,#540,.F.);
#752=ORIENTED_EDGE('',*,*,#460,.F.);
#753=ORIENTED_EDGE('',*,*,#510,.F.);
#754=ORIENTED_EDGE('',*,*,#538,.T.);
#755=ORIENTED_EDGE('',*,*,#540,.T.);
#756=ORIENTED_EDGE('',*,*,#541,.F.);
#757=ORIENTED_EDGE('',*,*,#542,.F.);
#758=ORIENTED_EDGE('',*,*,#461,.F.);
#759=ORIENTED_EDGE('',*,*,#542,.T.);
#760=ORIENTED_EDGE('',*,*,#543,.F.);
#761=ORIENTED_EDGE('',*,*,#544,.F.);
#762=ORIENTED_EDGE('',*,*,#462,.F.);
#763=ORIENTED_EDGE('',*,*,#544,.T.);
#764=ORIENTED_EDGE('',*,*,#545,.F.);
#765=ORIENTED_EDGE('',*,*,#546,.F.);
#766=ORIENTED_EDGE('',*,*,#463,.F.);
#767=ORIENTED_EDGE('',*,*,#546,.T.);
#768=ORIENTED_EDGE('',*,*,#547,.F.);
#769=ORIENTED_EDGE('',*,*,#548,.F.);
#770=ORIENTED_EDGE('',*,*,#464,.F.);
#771=ORIENTED_EDGE('',*,*,#548,.T.);
#772=ORIENTED_EDGE('',*,*,#549,.F.);
#773=ORIENTED_EDGE('',*,*,#550,.F.);
#774=ORIENTED_EDGE('',*,*,#465,.F.);
#775=ORIENTED_EDGE('',*,*,#550,.T.);
#776=ORIENTED_EDGE('',*,*,#551,.F.);
#777=ORIENTED_EDGE('',*,*,#552,.F.);
#778=ORIENTED_EDGE('',*,*,#466,.F.);
#779=ORIENTED_EDGE('',*,*,#552,.T.);
#780=ORIENTED_EDGE('',*,*,#553,.F.);
#781=ORIENTED_EDGE('',*,*,#449,.F.);
#782=ORIENTED_EDGE('',*,*,#467,.F.);
#783=ORIENTED_EDGE('',*,*,#554,.F.);
#784=ORIENTED_EDGE('',*,*,#555,.T.);
#785=ORIENTED_EDGE('',*,*,#535,.T.);
#786=ORIENTED_EDGE('',*,*,#457,.T.);
#787=ORIENTED_EDGE('',*,*,#556,.F.);
#788=ORIENTED_EDGE('',*,*,#557,.T.);
#789=ORIENTED_EDGE('',*,*,#554,.T.);
#790=ORIENTED_EDGE('',*,*,#456,.T.);
#791=ORIENTED_EDGE('',*,*,#558,.F.);
#792=ORIENTED_EDGE('',*,*,#559,.T.);
#793=ORIENTED_EDGE('',*,*,#556,.T.);
#794=ORIENTED_EDGE('',*,*,#455,.T.);
#795=ORIENTED_EDGE('',*,*,#560,.F.);
#796=ORIENTED_EDGE('',*,*,#561,.T.);
#797=ORIENTED_EDGE('',*,*,#558,.T.);
#798=ORIENTED_EDGE('',*,*,#454,.T.);
#799=ORIENTED_EDGE('',*,*,#562,.F.);
#800=ORIENTED_EDGE('',*,*,#563,.T.);
#801=ORIENTED_EDGE('',*,*,#560,.T.);
#802=ORIENTED_EDGE('',*,*,#453,.T.);
#803=ORIENTED_EDGE('',*,*,#564,.F.);
#804=ORIENTED_EDGE('',*,*,#565,.T.);
#805=ORIENTED_EDGE('',*,*,#562,.T.);
#806=ORIENTED_EDGE('',*,*,#452,.T.);
#807=ORIENTED_EDGE('',*,*,#443,.F.);
#808=ORIENTED_EDGE('',*,*,#566,.T.);
#809=ORIENTED_EDGE('',*,*,#564,.T.);
#810=ORIENTED_EDGE('',*,*,#451,.T.);
#811=ORIENTED_EDGE('',*,*,#436,.F.);
#812=ORIENTED_EDGE('',*,*,#450,.T.);
#813=ORIENTED_EDGE('',*,*,#553,.T.);
#814=ORIENTED_EDGE('',*,*,#551,.T.);
#815=ORIENTED_EDGE('',*,*,#549,.T.);
#816=ORIENTED_EDGE('',*,*,#547,.T.);
#817=ORIENTED_EDGE('',*,*,#545,.T.);
#818=ORIENTED_EDGE('',*,*,#543,.T.);
#819=ORIENTED_EDGE('',*,*,#541,.T.);
#820=ORIENTED_EDGE('',*,*,#539,.T.);
#821=ORIENTED_EDGE('',*,*,#524,.F.);
#822=ORIENTED_EDGE('',*,*,#536,.F.);
#823=ORIENTED_EDGE('',*,*,#555,.F.);
#824=ORIENTED_EDGE('',*,*,#557,.F.);
#825=ORIENTED_EDGE('',*,*,#559,.F.);
#826=ORIENTED_EDGE('',*,*,#561,.F.);
#827=ORIENTED_EDGE('',*,*,#563,.F.);
#828=ORIENTED_EDGE('',*,*,#565,.F.);
#829=ORIENTED_EDGE('',*,*,#566,.F.);
#830=ORIENTED_EDGE('',*,*,#442,.F.);
#831=CYLINDRICAL_SURFACE('',#913,0.01);
#832=CYLINDRICAL_SURFACE('',#919,0.01);
#833=CYLINDRICAL_SURFACE('',#931,0.008);
#834=CYLINDRICAL_SURFACE('',#935,0.0490442474207992);
#835=CYLINDRICAL_SURFACE('',#937,0.008);
#836=CYLINDRICAL_SURFACE('',#939,0.008);
#837=CYLINDRICAL_SURFACE('',#942,0.008);
#838=CYLINDRICAL_SURFACE('',#944,0.0458);
#839=CYLINDRICAL_SURFACE('',#949,0.0458);
#840=CYLINDRICAL_SURFACE('',#961,0.0460442474207992);
#841=CYLINDRICAL_SURFACE('',#970,0.023);
#842=CYLINDRICAL_SURFACE('',#973,0.0360442474207992);
#843=CYLINDRICAL_SURFACE('',#977,0.013);
#844=CYLINDRICAL_SURFACE('',#979,0.034);
#845=CYLINDRICAL_SURFACE('',#982,0.015);
#846=CYLINDRICAL_SURFACE('',#985,0.0175);
#847=CYLINDRICAL_SURFACE('',#988,0.015);
#848=CYLINDRICAL_SURFACE('',#990,0.024);
#849=CYLINDRICAL_SURFACE('',#993,0.00499999999999995);
#850=CYLINDRICAL_SURFACE('',#996,0.0275);
#851=CYLINDRICAL_SURFACE('',#999,0.00500000000000001);
#852=ADVANCED_FACE('',(#70),#831,.T.);
#853=ADVANCED_FACE('',(#71),#44,.F.);
#854=ADVANCED_FACE('',(#72),#45,.F.);
#855=ADVANCED_FACE('',(#73),#832,.T.);
#856=ADVANCED_FACE('',(#74),#46,.T.);
#857=ADVANCED_FACE('',(#75),#47,.F.);
#858=ADVANCED_FACE('',(#76),#833,.T.);
#859=ADVANCED_FACE('',(#77),#48,.F.);
#860=ADVANCED_FACE('',(#78),#834,.T.);
#861=ADVANCED_FACE('',(#79),#835,.T.);
#862=ADVANCED_FACE('',(#80),#49,.F.);
#863=ADVANCED_FACE('',(#81),#836,.T.);
#864=ADVANCED_FACE('',(#82),#50,.F.);
#865=ADVANCED_FACE('',(#83),#837,.T.);
#866=ADVANCED_FACE('',(#84),#51,.F.);
#867=ADVANCED_FACE('',(#85),#838,.T.);
#868=ADVANCED_FACE('',(#86),#839,.T.);
#869=ADVANCED_FACE('',(#87),#52,.T.);
#870=ADVANCED_FACE('',(#88),#53,.T.);
#871=ADVANCED_FACE('',(#89,#15),#840,.T.);
#872=ADVANCED_FACE('',(#90),#54,.T.);
#873=ADVANCED_FACE('',(#91),#55,.T.);
#874=ADVANCED_FACE('',(#92),#56,.T.);
#875=ADVANCED_FACE('',(#93),#841,.T.);
#876=ADVANCED_FACE('',(#94),#57,.F.);
#877=ADVANCED_FACE('',(#95),#58,.F.);
#878=ADVANCED_FACE('',(#96),#842,.F.);
#879=ADVANCED_FACE('',(#97),#59,.F.);
#880=ADVANCED_FACE('',(#98),#60,.F.);
#881=ADVANCED_FACE('',(#99),#61,.T.);
#882=ADVANCED_FACE('',(#100),#843,.F.);
#883=ADVANCED_FACE('',(#101),#62,.T.);
#884=ADVANCED_FACE('',(#102),#844,.T.);
#885=ADVANCED_FACE('',(#103),#63,.T.);
#886=ADVANCED_FACE('',(#104),#845,.T.);
#887=ADVANCED_FACE('',(#105),#64,.T.);
#888=ADVANCED_FACE('',(#106),#846,.F.);
#889=ADVANCED_FACE('',(#107),#65,.T.);
#890=ADVANCED_FACE('',(#108),#847,.T.);
#891=ADVANCED_FACE('',(#109),#848,.F.);
#892=ADVANCED_FACE('',(#110),#66,.F.);
#893=ADVANCED_FACE('',(#111),#849,.F.);
#894=ADVANCED_FACE('',(#112),#67,.F.);
#895=ADVANCED_FACE('',(#113),#850,.T.);
#896=ADVANCED_FACE('',(#114),#68,.F.);
#897=ADVANCED_FACE('',(#115),#851,.F.);
#898=ADVANCED_FACE('',(#116),#69,.F.);
#899=CLOSED_SHELL('',(#852,#853,#854,#855,#856,#857,#858,#859,#860,#861,
#862,#863,#864,#865,#866,#867,#868,#869,#870,#871,#872,#873,#874,#875,#876,
#877,#878,#879,#880,#881,#882,#883,#884,#885,#886,#887,#888,#889,#890,#891,
#892,#893,#894,#895,#896,#897,#898));
#900=DERIVED_UNIT_ELEMENT(#902,1.);
#901=DERIVED_UNIT_ELEMENT(#1621,-3.);
#902=(
MASS_UNIT()
NAMED_UNIT(*)
SI_UNIT(.KILO.,.GRAM.)
);
#903=DERIVED_UNIT((#900,#901));
#904=MEASURE_REPRESENTATION_ITEM('density measure',
POSITIVE_RATIO_MEASURE(7850.),#903);
#905=PROPERTY_DEFINITION_REPRESENTATION(#910,#907);
#906=PROPERTY_DEFINITION_REPRESENTATION(#911,#908);
#907=REPRESENTATION('material name',(#909),#1618);
#908=REPRESENTATION('density',(#904),#1618);
#909=DESCRIPTIVE_REPRESENTATION_ITEM('Stahl','Stahl');
#910=PROPERTY_DEFINITION('material property','material name',#1628);
#911=PROPERTY_DEFINITION('material property','density of part',#1628);
#912=AXIS2_PLACEMENT_3D('',#1260,#1002,#1003);
#913=AXIS2_PLACEMENT_3D('',#1261,#1004,#1005);
#914=AXIS2_PLACEMENT_3D('',#1264,#1006,#1007);
#915=AXIS2_PLACEMENT_3D('',#1268,#1009,#1010);
#916=AXIS2_PLACEMENT_3D('',#1270,#1012,#1013);
#917=AXIS2_PLACEMENT_3D('',#1276,#1017,#1018);
#918=AXIS2_PLACEMENT_3D('',#1283,#1022,#1023);
#919=AXIS2_PLACEMENT_3D('',#1284,#1024,#1025);
#920=AXIS2_PLACEMENT_3D('',#1286,#1026,#1027);
#921=AXIS2_PLACEMENT_3D('',#1288,#1029,#1030);
#922=AXIS2_PLACEMENT_3D('',#1294,#1034,#1035);
#923=AXIS2_PLACEMENT_3D('',#1296,#1036,#1037);
#924=AXIS2_PLACEMENT_3D('',#1300,#1039,#1040);
#925=AXIS2_PLACEMENT_3D('',#1304,#1042,#1043);
#926=AXIS2_PLACEMENT_3D('',#1308,#1045,#1046);
#927=AXIS2_PLACEMENT_3D('',#1316,#1050,#1051);
#928=AXIS2_PLACEMENT_3D('',#1320,#1053,#1054);
#929=AXIS2_PLACEMENT_3D('',#1324,#1056,#1057);
#930=AXIS2_PLACEMENT_3D('',#1327,#1059,#1060);
#931=AXIS2_PLACEMENT_3D('',#1328,#1061,#1062);
#932=AXIS2_PLACEMENT_3D('',#1355,#1065,#1066);
#933=AXIS2_PLACEMENT_3D('',#1357,#1067,#1068);
#934=AXIS2_PLACEMENT_3D('',#1360,#1070,#1071);
#935=AXIS2_PLACEMENT_3D('',#1361,#1072,#1073);
#936=AXIS2_PLACEMENT_3D('',#1376,#1075,#1076);
#937=AXIS2_PLACEMENT_3D('',#1400,#1078,#1079);
#938=AXIS2_PLACEMENT_3D('',#1413,#1081,#1082);
#939=AXIS2_PLACEMENT_3D('',#1417,#1085,#1086);
#940=AXIS2_PLACEMENT_3D('',#1432,#1089,#1090);
#941=AXIS2_PLACEMENT_3D('',#1434,#1091,#1092);
#942=AXIS2_PLACEMENT_3D('',#1436,#1094,#1095);
#943=AXIS2_PLACEMENT_3D('',#1447,#1096,#1097);
#944=AXIS2_PLACEMENT_3D('',#1449,#1099,#1100);
#945=AXIS2_PLACEMENT_3D('',#1452,#1101,#1102);
#946=AXIS2_PLACEMENT_3D('',#1454,#1103,#1104);
#947=AXIS2_PLACEMENT_3D('',#1456,#1105,#1106);
#948=AXIS2_PLACEMENT_3D('',#1465,#1107,#1108);
#949=AXIS2_PLACEMENT_3D('',#1472,#1110,#1111);
#950=AXIS2_PLACEMENT_3D('',#1475,#1112,#1113);
#951=AXIS2_PLACEMENT_3D('',#1484,#1115,#1116);
#952=AXIS2_PLACEMENT_3D('',#1493,#1117,#1118);
#953=AXIS2_PLACEMENT_3D('',#1494,#1119,#1120);
#954=AXIS2_PLACEMENT_3D('',#1495,#1121,#1122);
#955=AXIS2_PLACEMENT_3D('',#1499,#1124,#1125);
#956=AXIS2_PLACEMENT_3D('',#1503,#1127,#1128);
#957=AXIS2_PLACEMENT_3D('',#1508,#1131,#1132);
#958=AXIS2_PLACEMENT_3D('',#1511,#1134,#1135);
#959=AXIS2_PLACEMENT_3D('',#1512,#1136,#1137);
#960=AXIS2_PLACEMENT_3D('',#1513,#1138,#1139);
#961=AXIS2_PLACEMENT_3D('',#1514,#1140,#1141);
#962=AXIS2_PLACEMENT_3D('',#1517,#1143,#1144);
#963=AXIS2_PLACEMENT_3D('',#1519,#1145,#1146);
#964=AXIS2_PLACEMENT_3D('',#1521,#1148,#1149);
#965=AXIS2_PLACEMENT_3D('',#1523,#1150,#1151);
#966=AXIS2_PLACEMENT_3D('',#1527,#1153,#1154);
#967=AXIS2_PLACEMENT_3D('',#1535,#1158,#1159);
#968=AXIS2_PLACEMENT_3D('',#1538,#1162,#1163);
#969=AXIS2_PLACEMENT_3D('',#1539,#1164,#1165);
#970=AXIS2_PLACEMENT_3D('',#1541,#1167,#1168);
#971=AXIS2_PLACEMENT_3D('',#1544,#1171,#1172);
#972=AXIS2_PLACEMENT_3D('',#1546,#1174,#1175);
#973=AXIS2_PLACEMENT_3D('',#1548,#1177,#1178);
#974=AXIS2_PLACEMENT_3D('',#1550,#1180,#1181);
#975=AXIS2_PLACEMENT_3D('',#1551,#1182,#1183);
#976=AXIS2_PLACEMENT_3D('',#1555,#1186,#1187);
#977=AXIS2_PLACEMENT_3D('',#1557,#1189,#1190);
#978=AXIS2_PLACEMENT_3D('',#1559,#1192,#1193);
#979=AXIS2_PLACEMENT_3D('',#1563,#1196,#1197);
#980=AXIS2_PLACEMENT_3D('',#1565,#1198,#1199);
#981=AXIS2_PLACEMENT_3D('',#1567,#1201,#1202);
#982=AXIS2_PLACEMENT_3D('',#1571,#1205,#1206);
#983=AXIS2_PLACEMENT_3D('',#1573,#1207,#1208);
#984=AXIS2_PLACEMENT_3D('',#1575,#1210,#1211);
#985=AXIS2_PLACEMENT_3D('',#1579,#1214,#1215);
#986=AXIS2_PLACEMENT_3D('',#1581,#1216,#1217);
#987=AXIS2_PLACEMENT_3D('',#1583,#1219,#1220);
#988=AXIS2_PLACEMENT_3D('',#1587,#1223,#1224);
#989=AXIS2_PLACEMENT_3D('',#1588,#1225,#1226);
#990=AXIS2_PLACEMENT_3D('',#1589,#1227,#1228);
#991=AXIS2_PLACEMENT_3D('',#1592,#1230,#1231);
#992=AXIS2_PLACEMENT_3D('',#1593,#1232,#1233);
#993=AXIS2_PLACEMENT_3D('',#1597,#1236,#1237);
#994=AXIS2_PLACEMENT_3D('',#1600,#1239,#1240);
#995=AXIS2_PLACEMENT_3D('',#1601,#1241,#1242);
#996=AXIS2_PLACEMENT_3D('',#1605,#1245,#1246);
#997=AXIS2_PLACEMENT_3D('',#1608,#1248,#1249);
#998=AXIS2_PLACEMENT_3D('',#1609,#1250,#1251);
#999=AXIS2_PLACEMENT_3D('',#1613,#1254,#1255);
#1000=AXIS2_PLACEMENT_3D('',#1614,#1256,#1257);
#1001=AXIS2_PLACEMENT_3D('',#1615,#1258,#1259);
#1002=DIRECTION('axis',(0.,0.,1.));
#1003=DIRECTION('refdir',(1.,0.,0.));
#1004=DIRECTION('center_axis',(0.,0.,-1.));
#1005=DIRECTION('ref_axis',(0.707106781186548,0.707106781186547,0.));
#1006=DIRECTION('center_axis',(0.,0.,1.));
#1007=DIRECTION('ref_axis',(0.707106781186548,0.707106781186547,0.));
#1008=DIRECTION('',(0.,0.,1.));
#1009=DIRECTION('center_axis',(0.,0.,-1.));
#1010=DIRECTION('ref_axis',(0.707106781186548,0.707106781186547,0.));
#1011=DIRECTION('',(0.,0.,-1.));
#1012=DIRECTION('center_axis',(-1.,0.,0.));
#1013=DIRECTION('ref_axis',(0.,0.,1.));
#1014=DIRECTION('',(0.,1.,0.));
#1015=DIRECTION('',(0.,0.,1.));
#1016=DIRECTION('',(0.,-1.,0.));
#1017=DIRECTION('center_axis',(0.,0.,-1.));
#1018=DIRECTION('ref_axis',(-1.,0.,0.));
#1019=DIRECTION('',(-1.,0.,0.));
#1020=DIRECTION('',(0.,-1.,0.));
#1021=DIRECTION('',(1.,0.,0.));
#1022=DIRECTION('center_axis',(0.,0.,-1.));
#1023=DIRECTION('ref_axis',(0.707106781186548,-0.707106781186547,0.));
#1024=DIRECTION('center_axis',(0.,0.,-1.));
#1025=DIRECTION('ref_axis',(0.707106781186548,-0.707106781186547,0.));
#1026=DIRECTION('center_axis',(0.,0.,1.));
#1027=DIRECTION('ref_axis',(0.707106781186548,-0.707106781186547,0.));
#1028=DIRECTION('',(0.,0.,-1.));
#1029=DIRECTION('center_axis',(0.,0.,-1.));
#1030=DIRECTION('ref_axis',(-1.,0.,0.));
#1031=DIRECTION('',(1.,0.,0.));
#1032=DIRECTION('',(0.,1.,0.));
#1033=DIRECTION('',(-1.,0.,0.));
#1034=DIRECTION('center_axis',(0.,1.,0.));
#1035=DIRECTION('ref_axis',(0.,0.,1.));
#1036=DIRECTION('center_axis',(0.,-1.,0.));
#1037=DIRECTION('ref_axis',(-2.77555756156289E-15,0.,-1.));
#1038=DIRECTION('',(0.,0.,-1.));
#1039=DIRECTION('center_axis',(0.,1.,0.));
#1040=DIRECTION('ref_axis',(-1.,0.,6.16790569236198E-16));
#1041=DIRECTION('',(0.,0.,1.));
#1042=DIRECTION('center_axis',(0.,-1.,0.));
#1043=DIRECTION('ref_axis',(1.,0.,3.81639164714899E-15));
#1044=DIRECTION('',(1.,0.,1.27553196763001E-17));
#1045=DIRECTION('center_axis',(0.,-1.,0.));
#1046=DIRECTION('ref_axis',(0.,0.,-1.));
#1047=DIRECTION('',(-1.,0.,0.));
#1048=DIRECTION('',(0.,0.,-1.));
#1049=DIRECTION('',(-1.,0.,0.));
#1050=DIRECTION('center_axis',(0.,-1.,0.));
#1051=DIRECTION('ref_axis',(0.,0.,-1.));
#1052=DIRECTION('',(1.,0.,1.27553196763001E-17));
#1053=DIRECTION('center_axis',(0.,-1.,0.));
#1054=DIRECTION('ref_axis',(1.,0.,3.81639164714899E-15));
#1055=DIRECTION('',(0.,0.,1.));
#1056=DIRECTION('center_axis',(0.,1.,0.));
#1057=DIRECTION('ref_axis',(-1.,0.,6.16790569236198E-16));
#1058=DIRECTION('',(0.,0.,-1.));
#1059=DIRECTION('center_axis',(0.,-1.,0.));
#1060=DIRECTION('ref_axis',(-2.77555756156289E-15,0.,-1.));
#1061=DIRECTION('center_axis',(-0.965925826289068,0.,0.258819045102521));
#1062=DIRECTION('ref_axis',(-0.183012701892219,0.707106781186549,-0.683012701892218));
#1063=DIRECTION('',(0.965925826289068,0.,-0.258819045102521));
#1064=DIRECTION('',(-0.965925826289068,0.,0.258819045102521));
#1065=DIRECTION('center_axis',(0.,-1.,0.));
#1066=DIRECTION('ref_axis',(0.,0.,-1.));
#1067=DIRECTION('center_axis',(0.,1.,0.));
#1068=DIRECTION('ref_axis',(-0.965925826289068,0.,0.258819045102521));
#1069=DIRECTION('',(0.921863151588501,0.,0.387515586452102));
#1070=DIRECTION('center_axis',(0.,1.,0.));
#1071=DIRECTION('ref_axis',(-0.9861798660721,0.,0.165678217500112));
#1072=DIRECTION('center_axis',(0.,1.,0.));
#1073=DIRECTION('ref_axis',(-0.965925826289068,0.,0.258819045102521));
#1074=DIRECTION('',(0.,-1.,0.));
#1075=DIRECTION('center_axis',(0.,-1.,0.));
#1076=DIRECTION('ref_axis',(-0.965925826289068,0.,0.258819045102521));
#1077=DIRECTION('',(0.,1.,0.));
#1078=DIRECTION('center_axis',(0.921863151588501,0.,0.387515586452102));
#1079=DIRECTION('ref_axis',(0.274014898995766,0.707106781186547,-0.65185568581423));
#1080=DIRECTION('',(-0.921863151588501,0.,-0.387515586452102));
#1081=DIRECTION('center_axis',(-0.387515586452102,0.,0.921863151588501));
#1082=DIRECTION('ref_axis',(0.921863151588501,0.,0.387515586452102));
#1083=DIRECTION('',(0.921863151588501,0.,0.387515586452102));
#1084=DIRECTION('',(0.,-1.,0.));
#1085=DIRECTION('center_axis',(-0.965925826289068,0.,0.258819045102521));
#1086=DIRECTION('ref_axis',(-0.183012701892223,-0.707106781186546,-0.68301270189222));
#1087=DIRECTION('',(0.965925826289068,0.,-0.258819045102521));
#1088=DIRECTION('',(-0.965925826289068,0.,0.258819045102521));
#1089=DIRECTION('center_axis',(0.,1.,0.));
#1090=DIRECTION('ref_axis',(0.,0.,1.));
#1091=DIRECTION('center_axis',(0.,-1.,0.));
#1092=DIRECTION('ref_axis',(-0.9861798660721,0.,0.165678217500112));
#1093=DIRECTION('',(-0.921863151588501,0.,-0.387515586452102));
#1094=DIRECTION('center_axis',(0.921863151588501,0.,0.387515586452102));
#1095=DIRECTION('ref_axis',(0.274014898995766,-0.707106781186547,-0.65185568581423));
#1096=DIRECTION('center_axis',(0.258819045102521,0.,0.965925826289068));
#1097=DIRECTION('ref_axis',(0.965925826289068,0.,-0.258819045102521));
#1098=DIRECTION('',(0.,1.,0.));
#1099=DIRECTION('center_axis',(1.,0.,0.));
#1100=DIRECTION('ref_axis',(0.,-1.,0.));
#1101=DIRECTION('center_axis',(0.994521895368274,0.,0.104528463267652));
#1102=DIRECTION('ref_axis',(0.104528463267652,0.,-0.994521895368273));
#1103=DIRECTION('center_axis',(0.104528463267652,0.,-0.994521895368274));
#1104=DIRECTION('ref_axis',(-0.994521895368273,0.,-0.104528463267652));
#1105=DIRECTION('center_axis',(-0.994521895368274,0.,-0.104528463267652));
#1106=DIRECTION('ref_axis',(0.104528463267652,0.,-0.994521895368273));
#1107=DIRECTION('center_axis',(0.030754675786974,0.999526963076654,0.));
#1108=DIRECTION('ref_axis',(0.999526963076654,-0.030754675786974,0.));
#1109=DIRECTION('',(-1.,0.,0.));
#1110=DIRECTION('center_axis',(1.,0.,0.));
#1111=DIRECTION('ref_axis',(0.,-1.,0.));
#1112=DIRECTION('center_axis',(0.994521895368274,0.,0.104528463267652));
#1113=DIRECTION('ref_axis',(0.104528463267652,0.,-0.994521895368273));
#1114=DIRECTION('',(1.,0.,0.));
#1115=DIRECTION('center_axis',(0.030754675786974,-0.999526963076654,0.));
#1116=DIRECTION('ref_axis',(-0.999526963076654,-0.030754675786974,0.));
#1117=DIRECTION('center_axis',(-0.994521895368274,0.,-0.104528463267652));
#1118=DIRECTION('ref_axis',(0.104528463267652,0.,-0.994521895368273));
#1119=DIRECTION('center_axis',(0.104528463267652,0.,-0.994521895368274));
#1120=DIRECTION('ref_axis',(-0.994521895368273,0.,-0.104528463267652));
#1121=DIRECTION('center_axis',(0.030754675786974,-0.999526963076654,0.));
#1122=DIRECTION('ref_axis',(0.999526963076654,0.030754675786974,0.));
#1123=DIRECTION('',(0.,0.,1.));
#1124=DIRECTION('center_axis',(0.030754675786974,-0.999526963076654,0.));
#1125=DIRECTION('ref_axis',(-0.999526963076654,-0.030754675786974,8.58586860563563E-15));
#1126=DIRECTION('',(-0.165676064762702,-0.00509772506962162,-0.986167052158943));
#1127=DIRECTION('center_axis',(-0.030754675786974,0.999526963076654,0.));
#1128=DIRECTION('ref_axis',(0.999526963076654,0.030754675786974,1.42713545373949E-14));
#1129=DIRECTION('',(-0.999526963076654,-0.030754675786974,0.));
#1130=DIRECTION('',(0.999526963076654,0.030754675786974,0.));
#1131=DIRECTION('center_axis',(0.030754675786974,-0.999526963076654,0.));
#1132=DIRECTION('ref_axis',(0.999526963076654,0.030754675786974,1.89975446828548E-14));
#1133=DIRECTION('',(0.165676064762702,0.00509772506962162,0.986167052158943));
#1134=DIRECTION('center_axis',(-0.030754675786974,0.999526963076654,0.));
#1135=DIRECTION('ref_axis',(-0.999526963076654,-0.030754675786974,6.49415389672541E-16));
#1136=DIRECTION('center_axis',(0.,-1.,0.));
#1137=DIRECTION('ref_axis',(1.,0.,0.));
#1138=DIRECTION('center_axis',(0.,-1.,0.));
#1139=DIRECTION('ref_axis',(-0.9861798660721,0.,0.165678217500112));
#1140=DIRECTION('center_axis',(0.,1.,0.));
#1141=DIRECTION('ref_axis',(-0.9861798660721,0.,0.165678217500112));
#1142=DIRECTION('',(0.,1.,0.));
#1143=DIRECTION('center_axis',(0.,1.,0.));
#1144=DIRECTION('ref_axis',(-0.9861798660721,0.,0.165678217500112));
#1145=DIRECTION('center_axis',(0.030754675786974,0.999526963076654,0.));
#1146=DIRECTION('ref_axis',(-0.999526963076654,0.030754675786974,8.58586860563563E-15));
#1147=DIRECTION('',(0.,1.,0.));
#1148=DIRECTION('center_axis',(0.030754675786974,0.999526963076654,0.));
#1149=DIRECTION('ref_axis',(-0.999526963076654,0.030754675786974,0.));
#1150=DIRECTION('center_axis',(-0.030754675786974,-0.999526963076654,0.));
#1151=DIRECTION('ref_axis',(-0.999526963076654,0.030754675786974,6.49415389672541E-16));
#1152=DIRECTION('',(-0.165676064762702,0.00509772506962162,-0.986167052158943));
#1153=DIRECTION('center_axis',(0.030754675786974,0.999526963076654,0.));
#1154=DIRECTION('ref_axis',(0.999526963076654,-0.030754675786974,1.89975446828548E-14));
#1155=DIRECTION('',(-0.999526963076654,0.030754675786974,0.));
#1156=DIRECTION('',(0.,0.,1.));
#1157=DIRECTION('',(0.999526963076654,-0.030754675786974,0.));
#1158=DIRECTION('center_axis',(-0.030754675786974,-0.999526963076654,0.));
#1159=DIRECTION('ref_axis',(0.999526963076654,-0.030754675786974,1.42713545373949E-14));
#1160=DIRECTION('',(0.165676064762702,-0.00509772506962162,0.986167052158943));
#1161=DIRECTION('',(0.,0.,1.));
#1162=DIRECTION('center_axis',(0.,1.,0.));
#1163=DIRECTION('ref_axis',(-1.,0.,0.));
#1164=DIRECTION('center_axis',(0.994521895368274,0.,0.104528463267652));
#1165=DIRECTION('ref_axis',(0.104528463267652,0.,-0.994521895368274));
#1166=DIRECTION('',(0.,1.,0.));
#1167=DIRECTION('center_axis',(0.,1.,0.));
#1168=DIRECTION('ref_axis',(0.9861798660721,0.,-0.165678217500112));
#1169=DIRECTION('',(0.,-1.,0.));
#1170=DIRECTION('',(0.,-1.,0.));
#1171=DIRECTION('center_axis',(-0.104528463267652,0.,0.994521895368274));
#1172=DIRECTION('ref_axis',(0.994521895368274,0.,0.104528463267652));
#1173=DIRECTION('',(0.,-1.,0.));
#1174=DIRECTION('center_axis',(-0.9861798660721,0.,0.165678217500113));
#1175=DIRECTION('ref_axis',(0.165678217500113,0.,0.9861798660721));
#1176=DIRECTION('',(0.,-1.,0.));
#1177=DIRECTION('center_axis',(0.,1.,0.));
#1178=DIRECTION('ref_axis',(-0.9861798660721,0.,0.165678217500113));
#1179=DIRECTION('',(0.,-1.,0.));
#1180=DIRECTION('center_axis',(0.994521895368274,0.,0.104528463267652));
#1181=DIRECTION('ref_axis',(0.104528463267652,0.,-0.994521895368274));
#1182=DIRECTION('center_axis',(0.,0.,1.));
#1183=DIRECTION('ref_axis',(1.,0.,0.));
#1184=DIRECTION('',(0.,-1.,0.));
#1185=DIRECTION('',(1.,0.,0.));
#1186=DIRECTION('center_axis',(-0.9861798660721,0.,0.165678217500113));
#1187=DIRECTION('ref_axis',(0.165678217500113,0.,0.9861798660721));
#1188=DIRECTION('',(0.,1.,0.));
#1189=DIRECTION('center_axis',(0.,1.,0.));
#1190=DIRECTION('ref_axis',(0.9861798660721,0.,-0.165678217500112));
#1191=DIRECTION('',(0.,1.,0.));
#1192=DIRECTION('center_axis',(0.,0.,1.));
#1193=DIRECTION('ref_axis',(1.,0.,0.));
#1194=DIRECTION('',(1.,0.,0.));
#1195=DIRECTION('',(0.,1.,0.));
#1196=DIRECTION('center_axis',(0.,1.,0.));
#1197=DIRECTION('ref_axis',(0.,0.,-1.));
#1198=DIRECTION('center_axis',(0.,1.,0.));
#1199=DIRECTION('ref_axis',(0.,0.,-1.));
#1200=DIRECTION('',(0.,1.,0.));
#1201=DIRECTION('center_axis',(1.27553196763001E-17,0.,-1.));
#1202=DIRECTION('ref_axis',(-1.,0.,-1.27553196763001E-17));
#1203=DIRECTION('',(-1.,0.,-1.27553196763001E-17));
#1204=DIRECTION('',(0.,1.,0.));
#1205=DIRECTION('center_axis',(0.,1.,0.));
#1206=DIRECTION('ref_axis',(1.,0.,3.81639164714899E-15));
#1207=DIRECTION('center_axis',(0.,1.,0.));
#1208=DIRECTION('ref_axis',(1.,0.,3.81639164714899E-15));
#1209=DIRECTION('',(0.,1.,0.));
#1210=DIRECTION('center_axis',(1.,0.,0.));
#1211=DIRECTION('ref_axis',(0.,0.,-1.));
#1212=DIRECTION('',(0.,0.,-1.));
#1213=DIRECTION('',(0.,1.,0.));
#1214=DIRECTION('center_axis',(0.,1.,0.));
#1215=DIRECTION('ref_axis',(-1.,0.,6.16790569236198E-16));
#1216=DIRECTION('center_axis',(0.,-1.,0.));
#1217=DIRECTION('ref_axis',(-1.,0.,6.16790569236198E-16));
#1218=DIRECTION('',(0.,1.,0.));
#1219=DIRECTION('center_axis',(-1.,0.,0.));
#1220=DIRECTION('ref_axis',(0.,0.,1.));
#1221=DIRECTION('',(0.,0.,1.));
#1222=DIRECTION('',(0.,1.,0.));
#1223=DIRECTION('center_axis',(0.,1.,0.));
#1224=DIRECTION('ref_axis',(-2.77555756156289E-15,0.,-1.));
#1225=DIRECTION('center_axis',(0.,1.,0.));
#1226=DIRECTION('ref_axis',(-2.77555756156289E-15,0.,-1.));
#1227=DIRECTION('center_axis',(0.,1.,0.));
#1228=DIRECTION('ref_axis',(0.,0.,-1.));
#1229=DIRECTION('',(0.,-1.,0.));
#1230=DIRECTION('center_axis',(0.,1.,0.));
#1231=DIRECTION('ref_axis',(0.,0.,-1.));
#1232=DIRECTION('center_axis',(1.27553196763001E-17,0.,-1.));
#1233=DIRECTION('ref_axis',(-1.,0.,-1.27553196763001E-17));
#1234=DIRECTION('',(0.,-1.,0.));
#1235=DIRECTION('',(-1.,0.,-1.27553196763001E-17));
#1236=DIRECTION('center_axis',(0.,1.,0.));
#1237=DIRECTION('ref_axis',(1.,0.,3.81639164714899E-15));
#1238=DIRECTION('',(0.,-1.,0.));
#1239=DIRECTION('center_axis',(0.,1.,0.));
#1240=DIRECTION('ref_axis',(1.,0.,3.81639164714899E-15));
#1241=DIRECTION('center_axis',(1.,0.,0.));
#1242=DIRECTION('ref_axis',(0.,0.,-1.));
#1243=DIRECTION('',(0.,-1.,0.));
#1244=DIRECTION('',(0.,0.,-1.));
#1245=DIRECTION('center_axis',(0.,1.,0.));
#1246=DIRECTION('ref_axis',(-1.,0.,6.16790569236198E-16));
#1247=DIRECTION('',(0.,-1.,0.));
#1248=DIRECTION('center_axis',(0.,-1.,0.));
#1249=DIRECTION('ref_axis',(-1.,0.,6.16790569236198E-16));
#1250=DIRECTION('center_axis',(-1.,0.,0.));
#1251=DIRECTION('ref_axis',(0.,0.,1.));
#1252=DIRECTION('',(0.,-1.,0.));
#1253=DIRECTION('',(0.,0.,1.));
#1254=DIRECTION('center_axis',(0.,1.,0.));
#1255=DIRECTION('ref_axis',(-2.77555756156289E-15,0.,-1.));
#1256=DIRECTION('center_axis',(0.,1.,0.));
#1257=DIRECTION('ref_axis',(-2.77555756156289E-15,0.,-1.));
#1258=DIRECTION('center_axis',(0.,-1.,0.));
#1259=DIRECTION('ref_axis',(0.,0.,-1.));
#1260=CARTESIAN_POINT('',(0.,0.,0.));
#1261=CARTESIAN_POINT('Origin',(0.24,0.04,0.0195));
#1262=CARTESIAN_POINT('',(0.25,0.04,-8.67361737988404E-19));
#1263=CARTESIAN_POINT('',(0.24,0.05,-8.67361737988404E-19));
#1264=CARTESIAN_POINT('Origin',(0.24,0.04,0.));
#1265=CARTESIAN_POINT('',(0.24,0.05,0.01));
#1266=CARTESIAN_POINT('',(0.24,0.05,0.0195));
#1267=CARTESIAN_POINT('',(0.25,0.04,0.01));
#1268=CARTESIAN_POINT('Origin',(0.24,0.04,0.01));
#1269=CARTESIAN_POINT('',(0.25,0.04,0.0195));
#1270=CARTESIAN_POINT('Origin',(0.25,0.025,0.005));
#1271=CARTESIAN_POINT('',(0.25,-0.04,0.01));
#1272=CARTESIAN_POINT('',(0.25,0.,0.01));
#1273=CARTESIAN_POINT('',(0.25,-0.04,-8.67361737988404E-19));
#1274=CARTESIAN_POINT('',(0.25,-0.04,0.00646446609406727));
#1275=CARTESIAN_POINT('',(0.25,0.,-8.67361737988404E-19));
#1276=CARTESIAN_POINT('Origin',(0.25,0.,0.01));
#1277=CARTESIAN_POINT('',(0.235,0.05,0.01));
#1278=CARTESIAN_POINT('',(0.25,0.05,0.01));
#1279=CARTESIAN_POINT('',(0.235,-0.05,0.01));
#1280=CARTESIAN_POINT('',(0.235,0.,0.01));
#1281=CARTESIAN_POINT('',(0.24,-0.05,0.01));
#1282=CARTESIAN_POINT('',(0.25,-0.05,0.01));
#1283=CARTESIAN_POINT('Origin',(0.24,-0.04,0.01));
#1284=CARTESIAN_POINT('Origin',(0.24,-0.04,0.00646446609406727));
#1285=CARTESIAN_POINT('',(0.24,-0.05,-8.67361737988404E-19));
#1286=CARTESIAN_POINT('Origin',(0.24,-0.04,-8.67361737988404E-19));
#1287=CARTESIAN_POINT('',(0.24,-0.05,0.00646446609406727));
#1288=CARTESIAN_POINT('Origin',(0.25,0.,-8.67361737988404E-19));
#1289=CARTESIAN_POINT('',(0.235,-0.05,-8.67361737988404E-19));
#1290=CARTESIAN_POINT('',(0.25,-0.05,-8.67361737988404E-19));
#1291=CARTESIAN_POINT('',(0.235,0.05,-8.67361737988404E-19));
#1292=CARTESIAN_POINT('',(0.235,0.,-8.67361737988404E-19));
#1293=CARTESIAN_POINT('',(0.25,0.05,-8.67361737988404E-19));
#1294=CARTESIAN_POINT('Origin',(0.227928932188135,-0.05,0.00792893218813453));
#1295=CARTESIAN_POINT('',(0.23,-0.05,0.015));
#1296=CARTESIAN_POINT('Origin',(0.235,-0.05,0.015));
#1297=CARTESIAN_POINT('',(0.23,-0.05,0.0325));
#1298=CARTESIAN_POINT('',(0.23,-0.05,0.015));
#1299=CARTESIAN_POINT('',(0.175,-0.05,0.0325));
#1300=CARTESIAN_POINT('Origin',(0.2025,-0.05,0.0325));
#1301=CARTESIAN_POINT('',(0.175,-0.05,0.015));
#1302=CARTESIAN_POINT('',(0.175,-0.05,0.0325));
#1303=CARTESIAN_POINT('',(0.17,-0.05,0.01));
#1304=CARTESIAN_POINT('Origin',(0.17,-0.05,0.015));
#1305=CARTESIAN_POINT('',(0.034,-0.05,0.01));
#1306=CARTESIAN_POINT('',(0.17,-0.05,0.01));
#1307=CARTESIAN_POINT('',(0.034,-0.05,0.058));
#1308=CARTESIAN_POINT('Origin',(0.034,-0.05,0.034));
#1309=CARTESIAN_POINT('',(0.04,-0.05,0.058));
#1310=CARTESIAN_POINT('',(0.034,-0.05,0.058));
#1311=CARTESIAN_POINT('',(0.04,-0.05,0.068));
#1312=CARTESIAN_POINT('',(0.0399999999999999,-0.05,0.09487904898804));
#1313=CARTESIAN_POINT('',(0.034,-0.05,0.068));
#1314=CARTESIAN_POINT('',(0.034,-0.05,0.068));
#1315=CARTESIAN_POINT('',(0.034,-0.05,-8.67361737988404E-19));
#1316=CARTESIAN_POINT('Origin',(0.034,-0.05,0.034));
#1317=CARTESIAN_POINT('',(0.17,-0.05,1.04083408558608E-17));
#1318=CARTESIAN_POINT('',(0.17,-0.05,8.67361737988404E-19));
#1319=CARTESIAN_POINT('',(0.185,-0.05,0.015));
#1320=CARTESIAN_POINT('Origin',(0.17,-0.05,0.015));
#1321=CARTESIAN_POINT('',(0.185,-0.05,0.0325));
#1322=CARTESIAN_POINT('',(0.185,-0.05,0.0325));
#1323=CARTESIAN_POINT('',(0.22,-0.05,0.0325));
#1324=CARTESIAN_POINT('Origin',(0.2025,-0.05,0.0325));
#1325=CARTESIAN_POINT('',(0.22,-0.05,0.015));
#1326=CARTESIAN_POINT('',(0.22,-0.05,0.015));
#1327=CARTESIAN_POINT('Origin',(0.235,-0.05,0.015));
#1328=CARTESIAN_POINT('Origin',(0.166670617306492,0.017,0.146828797237279));
#1329=CARTESIAN_POINT('',(0.147626894785339,0.017,0.143649337864424));
#1330=CARTESIAN_POINT('',(0.150331935727909,0.025,0.15120673377165));
#1331=CARTESIAN_POINT('Ctrl Pts',(0.147626894785339,0.017,0.143649337864424));
#1332=CARTESIAN_POINT('Ctrl Pts',(0.147626894785339,0.0180046767342569,
0.143649337864424));
#1333=CARTESIAN_POINT('Ctrl Pts',(0.147677379494236,0.0190762867984421,
0.143843725982331));
#1334=CARTESIAN_POINT('Ctrl Pts',(0.147899000677435,0.0210473747394255,
0.144629714779623));
#1335=CARTESIAN_POINT('Ctrl Pts',(0.148070875839722,0.0219468464877198,
0.145221122358507));
#1336=CARTESIAN_POINT('Ctrl Pts',(0.148505194098736,0.0233707472730204,
0.146578877698035));
#1337=CARTESIAN_POINT('Ctrl Pts',(0.148796866108436,0.0239874230246655,
0.147436571325836));
#1338=CARTESIAN_POINT('Ctrl Pts',(0.149501313044359,0.0248021310527731,
0.149290584326362));
#1339=CARTESIAN_POINT('Ctrl Pts',(0.149914822097167,0.025,0.150286696451497));
#1340=CARTESIAN_POINT('Ctrl Pts',(0.150331935727909,0.025,0.15120673377165));
#1341=CARTESIAN_POINT('',(0.153271671504283,0.025,0.15041903394441));
#1342=CARTESIAN_POINT('',(0.166670617306492,0.025,0.146828797237279));
#1343=CARTESIAN_POINT('',(0.150524672264206,0.017,0.142872880729116));
#1344=CARTESIAN_POINT('Ctrl Pts',(0.150524672264206,0.017,0.142872880729116));
#1345=CARTESIAN_POINT('Ctrl Pts',(0.150524672264206,0.018004700848521,0.142872880729116));
#1346=CARTESIAN_POINT('Ctrl Pts',(0.150575062347526,0.0190763321748278,
0.143067305617411));
#1347=CARTESIAN_POINT('Ctrl Pts',(0.150797358804864,0.0210474273059348,
0.143853132651098));
#1348=CARTESIAN_POINT('Ctrl Pts',(0.150970051371021,0.0219468841610958,
0.144444329618528));
#1349=CARTESIAN_POINT('Ctrl Pts',(0.151408807023173,0.0233712406114256,
0.1458013677013));
#1350=CARTESIAN_POINT('Ctrl Pts',(0.151704464153824,0.0239880512191737,
0.146658613189377));
#1351=CARTESIAN_POINT('Ctrl Pts',(0.152421837428523,0.0248025234588361,
0.148509462032211));
#1352=CARTESIAN_POINT('Ctrl Pts',(0.152844334447929,0.025,0.149502844082519));
#1353=CARTESIAN_POINT('Ctrl Pts',(0.153271671504283,0.025,0.150419033944409));
#1354=CARTESIAN_POINT('',(0.164600064945672,0.017,0.139101390626967));
#1355=CARTESIAN_POINT('Origin',(0.191766264192214,0.025,0.178389900780002));
#1356=CARTESIAN_POINT('',(0.236506414710724,0.025,0.157081520375266));
#1357=CARTESIAN_POINT('Origin',(0.195,0.025,0.130955752579201));
#1358=CARTESIAN_POINT('',(0.233700780971686,0.025,0.155902140548792));
#1359=CARTESIAN_POINT('',(0.220913055383436,0.025,0.150526675684859));
#1360=CARTESIAN_POINT('Origin',(0.195,0.025,0.130955752579201));
#1361=CARTESIAN_POINT('Origin',(0.195,0.,0.130955752579201));
#1362=CARTESIAN_POINT('',(0.147626894785339,-0.017,0.143649337864424));
#1363=CARTESIAN_POINT('',(0.147626894785339,0.,0.143649337864424));
#1364=CARTESIAN_POINT('',(0.150331935727909,-0.025,0.15120673377165));
#1365=CARTESIAN_POINT('Ctrl Pts',(0.150331935727909,-0.025,0.15120673377165));
#1366=CARTESIAN_POINT('Ctrl Pts',(0.149914822097167,-0.025,0.150286696451497));
#1367=CARTESIAN_POINT('Ctrl Pts',(0.149501313044359,-0.0248021310527731,
0.149290584326362));
#1368=CARTESIAN_POINT('Ctrl Pts',(0.148796866108436,-0.0239874230246656,
0.147436571325836));
#1369=CARTESIAN_POINT('Ctrl Pts',(0.148505194098736,-0.0233707472730204,
0.146578877698035));
#1370=CARTESIAN_POINT('Ctrl Pts',(0.148070875839722,-0.0219468464877198,
0.145221122358507));
#1371=CARTESIAN_POINT('Ctrl Pts',(0.147899000677435,-0.0210473747394255,
0.144629714779623));
#1372=CARTESIAN_POINT('Ctrl Pts',(0.147677379494236,-0.0190762867984421,
0.143843725982331));
#1373=CARTESIAN_POINT('Ctrl Pts',(0.147626894785339,-0.0180046767342569,
0.143649337864424));
#1374=CARTESIAN_POINT('Ctrl Pts',(0.147626894785339,-0.017,0.143649337864424));
#1375=CARTESIAN_POINT('',(0.236506414710724,-0.025,0.157081520375266));
#1376=CARTESIAN_POINT('Origin',(0.195,-0.025,0.130955752579201));
#1377=CARTESIAN_POINT('',(0.240212084494624,-0.017,0.149961162880574));
#1378=CARTESIAN_POINT('Ctrl Pts',(0.240212084494624,-0.017,0.149961162880574));
#1379=CARTESIAN_POINT('Ctrl Pts',(0.240212084494624,-0.0180046767342569,
0.149961162880574));
#1380=CARTESIAN_POINT('Ctrl Pts',(0.240135685383612,-0.0190762867984421,
0.150146900927436));
#1381=CARTESIAN_POINT('Ctrl Pts',(0.239809443755403,-0.0210473747394255,
0.150895540185247));
#1382=CARTESIAN_POINT('Ctrl Pts',(0.239558895591426,-0.0219468464877198,
0.151458149830828));
#1383=CARTESIAN_POINT('Ctrl Pts',(0.238944327171101,-0.0233707472730204,
0.152744399250213));
#1384=CARTESIAN_POINT('Ctrl Pts',(0.238538951375694,-0.0239874230246655,
0.153554572925983));
#1385=CARTESIAN_POINT('Ctrl Pts',(0.237589403659535,-0.0248021310527731,
0.155295827883302));
#1386=CARTESIAN_POINT('Ctrl Pts',(0.237044532531179,-0.025,0.156226604202339));
#1387=CARTESIAN_POINT('Ctrl Pts',(0.236506414710724,-0.025,0.157081520375266));
#1388=CARTESIAN_POINT('',(0.240212084494624,0.017,0.149961162880574));
#1389=CARTESIAN_POINT('',(0.240212084494624,0.,0.149961162880574));
#1390=CARTESIAN_POINT('Ctrl Pts',(0.236506414710724,0.025,0.157081520375266));
#1391=CARTESIAN_POINT('Ctrl Pts',(0.237044532531179,0.025,0.156226604202339));
#1392=CARTESIAN_POINT('Ctrl Pts',(0.237589403659535,0.0248021310527731,
0.155295827883302));
#1393=CARTESIAN_POINT('Ctrl Pts',(0.238538951375694,0.0239874230246656,
0.153554572925983));
#1394=CARTESIAN_POINT('Ctrl Pts',(0.238944327171101,0.0233707472730204,
0.152744399250213));
#1395=CARTESIAN_POINT('Ctrl Pts',(0.239558895591426,0.0219468464877198,
0.151458149830828));
#1396=CARTESIAN_POINT('Ctrl Pts',(0.239809443755403,0.0210473747394255,
0.150895540185247));
#1397=CARTESIAN_POINT('Ctrl Pts',(0.240135685383612,0.0190762867984421,
0.150146900927436));
#1398=CARTESIAN_POINT('Ctrl Pts',(0.240212084494624,0.0180046767342569,
0.149961162880574));
#1399=CARTESIAN_POINT('Ctrl Pts',(0.240212084494624,0.017,0.149961162880574));
#1400=CARTESIAN_POINT('Origin',(0.220913055383436,0.017,0.150526675684859));
#1401=CARTESIAN_POINT('',(0.237446495039859,0.017,0.148798616121218));
#1402=CARTESIAN_POINT('',(0.224013180075052,0.017,0.14315177047215));
#1403=CARTESIAN_POINT('Ctrl Pts',(0.233700780971686,0.025,0.155902140548792));
#1404=CARTESIAN_POINT('Ctrl Pts',(0.234248505468987,0.025,0.155052423714888));
#1405=CARTESIAN_POINT('Ctrl Pts',(0.234801910892172,0.0248025234588361,
0.154125572018623));
#1406=CARTESIAN_POINT('Ctrl Pts',(0.235763835925087,0.0239880512191737,
0.15238920624917));
#1407=CARTESIAN_POINT('Ctrl Pts',(0.23617309915093,0.0233712406114256,0.151580017409835));
#1408=CARTESIAN_POINT('Ctrl Pts',(0.236791966566013,0.0219468841610958,
0.150295080834382));
#1409=CARTESIAN_POINT('Ctrl Pts',(0.237043295987855,0.0210474273059348,
0.149732790786078));
#1410=CARTESIAN_POINT('Ctrl Pts',(0.237370184688618,0.0190763321748278,
0.148984403440427));
#1411=CARTESIAN_POINT('Ctrl Pts',(0.237446495039859,0.018004700848521,0.148798616121218));
#1412=CARTESIAN_POINT('Ctrl Pts',(0.237446495039859,0.017,0.148798616121218));
#1413=CARTESIAN_POINT('Origin',(0.238829289767241,0.0125,0.149379889500896));
#1414=CARTESIAN_POINT('',(0.237446495039859,-0.017,0.148798616121218));
#1415=CARTESIAN_POINT('',(0.224013180075052,-0.017,0.14315177047215));
#1416=CARTESIAN_POINT('',(0.237446495039859,0.,0.148798616121218));
#1417=CARTESIAN_POINT('Origin',(0.166670617306492,-0.017,0.146828797237279));
#1418=CARTESIAN_POINT('',(0.150524672264206,-0.017,0.142872880729116));
#1419=CARTESIAN_POINT('',(0.164600064945672,-0.017,0.139101390626967));
#1420=CARTESIAN_POINT('',(0.153271671504283,-0.025,0.15041903394441));
#1421=CARTESIAN_POINT('Ctrl Pts',(0.153271671504283,-0.025,0.15041903394441));
#1422=CARTESIAN_POINT('Ctrl Pts',(0.152844334447929,-0.025,0.149502844082519));
#1423=CARTESIAN_POINT('Ctrl Pts',(0.152421837428523,-0.0248025234588361,
0.148509462032211));
#1424=CARTESIAN_POINT('Ctrl Pts',(0.151704464153824,-0.0239880512191737,
0.146658613189377));
#1425=CARTESIAN_POINT('Ctrl Pts',(0.151408807023173,-0.0233712406114256,
0.1458013677013));
#1426=CARTESIAN_POINT('Ctrl Pts',(0.150970051371021,-0.0219468841610957,
0.144444329618528));
#1427=CARTESIAN_POINT('Ctrl Pts',(0.150797358804864,-0.0210474273059348,
0.143853132651098));
#1428=CARTESIAN_POINT('Ctrl Pts',(0.150575062347526,-0.0190763321748278,
0.143067305617411));
#1429=CARTESIAN_POINT('Ctrl Pts',(0.150524672264206,-0.018004700848521,
0.142872880729116));
#1430=CARTESIAN_POINT('Ctrl Pts',(0.150524672264206,-0.017,0.142872880729116));
#1431=CARTESIAN_POINT('',(0.166670617306492,-0.025,0.146828797237279));
#1432=CARTESIAN_POINT('Origin',(0.191766264192214,-0.025,0.178389900780002));
#1433=CARTESIAN_POINT('',(0.233700780971686,-0.025,0.155902140548792));
#1434=CARTESIAN_POINT('Origin',(0.195,-0.025,0.130955752579201));
#1435=CARTESIAN_POINT('',(0.220913055383436,-0.025,0.150526675684859));
#1436=CARTESIAN_POINT('Origin',(0.220913055383436,-0.017,0.150526675684859));
#1437=CARTESIAN_POINT('Ctrl Pts',(0.237446495039859,-0.017,0.148798616121218));
#1438=CARTESIAN_POINT('Ctrl Pts',(0.237446495039859,-0.018004700848521,
0.148798616121218));
#1439=CARTESIAN_POINT('Ctrl Pts',(0.237370184688618,-0.0190763321748278,
0.148984403440427));
#1440=CARTESIAN_POINT('Ctrl Pts',(0.237043295987855,-0.0210474273059348,
0.149732790786078));
#1441=CARTESIAN_POINT('Ctrl Pts',(0.236791966566013,-0.0219468841610958,
0.150295080834382));
#1442=CARTESIAN_POINT('Ctrl Pts',(0.23617309915093,-0.0233712406114256,
0.151580017409835));
#1443=CARTESIAN_POINT('Ctrl Pts',(0.235763835925087,-0.0239880512191737,
0.15238920624917));
#1444=CARTESIAN_POINT('Ctrl Pts',(0.234801910892172,-0.0248025234588361,
0.154125572018623));
#1445=CARTESIAN_POINT('Ctrl Pts',(0.234248505468987,-0.025,0.155052423714888));
#1446=CARTESIAN_POINT('Ctrl Pts',(0.233700780971686,-0.025,0.155902140548792));
#1447=CARTESIAN_POINT('Origin',(0.149075783524773,0.0125,0.14326110929677));
#1448=CARTESIAN_POINT('',(0.150524672264206,0.,0.142872880729116));
#1449=CARTESIAN_POINT('Origin',(0.2425,0.,0.1535));
#1450=CARTESIAN_POINT('',(0.242394436083505,0.0317826034207998,0.120522642316338));
#1451=CARTESIAN_POINT('',(0.240792012215739,0.0422284328320684,0.135768687004412));
#1452=CARTESIAN_POINT('Origin',(0.238928376123081,0.,0.1535));
#1453=CARTESIAN_POINT('',(0.232449217129823,0.0306610471089053,0.119477357683662));
#1454=CARTESIAN_POINT('Origin',(0.556153035823126,0.,0.1535));
#1455=CARTESIAN_POINT('',(0.230846793262056,0.0417741472864051,0.134723402371736));
#1456=CARTESIAN_POINT('Origin',(0.228873293327446,0.,0.1535));
#1457=CARTESIAN_POINT('',(0.229501829060618,0.0441691744904425,0.141387030717745));
#1458=CARTESIAN_POINT('Ctrl Pts',(0.229501829060618,0.0441691744904425,
0.141387030717745));
#1459=CARTESIAN_POINT('Ctrl Pts',(0.23007655987829,0.043647859261378,0.139486087787856));
#1460=CARTESIAN_POINT('Ctrl Pts',(0.230492340039123,0.0429761913845027,
0.137530324766339));
#1461=CARTESIAN_POINT('Ctrl Pts',(0.230780958243517,0.0420361676493069,
0.135314711470053));
#1462=CARTESIAN_POINT('Ctrl Pts',(0.230815777732665,0.0419067853850771,
0.135018495422107));
#1463=CARTESIAN_POINT('Ctrl Pts',(0.230846793262056,0.0417741472864051,
0.134723402371736));
#1464=CARTESIAN_POINT('',(0.235,0.044,0.14078622793975));
#1465=CARTESIAN_POINT('Origin',(1.665,0.,0.1535));
#1466=CARTESIAN_POINT('',(0.239982601911555,0.044,0.14078622793975));
#1467=CARTESIAN_POINT('',(0.2425,0.044,0.14078622793975));
#1468=CARTESIAN_POINT('Ctrl Pts',(0.240792012215739,0.0422284328320684,
0.135768687004412));
#1469=CARTESIAN_POINT('Ctrl Pts',(0.240620602193182,0.0429132141873596,
0.13739954443013));
#1470=CARTESIAN_POINT('Ctrl Pts',(0.240353886014524,0.0435090942119794,
0.139087294328973));
#1471=CARTESIAN_POINT('Ctrl Pts',(0.239982601911555,0.044,0.14078622793975));
#1472=CARTESIAN_POINT('Origin',(0.2425,0.,0.1535));
#1473=CARTESIAN_POINT('',(0.240792012215739,-0.0422284328320684,0.135768687004412));
#1474=CARTESIAN_POINT('',(0.242394436083505,-0.0317826034207998,0.120522642316338));
#1475=CARTESIAN_POINT('Origin',(0.238928376123081,0.,0.1535));
#1476=CARTESIAN_POINT('',(0.239982601911555,-0.044,0.14078622793975));
#1477=CARTESIAN_POINT('Ctrl Pts',(0.239982601911555,-0.044,0.14078622793975));
#1478=CARTESIAN_POINT('Ctrl Pts',(0.240353799079727,-0.043509209155751,
0.139087692127984));
#1479=CARTESIAN_POINT('Ctrl Pts',(0.240620584495574,-0.0429132848891274,
0.137399712811617));
#1480=CARTESIAN_POINT('Ctrl Pts',(0.240792012215739,-0.0422284328320684,
0.135768687004412));
#1481=CARTESIAN_POINT('',(0.235,-0.044,0.14078622793975));
#1482=CARTESIAN_POINT('',(0.2425,-0.044,0.14078622793975));
#1483=CARTESIAN_POINT('',(0.229501829060618,-0.0441691744904425,0.141387030717745));
#1484=CARTESIAN_POINT('Origin',(1.665,0.,0.1535));
#1485=CARTESIAN_POINT('',(0.230846793262056,-0.0417741472864051,0.134723402371736));
#1486=CARTESIAN_POINT('Ctrl Pts',(0.230846793262056,-0.0417741472864051,
0.134723402371736));
#1487=CARTESIAN_POINT('Ctrl Pts',(0.230815777732665,-0.0419067853850771,
0.135018495422107));
#1488=CARTESIAN_POINT('Ctrl Pts',(0.230780958243517,-0.0420361676493069,
0.135314711470053));
#1489=CARTESIAN_POINT('Ctrl Pts',(0.230492340039123,-0.0429761913845027,
0.137530324766339));
#1490=CARTESIAN_POINT('Ctrl Pts',(0.23007655987829,-0.043647859261378,0.139486087787856));
#1491=CARTESIAN_POINT('Ctrl Pts',(0.229501829060618,-0.0441691744904425,
0.141387030717745));
#1492=CARTESIAN_POINT('',(0.232449217129823,-0.0306610471089053,0.119477357683662));
#1493=CARTESIAN_POINT('Origin',(0.228873293327446,0.,0.1535));
#1494=CARTESIAN_POINT('Origin',(0.556153035823126,0.,0.1535));
#1495=CARTESIAN_POINT('Origin',(0.04,-0.05,0.1225));
#1496=CARTESIAN_POINT('',(0.235,-0.044,0.153760855528931));
#1497=CARTESIAN_POINT('',(0.235,-0.044,0.1225));
#1498=CARTESIAN_POINT('',(0.149592090245166,-0.0466279356847641,0.138584281418013));
#1499=CARTESIAN_POINT('Origin',(0.195,-0.0452307692307692,0.130955752579201));
#1500=CARTESIAN_POINT('',(0.139556089739919,-0.0469367357003102,0.0788461831724985));
#1501=CARTESIAN_POINT('',(0.141774454935189,-0.0468684783096865,0.0920507379062455));
#1502=CARTESIAN_POINT('',(0.126735751480982,-0.047331207646739,0.068));
#1503=CARTESIAN_POINT('Origin',(0.126735751480982,-0.047331207646739,0.081));
#1504=CARTESIAN_POINT('',(0.0377713407424923,-0.0500685741310002,0.068));
#1505=CARTESIAN_POINT('',(0.126735751480982,-0.047331207646739,0.058));
#1506=CARTESIAN_POINT('',(0.0377713407424923,-0.0500685741310002,0.058));
#1507=CARTESIAN_POINT('',(0.14941788840064,-0.0466332957415188,0.0771894009974974));
#1508=CARTESIAN_POINT('Origin',(0.126735751480982,-0.047331207646739,0.081));
#1509=CARTESIAN_POINT('',(0.159453888905887,-0.0463244957259727,0.136927499243012));
#1510=CARTESIAN_POINT('',(0.151635997319311,-0.0465650462363289,0.0903924302753029));
#1511=CARTESIAN_POINT('Origin',(0.195,-0.0452307692307692,0.130955752579201));
#1512=CARTESIAN_POINT('Origin',(0.235,-0.044,0.1225));
#1513=CARTESIAN_POINT('Origin',(0.195,-0.044,0.130955752579201));
#1514=CARTESIAN_POINT('Origin',(0.195,0.,0.130955752579201));
#1515=CARTESIAN_POINT('',(0.240792012215739,0.,0.135768687004412));
#1516=CARTESIAN_POINT('',(0.235,0.044,0.153760855528931));
#1517=CARTESIAN_POINT('Origin',(0.195,0.044,0.130955752579201));
#1518=CARTESIAN_POINT('',(0.149592090245166,0.0466279356847641,0.138584281418013));
#1519=CARTESIAN_POINT('Origin',(0.195,0.0452307692307692,0.130955752579201));
#1520=CARTESIAN_POINT('',(0.149592090245166,0.,0.138584281418013));
#1521=CARTESIAN_POINT('Origin',(0.235,0.044,0.1225));
#1522=CARTESIAN_POINT('',(0.159453888905887,0.0463244957259727,0.136927499243012));
#1523=CARTESIAN_POINT('Origin',(0.195,0.0452307692307692,0.130955752579201));
#1524=CARTESIAN_POINT('',(0.14941788840064,0.0466332957415188,0.0771894009974974));
#1525=CARTESIAN_POINT('',(0.154314765479835,0.0464826226006205,0.106337478849849));
#1526=CARTESIAN_POINT('',(0.126735751480982,0.047331207646739,0.058));
#1527=CARTESIAN_POINT('Origin',(0.126735751480982,0.047331207646739,0.081));
#1528=CARTESIAN_POINT('',(0.04,0.05,0.058));
#1529=CARTESIAN_POINT('',(0.135271340742492,0.0470685741310002,0.058));
#1530=CARTESIAN_POINT('',(0.04,0.05,0.068));
#1531=CARTESIAN_POINT('',(0.0399999999999999,0.05,0.125061511172019));
#1532=CARTESIAN_POINT('',(0.126735751480982,0.047331207646739,0.068));
#1533=CARTESIAN_POINT('',(0.135271340742492,0.0470685741310002,0.068));
#1534=CARTESIAN_POINT('',(0.139556089739919,0.0469367357003102,0.0788461831724985));
#1535=CARTESIAN_POINT('Origin',(0.126735751480982,0.047331207646739,0.081));
#1536=CARTESIAN_POINT('',(0.144453223095712,0.0467860546739781,0.107995786480791));
#1537=CARTESIAN_POINT('',(0.235,0.044,0.1225));
#1538=CARTESIAN_POINT('Origin',(0.265,0.044,0.1225));
#1539=CARTESIAN_POINT('Origin',(0.240792012215739,0.,0.135768687004413));
#1540=CARTESIAN_POINT('',(0.242394436083505,0.,0.120522642316338));
#1541=CARTESIAN_POINT('Origin',(0.126735751480982,0.,0.081));
#1542=CARTESIAN_POINT('',(0.14941788840064,0.,0.0771894009974974));
#1543=CARTESIAN_POINT('',(0.126735751480982,0.,0.058));
#1544=CARTESIAN_POINT('Origin',(0.237421826606664,0.025,0.12));
#1545=CARTESIAN_POINT('',(0.232449217129823,0.,0.119477357683662));
#1546=CARTESIAN_POINT('Origin',(0.14941788840064,0.,0.0771894009974974));
#1547=CARTESIAN_POINT('',(0.159453888905887,0.,0.136927499243012));
#1548=CARTESIAN_POINT('Origin',(0.195,0.,0.130955752579201));
#1549=CARTESIAN_POINT('',(0.230846793262056,0.,0.134723402371736));
#1550=CARTESIAN_POINT('Origin',(0.230846793262056,0.,0.134723402371736));
#1551=CARTESIAN_POINT('Origin',(0.034,0.,0.058));
#1552=CARTESIAN_POINT('',(0.034,0.05,0.058));
#1553=CARTESIAN_POINT('',(0.034,0.,0.058));
#1554=CARTESIAN_POINT('',(0.034,0.05,0.058));
#1555=CARTESIAN_POINT('Origin',(0.139556089739919,0.,0.0788461831724985));
#1556=CARTESIAN_POINT('',(0.139556089739919,0.,0.0788461831724985));
#1557=CARTESIAN_POINT('Origin',(0.126735751480982,0.,0.081));
#1558=CARTESIAN_POINT('',(0.126735751480982,0.,0.068));
#1559=CARTESIAN_POINT('Origin',(0.034,0.,0.068));
#1560=CARTESIAN_POINT('',(0.034,0.05,0.068));
#1561=CARTESIAN_POINT('',(0.034,0.05,0.068));
#1562=CARTESIAN_POINT('',(0.034,0.,0.068));
#1563=CARTESIAN_POINT('Origin',(0.034,0.,0.034));
#1564=CARTESIAN_POINT('',(0.034,0.05,-8.67361737988404E-19));
#1565=CARTESIAN_POINT('Origin',(0.034,0.05,0.034));
#1566=CARTESIAN_POINT('',(0.034,0.,-8.67361737988404E-19));
#1567=CARTESIAN_POINT('Origin',(0.17,0.,8.67361737988404E-19));
#1568=CARTESIAN_POINT('',(0.17,0.05,1.04083408558608E-17));
#1569=CARTESIAN_POINT('',(0.17,0.05,8.67361737988404E-19));
#1570=CARTESIAN_POINT('',(0.17,0.,1.04083408558608E-17));
#1571=CARTESIAN_POINT('Origin',(0.17,0.,0.015));
#1572=CARTESIAN_POINT('',(0.185,0.05,0.015));
#1573=CARTESIAN_POINT('Origin',(0.17,0.05,0.015));
#1574=CARTESIAN_POINT('',(0.185,0.,0.015));
#1575=CARTESIAN_POINT('Origin',(0.185,0.,0.0325));
#1576=CARTESIAN_POINT('',(0.185,0.05,0.0325));
#1577=CARTESIAN_POINT('',(0.185,0.05,0.0325));
#1578=CARTESIAN_POINT('',(0.185,0.,0.0325));
#1579=CARTESIAN_POINT('Origin',(0.2025,0.,0.0325));
#1580=CARTESIAN_POINT('',(0.22,0.05,0.0325));
#1581=CARTESIAN_POINT('Origin',(0.2025,0.05,0.0325));
#1582=CARTESIAN_POINT('',(0.22,0.,0.0325));
#1583=CARTESIAN_POINT('Origin',(0.22,0.,0.015));
#1584=CARTESIAN_POINT('',(0.22,0.05,0.015));
#1585=CARTESIAN_POINT('',(0.22,0.05,0.015));
#1586=CARTESIAN_POINT('',(0.22,0.,0.015));
#1587=CARTESIAN_POINT('Origin',(0.235,0.,0.015));
#1588=CARTESIAN_POINT('Origin',(0.235,0.05,0.015));
#1589=CARTESIAN_POINT('Origin',(0.034,0.,0.034));
#1590=CARTESIAN_POINT('',(0.034,0.05,0.01));
#1591=CARTESIAN_POINT('',(0.034,0.,0.01));
#1592=CARTESIAN_POINT('Origin',(0.034,0.05,0.034));
#1593=CARTESIAN_POINT('Origin',(0.17,0.,0.01));
#1594=CARTESIAN_POINT('',(0.17,0.05,0.01));
#1595=CARTESIAN_POINT('',(0.17,0.,0.01));
#1596=CARTESIAN_POINT('',(0.17,0.05,0.01));
#1597=CARTESIAN_POINT('Origin',(0.17,0.,0.015));
#1598=CARTESIAN_POINT('',(0.175,0.05,0.015));
#1599=CARTESIAN_POINT('',(0.175,0.,0.015));
#1600=CARTESIAN_POINT('Origin',(0.17,0.05,0.015));
#1601=CARTESIAN_POINT('Origin',(0.175,0.,0.0325));
#1602=CARTESIAN_POINT('',(0.175,0.05,0.0325));
#1603=CARTESIAN_POINT('',(0.175,0.,0.0325));
#1604=CARTESIAN_POINT('',(0.175,0.05,0.0325));
#1605=CARTESIAN_POINT('Origin',(0.2025,0.,0.0325));
#1606=CARTESIAN_POINT('',(0.23,0.05,0.0325));
#1607=CARTESIAN_POINT('',(0.23,0.,0.0325));
#1608=CARTESIAN_POINT('Origin',(0.2025,0.05,0.0325));
#1609=CARTESIAN_POINT('Origin',(0.23,0.,0.015));
#1610=CARTESIAN_POINT('',(0.23,0.05,0.015));
#1611=CARTESIAN_POINT('',(0.23,0.,0.015));
#1612=CARTESIAN_POINT('',(0.23,0.05,0.015));
#1613=CARTESIAN_POINT('Origin',(0.235,0.,0.015));
#1614=CARTESIAN_POINT('Origin',(0.235,0.05,0.015));
#1615=CARTESIAN_POINT('Origin',(0.005,0.05,0.034));
#1616=UNCERTAINTY_MEASURE_WITH_UNIT(LENGTH_MEASURE(0.001),#1620,
'DISTANCE_ACCURACY_VALUE',
'Maximum model space distance between geometric entities at asserted c
onnectivities');
#1617=UNCERTAINTY_MEASURE_WITH_UNIT(LENGTH_MEASURE(0.001),#1620,
'DISTANCE_ACCURACY_VALUE',
'Maximum model space distance between geometric entities at asserted c
onnectivities');
#1618=(
GEOMETRIC_REPRESENTATION_CONTEXT(3)
GLOBAL_UNCERTAINTY_ASSIGNED_CONTEXT((#1616))
GLOBAL_UNIT_ASSIGNED_CONTEXT((#1620,#1622,#1623))
REPRESENTATION_CONTEXT('','3D')
);
#1619=(
GEOMETRIC_REPRESENTATION_CONTEXT(3)
GLOBAL_UNCERTAINTY_ASSIGNED_CONTEXT((#1617))
GLOBAL_UNIT_ASSIGNED_CONTEXT((#1620,#1622,#1623))
REPRESENTATION_CONTEXT('','3D')
);
#1620=(
LENGTH_UNIT()
NAMED_UNIT(*)
SI_UNIT(.CENTI.,.METRE.)
);
#1621=(
LENGTH_UNIT()
NAMED_UNIT(*)
SI_UNIT($,.METRE.)
);
#1622=(
NAMED_UNIT(*)
PLANE_ANGLE_UNIT()
SI_UNIT($,.RADIAN.)
);
#1623=(
NAMED_UNIT(*)
SI_UNIT($,.STERADIAN.)
SOLID_ANGLE_UNIT()
);
#1624=SHAPE_DEFINITION_REPRESENTATION(#1625,#1626);
#1625=PRODUCT_DEFINITION_SHAPE('',$,#1628);
#1626=SHAPE_REPRESENTATION('',(#912),#1618);
#1627=PRODUCT_DEFINITION_CONTEXT('part definition',#1632,'design');
#1628=PRODUCT_DEFINITION('2026-09-28-11-39-46-528',
'BW0041CG-L2.5W1.0H1.8',#1629,#1627);
#1629=PRODUCT_DEFINITION_FORMATION('',$,#1634);
#1630=PRODUCT_RELATED_PRODUCT_CATEGORY('BW0041CG-L2.5W1.0H1.8',
'BW0041CG-L2.5W1.0H1.8',(#1634));
#1631=APPLICATION_PROTOCOL_DEFINITION('international standard',
'automotive_design',2009,#1632);
#1632=APPLICATION_CONTEXT(
'Core Data for Automotive Mechanical Design Process');
#1633=PRODUCT_CONTEXT('part definition',#1632,'mechanical');
#1634=PRODUCT('2026-09-28-11-39-46-528','BW0041CG-L2.5W1.0H1.8',$,(#1633));
#1635=PRESENTATION_STYLE_ASSIGNMENT((#1637));
#1636=PRESENTATION_STYLE_ASSIGNMENT((#1638));
#1637=SURFACE_STYLE_USAGE(.BOTH.,#1639);
#1638=SURFACE_STYLE_USAGE(.BOTH.,#1640);
#1639=SURFACE_SIDE_STYLE('',(#1641));
#1640=SURFACE_SIDE_STYLE('',(#1642));
#1641=SURFACE_STYLE_FILL_AREA(#1643);
#1642=SURFACE_STYLE_FILL_AREA(#1644);
#1643=FILL_AREA_STYLE('Stahl - satiniert',(#1645));
#1644=FILL_AREA_STYLE('Edelstahl - satiniert',(#1646));
#1645=FILL_AREA_STYLE_COLOUR('Stahl - satiniert',#1647);
#1646=FILL_AREA_STYLE_COLOUR('Edelstahl - satiniert',#1648);
#1647=COLOUR_RGB('Stahl - satiniert',0.627450980392157,0.627450980392157,
0.627450980392157);
#1648=COLOUR_RGB('Edelstahl - satiniert',0.796078431372549,0.796078431372549,
0.796078431372549);
ENDSEC;
END-ISO-10303-21;
