ISO-10303-21;
HEADER;
/* Nordic_WLCSP-35_3.0775x2.3775mm_Layout7x5_P0.44mm.step 3D STEP model for use in ECAD systems
 * Copyright (C) 2026, KiCAD
 *
 * This work is licensed under the
 * [Creative Commons CC-BY-SA 4.0 License](https://creativecommons.org/licenses/by-sa/4.0/legalcode),
 * with the following exception:
 *
 * To the extent that the creation of electronic designs that use 'Licensed Material' can be
 * considered to be 'Adapted Material', then the copyright holder waives article 3 of the license
 * with respect to these designs and any generated files which use data provided as part of the
 * 'Licensed Material'.
 *
 * You are free to use the library data in your own projects without the obligation to share your
 * project files under this or any other license agreement. However, if you wish to distribute
 * these libraries, or parts thereof (including in modified form) as a collection then the exception
 * above does not apply. Please refer to
 * https://gitlab.com/kicad/libraries/kicad-packages3D/-/blob/master/LICENSE.md for further clarification
 * of the exception.
 *
 * Disclaimer of Warranties and Limitation of Liability.
 * These libraries are provided in the hope that they will be useful, but are provided without warranty of any kind, express or implied.
 * USE 3D CAD DATA AT YOUR OWN RISK
 * DO NOT RELY UPON ANY INFORMATION FOUND HERE WITHOUT INDEPENDENT VERIFICATION.
 */

FILE_DESCRIPTION(
/* description */ ('model of Nordic_WLCSP-35_3.0775x2.3775mm_Layout7x5_P0.44mm'),
/* implementation_level */ '2;1');

FILE_NAME(
/* name */ 'Nordic_WLCSP-35_3.0775x2.3775mm_Layout7x5_P0.44mm.step',
/* time_stamp */ '1970-01-01T00:00:00',
/* author */ ('KiCAD','kicad'),
/* organization */ ('OCCT'),
/* preprocessor_version */ '',
/* originating_system */ 'KiCAD',
/* authorisation */ '');

FILE_SCHEMA(('AUTOMOTIVE_DESIGN { 1 0 10303 214 1 1 1 1 }'));
ENDSEC;

DATA;
#1=APPLICATION_PROTOCOL_DEFINITION('international standard','automotive_design',2000,#2);
#2=APPLICATION_CONTEXT('core data for automotive mechanical design processes');
#3=SHAPE_DEFINITION_REPRESENTATION(#4,#10);
#4=PRODUCT_DEFINITION_SHAPE('','',#5);
#5=PRODUCT_DEFINITION('design','',#6,#9);
#6=PRODUCT_DEFINITION_FORMATION('','',#7);
#7=PRODUCT('Nordic_WLCSP-35_3.0775x2.3775mm_Layout7x5_P0.44mm','Nordic_WLCSP-35_3.0775x2.3775mm_Layout7x5_P0.44mm','',(#8));
#8=PRODUCT_CONTEXT('',#2,'mechanical');
#9=PRODUCT_DEFINITION_CONTEXT('part definition',#2,'design');
#10=ADVANCED_BREP_SHAPE_REPRESENTATION('',(#11,#15),#915);
#11=AXIS2_PLACEMENT_3D('',#12,#13,#14);
#12=CARTESIAN_POINT('',(0.,0.,0.));
#13=DIRECTION('',(0.,0.,1.));
#14=DIRECTION('',(1.,0.,-0.));
#15=MANIFOLD_SOLID_BREP('',#16);
#16=CLOSED_SHELL('',(#17,#46,#66,#89,#103,#428,#435,#453,#468,#481,#494,#507,#520,#533,#546,#559,#572,#585,#598,#611,#624,#637,#650,#663,#676,#689,#702,#715,#728,#741,#754,#767,#780,#793,#806,#819,#832,#845,#858,#871,#884,#897,#910));
#17=ADVANCED_FACE('',(#18),#43,.F.);
#18=FACE_BOUND('',#19,.F.);
#19=EDGE_LOOP('',(#20,#28,#35,#40));
#20=ORIENTED_EDGE('',*,*,#21,.F.);
#21=EDGE_CURVE('',#22,#24,#26,.T.);
#22=VERTEX_POINT('',#23);
#23=CARTESIAN_POINT('',(-1.53875,-1.18875,0.17));
#24=VERTEX_POINT('',#25);
#25=CARTESIAN_POINT('',(-1.53875,-1.18875,0.85));
#26=LINE('',#23,#27);
#27=VECTOR('',#13,1.);
#28=ORIENTED_EDGE('',*,*,#29,.T.);
#29=EDGE_CURVE('',#22,#30,#32,.T.);
#30=VERTEX_POINT('',#31);
#31=CARTESIAN_POINT('',(-1.53875,1.18875,0.17));
#32=LINE('',#23,#33);
#33=VECTOR('',#34,1.);
#34=DIRECTION('',(0.,1.,0.));
#35=ORIENTED_EDGE('',*,*,#36,.T.);
#36=EDGE_CURVE('',#30,#37,#39,.T.);
#37=VERTEX_POINT('',#38);
#38=CARTESIAN_POINT('',(-1.53875,1.18875,0.85));
#39=LINE('',#31,#27);
#40=ORIENTED_EDGE('',*,*,#41,.F.);
#41=EDGE_CURVE('',#24,#37,#42,.T.);
#42=LINE('',#25,#33);
#43=PLANE('',#44);
#44=AXIS2_PLACEMENT_3D('',#23,#45,#13);
#45=DIRECTION('',(1.,0.,0.));
#46=ADVANCED_FACE('',(#47),#64,.F.);
#47=FACE_BOUND('',#48,.F.);
#48=EDGE_LOOP('',(#49,#55,#56,#61));
#49=ORIENTED_EDGE('',*,*,#50,.F.);
#50=EDGE_CURVE('',#22,#51,#53,.T.);
#51=VERTEX_POINT('',#52);
#52=CARTESIAN_POINT('',(1.53875,-1.18875,0.17));
#53=LINE('',#23,#54);
#54=VECTOR('',#45,1.);
#55=ORIENTED_EDGE('',*,*,#21,.T.);
#56=ORIENTED_EDGE('',*,*,#57,.T.);
#57=EDGE_CURVE('',#24,#58,#60,.T.);
#58=VERTEX_POINT('',#59);
#59=CARTESIAN_POINT('',(1.53875,-1.18875,0.85));
#60=LINE('',#25,#54);
#61=ORIENTED_EDGE('',*,*,#62,.F.);
#62=EDGE_CURVE('',#51,#58,#63,.T.);
#63=LINE('',#52,#27);
#64=PLANE('',#65);
#65=AXIS2_PLACEMENT_3D('',#23,#34,#13);
#66=ADVANCED_FACE('',(#67,#77),#87,.T.);
#67=FACE_BOUND('',#68,.T.);
#68=EDGE_LOOP('',(#40,#56,#69,#74));
#69=ORIENTED_EDGE('',*,*,#70,.T.);
#70=EDGE_CURVE('',#58,#71,#73,.T.);
#71=VERTEX_POINT('',#72);
#72=CARTESIAN_POINT('',(1.53875,1.18875,0.85));
#73=LINE('',#59,#33);
#74=ORIENTED_EDGE('',*,*,#75,.F.);
#75=EDGE_CURVE('',#37,#71,#76,.T.);
#76=LINE('',#38,#54);
#77=FACE_BOUND('',#78,.T.);
#78=EDGE_LOOP('',(#79));
#79=ORIENTED_EDGE('',*,*,#80,.T.);
#80=EDGE_CURVE('',#81,#81,#83,.T.);
#81=VERTEX_POINT('',#82);
#82=CARTESIAN_POINT('',(-1.077125,0.881,0.85));
#83=CIRCLE('',#84,0.153875);
#84=AXIS2_PLACEMENT_3D('',#85,#86,#45);
#85=CARTESIAN_POINT('',(-1.231,0.881,0.85));
#86=DIRECTION('',(0.,0.,-1.));
#87=PLANE('',#88);
#88=AXIS2_PLACEMENT_3D('',#25,#13,#45);
#89=ADVANCED_FACE('',(#90),#101,.T.);
#90=FACE_BOUND('',#91,.T.);
#91=EDGE_LOOP('',(#92,#35,#97,#98));
#92=ORIENTED_EDGE('',*,*,#93,.F.);
#93=EDGE_CURVE('',#30,#94,#96,.T.);
#94=VERTEX_POINT('',#95);
#95=CARTESIAN_POINT('',(1.53875,1.18875,0.17));
#96=LINE('',#31,#54);
#97=ORIENTED_EDGE('',*,*,#75,.T.);
#98=ORIENTED_EDGE('',*,*,#99,.F.);
#99=EDGE_CURVE('',#94,#71,#100,.T.);
#100=LINE('',#95,#27);
#101=PLANE('',#102);
#102=AXIS2_PLACEMENT_3D('',#31,#34,#13);
#103=ADVANCED_FACE('',(#104,#111,#120,#129,#138,#147,#156,#165,#174,#183,#192,#201,#210,#219,#228,#237,#246,#255,#264,#273,#282,#291,#300,#309,#318,#327,#336,#345,#354,#363,#372,#381,#390,#399,#408,#417),#426,.F.);
#104=FACE_BOUND('',#105,.F.);
#105=EDGE_LOOP('',(#106,#107,#108,#92));
#106=ORIENTED_EDGE('',*,*,#29,.F.);
#107=ORIENTED_EDGE('',*,*,#50,.T.);
#108=ORIENTED_EDGE('',*,*,#109,.T.);
#109=EDGE_CURVE('',#51,#94,#110,.T.);
#110=LINE('',#52,#33);
#111=FACE_BOUND('',#112,.F.);
#112=EDGE_LOOP('',(#113));
#113=ORIENTED_EDGE('',*,*,#114,.F.);
#114=EDGE_CURVE('',#115,#115,#117,.T.);
#115=VERTEX_POINT('',#116);
#116=CARTESIAN_POINT('',(-1.153814411738,-0.88,0.17));
#117=CIRCLE('',#118,0.103185588262);
#118=AXIS2_PLACEMENT_3D('',#119,#13,#14);
#119=CARTESIAN_POINT('',(-1.257,-0.88,0.17));
#120=FACE_BOUND('',#121,.F.);
#121=EDGE_LOOP('',(#122));
#122=ORIENTED_EDGE('',*,*,#123,.F.);
#123=EDGE_CURVE('',#124,#124,#126,.T.);
#124=VERTEX_POINT('',#125);
#125=CARTESIAN_POINT('',(-0.734814411738,-0.88,0.17));
#126=CIRCLE('',#127,0.103185588262);
#127=AXIS2_PLACEMENT_3D('',#128,#13,#14);
#128=CARTESIAN_POINT('',(-0.838,-0.88,0.17));
#129=FACE_BOUND('',#130,.F.);
#130=EDGE_LOOP('',(#131));
#131=ORIENTED_EDGE('',*,*,#132,.F.);
#132=EDGE_CURVE('',#133,#133,#135,.T.);
#133=VERTEX_POINT('',#134);
#134=CARTESIAN_POINT('',(-0.315814411738,-0.88,0.17));
#135=CIRCLE('',#136,0.103185588262);
#136=AXIS2_PLACEMENT_3D('',#137,#13,#14);
#137=CARTESIAN_POINT('',(-0.419,-0.88,0.17));
#138=FACE_BOUND('',#139,.F.);
#139=EDGE_LOOP('',(#140));
#140=ORIENTED_EDGE('',*,*,#141,.F.);
#141=EDGE_CURVE('',#142,#142,#144,.T.);
#142=VERTEX_POINT('',#143);
#143=CARTESIAN_POINT('',(-1.153814411738,-0.44,0.17));
#144=CIRCLE('',#145,0.103185588262);
#145=AXIS2_PLACEMENT_3D('',#146,#13,#14);
#146=CARTESIAN_POINT('',(-1.257,-0.44,0.17));
#147=FACE_BOUND('',#148,.F.);
#148=EDGE_LOOP('',(#149));
#149=ORIENTED_EDGE('',*,*,#150,.F.);
#150=EDGE_CURVE('',#151,#151,#153,.T.);
#151=VERTEX_POINT('',#152);
#152=CARTESIAN_POINT('',(-0.734814411738,-0.44,0.17));
#153=CIRCLE('',#154,0.103185588262);
#154=AXIS2_PLACEMENT_3D('',#155,#13,#14);
#155=CARTESIAN_POINT('',(-0.838,-0.44,0.17));
#156=FACE_BOUND('',#157,.F.);
#157=EDGE_LOOP('',(#158));
#158=ORIENTED_EDGE('',*,*,#159,.F.);
#159=EDGE_CURVE('',#160,#160,#162,.T.);
#160=VERTEX_POINT('',#161);
#161=CARTESIAN_POINT('',(-0.315814411738,-0.44,0.17));
#162=CIRCLE('',#163,0.103185588262);
#163=AXIS2_PLACEMENT_3D('',#164,#13,#14);
#164=CARTESIAN_POINT('',(-0.419,-0.44,0.17));
#165=FACE_BOUND('',#166,.F.);
#166=EDGE_LOOP('',(#167));
#167=ORIENTED_EDGE('',*,*,#168,.F.);
#168=EDGE_CURVE('',#169,#169,#171,.T.);
#169=VERTEX_POINT('',#170);
#170=CARTESIAN_POINT('',(0.103185588262,-0.88,0.17));
#171=CIRCLE('',#172,0.103185588262);
#172=AXIS2_PLACEMENT_3D('',#173,#13,#14);
#173=CARTESIAN_POINT('',(0.,-0.88,0.17));
#174=FACE_BOUND('',#175,.F.);
#175=EDGE_LOOP('',(#176));
#176=ORIENTED_EDGE('',*,*,#177,.F.);
#177=EDGE_CURVE('',#178,#178,#180,.T.);
#178=VERTEX_POINT('',#179);
#179=CARTESIAN_POINT('',(0.522185588262,-0.88,0.17));
#180=CIRCLE('',#181,0.103185588262);
#181=AXIS2_PLACEMENT_3D('',#182,#13,#14);
#182=CARTESIAN_POINT('',(0.419,-0.88,0.17));
#183=FACE_BOUND('',#184,.F.);
#184=EDGE_LOOP('',(#185));
#185=ORIENTED_EDGE('',*,*,#186,.F.);
#186=EDGE_CURVE('',#187,#187,#189,.T.);
#187=VERTEX_POINT('',#188);
#188=CARTESIAN_POINT('',(0.941185588262,-0.88,0.17));
#189=CIRCLE('',#190,0.103185588262);
#190=AXIS2_PLACEMENT_3D('',#191,#13,#14);
#191=CARTESIAN_POINT('',(0.838,-0.88,0.17));
#192=FACE_BOUND('',#193,.F.);
#193=EDGE_LOOP('',(#194));
#194=ORIENTED_EDGE('',*,*,#195,.F.);
#195=EDGE_CURVE('',#196,#196,#198,.T.);
#196=VERTEX_POINT('',#197);
#197=CARTESIAN_POINT('',(1.360185588262,-0.88,0.17));
#198=CIRCLE('',#199,0.103185588262);
#199=AXIS2_PLACEMENT_3D('',#200,#13,#14);
#200=CARTESIAN_POINT('',(1.257,-0.88,0.17));
#201=FACE_BOUND('',#202,.F.);
#202=EDGE_LOOP('',(#203));
#203=ORIENTED_EDGE('',*,*,#204,.F.);
#204=EDGE_CURVE('',#205,#205,#207,.T.);
#205=VERTEX_POINT('',#206);
#206=CARTESIAN_POINT('',(0.103185588262,-0.44,0.17));
#207=CIRCLE('',#208,0.103185588262);
#208=AXIS2_PLACEMENT_3D('',#209,#13,#14);
#209=CARTESIAN_POINT('',(0.,-0.44,0.17));
#210=FACE_BOUND('',#211,.F.);
#211=EDGE_LOOP('',(#212));
#212=ORIENTED_EDGE('',*,*,#213,.F.);
#213=EDGE_CURVE('',#214,#214,#216,.T.);
#214=VERTEX_POINT('',#215);
#215=CARTESIAN_POINT('',(0.522185588262,-0.44,0.17));
#216=CIRCLE('',#217,0.103185588262);
#217=AXIS2_PLACEMENT_3D('',#218,#13,#14);
#218=CARTESIAN_POINT('',(0.419,-0.44,0.17));
#219=FACE_BOUND('',#220,.F.);
#220=EDGE_LOOP('',(#221));
#221=ORIENTED_EDGE('',*,*,#222,.F.);
#222=EDGE_CURVE('',#223,#223,#225,.T.);
#223=VERTEX_POINT('',#224);
#224=CARTESIAN_POINT('',(0.941185588262,-0.44,0.17));
#225=CIRCLE('',#226,0.103185588262);
#226=AXIS2_PLACEMENT_3D('',#227,#13,#14);
#227=CARTESIAN_POINT('',(0.838,-0.44,0.17));
#228=FACE_BOUND('',#229,.F.);
#229=EDGE_LOOP('',(#230));
#230=ORIENTED_EDGE('',*,*,#231,.F.);
#231=EDGE_CURVE('',#232,#232,#234,.T.);
#232=VERTEX_POINT('',#233);
#233=CARTESIAN_POINT('',(1.360185588262,-0.44,0.17));
#234=CIRCLE('',#235,0.103185588262);
#235=AXIS2_PLACEMENT_3D('',#236,#13,#14);
#236=CARTESIAN_POINT('',(1.257,-0.44,0.17));
#237=FACE_BOUND('',#238,.F.);
#238=EDGE_LOOP('',(#239));
#239=ORIENTED_EDGE('',*,*,#240,.F.);
#240=EDGE_CURVE('',#241,#241,#243,.T.);
#241=VERTEX_POINT('',#242);
#242=CARTESIAN_POINT('',(-1.153814411738,-2.527318007667E-17,0.17));
#243=CIRCLE('',#244,0.103185588262);
#244=AXIS2_PLACEMENT_3D('',#245,#13,#14);
#245=CARTESIAN_POINT('',(-1.257,0.,0.17));
#246=FACE_BOUND('',#247,.F.);
#247=EDGE_LOOP('',(#248));
#248=ORIENTED_EDGE('',*,*,#249,.F.);
#249=EDGE_CURVE('',#250,#250,#252,.T.);
#250=VERTEX_POINT('',#251);
#251=CARTESIAN_POINT('',(-0.734814411738,-2.527318007667E-17,0.17));
#252=CIRCLE('',#253,0.103185588262);
#253=AXIS2_PLACEMENT_3D('',#254,#13,#14);
#254=CARTESIAN_POINT('',(-0.838,0.,0.17));
#255=FACE_BOUND('',#256,.F.);
#256=EDGE_LOOP('',(#257));
#257=ORIENTED_EDGE('',*,*,#258,.F.);
#258=EDGE_CURVE('',#259,#259,#261,.T.);
#259=VERTEX_POINT('',#260);
#260=CARTESIAN_POINT('',(-1.153814411738,0.44,0.17));
#261=CIRCLE('',#262,0.103185588262);
#262=AXIS2_PLACEMENT_3D('',#263,#13,#14);
#263=CARTESIAN_POINT('',(-1.257,0.44,0.17));
#264=FACE_BOUND('',#265,.F.);
#265=EDGE_LOOP('',(#266));
#266=ORIENTED_EDGE('',*,*,#267,.F.);
#267=EDGE_CURVE('',#268,#268,#270,.T.);
#268=VERTEX_POINT('',#269);
#269=CARTESIAN_POINT('',(-0.734814411738,0.44,0.17));
#270=CIRCLE('',#271,0.103185588262);
#271=AXIS2_PLACEMENT_3D('',#272,#13,#14);
#272=CARTESIAN_POINT('',(-0.838,0.44,0.17));
#273=FACE_BOUND('',#274,.F.);
#274=EDGE_LOOP('',(#275));
#275=ORIENTED_EDGE('',*,*,#276,.F.);
#276=EDGE_CURVE('',#277,#277,#279,.T.);
#277=VERTEX_POINT('',#278);
#278=CARTESIAN_POINT('',(-0.315814411738,-2.527318007667E-17,0.17));
#279=CIRCLE('',#280,0.103185588262);
#280=AXIS2_PLACEMENT_3D('',#281,#13,#14);
#281=CARTESIAN_POINT('',(-0.419,0.,0.17));
#282=FACE_BOUND('',#283,.F.);
#283=EDGE_LOOP('',(#284));
#284=ORIENTED_EDGE('',*,*,#285,.F.);
#285=EDGE_CURVE('',#286,#286,#288,.T.);
#286=VERTEX_POINT('',#287);
#287=CARTESIAN_POINT('',(-0.315814411738,0.44,0.17));
#288=CIRCLE('',#289,0.103185588262);
#289=AXIS2_PLACEMENT_3D('',#290,#13,#14);
#290=CARTESIAN_POINT('',(-0.419,0.44,0.17));
#291=FACE_BOUND('',#292,.F.);
#292=EDGE_LOOP('',(#293));
#293=ORIENTED_EDGE('',*,*,#294,.F.);
#294=EDGE_CURVE('',#295,#295,#297,.T.);
#295=VERTEX_POINT('',#296);
#296=CARTESIAN_POINT('',(-1.153814411738,0.88,0.17));
#297=CIRCLE('',#298,0.103185588262);
#298=AXIS2_PLACEMENT_3D('',#299,#13,#14);
#299=CARTESIAN_POINT('',(-1.257,0.88,0.17));
#300=FACE_BOUND('',#301,.F.);
#301=EDGE_LOOP('',(#302));
#302=ORIENTED_EDGE('',*,*,#303,.F.);
#303=EDGE_CURVE('',#304,#304,#306,.T.);
#304=VERTEX_POINT('',#305);
#305=CARTESIAN_POINT('',(-0.734814411738,0.88,0.17));
#306=CIRCLE('',#307,0.103185588262);
#307=AXIS2_PLACEMENT_3D('',#308,#13,#14);
#308=CARTESIAN_POINT('',(-0.838,0.88,0.17));
#309=FACE_BOUND('',#310,.F.);
#310=EDGE_LOOP('',(#311));
#311=ORIENTED_EDGE('',*,*,#312,.F.);
#312=EDGE_CURVE('',#313,#313,#315,.T.);
#313=VERTEX_POINT('',#314);
#314=CARTESIAN_POINT('',(-0.315814411738,0.88,0.17));
#315=CIRCLE('',#316,0.103185588262);
#316=AXIS2_PLACEMENT_3D('',#317,#13,#14);
#317=CARTESIAN_POINT('',(-0.419,0.88,0.17));
#318=FACE_BOUND('',#319,.F.);
#319=EDGE_LOOP('',(#320));
#320=ORIENTED_EDGE('',*,*,#321,.F.);
#321=EDGE_CURVE('',#322,#322,#324,.T.);
#322=VERTEX_POINT('',#323);
#323=CARTESIAN_POINT('',(0.103185588262,-2.527318007667E-17,0.17));
#324=CIRCLE('',#325,0.103185588262);
#325=AXIS2_PLACEMENT_3D('',#326,#13,#14);
#326=CARTESIAN_POINT('',(0.,0.,0.17));
#327=FACE_BOUND('',#328,.F.);
#328=EDGE_LOOP('',(#329));
#329=ORIENTED_EDGE('',*,*,#330,.F.);
#330=EDGE_CURVE('',#331,#331,#333,.T.);
#331=VERTEX_POINT('',#332);
#332=CARTESIAN_POINT('',(0.522185588262,-2.527318007667E-17,0.17));
#333=CIRCLE('',#334,0.103185588262);
#334=AXIS2_PLACEMENT_3D('',#335,#13,#14);
#335=CARTESIAN_POINT('',(0.419,0.,0.17));
#336=FACE_BOUND('',#337,.F.);
#337=EDGE_LOOP('',(#338));
#338=ORIENTED_EDGE('',*,*,#339,.F.);
#339=EDGE_CURVE('',#340,#340,#342,.T.);
#340=VERTEX_POINT('',#341);
#341=CARTESIAN_POINT('',(0.103185588262,0.44,0.17));
#342=CIRCLE('',#343,0.103185588262);
#343=AXIS2_PLACEMENT_3D('',#344,#13,#14);
#344=CARTESIAN_POINT('',(0.,0.44,0.17));
#345=FACE_BOUND('',#346,.F.);
#346=EDGE_LOOP('',(#347));
#347=ORIENTED_EDGE('',*,*,#348,.F.);
#348=EDGE_CURVE('',#349,#349,#351,.T.);
#349=VERTEX_POINT('',#350);
#350=CARTESIAN_POINT('',(0.522185588262,0.44,0.17));
#351=CIRCLE('',#352,0.103185588262);
#352=AXIS2_PLACEMENT_3D('',#353,#13,#14);
#353=CARTESIAN_POINT('',(0.419,0.44,0.17));
#354=FACE_BOUND('',#355,.F.);
#355=EDGE_LOOP('',(#356));
#356=ORIENTED_EDGE('',*,*,#357,.F.);
#357=EDGE_CURVE('',#358,#358,#360,.T.);
#358=VERTEX_POINT('',#359);
#359=CARTESIAN_POINT('',(0.941185588262,-2.527318007667E-17,0.17));
#360=CIRCLE('',#361,0.103185588262);
#361=AXIS2_PLACEMENT_3D('',#362,#13,#14);
#362=CARTESIAN_POINT('',(0.838,0.,0.17));
#363=FACE_BOUND('',#364,.F.);
#364=EDGE_LOOP('',(#365));
#365=ORIENTED_EDGE('',*,*,#366,.F.);
#366=EDGE_CURVE('',#367,#367,#369,.T.);
#367=VERTEX_POINT('',#368);
#368=CARTESIAN_POINT('',(1.360185588262,-2.527318007667E-17,0.17));
#369=CIRCLE('',#370,0.103185588262);
#370=AXIS2_PLACEMENT_3D('',#371,#13,#14);
#371=CARTESIAN_POINT('',(1.257,0.,0.17));
#372=FACE_BOUND('',#373,.F.);
#373=EDGE_LOOP('',(#374));
#374=ORIENTED_EDGE('',*,*,#375,.F.);
#375=EDGE_CURVE('',#376,#376,#378,.T.);
#376=VERTEX_POINT('',#377);
#377=CARTESIAN_POINT('',(0.941185588262,0.44,0.17));
#378=CIRCLE('',#379,0.103185588262);
#379=AXIS2_PLACEMENT_3D('',#380,#13,#14);
#380=CARTESIAN_POINT('',(0.838,0.44,0.17));
#381=FACE_BOUND('',#382,.F.);
#382=EDGE_LOOP('',(#383));
#383=ORIENTED_EDGE('',*,*,#384,.F.);
#384=EDGE_CURVE('',#385,#385,#387,.T.);
#385=VERTEX_POINT('',#386);
#386=CARTESIAN_POINT('',(1.360185588262,0.44,0.17));
#387=CIRCLE('',#388,0.103185588262);
#388=AXIS2_PLACEMENT_3D('',#389,#13,#14);
#389=CARTESIAN_POINT('',(1.257,0.44,0.17));
#390=FACE_BOUND('',#391,.F.);
#391=EDGE_LOOP('',(#392));
#392=ORIENTED_EDGE('',*,*,#393,.F.);
#393=EDGE_CURVE('',#394,#394,#396,.T.);
#394=VERTEX_POINT('',#395);
#395=CARTESIAN_POINT('',(0.103185588262,0.88,0.17));
#396=CIRCLE('',#397,0.103185588262);
#397=AXIS2_PLACEMENT_3D('',#398,#13,#14);
#398=CARTESIAN_POINT('',(0.,0.88,0.17));
#399=FACE_BOUND('',#400,.F.);
#400=EDGE_LOOP('',(#401));
#401=ORIENTED_EDGE('',*,*,#402,.F.);
#402=EDGE_CURVE('',#403,#403,#405,.T.);
#403=VERTEX_POINT('',#404);
#404=CARTESIAN_POINT('',(0.522185588262,0.88,0.17));
#405=CIRCLE('',#406,0.103185588262);
#406=AXIS2_PLACEMENT_3D('',#407,#13,#14);
#407=CARTESIAN_POINT('',(0.419,0.88,0.17));
#408=FACE_BOUND('',#409,.F.);
#409=EDGE_LOOP('',(#410));
#410=ORIENTED_EDGE('',*,*,#411,.F.);
#411=EDGE_CURVE('',#412,#412,#414,.T.);
#412=VERTEX_POINT('',#413);
#413=CARTESIAN_POINT('',(0.941185588262,0.88,0.17));
#414=CIRCLE('',#415,0.103185588262);
#415=AXIS2_PLACEMENT_3D('',#416,#13,#14);
#416=CARTESIAN_POINT('',(0.838,0.88,0.17));
#417=FACE_BOUND('',#418,.F.);
#418=EDGE_LOOP('',(#419));
#419=ORIENTED_EDGE('',*,*,#420,.F.);
#420=EDGE_CURVE('',#421,#421,#423,.T.);
#421=VERTEX_POINT('',#422);
#422=CARTESIAN_POINT('',(1.360185588262,0.88,0.17));
#423=CIRCLE('',#424,0.103185588262);
#424=AXIS2_PLACEMENT_3D('',#425,#13,#14);
#425=CARTESIAN_POINT('',(1.257,0.88,0.17));
#426=PLANE('',#427);
#427=AXIS2_PLACEMENT_3D('',#23,#13,#45);
#428=ADVANCED_FACE('',(#429),#433,.T.);
#429=FACE_BOUND('',#430,.T.);
#430=EDGE_LOOP('',(#61,#108,#431,#432));
#431=ORIENTED_EDGE('',*,*,#99,.T.);
#432=ORIENTED_EDGE('',*,*,#70,.F.);
#433=PLANE('',#434);
#434=AXIS2_PLACEMENT_3D('',#52,#45,#13);
#435=ADVANCED_FACE('',(#436),#450,.T.);
#436=FACE_BOUND('',#437,.F.);
#437=EDGE_LOOP('',(#438,#444,#449,#79));
#438=ORIENTED_EDGE('',*,*,#439,.F.);
#439=EDGE_CURVE('',#440,#81,#442,.T.);
#440=VERTEX_POINT('',#441);
#441=CARTESIAN_POINT('',(-1.077125,0.881,0.852));
#442=LINE('',#441,#443);
#443=VECTOR('',#86,1.);
#444=ORIENTED_EDGE('',*,*,#445,.T.);
#445=EDGE_CURVE('',#440,#440,#446,.T.);
#446=CIRCLE('',#447,0.153875);
#447=AXIS2_PLACEMENT_3D('',#448,#13,#14);
#448=CARTESIAN_POINT('',(-1.231,0.881,0.852));
#449=ORIENTED_EDGE('',*,*,#439,.T.);
#450=CYLINDRICAL_SURFACE('',#451,0.153875);
#451=AXIS2_PLACEMENT_3D('',#448,#452,#45);
#452=DIRECTION('',(-0.,-0.,-1.));
#453=ADVANCED_FACE('',(#454),#466,.T.);
#454=FACE_BOUND('',#455,.T.);
#455=EDGE_LOOP('',(#113,#456,#465));
#456=ORIENTED_EDGE('',*,*,#457,.F.);
#457=EDGE_CURVE('',#458,#115,#460,.T.);
#458=VERTEX_POINT('',#459);
#459=CARTESIAN_POINT('',(-1.257,-0.88,-5.625E-03));
#460=CIRCLE('',#461,0.118125);
#461=AXIS2_PLACEMENT_3D('',#462,#463,#464);
#462=CARTESIAN_POINT('',(-1.257,-0.88,0.1125));
#463=DIRECTION('',(-2.449293598295E-16,-1.,0.));
#464=DIRECTION('',(1.,-2.449293598295E-16,0.));
#465=ORIENTED_EDGE('',*,*,#457,.T.);
#466=SPHERICAL_SURFACE('',#467,0.118125);
#467=AXIS2_PLACEMENT_3D('',#462,#13,#45);
#468=ADVANCED_FACE('',(#469),#479,.T.);
#469=FACE_BOUND('',#470,.T.);
#470=EDGE_LOOP('',(#122,#471,#478));
#471=ORIENTED_EDGE('',*,*,#472,.F.);
#472=EDGE_CURVE('',#473,#124,#475,.T.);
#473=VERTEX_POINT('',#474);
#474=CARTESIAN_POINT('',(-0.838,-0.88,-5.625E-03));
#475=CIRCLE('',#476,0.118125);
#476=AXIS2_PLACEMENT_3D('',#477,#463,#464);
#477=CARTESIAN_POINT('',(-0.838,-0.88,0.1125));
#478=ORIENTED_EDGE('',*,*,#472,.T.);
#479=SPHERICAL_SURFACE('',#480,0.118125);
#480=AXIS2_PLACEMENT_3D('',#477,#13,#45);
#481=ADVANCED_FACE('',(#482),#492,.T.);
#482=FACE_BOUND('',#483,.T.);
#483=EDGE_LOOP('',(#131,#484,#491));
#484=ORIENTED_EDGE('',*,*,#485,.F.);
#485=EDGE_CURVE('',#486,#133,#488,.T.);
#486=VERTEX_POINT('',#487);
#487=CARTESIAN_POINT('',(-0.419,-0.88,-5.625E-03));
#488=CIRCLE('',#489,0.118125);
#489=AXIS2_PLACEMENT_3D('',#490,#463,#464);
#490=CARTESIAN_POINT('',(-0.419,-0.88,0.1125));
#491=ORIENTED_EDGE('',*,*,#485,.T.);
#492=SPHERICAL_SURFACE('',#493,0.118125);
#493=AXIS2_PLACEMENT_3D('',#490,#13,#45);
#494=ADVANCED_FACE('',(#495),#505,.T.);
#495=FACE_BOUND('',#496,.T.);
#496=EDGE_LOOP('',(#140,#497,#504));
#497=ORIENTED_EDGE('',*,*,#498,.F.);
#498=EDGE_CURVE('',#499,#142,#501,.T.);
#499=VERTEX_POINT('',#500);
#500=CARTESIAN_POINT('',(-1.257,-0.44,-5.625E-03));
#501=CIRCLE('',#502,0.118125);
#502=AXIS2_PLACEMENT_3D('',#503,#463,#464);
#503=CARTESIAN_POINT('',(-1.257,-0.44,0.1125));
#504=ORIENTED_EDGE('',*,*,#498,.T.);
#505=SPHERICAL_SURFACE('',#506,0.118125);
#506=AXIS2_PLACEMENT_3D('',#503,#13,#45);
#507=ADVANCED_FACE('',(#508),#518,.T.);
#508=FACE_BOUND('',#509,.T.);
#509=EDGE_LOOP('',(#149,#510,#517));
#510=ORIENTED_EDGE('',*,*,#511,.F.);
#511=EDGE_CURVE('',#512,#151,#514,.T.);
#512=VERTEX_POINT('',#513);
#513=CARTESIAN_POINT('',(-0.838,-0.44,-5.625E-03));
#514=CIRCLE('',#515,0.118125);
#515=AXIS2_PLACEMENT_3D('',#516,#463,#464);
#516=CARTESIAN_POINT('',(-0.838,-0.44,0.1125));
#517=ORIENTED_EDGE('',*,*,#511,.T.);
#518=SPHERICAL_SURFACE('',#519,0.118125);
#519=AXIS2_PLACEMENT_3D('',#516,#13,#45);
#520=ADVANCED_FACE('',(#521),#531,.T.);
#521=FACE_BOUND('',#522,.T.);
#522=EDGE_LOOP('',(#158,#523,#530));
#523=ORIENTED_EDGE('',*,*,#524,.F.);
#524=EDGE_CURVE('',#525,#160,#527,.T.);
#525=VERTEX_POINT('',#526);
#526=CARTESIAN_POINT('',(-0.419,-0.44,-5.625E-03));
#527=CIRCLE('',#528,0.118125);
#528=AXIS2_PLACEMENT_3D('',#529,#463,#464);
#529=CARTESIAN_POINT('',(-0.419,-0.44,0.1125));
#530=ORIENTED_EDGE('',*,*,#524,.T.);
#531=SPHERICAL_SURFACE('',#532,0.118125);
#532=AXIS2_PLACEMENT_3D('',#529,#13,#45);
#533=ADVANCED_FACE('',(#534),#544,.T.);
#534=FACE_BOUND('',#535,.T.);
#535=EDGE_LOOP('',(#167,#536,#543));
#536=ORIENTED_EDGE('',*,*,#537,.F.);
#537=EDGE_CURVE('',#538,#169,#540,.T.);
#538=VERTEX_POINT('',#539);
#539=CARTESIAN_POINT('',(7.233070157464E-18,-0.88,-5.625E-03));
#540=CIRCLE('',#541,0.118125);
#541=AXIS2_PLACEMENT_3D('',#542,#463,#464);
#542=CARTESIAN_POINT('',(0.,-0.88,0.1125));
#543=ORIENTED_EDGE('',*,*,#537,.T.);
#544=SPHERICAL_SURFACE('',#545,0.118125);
#545=AXIS2_PLACEMENT_3D('',#542,#13,#45);
#546=ADVANCED_FACE('',(#547),#557,.T.);
#547=FACE_BOUND('',#548,.T.);
#548=EDGE_LOOP('',(#176,#549,#556));
#549=ORIENTED_EDGE('',*,*,#550,.F.);
#550=EDGE_CURVE('',#551,#178,#553,.T.);
#551=VERTEX_POINT('',#552);
#552=CARTESIAN_POINT('',(0.419,-0.88,-5.625E-03));
#553=CIRCLE('',#554,0.118125);
#554=AXIS2_PLACEMENT_3D('',#555,#463,#464);
#555=CARTESIAN_POINT('',(0.419,-0.88,0.1125));
#556=ORIENTED_EDGE('',*,*,#550,.T.);
#557=SPHERICAL_SURFACE('',#558,0.118125);
#558=AXIS2_PLACEMENT_3D('',#555,#13,#45);
#559=ADVANCED_FACE('',(#560),#570,.T.);
#560=FACE_BOUND('',#561,.T.);
#561=EDGE_LOOP('',(#185,#562,#569));
#562=ORIENTED_EDGE('',*,*,#563,.F.);
#563=EDGE_CURVE('',#564,#187,#566,.T.);
#564=VERTEX_POINT('',#565);
#565=CARTESIAN_POINT('',(0.838,-0.88,-5.625E-03));
#566=CIRCLE('',#567,0.118125);
#567=AXIS2_PLACEMENT_3D('',#568,#463,#464);
#568=CARTESIAN_POINT('',(0.838,-0.88,0.1125));
#569=ORIENTED_EDGE('',*,*,#563,.T.);
#570=SPHERICAL_SURFACE('',#571,0.118125);
#571=AXIS2_PLACEMENT_3D('',#568,#13,#45);
#572=ADVANCED_FACE('',(#573),#583,.T.);
#573=FACE_BOUND('',#574,.T.);
#574=EDGE_LOOP('',(#194,#575,#582));
#575=ORIENTED_EDGE('',*,*,#576,.F.);
#576=EDGE_CURVE('',#577,#196,#579,.T.);
#577=VERTEX_POINT('',#578);
#578=CARTESIAN_POINT('',(1.257,-0.88,-5.625E-03));
#579=CIRCLE('',#580,0.118125);
#580=AXIS2_PLACEMENT_3D('',#581,#463,#464);
#581=CARTESIAN_POINT('',(1.257,-0.88,0.1125));
#582=ORIENTED_EDGE('',*,*,#576,.T.);
#583=SPHERICAL_SURFACE('',#584,0.118125);
#584=AXIS2_PLACEMENT_3D('',#581,#13,#45);
#585=ADVANCED_FACE('',(#586),#596,.T.);
#586=FACE_BOUND('',#587,.T.);
#587=EDGE_LOOP('',(#203,#588,#595));
#588=ORIENTED_EDGE('',*,*,#589,.F.);
#589=EDGE_CURVE('',#590,#205,#592,.T.);
#590=VERTEX_POINT('',#591);
#591=CARTESIAN_POINT('',(7.233070157464E-18,-0.44,-5.625E-03));
#592=CIRCLE('',#593,0.118125);
#593=AXIS2_PLACEMENT_3D('',#594,#463,#464);
#594=CARTESIAN_POINT('',(0.,-0.44,0.1125));
#595=ORIENTED_EDGE('',*,*,#589,.T.);
#596=SPHERICAL_SURFACE('',#597,0.118125);
#597=AXIS2_PLACEMENT_3D('',#594,#13,#45);
#598=ADVANCED_FACE('',(#599),#609,.T.);
#599=FACE_BOUND('',#600,.T.);
#600=EDGE_LOOP('',(#212,#601,#608));
#601=ORIENTED_EDGE('',*,*,#602,.F.);
#602=EDGE_CURVE('',#603,#214,#605,.T.);
#603=VERTEX_POINT('',#604);
#604=CARTESIAN_POINT('',(0.419,-0.44,-5.625E-03));
#605=CIRCLE('',#606,0.118125);
#606=AXIS2_PLACEMENT_3D('',#607,#463,#464);
#607=CARTESIAN_POINT('',(0.419,-0.44,0.1125));
#608=ORIENTED_EDGE('',*,*,#602,.T.);
#609=SPHERICAL_SURFACE('',#610,0.118125);
#610=AXIS2_PLACEMENT_3D('',#607,#13,#45);
#611=ADVANCED_FACE('',(#612),#622,.T.);
#612=FACE_BOUND('',#613,.T.);
#613=EDGE_LOOP('',(#221,#614,#621));
#614=ORIENTED_EDGE('',*,*,#615,.F.);
#615=EDGE_CURVE('',#616,#223,#618,.T.);
#616=VERTEX_POINT('',#617);
#617=CARTESIAN_POINT('',(0.838,-0.44,-5.625E-03));
#618=CIRCLE('',#619,0.118125);
#619=AXIS2_PLACEMENT_3D('',#620,#463,#464);
#620=CARTESIAN_POINT('',(0.838,-0.44,0.1125));
#621=ORIENTED_EDGE('',*,*,#615,.T.);
#622=SPHERICAL_SURFACE('',#623,0.118125);
#623=AXIS2_PLACEMENT_3D('',#620,#13,#45);
#624=ADVANCED_FACE('',(#625),#635,.T.);
#625=FACE_BOUND('',#626,.T.);
#626=EDGE_LOOP('',(#230,#627,#634));
#627=ORIENTED_EDGE('',*,*,#628,.F.);
#628=EDGE_CURVE('',#629,#232,#631,.T.);
#629=VERTEX_POINT('',#630);
#630=CARTESIAN_POINT('',(1.257,-0.44,-5.625E-03));
#631=CIRCLE('',#632,0.118125);
#632=AXIS2_PLACEMENT_3D('',#633,#463,#464);
#633=CARTESIAN_POINT('',(1.257,-0.44,0.1125));
#634=ORIENTED_EDGE('',*,*,#628,.T.);
#635=SPHERICAL_SURFACE('',#636,0.118125);
#636=AXIS2_PLACEMENT_3D('',#633,#13,#45);
#637=ADVANCED_FACE('',(#638),#648,.T.);
#638=FACE_BOUND('',#639,.T.);
#639=EDGE_LOOP('',(#239,#640,#647));
#640=ORIENTED_EDGE('',*,*,#641,.F.);
#641=EDGE_CURVE('',#642,#241,#644,.T.);
#642=VERTEX_POINT('',#643);
#643=CARTESIAN_POINT('',(-1.257,-1.771591243269E-33,-5.625E-03));
#644=CIRCLE('',#645,0.118125);
#645=AXIS2_PLACEMENT_3D('',#646,#463,#464);
#646=CARTESIAN_POINT('',(-1.257,0.,0.1125));
#647=ORIENTED_EDGE('',*,*,#641,.T.);
#648=SPHERICAL_SURFACE('',#649,0.118125);
#649=AXIS2_PLACEMENT_3D('',#646,#13,#45);
#650=ADVANCED_FACE('',(#651),#661,.T.);
#651=FACE_BOUND('',#652,.T.);
#652=EDGE_LOOP('',(#248,#653,#660));
#653=ORIENTED_EDGE('',*,*,#654,.F.);
#654=EDGE_CURVE('',#655,#250,#657,.T.);
#655=VERTEX_POINT('',#656);
#656=CARTESIAN_POINT('',(-0.838,-1.771591243269E-33,-5.625E-03));
#657=CIRCLE('',#658,0.118125);
#658=AXIS2_PLACEMENT_3D('',#659,#463,#464);
#659=CARTESIAN_POINT('',(-0.838,0.,0.1125));
#660=ORIENTED_EDGE('',*,*,#654,.T.);
#661=SPHERICAL_SURFACE('',#662,0.118125);
#662=AXIS2_PLACEMENT_3D('',#659,#13,#45);
#663=ADVANCED_FACE('',(#664),#674,.T.);
#664=FACE_BOUND('',#665,.T.);
#665=EDGE_LOOP('',(#257,#666,#673));
#666=ORIENTED_EDGE('',*,*,#667,.F.);
#667=EDGE_CURVE('',#668,#259,#670,.T.);
#668=VERTEX_POINT('',#669);
#669=CARTESIAN_POINT('',(-1.257,0.44,-5.625E-03));
#670=CIRCLE('',#671,0.118125);
#671=AXIS2_PLACEMENT_3D('',#672,#463,#464);
#672=CARTESIAN_POINT('',(-1.257,0.44,0.1125));
#673=ORIENTED_EDGE('',*,*,#667,.T.);
#674=SPHERICAL_SURFACE('',#675,0.118125);
#675=AXIS2_PLACEMENT_3D('',#672,#13,#45);
#676=ADVANCED_FACE('',(#677),#687,.T.);
#677=FACE_BOUND('',#678,.T.);
#678=EDGE_LOOP('',(#266,#679,#686));
#679=ORIENTED_EDGE('',*,*,#680,.F.);
#680=EDGE_CURVE('',#681,#268,#683,.T.);
#681=VERTEX_POINT('',#682);
#682=CARTESIAN_POINT('',(-0.838,0.44,-5.625E-03));
#683=CIRCLE('',#684,0.118125);
#684=AXIS2_PLACEMENT_3D('',#685,#463,#464);
#685=CARTESIAN_POINT('',(-0.838,0.44,0.1125));
#686=ORIENTED_EDGE('',*,*,#680,.T.);
#687=SPHERICAL_SURFACE('',#688,0.118125);
#688=AXIS2_PLACEMENT_3D('',#685,#13,#45);
#689=ADVANCED_FACE('',(#690),#700,.T.);
#690=FACE_BOUND('',#691,.T.);
#691=EDGE_LOOP('',(#275,#692,#699));
#692=ORIENTED_EDGE('',*,*,#693,.F.);
#693=EDGE_CURVE('',#694,#277,#696,.T.);
#694=VERTEX_POINT('',#695);
#695=CARTESIAN_POINT('',(-0.419,-1.771591243269E-33,-5.625E-03));
#696=CIRCLE('',#697,0.118125);
#697=AXIS2_PLACEMENT_3D('',#698,#463,#464);
#698=CARTESIAN_POINT('',(-0.419,0.,0.1125));
#699=ORIENTED_EDGE('',*,*,#693,.T.);
#700=SPHERICAL_SURFACE('',#701,0.118125);
#701=AXIS2_PLACEMENT_3D('',#698,#13,#45);
#702=ADVANCED_FACE('',(#703),#713,.T.);
#703=FACE_BOUND('',#704,.T.);
#704=EDGE_LOOP('',(#284,#705,#712));
#705=ORIENTED_EDGE('',*,*,#706,.F.);
#706=EDGE_CURVE('',#707,#286,#709,.T.);
#707=VERTEX_POINT('',#708);
#708=CARTESIAN_POINT('',(-0.419,0.44,-5.625E-03));
#709=CIRCLE('',#710,0.118125);
#710=AXIS2_PLACEMENT_3D('',#711,#463,#464);
#711=CARTESIAN_POINT('',(-0.419,0.44,0.1125));
#712=ORIENTED_EDGE('',*,*,#706,.T.);
#713=SPHERICAL_SURFACE('',#714,0.118125);
#714=AXIS2_PLACEMENT_3D('',#711,#13,#45);
#715=ADVANCED_FACE('',(#716),#726,.T.);
#716=FACE_BOUND('',#717,.T.);
#717=EDGE_LOOP('',(#293,#718,#725));
#718=ORIENTED_EDGE('',*,*,#719,.F.);
#719=EDGE_CURVE('',#720,#295,#722,.T.);
#720=VERTEX_POINT('',#721);
#721=CARTESIAN_POINT('',(-1.257,0.88,-5.625E-03));
#722=CIRCLE('',#723,0.118125);
#723=AXIS2_PLACEMENT_3D('',#724,#463,#464);
#724=CARTESIAN_POINT('',(-1.257,0.88,0.1125));
#725=ORIENTED_EDGE('',*,*,#719,.T.);
#726=SPHERICAL_SURFACE('',#727,0.118125);
#727=AXIS2_PLACEMENT_3D('',#724,#13,#45);
#728=ADVANCED_FACE('',(#729),#739,.T.);
#729=FACE_BOUND('',#730,.T.);
#730=EDGE_LOOP('',(#302,#731,#738));
#731=ORIENTED_EDGE('',*,*,#732,.F.);
#732=EDGE_CURVE('',#733,#304,#735,.T.);
#733=VERTEX_POINT('',#734);
#734=CARTESIAN_POINT('',(-0.838,0.88,-5.625E-03));
#735=CIRCLE('',#736,0.118125);
#736=AXIS2_PLACEMENT_3D('',#737,#463,#464);
#737=CARTESIAN_POINT('',(-0.838,0.88,0.1125));
#738=ORIENTED_EDGE('',*,*,#732,.T.);
#739=SPHERICAL_SURFACE('',#740,0.118125);
#740=AXIS2_PLACEMENT_3D('',#737,#13,#45);
#741=ADVANCED_FACE('',(#742),#752,.T.);
#742=FACE_BOUND('',#743,.T.);
#743=EDGE_LOOP('',(#311,#744,#751));
#744=ORIENTED_EDGE('',*,*,#745,.F.);
#745=EDGE_CURVE('',#746,#313,#748,.T.);
#746=VERTEX_POINT('',#747);
#747=CARTESIAN_POINT('',(-0.419,0.88,-5.625E-03));
#748=CIRCLE('',#749,0.118125);
#749=AXIS2_PLACEMENT_3D('',#750,#463,#464);
#750=CARTESIAN_POINT('',(-0.419,0.88,0.1125));
#751=ORIENTED_EDGE('',*,*,#745,.T.);
#752=SPHERICAL_SURFACE('',#753,0.118125);
#753=AXIS2_PLACEMENT_3D('',#750,#13,#45);
#754=ADVANCED_FACE('',(#755),#765,.T.);
#755=FACE_BOUND('',#756,.T.);
#756=EDGE_LOOP('',(#320,#757,#764));
#757=ORIENTED_EDGE('',*,*,#758,.F.);
#758=EDGE_CURVE('',#759,#322,#761,.T.);
#759=VERTEX_POINT('',#760);
#760=CARTESIAN_POINT('',(7.233070157464E-18,-1.771591243269E-33,-5.625E-03));
#761=CIRCLE('',#762,0.118125);
#762=AXIS2_PLACEMENT_3D('',#763,#463,#464);
#763=CARTESIAN_POINT('',(0.,0.,0.1125));
#764=ORIENTED_EDGE('',*,*,#758,.T.);
#765=SPHERICAL_SURFACE('',#766,0.118125);
#766=AXIS2_PLACEMENT_3D('',#763,#13,#45);
#767=ADVANCED_FACE('',(#768),#778,.T.);
#768=FACE_BOUND('',#769,.T.);
#769=EDGE_LOOP('',(#329,#770,#777));
#770=ORIENTED_EDGE('',*,*,#771,.F.);
#771=EDGE_CURVE('',#772,#331,#774,.T.);
#772=VERTEX_POINT('',#773);
#773=CARTESIAN_POINT('',(0.419,-1.771591243269E-33,-5.625E-03));
#774=CIRCLE('',#775,0.118125);
#775=AXIS2_PLACEMENT_3D('',#776,#463,#464);
#776=CARTESIAN_POINT('',(0.419,0.,0.1125));
#777=ORIENTED_EDGE('',*,*,#771,.T.);
#778=SPHERICAL_SURFACE('',#779,0.118125);
#779=AXIS2_PLACEMENT_3D('',#776,#13,#45);
#780=ADVANCED_FACE('',(#781),#791,.T.);
#781=FACE_BOUND('',#782,.T.);
#782=EDGE_LOOP('',(#338,#783,#790));
#783=ORIENTED_EDGE('',*,*,#784,.F.);
#784=EDGE_CURVE('',#785,#340,#787,.T.);
#785=VERTEX_POINT('',#786);
#786=CARTESIAN_POINT('',(7.233070157464E-18,0.44,-5.625E-03));
#787=CIRCLE('',#788,0.118125);
#788=AXIS2_PLACEMENT_3D('',#789,#463,#464);
#789=CARTESIAN_POINT('',(0.,0.44,0.1125));
#790=ORIENTED_EDGE('',*,*,#784,.T.);
#791=SPHERICAL_SURFACE('',#792,0.118125);
#792=AXIS2_PLACEMENT_3D('',#789,#13,#45);
#793=ADVANCED_FACE('',(#794),#804,.T.);
#794=FACE_BOUND('',#795,.T.);
#795=EDGE_LOOP('',(#347,#796,#803));
#796=ORIENTED_EDGE('',*,*,#797,.F.);
#797=EDGE_CURVE('',#798,#349,#800,.T.);
#798=VERTEX_POINT('',#799);
#799=CARTESIAN_POINT('',(0.419,0.44,-5.625E-03));
#800=CIRCLE('',#801,0.118125);
#801=AXIS2_PLACEMENT_3D('',#802,#463,#464);
#802=CARTESIAN_POINT('',(0.419,0.44,0.1125));
#803=ORIENTED_EDGE('',*,*,#797,.T.);
#804=SPHERICAL_SURFACE('',#805,0.118125);
#805=AXIS2_PLACEMENT_3D('',#802,#13,#45);
#806=ADVANCED_FACE('',(#807),#817,.T.);
#807=FACE_BOUND('',#808,.T.);
#808=EDGE_LOOP('',(#356,#809,#816));
#809=ORIENTED_EDGE('',*,*,#810,.F.);
#810=EDGE_CURVE('',#811,#358,#813,.T.);
#811=VERTEX_POINT('',#812);
#812=CARTESIAN_POINT('',(0.838,-1.771591243269E-33,-5.625E-03));
#813=CIRCLE('',#814,0.118125);
#814=AXIS2_PLACEMENT_3D('',#815,#463,#464);
#815=CARTESIAN_POINT('',(0.838,0.,0.1125));
#816=ORIENTED_EDGE('',*,*,#810,.T.);
#817=SPHERICAL_SURFACE('',#818,0.118125);
#818=AXIS2_PLACEMENT_3D('',#815,#13,#45);
#819=ADVANCED_FACE('',(#820),#830,.T.);
#820=FACE_BOUND('',#821,.T.);
#821=EDGE_LOOP('',(#365,#822,#829));
#822=ORIENTED_EDGE('',*,*,#823,.F.);
#823=EDGE_CURVE('',#824,#367,#826,.T.);
#824=VERTEX_POINT('',#825);
#825=CARTESIAN_POINT('',(1.257,-1.771591243269E-33,-5.625E-03));
#826=CIRCLE('',#827,0.118125);
#827=AXIS2_PLACEMENT_3D('',#828,#463,#464);
#828=CARTESIAN_POINT('',(1.257,0.,0.1125));
#829=ORIENTED_EDGE('',*,*,#823,.T.);
#830=SPHERICAL_SURFACE('',#831,0.118125);
#831=AXIS2_PLACEMENT_3D('',#828,#13,#45);
#832=ADVANCED_FACE('',(#833),#843,.T.);
#833=FACE_BOUND('',#834,.T.);
#834=EDGE_LOOP('',(#374,#835,#842));
#835=ORIENTED_EDGE('',*,*,#836,.F.);
#836=EDGE_CURVE('',#837,#376,#839,.T.);
#837=VERTEX_POINT('',#838);
#838=CARTESIAN_POINT('',(0.838,0.44,-5.625E-03));
#839=CIRCLE('',#840,0.118125);
#840=AXIS2_PLACEMENT_3D('',#841,#463,#464);
#841=CARTESIAN_POINT('',(0.838,0.44,0.1125));
#842=ORIENTED_EDGE('',*,*,#836,.T.);
#843=SPHERICAL_SURFACE('',#844,0.118125);
#844=AXIS2_PLACEMENT_3D('',#841,#13,#45);
#845=ADVANCED_FACE('',(#846),#856,.T.);
#846=FACE_BOUND('',#847,.T.);
#847=EDGE_LOOP('',(#383,#848,#855));
#848=ORIENTED_EDGE('',*,*,#849,.F.);
#849=EDGE_CURVE('',#850,#385,#852,.T.);
#850=VERTEX_POINT('',#851);
#851=CARTESIAN_POINT('',(1.257,0.44,-5.625E-03));
#852=CIRCLE('',#853,0.118125);
#853=AXIS2_PLACEMENT_3D('',#854,#463,#464);
#854=CARTESIAN_POINT('',(1.257,0.44,0.1125));
#855=ORIENTED_EDGE('',*,*,#849,.T.);
#856=SPHERICAL_SURFACE('',#857,0.118125);
#857=AXIS2_PLACEMENT_3D('',#854,#13,#45);
#858=ADVANCED_FACE('',(#859),#869,.T.);
#859=FACE_BOUND('',#860,.T.);
#860=EDGE_LOOP('',(#392,#861,#868));
#861=ORIENTED_EDGE('',*,*,#862,.F.);
#862=EDGE_CURVE('',#863,#394,#865,.T.);
#863=VERTEX_POINT('',#864);
#864=CARTESIAN_POINT('',(7.233070157464E-18,0.88,-5.625E-03));
#865=CIRCLE('',#866,0.118125);
#866=AXIS2_PLACEMENT_3D('',#867,#463,#464);
#867=CARTESIAN_POINT('',(0.,0.88,0.1125));
#868=ORIENTED_EDGE('',*,*,#862,.T.);
#869=SPHERICAL_SURFACE('',#870,0.118125);
#870=AXIS2_PLACEMENT_3D('',#867,#13,#45);
#871=ADVANCED_FACE('',(#872),#882,.T.);
#872=FACE_BOUND('',#873,.T.);
#873=EDGE_LOOP('',(#401,#874,#881));
#874=ORIENTED_EDGE('',*,*,#875,.F.);
#875=EDGE_CURVE('',#876,#403,#878,.T.);
#876=VERTEX_POINT('',#877);
#877=CARTESIAN_POINT('',(0.419,0.88,-5.625E-03));
#878=CIRCLE('',#879,0.118125);
#879=AXIS2_PLACEMENT_3D('',#880,#463,#464);
#880=CARTESIAN_POINT('',(0.419,0.88,0.1125));
#881=ORIENTED_EDGE('',*,*,#875,.T.);
#882=SPHERICAL_SURFACE('',#883,0.118125);
#883=AXIS2_PLACEMENT_3D('',#880,#13,#45);
#884=ADVANCED_FACE('',(#885),#895,.T.);
#885=FACE_BOUND('',#886,.T.);
#886=EDGE_LOOP('',(#410,#887,#894));
#887=ORIENTED_EDGE('',*,*,#888,.F.);
#888=EDGE_CURVE('',#889,#412,#891,.T.);
#889=VERTEX_POINT('',#890);
#890=CARTESIAN_POINT('',(0.838,0.88,-5.625E-03));
#891=CIRCLE('',#892,0.118125);
#892=AXIS2_PLACEMENT_3D('',#893,#463,#464);
#893=CARTESIAN_POINT('',(0.838,0.88,0.1125));
#894=ORIENTED_EDGE('',*,*,#888,.T.);
#895=SPHERICAL_SURFACE('',#896,0.118125);
#896=AXIS2_PLACEMENT_3D('',#893,#13,#45);
#897=ADVANCED_FACE('',(#898),#908,.T.);
#898=FACE_BOUND('',#899,.T.);
#899=EDGE_LOOP('',(#419,#900,#907));
#900=ORIENTED_EDGE('',*,*,#901,.F.);
#901=EDGE_CURVE('',#902,#421,#904,.T.);
#902=VERTEX_POINT('',#903);
#903=CARTESIAN_POINT('',(1.257,0.88,-5.625E-03));
#904=CIRCLE('',#905,0.118125);
#905=AXIS2_PLACEMENT_3D('',#906,#463,#464);
#906=CARTESIAN_POINT('',(1.257,0.88,0.1125));
#907=ORIENTED_EDGE('',*,*,#901,.T.);
#908=SPHERICAL_SURFACE('',#909,0.118125);
#909=AXIS2_PLACEMENT_3D('',#906,#13,#45);
#910=ADVANCED_FACE('',(#911),#914,.T.);
#911=FACE_BOUND('',#912,.F.);
#912=EDGE_LOOP('',(#913));
#913=ORIENTED_EDGE('',*,*,#445,.F.);
#914=PLANE('',#447);
#915=( GEOMETRIC_REPRESENTATION_CONTEXT(3) GLOBAL_UNCERTAINTY_ASSIGNED_CONTEXT((#919)) GLOBAL_UNIT_ASSIGNED_CONTEXT((#916,#917,#918)) REPRESENTATION_CONTEXT('Context #1','3D Context with UNIT and UNCERTAINTY') );
#916=( LENGTH_UNIT() NAMED_UNIT(*) SI_UNIT(.MILLI.,.METRE.) );
#917=( NAMED_UNIT(*) PLANE_ANGLE_UNIT() SI_UNIT($,.RADIAN.) );
#918=( NAMED_UNIT(*) SI_UNIT($,.STERADIAN.) SOLID_ANGLE_UNIT() );
#919=UNCERTAINTY_MEASURE_WITH_UNIT(LENGTH_MEASURE(1.E-07),#916,'distance_accuracy_value','confusion accuracy');
#920=PRODUCT_RELATED_PRODUCT_CATEGORY('part',$,(#7));
#921=MECHANICAL_DESIGN_GEOMETRIC_PRESENTATION_REPRESENTATION('',(#922,#932,#933,#934,#935,#936,#945,#946,#947,#948,#949,#950,#951,#952,#953,#954,#955,#956,#957,#958,#959,#960,#961,#962,#963,#964,#965,#966,#967,#968,#969,#970,#971,#972,#973,#974,#975,#976,#977,#978,#979,#980,#989,#990,#991,#992,#993,#994,#995,#996,#997,#998,#999,#1000,#1001,#1002,#1003,#1004,#1005,#1006,#1007,#1008,#1009,#1010,#1011,#1012,#1013,#1014,#1015,#1016,#1017,#1018,#1019,#1020,#1021,#1022,#1023,#1024),#915);
#922=STYLED_ITEM('color',(#923),#17);
#923=PRESENTATION_STYLE_ASSIGNMENT((#924,#930));
#924=SURFACE_STYLE_USAGE(.BOTH.,#925);
#925=SURFACE_SIDE_STYLE('',(#926));
#926=SURFACE_STYLE_FILL_AREA(#927);
#927=FILL_AREA_STYLE('',(#928));
#928=FILL_AREA_STYLE_COLOUR('',#929);
#929=COLOUR_RGB('',0.147999998088,0.145000001626,0.145000001626);
#930=CURVE_STYLE('',#931,POSITIVE_LENGTH_MEASURE(0.1),#929);
#931=DRAUGHTING_PRE_DEFINED_CURVE_FONT('continuous');
#932=STYLED_ITEM('color',(#923),#46);
#933=STYLED_ITEM('color',(#923),#66);
#934=STYLED_ITEM('color',(#923),#89);
#935=STYLED_ITEM('color',(#923),#103);
#936=OVER_RIDING_STYLED_ITEM('overriding color',(#937),#114,#935);
#937=PRESENTATION_STYLE_ASSIGNMENT((#938,#944));
#938=SURFACE_STYLE_USAGE(.BOTH.,#939);
#939=SURFACE_SIDE_STYLE('',(#940));
#940=SURFACE_STYLE_FILL_AREA(#941);
#941=FILL_AREA_STYLE('',(#942));
#942=FILL_AREA_STYLE_COLOUR('',#943);
#943=COLOUR_RGB('',0.823999987314,0.819999987296,0.781000009244);
#944=CURVE_STYLE('',#931,POSITIVE_LENGTH_MEASURE(0.1),#943);
#945=OVER_RIDING_STYLED_ITEM('overriding color',(#937),#123,#935);
#946=OVER_RIDING_STYLED_ITEM('overriding color',(#937),#132,#935);
#947=OVER_RIDING_STYLED_ITEM('overriding color',(#937),#141,#935);
#948=OVER_RIDING_STYLED_ITEM('overriding color',(#937),#150,#935);
#949=OVER_RIDING_STYLED_ITEM('overriding color',(#937),#159,#935);
#950=OVER_RIDING_STYLED_ITEM('overriding color',(#937),#168,#935);
#951=OVER_RIDING_STYLED_ITEM('overriding color',(#937),#177,#935);
#952=OVER_RIDING_STYLED_ITEM('overriding color',(#937),#186,#935);
#953=OVER_RIDING_STYLED_ITEM('overriding color',(#937),#195,#935);
#954=OVER_RIDING_STYLED_ITEM('overriding color',(#937),#204,#935);
#955=OVER_RIDING_STYLED_ITEM('overriding color',(#937),#213,#935);
#956=OVER_RIDING_STYLED_ITEM('overriding color',(#937),#222,#935);
#957=OVER_RIDING_STYLED_ITEM('overriding color',(#937),#231,#935);
#958=OVER_RIDING_STYLED_ITEM('overriding color',(#937),#240,#935);
#959=OVER_RIDING_STYLED_ITEM('overriding color',(#937),#249,#935);
#960=OVER_RIDING_STYLED_ITEM('overriding color',(#937),#258,#935);
#961=OVER_RIDING_STYLED_ITEM('overriding color',(#937),#267,#935);
#962=OVER_RIDING_STYLED_ITEM('overriding color',(#937),#276,#935);
#963=OVER_RIDING_STYLED_ITEM('overriding color',(#937),#285,#935);
#964=OVER_RIDING_STYLED_ITEM('overriding color',(#937),#294,#935);
#965=OVER_RIDING_STYLED_ITEM('overriding color',(#937),#303,#935);
#966=OVER_RIDING_STYLED_ITEM('overriding color',(#937),#312,#935);
#967=OVER_RIDING_STYLED_ITEM('overriding color',(#937),#321,#935);
#968=OVER_RIDING_STYLED_ITEM('overriding color',(#937),#330,#935);
#969=OVER_RIDING_STYLED_ITEM('overriding color',(#937),#339,#935);
#970=OVER_RIDING_STYLED_ITEM('overriding color',(#937),#348,#935);
#971=OVER_RIDING_STYLED_ITEM('overriding color',(#937),#357,#935);
#972=OVER_RIDING_STYLED_ITEM('overriding color',(#937),#366,#935);
#973=OVER_RIDING_STYLED_ITEM('overriding color',(#937),#375,#935);
#974=OVER_RIDING_STYLED_ITEM('overriding color',(#937),#384,#935);
#975=OVER_RIDING_STYLED_ITEM('overriding color',(#937),#393,#935);
#976=OVER_RIDING_STYLED_ITEM('overriding color',(#937),#402,#935);
#977=OVER_RIDING_STYLED_ITEM('overriding color',(#937),#411,#935);
#978=OVER_RIDING_STYLED_ITEM('overriding color',(#937),#420,#935);
#979=STYLED_ITEM('color',(#923),#428);
#980=STYLED_ITEM('color',(#981),#435);
#981=PRESENTATION_STYLE_ASSIGNMENT((#982,#988));
#982=SURFACE_STYLE_USAGE(.BOTH.,#983);
#983=SURFACE_SIDE_STYLE('',(#984));
#984=SURFACE_STYLE_FILL_AREA(#985);
#985=FILL_AREA_STYLE('',(#986));
#986=FILL_AREA_STYLE_COLOUR('',#987);
#987=COLOUR_RGB('',0.690999998585,0.664000007176,0.597999987832);
#988=CURVE_STYLE('',#931,POSITIVE_LENGTH_MEASURE(0.1),#987);
#989=STYLED_ITEM('color',(#937),#453);
#990=STYLED_ITEM('color',(#937),#468);
#991=STYLED_ITEM('color',(#937),#481);
#992=STYLED_ITEM('color',(#937),#494);
#993=STYLED_ITEM('color',(#937),#507);
#994=STYLED_ITEM('color',(#937),#520);
#995=STYLED_ITEM('color',(#937),#533);
#996=STYLED_ITEM('color',(#937),#546);
#997=STYLED_ITEM('color',(#937),#559);
#998=STYLED_ITEM('color',(#937),#572);
#999=STYLED_ITEM('color',(#937),#585);
#1000=STYLED_ITEM('color',(#937),#598);
#1001=STYLED_ITEM('color',(#937),#611);
#1002=STYLED_ITEM('color',(#937),#624);
#1003=STYLED_ITEM('color',(#937),#637);
#1004=STYLED_ITEM('color',(#937),#650);
#1005=STYLED_ITEM('color',(#937),#663);
#1006=STYLED_ITEM('color',(#937),#676);
#1007=STYLED_ITEM('color',(#937),#689);
#1008=STYLED_ITEM('color',(#937),#702);
#1009=STYLED_ITEM('color',(#937),#715);
#1010=STYLED_ITEM('color',(#937),#728);
#1011=STYLED_ITEM('color',(#937),#741);
#1012=STYLED_ITEM('color',(#937),#754);
#1013=STYLED_ITEM('color',(#937),#767);
#1014=STYLED_ITEM('color',(#937),#780);
#1015=STYLED_ITEM('color',(#937),#793);
#1016=STYLED_ITEM('color',(#937),#806);
#1017=STYLED_ITEM('color',(#937),#819);
#1018=STYLED_ITEM('color',(#937),#832);
#1019=STYLED_ITEM('color',(#937),#845);
#1020=STYLED_ITEM('color',(#937),#858);
#1021=STYLED_ITEM('color',(#937),#871);
#1022=STYLED_ITEM('color',(#937),#884);
#1023=STYLED_ITEM('color',(#937),#897);
#1024=STYLED_ITEM('color',(#981),#910);
ENDSEC;
END-ISO-10303-21;
