ISO-10303-21;
HEADER;
/* UQFN-4_0.8x0.9mm_P0.4mm.step 3D STEP model for use in ECAD systems
 * Copyright (C) 2026, KiCAD
 *
 * This work is licensed under the
 * [Creative Commons CC-BY-SA 4.0 License](https://creativecommons.org/licenses/by-sa/4.0/legalcode),
 * with the following exception:
 *
 * To the extent that the creation of electronic designs that use 'Licensed Material' can be
 * considered to be 'Adapted Material', then the copyright holder waives article 3 of the license
 * with respect to these designs and any generated files which use data provided as part of the
 * 'Licensed Material'.
 *
 * You are free to use the library data in your own projects without the obligation to share your
 * project files under this or any other license agreement. However, if you wish to distribute
 * these libraries, or parts thereof (including in modified form) as a collection then the exception
 * above does not apply. Please refer to
 * https://gitlab.com/kicad/libraries/kicad-packages3D/-/blob/master/LICENSE.md for further clarification
 * of the exception.
 *
 * Disclaimer of Warranties and Limitation of Liability.
 * These libraries are provided in the hope that they will be useful, but are provided without warranty of any kind, express or implied.
 * USE 3D CAD DATA AT YOUR OWN RISK
 * DO NOT RELY UPON ANY INFORMATION FOUND HERE WITHOUT INDEPENDENT VERIFICATION.
 */

FILE_DESCRIPTION(
/* description */ ('model of UQFN-4_0.8x0.9mm_P0.4mm'),
/* implementation_level */ '2;1');

FILE_NAME(
/* name */ 'UQFN-4_0.8x0.9mm_P0.4mm.step',
/* time_stamp */ '1970-01-01T00:00:00',
/* author */ ('KiCAD','kicad'),
/* organization */ ('OCCT'),
/* preprocessor_version */ '',
/* originating_system */ 'KiCAD',
/* authorisation */ '');

FILE_SCHEMA(('AUTOMOTIVE_DESIGN { 1 0 10303 214 1 1 1 1 }'));
ENDSEC;

DATA;
#1=APPLICATION_PROTOCOL_DEFINITION('international standard','automotive_design',2000,#2);
#2=APPLICATION_CONTEXT('core data for automotive mechanical design processes');
#3=SHAPE_DEFINITION_REPRESENTATION(#4,#10);
#4=PRODUCT_DEFINITION_SHAPE('','',#5);
#5=PRODUCT_DEFINITION('design','',#6,#9);
#6=PRODUCT_DEFINITION_FORMATION('','',#7);
#7=PRODUCT('UQFN-4_0.8x0.9mm_P0.4mm','UQFN-4_0.8x0.9mm_P0.4mm','',(#8));
#8=PRODUCT_CONTEXT('',#2,'mechanical');
#9=PRODUCT_DEFINITION_CONTEXT('part definition',#2,'design');
#10=ADVANCED_BREP_SHAPE_REPRESENTATION('',(#11,#15),#358);
#11=AXIS2_PLACEMENT_3D('',#12,#13,#14);
#12=CARTESIAN_POINT('',(0.,0.,0.));
#13=DIRECTION('',(0.,0.,1.));
#14=DIRECTION('',(1.,0.,-0.));
#15=MANIFOLD_SOLID_BREP('',#16);
#16=CLOSED_SHELL('',(#17,#86,#114,#128,#226,#238,#249,#259,#293,#299,#310,#320,#333,#345,#352));
#17=ADVANCED_FACE('',(#18),#83,.F.);
#18=FACE_BOUND('',#19,.F.);
#19=EDGE_LOOP('',(#20,#29,#35,#40,#45,#52,#57,#61,#66,#71,#76,#80));
#20=ORIENTED_EDGE('',*,*,#21,.F.);
#21=EDGE_CURVE('',#22,#24,#26,.T.);
#22=VERTEX_POINT('',#23);
#23=CARTESIAN_POINT('',(-0.4,-0.45,0.6));
#24=VERTEX_POINT('',#25);
#25=CARTESIAN_POINT('',(-0.4,0.45,0.6));
#26=LINE('',#23,#27);
#27=VECTOR('',#28,1.);
#28=DIRECTION('',(0.,1.,0.));
#29=ORIENTED_EDGE('',*,*,#30,.F.);
#30=EDGE_CURVE('',#31,#22,#33,.T.);
#31=VERTEX_POINT('',#32);
#32=CARTESIAN_POINT('',(-0.4,-0.45,0.));
#33=LINE('',#32,#34);
#34=VECTOR('',#13,1.);
#35=ORIENTED_EDGE('',*,*,#36,.T.);
#36=EDGE_CURVE('',#31,#37,#39,.T.);
#37=VERTEX_POINT('',#38);
#38=CARTESIAN_POINT('',(-0.4,-0.3,0.));
#39=LINE('',#32,#27);
#40=ORIENTED_EDGE('',*,*,#41,.T.);
#41=EDGE_CURVE('',#37,#42,#44,.T.);
#42=VERTEX_POINT('',#43);
#43=CARTESIAN_POINT('',(-0.4,-0.3,0.1));
#44=LINE('',#38,#34);
#45=ORIENTED_EDGE('',*,*,#46,.F.);
#46=EDGE_CURVE('',#47,#42,#49,.T.);
#47=VERTEX_POINT('',#48);
#48=CARTESIAN_POINT('',(-0.4,-1.E-01,0.1));
#49=LINE('',#48,#50);
#50=VECTOR('',#51,1.);
#51=DIRECTION('',(-1.110223024625E-16,-1.,0.));
#52=ORIENTED_EDGE('',*,*,#53,.F.);
#53=EDGE_CURVE('',#54,#47,#56,.T.);
#54=VERTEX_POINT('',#55);
#55=CARTESIAN_POINT('',(-0.4,-1.E-01,0.));
#56=LINE('',#55,#34);
#57=ORIENTED_EDGE('',*,*,#58,.T.);
#58=EDGE_CURVE('',#54,#59,#39,.T.);
#59=VERTEX_POINT('',#60);
#60=CARTESIAN_POINT('',(-0.4,0.1,0.));
#61=ORIENTED_EDGE('',*,*,#62,.T.);
#62=EDGE_CURVE('',#59,#63,#65,.T.);
#63=VERTEX_POINT('',#64);
#64=CARTESIAN_POINT('',(-0.4,0.1,0.1));
#65=LINE('',#60,#34);
#66=ORIENTED_EDGE('',*,*,#67,.F.);
#67=EDGE_CURVE('',#68,#63,#70,.T.);
#68=VERTEX_POINT('',#69);
#69=CARTESIAN_POINT('',(-0.4,0.3,0.1));
#70=LINE('',#69,#50);
#71=ORIENTED_EDGE('',*,*,#72,.F.);
#72=EDGE_CURVE('',#73,#68,#75,.T.);
#73=VERTEX_POINT('',#74);
#74=CARTESIAN_POINT('',(-0.4,0.3,0.));
#75=LINE('',#74,#34);
#76=ORIENTED_EDGE('',*,*,#77,.T.);
#77=EDGE_CURVE('',#73,#78,#39,.T.);
#78=VERTEX_POINT('',#79);
#79=CARTESIAN_POINT('',(-0.4,0.45,0.));
#80=ORIENTED_EDGE('',*,*,#81,.T.);
#81=EDGE_CURVE('',#78,#24,#82,.T.);
#82=LINE('',#79,#34);
#83=PLANE('',#84);
#84=AXIS2_PLACEMENT_3D('',#32,#85,#13);
#85=DIRECTION('',(1.,0.,0.));
#86=ADVANCED_FACE('',(#87,#103),#112,.T.);
#87=FACE_BOUND('',#88,.T.);
#88=EDGE_LOOP('',(#20,#89,#95,#100));
#89=ORIENTED_EDGE('',*,*,#90,.T.);
#90=EDGE_CURVE('',#22,#91,#93,.T.);
#91=VERTEX_POINT('',#92);
#92=CARTESIAN_POINT('',(0.4,-0.45,0.6));
#93=LINE('',#23,#94);
#94=VECTOR('',#85,1.);
#95=ORIENTED_EDGE('',*,*,#96,.T.);
#96=EDGE_CURVE('',#91,#97,#99,.T.);
#97=VERTEX_POINT('',#98);
#98=CARTESIAN_POINT('',(0.4,0.45,0.6));
#99=LINE('',#92,#27);
#100=ORIENTED_EDGE('',*,*,#101,.F.);
#101=EDGE_CURVE('',#24,#97,#102,.T.);
#102=LINE('',#25,#94);
#103=FACE_BOUND('',#104,.T.);
#104=EDGE_LOOP('',(#105));
#105=ORIENTED_EDGE('',*,*,#106,.F.);
#106=EDGE_CURVE('',#107,#107,#109,.T.);
#107=VERTEX_POINT('',#108);
#108=CARTESIAN_POINT('',(-0.265,0.36,0.6));
#109=CIRCLE('',#110,4.5E-02);
#110=AXIS2_PLACEMENT_3D('',#111,#13,#85);
#111=CARTESIAN_POINT('',(-0.31,0.36,0.6));
#112=PLANE('',#113);
#113=AXIS2_PLACEMENT_3D('',#23,#13,#85);
#114=ADVANCED_FACE('',(#115),#126,.T.);
#115=FACE_BOUND('',#116,.T.);
#116=EDGE_LOOP('',(#117,#80,#122,#123));
#117=ORIENTED_EDGE('',*,*,#118,.F.);
#118=EDGE_CURVE('',#78,#119,#121,.T.);
#119=VERTEX_POINT('',#120);
#120=CARTESIAN_POINT('',(0.4,0.45,0.));
#121=LINE('',#79,#94);
#122=ORIENTED_EDGE('',*,*,#101,.T.);
#123=ORIENTED_EDGE('',*,*,#124,.F.);
#124=EDGE_CURVE('',#119,#97,#125,.T.);
#125=LINE('',#120,#34);
#126=PLANE('',#127);
#127=AXIS2_PLACEMENT_3D('',#79,#28,#13);
#128=ADVANCED_FACE('',(#129),#224,.F.);
#129=FACE_BOUND('',#130,.F.);
#130=EDGE_LOOP('',(#131,#132,#137,#142,#149,#158,#165,#169,#174,#181,#186,#117,#188,#189,#196,#203,#208,#209,#214,#221));
#131=ORIENTED_EDGE('',*,*,#36,.F.);
#132=ORIENTED_EDGE('',*,*,#133,.T.);
#133=EDGE_CURVE('',#31,#134,#136,.T.);
#134=VERTEX_POINT('',#135);
#135=CARTESIAN_POINT('',(0.4,-0.45,0.));
#136=LINE('',#32,#94);
#137=ORIENTED_EDGE('',*,*,#138,.T.);
#138=EDGE_CURVE('',#134,#139,#141,.T.);
#139=VERTEX_POINT('',#140);
#140=CARTESIAN_POINT('',(0.4,-0.3,0.));
#141=LINE('',#135,#27);
#142=ORIENTED_EDGE('',*,*,#143,.F.);
#143=EDGE_CURVE('',#144,#139,#146,.T.);
#144=VERTEX_POINT('',#145);
#145=CARTESIAN_POINT('',(0.225,-0.3,0.));
#146=LINE('',#145,#147);
#147=VECTOR('',#148,1.);
#148=DIRECTION('',(1.,-2.22044604925E-16,0.));
#149=ORIENTED_EDGE('',*,*,#150,.F.);
#150=EDGE_CURVE('',#151,#144,#153,.T.);
#151=VERTEX_POINT('',#152);
#152=CARTESIAN_POINT('',(0.225,-0.1,0.));
#153=CIRCLE('',#154,1.E-01);
#154=AXIS2_PLACEMENT_3D('',#155,#156,#157);
#155=CARTESIAN_POINT('',(0.225,-0.2,0.));
#156=DIRECTION('',(0.,-0.,1.));
#157=DIRECTION('',(2.22044604925E-16,1.,0.));
#158=ORIENTED_EDGE('',*,*,#159,.F.);
#159=EDGE_CURVE('',#160,#151,#162,.T.);
#160=VERTEX_POINT('',#161);
#161=CARTESIAN_POINT('',(0.4,-0.1,0.));
#162=LINE('',#161,#163);
#163=VECTOR('',#164,1.);
#164=DIRECTION('',(-1.,6.344131569287E-17,0.));
#165=ORIENTED_EDGE('',*,*,#166,.T.);
#166=EDGE_CURVE('',#160,#167,#141,.T.);
#167=VERTEX_POINT('',#168);
#168=CARTESIAN_POINT('',(0.4,1.E-01,0.));
#169=ORIENTED_EDGE('',*,*,#170,.F.);
#170=EDGE_CURVE('',#171,#167,#173,.T.);
#171=VERTEX_POINT('',#172);
#172=CARTESIAN_POINT('',(0.225,0.1,0.));
#173=LINE('',#172,#147);
#174=ORIENTED_EDGE('',*,*,#175,.F.);
#175=EDGE_CURVE('',#176,#171,#178,.T.);
#176=VERTEX_POINT('',#177);
#177=CARTESIAN_POINT('',(0.225,0.3,0.));
#178=CIRCLE('',#179,1.E-01);
#179=AXIS2_PLACEMENT_3D('',#180,#156,#157);
#180=CARTESIAN_POINT('',(0.225,0.2,0.));
#181=ORIENTED_EDGE('',*,*,#182,.F.);
#182=EDGE_CURVE('',#183,#176,#185,.T.);
#183=VERTEX_POINT('',#184);
#184=CARTESIAN_POINT('',(0.4,0.3,0.));
#185=LINE('',#184,#163);
#186=ORIENTED_EDGE('',*,*,#187,.T.);
#187=EDGE_CURVE('',#183,#119,#141,.T.);
#188=ORIENTED_EDGE('',*,*,#77,.F.);
#189=ORIENTED_EDGE('',*,*,#190,.F.);
#190=EDGE_CURVE('',#191,#73,#193,.T.);
#191=VERTEX_POINT('',#192);
#192=CARTESIAN_POINT('',(-0.225,0.3,0.));
#193=LINE('',#192,#194);
#194=VECTOR('',#195,1.);
#195=DIRECTION('',(-1.,1.110223024625E-16,0.));
#196=ORIENTED_EDGE('',*,*,#197,.F.);
#197=EDGE_CURVE('',#198,#191,#200,.T.);
#198=VERTEX_POINT('',#199);
#199=CARTESIAN_POINT('',(-0.225,0.1,0.));
#200=CIRCLE('',#201,1.E-01);
#201=AXIS2_PLACEMENT_3D('',#202,#13,#51);
#202=CARTESIAN_POINT('',(-0.225,0.2,0.));
#203=ORIENTED_EDGE('',*,*,#204,.F.);
#204=EDGE_CURVE('',#59,#198,#205,.T.);
#205=LINE('',#60,#206);
#206=VECTOR('',#207,1.);
#207=DIRECTION('',(1.,4.758098676965E-17,0.));
#208=ORIENTED_EDGE('',*,*,#58,.F.);
#209=ORIENTED_EDGE('',*,*,#210,.F.);
#210=EDGE_CURVE('',#211,#54,#213,.T.);
#211=VERTEX_POINT('',#212);
#212=CARTESIAN_POINT('',(-0.225,-0.1,0.));
#213=LINE('',#212,#194);
#214=ORIENTED_EDGE('',*,*,#215,.F.);
#215=EDGE_CURVE('',#216,#211,#218,.T.);
#216=VERTEX_POINT('',#217);
#217=CARTESIAN_POINT('',(-0.225,-0.3,0.));
#218=CIRCLE('',#219,1.E-01);
#219=AXIS2_PLACEMENT_3D('',#220,#13,#51);
#220=CARTESIAN_POINT('',(-0.225,-0.2,0.));
#221=ORIENTED_EDGE('',*,*,#222,.F.);
#222=EDGE_CURVE('',#37,#216,#223,.T.);
#223=LINE('',#38,#206);
#224=PLANE('',#225);
#225=AXIS2_PLACEMENT_3D('',#32,#13,#85);
#226=ADVANCED_FACE('',(#227),#235,.F.);
#227=FACE_BOUND('',#228,.F.);
#228=EDGE_LOOP('',(#229,#230,#231,#232));
#229=ORIENTED_EDGE('',*,*,#72,.T.);
#230=ORIENTED_EDGE('',*,*,#67,.T.);
#231=ORIENTED_EDGE('',*,*,#62,.F.);
#232=ORIENTED_EDGE('',*,*,#233,.F.);
#233=EDGE_CURVE('',#73,#59,#234,.T.);
#234=LINE('',#74,#50);
#235=PLANE('',#236);
#236=AXIS2_PLACEMENT_3D('',#74,#237,#51);
#237=DIRECTION('',(1.,-1.110223024625E-16,0.));
#238=ADVANCED_FACE('',(#239),#247,.F.);
#239=FACE_BOUND('',#240,.F.);
#240=EDGE_LOOP('',(#241,#242,#243,#244));
#241=ORIENTED_EDGE('',*,*,#53,.T.);
#242=ORIENTED_EDGE('',*,*,#46,.T.);
#243=ORIENTED_EDGE('',*,*,#41,.F.);
#244=ORIENTED_EDGE('',*,*,#245,.F.);
#245=EDGE_CURVE('',#54,#37,#246,.T.);
#246=LINE('',#55,#50);
#247=PLANE('',#248);
#248=AXIS2_PLACEMENT_3D('',#55,#237,#51);
#249=ADVANCED_FACE('',(#250),#257,.F.);
#250=FACE_BOUND('',#251,.F.);
#251=EDGE_LOOP('',(#252,#253,#89,#254));
#252=ORIENTED_EDGE('',*,*,#133,.F.);
#253=ORIENTED_EDGE('',*,*,#30,.T.);
#254=ORIENTED_EDGE('',*,*,#255,.F.);
#255=EDGE_CURVE('',#134,#91,#256,.T.);
#256=LINE('',#135,#34);
#257=PLANE('',#258);
#258=AXIS2_PLACEMENT_3D('',#32,#28,#13);
#259=ADVANCED_FACE('',(#260),#291,.T.);
#260=FACE_BOUND('',#261,.T.);
#261=EDGE_LOOP('',(#262,#254,#137,#263,#268,#274,#165,#277,#282,#287,#186,#290));
#262=ORIENTED_EDGE('',*,*,#96,.F.);
#263=ORIENTED_EDGE('',*,*,#264,.T.);
#264=EDGE_CURVE('',#139,#265,#267,.T.);
#265=VERTEX_POINT('',#266);
#266=CARTESIAN_POINT('',(0.4,-0.3,0.1));
#267=LINE('',#140,#34);
#268=ORIENTED_EDGE('',*,*,#269,.T.);
#269=EDGE_CURVE('',#265,#270,#272,.T.);
#270=VERTEX_POINT('',#271);
#271=CARTESIAN_POINT('',(0.4,-0.1,0.1));
#272=LINE('',#266,#273);
#273=VECTOR('',#157,1.);
#274=ORIENTED_EDGE('',*,*,#275,.F.);
#275=EDGE_CURVE('',#160,#270,#276,.T.);
#276=LINE('',#161,#34);
#277=ORIENTED_EDGE('',*,*,#278,.T.);
#278=EDGE_CURVE('',#167,#279,#281,.T.);
#279=VERTEX_POINT('',#280);
#280=CARTESIAN_POINT('',(0.4,1.E-01,0.1));
#281=LINE('',#168,#34);
#282=ORIENTED_EDGE('',*,*,#283,.T.);
#283=EDGE_CURVE('',#279,#284,#286,.T.);
#284=VERTEX_POINT('',#285);
#285=CARTESIAN_POINT('',(0.4,0.3,0.1));
#286=LINE('',#280,#273);
#287=ORIENTED_EDGE('',*,*,#288,.F.);
#288=EDGE_CURVE('',#183,#284,#289,.T.);
#289=LINE('',#184,#34);
#290=ORIENTED_EDGE('',*,*,#124,.T.);
#291=PLANE('',#292);
#292=AXIS2_PLACEMENT_3D('',#135,#85,#13);
#293=ADVANCED_FACE('',(#294),#297,.T.);
#294=FACE_BOUND('',#295,.T.);
#295=EDGE_LOOP('',(#296));
#296=ORIENTED_EDGE('',*,*,#106,.T.);
#297=PLANE('',#298);
#298=AXIS2_PLACEMENT_3D('',#111,#13,#14);
#299=ADVANCED_FACE('',(#300),#306,.F.);
#300=FACE_BOUND('',#301,.F.);
#301=EDGE_LOOP('',(#302,#303,#304,#305));
#302=ORIENTED_EDGE('',*,*,#215,.T.);
#303=ORIENTED_EDGE('',*,*,#210,.T.);
#304=ORIENTED_EDGE('',*,*,#245,.T.);
#305=ORIENTED_EDGE('',*,*,#222,.T.);
#306=PLANE('',#307);
#307=AXIS2_PLACEMENT_3D('',#308,#13,#309);
#308=CARTESIAN_POINT('',(-0.281828814029,-0.2,0.));
#309=DIRECTION('',(1.110223024625E-16,1.,0.));
#310=ADVANCED_FACE('',(#311),#317,.F.);
#311=FACE_BOUND('',#312,.F.);
#312=EDGE_LOOP('',(#313,#314,#315,#316));
#313=ORIENTED_EDGE('',*,*,#197,.T.);
#314=ORIENTED_EDGE('',*,*,#190,.T.);
#315=ORIENTED_EDGE('',*,*,#233,.T.);
#316=ORIENTED_EDGE('',*,*,#204,.T.);
#317=PLANE('',#318);
#318=AXIS2_PLACEMENT_3D('',#319,#13,#309);
#319=CARTESIAN_POINT('',(-0.281828814029,0.2,0.));
#320=ADVANCED_FACE('',(#321),#329,.F.);
#321=FACE_BOUND('',#322,.F.);
#322=EDGE_LOOP('',(#323,#324,#325,#328));
#323=ORIENTED_EDGE('',*,*,#175,.T.);
#324=ORIENTED_EDGE('',*,*,#170,.T.);
#325=ORIENTED_EDGE('',*,*,#326,.T.);
#326=EDGE_CURVE('',#167,#183,#327,.T.);
#327=LINE('',#168,#273);
#328=ORIENTED_EDGE('',*,*,#182,.T.);
#329=PLANE('',#330);
#330=AXIS2_PLACEMENT_3D('',#331,#13,#332);
#331=CARTESIAN_POINT('',(0.281828814029,0.2,0.));
#332=DIRECTION('',(-2.22044604925E-16,-1.,0.));
#333=ADVANCED_FACE('',(#334),#342,.F.);
#334=FACE_BOUND('',#335,.F.);
#335=EDGE_LOOP('',(#336,#337,#338,#341));
#336=ORIENTED_EDGE('',*,*,#150,.T.);
#337=ORIENTED_EDGE('',*,*,#143,.T.);
#338=ORIENTED_EDGE('',*,*,#339,.T.);
#339=EDGE_CURVE('',#139,#160,#340,.T.);
#340=LINE('',#140,#273);
#341=ORIENTED_EDGE('',*,*,#159,.T.);
#342=PLANE('',#343);
#343=AXIS2_PLACEMENT_3D('',#344,#13,#332);
#344=CARTESIAN_POINT('',(0.281828814029,-0.2,0.));
#345=ADVANCED_FACE('',(#346),#349,.F.);
#346=FACE_BOUND('',#347,.F.);
#347=EDGE_LOOP('',(#277,#282,#287,#348));
#348=ORIENTED_EDGE('',*,*,#326,.F.);
#349=PLANE('',#350);
#350=AXIS2_PLACEMENT_3D('',#168,#351,#157);
#351=DIRECTION('',(-1.,2.22044604925E-16,0.));
#352=ADVANCED_FACE('',(#353),#356,.F.);
#353=FACE_BOUND('',#354,.F.);
#354=EDGE_LOOP('',(#263,#268,#274,#355));
#355=ORIENTED_EDGE('',*,*,#339,.F.);
#356=PLANE('',#357);
#357=AXIS2_PLACEMENT_3D('',#140,#351,#157);
#358=( GEOMETRIC_REPRESENTATION_CONTEXT(3) GLOBAL_UNCERTAINTY_ASSIGNED_CONTEXT((#362)) GLOBAL_UNIT_ASSIGNED_CONTEXT((#359,#360,#361)) REPRESENTATION_CONTEXT('Context #1','3D Context with UNIT and UNCERTAINTY') );
#359=( LENGTH_UNIT() NAMED_UNIT(*) SI_UNIT(.MILLI.,.METRE.) );
#360=( NAMED_UNIT(*) PLANE_ANGLE_UNIT() SI_UNIT($,.RADIAN.) );
#361=( NAMED_UNIT(*) SI_UNIT($,.STERADIAN.) SOLID_ANGLE_UNIT() );
#362=UNCERTAINTY_MEASURE_WITH_UNIT(LENGTH_MEASURE(1.E-07),#359,'distance_accuracy_value','confusion accuracy');
#363=PRODUCT_RELATED_PRODUCT_CATEGORY('part',$,(#7));
#364=MECHANICAL_DESIGN_GEOMETRIC_PRESENTATION_REPRESENTATION('',(#365,#375,#376,#377,#378,#387,#388,#389,#390,#399,#400,#401,#402,#403,#404),#358);
#365=STYLED_ITEM('color',(#366),#17);
#366=PRESENTATION_STYLE_ASSIGNMENT((#367,#373));
#367=SURFACE_STYLE_USAGE(.BOTH.,#368);
#368=SURFACE_SIDE_STYLE('',(#369));
#369=SURFACE_STYLE_FILL_AREA(#370);
#370=FILL_AREA_STYLE('',(#371));
#371=FILL_AREA_STYLE_COLOUR('',#372);
#372=COLOUR_RGB('',0.147999998088,0.145000001626,0.145000001626);
#373=CURVE_STYLE('',#374,POSITIVE_LENGTH_MEASURE(0.1),#372);
#374=DRAUGHTING_PRE_DEFINED_CURVE_FONT('continuous');
#375=STYLED_ITEM('color',(#366),#86);
#376=STYLED_ITEM('color',(#366),#114);
#377=STYLED_ITEM('color',(#366),#128);
#378=STYLED_ITEM('color',(#379),#226);
#379=PRESENTATION_STYLE_ASSIGNMENT((#380,#386));
#380=SURFACE_STYLE_USAGE(.BOTH.,#381);
#381=SURFACE_SIDE_STYLE('',(#382));
#382=SURFACE_STYLE_FILL_AREA(#383);
#383=FILL_AREA_STYLE('',(#384));
#384=FILL_AREA_STYLE_COLOUR('',#385);
#385=COLOUR_RGB('',0.823999987314,0.819999987296,0.781000009244);
#386=CURVE_STYLE('',#374,POSITIVE_LENGTH_MEASURE(0.1),#385);
#387=STYLED_ITEM('color',(#379),#238);
#388=STYLED_ITEM('color',(#366),#249);
#389=STYLED_ITEM('color',(#366),#259);
#390=STYLED_ITEM('color',(#391),#293);
#391=PRESENTATION_STYLE_ASSIGNMENT((#392,#398));
#392=SURFACE_STYLE_USAGE(.BOTH.,#393);
#393=SURFACE_SIDE_STYLE('',(#394));
#394=SURFACE_STYLE_FILL_AREA(#395);
#395=FILL_AREA_STYLE('',(#396));
#396=FILL_AREA_STYLE_COLOUR('',#397);
#397=COLOUR_RGB('',0.690999998585,0.664000007176,0.597999987832);
#398=CURVE_STYLE('',#374,POSITIVE_LENGTH_MEASURE(0.1),#397);
#399=STYLED_ITEM('color',(#379),#299);
#400=STYLED_ITEM('color',(#379),#310);
#401=STYLED_ITEM('color',(#379),#320);
#402=STYLED_ITEM('color',(#379),#333);
#403=STYLED_ITEM('color',(#379),#345);
#404=STYLED_ITEM('color',(#379),#352);
ENDSEC;
END-ISO-10303-21;
