ISO-10303-21;
HEADER;
/* Generated by software containing ST-Developer
 * from STEP Tools, Inc. (www.steptools.com) 
 */

FILE_DESCRIPTION(
/* description */ (''),
/* implementation_level */ '2;1');

FILE_NAME(
/* name */ '608-tool-grip.step',
/* time_stamp */ '2026-03-30T08:23:56+02:00',
/* author */ (''),
/* organization */ (''),
/* preprocessor_version */ 'ST-DEVELOPER v20.1',
/* originating_system */ 'Autodesk Translation Framework v14.24.0.0',
/* authorisation */ '');

FILE_SCHEMA (('AUTOMOTIVE_DESIGN { 1 0 10303 214 3 1 1 }'));
ENDSEC;

DATA;
#10=MECHANICAL_DESIGN_GEOMETRIC_PRESENTATION_REPRESENTATION('',(#13),#442);
#11=SHAPE_REPRESENTATION_RELATIONSHIP('SRR','None',#449,#12);
#12=ADVANCED_BREP_SHAPE_REPRESENTATION('',(#14),#441);
#13=STYLED_ITEM('',(#458),#14);
#14=MANIFOLD_SOLID_BREP('K\X\F6rper1',#211);
#15=FACE_BOUND('',#57,.T.);
#16=FACE_BOUND('',#60,.T.);
#17=PLANE('',#231);
#18=PLANE('',#237);
#19=PLANE('',#242);
#20=PLANE('',#248);
#21=CIRCLE('',#227,28.5);
#22=CIRCLE('',#228,27.5);
#23=CIRCLE('',#230,28.5);
#24=CIRCLE('',#233,17.);
#25=CIRCLE('',#234,16.);
#26=CIRCLE('',#236,16.);
#27=CIRCLE('',#238,27.5);
#28=CIRCLE('',#240,7.1);
#29=CIRCLE('',#241,6.1);
#30=CIRCLE('',#243,15.);
#31=CIRCLE('',#245,6.1);
#32=CONICAL_SURFACE('',#226,28.,0.785398163397449);
#33=CONICAL_SURFACE('',#232,16.5,0.785398163397449);
#34=CONICAL_SURFACE('',#239,6.6,0.785398163397448);
#35=CONICAL_SURFACE('',#246,15.5,0.785398163397448);
#36=CONICAL_SURFACE('',#247,28.,0.785398163397449);
#37=FACE_OUTER_BOUND('',#50,.T.);
#38=FACE_OUTER_BOUND('',#51,.T.);
#39=FACE_OUTER_BOUND('',#52,.T.);
#40=FACE_OUTER_BOUND('',#53,.T.);
#41=FACE_OUTER_BOUND('',#54,.T.);
#42=FACE_OUTER_BOUND('',#55,.T.);
#43=FACE_OUTER_BOUND('',#56,.T.);
#44=FACE_OUTER_BOUND('',#58,.T.);
#45=FACE_OUTER_BOUND('',#59,.T.);
#46=FACE_OUTER_BOUND('',#61,.T.);
#47=FACE_OUTER_BOUND('',#62,.T.);
#48=FACE_OUTER_BOUND('',#63,.T.);
#49=FACE_OUTER_BOUND('',#64,.T.);
#50=EDGE_LOOP('',(#138,#139,#140,#141,#142,#143,#144,#145));
#51=EDGE_LOOP('',(#146,#147,#148,#149));
#52=EDGE_LOOP('',(#150,#151,#152,#153));
#53=EDGE_LOOP('',(#154));
#54=EDGE_LOOP('',(#155,#156,#157,#158));
#55=EDGE_LOOP('',(#159,#160,#161,#162,#163,#164,#165,#166,#167));
#56=EDGE_LOOP('',(#168));
#57=EDGE_LOOP('',(#169));
#58=EDGE_LOOP('',(#170,#171,#172,#173));
#59=EDGE_LOOP('',(#174));
#60=EDGE_LOOP('',(#175));
#61=EDGE_LOOP('',(#176,#177,#178,#179,#180,#181,#182,#183,#184));
#62=EDGE_LOOP('',(#185,#186,#187,#188));
#63=EDGE_LOOP('',(#189,#190,#191,#192));
#64=EDGE_LOOP('',(#193));
#65=LINE('',#344,#76);
#66=LINE('',#399,#77);
#67=LINE('',#404,#78);
#68=LINE('',#410,#79);
#69=LINE('',#415,#80);
#70=LINE('',#416,#81);
#71=LINE('',#424,#82);
#72=LINE('',#430,#83);
#73=LINE('',#432,#84);
#74=LINE('',#435,#85);
#75=LINE('',#437,#86);
#76=VECTOR('',#253,1.45);
#77=VECTOR('',#258,28.);
#78=VECTOR('',#265,28.5);
#79=VECTOR('',#272,16.5);
#80=VECTOR('',#279,16.);
#81=VECTOR('',#280,16.);
#82=VECTOR('',#289,6.6);
#83=VECTOR('',#298,6.1);
#84=VECTOR('',#299,6.1);
#85=VECTOR('',#304,15.5);
#86=VECTOR('',#307,28.);
#87=B_SPLINE_CURVE_WITH_KNOTS('',3,(#314,#315,#316,#317,#318,#319,#320,
#321,#322,#323,#324,#325,#326,#327,#328,#329,#330,#331),.UNSPECIFIED.,.F.,
 .F.,(4,2,2,2,2,2,2,2,4),(0.218607017135671,0.273258708787563,0.327910400439455,
0.382562217355399,0.437214034271343,0.491865851187286,0.54651766810323,
0.601169359755122,0.655821051407014),.UNSPECIFIED.);
#88=B_SPLINE_CURVE_WITH_KNOTS('',3,(#333,#334,#335,#336,#337,#338,#339,
#340,#341,#342),.UNSPECIFIED.,.F.,.F.,(4,2,2,2,4),(0.874428068542685,0.929079885458629,
0.983731702374573,1.03838339402646,1.09303508567836),.UNSPECIFIED.);
#89=B_SPLINE_CURVE_WITH_KNOTS('',3,(#346,#347,#348,#349,#350,#351,#352,
#353,#354,#355),.UNSPECIFIED.,.F.,.F.,(4,2,2,2,4),(0.658155969216526,0.712999184259884,
0.767842399303242,0.822691845795972,0.877541292288702),.UNSPECIFIED.);
#90=B_SPLINE_CURVE_WITH_KNOTS('',3,(#357,#358,#359,#360,#361,#362,#363,
#364,#365,#366,#367,#368,#369,#370,#371,#372,#373,#374),.UNSPECIFIED.,.F.,
 .F.,(4,2,2,2,2,2,2,2,4),(0.219385323072176,0.274228538115534,0.329071753158892,
0.383921199651621,0.438770646144351,0.493620092637081,0.54846953912981,
0.603312754173168,0.658155969216526),.UNSPECIFIED.);
#91=B_SPLINE_CURVE_WITH_KNOTS('',3,(#375,#376,#377,#378,#379,#380,#381,
#382,#383,#384),.UNSPECIFIED.,.F.,.F.,(4,2,2,2,4),(0.,0.0548494464927297,
0.109698892985459,0.164542108028817,0.219385323072176),.UNSPECIFIED.);
#92=B_SPLINE_CURVE_WITH_KNOTS('',3,(#385,#386,#387,#388,#389,#390,#391,
#392,#393,#394),.UNSPECIFIED.,.F.,.F.,(4,2,2,2,4),(0.655821051407014,0.710472743058906,
0.765124434710797,0.819776251626741,0.874428068542685),.UNSPECIFIED.);
#93=VERTEX_POINT('',#312);
#94=VERTEX_POINT('',#313);
#95=VERTEX_POINT('',#332);
#96=VERTEX_POINT('',#343);
#97=VERTEX_POINT('',#345);
#98=VERTEX_POINT('',#356);
#99=VERTEX_POINT('',#396);
#100=VERTEX_POINT('',#398);
#101=VERTEX_POINT('',#402);
#102=VERTEX_POINT('',#407);
#103=VERTEX_POINT('',#409);
#104=VERTEX_POINT('',#413);
#105=VERTEX_POINT('',#418);
#106=VERTEX_POINT('',#421);
#107=VERTEX_POINT('',#423);
#108=VERTEX_POINT('',#427);
#109=VERTEX_POINT('',#431);
#110=EDGE_CURVE('',#93,#94,#87,.T.);
#111=EDGE_CURVE('',#95,#93,#88,.T.);
#112=EDGE_CURVE('',#95,#96,#65,.T.);
#113=EDGE_CURVE('',#97,#96,#89,.T.);
#114=EDGE_CURVE('',#98,#97,#90,.T.);
#115=EDGE_CURVE('',#96,#98,#91,.T.);
#116=EDGE_CURVE('',#94,#95,#92,.T.);
#117=EDGE_CURVE('',#99,#99,#21,.T.);
#118=EDGE_CURVE('',#99,#100,#66,.T.);
#119=EDGE_CURVE('',#100,#100,#22,.T.);
#120=EDGE_CURVE('',#101,#101,#23,.T.);
#121=EDGE_CURVE('',#101,#99,#67,.T.);
#122=EDGE_CURVE('',#102,#102,#24,.T.);
#123=EDGE_CURVE('',#102,#103,#68,.T.);
#124=EDGE_CURVE('',#103,#103,#25,.T.);
#125=EDGE_CURVE('',#104,#104,#26,.T.);
#126=EDGE_CURVE('',#104,#93,#69,.T.);
#127=EDGE_CURVE('',#94,#103,#70,.T.);
#128=EDGE_CURVE('',#105,#105,#27,.T.);
#129=EDGE_CURVE('',#106,#106,#28,.T.);
#130=EDGE_CURVE('',#106,#107,#71,.T.);
#131=EDGE_CURVE('',#107,#107,#29,.T.);
#132=EDGE_CURVE('',#108,#108,#30,.T.);
#133=EDGE_CURVE('',#107,#97,#72,.T.);
#134=EDGE_CURVE('',#98,#109,#73,.T.);
#135=EDGE_CURVE('',#109,#109,#31,.T.);
#136=EDGE_CURVE('',#108,#104,#74,.T.);
#137=EDGE_CURVE('',#105,#101,#75,.T.);
#138=ORIENTED_EDGE('',*,*,#110,.F.);
#139=ORIENTED_EDGE('',*,*,#111,.F.);
#140=ORIENTED_EDGE('',*,*,#112,.T.);
#141=ORIENTED_EDGE('',*,*,#113,.F.);
#142=ORIENTED_EDGE('',*,*,#114,.F.);
#143=ORIENTED_EDGE('',*,*,#115,.F.);
#144=ORIENTED_EDGE('',*,*,#112,.F.);
#145=ORIENTED_EDGE('',*,*,#116,.F.);
#146=ORIENTED_EDGE('',*,*,#117,.T.);
#147=ORIENTED_EDGE('',*,*,#118,.T.);
#148=ORIENTED_EDGE('',*,*,#119,.T.);
#149=ORIENTED_EDGE('',*,*,#118,.F.);
#150=ORIENTED_EDGE('',*,*,#120,.F.);
#151=ORIENTED_EDGE('',*,*,#121,.T.);
#152=ORIENTED_EDGE('',*,*,#117,.F.);
#153=ORIENTED_EDGE('',*,*,#121,.F.);
#154=ORIENTED_EDGE('',*,*,#119,.F.);
#155=ORIENTED_EDGE('',*,*,#122,.T.);
#156=ORIENTED_EDGE('',*,*,#123,.T.);
#157=ORIENTED_EDGE('',*,*,#124,.T.);
#158=ORIENTED_EDGE('',*,*,#123,.F.);
#159=ORIENTED_EDGE('',*,*,#125,.F.);
#160=ORIENTED_EDGE('',*,*,#126,.T.);
#161=ORIENTED_EDGE('',*,*,#110,.T.);
#162=ORIENTED_EDGE('',*,*,#127,.T.);
#163=ORIENTED_EDGE('',*,*,#124,.F.);
#164=ORIENTED_EDGE('',*,*,#127,.F.);
#165=ORIENTED_EDGE('',*,*,#116,.T.);
#166=ORIENTED_EDGE('',*,*,#111,.T.);
#167=ORIENTED_EDGE('',*,*,#126,.F.);
#168=ORIENTED_EDGE('',*,*,#128,.F.);
#169=ORIENTED_EDGE('',*,*,#122,.F.);
#170=ORIENTED_EDGE('',*,*,#129,.T.);
#171=ORIENTED_EDGE('',*,*,#130,.T.);
#172=ORIENTED_EDGE('',*,*,#131,.T.);
#173=ORIENTED_EDGE('',*,*,#130,.F.);
#174=ORIENTED_EDGE('',*,*,#132,.F.);
#175=ORIENTED_EDGE('',*,*,#129,.F.);
#176=ORIENTED_EDGE('',*,*,#131,.F.);
#177=ORIENTED_EDGE('',*,*,#133,.T.);
#178=ORIENTED_EDGE('',*,*,#113,.T.);
#179=ORIENTED_EDGE('',*,*,#115,.T.);
#180=ORIENTED_EDGE('',*,*,#134,.T.);
#181=ORIENTED_EDGE('',*,*,#135,.T.);
#182=ORIENTED_EDGE('',*,*,#134,.F.);
#183=ORIENTED_EDGE('',*,*,#114,.T.);
#184=ORIENTED_EDGE('',*,*,#133,.F.);
#185=ORIENTED_EDGE('',*,*,#132,.T.);
#186=ORIENTED_EDGE('',*,*,#136,.T.);
#187=ORIENTED_EDGE('',*,*,#125,.T.);
#188=ORIENTED_EDGE('',*,*,#136,.F.);
#189=ORIENTED_EDGE('',*,*,#128,.T.);
#190=ORIENTED_EDGE('',*,*,#137,.T.);
#191=ORIENTED_EDGE('',*,*,#120,.T.);
#192=ORIENTED_EDGE('',*,*,#137,.F.);
#193=ORIENTED_EDGE('',*,*,#135,.F.);
#194=CYLINDRICAL_SURFACE('',#225,1.45);
#195=CYLINDRICAL_SURFACE('',#229,28.5);
#196=CYLINDRICAL_SURFACE('',#235,16.);
#197=CYLINDRICAL_SURFACE('',#244,6.1);
#198=ADVANCED_FACE('',(#37),#194,.F.);
#199=ADVANCED_FACE('',(#38),#32,.T.);
#200=ADVANCED_FACE('',(#39),#195,.T.);
#201=ADVANCED_FACE('',(#40),#17,.F.);
#202=ADVANCED_FACE('',(#41),#33,.T.);
#203=ADVANCED_FACE('',(#42),#196,.T.);
#204=ADVANCED_FACE('',(#43,#15),#18,.T.);
#205=ADVANCED_FACE('',(#44),#34,.F.);
#206=ADVANCED_FACE('',(#45,#16),#19,.T.);
#207=ADVANCED_FACE('',(#46),#197,.F.);
#208=ADVANCED_FACE('',(#47),#35,.T.);
#209=ADVANCED_FACE('',(#48),#36,.T.);
#210=ADVANCED_FACE('',(#49),#20,.T.);
#211=CLOSED_SHELL('',(#198,#199,#200,#201,#202,#203,#204,#205,#206,#207,
#208,#209,#210));
#212=DERIVED_UNIT_ELEMENT(#214,1.);
#213=DERIVED_UNIT_ELEMENT(#444,-3.);
#214=(
MASS_UNIT()
NAMED_UNIT(*)
SI_UNIT(.KILO.,.GRAM.)
);
#215=DERIVED_UNIT((#212,#213));
#216=MEASURE_REPRESENTATION_ITEM('density measure',
POSITIVE_RATIO_MEASURE(7850.),#215);
#217=PROPERTY_DEFINITION_REPRESENTATION(#222,#219);
#218=PROPERTY_DEFINITION_REPRESENTATION(#223,#220);
#219=REPRESENTATION('material name',(#221),#441);
#220=REPRESENTATION('density',(#216),#441);
#221=DESCRIPTIVE_REPRESENTATION_ITEM('Stahl','Stahl');
#222=PROPERTY_DEFINITION('material property','material name',#451);
#223=PROPERTY_DEFINITION('material property','density of part',#451);
#224=AXIS2_PLACEMENT_3D('',#310,#249,#250);
#225=AXIS2_PLACEMENT_3D('',#311,#251,#252);
#226=AXIS2_PLACEMENT_3D('',#395,#254,#255);
#227=AXIS2_PLACEMENT_3D('',#397,#256,#257);
#228=AXIS2_PLACEMENT_3D('',#400,#259,#260);
#229=AXIS2_PLACEMENT_3D('',#401,#261,#262);
#230=AXIS2_PLACEMENT_3D('',#403,#263,#264);
#231=AXIS2_PLACEMENT_3D('',#405,#266,#267);
#232=AXIS2_PLACEMENT_3D('',#406,#268,#269);
#233=AXIS2_PLACEMENT_3D('',#408,#270,#271);
#234=AXIS2_PLACEMENT_3D('',#411,#273,#274);
#235=AXIS2_PLACEMENT_3D('',#412,#275,#276);
#236=AXIS2_PLACEMENT_3D('',#414,#277,#278);
#237=AXIS2_PLACEMENT_3D('',#417,#281,#282);
#238=AXIS2_PLACEMENT_3D('',#419,#283,#284);
#239=AXIS2_PLACEMENT_3D('',#420,#285,#286);
#240=AXIS2_PLACEMENT_3D('',#422,#287,#288);
#241=AXIS2_PLACEMENT_3D('',#425,#290,#291);
#242=AXIS2_PLACEMENT_3D('',#426,#292,#293);
#243=AXIS2_PLACEMENT_3D('',#428,#294,#295);
#244=AXIS2_PLACEMENT_3D('',#429,#296,#297);
#245=AXIS2_PLACEMENT_3D('',#433,#300,#301);
#246=AXIS2_PLACEMENT_3D('',#434,#302,#303);
#247=AXIS2_PLACEMENT_3D('',#436,#305,#306);
#248=AXIS2_PLACEMENT_3D('',#438,#308,#309);
#249=DIRECTION('axis',(0.,0.,1.));
#250=DIRECTION('refdir',(1.,0.,0.));
#251=DIRECTION('center_axis',(1.,1.22464679914735E-16,0.));
#252=DIRECTION('ref_axis',(1.22464679914735E-16,-1.,0.));
#253=DIRECTION('',(1.,1.22464679914735E-16,0.));
#254=DIRECTION('center_axis',(0.,0.,1.));
#255=DIRECTION('ref_axis',(1.,0.,0.));
#256=DIRECTION('center_axis',(0.,0.,-1.));
#257=DIRECTION('ref_axis',(1.,0.,0.));
#258=DIRECTION('',(0.707106781186548,8.65956056235494E-17,-0.707106781186547));
#259=DIRECTION('center_axis',(0.,0.,1.));
#260=DIRECTION('ref_axis',(1.,0.,0.));
#261=DIRECTION('center_axis',(0.,0.,1.));
#262=DIRECTION('ref_axis',(1.,0.,0.));
#263=DIRECTION('center_axis',(0.,0.,1.));
#264=DIRECTION('ref_axis',(1.,0.,0.));
#265=DIRECTION('',(0.,0.,-1.));
#266=DIRECTION('center_axis',(0.,0.,1.));
#267=DIRECTION('ref_axis',(1.,0.,0.));
#268=DIRECTION('center_axis',(0.,0.,-1.));
#269=DIRECTION('ref_axis',(1.,0.,0.));
#270=DIRECTION('center_axis',(0.,0.,1.));
#271=DIRECTION('ref_axis',(1.,0.,0.));
#272=DIRECTION('',(0.707106781186548,-8.65956056235494E-17,0.707106781186547));
#273=DIRECTION('center_axis',(0.,0.,-1.));
#274=DIRECTION('ref_axis',(1.,0.,0.));
#275=DIRECTION('center_axis',(0.,0.,1.));
#276=DIRECTION('ref_axis',(1.,0.,0.));
#277=DIRECTION('center_axis',(0.,0.,1.));
#278=DIRECTION('ref_axis',(1.,0.,0.));
#279=DIRECTION('',(0.,0.,-1.));
#280=DIRECTION('',(0.,0.,-1.));
#281=DIRECTION('center_axis',(0.,0.,1.));
#282=DIRECTION('ref_axis',(1.,0.,0.));
#283=DIRECTION('center_axis',(0.,0.,-1.));
#284=DIRECTION('ref_axis',(1.,0.,0.));
#285=DIRECTION('center_axis',(0.,0.,1.));
#286=DIRECTION('ref_axis',(1.,0.,0.));
#287=DIRECTION('center_axis',(0.,0.,1.));
#288=DIRECTION('ref_axis',(1.,0.,0.));
#289=DIRECTION('',(0.707106781186547,8.65956056235493E-17,-0.707106781186548));
#290=DIRECTION('center_axis',(0.,0.,-1.));
#291=DIRECTION('ref_axis',(1.,0.,0.));
#292=DIRECTION('center_axis',(0.,0.,1.));
#293=DIRECTION('ref_axis',(1.,0.,0.));
#294=DIRECTION('center_axis',(0.,0.,-1.));
#295=DIRECTION('ref_axis',(1.,0.,0.));
#296=DIRECTION('center_axis',(0.,0.,1.));
#297=DIRECTION('ref_axis',(1.,0.,0.));
#298=DIRECTION('',(0.,0.,-1.));
#299=DIRECTION('',(0.,0.,-1.));
#300=DIRECTION('center_axis',(0.,0.,-1.));
#301=DIRECTION('ref_axis',(1.,0.,0.));
#302=DIRECTION('center_axis',(0.,0.,-1.));
#303=DIRECTION('ref_axis',(1.,0.,0.));
#304=DIRECTION('',(-0.707106781186548,-8.65956056235493E-17,-0.707106781186548));
#305=DIRECTION('center_axis',(0.,0.,-1.));
#306=DIRECTION('ref_axis',(1.,0.,0.));
#307=DIRECTION('',(-0.707106781186548,-8.65956056235494E-17,-0.707106781186547));
#308=DIRECTION('center_axis',(0.,0.,1.));
#309=DIRECTION('ref_axis',(1.,0.,0.));
#310=CARTESIAN_POINT('',(0.,0.,0.));
#311=CARTESIAN_POINT('Origin',(-10.5,6.73555739531044E-16,12.9196991920471));
#312=CARTESIAN_POINT('',(-16.,-1.95943487863575E-15,14.3696991920471));
#313=CARTESIAN_POINT('',(-16.,-1.95943487863575E-15,11.4696991920471));
#314=CARTESIAN_POINT('Ctrl Pts',(-16.,1.73472347597681E-16,14.3696991920471));
#315=CARTESIAN_POINT('Ctrl Pts',(-16.,-0.182172305506306,14.3696991920471));
#316=CARTESIAN_POINT('Ctrl Pts',(-15.9965699014813,-0.376419292774044,14.3332715623126));
#317=CARTESIAN_POINT('Ctrl Pts',(-15.9841706828335,-0.733640020397898,14.1852625632551));
#318=CARTESIAN_POINT('Ctrl Pts',(-15.9753778123051,-0.896622143685083,14.073686713803));
#319=CARTESIAN_POINT('Ctrl Pts',(-15.9588514533334,-1.15398781670222,13.8163210407859));
#320=CARTESIAN_POINT('Ctrl Pts',(-15.9500427739524,-1.26556343665913,13.6533390473195));
#321=CARTESIAN_POINT('Ctrl Pts',(-15.9376073731773,-1.41357226245338,13.296118752185));
#322=CARTESIAN_POINT('Ctrl Pts',(-15.9341614150228,-1.45,13.1018719151003));
#323=CARTESIAN_POINT('Ctrl Pts',(-15.9341614150228,-1.45,12.737526468994));
#324=CARTESIAN_POINT('Ctrl Pts',(-15.9376073731773,-1.41357226245338,12.5432796319092));
#325=CARTESIAN_POINT('Ctrl Pts',(-15.9500427739524,-1.26556343665913,12.1860593367748));
#326=CARTESIAN_POINT('Ctrl Pts',(-15.9588514533334,-1.15398781670222,12.0230773433084));
#327=CARTESIAN_POINT('Ctrl Pts',(-15.9753778123051,-0.896622143685083,11.7657116702912));
#328=CARTESIAN_POINT('Ctrl Pts',(-15.9841706828335,-0.7336400203979,11.6541358208392));
#329=CARTESIAN_POINT('Ctrl Pts',(-15.9965699014813,-0.376419292774045,11.5061268217817));
#330=CARTESIAN_POINT('Ctrl Pts',(-16.,-0.182172305506307,11.4696991920471));
#331=CARTESIAN_POINT('Ctrl Pts',(-16.,-5.55111512312578E-16,11.4696991920471));
#332=CARTESIAN_POINT('',(-15.9341614150228,1.45,12.9196991920471));
#333=CARTESIAN_POINT('Ctrl Pts',(-15.9341614150228,1.45,12.9196991920471));
#334=CARTESIAN_POINT('Ctrl Pts',(-15.9341614150228,1.45,13.1018719151003));
#335=CARTESIAN_POINT('Ctrl Pts',(-15.9376073731773,1.41357226245338,13.296118752185));
#336=CARTESIAN_POINT('Ctrl Pts',(-15.9500427739524,1.26556343665914,13.6533390473194));
#337=CARTESIAN_POINT('Ctrl Pts',(-15.9588514533334,1.15398781670222,13.8163210407859));
#338=CARTESIAN_POINT('Ctrl Pts',(-15.9753778123051,0.896622143685083,14.073686713803));
#339=CARTESIAN_POINT('Ctrl Pts',(-15.9841706828335,0.7336400203979,14.1852625632551));
#340=CARTESIAN_POINT('Ctrl Pts',(-15.9965699014813,0.376419292774045,14.3332715623126));
#341=CARTESIAN_POINT('Ctrl Pts',(-16.,0.182172305506307,14.3696991920471));
#342=CARTESIAN_POINT('Ctrl Pts',(-16.,1.38777878078145E-16,14.3696991920471));
#343=CARTESIAN_POINT('',(-5.92515822573541,1.45,12.9196991920471));
#344=CARTESIAN_POINT('',(-10.5,1.45,12.9196991920471));
#345=CARTESIAN_POINT('',(-6.1,1.12205299533563E-16,14.3696991920471));
#346=CARTESIAN_POINT('Ctrl Pts',(-6.1,9.36750677027476E-16,14.3696991920471));
#347=CARTESIAN_POINT('Ctrl Pts',(-6.1,0.182810716811195,14.3696991920471));
#348=CARTESIAN_POINT('Ctrl Pts',(-6.09095693658355,0.377335013419664,14.3330215929015));
#349=CARTESIAN_POINT('Ctrl Pts',(-6.05828491782562,0.734385438435132,14.1848236614755));
#350=CARTESIAN_POINT('Ctrl Pts',(-6.03509722327273,0.896967562969674,14.0733412945184));
#351=CARTESIAN_POINT('Ctrl Pts',(-5.99132951935406,1.15365668453399,13.8166521729541));
#352=CARTESIAN_POINT('Ctrl Pts',(-5.96784885674633,1.26512766674727,13.6540761533738));
#353=CARTESIAN_POINT('Ctrl Pts',(-5.93450101808259,1.41331730322335,13.2970472609502));
#354=CARTESIAN_POINT('Ctrl Pts',(-5.92515822573541,1.45,13.1025306803562));
#355=CARTESIAN_POINT('Ctrl Pts',(-5.92515822573541,1.45,12.9196991920471));
#356=CARTESIAN_POINT('',(-6.1,1.55573386432983E-16,11.4696991920471));
#357=CARTESIAN_POINT('Ctrl Pts',(-6.1,1.09287578986539E-15,11.4696991920471));
#358=CARTESIAN_POINT('Ctrl Pts',(-6.1,-0.182810716811192,11.4696991920471));
#359=CARTESIAN_POINT('Ctrl Pts',(-6.09095693658355,-0.377335013419661,11.5063767911927));
#360=CARTESIAN_POINT('Ctrl Pts',(-6.05828491782562,-0.734385438435129,11.6545747226187));
#361=CARTESIAN_POINT('Ctrl Pts',(-6.03509722327273,-0.896967562969672,11.7660570895758));
#362=CARTESIAN_POINT('Ctrl Pts',(-5.99132951935406,-1.15365668453399,12.0227462111401));
#363=CARTESIAN_POINT('Ctrl Pts',(-5.96784885674633,-1.26512766674727,12.1853222307204));
#364=CARTESIAN_POINT('Ctrl Pts',(-5.93450101808259,-1.41331730322334,12.5423511231441));
#365=CARTESIAN_POINT('Ctrl Pts',(-5.92515822573541,-1.45,12.736867703738));
#366=CARTESIAN_POINT('Ctrl Pts',(-5.92515822573541,-1.45,13.1025306803562));
#367=CARTESIAN_POINT('Ctrl Pts',(-5.93450101808259,-1.41331730322335,13.2970472609502));
#368=CARTESIAN_POINT('Ctrl Pts',(-5.96784885674633,-1.26512766674727,13.6540761533738));
#369=CARTESIAN_POINT('Ctrl Pts',(-5.99132951935406,-1.15365668453399,13.8166521729541));
#370=CARTESIAN_POINT('Ctrl Pts',(-6.03509722327273,-0.896967562969672,14.0733412945184));
#371=CARTESIAN_POINT('Ctrl Pts',(-6.05828491782562,-0.734385438435129,14.1848236614755));
#372=CARTESIAN_POINT('Ctrl Pts',(-6.09095693658355,-0.377335013419661,14.3330215929015));
#373=CARTESIAN_POINT('Ctrl Pts',(-6.1,-0.182810716811192,14.3696991920471));
#374=CARTESIAN_POINT('Ctrl Pts',(-6.1,1.00613961606655E-15,14.3696991920471));
#375=CARTESIAN_POINT('Ctrl Pts',(-5.92515822573541,1.45,12.9196991920471));
#376=CARTESIAN_POINT('Ctrl Pts',(-5.92515822573541,1.45,12.736867703738));
#377=CARTESIAN_POINT('Ctrl Pts',(-5.93450101808259,1.41331730322335,12.5423511231441));
#378=CARTESIAN_POINT('Ctrl Pts',(-5.96784885674633,1.26512766674727,12.1853222307204));
#379=CARTESIAN_POINT('Ctrl Pts',(-5.99132951935406,1.15365668453399,12.0227462111401));
#380=CARTESIAN_POINT('Ctrl Pts',(-6.03509722327273,0.896967562969674,11.7660570895758));
#381=CARTESIAN_POINT('Ctrl Pts',(-6.05828491782562,0.734385438435132,11.6545747226187));
#382=CARTESIAN_POINT('Ctrl Pts',(-6.09095693658355,0.377335013419664,11.5063767911927));
#383=CARTESIAN_POINT('Ctrl Pts',(-6.1,0.182810716811195,11.4696991920471));
#384=CARTESIAN_POINT('Ctrl Pts',(-6.1,1.17961196366423E-15,11.4696991920471));
#385=CARTESIAN_POINT('Ctrl Pts',(-16.,-2.42861286636753E-16,11.4696991920471));
#386=CARTESIAN_POINT('Ctrl Pts',(-16.,0.182172305506306,11.4696991920471));
#387=CARTESIAN_POINT('Ctrl Pts',(-15.9965699014813,0.376419292774044,11.5061268217817));
#388=CARTESIAN_POINT('Ctrl Pts',(-15.9841706828335,0.733640020397899,11.6541358208392));
#389=CARTESIAN_POINT('Ctrl Pts',(-15.9753778123051,0.896622143685082,11.7657116702912));
#390=CARTESIAN_POINT('Ctrl Pts',(-15.9588514533334,1.15398781670222,12.0230773433084));
#391=CARTESIAN_POINT('Ctrl Pts',(-15.9500427739524,1.26556343665913,12.1860593367748));
#392=CARTESIAN_POINT('Ctrl Pts',(-15.9376073731773,1.41357226245338,12.5432796319092));
#393=CARTESIAN_POINT('Ctrl Pts',(-15.9341614150228,1.45,12.737526468994));
#394=CARTESIAN_POINT('Ctrl Pts',(-15.9341614150228,1.45,12.9196991920471));
#395=CARTESIAN_POINT('Origin',(0.,0.,0.5));
#396=CARTESIAN_POINT('',(-28.5,3.49024337756996E-15,1.));
#397=CARTESIAN_POINT('Origin',(0.,0.,1.));
#398=CARTESIAN_POINT('',(-27.5,-3.36777869765522E-15,0.));
#399=CARTESIAN_POINT('',(-28.,-3.42901103761259E-15,0.5));
#400=CARTESIAN_POINT('Origin',(0.,0.,0.));
#401=CARTESIAN_POINT('Origin',(0.,0.,0.));
#402=CARTESIAN_POINT('',(-28.5,-3.49024337756996E-15,4.));
#403=CARTESIAN_POINT('Origin',(0.,0.,4.));
#404=CARTESIAN_POINT('',(-28.5,-3.49024337756996E-15,0.));
#405=CARTESIAN_POINT('Origin',(0.,0.,0.));
#406=CARTESIAN_POINT('Origin',(0.,0.,5.5));
#407=CARTESIAN_POINT('',(-17.,-2.0818995585505E-15,5.));
#408=CARTESIAN_POINT('Origin',(0.,0.,5.));
#409=CARTESIAN_POINT('',(-16.,1.95943487863577E-15,6.));
#410=CARTESIAN_POINT('',(-16.5,2.02066721859313E-15,5.5));
#411=CARTESIAN_POINT('Origin',(0.,0.,6.));
#412=CARTESIAN_POINT('Origin',(0.,0.,0.));
#413=CARTESIAN_POINT('',(-16.,-1.95943487863577E-15,20.));
#414=CARTESIAN_POINT('Origin',(0.,0.,20.));
#415=CARTESIAN_POINT('',(-16.,-1.95943487863577E-15,0.));
#416=CARTESIAN_POINT('',(-16.,-1.95943487863577E-15,0.));
#417=CARTESIAN_POINT('Origin',(0.,0.,5.));
#418=CARTESIAN_POINT('',(-27.5,3.36777869765522E-15,5.));
#419=CARTESIAN_POINT('Origin',(0.,0.,5.));
#420=CARTESIAN_POINT('Origin',(0.,0.,20.5));
#421=CARTESIAN_POINT('',(-7.1,-8.69499227394621E-16,21.));
#422=CARTESIAN_POINT('Origin',(0.,0.,21.));
#423=CARTESIAN_POINT('',(-6.1,7.47034547479885E-16,20.));
#424=CARTESIAN_POINT('',(-6.6,-8.08266887437253E-16,20.5));
#425=CARTESIAN_POINT('Origin',(0.,0.,20.));
#426=CARTESIAN_POINT('Origin',(0.,0.,21.));
#427=CARTESIAN_POINT('',(-15.,1.83697019872103E-15,21.));
#428=CARTESIAN_POINT('Origin',(0.,0.,21.));
#429=CARTESIAN_POINT('Origin',(0.,0.,0.));
#430=CARTESIAN_POINT('',(-6.1,-7.47034547479885E-16,0.));
#431=CARTESIAN_POINT('',(-6.1,-7.47034547479885E-16,5.));
#432=CARTESIAN_POINT('',(-6.1,-7.47034547479885E-16,0.));
#433=CARTESIAN_POINT('Origin',(0.,0.,5.));
#434=CARTESIAN_POINT('Origin',(0.,0.,20.5));
#435=CARTESIAN_POINT('',(-15.5,-1.8982025386784E-15,20.5));
#436=CARTESIAN_POINT('Origin',(0.,0.,4.5));
#437=CARTESIAN_POINT('',(-28.,-3.42901103761259E-15,4.5));
#438=CARTESIAN_POINT('Origin',(0.,0.,5.));
#439=UNCERTAINTY_MEASURE_WITH_UNIT(LENGTH_MEASURE(0.01),#443,
'DISTANCE_ACCURACY_VALUE',
'Maximum model space distance between geometric entities at asserted c
onnectivities');
#440=UNCERTAINTY_MEASURE_WITH_UNIT(LENGTH_MEASURE(0.01),#443,
'DISTANCE_ACCURACY_VALUE',
'Maximum model space distance between geometric entities at asserted c
onnectivities');
#441=(
GEOMETRIC_REPRESENTATION_CONTEXT(3)
GLOBAL_UNCERTAINTY_ASSIGNED_CONTEXT((#439))
GLOBAL_UNIT_ASSIGNED_CONTEXT((#443,#445,#446))
REPRESENTATION_CONTEXT('','3D')
);
#442=(
GEOMETRIC_REPRESENTATION_CONTEXT(3)
GLOBAL_UNCERTAINTY_ASSIGNED_CONTEXT((#440))
GLOBAL_UNIT_ASSIGNED_CONTEXT((#443,#445,#446))
REPRESENTATION_CONTEXT('','3D')
);
#443=(
LENGTH_UNIT()
NAMED_UNIT(*)
SI_UNIT(.MILLI.,.METRE.)
);
#444=(
LENGTH_UNIT()
NAMED_UNIT(*)
SI_UNIT($,.METRE.)
);
#445=(
NAMED_UNIT(*)
PLANE_ANGLE_UNIT()
SI_UNIT($,.RADIAN.)
);
#446=(
NAMED_UNIT(*)
SI_UNIT($,.STERADIAN.)
SOLID_ANGLE_UNIT()
);
#447=SHAPE_DEFINITION_REPRESENTATION(#448,#449);
#448=PRODUCT_DEFINITION_SHAPE('',$,#451);
#449=SHAPE_REPRESENTATION('',(#224),#441);
#450=PRODUCT_DEFINITION_CONTEXT('part definition',#455,'design');
#451=PRODUCT_DEFINITION('2026-03-29-17-01-19-935','608-tool-grip',#452,
#450);
#452=PRODUCT_DEFINITION_FORMATION('',$,#457);
#453=PRODUCT_RELATED_PRODUCT_CATEGORY('608-tool-grip','608-tool-grip',(#457));
#454=APPLICATION_PROTOCOL_DEFINITION('international standard',
'automotive_design',2009,#455);
#455=APPLICATION_CONTEXT(
'Core Data for Automotive Mechanical Design Process');
#456=PRODUCT_CONTEXT('part definition',#455,'mechanical');
#457=PRODUCT('2026-03-29-17-01-19-935','608-tool-grip',$,(#456));
#458=PRESENTATION_STYLE_ASSIGNMENT((#459));
#459=SURFACE_STYLE_USAGE(.BOTH.,#460);
#460=SURFACE_SIDE_STYLE('',(#461));
#461=SURFACE_STYLE_FILL_AREA(#462);
#462=FILL_AREA_STYLE('Stahl - satiniert',(#463));
#463=FILL_AREA_STYLE_COLOUR('Stahl - satiniert',#464);
#464=COLOUR_RGB('Stahl - satiniert',0.627450980392157,0.627450980392157,
0.627450980392157);
ENDSEC;
END-ISO-10303-21;
