ISO-10303-21;
HEADER;
/* Generated by software containing ST-Developer
 * from STEP Tools, Inc. (www.steptools.com) 
 */

FILE_DESCRIPTION(
/* description */ (''),
/* implementation_level */ '2;1');

FILE_NAME(
/* name */ '608-tool-tip.step',
/* time_stamp */ '2026-03-30T08:23:37+02:00',
/* author */ (''),
/* organization */ (''),
/* preprocessor_version */ 'ST-DEVELOPER v20.1',
/* originating_system */ 'Autodesk Translation Framework v14.24.0.0',
/* authorisation */ '');

FILE_SCHEMA (('AUTOMOTIVE_DESIGN { 1 0 10303 214 3 1 1 }'));
ENDSEC;

DATA;
#10=MECHANICAL_DESIGN_GEOMETRIC_PRESENTATION_REPRESENTATION('',(#13),#412);
#11=SHAPE_REPRESENTATION_RELATIONSHIP('SRR','None',#419,#12);
#12=ADVANCED_BREP_SHAPE_REPRESENTATION('',(#14),#411);
#13=STYLED_ITEM('',(#428),#14);
#14=MANIFOLD_SOLID_BREP('K\X\F6rper1',#192);
#15=FACE_BOUND('',#58,.T.);
#16=FACE_BOUND('',#60,.T.);
#17=FACE_BOUND('',#63,.T.);
#18=FACE_BOUND('',#66,.T.);
#19=FACE_BOUND('',#69,.T.);
#20=PLANE('',#212);
#21=PLANE('',#216);
#22=PLANE('',#227);
#23=PLANE('',#228);
#24=PLANE('',#229);
#25=CIRCLE('',#208,2.8);
#26=CIRCLE('',#209,3.8);
#27=CIRCLE('',#211,3.8);
#28=CIRCLE('',#214,10.6);
#29=CIRCLE('',#215,11.);
#30=CIRCLE('',#217,6.45);
#31=CIRCLE('',#219,11.);
#32=CIRCLE('',#221,6.05);
#33=CIRCLE('',#223,6.05);
#34=CIRCLE('',#225,9.);
#35=CIRCLE('',#226,9.);
#36=CONICAL_SURFACE('',#207,3.3,0.785398163397448);
#37=CONICAL_SURFACE('',#213,10.8,0.785398163397448);
#38=CONICAL_SURFACE('',#220,6.25,0.785398163397448);
#39=FACE_OUTER_BOUND('',#52,.T.);
#40=FACE_OUTER_BOUND('',#53,.T.);
#41=FACE_OUTER_BOUND('',#54,.T.);
#42=FACE_OUTER_BOUND('',#55,.T.);
#43=FACE_OUTER_BOUND('',#56,.T.);
#44=FACE_OUTER_BOUND('',#57,.T.);
#45=FACE_OUTER_BOUND('',#59,.T.);
#46=FACE_OUTER_BOUND('',#61,.T.);
#47=FACE_OUTER_BOUND('',#62,.T.);
#48=FACE_OUTER_BOUND('',#64,.T.);
#49=FACE_OUTER_BOUND('',#65,.T.);
#50=FACE_OUTER_BOUND('',#67,.T.);
#51=FACE_OUTER_BOUND('',#68,.T.);
#52=EDGE_LOOP('',(#128,#129,#130,#131,#132,#133));
#53=EDGE_LOOP('',(#134,#135,#136,#137));
#54=EDGE_LOOP('',(#138,#139,#140,#141));
#55=EDGE_LOOP('',(#142));
#56=EDGE_LOOP('',(#143,#144,#145,#146));
#57=EDGE_LOOP('',(#147));
#58=EDGE_LOOP('',(#148));
#59=EDGE_LOOP('',(#149,#150,#151,#152));
#60=EDGE_LOOP('',(#153,#154));
#61=EDGE_LOOP('',(#155,#156,#157,#158));
#62=EDGE_LOOP('',(#159,#160,#161,#162));
#63=EDGE_LOOP('',(#163,#164));
#64=EDGE_LOOP('',(#165,#166,#167,#168));
#65=EDGE_LOOP('',(#169));
#66=EDGE_LOOP('',(#170));
#67=EDGE_LOOP('',(#171));
#68=EDGE_LOOP('',(#172));
#69=EDGE_LOOP('',(#173));
#70=LINE('',#330,#78);
#71=LINE('',#372,#79);
#72=LINE('',#376,#80);
#73=LINE('',#383,#81);
#74=LINE('',#390,#82);
#75=LINE('',#394,#83);
#76=LINE('',#398,#84);
#77=LINE('',#404,#85);
#78=VECTOR('',#234,1.45);
#79=VECTOR('',#239,3.3);
#80=VECTOR('',#244,3.8);
#81=VECTOR('',#253,10.8);
#82=VECTOR('',#262,11.);
#83=VECTOR('',#267,6.25);
#84=VECTOR('',#272,6.05);
#85=VECTOR('',#279,9.);
#86=B_SPLINE_CURVE_WITH_KNOTS('',3,(#292,#293,#294,#295,#296,#297,#298,
#299,#300,#301,#302,#303,#304,#305,#306,#307,#308,#309),.UNSPECIFIED.,.F.,
 .F.,(4,2,2,2,2,2,2,2,4),(0.218751858428389,0.273439540064349,0.328127221700309,
0.382815469278544,0.437503716856778,0.492191964435013,0.546880212013247,
0.601567893649207,0.656255575285167),.UNSPECIFIED.);
#87=B_SPLINE_CURVE_WITH_KNOTS('',3,(#310,#311,#312,#313,#314,#315,#316,
#317,#318,#319,#320,#321,#322,#323,#324,#325,#326,#327,#328),
 .UNSPECIFIED.,.F.,.F.,(4,2,2,2,3,2,2,2,4),(0.656255575285167,0.710943256921127,
0.765630938557087,0.820319186135322,0.875007433713556,0.929695681291791,
0.984383928870026,1.03907161050599,1.09375929214195),.UNSPECIFIED.);
#88=B_SPLINE_CURVE_WITH_KNOTS('',3,(#332,#333,#334,#335,#336,#337,#338,
#339,#340,#341),.UNSPECIFIED.,.F.,.F.,(4,2,2,2,4),(0.,0.0548534266755038,
0.109706853351008,0.164553833665088,0.219400813979169),.UNSPECIFIED.);
#89=B_SPLINE_CURVE_WITH_KNOTS('',3,(#342,#343,#344,#345,#346,#347,#348,
#349,#350,#351,#352,#353,#354,#355,#356,#357,#358,#359,#360,#361,#362,#363,
#364,#365,#366,#367),.UNSPECIFIED.,.F.,.F.,(4,2,2,2,2,2,2,2,2,2,2,2,4),
(0.219400813979169,0.27424779429325,0.32909477460733,0.383948201282834,
0.438801627958338,0.493655054633842,0.548508481309346,0.603355461623427,
0.658202441937507,0.713049422251588,0.767896402565669,0.822749829241173,
0.877603255916676),.UNSPECIFIED.);
#90=VERTEX_POINT('',#290);
#91=VERTEX_POINT('',#291);
#92=VERTEX_POINT('',#329);
#93=VERTEX_POINT('',#331);
#94=VERTEX_POINT('',#369);
#95=VERTEX_POINT('',#371);
#96=VERTEX_POINT('',#375);
#97=VERTEX_POINT('',#380);
#98=VERTEX_POINT('',#382);
#99=VERTEX_POINT('',#386);
#100=VERTEX_POINT('',#389);
#101=VERTEX_POINT('',#393);
#102=VERTEX_POINT('',#397);
#103=VERTEX_POINT('',#401);
#104=VERTEX_POINT('',#403);
#105=EDGE_CURVE('',#90,#91,#86,.T.);
#106=EDGE_CURVE('',#91,#90,#87,.T.);
#107=EDGE_CURVE('',#91,#92,#70,.T.);
#108=EDGE_CURVE('',#93,#92,#88,.T.);
#109=EDGE_CURVE('',#92,#93,#89,.T.);
#110=EDGE_CURVE('',#94,#94,#25,.T.);
#111=EDGE_CURVE('',#94,#95,#71,.T.);
#112=EDGE_CURVE('',#95,#95,#26,.T.);
#113=EDGE_CURVE('',#95,#96,#72,.T.);
#114=EDGE_CURVE('',#96,#96,#27,.T.);
#115=EDGE_CURVE('',#97,#97,#28,.T.);
#116=EDGE_CURVE('',#97,#98,#73,.T.);
#117=EDGE_CURVE('',#98,#98,#29,.T.);
#118=EDGE_CURVE('',#99,#99,#30,.T.);
#119=EDGE_CURVE('',#98,#100,#74,.T.);
#120=EDGE_CURVE('',#100,#100,#31,.T.);
#121=EDGE_CURVE('',#99,#101,#75,.T.);
#122=EDGE_CURVE('',#101,#101,#32,.T.);
#123=EDGE_CURVE('',#101,#102,#76,.T.);
#124=EDGE_CURVE('',#102,#102,#33,.T.);
#125=EDGE_CURVE('',#103,#103,#34,.T.);
#126=EDGE_CURVE('',#103,#104,#77,.T.);
#127=EDGE_CURVE('',#104,#104,#35,.T.);
#128=ORIENTED_EDGE('',*,*,#105,.F.);
#129=ORIENTED_EDGE('',*,*,#106,.F.);
#130=ORIENTED_EDGE('',*,*,#107,.T.);
#131=ORIENTED_EDGE('',*,*,#108,.F.);
#132=ORIENTED_EDGE('',*,*,#109,.F.);
#133=ORIENTED_EDGE('',*,*,#107,.F.);
#134=ORIENTED_EDGE('',*,*,#110,.T.);
#135=ORIENTED_EDGE('',*,*,#111,.T.);
#136=ORIENTED_EDGE('',*,*,#112,.T.);
#137=ORIENTED_EDGE('',*,*,#111,.F.);
#138=ORIENTED_EDGE('',*,*,#112,.F.);
#139=ORIENTED_EDGE('',*,*,#113,.T.);
#140=ORIENTED_EDGE('',*,*,#114,.F.);
#141=ORIENTED_EDGE('',*,*,#113,.F.);
#142=ORIENTED_EDGE('',*,*,#110,.F.);
#143=ORIENTED_EDGE('',*,*,#115,.T.);
#144=ORIENTED_EDGE('',*,*,#116,.T.);
#145=ORIENTED_EDGE('',*,*,#117,.T.);
#146=ORIENTED_EDGE('',*,*,#116,.F.);
#147=ORIENTED_EDGE('',*,*,#115,.F.);
#148=ORIENTED_EDGE('',*,*,#118,.F.);
#149=ORIENTED_EDGE('',*,*,#117,.F.);
#150=ORIENTED_EDGE('',*,*,#119,.T.);
#151=ORIENTED_EDGE('',*,*,#120,.F.);
#152=ORIENTED_EDGE('',*,*,#119,.F.);
#153=ORIENTED_EDGE('',*,*,#105,.T.);
#154=ORIENTED_EDGE('',*,*,#106,.T.);
#155=ORIENTED_EDGE('',*,*,#118,.T.);
#156=ORIENTED_EDGE('',*,*,#121,.T.);
#157=ORIENTED_EDGE('',*,*,#122,.T.);
#158=ORIENTED_EDGE('',*,*,#121,.F.);
#159=ORIENTED_EDGE('',*,*,#122,.F.);
#160=ORIENTED_EDGE('',*,*,#123,.T.);
#161=ORIENTED_EDGE('',*,*,#124,.F.);
#162=ORIENTED_EDGE('',*,*,#123,.F.);
#163=ORIENTED_EDGE('',*,*,#108,.T.);
#164=ORIENTED_EDGE('',*,*,#109,.T.);
#165=ORIENTED_EDGE('',*,*,#125,.F.);
#166=ORIENTED_EDGE('',*,*,#126,.T.);
#167=ORIENTED_EDGE('',*,*,#127,.F.);
#168=ORIENTED_EDGE('',*,*,#126,.F.);
#169=ORIENTED_EDGE('',*,*,#120,.T.);
#170=ORIENTED_EDGE('',*,*,#125,.T.);
#171=ORIENTED_EDGE('',*,*,#124,.T.);
#172=ORIENTED_EDGE('',*,*,#127,.T.);
#173=ORIENTED_EDGE('',*,*,#114,.T.);
#174=CYLINDRICAL_SURFACE('',#206,1.45);
#175=CYLINDRICAL_SURFACE('',#210,3.8);
#176=CYLINDRICAL_SURFACE('',#218,11.);
#177=CYLINDRICAL_SURFACE('',#222,6.05);
#178=CYLINDRICAL_SURFACE('',#224,9.);
#179=ADVANCED_FACE('',(#39),#174,.F.);
#180=ADVANCED_FACE('',(#40),#36,.T.);
#181=ADVANCED_FACE('',(#41),#175,.T.);
#182=ADVANCED_FACE('',(#42),#20,.F.);
#183=ADVANCED_FACE('',(#43),#37,.T.);
#184=ADVANCED_FACE('',(#44,#15),#21,.T.);
#185=ADVANCED_FACE('',(#45,#16),#176,.T.);
#186=ADVANCED_FACE('',(#46),#38,.F.);
#187=ADVANCED_FACE('',(#47,#17),#177,.F.);
#188=ADVANCED_FACE('',(#48),#178,.F.);
#189=ADVANCED_FACE('',(#49,#18),#22,.F.);
#190=ADVANCED_FACE('',(#50),#23,.T.);
#191=ADVANCED_FACE('',(#51,#19),#24,.F.);
#192=CLOSED_SHELL('',(#179,#180,#181,#182,#183,#184,#185,#186,#187,#188,
#189,#190,#191));
#193=DERIVED_UNIT_ELEMENT(#195,1.);
#194=DERIVED_UNIT_ELEMENT(#414,-3.);
#195=(
MASS_UNIT()
NAMED_UNIT(*)
SI_UNIT(.KILO.,.GRAM.)
);
#196=DERIVED_UNIT((#193,#194));
#197=MEASURE_REPRESENTATION_ITEM('density measure',
POSITIVE_RATIO_MEASURE(7850.),#196);
#198=PROPERTY_DEFINITION_REPRESENTATION(#203,#200);
#199=PROPERTY_DEFINITION_REPRESENTATION(#204,#201);
#200=REPRESENTATION('material name',(#202),#411);
#201=REPRESENTATION('density',(#197),#411);
#202=DESCRIPTIVE_REPRESENTATION_ITEM('Stahl','Stahl');
#203=PROPERTY_DEFINITION('material property','material name',#421);
#204=PROPERTY_DEFINITION('material property','density of part',#421);
#205=AXIS2_PLACEMENT_3D('',#288,#230,#231);
#206=AXIS2_PLACEMENT_3D('',#289,#232,#233);
#207=AXIS2_PLACEMENT_3D('',#368,#235,#236);
#208=AXIS2_PLACEMENT_3D('',#370,#237,#238);
#209=AXIS2_PLACEMENT_3D('',#373,#240,#241);
#210=AXIS2_PLACEMENT_3D('',#374,#242,#243);
#211=AXIS2_PLACEMENT_3D('',#377,#245,#246);
#212=AXIS2_PLACEMENT_3D('',#378,#247,#248);
#213=AXIS2_PLACEMENT_3D('',#379,#249,#250);
#214=AXIS2_PLACEMENT_3D('',#381,#251,#252);
#215=AXIS2_PLACEMENT_3D('',#384,#254,#255);
#216=AXIS2_PLACEMENT_3D('',#385,#256,#257);
#217=AXIS2_PLACEMENT_3D('',#387,#258,#259);
#218=AXIS2_PLACEMENT_3D('',#388,#260,#261);
#219=AXIS2_PLACEMENT_3D('',#391,#263,#264);
#220=AXIS2_PLACEMENT_3D('',#392,#265,#266);
#221=AXIS2_PLACEMENT_3D('',#395,#268,#269);
#222=AXIS2_PLACEMENT_3D('',#396,#270,#271);
#223=AXIS2_PLACEMENT_3D('',#399,#273,#274);
#224=AXIS2_PLACEMENT_3D('',#400,#275,#276);
#225=AXIS2_PLACEMENT_3D('',#402,#277,#278);
#226=AXIS2_PLACEMENT_3D('',#405,#280,#281);
#227=AXIS2_PLACEMENT_3D('',#406,#282,#283);
#228=AXIS2_PLACEMENT_3D('',#407,#284,#285);
#229=AXIS2_PLACEMENT_3D('',#408,#286,#287);
#230=DIRECTION('axis',(0.,0.,1.));
#231=DIRECTION('refdir',(1.,0.,0.));
#232=DIRECTION('center_axis',(-6.12323399573677E-17,-1.,0.));
#233=DIRECTION('ref_axis',(0.,0.,1.));
#234=DIRECTION('',(-6.12323399573676E-17,-1.,0.));
#235=DIRECTION('center_axis',(0.,0.,1.));
#236=DIRECTION('ref_axis',(1.,0.,0.));
#237=DIRECTION('center_axis',(0.,0.,1.));
#238=DIRECTION('ref_axis',(1.,0.,0.));
#239=DIRECTION('',(-0.707106781186547,8.65956056235493E-17,0.707106781186548));
#240=DIRECTION('center_axis',(0.,0.,-1.));
#241=DIRECTION('ref_axis',(1.,0.,0.));
#242=DIRECTION('center_axis',(0.,0.,-1.));
#243=DIRECTION('ref_axis',(1.,0.,0.));
#244=DIRECTION('',(0.,0.,1.));
#245=DIRECTION('center_axis',(0.,0.,1.));
#246=DIRECTION('ref_axis',(1.,0.,0.));
#247=DIRECTION('center_axis',(0.,0.,1.));
#248=DIRECTION('ref_axis',(1.,0.,0.));
#249=DIRECTION('center_axis',(0.,0.,-1.));
#250=DIRECTION('ref_axis',(1.,0.,0.));
#251=DIRECTION('center_axis',(0.,0.,-1.));
#252=DIRECTION('ref_axis',(1.,0.,0.));
#253=DIRECTION('',(-0.707106781186547,-8.65956056235493E-17,-0.707106781186547));
#254=DIRECTION('center_axis',(0.,0.,1.));
#255=DIRECTION('ref_axis',(1.,0.,0.));
#256=DIRECTION('center_axis',(0.,0.,1.));
#257=DIRECTION('ref_axis',(1.,0.,0.));
#258=DIRECTION('center_axis',(0.,0.,1.));
#259=DIRECTION('ref_axis',(1.,0.,0.));
#260=DIRECTION('center_axis',(0.,0.,1.));
#261=DIRECTION('ref_axis',(1.,0.,0.));
#262=DIRECTION('',(0.,0.,-1.));
#263=DIRECTION('center_axis',(0.,0.,-1.));
#264=DIRECTION('ref_axis',(1.,0.,0.));
#265=DIRECTION('center_axis',(0.,0.,1.));
#266=DIRECTION('ref_axis',(1.,0.,0.));
#267=DIRECTION('',(0.707106781186547,8.65956056235493E-17,-0.707106781186547));
#268=DIRECTION('center_axis',(0.,0.,-1.));
#269=DIRECTION('ref_axis',(1.,0.,0.));
#270=DIRECTION('center_axis',(0.,0.,1.));
#271=DIRECTION('ref_axis',(1.,0.,0.));
#272=DIRECTION('',(0.,0.,-1.));
#273=DIRECTION('center_axis',(0.,0.,1.));
#274=DIRECTION('ref_axis',(1.,0.,0.));
#275=DIRECTION('center_axis',(0.,0.,-1.));
#276=DIRECTION('ref_axis',(1.,0.,0.));
#277=DIRECTION('center_axis',(0.,0.,1.));
#278=DIRECTION('ref_axis',(1.,0.,0.));
#279=DIRECTION('',(0.,0.,1.));
#280=DIRECTION('center_axis',(0.,0.,-1.));
#281=DIRECTION('ref_axis',(1.,0.,0.));
#282=DIRECTION('center_axis',(0.,0.,1.));
#283=DIRECTION('ref_axis',(1.,0.,0.));
#284=DIRECTION('center_axis',(0.,0.,1.));
#285=DIRECTION('ref_axis',(1.,0.,0.));
#286=DIRECTION('center_axis',(0.,0.,1.));
#287=DIRECTION('ref_axis',(1.,0.,0.));
#288=CARTESIAN_POINT('',(0.,0.,0.));
#289=CARTESIAN_POINT('Origin',(-3.36777869765522E-16,5.5,11.8821189403534));
#290=CARTESIAN_POINT('',(0.,11.,13.3321189403534));
#291=CARTESIAN_POINT('',(6.73555739531046E-16,11.,10.4321189403534));
#292=CARTESIAN_POINT('Ctrl Pts',(-1.38777878078145E-16,11.,13.3321189403534));
#293=CARTESIAN_POINT('Ctrl Pts',(-0.182292272119866,11.,13.3321189403534));
#294=CARTESIAN_POINT('Ctrl Pts',(-0.376591173848757,10.9950059750097,13.2956443921562));
#295=CARTESIAN_POINT('Ctrl Pts',(-0.73377933437677,10.9769551876736,13.14760026989));
#296=CARTESIAN_POINT('Ctrl Pts',(-0.896686231384798,10.9641525678144,13.0360423744096));
#297=CARTESIAN_POINT('Ctrl Pts',(-1.15392476508178,10.9400706446434,12.7788038407126));
#298=CARTESIAN_POINT('Ctrl Pts',(-1.26548161722077,10.9272191309983,12.6158975211545));
#299=CARTESIAN_POINT('Ctrl Pts',(-1.41352497635223,10.9090562764881,12.2587113208046));
#300=CARTESIAN_POINT('Ctrl Pts',(-1.45,10.9040130227362,12.0644130989475));
#301=CARTESIAN_POINT('Ctrl Pts',(-1.45,10.9040130227362,11.6998247817593));
#302=CARTESIAN_POINT('Ctrl Pts',(-1.41352497635223,10.9090562764881,11.5055265599022));
#303=CARTESIAN_POINT('Ctrl Pts',(-1.26548161722078,10.9272191309983,11.1483403595523));
#304=CARTESIAN_POINT('Ctrl Pts',(-1.15392476508178,10.9400706446434,10.9854340399942));
#305=CARTESIAN_POINT('Ctrl Pts',(-0.896686231384798,10.9641525678144,10.7281955062972));
#306=CARTESIAN_POINT('Ctrl Pts',(-0.733779334376768,10.9769551876736,10.6166376108167));
#307=CARTESIAN_POINT('Ctrl Pts',(-0.376591173848756,10.9950059750097,10.4685934885506));
#308=CARTESIAN_POINT('Ctrl Pts',(-0.182292272119867,11.,10.4321189403534));
#309=CARTESIAN_POINT('Ctrl Pts',(-5.20417042793042E-16,11.,10.4321189403534));
#310=CARTESIAN_POINT('Ctrl Pts',(6.93889390390723E-17,11.,10.4321189403534));
#311=CARTESIAN_POINT('Ctrl Pts',(0.182292272119867,11.,10.4321189403534));
#312=CARTESIAN_POINT('Ctrl Pts',(0.376591173848756,10.9950059750097,10.4685934885506));
#313=CARTESIAN_POINT('Ctrl Pts',(0.733779334376768,10.9769551876736,10.6166376108167));
#314=CARTESIAN_POINT('Ctrl Pts',(0.896686231384798,10.9641525678144,10.7281955062972));
#315=CARTESIAN_POINT('Ctrl Pts',(1.15392476508178,10.9400706446434,10.9854340399942));
#316=CARTESIAN_POINT('Ctrl Pts',(1.26548161722077,10.9272191309983,11.1483403595523));
#317=CARTESIAN_POINT('Ctrl Pts',(1.41352497635223,10.9090562764881,11.5055265599022));
#318=CARTESIAN_POINT('Ctrl Pts',(1.45,10.9040130227362,11.6998247817593));
#319=CARTESIAN_POINT('Ctrl Pts',(1.45,10.9040130227362,11.8821189403534));
#320=CARTESIAN_POINT('Ctrl Pts',(1.45,10.9040130227362,12.0644130989475));
#321=CARTESIAN_POINT('Ctrl Pts',(1.41352497635223,10.9090562764881,12.2587113208046));
#322=CARTESIAN_POINT('Ctrl Pts',(1.26548161722077,10.9272191309983,12.6158975211545));
#323=CARTESIAN_POINT('Ctrl Pts',(1.15392476508178,10.9400706446434,12.7788038407126));
#324=CARTESIAN_POINT('Ctrl Pts',(0.896686231384798,10.9641525678144,13.0360423744096));
#325=CARTESIAN_POINT('Ctrl Pts',(0.73377933437677,10.9769551876736,13.14760026989));
#326=CARTESIAN_POINT('Ctrl Pts',(0.376591173848757,10.9950059750097,13.2956443921562));
#327=CARTESIAN_POINT('Ctrl Pts',(0.182292272119866,11.,13.3321189403534));
#328=CARTESIAN_POINT('Ctrl Pts',(1.04083408558608E-16,11.,13.3321189403534));
#329=CARTESIAN_POINT('',(-2.36235496053983E-16,6.05,10.4321189403534));
#330=CARTESIAN_POINT('',(-1.59204083889156E-16,5.5,10.4321189403534));
#331=CARTESIAN_POINT('',(1.45,5.87367006223536,11.8821189403534));
#332=CARTESIAN_POINT('Ctrl Pts',(1.45,5.87367006223536,11.8821189403534));
#333=CARTESIAN_POINT('Ctrl Pts',(1.45,5.87367006223536,11.6992741847684));
#334=CARTESIAN_POINT('Ctrl Pts',(1.41331220823956,5.88309628143041,11.5047523993547));
#335=CARTESIAN_POINT('Ctrl Pts',(1.26511909363334,5.91673446994685,11.147727521566));
#336=CARTESIAN_POINT('Ctrl Pts',(1.1536502872317,5.94041670791885,10.9851595621441));
#337=CARTESIAN_POINT('Ctrl Pts',(0.896974461336025,5.98455449291831,10.7284837362484));
#338=CARTESIAN_POINT('Ctrl Pts',(0.734400192317609,6.00793628201954,10.6170031563199));
#339=CARTESIAN_POINT('Ctrl Pts',(0.37735304164038,6.04088128431384,10.4688014609316));
#340=CARTESIAN_POINT('Ctrl Pts',(0.182823267713602,6.05,10.4321189403534));
#341=CARTESIAN_POINT('Ctrl Pts',(-1.73472347597681E-16,6.05,10.4321189403534));
#342=CARTESIAN_POINT('Ctrl Pts',(-4.16333634234434E-16,6.05,10.4321189403534));
#343=CARTESIAN_POINT('Ctrl Pts',(-0.182823267713603,6.05,10.4321189403534));
#344=CARTESIAN_POINT('Ctrl Pts',(-0.377353041640381,6.04088128431384,10.4688014609316));
#345=CARTESIAN_POINT('Ctrl Pts',(-0.734400192317608,6.00793628201954,10.6170031563199));
#346=CARTESIAN_POINT('Ctrl Pts',(-0.896974461336025,5.98455449291831,10.7284837362484));
#347=CARTESIAN_POINT('Ctrl Pts',(-1.1536502872317,5.94041670791885,10.9851595621441));
#348=CARTESIAN_POINT('Ctrl Pts',(-1.26511909363334,5.91673446994685,11.147727521566));
#349=CARTESIAN_POINT('Ctrl Pts',(-1.41331220823956,5.88309628143041,11.5047523993547));
#350=CARTESIAN_POINT('Ctrl Pts',(-1.45,5.87367006223537,11.6992741847684));
#351=CARTESIAN_POINT('Ctrl Pts',(-1.45,5.87367006223537,12.0649636959384));
#352=CARTESIAN_POINT('Ctrl Pts',(-1.41331220823956,5.88309628143041,12.2594854813521));
#353=CARTESIAN_POINT('Ctrl Pts',(-1.26511909363334,5.91673446994685,12.6165103591408));
#354=CARTESIAN_POINT('Ctrl Pts',(-1.1536502872317,5.94041670791885,12.7790783185627));
#355=CARTESIAN_POINT('Ctrl Pts',(-0.896974461336025,5.98455449291831,13.0357541444584));
#356=CARTESIAN_POINT('Ctrl Pts',(-0.734400192317607,6.00793628201954,13.1472347243869));
#357=CARTESIAN_POINT('Ctrl Pts',(-0.377353041640381,6.04088128431384,13.2954364197752));
#358=CARTESIAN_POINT('Ctrl Pts',(-0.182823267713603,6.05,13.3321189403534));
#359=CARTESIAN_POINT('Ctrl Pts',(0.182823267713602,6.05,13.3321189403534));
#360=CARTESIAN_POINT('Ctrl Pts',(0.37735304164038,6.04088128431384,13.2954364197752));
#361=CARTESIAN_POINT('Ctrl Pts',(0.734400192317607,6.00793628201954,13.1472347243869));
#362=CARTESIAN_POINT('Ctrl Pts',(0.896974461336025,5.98455449291831,13.0357541444584));
#363=CARTESIAN_POINT('Ctrl Pts',(1.1536502872317,5.94041670791885,12.7790783185627));
#364=CARTESIAN_POINT('Ctrl Pts',(1.26511909363334,5.91673446994685,12.6165103591408));
#365=CARTESIAN_POINT('Ctrl Pts',(1.41331220823956,5.88309628143041,12.2594854813521));
#366=CARTESIAN_POINT('Ctrl Pts',(1.45,5.87367006223536,12.0649636959384));
#367=CARTESIAN_POINT('Ctrl Pts',(1.45,5.87367006223536,11.8821189403534));
#368=CARTESIAN_POINT('Origin',(0.,0.,-2.5));
#369=CARTESIAN_POINT('',(-2.8,-3.42901103761259E-16,-3.));
#370=CARTESIAN_POINT('Origin',(0.,0.,-3.));
#371=CARTESIAN_POINT('',(-3.8,4.65365783675994E-16,-2.));
#372=CARTESIAN_POINT('',(-3.3,4.04133443718627E-16,-2.5));
#373=CARTESIAN_POINT('Origin',(0.,0.,-2.));
#374=CARTESIAN_POINT('Origin',(0.,0.,0.));
#375=CARTESIAN_POINT('',(-3.8,-4.65365783675994E-16,0.));
#376=CARTESIAN_POINT('',(-3.8,4.65365783675994E-16,0.));
#377=CARTESIAN_POINT('Origin',(0.,0.,0.));
#378=CARTESIAN_POINT('Origin',(0.,0.,-3.));
#379=CARTESIAN_POINT('Origin',(0.,0.,19.8));
#380=CARTESIAN_POINT('',(-10.6,1.29812560709619E-15,20.));
#381=CARTESIAN_POINT('Origin',(0.,0.,20.));
#382=CARTESIAN_POINT('',(-11.,-1.34711147906209E-15,19.6));
#383=CARTESIAN_POINT('',(-10.8,-1.32261854307914E-15,19.8));
#384=CARTESIAN_POINT('Origin',(0.,0.,19.6));
#385=CARTESIAN_POINT('Origin',(0.,0.,20.));
#386=CARTESIAN_POINT('',(-6.45,-7.89897185450043E-16,20.));
#387=CARTESIAN_POINT('Origin',(0.,0.,20.));
#388=CARTESIAN_POINT('Origin',(0.,0.,0.));
#389=CARTESIAN_POINT('',(-11.,-1.34711147906209E-15,-1.));
#390=CARTESIAN_POINT('',(-11.,-1.34711147906209E-15,0.));
#391=CARTESIAN_POINT('Origin',(0.,0.,-1.));
#392=CARTESIAN_POINT('Origin',(0.,0.,19.8));
#393=CARTESIAN_POINT('',(-6.05,7.40911313484149E-16,19.6));
#394=CARTESIAN_POINT('',(-6.25,-7.65404249467096E-16,19.8));
#395=CARTESIAN_POINT('Origin',(0.,0.,19.6));
#396=CARTESIAN_POINT('Origin',(0.,0.,0.));
#397=CARTESIAN_POINT('',(-6.05,-7.40911313484149E-16,5.));
#398=CARTESIAN_POINT('',(-6.05,-7.40911313484149E-16,0.));
#399=CARTESIAN_POINT('Origin',(0.,0.,5.));
#400=CARTESIAN_POINT('Origin',(0.,0.,0.));
#401=CARTESIAN_POINT('',(-9.,-1.10218211923262E-15,-1.));
#402=CARTESIAN_POINT('Origin',(0.,0.,-1.));
#403=CARTESIAN_POINT('',(-9.,-1.10218211923262E-15,0.));
#404=CARTESIAN_POINT('',(-9.,1.10218211923262E-15,0.));
#405=CARTESIAN_POINT('Origin',(0.,0.,0.));
#406=CARTESIAN_POINT('Origin',(0.,0.,-1.));
#407=CARTESIAN_POINT('Origin',(0.,0.,5.));
#408=CARTESIAN_POINT('Origin',(0.,0.,0.));
#409=UNCERTAINTY_MEASURE_WITH_UNIT(LENGTH_MEASURE(0.01),#413,
'DISTANCE_ACCURACY_VALUE',
'Maximum model space distance between geometric entities at asserted c
onnectivities');
#410=UNCERTAINTY_MEASURE_WITH_UNIT(LENGTH_MEASURE(0.01),#413,
'DISTANCE_ACCURACY_VALUE',
'Maximum model space distance between geometric entities at asserted c
onnectivities');
#411=(
GEOMETRIC_REPRESENTATION_CONTEXT(3)
GLOBAL_UNCERTAINTY_ASSIGNED_CONTEXT((#409))
GLOBAL_UNIT_ASSIGNED_CONTEXT((#413,#415,#416))
REPRESENTATION_CONTEXT('','3D')
);
#412=(
GEOMETRIC_REPRESENTATION_CONTEXT(3)
GLOBAL_UNCERTAINTY_ASSIGNED_CONTEXT((#410))
GLOBAL_UNIT_ASSIGNED_CONTEXT((#413,#415,#416))
REPRESENTATION_CONTEXT('','3D')
);
#413=(
LENGTH_UNIT()
NAMED_UNIT(*)
SI_UNIT(.MILLI.,.METRE.)
);
#414=(
LENGTH_UNIT()
NAMED_UNIT(*)
SI_UNIT($,.METRE.)
);
#415=(
NAMED_UNIT(*)
PLANE_ANGLE_UNIT()
SI_UNIT($,.RADIAN.)
);
#416=(
NAMED_UNIT(*)
SI_UNIT($,.STERADIAN.)
SOLID_ANGLE_UNIT()
);
#417=SHAPE_DEFINITION_REPRESENTATION(#418,#419);
#418=PRODUCT_DEFINITION_SHAPE('',$,#421);
#419=SHAPE_REPRESENTATION('',(#205),#411);
#420=PRODUCT_DEFINITION_CONTEXT('part definition',#425,'design');
#421=PRODUCT_DEFINITION('2026-03-29-17-46-49-919','608-tool-tip',#422,#420);
#422=PRODUCT_DEFINITION_FORMATION('',$,#427);
#423=PRODUCT_RELATED_PRODUCT_CATEGORY('608-tool-tip','608-tool-tip',(#427));
#424=APPLICATION_PROTOCOL_DEFINITION('international standard',
'automotive_design',2009,#425);
#425=APPLICATION_CONTEXT(
'Core Data for Automotive Mechanical Design Process');
#426=PRODUCT_CONTEXT('part definition',#425,'mechanical');
#427=PRODUCT('2026-03-29-17-46-49-919','608-tool-tip',$,(#426));
#428=PRESENTATION_STYLE_ASSIGNMENT((#429));
#429=SURFACE_STYLE_USAGE(.BOTH.,#430);
#430=SURFACE_SIDE_STYLE('',(#431));
#431=SURFACE_STYLE_FILL_AREA(#432);
#432=FILL_AREA_STYLE('Stahl - satiniert',(#433));
#433=FILL_AREA_STYLE_COLOUR('Stahl - satiniert',#434);
#434=COLOUR_RGB('Stahl - satiniert',0.627450980392157,0.627450980392157,
0.627450980392157);
ENDSEC;
END-ISO-10303-21;
