ISO-10303-21;
HEADER;
/* Generated by software containing ST-Developer
 * from STEP Tools, Inc. (www.steptools.com) 
 */

FILE_DESCRIPTION(
/* description */ (''),
/* implementation_level */ '2;1');

FILE_NAME(
/* name */ 'centerpiece-lever.step',
/* time_stamp */ '2026-03-30T11:07:20+02:00',
/* author */ (''),
/* organization */ (''),
/* preprocessor_version */ 'ST-DEVELOPER v20.1',
/* originating_system */ 'Autodesk Translation Framework v14.24.0.0',
/* authorisation */ '');

FILE_SCHEMA (('AUTOMOTIVE_DESIGN { 1 0 10303 214 3 1 1 }'));
ENDSEC;

DATA;
#10=MECHANICAL_DESIGN_GEOMETRIC_PRESENTATION_REPRESENTATION('',(#13),#1075);
#11=SHAPE_REPRESENTATION_RELATIONSHIP('SRR','None',#1082,#12);
#12=ADVANCED_BREP_SHAPE_REPRESENTATION('',(#14),#1074);
#13=STYLED_ITEM('',(#1092),#14);
#14=MANIFOLD_SOLID_BREP('K\X\F6rper1',#137);
#15=PLANE('',#157);
#16=PLANE('',#160);
#17=CONICAL_SURFACE('',#155,5.95,0.785398163397449);
#18=CONICAL_SURFACE('',#158,5.95,0.785398163397448);
#19=FACE_BOUND('',#46,.T.);
#20=LINE('',#678,#25);
#21=LINE('',#735,#26);
#22=LINE('',#752,#27);
#23=LINE('',#1064,#28);
#24=LINE('',#1069,#29);
#25=VECTOR('',#167,6.);
#26=VECTOR('',#168,6.);
#27=VECTOR('',#173,1.666);
#28=VECTOR('',#176,5.95);
#29=VECTOR('',#183,5.95);
#30=CIRCLE('',#152,6.);
#31=CIRCLE('',#153,6.);
#32=CIRCLE('',#156,5.9);
#33=CIRCLE('',#159,5.9);
#34=CYLINDRICAL_SURFACE('',#151,6.);
#35=CYLINDRICAL_SURFACE('',#154,1.666);
#36=FACE_OUTER_BOUND('',#44,.T.);
#37=FACE_OUTER_BOUND('',#45,.T.);
#38=FACE_OUTER_BOUND('',#47,.T.);
#39=FACE_OUTER_BOUND('',#48,.T.);
#40=FACE_OUTER_BOUND('',#49,.T.);
#41=FACE_OUTER_BOUND('',#50,.T.);
#42=FACE_OUTER_BOUND('',#51,.T.);
#43=FACE_OUTER_BOUND('',#52,.T.);
#44=EDGE_LOOP('',(#91,#92,#93,#94,#95));
#45=EDGE_LOOP('',(#96,#97,#98,#99,#100,#101,#102,#103,#104));
#46=EDGE_LOOP('',(#105));
#47=EDGE_LOOP('',(#106,#107,#108,#109,#110));
#48=EDGE_LOOP('',(#111,#112,#113,#114,#115,#116));
#49=EDGE_LOOP('',(#117,#118,#119,#120));
#50=EDGE_LOOP('',(#121));
#51=EDGE_LOOP('',(#122,#123,#124,#125));
#52=EDGE_LOOP('',(#126));
#53=B_SPLINE_CURVE_WITH_KNOTS('',3,(#267,#268,#269,#270),.UNSPECIFIED.,
 .F.,.F.,(4,4),(7.56014174874142E-16,1.00000000000083),.UNSPECIFIED.);
#54=B_SPLINE_CURVE_WITH_KNOTS('',3,(#272,#273,#274,#275,#276,#277,#278,
#279,#280,#281,#282,#283,#284,#285,#286,#287,#288,#289,#290,#291,#292,#293,
#294,#295,#296,#297,#298,#299,#300,#301,#302,#303,#304,#305,#306,#307,#308,
#309,#310,#311,#312,#313,#314,#315,#316,#317,#318,#319,#320,#321,#322,#323,
#324,#325,#326,#327,#328,#329),.UNSPECIFIED.,.F.,.F.,(4,3,3,3,3,3,3,3,3,
3,3,3,3,3,3,3,3,3,3,4),(0.757383070460255,0.769532500395484,0.781587363368075,
0.793569220390174,0.805523592200272,0.817519191828371,0.82951479145647,
0.844201474826528,0.859179580219091,0.874177912602207,0.889003367019021,
0.901646512452684,0.914960002812061,0.928231427885592,0.941477083174462,
0.954714699076446,0.967967414523922,0.973778233448899,0.992169894444934,
1.00984409388084),.UNSPECIFIED.);
#55=B_SPLINE_CURVE_WITH_KNOTS('',3,(#330,#331,#332,#333,#334,#335,#336,
#337,#338,#339,#340,#341,#342,#343,#344,#345,#346,#347,#348,#349,#350,#351,
#352,#353,#354,#355,#356,#357,#358,#359,#360,#361,#362,#363,#364,#365,#366,
#367,#368,#369,#370,#371,#372,#373,#374,#375,#376,#377,#378,#379,#380,#381,
#382,#383,#384,#385,#386,#387,#388,#389,#390,#391,#392,#393,#394,#395,#396,
#397,#398,#399,#400,#401,#402,#403,#404,#405,#406,#407,#408,#409,#410,#411,
#412,#413,#414,#415,#416,#417,#418,#419,#420,#421,#422,#423,#424,#425,#426,
#427,#428,#429,#430,#431,#432,#433,#434,#435,#436,#437,#438,#439,#440,#441,
#442,#443,#444,#445,#446,#447,#448,#449,#450,#451,#452,#453,#454,#455,#456,
#457,#458,#459,#460,#461,#462,#463,#464,#465,#466,#467,#468,#469,#470,#471,
#472,#473,#474,#475,#476,#477,#478,#479,#480,#481,#482,#483,#484,#485,#486,
#487,#488,#489,#490,#491,#492,#493,#494,#495,#496,#497,#498,#499,#500,#501,
#502,#503,#504,#505,#506,#507,#508,#509,#510),.UNSPECIFIED.,.F.,.F.,(4,
3,3,3,3,3,3,3,3,3,3,3,3,3,3,3,3,3,3,3,3,3,3,3,3,3,3,3,3,3,3,3,3,3,3,3,3,
3,3,3,3,3,3,3,3,3,3,3,3,3,3,3,3,3,3,3,3,3,3,3,4),(1.00984409394701,1.02787702419606,
1.04467745346846,1.04590995444511,1.05818686733229,1.07044466836374,1.08272057610878,
1.09501818285867,1.10739771794864,1.11804167544133,1.1285508468987,1.13909769667255,
1.14958928044658,1.15410753593944,1.16478991963411,1.17543321347446,1.18607379009912,
1.19017339643754,1.20766955167185,1.22572208198865,1.24425881340636,1.26268634783457,
1.28052866288322,1.29837097793187,1.3097976139774,1.3212096599901,1.33264145767406,
1.33443683842997,1.34977794356637,1.36545716029618,1.38116550261465,1.39669305356371,
1.40656855942619,1.42252166372109,1.43842566397798,1.45427632484492,1.46066735017335,
1.47108119544608,1.4787002804224,1.49476589803598,1.51133459152877,1.52799256409881,
1.54448655886519,1.55083200141862,1.56383693945075,1.57682197204557,1.58981427463654,
1.60281839999105,1.61587291035083,1.62296372241483,1.63738023043695,1.65205698830293,
1.66674173087633,1.68124205281119,1.69509544341105,1.70700645770219,1.71889641939244,
1.73097910564615,1.74292794975708,1.75507755708217,1.76722716440726),
 .UNSPECIFIED.);
#56=B_SPLINE_CURVE_WITH_KNOTS('',3,(#511,#512,#513,#514,#515,#516,#517,
#518,#519,#520,#521,#522,#523,#524,#525,#526,#527,#528,#529,#530,#531,#532,
#533,#534,#535,#536,#537,#538,#539,#540,#541,#542,#543,#544,#545,#546,#547,
#548,#549,#550,#551,#552,#553,#554,#555,#556,#557,#558,#559,#560,#561,#562,
#563,#564,#565,#566,#567,#568,#569,#570,#571,#572,#573,#574,#575,#576,#577,
#578,#579,#580,#581,#582,#583,#584,#585,#586,#587,#588,#589,#590,#591,#592,
#593,#594,#595,#596,#597,#598,#599,#600,#601,#602,#603,#604,#605,#606,#607,
#608,#609,#610,#611,#612,#613,#614,#615,#616,#617,#618,#619,#620,#621,#622,
#623,#624,#625,#626,#627,#628,#629,#630,#631,#632,#633,#634,#635,#636,#637,
#638,#639,#640,#641,#642,#643,#644,#645,#646,#647,#648,#649,#650,#651,#652,
#653,#654,#655,#656,#657,#658,#659,#660,#661,#662,#663,#664,#665,#666,#667,
#668,#669,#670,#671,#672,#673),.UNSPECIFIED.,.T.,.F.,(4,3,3,3,3,3,3,3,3,
3,3,3,3,3,3,3,3,3,3,3,3,3,3,3,3,3,3,3,3,3,3,3,3,3,3,3,3,3,3,3,3,3,3,3,3,
3,3,3,3,3,3,3,3,3,4),(-1.76722716440726,-1.75238424681241,-1.73766410018068,
-1.72289443834239,-1.707809459911,-1.69509544341105,-1.66877170304573,-1.64263762243112,
-1.62296372241483,-1.59150741861773,-1.56903467219525,-1.55083200141862,
-1.53233309786906,-1.51367448299977,-1.49474295013313,-1.4787002804224,
-1.46066735017335,-1.43384185677306,-1.40656855942619,-1.381143187915,-1.35547359194672,
-1.33443683842997,-1.31963786578988,-1.30517532482984,-1.29837097793187,
-1.27774398056711,-1.25711293294479,-1.23632200174847,-1.21535688564152,
-1.19400388629823,-1.19017339643754,-1.17539844221709,-1.15992970234826,
-1.15410753593944,-1.13737094254319,-1.11983357260011,-1.11804167544133,
-1.09339201876117,-1.06804938716191,-1.04590995444511,-1.02758096529073,
-1.00911253553251,-0.990405406226035,-0.973778233448899,-0.951778754050165,
-0.926451972857272,-0.901646512452684,-0.875078310765458,-0.848226749719761,
-0.82951479145647,-0.814258311500113,-0.799407013789196,-0.784640463719569,
-0.769798040188462,-0.757383070460255),.UNSPECIFIED.);
#57=B_SPLINE_CURVE_WITH_KNOTS('',3,(#680,#681,#682,#683,#684,#685,#686),
 .UNSPECIFIED.,.F.,.F.,(4,1,1,1,4),(-1.00984409394701,-0.937712372950792,
-0.865580651954577,-0.793448930958362,-0.757383070460255),.UNSPECIFIED.);
#58=B_SPLINE_CURVE_WITH_KNOTS('',3,(#688,#689,#690,#691,#692,#693,#694,
#695,#696,#697,#698,#699,#700,#701,#702,#703,#704,#705,#706,#707,#708,#709,
#710,#711,#712,#713,#714,#715,#716,#717,#718,#719,#720,#721,#722,#723,#724,
#725,#726,#727,#728,#729,#730,#731,#732,#733),.UNSPECIFIED.,.F.,.F.,(4,
3,3,3,3,3,3,3,3,3,3,3,3,3,3,4),(-0.252460966296516,-0.229827199785069,-0.216395162988644,
-0.200210272330798,-0.183637919981276,-0.166674217225374,-0.148748126971307,
-0.14426344199243,-0.122226810610599,-0.100195861669224,-0.0782455369661041,
-0.0721317209962148,-0.0477076088667427,-0.0267319495771207,-0.00818850202965181,
0.),.UNSPECIFIED.);
#59=B_SPLINE_CURVE_WITH_KNOTS('',3,(#737,#738,#739,#740,#741,#742,#743,
#744,#745,#746,#747,#748,#749),.UNSPECIFIED.,.F.,.F.,(4,1,1,1,1,1,1,1,1,
1,4),(-0.757383070460255,-0.721317209962148,-0.703284279713094,-0.649185488965933,
-0.577053767969718,-0.504922046973503,-0.432790325977289,-0.396724465479181,
-0.360658604981074,-0.288526883984859,-0.252461023486752),.UNSPECIFIED.);
#60=B_SPLINE_CURVE_WITH_KNOTS('',3,(#753,#754,#755,#756,#757,#758,#759,
#760,#761,#762,#763,#764,#765,#766,#767,#768,#769,#770,#771,#772,#773,#774,
#775,#776,#777,#778,#779,#780,#781,#782,#783,#784,#785,#786,#787,#788,#789,
#790,#791,#792,#793,#794,#795,#796,#797,#798,#799,#800,#801,#802,#803,#804,
#805,#806,#807,#808,#809,#810,#811,#812,#813,#814,#815,#816,#817,#818,#819,
#820,#821,#822,#823,#824,#825,#826,#827,#828,#829,#830,#831,#832,#833,#834,
#835,#836,#837,#838,#839,#840,#841,#842,#843,#844,#845,#846,#847,#848,#849,
#850,#851,#852,#853,#854,#855,#856,#857,#858,#859,#860,#861,#862,#863,#864,
#865,#866,#867,#868,#869,#870,#871,#872,#873,#874,#875,#876,#877,#878,#879,
#880,#881,#882,#883,#884,#885,#886,#887,#888,#889,#890,#891,#892,#893,#894,
#895,#896,#897,#898,#899,#900,#901,#902,#903,#904,#905,#906,#907,#908,#909,
#910,#911,#912,#913,#914,#915,#916,#917,#918,#919,#920,#921,#922,#923,#924,
#925,#926,#927,#928,#929,#930,#931,#932,#933,#934,#935,#936,#937,#938,#939,
#940,#941,#942,#943,#944,#945,#946,#947,#948,#949,#950,#951,#952,#953,#954,
#955,#956,#957,#958,#959,#960,#961,#962,#963,#964,#965,#966,#967,#968,#969,
#970,#971,#972,#973,#974,#975,#976,#977,#978,#979,#980,#981),
 .UNSPECIFIED.,.T.,.F.,(4,3,3,3,3,3,3,3,3,3,3,3,3,3,3,3,3,3,3,3,3,3,3,3,
3,3,3,3,3,3,3,3,3,3,3,3,3,3,3,3,3,3,3,3,3,3,3,3,3,3,3,3,3,3,3,3,3,3,3,3,
3,3,3,3,3,3,3,3,3,3,3,3,3,3,3,3,4),(0.,0.0115630554600662,0.0230389660448228,
0.0344592605335881,0.0458531204696224,0.0572499428756151,0.0686901545370554,
0.0721317209962148,0.0861185413065421,0.100654766478014,0.11517445410472,
0.129718948048575,0.14426344199243,0.157741971692453,0.171189531763698,
0.184627054034185,0.198065940215281,0.211534196640545,0.216395162988644,
0.231835250640042,0.24755375210337,0.263262640206513,0.278739732395773,
0.288526883984859,0.301091637645963,0.313624885362575,0.326158223734233,
0.338703518858133,0.351310683620358,0.360658604981074,0.371202204748856,
0.381755859439925,0.392214335418494,0.396724465479181,0.407484421067858,
0.418189440101896,0.428866971836719,0.432790325977289,0.456839654054989,
0.486017616209953,0.504922046973503,0.519447760819384,0.533970171760207,
0.548490466878992,0.563036181449864,0.577053767969718,0.599045005477455,
0.623021819792612,0.649185488965933,0.674720178461736,0.697466128217325,
0.703284279713094,0.71347656310051,0.721317209962148,0.736055310054746,
0.751151130234566,0.766311174364182,0.78136422173305,0.793448930958362,
0.806925915480623,0.820370990451768,0.833804800674682,0.847239295809594,
0.860702166293243,0.865580651954577,0.880332237927052,0.895177253497914,
0.909925422775519,0.924340486616025,0.937712372950792,0.949240970294768,
0.960736384629049,0.972223633192461,0.983749570311738,0.995317420459915,
1.00698898672899,1.00984409394701),.UNSPECIFIED.);
#61=B_SPLINE_CURVE_WITH_KNOTS('',3,(#1058,#1059,#1060,#1061),
 .UNSPECIFIED.,.F.,.F.,(4,4),(9.72312508285E-16,1.00000000000001),
 .UNSPECIFIED.);
#62=VERTEX_POINT('',#265);
#63=VERTEX_POINT('',#266);
#64=VERTEX_POINT('',#271);
#65=VERTEX_POINT('',#675);
#66=VERTEX_POINT('',#677);
#67=VERTEX_POINT('',#679);
#68=VERTEX_POINT('',#687);
#69=VERTEX_POINT('',#734);
#70=VERTEX_POINT('',#751);
#71=VERTEX_POINT('',#1063);
#72=VERTEX_POINT('',#1068);
#73=EDGE_CURVE('',#62,#63,#53,.T.);
#74=EDGE_CURVE('',#63,#64,#54,.T.);
#75=EDGE_CURVE('',#64,#63,#55,.T.);
#76=EDGE_CURVE('',#62,#62,#56,.T.);
#77=EDGE_CURVE('',#65,#65,#30,.T.);
#78=EDGE_CURVE('',#65,#66,#20,.T.);
#79=EDGE_CURVE('',#67,#66,#57,.T.);
#80=EDGE_CURVE('',#68,#67,#58,.T.);
#81=EDGE_CURVE('',#68,#69,#21,.T.);
#82=EDGE_CURVE('',#69,#69,#31,.T.);
#83=EDGE_CURVE('',#66,#68,#59,.T.);
#84=EDGE_CURVE('',#64,#70,#22,.T.);
#85=EDGE_CURVE('',#70,#70,#60,.T.);
#86=EDGE_CURVE('',#67,#70,#61,.T.);
#87=EDGE_CURVE('',#69,#71,#23,.T.);
#88=EDGE_CURVE('',#71,#71,#32,.T.);
#89=EDGE_CURVE('',#65,#72,#24,.T.);
#90=EDGE_CURVE('',#72,#72,#33,.T.);
#91=ORIENTED_EDGE('',*,*,#73,.T.);
#92=ORIENTED_EDGE('',*,*,#74,.T.);
#93=ORIENTED_EDGE('',*,*,#75,.T.);
#94=ORIENTED_EDGE('',*,*,#73,.F.);
#95=ORIENTED_EDGE('',*,*,#76,.T.);
#96=ORIENTED_EDGE('',*,*,#77,.F.);
#97=ORIENTED_EDGE('',*,*,#78,.T.);
#98=ORIENTED_EDGE('',*,*,#79,.F.);
#99=ORIENTED_EDGE('',*,*,#80,.F.);
#100=ORIENTED_EDGE('',*,*,#81,.T.);
#101=ORIENTED_EDGE('',*,*,#82,.F.);
#102=ORIENTED_EDGE('',*,*,#81,.F.);
#103=ORIENTED_EDGE('',*,*,#83,.F.);
#104=ORIENTED_EDGE('',*,*,#78,.F.);
#105=ORIENTED_EDGE('',*,*,#76,.F.);
#106=ORIENTED_EDGE('',*,*,#74,.F.);
#107=ORIENTED_EDGE('',*,*,#75,.F.);
#108=ORIENTED_EDGE('',*,*,#84,.T.);
#109=ORIENTED_EDGE('',*,*,#85,.F.);
#110=ORIENTED_EDGE('',*,*,#84,.F.);
#111=ORIENTED_EDGE('',*,*,#86,.T.);
#112=ORIENTED_EDGE('',*,*,#85,.T.);
#113=ORIENTED_EDGE('',*,*,#86,.F.);
#114=ORIENTED_EDGE('',*,*,#79,.T.);
#115=ORIENTED_EDGE('',*,*,#83,.T.);
#116=ORIENTED_EDGE('',*,*,#80,.T.);
#117=ORIENTED_EDGE('',*,*,#82,.T.);
#118=ORIENTED_EDGE('',*,*,#87,.T.);
#119=ORIENTED_EDGE('',*,*,#88,.T.);
#120=ORIENTED_EDGE('',*,*,#87,.F.);
#121=ORIENTED_EDGE('',*,*,#88,.F.);
#122=ORIENTED_EDGE('',*,*,#77,.T.);
#123=ORIENTED_EDGE('',*,*,#89,.T.);
#124=ORIENTED_EDGE('',*,*,#90,.T.);
#125=ORIENTED_EDGE('',*,*,#89,.F.);
#126=ORIENTED_EDGE('',*,*,#90,.F.);
#127=B_SPLINE_SURFACE_WITH_KNOTS('',3,3,((#189,#190,#191,#192,#193,#194,
#195,#196,#197,#198,#199,#200,#201,#202,#203,#204,#205,#206,#207),(#208,
#209,#210,#211,#212,#213,#214,#215,#216,#217,#218,#219,#220,#221,#222,#223,
#224,#225,#226),(#227,#228,#229,#230,#231,#232,#233,#234,#235,#236,#237,
#238,#239,#240,#241,#242,#243,#244,#245),(#246,#247,#248,#249,#250,#251,
#252,#253,#254,#255,#256,#257,#258,#259,#260,#261,#262,#263,#264)),
 .UNSPECIFIED.,.F.,.T.,.F.,(4,4),(4,1,1,1,1,1,1,1,1,1,1,1,1,1,1,1,4),(-0.000757619585786019,
1.0039184011835),(0.757383070460255,0.82951479145647,0.901646512452684,
0.973778233448899,1.04590995444511,1.11804167544133,1.15410753593944,1.19017339643754,
1.29837097793187,1.33443683842997,1.40656855942619,1.46066735017335,1.4787002804224,
1.55083200141862,1.62296372241483,1.69509544341105,1.76722716440726),
 .UNSPECIFIED.);
#128=B_SPLINE_SURFACE_WITH_KNOTS('',3,3,((#982,#983,#984,#985,#986,#987,
#988,#989,#990,#991,#992,#993,#994,#995,#996,#997,#998,#999,#1000),(#1001,
#1002,#1003,#1004,#1005,#1006,#1007,#1008,#1009,#1010,#1011,#1012,#1013,
#1014,#1015,#1016,#1017,#1018,#1019),(#1020,#1021,#1022,#1023,#1024,#1025,
#1026,#1027,#1028,#1029,#1030,#1031,#1032,#1033,#1034,#1035,#1036,#1037,
#1038),(#1039,#1040,#1041,#1042,#1043,#1044,#1045,#1046,#1047,#1048,#1049,
#1050,#1051,#1052,#1053,#1054,#1055,#1056,#1057)),.UNSPECIFIED.,.F.,.T.,
 .F.,(4,4),(4,1,1,1,1,1,1,1,1,1,1,1,1,1,1,1,4),(-0.000838027060745955,1.00503450349267),
(0.,0.0721317209962148,0.14426344199243,0.216395162988644,0.288526883984859,
0.360658604981074,0.396724465479181,0.432790325977289,0.504922046973503,
0.577053767969718,0.649185488965933,0.703284279713094,0.721317209962148,
0.793448930958362,0.865580651954577,0.937712372950792,1.00984409394701),
 .UNSPECIFIED.);
#129=ADVANCED_FACE('',(#36),#127,.T.);
#130=ADVANCED_FACE('',(#37,#19),#34,.T.);
#131=ADVANCED_FACE('',(#38),#35,.F.);
#132=ADVANCED_FACE('',(#39),#128,.T.);
#133=ADVANCED_FACE('',(#40),#17,.T.);
#134=ADVANCED_FACE('',(#41),#15,.F.);
#135=ADVANCED_FACE('',(#42),#18,.T.);
#136=ADVANCED_FACE('',(#43),#16,.T.);
#137=CLOSED_SHELL('',(#129,#130,#131,#132,#133,#134,#135,#136));
#138=DERIVED_UNIT_ELEMENT(#140,1.);
#139=DERIVED_UNIT_ELEMENT(#1077,-3.);
#140=(
MASS_UNIT()
NAMED_UNIT(*)
SI_UNIT(.KILO.,.GRAM.)
);
#141=DERIVED_UNIT((#138,#139));
#142=MEASURE_REPRESENTATION_ITEM('density measure',
POSITIVE_RATIO_MEASURE(7850.),#141);
#143=PROPERTY_DEFINITION_REPRESENTATION(#148,#145);
#144=PROPERTY_DEFINITION_REPRESENTATION(#149,#146);
#145=REPRESENTATION('material name',(#147),#1074);
#146=REPRESENTATION('density',(#142),#1074);
#147=DESCRIPTIVE_REPRESENTATION_ITEM('Stahl','Stahl');
#148=PROPERTY_DEFINITION('material property','material name',#1084);
#149=PROPERTY_DEFINITION('material property','density of part',#1084);
#150=AXIS2_PLACEMENT_3D('',#188,#161,#162);
#151=AXIS2_PLACEMENT_3D('',#674,#163,#164);
#152=AXIS2_PLACEMENT_3D('',#676,#165,#166);
#153=AXIS2_PLACEMENT_3D('',#736,#169,#170);
#154=AXIS2_PLACEMENT_3D('',#750,#171,#172);
#155=AXIS2_PLACEMENT_3D('',#1062,#174,#175);
#156=AXIS2_PLACEMENT_3D('',#1065,#177,#178);
#157=AXIS2_PLACEMENT_3D('',#1066,#179,#180);
#158=AXIS2_PLACEMENT_3D('',#1067,#181,#182);
#159=AXIS2_PLACEMENT_3D('',#1070,#184,#185);
#160=AXIS2_PLACEMENT_3D('',#1071,#186,#187);
#161=DIRECTION('axis',(0.,0.,1.));
#162=DIRECTION('refdir',(1.,0.,0.));
#163=DIRECTION('center_axis',(0.,0.,1.));
#164=DIRECTION('ref_axis',(1.,0.,0.));
#165=DIRECTION('center_axis',(0.,0.,1.));
#166=DIRECTION('ref_axis',(1.,0.,0.));
#167=DIRECTION('',(0.,0.,-1.));
#168=DIRECTION('',(0.,0.,-1.));
#169=DIRECTION('center_axis',(0.,0.,-1.));
#170=DIRECTION('ref_axis',(1.,0.,0.));
#171=DIRECTION('center_axis',(-1.,0.,0.));
#172=DIRECTION('ref_axis',(0.,1.,0.));
#173=DIRECTION('',(-1.,0.,0.));
#174=DIRECTION('center_axis',(0.,0.,1.));
#175=DIRECTION('ref_axis',(1.,0.,0.));
#176=DIRECTION('',(0.707106781186548,8.65956056235494E-17,-0.707106781186547));
#177=DIRECTION('center_axis',(0.,0.,1.));
#178=DIRECTION('ref_axis',(1.,0.,0.));
#179=DIRECTION('center_axis',(0.,0.,1.));
#180=DIRECTION('ref_axis',(1.,0.,0.));
#181=DIRECTION('center_axis',(0.,0.,-1.));
#182=DIRECTION('ref_axis',(1.,0.,0.));
#183=DIRECTION('',(0.707106781186547,-8.65956056235493E-17,0.707106781186548));
#184=DIRECTION('center_axis',(0.,0.,-1.));
#185=DIRECTION('ref_axis',(1.,0.,0.));
#186=DIRECTION('center_axis',(0.,0.,1.));
#187=DIRECTION('ref_axis',(1.,0.,0.));
#188=CARTESIAN_POINT('',(0.,0.,0.));
#189=CARTESIAN_POINT('Ctrl Pts',(6.00007576195858,-8.3271983888812E-16,
4.48392423804142));
#190=CARTESIAN_POINT('Ctrl Pts',(6.00007576195858,-0.25488515711046,4.48392423804142));
#191=CARTESIAN_POINT('Ctrl Pts',(5.96073462394501,-0.807353594159759,4.61776785596591));
#192=CARTESIAN_POINT('Ctrl Pts',(5.83675035958161,-1.41923834696477,5.09976840558057));
#193=CARTESIAN_POINT('Ctrl Pts',(5.73128067118975,-1.777469697059,5.85274413243162));
#194=CARTESIAN_POINT('Ctrl Pts',(5.73026480180168,-1.78019946804994,6.64762339319713));
#195=CARTESIAN_POINT('Ctrl Pts',(5.82078579522451,-1.47153507620481,7.27972419460782));
#196=CARTESIAN_POINT('Ctrl Pts',(5.89810875594254,-1.11439824025022,7.63511561618082));
#197=CARTESIAN_POINT('Ctrl Pts',(5.99189455244741,-0.538998679263264,7.99785990229003));
#198=CARTESIAN_POINT('Ctrl Pts',(6.0180982926175,0.132539104858279,8.0786572459012));
#199=CARTESIAN_POINT('Ctrl Pts',(5.93926768620209,0.907178332825836,7.80425458212015));
#200=CARTESIAN_POINT('Ctrl Pts',(5.84813582230179,1.36352982072995,7.43848091187841));
#201=CARTESIAN_POINT('Ctrl Pts',(5.77518406607599,1.62759257000122,6.9680163776403));
#202=CARTESIAN_POINT('Ctrl Pts',(5.73126187224855,1.77543611094121,6.44754824805306));
#203=CARTESIAN_POINT('Ctrl Pts',(5.73093307702598,1.77945837784965,5.85407823962883));
#204=CARTESIAN_POINT('Ctrl Pts',(5.83700328014256,1.41784526140077,5.09934955147921));
#205=CARTESIAN_POINT('Ctrl Pts',(5.96063886008606,0.80790516619034,4.61816788191987));
#206=CARTESIAN_POINT('Ctrl Pts',(6.00007576195858,0.254885157110455,4.48392423804142));
#207=CARTESIAN_POINT('Ctrl Pts',(6.00007576195858,2.77503185737036E-16,
4.48392423804142));
#208=CARTESIAN_POINT('Ctrl Pts',(5.96658656126627,-8.09482037835061E-16,
4.51741343873373));
#209=CARTESIAN_POINT('Ctrl Pts',(5.96658656126627,-0.248709937757242,4.51741343873373));
#210=CARTESIAN_POINT('Ctrl Pts',(5.92893442125461,-0.787991349900035,4.64719943334622));
#211=CARTESIAN_POINT('Ctrl Pts',(5.80958052377943,-1.38990111474395,5.1175271551692));
#212=CARTESIAN_POINT('Ctrl Pts',(5.70749616243175,-1.74522211181112,5.85805280314988));
#213=CARTESIAN_POINT('Ctrl Pts',(5.70652372847708,-1.74791813482702,6.64233182091953));
#214=CARTESIAN_POINT('Ctrl Pts',(5.79409967671371,-1.44184383315059,7.26386281201238));
#215=CARTESIAN_POINT('Ctrl Pts',(5.86865172398144,-1.09003060428956,7.61163534390277));
#216=CARTESIAN_POINT('Ctrl Pts',(5.95880550114869,-0.525344281246358,7.96522679432215));
#217=CARTESIAN_POINT('Ctrl Pts',(5.98386480112443,0.128841783608117,8.04337467300449));
#218=CARTESIAN_POINT('Ctrl Pts',(5.90828849844955,0.886199664983326,7.77682361911027));
#219=CARTESIAN_POINT('Ctrl Pts',(5.82052996405704,1.33511521831716,7.4197123320355));
#220=CARTESIAN_POINT('Ctrl Pts',(5.74999343035747,1.59657299779509,6.95743146927912));
#221=CARTESIAN_POINT('Ctrl Pts',(5.70748005414765,1.74324001212786,6.44487364108507));
#222=CARTESIAN_POINT('Ctrl Pts',(5.70716694299308,1.7471714745981,5.85940169712616));
#223=CARTESIAN_POINT('Ctrl Pts',(5.80982331814643,1.38853427498178,5.11709668293269));
#224=CARTESIAN_POINT('Ctrl Pts',(5.92884392308846,0.78853193285236,4.64760350025162));
#225=CARTESIAN_POINT('Ctrl Pts',(5.96658656126627,0.248709937757239,4.51741343873373));
#226=CARTESIAN_POINT('Ctrl Pts',(5.96658656126627,3.00740986790096E-16,
4.51741343873373));
#227=CARTESIAN_POINT('Ctrl Pts',(5.93309736057396,-7.86244236782002E-16,
4.55090263942604));
#228=CARTESIAN_POINT('Ctrl Pts',(5.93309736057396,-0.242534718404025,4.55090263942604));
#229=CARTESIAN_POINT('Ctrl Pts',(5.8971342185642,-0.768629105640311,4.67663101072652));
#230=CARTESIAN_POINT('Ctrl Pts',(5.78241068797726,-1.36056388252312,5.13528590475784));
#231=CARTESIAN_POINT('Ctrl Pts',(5.68371165367376,-1.71297452656326,5.86336147386815));
#232=CARTESIAN_POINT('Ctrl Pts',(5.6827826551525,-1.7156368016041,6.63704024864192));
#233=CARTESIAN_POINT('Ctrl Pts',(5.76741355820294,-1.41215259009639,7.24800142941693));
#234=CARTESIAN_POINT('Ctrl Pts',(5.83919469202033,-1.0656629683289,7.58815507162471));
#235=CARTESIAN_POINT('Ctrl Pts',(5.92571644984997,-0.511689883229455,7.93259368635428));
#236=CARTESIAN_POINT('Ctrl Pts',(5.94963130963137,0.125144462357955,8.00809210010778));
#237=CARTESIAN_POINT('Ctrl Pts',(5.87730931069702,0.865220997140816,7.74939265610039));
#238=CARTESIAN_POINT('Ctrl Pts',(5.79292410581228,1.30670061590439,7.40094375219259));
#239=CARTESIAN_POINT('Ctrl Pts',(5.72480279463894,1.56555342558898,6.94684656091796));
#240=CARTESIAN_POINT('Ctrl Pts',(5.68369823604675,1.71104391331451,6.44219903411707));
#241=CARTESIAN_POINT('Ctrl Pts',(5.6834008089602,1.71488457134655,5.86472515462349));
#242=CARTESIAN_POINT('Ctrl Pts',(5.7826433561503,1.35922328856279,5.13484381438616));
#243=CARTESIAN_POINT('Ctrl Pts',(5.89704898609086,0.769158699514382,4.67703911858338));
#244=CARTESIAN_POINT('Ctrl Pts',(5.93309736057396,0.242534718404023,4.55090263942604));
#245=CARTESIAN_POINT('Ctrl Pts',(5.93309736057396,3.23978787843155E-16,
4.55090263942604));
#246=CARTESIAN_POINT('Ctrl Pts',(5.89960815988165,-7.63006435728942E-16,
4.58439184011835));
#247=CARTESIAN_POINT('Ctrl Pts',(5.89960815988165,-0.236359499050806,4.58439184011835));
#248=CARTESIAN_POINT('Ctrl Pts',(5.86533401587379,-0.749266861380588,4.70606258810682));
#249=CARTESIAN_POINT('Ctrl Pts',(5.75524085217509,-1.33122665030231,5.15304465434647));
#250=CARTESIAN_POINT('Ctrl Pts',(5.65992714491575,-1.68072694131539,5.86867014458641));
#251=CARTESIAN_POINT('Ctrl Pts',(5.6590415818279,-1.68335546838118,6.63174867636433));
#252=CARTESIAN_POINT('Ctrl Pts',(5.74072743969215,-1.38246134704218,7.23214004682148));
#253=CARTESIAN_POINT('Ctrl Pts',(5.80973766005923,-1.04129533236823,7.56467479934666));
#254=CARTESIAN_POINT('Ctrl Pts',(5.89262739855126,-0.49803548521255,7.8999605783864));
#255=CARTESIAN_POINT('Ctrl Pts',(5.91539781813831,0.121447141107794,7.97280952721107));
#256=CARTESIAN_POINT('Ctrl Pts',(5.84633012294447,0.844242329298306,7.7219616930905));
#257=CARTESIAN_POINT('Ctrl Pts',(5.76531824756752,1.2782860134916,7.38217517234967));
#258=CARTESIAN_POINT('Ctrl Pts',(5.69961215892041,1.53453385338285,6.9362616525568));
#259=CARTESIAN_POINT('Ctrl Pts',(5.65991641794586,1.67884781450116,6.43952442714907));
#260=CARTESIAN_POINT('Ctrl Pts',(5.65963467492731,1.682597668095,5.87004861212082));
#261=CARTESIAN_POINT('Ctrl Pts',(5.75546339415419,1.32991230214381,5.15259094583964));
#262=CARTESIAN_POINT('Ctrl Pts',(5.86525404909325,0.749785466176402,4.70647473691513));
#263=CARTESIAN_POINT('Ctrl Pts',(5.89960815988165,0.236359499050806,4.58439184011835));
#264=CARTESIAN_POINT('Ctrl Pts',(5.89960815988165,3.47216588896214E-16,
4.58439184011835));
#265=CARTESIAN_POINT('',(6.,2.77555756156289E-16,4.484));
#266=CARTESIAN_POINT('',(5.9,-7.63278329429795E-16,4.584));
#267=CARTESIAN_POINT('Ctrl Pts',(6.,-8.32667268468867E-16,4.484));
#268=CARTESIAN_POINT('Ctrl Pts',(5.96666666666664,-8.09537622122491E-16,
4.51733333333336));
#269=CARTESIAN_POINT('Ctrl Pts',(5.93333333333327,-7.86407975776115E-16,
4.55066666666672));
#270=CARTESIAN_POINT('Ctrl Pts',(5.89999999999992,-7.63278329429738E-16,
4.58400000000008));
#271=CARTESIAN_POINT('',(5.66379193506529,-1.665999971161,6.25030998635307));
#272=CARTESIAN_POINT('Ctrl Pts',(5.9,-7.02428796292749E-16,4.584));
#273=CARTESIAN_POINT('Ctrl Pts',(5.9,-0.039823131454362,4.584));
#274=CARTESIAN_POINT('Ctrl Pts',(5.89951354107896,-0.0802749863258325,4.58543192444299));
#275=CARTESIAN_POINT('Ctrl Pts',(5.89857580490685,-0.121092907453278,4.58840663585686));
#276=CARTESIAN_POINT('Ctrl Pts',(5.89764536774894,-0.161593115993155,4.59135819314542));
#277=CARTESIAN_POINT('Ctrl Pts',(5.89627065117145,-0.202453166280311,4.59582880191731));
#278=CARTESIAN_POINT('Ctrl Pts',(5.89448602169636,-0.243405069985081,4.60187683351469));
#279=CARTESIAN_POINT('Ctrl Pts',(5.89271220018909,-0.284108963184775,4.60788823737965));
#280=CARTESIAN_POINT('Ctrl Pts',(5.89053341573056,-0.324903024428328,4.61545807867348));
#281=CARTESIAN_POINT('Ctrl Pts',(5.88798341423099,-0.365521176729325,4.62459227596199));
#282=CARTESIAN_POINT('Ctrl Pts',(5.88543926218629,-0.40604615494846,4.63370552029234));
#283=CARTESIAN_POINT('Ctrl Pts',(5.8825255942186,-0.446395448566639,4.64437591001867));
#284=CARTESIAN_POINT('Ctrl Pts',(5.87927592454097,-0.4863105625558,4.65655780250846));
#285=CARTESIAN_POINT('Ctrl Pts',(5.87601504751659,-0.5263633343894,4.6687817074816));
#286=CARTESIAN_POINT('Ctrl Pts',(5.87241584720405,-0.565978346016334,4.6825274300519));
#287=CARTESIAN_POINT('Ctrl Pts',(5.86851218576153,-0.604908997795741,4.69769812717186));
#288=CARTESIAN_POINT('Ctrl Pts',(5.86460852431901,-0.643839649575148,4.71286882429182));
#289=CARTESIAN_POINT('Ctrl Pts',(5.86040040174651,-0.68208541956746,4.72946421099183));
#290=CARTESIAN_POINT('Ctrl Pts',(5.85592168020221,-0.719422566501168,4.74733996831989));
#291=CARTESIAN_POINT('Ctrl Pts',(5.85043820565629,-0.765135900720179,4.76922595951804));
#292=CARTESIAN_POINT('Ctrl Pts',(5.84454910147046,-0.809430492517027,4.7929922304391));
#293=CARTESIAN_POINT('Ctrl Pts',(5.83835777022894,-0.852334455125728,4.81853851724696));
#294=CARTESIAN_POINT('Ctrl Pts',(5.83204358686166,-0.896089744017011,4.84459170887339));
#295=CARTESIAN_POINT('Ctrl Pts',(5.82541506350042,-0.938399556927425,4.8724965738206));
#296=CARTESIAN_POINT('Ctrl Pts',(5.81858188100422,-0.979279631857152,4.90219904932897));
#297=CARTESIAN_POINT('Ctrl Pts',(5.81173947072425,-1.02021491276038,4.93194163616491));
#298=CARTESIAN_POINT('Ctrl Pts',(5.80469184817747,-1.05971738349275,4.96348724826783));
#299=CARTESIAN_POINT('Ctrl Pts',(5.79754913917455,-1.09777622389589,4.99682668307656));
#300=CARTESIAN_POINT('Ctrl Pts',(5.79048876045842,-1.13539637986661,5.02978183158332));
#301=CARTESIAN_POINT('Ctrl Pts',(5.78333547467711,-1.17160662171375,5.06449037195958));
#302=CARTESIAN_POINT('Ctrl Pts',(5.77619564327789,-1.20636006654984,5.10097807251825));
#303=CARTESIAN_POINT('Ctrl Pts',(5.77010679606862,-1.2359977993997,5.1320947784035));
#304=CARTESIAN_POINT('Ctrl Pts',(5.76402773379551,-1.2645756680112,5.16450622573472));
#305=CARTESIAN_POINT('Ctrl Pts',(5.75802442328595,-1.29203826979153,5.19824284675877));
#306=CARTESIAN_POINT('Ctrl Pts',(5.75170281471057,-1.32095695034965,5.23376819771817));
#307=CARTESIAN_POINT('Ctrl Pts',(5.74546520363065,-1.34866001056215,5.27079947035673));
#308=CARTESIAN_POINT('Ctrl Pts',(5.73939508457757,-1.37491517213367,5.30916830971919));
#309=CARTESIAN_POINT('Ctrl Pts',(5.73334414466431,-1.40108737793276,5.34741591894953));
#310=CARTESIAN_POINT('Ctrl Pts',(5.72745964003482,-1.42582035742628,5.38699226393723));
#311=CARTESIAN_POINT('Ctrl Pts',(5.72182427629083,-1.4489189627754,5.42769236942015));
#312=CARTESIAN_POINT('Ctrl Pts',(5.71619985501228,-1.47197271641625,5.4683134454885));
#313=CARTESIAN_POINT('Ctrl Pts',(5.71082360802014,-1.49339805534808,5.51005344483941));
#314=CARTESIAN_POINT('Ctrl Pts',(5.70577776007032,-1.51304216586838,5.55267697277063));
#315=CARTESIAN_POINT('Ctrl Pts',(5.70073497467369,-1.53267435349011,5.59527463055621));
#316=CARTESIAN_POINT('Ctrl Pts',(5.69602218737286,-1.5505271881775,5.63875420161244));
#317=CARTESIAN_POINT('Ctrl Pts',(5.69172147329683,-1.5664943542008,5.68285677447667));
#318=CARTESIAN_POINT('Ctrl Pts',(5.68741585359216,-1.58247973324309,5.72700965313691));
#319=CARTESIAN_POINT('Ctrl Pts',(5.68352324771474,-1.59657495625569,5.77178636778969));
#320=CARTESIAN_POINT('Ctrl Pts',(5.68012601197214,-1.60872323715248,5.81691161843609));
#321=CARTESIAN_POINT('Ctrl Pts',(5.67863645144971,-1.61404980292844,5.83669734925403));
#322=CARTESIAN_POINT('Ctrl Pts',(5.67724212552642,-1.61900273161305,5.85654993861673));
#323=CARTESIAN_POINT('Ctrl Pts',(5.67594997635678,-1.62358035861422,5.87644569454746));
#324=CARTESIAN_POINT('Ctrl Pts',(5.67186023104013,-1.63806887822888,5.93941719702625));
#325=CARTESIAN_POINT('Ctrl Pts',(5.66879405990318,-1.648806474864,6.00283288791068));
#326=CARTESIAN_POINT('Ctrl Pts',(5.66676384866774,-1.65585920598681,6.06646174799586));
#327=CARTESIAN_POINT('Ctrl Pts',(5.66481283628882,-1.66263680896999,6.12760843633834));
#328=CARTESIAN_POINT('Ctrl Pts',(5.66381853441294,-1.66601138754481,6.18895343012911));
#329=CARTESIAN_POINT('Ctrl Pts',(5.66379193506529,-1.665999971161,6.25030998635307));
#330=CARTESIAN_POINT('Ctrl Pts',(5.66379193506499,-1.66599997116087,6.25030998704217));
#331=CARTESIAN_POINT('Ctrl Pts',(5.66376479584141,-1.66598832303439,6.31291188891178));
#332=CARTESIAN_POINT('Ctrl Pts',(5.66474504045564,-1.66245331090309,6.37552833580591));
#333=CARTESIAN_POINT('Ctrl Pts',(5.66674434392062,-1.65535917282326,6.4379947045794));
#334=CARTESIAN_POINT('Ctrl Pts',(5.66860700051573,-1.6487498994876,6.49619166957559));
#335=CARTESIAN_POINT('Ctrl Pts',(5.67135417662126,-1.63905059129681,6.55425944426629));
#336=CARTESIAN_POINT('Ctrl Pts',(5.674995313272,-1.62618559677476,6.61204475530289));
#337=CARTESIAN_POINT('Ctrl Pts',(5.67526243171316,-1.62524180432422,6.61628395961926));
#338=CARTESIAN_POINT('Ctrl Pts',(5.67553436134024,-1.62428095545312,6.62052163015138));
#339=CARTESIAN_POINT('Ctrl Pts',(5.67581110588074,-1.62330301136373,6.62475769945052));
#340=CARTESIAN_POINT('Ctrl Pts',(5.67856775166042,-1.61356173357045,6.66695308489438));
#341=CARTESIAN_POINT('Ctrl Pts',(5.68180213819049,-1.60211278609694,6.7090200654707));
#342=CARTESIAN_POINT('Ctrl Pts',(5.68543897904984,-1.58898249831851,6.75069014373908));
#343=CARTESIAN_POINT('Ctrl Pts',(5.68907015832485,-1.5758726508713,6.79229535288835));
#344=CARTESIAN_POINT('Ctrl Pts',(5.69310253987786,-1.56108680856433,6.83350430770976));
#345=CARTESIAN_POINT('Ctrl Pts',(5.69746118834292,-1.54470191531544,6.87406088871265));
#346=CARTESIAN_POINT('Ctrl Pts',(5.70182627522211,-1.52829281898406,6.9146773782093));
#347=CARTESIAN_POINT('Ctrl Pts',(5.70651859362108,-1.51028016176733,6.95463900282673));
#348=CARTESIAN_POINT('Ctrl Pts',(5.71146287560887,-1.4907896927486,6.99370833798911));
#349=CARTESIAN_POINT('Ctrl Pts',(5.71641589715394,-1.47126477220168,7.03284673245944));
#350=CARTESIAN_POINT('Ctrl Pts',(5.72162177382129,-1.45025714460347,7.07108917688822));
#351=CARTESIAN_POINT('Ctrl Pts',(5.72700483784123,-1.42793767219489,7.10822491476689));
#352=CARTESIAN_POINT('Ctrl Pts',(5.73242376457077,-1.40546950440494,7.14560805601628));
#353=CARTESIAN_POINT('Ctrl Pts',(5.73802224741002,-1.38167236359276,7.18186924638503));
#354=CARTESIAN_POINT('Ctrl Pts',(5.74372309616444,-1.35675998035782,7.21682902092327));
#355=CARTESIAN_POINT('Ctrl Pts',(5.74862470122258,-1.33534024639629,7.24688752889106));
#356=CARTESIAN_POINT('Ctrl Pts',(5.7536019813742,-1.31309689164565,7.27598442937824));
#357=CARTESIAN_POINT('Ctrl Pts',(5.75860587311949,-1.29018497668969,7.30402975571102));
#358=CARTESIAN_POINT('Ctrl Pts',(5.76354639983066,-1.26756319876036,7.33171993985647));
#359=CARTESIAN_POINT('Ctrl Pts',(5.76851286842959,-1.2442899861316,7.35839503472853));
#360=CARTESIAN_POINT('Ctrl Pts',(5.77348937940962,-1.22030596835013,7.3841998693392));
#361=CARTESIAN_POINT('Ctrl Pts',(5.77848373257221,-1.19623596116255,7.41009722149314));
#362=CARTESIAN_POINT('Ctrl Pts',(5.78348820025447,-1.17144962677507,7.43511847421979));
#363=CARTESIAN_POINT('Ctrl Pts',(5.78848671132339,-1.14584600107394,7.45937708834874));
#364=CARTESIAN_POINT('Ctrl Pts',(5.79345902995403,-1.12037653960226,7.48350858617352));
#365=CARTESIAN_POINT('Ctrl Pts',(5.79842545423365,-1.0940979006437,7.50688579514265));
#366=CARTESIAN_POINT('Ctrl Pts',(5.80337016434821,-1.06687662927416,7.52958206376481));
#367=CARTESIAN_POINT('Ctrl Pts',(5.80549962965268,-1.05515364621108,7.53935633069895));
#368=CARTESIAN_POINT('Ctrl Pts',(5.8076250677627,-1.04325544603502,7.5490037899858));
#369=CARTESIAN_POINT('Ctrl Pts',(5.80974521513368,-1.03116970721488,7.55852781205535));
#370=CARTESIAN_POINT('Ctrl Pts',(5.81475781960943,-1.00259573668259,7.58104518811439));
#371=CARTESIAN_POINT('Ctrl Pts',(5.81974085001383,-0.972972012462611,7.6028672210404));
#372=CARTESIAN_POINT('Ctrl Pts',(5.82462491935718,-0.942469914857077,7.62379272803043));
#373=CARTESIAN_POINT('Ctrl Pts',(5.82949111651352,-0.912079433028104,7.64464166268951));
#374=CARTESIAN_POINT('Ctrl Pts',(5.83425907553653,-0.880817375527637,7.66460023646003));
#375=CARTESIAN_POINT('Ctrl Pts',(5.83886016837224,-0.848886959130504,7.68350860849113));
#376=CARTESIAN_POINT('Ctrl Pts',(5.8434600865564,-0.816964694517,7.70241215324545));
#377=CARTESIAN_POINT('Ctrl Pts',(5.84789322374372,-0.784374868436339,7.72026573642177));
#378=CARTESIAN_POINT('Ctrl Pts',(5.85209100442869,-0.751348025070188,7.73695398221435));
#379=CARTESIAN_POINT('Ctrl Pts',(5.85370832733425,-0.738623427411828,7.74338363735821));
#380=CARTESIAN_POINT('Ctrl Pts',(5.85529071367611,-0.725834210999575,7.74964079839654));
#381=CARTESIAN_POINT('Ctrl Pts',(5.85683424152287,-0.71299441653778,7.75572074502079));
#382=CARTESIAN_POINT('Ctrl Pts',(5.863421655188,-0.658197194917975,7.78166852663029));
#383=CARTESIAN_POINT('Ctrl Pts',(5.86930130738969,-0.602508165432425,7.8043806185654));
#384=CARTESIAN_POINT('Ctrl Pts',(5.87443471727757,-0.546145877928024,7.82393795304079));
#385=CARTESIAN_POINT('Ctrl Pts',(5.8797313688212,-0.48799127823049,7.84411720778587));
#386=CARTESIAN_POINT('Ctrl Pts',(5.88423356264338,-0.429118954032609,7.86093864720715));
#387=CARTESIAN_POINT('Ctrl Pts',(5.88789902886166,-0.369724812216161,7.87445669786293));
#388=CARTESIAN_POINT('Ctrl Pts',(5.89166280942963,-0.30873761345142,7.88833732677753));
#389=CARTESIAN_POINT('Ctrl Pts',(5.89454437538792,-0.247198965278803,7.89873560362331));
#390=CARTESIAN_POINT('Ctrl Pts',(5.89649796354938,-0.185292432633255,7.90566382892447));
#391=CARTESIAN_POINT('Ctrl Pts',(5.89844004342812,-0.123750581702258,7.91255124113252));
#392=CARTESIAN_POINT('Ctrl Pts',(5.89946504645181,-0.0618437262036822,7.91600948371425));
#393=CARTESIAN_POINT('Ctrl Pts',(5.89952801342979,0.000254954992183504,
7.91599998049158));
#394=CARTESIAN_POINT('Ctrl Pts',(5.89958898071021,0.0603815138825643,7.9159907790711));
#395=CARTESIAN_POINT('Ctrl Pts',(5.8987480461168,0.120689135229758,7.91273026942946));
#396=CARTESIAN_POINT('Ctrl Pts',(5.89696439929184,0.181007909160945,7.90613771674374));
#397=CARTESIAN_POINT('Ctrl Pts',(5.89518075246687,0.241326683092134,7.89954516405803));
#398=CARTESIAN_POINT('Ctrl Pts',(5.89245439341034,0.301657876820135,7.88962027508626));
#399=CARTESIAN_POINT('Ctrl Pts',(5.88874451176452,0.361800128403853,7.87624003981176));
#400=CARTESIAN_POINT('Ctrl Pts',(5.88636861675185,0.40031663357327,7.86767102406082));
#401=CARTESIAN_POINT('Ctrl Pts',(5.88358933768979,0.438766814520386,7.85767625334088));
#402=CARTESIAN_POINT('Ctrl Pts',(5.88046563722019,0.47689191290492,7.84628634755982));
#403=CARTESIAN_POINT('Ctrl Pts',(5.87734592522911,0.514968331482507,7.83491098491277));
#404=CARTESIAN_POINT('Ctrl Pts',(5.87388267081386,0.552719941472562,7.82214416882248));
#405=CARTESIAN_POINT('Ctrl Pts',(5.87013461104624,0.589901279613079,7.80806690495333));
#406=CARTESIAN_POINT('Ctrl Pts',(5.86638006423465,0.627146970242784,7.79396527652346));
#407=CARTESIAN_POINT('Ctrl Pts',(5.8623397253502,0.663819889514865,7.77854888870769));
#408=CARTESIAN_POINT('Ctrl Pts',(5.85807263697464,0.699693801329746,7.76194728227565));
#409=CARTESIAN_POINT('Ctrl Pts',(5.85740248442601,0.705327852306879,7.75933997539975));
#410=CARTESIAN_POINT('Ctrl Pts',(5.85672673906317,0.710942245703068,7.75670352669419));
#411=CARTESIAN_POINT('Ctrl Pts',(5.85604562959943,0.71653616361493,7.75403853881209));
#412=CARTESIAN_POINT('Ctrl Pts',(5.85022570986472,0.764334872901359,7.7312668458707));
#413=CARTESIAN_POINT('Ctrl Pts',(5.84401414106016,0.810630518589055,7.70642005796077));
#414=CARTESIAN_POINT('Ctrl Pts',(5.83751156749515,0.855427139790149,7.67961547575229));
#415=CARTESIAN_POINT('Ctrl Pts',(5.83086567990617,0.901211059939994,7.65222013167101));
#416=CARTESIAN_POINT('Ctrl Pts',(5.8239158189547,0.945430116493133,7.62277942419394));
#417=CARTESIAN_POINT('Ctrl Pts',(5.816769431166,0.988075668135193,7.59136589864182));
#418=CARTESIAN_POINT('Ctrl Pts',(5.80960976830401,1.03080043781583,7.55989401957374));
#419=CARTESIAN_POINT('Ctrl Pts',(5.80225284779324,1.07194671385091,7.52644138416364));
#420=CARTESIAN_POINT('Ctrl Pts',(5.79480671604736,1.11147916792624,7.49103588153848));
#421=CARTESIAN_POINT('Ctrl Pts',(5.78744628375518,1.15055663277584,7.45603786998876));
#422=CARTESIAN_POINT('Ctrl Pts',(5.77999868192099,1.18805788608208,7.41913093442127));
#423=CARTESIAN_POINT('Ctrl Pts',(5.77256826912794,1.22391147827974,7.38030822934945));
#424=CARTESIAN_POINT('Ctrl Pts',(5.76784253450699,1.2467143247235,7.35561703028066));
#425=CARTESIAN_POINT('Ctrl Pts',(5.76312375276113,1.26884991609089,7.33015026158033));
#426=CARTESIAN_POINT('Ctrl Pts',(5.75843877098779,1.29029005729795,7.30390111871943));
#427=CARTESIAN_POINT('Ctrl Pts',(5.75087055079831,1.32492492193541,7.26149768951358));
#428=CARTESIAN_POINT('Ctrl Pts',(5.74339053456274,1.35772314276013,7.21707013302663));
#429=CARTESIAN_POINT('Ctrl Pts',(5.73616038772752,1.3884011289429,7.17081393622711));
#430=CARTESIAN_POINT('Ctrl Pts',(5.72895249545784,1.41898468754773,7.1247001171118));
#431=CARTESIAN_POINT('Ctrl Pts',(5.72199293674779,1.44746055601214,7.07676917969282));
#432=CARTESIAN_POINT('Ctrl Pts',(5.71544188880368,1.47357579144249,7.02725824979517));
#433=CARTESIAN_POINT('Ctrl Pts',(5.70891281199232,1.49960344068673,6.97791337137853));
#434=CARTESIAN_POINT('Ctrl Pts',(5.70278951038664,1.523285834806,6.92699944930302));
#435=CARTESIAN_POINT('Ctrl Pts',(5.69723055496834,1.54440732725152,6.87478957060103));
#436=CARTESIAN_POINT('Ctrl Pts',(5.69498917051276,1.55292356479686,6.85373841948628));
#437=CARTESIAN_POINT('Ctrl Pts',(5.69283953306821,1.56102390169371,6.8324769865129));
#438=CARTESIAN_POINT('Ctrl Pts',(5.69079203688591,1.56869603956482,6.81102471911106));
#439=CARTESIAN_POINT('Ctrl Pts',(5.68745574773929,1.58119739147551,6.77606935874373));
#440=CARTESIAN_POINT('Ctrl Pts',(5.6843906540337,1.59256478796735,6.74058699406415));
#441=CARTESIAN_POINT('Ctrl Pts',(5.68163014115462,1.60271445104605,6.70482127083961));
#442=CARTESIAN_POINT('Ctrl Pts',(5.67961046622637,1.61014025231853,6.67865398321907));
#443=CARTESIAN_POINT('Ctrl Pts',(5.67775382821504,1.61691522371262,6.65233547910149));
#444=CARTESIAN_POINT('Ctrl Pts',(5.67607330181315,1.62302365823999,6.62596569629856));
#445=CARTESIAN_POINT('Ctrl Pts',(5.67252974052643,1.63590391533641,6.57036232025255));
#446=CARTESIAN_POINT('Ctrl Pts',(5.66976920707928,1.64581905905001,6.51457958118583));
#447=CARTESIAN_POINT('Ctrl Pts',(5.66779453118414,1.65287013989835,6.45874937277128));
#448=CARTESIAN_POINT('Ctrl Pts',(5.66575802064087,1.66014201703243,6.40117090718664));
#449=CARTESIAN_POINT('Ctrl Pts',(5.66455735463239,1.66436813415602,6.34354089898066));
#450=CARTESIAN_POINT('Ctrl Pts',(5.66419563710943,1.66561150296541,6.28597667562889));
#451=CARTESIAN_POINT('Ctrl Pts',(5.66383197050058,1.666861571568,6.22810227207216));
#452=CARTESIAN_POINT('Ctrl Pts',(5.66431631794956,1.6650967684375,6.17029312884102));
#453=CARTESIAN_POINT('Ctrl Pts',(5.66565183385412,1.66032931096639,6.11265889491531));
#454=CARTESIAN_POINT('Ctrl Pts',(5.66697420320294,1.65560878340838,6.05559200104584));
#455=CARTESIAN_POINT('Ctrl Pts',(5.66913106601643,1.64794422534552,5.99869540346478));
#456=CARTESIAN_POINT('Ctrl Pts',(5.6721254844525,1.63729774085331,5.94208425211325));
#457=CARTESIAN_POINT('Ctrl Pts',(5.67327747403635,1.63320190738796,5.92030524624641));
#458=CARTESIAN_POINT('Ctrl Pts',(5.67455342482456,1.62866422866356,5.89856867294106));
#459=CARTESIAN_POINT('Ctrl Pts',(5.67595351117266,1.62368068306007,5.87688200330516));
#460=CARTESIAN_POINT('Ctrl Pts',(5.67882297788731,1.61346694285079,5.8324353327438));
#461=CARTESIAN_POINT('Ctrl Pts',(5.68221386611833,1.60136658856694,5.7881592332919));
#462=CARTESIAN_POINT('Ctrl Pts',(5.68604581794267,1.58740504953636,5.74433092965213));
#463=CARTESIAN_POINT('Ctrl Pts',(5.68987190455822,1.57346488012241,5.70056970988073));
#464=CARTESIAN_POINT('Ctrl Pts',(5.69413770561115,1.55766932887027,5.65725551515142));
#465=CARTESIAN_POINT('Ctrl Pts',(5.69876323160289,1.54009461387888,5.6146539680605));
#466=CARTESIAN_POINT('Ctrl Pts',(5.70339134731137,1.52251005924252,5.57202856942498));
#467=CARTESIAN_POINT('Ctrl Pts',(5.70837959087347,1.50314456542559,5.53011718977635));
#468=CARTESIAN_POINT('Ctrl Pts',(5.71364783836302,1.48212304622192,5.48916672269291));
#469=CARTESIAN_POINT('Ctrl Pts',(5.71892087986379,1.46108239781088,5.44817899141512));
#470=CARTESIAN_POINT('Ctrl Pts',(5.72447443512101,1.43838303868104,5.40815443928804));
#471=CARTESIAN_POINT('Ctrl Pts',(5.73022816127538,1.41419474868586,5.36931321527495));
#472=CARTESIAN_POINT('Ctrl Pts',(5.73600418047252,1.38991274019091,5.33032149938152));
#473=CARTESIAN_POINT('Ctrl Pts',(5.74198192471212,1.3641306537935,5.29252275294529));
#474=CARTESIAN_POINT('Ctrl Pts',(5.74808011363696,1.33705952404411,5.25610471921689));
#475=CARTESIAN_POINT('Ctrl Pts',(5.7513924639592,1.32235531162075,5.23632355349012));
#476=CARTESIAN_POINT('Ctrl Pts',(5.75474034945298,1.30727143328196,5.21694909503687));
#477=CARTESIAN_POINT('Ctrl Pts',(5.7581107446974,1.29184581859756,5.19800647294197));
#478=CARTESIAN_POINT('Ctrl Pts',(5.76496317988257,1.26048361412273,5.15949375240641));
#479=CARTESIAN_POINT('Ctrl Pts',(5.771908661321,1.22769197002988,5.12273636074312));
#480=CARTESIAN_POINT('Ctrl Pts',(5.77885103963053,1.19354954666762,5.08767668884706));
#481=CARTESIAN_POINT('Ctrl Pts',(5.78591874321773,1.15879077707677,5.0519841123584));
#482=CARTESIAN_POINT('Ctrl Pts',(5.79298323062811,1.12263150461938,5.01805034875571));
#483=CARTESIAN_POINT('Ctrl Pts',(5.79994305078692,1.08510786813016,4.98584142034236));
#484=CARTESIAN_POINT('Ctrl Pts',(5.80690665734925,1.04756381737359,4.95361496906244));
#485=CARTESIAN_POINT('Ctrl Pts',(5.81376548274321,1.00865321373327,4.92311461912196));
#486=CARTESIAN_POINT('Ctrl Pts',(5.82041791022439,0.96837516528715,4.89434313365989));
#487=CARTESIAN_POINT('Ctrl Pts',(5.82698679215359,0.928602955018098,4.86593297940227));
#488=CARTESIAN_POINT('Ctrl Pts',(5.83335442777796,0.887496649537796,4.83920811014264));
#489=CARTESIAN_POINT('Ctrl Pts',(5.8394229809828,0.845030372657606,4.81421461586832));
#490=CARTESIAN_POINT('Ctrl Pts',(5.84522078590745,0.804458727173705,4.79033620543073));
#491=CARTESIAN_POINT('Ctrl Pts',(5.85074560019303,0.762644989621033,4.76803806777441));
#492=CARTESIAN_POINT('Ctrl Pts',(5.85591210705047,0.719554894083463,4.7474033294325));
#493=CARTESIAN_POINT('Ctrl Pts',(5.86035422081104,0.68250643724144,4.72966177645219));
#494=CARTESIAN_POINT('Ctrl Pts',(5.86453145946516,0.644551345289629,4.71317526513471));
#495=CARTESIAN_POINT('Ctrl Pts',(5.86841017473439,0.605910666777925,4.69808883505378));
#496=CARTESIAN_POINT('Ctrl Pts',(5.87228203441244,0.567338285286378,4.68302907009));
#497=CARTESIAN_POINT('Ctrl Pts',(5.87585642504733,0.528083254296091,4.66936471268407));
#498=CARTESIAN_POINT('Ctrl Pts',(5.87909987646446,0.488388245873253,4.65719338233016));
#499=CARTESIAN_POINT('Ctrl Pts',(5.8823959010332,0.448049820476577,4.64482476670399));
#500=CARTESIAN_POINT('Ctrl Pts',(5.88535017103854,0.40725759183735,4.63399828137717));
#501=CARTESIAN_POINT('Ctrl Pts',(5.88792756222663,0.366281751077637,4.62476350064752));
#502=CARTESIAN_POINT('Ctrl Pts',(5.89047640317746,0.32575980725889,4.61563101528621));
#503=CARTESIAN_POINT('Ctrl Pts',(5.89265666857875,0.285058912270757,4.60805509502502));
#504=CARTESIAN_POINT('Ctrl Pts',(5.89443438852825,0.244446543595144,4.60203098107871));
#505=CARTESIAN_POINT('Ctrl Pts',(5.89624197754019,0.203151810199209,4.59590565060744));
#506=CARTESIAN_POINT('Ctrl Pts',(5.89763338040813,0.161949219336305,4.59138474182303));
#507=CARTESIAN_POINT('Ctrl Pts',(5.89857288602308,0.121117054739832,4.58840839582912));
#508=CARTESIAN_POINT('Ctrl Pts',(5.89951239163803,0.0802848901433593,4.58543204983522));
#509=CARTESIAN_POINT('Ctrl Pts',(5.9,0.0398237128989134,4.584));
#510=CARTESIAN_POINT('Ctrl Pts',(5.9,4.07350139122557E-16,4.584));
#511=CARTESIAN_POINT('Ctrl Pts',(6.,2.77555756156289E-16,4.484));
#512=CARTESIAN_POINT('Ctrl Pts',(6.,0.0524461634103879,4.484));
#513=CARTESIAN_POINT('Ctrl Pts',(5.99930806421908,0.105818754483216,4.48684197355547));
#514=CARTESIAN_POINT('Ctrl Pts',(5.99787684853714,0.159603602034028,4.49234744490653));
#515=CARTESIAN_POINT('Ctrl Pts',(5.99645747094071,0.212943576298096,4.49780737857835));
#516=CARTESIAN_POINT('Ctrl Pts',(5.99431092620468,0.266688784617909,4.50588693082577));
#517=CARTESIAN_POINT('Ctrl Pts',(5.99144256678896,0.320337273618514,4.51641201806482));
#518=CARTESIAN_POINT('Ctrl Pts',(5.9885645588682,0.374166223865936,4.52697250929009));
#519=CARTESIAN_POINT('Ctrl Pts',(5.98495987494569,0.427897568404924,4.53999501561889));
#520=CARTESIAN_POINT('Ctrl Pts',(5.98068664057777,0.481027345599611,4.55530369081928));
#521=CARTESIAN_POINT('Ctrl Pts',(5.97632217719478,0.535291387107231,4.57093918997555));
#522=CARTESIAN_POINT('Ctrl Pts',(5.97126033972233,0.588927654872193,4.5889595145414));
#523=CARTESIAN_POINT('Ctrl Pts',(5.9656180034352,0.641406140514592,4.60917731374292));
#524=CARTESIAN_POINT('Ctrl Pts',(5.96086249404027,0.685636388200023,4.62621740656173));
#525=CARTESIAN_POINT('Ctrl Pts',(5.95569572247951,0.72904427260327,4.64481848903677));
#526=CARTESIAN_POINT('Ctrl Pts',(5.95021585052418,0.771317919000197,4.6648683929752));
#527=CARTESIAN_POINT('Ctrl Pts',(5.93887004752103,0.85884340648501,4.70638072431652));
#528=CARTESIAN_POINT('Ctrl Pts',(5.92618969849536,0.941526176064975,4.75410381250771));
#529=CARTESIAN_POINT('Ctrl Pts',(5.91282018478696,1.01909639503629,4.80798696321612));
#530=CARTESIAN_POINT('Ctrl Pts',(5.89954699700343,1.09610772882685,4.86148189155229));
#531=CARTESIAN_POINT('Ctrl Pts',(5.88559550212604,1.16808077423623,4.92104843698651));
#532=CARTESIAN_POINT('Ctrl Pts',(5.87156627432693,1.23479127231553,4.98663699305218));
#533=CARTESIAN_POINT('Ctrl Pts',(5.86100498353213,1.28501135423091,5.03601246997356));
#534=CARTESIAN_POINT('Ctrl Pts',(5.85039909483929,1.33224996691722,5.08880072447434));
#535=CARTESIAN_POINT('Ctrl Pts',(5.83998825478361,1.37642187718357,5.14498059303006));
#536=CARTESIAN_POINT('Ctrl Pts',(5.82334251869146,1.44704768231048,5.23480574264995));
#537=CARTESIAN_POINT('Ctrl Pts',(5.80719637237546,1.50980470163117,5.33330132728155));
#538=CARTESIAN_POINT('Ctrl Pts',(5.79283318787978,1.56303667820004,5.43719168841794));
#539=CARTESIAN_POINT('Ctrl Pts',(5.78257196313218,1.60106621653092,5.51141216125597));
#540=CARTESIAN_POINT('Ctrl Pts',(5.77322296550514,1.63423639565534,5.58838604088434));
#541=CARTESIAN_POINT('Ctrl Pts',(5.7652332628768,1.66195229312366,5.66691894323395));
#542=CARTESIAN_POINT('Ctrl Pts',(5.75876169399007,1.68440185702699,5.73052970712231));
#543=CARTESIAN_POINT('Ctrl Pts',(5.75318209264363,1.70327333268769,5.79516331729189));
#544=CARTESIAN_POINT('Ctrl Pts',(5.74870660867566,1.71824687614113,5.8601850556313));
#545=CARTESIAN_POINT('Ctrl Pts',(5.74415829006479,1.73346410110441,5.92626496670183));
#546=CARTESIAN_POINT('Ctrl Pts',(5.74075327195057,1.7446515603283,5.99274574163965));
#547=CARTESIAN_POINT('Ctrl Pts',(5.73854507134454,1.75188483187318,6.05947692274821));
#548=CARTESIAN_POINT('Ctrl Pts',(5.73631780611491,1.75918055227301,6.1267842312458));
#549=CARTESIAN_POINT('Ctrl Pts',(5.7353080122548,1.76245355163997,6.19434628837037));
#550=CARTESIAN_POINT('Ctrl Pts',(5.73551916352083,1.76176613796649,6.26200870572914));
#551=CARTESIAN_POINT('Ctrl Pts',(5.73573340327874,1.76106866955077,6.33066081560104));
#552=CARTESIAN_POINT('Ctrl Pts',(5.73720453021063,1.75629406531022,6.39941624310035));
#553=CARTESIAN_POINT('Ctrl Pts',(5.73988441796652,1.74749159322301,6.46811372558021));
#554=CARTESIAN_POINT('Ctrl Pts',(5.74215536741539,1.74003233710637,6.52632829431831));
#555=CARTESIAN_POINT('Ctrl Pts',(5.74529339857026,1.72968037357357,6.58450125304471));
#556=CARTESIAN_POINT('Ctrl Pts',(5.74924115100473,1.71645745289356,6.64253447072623));
#557=CARTESIAN_POINT('Ctrl Pts',(5.75367866331253,1.70159409095873,6.70776731447662));
#558=CARTESIAN_POINT('Ctrl Pts',(5.75913988116802,1.68310361188988,6.77282359376015));
#559=CARTESIAN_POINT('Ctrl Pts',(5.76551263191635,1.66098286903057,6.83631724136277));
#560=CARTESIAN_POINT('Ctrl Pts',(5.77499263215924,1.62807641215492,6.93076935764121));
#561=CARTESIAN_POINT('Ctrl Pts',(5.78648628415739,1.58714161338244,7.02176351796953));
#562=CARTESIAN_POINT('Ctrl Pts',(5.79916480801943,1.53937894276521,7.10816668962355));
#563=CARTESIAN_POINT('Ctrl Pts',(5.81205497730912,1.49081895923063,7.19601220870011));
#564=CARTESIAN_POINT('Ctrl Pts',(5.82616359819564,1.43519883162598,7.27911218296394));
#565=CARTESIAN_POINT('Ctrl Pts',(5.84060480444431,1.37380330408034,7.35627588531078));
#566=CARTESIAN_POINT('Ctrl Pts',(5.8540675342812,1.3165676835714,7.4282112943079));
#567=CARTESIAN_POINT('Ctrl Pts',(5.86782333296158,1.2543276379049,7.49498761328124));
#568=CARTESIAN_POINT('Ctrl Pts',(5.88137186950323,1.18720888331251,7.55634759436886));
#569=CARTESIAN_POINT('Ctrl Pts',(5.89505054707269,1.11944541674832,7.61829697129132));
#570=CARTESIAN_POINT('Ctrl Pts',(5.90851739859574,1.04670825305919,7.67472545686701));
#571=CARTESIAN_POINT('Ctrl Pts',(5.92121130037939,0.969152586675323,7.72536831878507));
#572=CARTESIAN_POINT('Ctrl Pts',(5.93161420984934,0.905594148141259,7.76687116927282));
#573=CARTESIAN_POINT('Ctrl Pts',(5.94149696317197,0.838799835441858,7.80448831722207));
#574=CARTESIAN_POINT('Ctrl Pts',(5.95053220590522,0.768873504865931,7.83807405375723));
#575=CARTESIAN_POINT('Ctrl Pts',(5.95688833447322,0.719681605926247,7.8617010072073));
#576=CARTESIAN_POINT('Ctrl Pts',(5.96282090871764,0.668935082454334,7.88333286915548));
#577=CARTESIAN_POINT('Ctrl Pts',(5.9681730902329,0.617179038059379,7.90271933311635));
#578=CARTESIAN_POINT('Ctrl Pts',(5.97340359820616,0.566599587026102,7.92166507590022));
#579=CARTESIAN_POINT('Ctrl Pts',(5.97807964699672,0.515056195568099,7.9384663515317));
#580=CARTESIAN_POINT('Ctrl Pts',(5.98210411518807,0.463066253412982,7.95288953937242));
#581=CARTESIAN_POINT('Ctrl Pts',(5.98399754993992,0.438605987225602,7.9596753713859));
#582=CARTESIAN_POINT('Ctrl Pts',(5.98574748745915,0.414046982947873,7.96593480862101));
#583=CARTESIAN_POINT('Ctrl Pts',(5.9873478006947,0.389443594781437,7.97164352137854));
#584=CARTESIAN_POINT('Ctrl Pts',(5.99219906083585,0.314859798498976,7.98894916507533));
#585=CARTESIAN_POINT('Ctrl Pts',(5.99567462609707,0.239842914914197,8.0011938416896));
#586=CARTESIAN_POINT('Ctrl Pts',(5.99773689691517,0.164778989505197,8.00846333576854));
#587=CARTESIAN_POINT('Ctrl Pts',(5.99979957267482,0.0897003247608377,8.01573425726432));
#588=CARTESIAN_POINT('Ctrl Pts',(6.00044838638281,0.014574918277316,8.01802804220802));
#589=CARTESIAN_POINT('Ctrl Pts',(5.99969789417754,-0.0602094560815176,8.01543052568996));
#590=CARTESIAN_POINT('Ctrl Pts',(5.99894158591396,-0.135573383804325,8.01281287930589));
#591=CARTESIAN_POINT('Ctrl Pts',(5.99676422153365,-0.210590649122357,8.00522782587006));
#592=CARTESIAN_POINT('Ctrl Pts',(5.99323371584676,-0.284867736393046,7.99276321155571));
#593=CARTESIAN_POINT('Ctrl Pts',(5.98967363183979,-0.359767111702991,7.98019416960846));
#594=CARTESIAN_POINT('Ctrl Pts',(5.98473776290745,-0.433913540690027,7.96266346307508));
#595=CARTESIAN_POINT('Ctrl Pts',(5.97854835626646,-0.506911779093436,7.94026116458471));
#596=CARTESIAN_POINT('Ctrl Pts',(5.97224443716263,-0.581260584448849,7.91744439302413));
#597=CARTESIAN_POINT('Ctrl Pts',(5.9646403284216,-0.65441800912867,7.88957409977005));
#598=CARTESIAN_POINT('Ctrl Pts',(5.95591750484335,-0.72597980378286,7.85674544991713));
#599=CARTESIAN_POINT('Ctrl Pts',(5.95435272760827,-0.738817191375509,7.85085635638137));
#600=CARTESIAN_POINT('Ctrl Pts',(5.95275207885722,-0.751603271897454,7.84480770115901));
#601=CARTESIAN_POINT('Ctrl Pts',(5.9511167720789,-0.764335767239282,7.83860003361881));
#602=CARTESIAN_POINT('Ctrl Pts',(5.944809071585,-0.813447510809832,7.81465583664717));
#603=CARTESIAN_POINT('Ctrl Pts',(5.93798132173377,-0.86176199690158,7.78834585931761));
#604=CARTESIAN_POINT('Ctrl Pts',(5.93078789442595,-0.908710598227275,7.76007898722405));
#605=CARTESIAN_POINT('Ctrl Pts',(5.92325668626588,-0.957863759061229,7.73048479120853));
#606=CARTESIAN_POINT('Ctrl Pts',(5.91532485125354,-1.00551953478424,7.6987456062603));
#607=CARTESIAN_POINT('Ctrl Pts',(5.90722580304016,-1.05103915811762,7.66533066498924));
#608=CARTESIAN_POINT('Ctrl Pts',(5.90417746123266,-1.06817195782602,7.65275385845743));
#609=CARTESIAN_POINT('Ctrl Pts',(5.90110596228959,-1.08500229249784,7.63993965766069));
#610=CARTESIAN_POINT('Ctrl Pts',(5.89802552814174,-1.10149664973996,7.62691308201803));
#611=CARTESIAN_POINT('Ctrl Pts',(5.88917040958339,-1.14891187821497,7.5894664539817));
#612=CARTESIAN_POINT('Ctrl Pts',(5.8802467863375,-1.19354956221078,7.55026486288723));
#613=CARTESIAN_POINT('Ctrl Pts',(5.87135727979901,-1.2357846466724,7.50887114556657));
#614=CARTESIAN_POINT('Ctrl Pts',(5.86204244725896,-1.28004050467433,7.46549691063211));
#615=CARTESIAN_POINT('Ctrl Pts',(5.85276481469903,-1.3216585174092,7.41971576291265));
#616=CARTESIAN_POINT('Ctrl Pts',(5.84358612763904,-1.36106618827469,7.37102473973172));
#617=CARTESIAN_POINT('Ctrl Pts',(5.8426482867132,-1.36509270386324,7.36604968894708));
#618=CARTESIAN_POINT('Ctrl Pts',(5.84171143449893,-1.36909613930177,7.3610442592909));
#619=CARTESIAN_POINT('Ctrl Pts',(5.84077560741324,-1.37307694753298,7.35600791424852));
#620=CARTESIAN_POINT('Ctrl Pts',(5.82790220323317,-1.42783765504791,7.2867270542341));
#621=CARTESIAN_POINT('Ctrl Pts',(5.81521705322158,-1.47832034826284,7.21159600027215));
#622=CARTESIAN_POINT('Ctrl Pts',(5.80336051680255,-1.52348505474038,7.13237208687292));
#623=CARTESIAN_POINT('Ctrl Pts',(5.79117065799803,-1.56991947500029,7.05092095442189));
#624=CARTESIAN_POINT('Ctrl Pts',(5.77986092926117,-1.61073401607091,6.96514360296536));
#625=CARTESIAN_POINT('Ctrl Pts',(5.77014381640657,-1.6448222815809,6.87694978437538));
#626=CARTESIAN_POINT('Ctrl Pts',(5.76165490453476,-1.67460193795695,6.799903282513));
#627=CARTESIAN_POINT('Ctrl Pts',(5.75438399736749,-1.6992495005454,6.72101257032522));
#628=CARTESIAN_POINT('Ctrl Pts',(5.74877255073225,-1.71802623959805,6.64155092007741));
#629=CARTESIAN_POINT('Ctrl Pts',(5.74412689671603,-1.73357129221313,6.57576550704485));
#630=CARTESIAN_POINT('Ctrl Pts',(5.74062090408265,-1.74508856748721,6.50958877311005));
#631=CARTESIAN_POINT('Ctrl Pts',(5.7383120910288,-1.75264781001565,6.44323475327532));
#632=CARTESIAN_POINT('Ctrl Pts',(5.73598571332457,-1.76026456064416,6.37637593502998));
#633=CARTESIAN_POINT('Ctrl Pts',(5.73487470798502,-1.76386287128589,6.30933712316454));
#634=CARTESIAN_POINT('Ctrl Pts',(5.73498662310581,-1.76349891771939,6.24233727485085));
#635=CARTESIAN_POINT('Ctrl Pts',(5.7350999846998,-1.76313026014973,6.17447147129707));
#636=CARTESIAN_POINT('Ctrl Pts',(5.7364680511667,-1.75869624054275,6.10664564499096));
#637=CARTESIAN_POINT('Ctrl Pts',(5.73904711603733,-1.75023946930229,6.03908735319653));
#638=CARTESIAN_POINT('Ctrl Pts',(5.74133942697959,-1.74272296614202,5.97904054581142));
#639=CARTESIAN_POINT('Ctrl Pts',(5.74458764465825,-1.73202824289452,5.91920508846736));
#640=CARTESIAN_POINT('Ctrl Pts',(5.7487279498948,-1.71817547360516,5.85974076192637));
#641=CARTESIAN_POINT('Ctrl Pts',(5.75420600446108,-1.69984681865694,5.78106327151758));
#642=CARTESIAN_POINT('Ctrl Pts',(5.76124455991862,-1.67599625182444,5.70303548428422));
#643=CARTESIAN_POINT('Ctrl Pts',(5.76949070500839,-1.64711171595063,5.6267404966996));
#644=CARTESIAN_POINT('Ctrl Pts',(5.77898403476352,-1.61385855087907,5.53890630655139));
#645=CARTESIAN_POINT('Ctrl Pts',(5.79007653516634,-1.57393236614593,5.45336870677933));
#646=CARTESIAN_POINT('Ctrl Pts',(5.80215530412165,-1.52806865907687,5.37178030566869));
#647=CARTESIAN_POINT('Ctrl Pts',(5.81398544640366,-1.48314900027599,5.29187130192243));
#648=CARTESIAN_POINT('Ctrl Pts',(5.82675854762745,-1.43253247792911,5.21575059124035));
#649=CARTESIAN_POINT('Ctrl Pts',(5.83987041454137,-1.3769217629787,5.14497081732913));
#650=CARTESIAN_POINT('Ctrl Pts',(5.85391404521717,-1.31735920430512,5.06916124645329));
#651=CARTESIAN_POINT('Ctrl Pts',(5.86834609193012,-1.25208446495287,4.99947866557101));
#652=CARTESIAN_POINT('Ctrl Pts',(5.88254632136919,-1.18137579835791,4.93600843197451));
#653=CARTESIAN_POINT('Ctrl Pts',(5.89689800132613,-1.10991299858372,4.87186126567156));
#654=CARTESIAN_POINT('Ctrl Pts',(5.9110116158347,-1.03289869177945,4.81405966711236));
#655=CARTESIAN_POINT('Ctrl Pts',(5.92420907233299,-0.950656019434715,4.76269175391885));
#656=CARTESIAN_POINT('Ctrl Pts',(5.93340594005914,-0.893343841205783,4.72689516666965));
#657=CARTESIAN_POINT('Ctrl Pts',(5.94215708625505,-0.833493410293885,4.69422292612212));
#658=CARTESIAN_POINT('Ctrl Pts',(5.95022749540372,-0.771228081012105,4.66470485256685));
#659=CARTESIAN_POINT('Ctrl Pts',(5.95680756755244,-0.720461093677214,4.64063778854236));
#660=CARTESIAN_POINT('Ctrl Pts',(5.96293180143796,-0.668081266398916,4.61866751428265));
#661=CARTESIAN_POINT('Ctrl Pts',(5.96843700924237,-0.61462156381471,4.59898371318264));
#662=CARTESIAN_POINT('Ctrl Pts',(5.97379600950308,-0.562581646292042,4.57982267531185));
#663=CARTESIAN_POINT('Ctrl Pts',(5.97856829091481,-0.509518662076651,4.56282827481461));
#664=CARTESIAN_POINT('Ctrl Pts',(5.98265199539281,-0.455933221012013,4.5481754800415));
#665=CARTESIAN_POINT('Ctrl Pts',(5.98671239656569,-0.402653560615572,4.53360630016989));
#666=CARTESIAN_POINT('Ctrl Pts',(5.9900919332796,-0.348857606613451,4.52135207793286));
#667=CARTESIAN_POINT('Ctrl Pts',(5.9927413967919,-0.295043303900801,4.51158480341592));
#668=CARTESIAN_POINT('Ctrl Pts',(5.99540447377294,-0.24095249263303,4.50176734270632));
#669=CARTESIAN_POINT('Ctrl Pts',(5.99732990522814,-0.186843377780064,4.49446245223569));
#670=CARTESIAN_POINT('Ctrl Pts',(5.99852076152504,-0.133224147785101,4.48984478689251));
#671=CARTESIAN_POINT('Ctrl Pts',(5.99951685524556,-0.0883742541109237,4.48598233307353));
#672=CARTESIAN_POINT('Ctrl Pts',(6.,-0.0438672199680134,4.484));
#673=CARTESIAN_POINT('Ctrl Pts',(6.,1.17686306211766E-15,4.484));
#674=CARTESIAN_POINT('Origin',(0.,0.,0.));
#675=CARTESIAN_POINT('',(-6.,-7.34788079488412E-16,12.4));
#676=CARTESIAN_POINT('Origin',(0.,0.,12.4));
#677=CARTESIAN_POINT('',(-5.99992975266009,0.000214672151506289,8.01602854766681));
#678=CARTESIAN_POINT('',(-6.,-7.34788079488412E-16,0.));
#679=CARTESIAN_POINT('',(-5.73549861803404,-1.76183302345302,6.25));
#680=CARTESIAN_POINT('Ctrl Pts',(-5.73549861803404,-1.76183302345302,6.25));
#681=CARTESIAN_POINT('Ctrl Pts',(-5.73549861803404,-1.76183302345302,6.5054614018415));
#682=CARTESIAN_POINT('Ctrl Pts',(-5.77677819262195,-1.62790908717059,7.05937700651439));
#683=CARTESIAN_POINT('Ctrl Pts',(-5.90185981591736,-1.14836388460645,7.67086786774879));
#684=CARTESIAN_POINT('Ctrl Pts',(-5.98737601333142,-0.520348494330854,7.97296078024172));
#685=CARTESIAN_POINT('Ctrl Pts',(-5.99999398176326,-0.13026223699352,8.01649899911056));
#686=CARTESIAN_POINT('Ctrl Pts',(-5.99992975266009,0.000214672151506289,
8.01602854766681));
#687=CARTESIAN_POINT('',(-6.00004195949132,1.1558444590397E-5,4.48303163897234));
#688=CARTESIAN_POINT('Ctrl Pts',(-5.99999999998904,1.14692291831093E-5,
4.48303163915782));
#689=CARTESIAN_POINT('Ctrl Pts',(-6.00000015664165,-0.0819396082608283,
4.48320218963004));
#690=CARTESIAN_POINT('Ctrl Pts',(-5.99831695556547,-0.163870297541269,4.48936037737994));
#691=CARTESIAN_POINT('Ctrl Pts',(-5.99497908292187,-0.245409444254353,4.50139518980494));
#692=CARTESIAN_POINT('Ctrl Pts',(-5.9929982182634,-0.29379895195937,4.50853726415871));
#693=CARTESIAN_POINT('Ctrl Pts',(-5.99043560509072,-0.342050594055812,4.51774899389469));
#694=CARTESIAN_POINT('Ctrl Pts',(-5.98730587798063,-0.390087584394255,4.52900717690677));
#695=CARTESIAN_POINT('Ctrl Pts',(-5.98353472310417,-0.447969605411843,4.54257268925743));
#696=CARTESIAN_POINT('Ctrl Pts',(-5.97893601288619,-0.505548617226981,4.5591094408836));
#697=CARTESIAN_POINT('Ctrl Pts',(-5.97358852986901,-0.562352270216291,4.57842659914046));
#698=CARTESIAN_POINT('Ctrl Pts',(-5.96811302962515,-0.620515786546411,4.59820620468688));
#699=CARTESIAN_POINT('Ctrl Pts',(-5.96185252995399,-0.677866113737591,4.62090093463509));
#700=CARTESIAN_POINT('Ctrl Pts',(-5.95494613118963,-0.733905017444095,4.64630592017955));
#701=CARTESIAN_POINT('Ctrl Pts',(-5.94787664019153,-0.791267260606345,4.67231083572834));
#702=CARTESIAN_POINT('Ctrl Pts',(-5.94013065335397,-0.84725518413051,4.70115552176212));
#703=CARTESIAN_POINT('Ctrl Pts',(-5.93191139782505,-0.90134741823191,4.73262025032163));
#704=CARTESIAN_POINT('Ctrl Pts',(-5.92322584617674,-0.958508421610635,4.7658700408947));
#705=CARTESIAN_POINT('Ctrl Pts',(-5.9140121232846,-1.01355229324002,4.80204558804317));
#706=CARTESIAN_POINT('Ctrl Pts',(-5.90456563476798,-1.06588210638745,4.84088760515311));
#707=CARTESIAN_POINT('Ctrl Pts',(-5.90220234614491,-1.07897379139202,4.8506049617107));
#708=CARTESIAN_POINT('Ctrl Pts',(-5.899824730889,-1.09189570262466,4.86048920792533));
#709=CARTESIAN_POINT('Ctrl Pts',(-5.89743786610678,-1.1046386809314,4.87053628386102));
#710=CARTESIAN_POINT('Ctrl Pts',(-5.88570940365922,-1.16725452061135,4.9199051269131));
#711=CARTESIAN_POINT('Ctrl Pts',(-5.87375921240279,-1.22556472268478,4.97320548742818));
#712=CARTESIAN_POINT('Ctrl Pts',(-5.86196948401103,-1.27957562047872,5.03028787793146));
#713=CARTESIAN_POINT('Ctrl Pts',(-5.85018279575859,-1.33357259083949,5.08735554897605));
#714=CARTESIAN_POINT('Ctrl Pts',(-5.83855656325215,-1.38327297361057,5.14820329976618));
#715=CARTESIAN_POINT('Ctrl Pts',(-5.82742136456985,-1.42869179312924,5.21268175843924));
#716=CARTESIAN_POINT('Ctrl Pts',(-5.8163269161482,-1.47394439839469,5.27692425239611));
#717=CARTESIAN_POINT('Ctrl Pts',(-5.80571994000538,-1.51494715304756,5.34477092905673));
#718=CARTESIAN_POINT('Ctrl Pts',(-5.79587574745466,-1.55171657207973,5.41607405048367));
#719=CARTESIAN_POINT('Ctrl Pts',(-5.79313384807772,-1.56195794501261,5.43593408300615));
#720=CARTESIAN_POINT('Ctrl Pts',(-5.79045081431128,-1.57187089001171,5.45606226222293));
#721=CARTESIAN_POINT('Ctrl Pts',(-5.78783187418608,-1.58145572058014,5.47645539581509));
#722=CARTESIAN_POINT('Ctrl Pts',(-5.77736945798099,-1.6197462052297,5.55792402097149));
#723=CARTESIAN_POINT('Ctrl Pts',(-5.76793918158913,-1.65277510573857,5.64362112282839));
#724=CARTESIAN_POINT('Ctrl Pts',(-5.76008073831655,-1.67972315816465,5.73126004032744));
#725=CARTESIAN_POINT('Ctrl Pts',(-5.75333183265486,-1.70286640133402,5.80652517439768));
#726=CARTESIAN_POINT('Ctrl Pts',(-5.74774334888083,-1.72152540229241,5.8832225018585));
#727=CARTESIAN_POINT('Ctrl Pts',(-5.74361974343768,-1.73517498909846,5.9599036100878));
#728=CARTESIAN_POINT('Ctrl Pts',(-5.73997428656858,-1.74724185162172,6.02769323656383));
#729=CARTESIAN_POINT('Ctrl Pts',(-5.73747405250146,-1.75539392362697,6.09547018710515));
#730=CARTESIAN_POINT('Ctrl Pts',(-5.73628917259458,-1.75925737979812,6.16223373180007));
#731=CARTESIAN_POINT('Ctrl Pts',(-5.73576594780062,-1.76096342278813,6.19171548916162));
#732=CARTESIAN_POINT('Ctrl Pts',(-5.73549861803404,-1.76183302345302,6.22099963540886));
#733=CARTESIAN_POINT('Ctrl Pts',(-5.73549861803404,-1.76183302345302,6.25));
#734=CARTESIAN_POINT('',(-6.,7.34788079488412E-16,0.1));
#735=CARTESIAN_POINT('',(-6.,-7.34788079488412E-16,0.));
#736=CARTESIAN_POINT('Origin',(0.,0.,0.1));
#737=CARTESIAN_POINT('Ctrl Pts',(-5.99992975266009,0.000214672151506289,
8.01602854766681));
#738=CARTESIAN_POINT('Ctrl Pts',(-5.99986552355693,0.130691581296531,8.01555809622306));
#739=CARTESIAN_POINT('Ctrl Pts',(-5.99336385203151,0.327079180062941,7.99237763245738));
#740=CARTESIAN_POINT('Ctrl Pts',(-5.96127441676497,0.717249276303004,7.88002674963919));
#741=CARTESIAN_POINT('Ctrl Pts',(-5.89109179188993,1.18440298975875,7.61987463170523));
#742=CARTESIAN_POINT('Ctrl Pts',(-5.77579594421341,1.63574247435237,7.04981122027048));
#743=CARTESIAN_POINT('Ctrl Pts',(-5.71532595362245,1.82369588022839,6.24668510333617));
#744=CARTESIAN_POINT('Ctrl Pts',(-5.76506910682234,1.67150546978495,5.59290382509222));
#745=CARTESIAN_POINT('Ctrl Pts',(-5.84015057781786,1.38169124246681,5.13240809196525));
#746=CARTESIAN_POINT('Ctrl Pts',(-5.91780242594051,1.0277123781735,4.77510812077534));
#747=CARTESIAN_POINT('Ctrl Pts',(-5.98770374755815,0.522550326848519,4.5275543136284));
#748=CARTESIAN_POINT('Ctrl Pts',(-6.00037885347595,0.130603709285757,4.48275992178863));
#749=CARTESIAN_POINT('Ctrl Pts',(-6.00029244433475,1.20910321119681E-5,
4.48303163786511));
#750=CARTESIAN_POINT('Origin',(-1.5,-6.45892510515194E-17,6.25));
#751=CARTESIAN_POINT('',(-5.66406488513098,-1.666,6.25));
#752=CARTESIAN_POINT('',(-1.5,-1.666,6.25));
#753=CARTESIAN_POINT('Ctrl Pts',(-5.66406488513098,-1.666,6.25));
#754=CARTESIAN_POINT('Ctrl Pts',(-5.66406488513098,-1.666,6.21078779539586));
#755=CARTESIAN_POINT('Ctrl Pts',(-5.6645507454387,-1.66461152105177,6.1709681795887));
#756=CARTESIAN_POINT('Ctrl Pts',(-5.66548253214771,-1.66173044386644,6.13080297013997));
#757=CARTESIAN_POINT('Ctrl Pts',(-5.66640729645362,-1.65887107989635,6.0909404654721));
#758=CARTESIAN_POINT('Ctrl Pts',(-5.66777129104733,-1.65454135680586,6.05073810356679));
#759=CARTESIAN_POINT('Ctrl Pts',(-5.66953547811964,-1.64868964936459,6.01046202789938));
#760=CARTESIAN_POINT('Ctrl Pts',(-5.6712911153521,-1.64286630125222,5.97038114354807));
#761=CARTESIAN_POINT('Ctrl Pts',(-5.6734430755296,-1.63553562889331,5.93022783153205));
#762=CARTESIAN_POINT('Ctrl Pts',(-5.67595288566754,-1.62669836134622,5.89026615228264));
#763=CARTESIAN_POINT('Ctrl Pts',(-5.67845688634859,-1.61788154942005,5.85039697232197));
#764=CARTESIAN_POINT('Ctrl Pts',(-5.68131708227694,-1.60756516908113,5.81071911451228));
#765=CARTESIAN_POINT('Ctrl Pts',(-5.68449526701029,-1.5958014362324,5.77148795614049));
#766=CARTESIAN_POINT('Ctrl Pts',(-5.68767427809019,-1.5840346447446,5.73224659743897));
#767=CARTESIAN_POINT('Ctrl Pts',(-5.69117144335447,-1.5708199200416,5.69345272503232));
#768=CARTESIAN_POINT('Ctrl Pts',(-5.69494852655137,-1.55625938214359,5.65534654168159));
#769=CARTESIAN_POINT('Ctrl Pts',(-5.69873998961854,-1.54164341029428,5.61709528289977));
#770=CARTESIAN_POINT('Ctrl Pts',(-5.70281350604695,-1.52567162961866,5.57953747599894));
#771=CARTESIAN_POINT('Ctrl Pts',(-5.70713040120827,-1.50849426745857,5.5428924798557));
#772=CARTESIAN_POINT('Ctrl Pts',(-5.70842905564182,-1.50332679021108,5.53186854136969));
#773=CARTESIAN_POINT('Ctrl Pts',(-5.70974973562869,-1.49805051337828,5.52092702158865));
#774=CARTESIAN_POINT('Ctrl Pts',(-5.71109138825597,-1.49267028801139,5.51007337438905));
#775=CARTESIAN_POINT('Ctrl Pts',(-5.71654397923142,-1.47080459216363,5.46596322428912));
#776=CARTESIAN_POINT('Ctrl Pts',(-5.72234297092253,-1.44725518740505,5.42336104309652));
#777=CARTESIAN_POINT('Ctrl Pts',(-5.72839406862597,-1.42214712201561,5.38221341140652));
#778=CARTESIAN_POINT('Ctrl Pts',(-5.73468285455445,-1.39605280722332,5.3394494932144));
#779=CARTESIAN_POINT('Ctrl Pts',(-5.74124394101848,-1.36827484408048,5.29825575861151));
#780=CARTESIAN_POINT('Ctrl Pts',(-5.7479714793891,-1.33889676983933,5.2585810977625));
#781=CARTESIAN_POINT('Ctrl Pts',(-5.75469136398677,-1.30955211838932,5.21895157390553));
#782=CARTESIAN_POINT('Ctrl Pts',(-5.76157732196908,-1.27861042384105,5.18083691355767));
#783=CARTESIAN_POINT('Ctrl Pts',(-5.76852386556121,-1.24610525355389,5.14420720880203));
#784=CARTESIAN_POINT('Ctrl Pts',(-5.77548227705078,-1.21354454945748,5.10751492363168));
#785=CARTESIAN_POINT('Ctrl Pts',(-5.78250148134327,-1.17941442554144,5.07231197777741));
#786=CARTESIAN_POINT('Ctrl Pts',(-5.78947544907446,-1.14370746074475,5.03860029542814));
#787=CARTESIAN_POINT('Ctrl Pts',(-5.79644941680565,-1.10800049594807,5.00488861307888));
#788=CARTESIAN_POINT('Ctrl Pts',(-5.80337814797553,-1.07071601880539,4.97266755952773));
#789=CARTESIAN_POINT('Ctrl Pts',(-5.81015561321985,-1.03181500134399,4.94198096229394));
#790=CARTESIAN_POINT('Ctrl Pts',(-5.81643635883666,-0.995765034859178,4.91354338214815));
#791=CARTESIAN_POINT('Ctrl Pts',(-5.82258719854074,-0.958282550506503,4.88639893264377));
#792=CARTESIAN_POINT('Ctrl Pts',(-5.82853603327663,-0.919551565347995,4.86076246859435));
#793=CARTESIAN_POINT('Ctrl Pts',(-5.83447119937005,-0.880909572405941,4.83518490946947));
#794=CARTESIAN_POINT('Ctrl Pts',(-5.84020528772278,-0.841025242708061,4.81110884157124));
#795=CARTESIAN_POINT('Ctrl Pts',(-5.84566669512448,-0.800116743172097,4.78870974912727));
#796=CARTESIAN_POINT('Ctrl Pts',(-5.8511240259116,-0.759238779388754,4.76632737626856));
#797=CARTESIAN_POINT('Ctrl Pts',(-5.85630908267586,-0.717338683148655,4.74561981770411));
#798=CARTESIAN_POINT('Ctrl Pts',(-5.86115042242984,-0.674662470422289,4.72671849252881));
#799=CARTESIAN_POINT('Ctrl Pts',(-5.86599225358056,-0.63198192605366,4.70781524886605));
#800=CARTESIAN_POINT('Ctrl Pts',(-5.87049029794278,-0.588525674739523,4.69071884129435));
#801=CARTESIAN_POINT('Ctrl Pts',(-5.87457309077247,-0.544560071111286,4.6755126774244));
#802=CARTESIAN_POINT('Ctrl Pts',(-5.87866480641172,-0.500498382100965,4.66027328098297));
#803=CARTESIAN_POINT('Ctrl Pts',(-5.88233945349792,-0.455925712627921,4.64693253053805));
#804=CARTESIAN_POINT('Ctrl Pts',(-5.8855250977107,-0.411121726543703,4.63552332752569));
#805=CARTESIAN_POINT('Ctrl Pts',(-5.88667486118612,-0.394951061110905,4.63140551523057));
#806=CARTESIAN_POINT('Ctrl Pts',(-5.88776092547486,-0.378750328143701,4.62753882326376));
#807=CARTESIAN_POINT('Ctrl Pts',(-5.88877990860608,-0.362532809723105,4.62392313777169));
#808=CARTESIAN_POINT('Ctrl Pts',(-5.89201654670117,-0.311020437908371,4.61243848700069));
#809=CARTESIAN_POINT('Ctrl Pts',(-5.89457639338011,-0.259377879183526,4.60348997657783));
#810=CARTESIAN_POINT('Ctrl Pts',(-5.89645187949199,-0.207667737832388,4.59699361445166));
#811=CARTESIAN_POINT('Ctrl Pts',(-5.89836118414489,-0.155025165403522,4.59038011070143));
#812=CARTESIAN_POINT('Ctrl Pts',(-5.89956122509617,-0.10231157808151,4.58630768258635));
#813=CARTESIAN_POINT('Ctrl Pts',(-5.90004401630918,-0.0495733450128635,
4.58473771331233));
#814=CARTESIAN_POINT('Ctrl Pts',(-5.90052651224939,0.00313263360511375,
4.583168704224));
#815=CARTESIAN_POINT('Ctrl Pts',(-5.90029263551605,0.0558642673144346,4.5840990631865));
#816=CARTESIAN_POINT('Ctrl Pts',(-5.89933441471624,0.108579479606558,4.58754203162655));
#817=CARTESIAN_POINT('Ctrl Pts',(-5.89839033315177,0.160516841122199,4.59093419659721));
#818=CARTESIAN_POINT('Ctrl Pts',(-5.89674312624125,0.212439227526903,4.59676556839186));
#819=CARTESIAN_POINT('Ctrl Pts',(-5.89438517028134,0.264295644901044,4.60509762840272));
#820=CARTESIAN_POINT('Ctrl Pts',(-5.89289408447932,0.297087761889258,4.61036652086511));
#821=CARTESIAN_POINT('Ctrl Pts',(-5.89111878159387,0.329853238553339,4.61663637294153));
#822=CARTESIAN_POINT('Ctrl Pts',(-5.88905733380347,0.362574263253229,4.62393238036471));
#823=CARTESIAN_POINT('Ctrl Pts',(-5.88641084535013,0.404581543016986,4.63329900099457));
#824=CARTESIAN_POINT('Ctrl Pts',(-5.88329274870055,0.446543416601864,4.64436860775434));
#825=CARTESIAN_POINT('Ctrl Pts',(-5.87977126791336,0.488188167453531,4.65713204779606));
#826=CARTESIAN_POINT('Ctrl Pts',(-5.87625861719011,0.529728494673497,4.66986348368996));
#827=CARTESIAN_POINT('Ctrl Pts',(-5.87234460275318,0.570952696353477,4.68428019292035));
#828=CARTESIAN_POINT('Ctrl Pts',(-5.86809693673437,0.611599447474923,4.70032193154566));
#829=CARTESIAN_POINT('Ctrl Pts',(-5.86384923999149,0.652246492601021,4.71636378620352));
#830=CARTESIAN_POINT('Ctrl Pts',(-5.85926788684,0.692315507276473,4.73403050885147));
#831=CARTESIAN_POINT('Ctrl Pts',(-5.85442059088103,0.731562273050515,4.75321255996412));
#832=CARTESIAN_POINT('Ctrl Pts',(-5.84956867062206,0.770846480074501,4.77241291067308));
#833=CARTESIAN_POINT('Ctrl Pts',(-5.84445029989692,0.809306345758625,4.79313118363342));
#834=CARTESIAN_POINT('Ctrl Pts',(-5.83913338628718,0.84672234676556,4.8152117691144));
#835=CARTESIAN_POINT('Ctrl Pts',(-5.83379025125189,0.884322872283637,4.83740124943));
#836=CARTESIAN_POINT('Ctrl Pts',(-5.82824661019501,0.920868742397351,4.86096612992989));
#837=CARTESIAN_POINT('Ctrl Pts',(-5.82257138036068,0.956170334024612,4.88570740222954));
#838=CARTESIAN_POINT('Ctrl Pts',(-5.81836332857458,0.982345648511541,4.9040524839496));
#839=CARTESIAN_POINT('Ctrl Pts',(-5.8140829308599,1.00783754780023,4.92304343331402));
#840=CARTESIAN_POINT('Ctrl Pts',(-5.80975828168172,1.03258247956921,4.94258674364733));
#841=CARTESIAN_POINT('Ctrl Pts',(-5.8048804732031,1.06049249793432,4.96462980908836));
#842=CARTESIAN_POINT('Ctrl Pts',(-5.79994636900658,1.08746534693345,4.98737830218519));
#843=CARTESIAN_POINT('Ctrl Pts',(-5.79497833929634,1.11363915061101,5.01090200459108));
#844=CARTESIAN_POINT('Ctrl Pts',(-5.79000557181544,1.13983791498453,5.03444814041899));
#845=CARTESIAN_POINT('Ctrl Pts',(-5.78499881408371,1.16523652871137,5.05877136756597));
#846=CARTESIAN_POINT('Ctrl Pts',(-5.77998050036652,1.18994002799283,5.08398167691052));
#847=CARTESIAN_POINT('Ctrl Pts',(-5.77500744458628,1.21442073741384,5.10896462570032));
#848=CARTESIAN_POINT('Ctrl Pts',(-5.77002304031726,1.23821919053084,5.13481914952192));
#849=CARTESIAN_POINT('Ctrl Pts',(-5.76504912030847,1.26139892156408,5.16168535768511));
#850=CARTESIAN_POINT('Ctrl Pts',(-5.76290415901611,1.2713949861863,5.17327118465472));
#851=CARTESIAN_POINT('Ctrl Pts',(-5.7607611474746,1.28127546319899,5.18504553670481));
#852=CARTESIAN_POINT('Ctrl Pts',(-5.75862183662049,1.29104291548985,5.19702127734533));
#853=CARTESIAN_POINT('Ctrl Pts',(-5.75351801711399,1.31434542593855,5.22559216902686));
#854=CARTESIAN_POINT('Ctrl Pts',(-5.74843526084996,1.33699762102454,5.25530874680089));
#855=CARTESIAN_POINT('Ctrl Pts',(-5.7434366784789,1.35878128752001,5.28601379019954));
#856=CARTESIAN_POINT('Ctrl Pts',(-5.73846361711406,1.38045373426418,5.31656206442935));
#857=CARTESIAN_POINT('Ctrl Pts',(-5.73357387231172,1.40126607597392,5.34808838568981));
#858=CARTESIAN_POINT('Ctrl Pts',(-5.72882959298694,1.42104014897344,5.38040187729875));
#859=CARTESIAN_POINT('Ctrl Pts',(-5.72409749555786,1.44076344804538,5.41263239748935));
#860=CARTESIAN_POINT('Ctrl Pts',(-5.7195101175414,1.45945346911476,5.44564561364224));
#861=CARTESIAN_POINT('Ctrl Pts',(-5.71512913034115,1.47697574594131,5.4792220514953));
#862=CARTESIAN_POINT('Ctrl Pts',(-5.71351937963295,1.4834141344235,5.49155938373163));
#863=CARTESIAN_POINT('Ctrl Pts',(-5.71193749422004,1.48969529998339,5.50397249829692));
#864=CARTESIAN_POINT('Ctrl Pts',(-5.71038653355518,1.49581413359462,5.51644967606948));
#865=CARTESIAN_POINT('Ctrl Pts',(-5.70087947389953,1.53332128479664,5.59293212730505));
#866=CARTESIAN_POINT('Ctrl Pts',(-5.69253438993174,1.56472195270102,5.67179555807429));
#867=CARTESIAN_POINT('Ctrl Pts',(-5.68563758768122,1.58992723204069,5.75231797619822));
#868=CARTESIAN_POINT('Ctrl Pts',(-5.67727000941019,1.6205076575853,5.85001218457923));
#869=CARTESIAN_POINT('Ctrl Pts',(-5.67103428321945,1.64197172898821,5.95015139493173));
#870=CARTESIAN_POINT('Ctrl Pts',(-5.66744172174212,1.65413519920288,6.05152394915745));
#871=CARTESIAN_POINT('Ctrl Pts',(-5.66511409758004,1.66201592367899,6.11720332808414));
#872=CARTESIAN_POINT('Ctrl Pts',(-5.66389600973997,1.66599159194443,6.18340206493984));
#873=CARTESIAN_POINT('Ctrl Pts',(-5.6639265215015,1.66599998668045,6.24978933264492));
#874=CARTESIAN_POINT('Ctrl Pts',(-5.66394996601154,1.66600643699545,6.300799726227));
#875=CARTESIAN_POINT('Ctrl Pts',(-5.66471058612052,1.66366579608033,6.35198268892988));
#876=CARTESIAN_POINT('Ctrl Pts',(-5.66613882908109,1.65895653515387,6.40303337698114));
#877=CARTESIAN_POINT('Ctrl Pts',(-5.66756674728303,1.65424834503481,6.45407245695739));
#878=CARTESIAN_POINT('Ctrl Pts',(-5.66966198475849,1.64717260825278,6.50497870701141));
#879=CARTESIAN_POINT('Ctrl Pts',(-5.67235503619474,1.63775991970681,6.55544794221265));
#880=CARTESIAN_POINT('Ctrl Pts',(-5.67504769527069,1.62834860252913,6.60590982437034));
#881=CARTESIAN_POINT('Ctrl Pts',(-5.67833799412481,1.61660112986356,6.65593421308173));
#882=CARTESIAN_POINT('Ctrl Pts',(-5.6821564578194,1.60259934459035,6.7052266915709));
#883=CARTESIAN_POINT('Ctrl Pts',(-5.68598160617529,1.58857304757636,6.75460546223146));
#884=CARTESIAN_POINT('Ctrl Pts',(-5.69033677021728,1.57228475417118,6.80324917843881));
#885=CARTESIAN_POINT('Ctrl Pts',(-5.69515210949685,1.55386571266462,6.85088047647205));
#886=CARTESIAN_POINT('Ctrl Pts',(-5.6997926126942,1.53611543256164,6.89678236998032));
#887=CARTESIAN_POINT('Ctrl Pts',(-5.70486048154271,1.51638686354124,6.94174372308962));
#888=CARTESIAN_POINT('Ctrl Pts',(-5.71029321006188,1.49483685341204,6.98553978932564));
#889=CARTESIAN_POINT('Ctrl Pts',(-5.7188162481049,1.4610285091315,7.05424845705077));
#890=CARTESIAN_POINT('Ctrl Pts',(-5.72823729105342,1.42274896709543,7.1200906735789));
#891=CARTESIAN_POINT('Ctrl Pts',(-5.7381748486613,1.38041921027695,7.18273726413089));
#892=CARTESIAN_POINT('Ctrl Pts',(-5.74900966291067,1.33426752286575,7.25104018108197));
#893=CARTESIAN_POINT('Ctrl Pts',(-5.76045847419485,1.28330106520857,7.31554641719254));
#894=CARTESIAN_POINT('Ctrl Pts',(-5.77202684789473,1.22800721887977,7.37585712698333));
#895=CARTESIAN_POINT('Ctrl Pts',(-5.78465033900487,1.16767018312299,7.44166859959324));
#896=CARTESIAN_POINT('Ctrl Pts',(-5.79741619701202,1.10217876766793,7.5024874923844));
#897=CARTESIAN_POINT('Ctrl Pts',(-5.80968198516283,1.03211278506747,7.55778407961723));
#898=CARTESIAN_POINT('Ctrl Pts',(-5.82165290138934,0.963731202267695,7.61175132617635));
#899=CARTESIAN_POINT('Ctrl Pts',(-5.8331475023062,0.890991482245665,7.66045044119365));
#900=CARTESIAN_POINT('Ctrl Pts',(-5.84366931976933,0.814543167440144,7.7032981209568));
#901=CARTESIAN_POINT('Ctrl Pts',(-5.85304200986579,0.746444061408266,7.74146624401921));
#902=CARTESIAN_POINT('Ctrl Pts',(-5.86164279618943,0.675401738245057,7.77499146794621));
#903=CARTESIAN_POINT('Ctrl Pts',(-5.86912075571059,0.601918387124462,7.80346395363442));
#904=CARTESIAN_POINT('Ctrl Pts',(-5.87103353147246,0.583122193787607,7.81074688694673));
#905=CARTESIAN_POINT('Ctrl Pts',(-5.8728728432175,0.564166548845744,7.81769923972109));
#906=CARTESIAN_POINT('Ctrl Pts',(-5.87463281801713,0.545060432637924,7.82431417600572));
#907=CARTESIAN_POINT('Ctrl Pts',(-5.87771595566411,0.51159018852953,7.8359022732307));
#908=CARTESIAN_POINT('Ctrl Pts',(-5.88055562165752,0.477653648384801,7.84645187745908));
#909=CARTESIAN_POINT('Ctrl Pts',(-5.88312177142883,0.443497738089861,7.85588472696803));
#910=CARTESIAN_POINT('Ctrl Pts',(-5.88509584076993,0.417222523726117,7.86314116196766));
#911=CARTESIAN_POINT('Ctrl Pts',(-5.88690804848596,0.390817951526878,7.86973770253271));
#912=CARTESIAN_POINT('Ctrl Pts',(-5.88854471706247,0.364401423474959,7.87565912865195));
#913=CARTESIAN_POINT('Ctrl Pts',(-5.89162117053942,0.314746153776099,7.88678966065733));
#914=CARTESIAN_POINT('Ctrl Pts',(-5.89407739342828,0.265084498504263,7.89553646213442));
#915=CARTESIAN_POINT('Ctrl Pts',(-5.89591099741044,0.21546438021712,7.90200820241839));
#916=CARTESIAN_POINT('Ctrl Pts',(-5.89778910624548,0.164639892782661,7.90863702343084));
#917=CARTESIAN_POINT('Ctrl Pts',(-5.89901400522454,0.113858110107218,7.91287934431229));
#918=CARTESIAN_POINT('Ctrl Pts',(-5.89958312786752,0.0631463452758362,7.91480285291632));
#919=CARTESIAN_POINT('Ctrl Pts',(-5.90015467179689,0.0122188313298082,7.91673454493261));
#920=CARTESIAN_POINT('Ctrl Pts',(-5.90006484762548,-0.0386390416375441,
7.9163277336658));
#921=CARTESIAN_POINT('Ctrl Pts',(-5.89931105597698,-0.0894095647989192,
7.91359908924069));
#922=CARTESIAN_POINT('Ctrl Pts',(-5.89856258444918,-0.139821759087811,7.91088970307844));
#923=CARTESIAN_POINT('Ctrl Pts',(-5.89715948468722,-0.190148778141591,7.9058910296588));
#924=CARTESIAN_POINT('Ctrl Pts',(-5.89509921196498,-0.240368733585517,7.89856873436157));
#925=CARTESIAN_POINT('Ctrl Pts',(-5.89344520821656,-0.280685723493029,7.89269033596418));
#926=CARTESIAN_POINT('Ctrl Pts',(-5.89136765587883,-0.320933818956449,7.88531335531776));
#927=CARTESIAN_POINT('Ctrl Pts',(-5.88886523828349,-0.361093338706788,7.87639712270453));
#928=CARTESIAN_POINT('Ctrl Pts',(-5.88607451799623,-0.405879623259097,7.86645365392221));
#929=CARTESIAN_POINT('Ctrl Pts',(-5.88275539593376,-0.450576232508907,7.85458462430684));
#930=CARTESIAN_POINT('Ctrl Pts',(-5.87898263746248,-0.494900191974265,7.84079533566824));
#931=CARTESIAN_POINT('Ctrl Pts',(-5.87521881177798,-0.53911920528881,7.82703869602541));
#932=CARTESIAN_POINT('Ctrl Pts',(-5.87100349529781,-0.582966726043567,7.8113709418615));
#933=CARTESIAN_POINT('Ctrl Pts',(-5.86641092357733,-0.62616851802075,7.79384875782562));
#934=CARTESIAN_POINT('Ctrl Pts',(-5.86182219967208,-0.669334114044333,7.77634125448077));
#935=CARTESIAN_POINT('Ctrl Pts',(-5.85685685241665,-0.711854475860152,7.75698260290487));
#936=CARTESIAN_POINT('Ctrl Pts',(-5.85158893093136,-0.753471745715284,7.73587897502077));
#937=CARTESIAN_POINT('Ctrl Pts',(-5.84632074086533,-0.795091137393412,7.71477427118519));
#938=CARTESIAN_POINT('Ctrl Pts',(-5.84074994571566,-0.835806802143805,7.69192470026186));
#939=CARTESIAN_POINT('Ctrl Pts',(-5.83495060592924,-0.875385044229476,7.66748263634492));
#940=CARTESIAN_POINT('Ctrl Pts',(-5.8291390172055,-0.915046880555966,7.64298894770517));
#941=CARTESIAN_POINT('Ctrl Pts',(-5.82309791739524,-0.953566001098267,7.61689641183353));
#942=CARTESIAN_POINT('Ctrl Pts',(-5.81690183721227,-0.9907392784959,7.58939974691853));
#943=CARTESIAN_POINT('Ctrl Pts',(-5.81465658881848,-1.00420960794677,7.57943589220528));
#944=CARTESIAN_POINT('Ctrl Pts',(-5.81239099009587,-1.01750355510931,7.56928802626426));
#945=CARTESIAN_POINT('Ctrl Pts',(-5.81010858735997,-1.03061266743854,7.55896658846405));
#946=CARTESIAN_POINT('Ctrl Pts',(-5.80320704812838,-1.07025205780924,7.52775658035107));
#947=CARTESIAN_POINT('Ctrl Pts',(-5.79615186320759,-1.10822617777016,7.49494639485558));
#948=CARTESIAN_POINT('Ctrl Pts',(-5.78905439686112,-1.1445641397552,7.46059032293606));
#949=CARTESIAN_POINT('Ctrl Pts',(-5.78191197850532,-1.18113224927834,7.42601665583676));
#950=CARTESIAN_POINT('Ctrl Pts',(-5.7747267414465,-1.21604413866243,7.38987684955651));
#951=CARTESIAN_POINT('Ctrl Pts',(-5.76761217936455,-1.24929827102634,7.35218411801776));
#952=CARTESIAN_POINT('Ctrl Pts',(-5.76054403144514,-1.28233545922878,7.3147372872876));
#953=CARTESIAN_POINT('Ctrl Pts',(-5.7535456393681,-1.31373702366116,7.27575698987252));
#954=CARTESIAN_POINT('Ctrl Pts',(-5.74672829003381,-1.34346113263729,7.23522494136768));
#955=CARTESIAN_POINT('Ctrl Pts',(-5.74006491887044,-1.37251388626574,7.19560835874064));
#956=CARTESIAN_POINT('Ctrl Pts',(-5.73357450466307,-1.39996444537394,7.15450854066853));
#957=CARTESIAN_POINT('Ctrl Pts',(-5.72736096269252,-1.42572858110009,7.11188979169864));
#958=CARTESIAN_POINT('Ctrl Pts',(-5.72159707722618,-1.44962823900348,7.07235524136568));
#959=CARTESIAN_POINT('Ctrl Pts',(-5.71607144105349,-1.47207655717384,7.03151296386662));
#960=CARTESIAN_POINT('Ctrl Pts',(-5.71086700252111,-1.49296653268171,6.98932870382013));
#961=CARTESIAN_POINT('Ctrl Pts',(-5.70637998589989,-1.51097686496591,6.95295946344863));
#962=CARTESIAN_POINT('Ctrl Pts',(-5.7021317173849,-1.52780857311641,6.91561892750339));
#963=CARTESIAN_POINT('Ctrl Pts',(-5.69816049955779,-1.5433003002019,6.87751907014586));
#964=CARTESIAN_POINT('Ctrl Pts',(-5.69420071217237,-1.55874743711612,6.83952887642723));
#965=CARTESIAN_POINT('Ctrl Pts',(-5.69051638288822,-1.57286198985746,6.80078421789192));
#966=CARTESIAN_POINT('Ctrl Pts',(-5.68714548449661,-1.58552916650188,6.76152053934505));
#967=CARTESIAN_POINT('Ctrl Pts',(-5.68377698062365,-1.59818734501375,6.72228475176349));
#968=CARTESIAN_POINT('Ctrl Pts',(-5.68072146250995,-1.60940000118622,6.68253122690337));
#969=CARTESIAN_POINT('Ctrl Pts',(-5.6780168220823,-1.61910160303008,6.64251241899517));
#970=CARTESIAN_POINT('Ctrl Pts',(-5.67530307254278,-1.62883587944895,6.6023588294744));
#971=CARTESIAN_POINT('Ctrl Pts',(-5.67294256815109,-1.63704879992935,6.56193874380115));
#972=CARTESIAN_POINT('Ctrl Pts',(-5.67097358498002,-1.64372591036083,6.52151635606069));
#973=CARTESIAN_POINT('Ctrl Pts',(-5.66899744177955,-1.65042730150107,6.48094697595959));
#974=CARTESIAN_POINT('Ctrl Pts',(-5.66741567244006,-1.65558172232349,6.44037586399348));
#975=CARTESIAN_POINT('Ctrl Pts',(-5.66626697211706,-1.65922717987579,6.40007053528733));
#976=CARTESIAN_POINT('Ctrl Pts',(-5.66510797266846,-1.66290532221493,6.35940383326711));
#977=CARTESIAN_POINT('Ctrl Pts',(-5.66438984275156,-1.66504744899672,6.31900827848694));
#978=CARTESIAN_POINT('Ctrl Pts',(-5.66415232769158,-1.66574495755652,6.27915023799278));
#979=CARTESIAN_POINT('Ctrl Pts',(-5.66409422658102,-1.66591558261898,6.26940013449444));
#980=CARTESIAN_POINT('Ctrl Pts',(-5.66406488513098,-1.666,6.25968213365287));
#981=CARTESIAN_POINT('Ctrl Pts',(-5.66406488513098,-1.666,6.25));
#982=CARTESIAN_POINT('Ctrl Pts',(-5.73555848143526,-1.76191333411999,6.25));
#983=CARTESIAN_POINT('Ctrl Pts',(-5.73555848143526,-1.76191333411999,5.99452950473843));
#984=CARTESIAN_POINT('Ctrl Pts',(-5.77724291759215,-1.6269866768972,5.43954559016365));
#985=CARTESIAN_POINT('Ctrl Pts',(-5.90200514126991,-1.15140947430605,4.82835345027665));
#986=CARTESIAN_POINT('Ctrl Pts',(-6.00411290276581,-0.396375351076514,4.46990628706928));
#987=CARTESIAN_POINT('Ctrl Pts',(-6.00526336593797,0.396285192501392,4.46558089038884));
#988=CARTESIAN_POINT('Ctrl Pts',(-5.91787788316192,1.02777034951032,4.77504464163319));
#989=CARTESIAN_POINT('Ctrl Pts',(-5.84021909942391,1.38176213487337,5.13236363923049));
#990=CARTESIAN_POINT('Ctrl Pts',(-5.76513126034102,1.67158461225698,5.59288037670291));
#991=CARTESIAN_POINT('Ctrl Pts',(-5.71538426148009,1.82377701945425,6.24668496395673));
#992=CARTESIAN_POINT('Ctrl Pts',(-5.77585893364075,1.63582095958138,7.0498398572192));
#993=CARTESIAN_POINT('Ctrl Pts',(-5.89116471126577,1.18446813205879,7.6199316903916));
#994=CARTESIAN_POINT('Ctrl Pts',(-5.9613542514003,0.717291298970026,7.88010094754614));
#995=CARTESIAN_POINT('Ctrl Pts',(-6.00414455952349,0.197034919442768,8.02991273367689));
#996=CARTESIAN_POINT('Ctrl Pts',(-6.00456345551715,-0.39477055748716,8.03346420406537));
#997=CARTESIAN_POINT('Ctrl Pts',(-5.90193362732751,-1.14842829606843,7.67092741275419));
#998=CARTESIAN_POINT('Ctrl Pts',(-5.77684126043274,-1.62798717839288,7.05940606970002));
#999=CARTESIAN_POINT('Ctrl Pts',(-5.73555848143526,-1.76191333411999,6.50547049526157));
#1000=CARTESIAN_POINT('Ctrl Pts',(-5.73555848143526,-1.76191333411999,6.25));
#1001=CARTESIAN_POINT('Ctrl Pts',(-5.71160740487457,-1.72978139884956,6.25));
#1002=CARTESIAN_POINT('Ctrl Pts',(-5.71160740487457,-1.72978139884956,5.998167741055));
#1003=CARTESIAN_POINT('Ctrl Pts',(-5.75199509405867,-1.59573919185381,5.45119726813088));
#1004=CARTESIAN_POINT('Ctrl Pts',(-5.87248101322762,-1.1256186550876,4.852172715933));
#1005=CARTESIAN_POINT('Ctrl Pts',(-5.97042359676556,-0.386288708273588,
4.50382109029963));
#1006=CARTESIAN_POINT('Ctrl Pts',(-5.97154012751698,0.386131375582837,4.4995775850352));
#1007=CARTESIAN_POINT('Ctrl Pts',(-5.8876877895488,1.00457627937441,4.80044235981337));
#1008=CARTESIAN_POINT('Ctrl Pts',(-5.81280391420037,1.35339840307263,5.15014897771249));
#1009=CARTESIAN_POINT('Ctrl Pts',(-5.74026391812419,1.63992006650582,5.60226197140279));
#1010=CARTESIAN_POINT('Ctrl Pts',(-5.6920555508847,1.79131358151299,6.24674072904156));
#1011=CARTESIAN_POINT('Ctrl Pts',(-5.7506571481429,1.60441937379467,7.03838234332517));
#1012=CARTESIAN_POINT('Ctrl Pts',(-5.86198999820551,1.15840499191549,7.5971027675832));
#1013=CARTESIAN_POINT('Ctrl Pts',(-5.92941277423744,0.700478219616619,7.85041469996309));
#1014=CARTESIAN_POINT('Ctrl Pts',(-5.97044488897049,0.192058481179823,7.99598185715455));
#1015=CARTESIAN_POINT('Ctrl Pts',(-5.97087433423607,-0.384711672302625,
7.99951957294749));
#1016=CARTESIAN_POINT('Ctrl Pts',(-5.87240201536917,-1.12265756093246,7.64710372492421));
#1017=CARTESIAN_POINT('Ctrl Pts',(-5.75160811407116,-1.59674323291801,7.04777802034286));
#1018=CARTESIAN_POINT('Ctrl Pts',(-5.71160740487457,-1.72978139884956,6.501832258945));
#1019=CARTESIAN_POINT('Ctrl Pts',(-5.71160740487457,-1.72978139884956,6.25));
#1020=CARTESIAN_POINT('Ctrl Pts',(-5.68765632831388,-1.69764946357914,6.25));
#1021=CARTESIAN_POINT('Ctrl Pts',(-5.68765632831388,-1.69764946357914,6.00180597737158));
#1022=CARTESIAN_POINT('Ctrl Pts',(-5.72674727052519,-1.56449170681043,5.46284894609809));
#1023=CARTESIAN_POINT('Ctrl Pts',(-5.84295688518533,-1.09982783586914,4.87599198158934));
#1024=CARTESIAN_POINT('Ctrl Pts',(-5.9367342907653,-0.376202065470663,4.53773589352999));
#1025=CARTESIAN_POINT('Ctrl Pts',(-5.937816889096,0.375977558664282,4.53357427968154));
#1026=CARTESIAN_POINT('Ctrl Pts',(-5.85749769593568,0.981382209238499,4.82584007799354));
#1027=CARTESIAN_POINT('Ctrl Pts',(-5.78538872897683,1.32503467127188,5.16793431619448));
#1028=CARTESIAN_POINT('Ctrl Pts',(-5.71539657590735,1.60825552075466,5.61164356610266));
#1029=CARTESIAN_POINT('Ctrl Pts',(-5.66872684028931,1.75885014357175,6.24679649412639));
#1030=CARTESIAN_POINT('Ctrl Pts',(-5.72545536264505,1.57301778800795,7.02692482943114));
#1031=CARTESIAN_POINT('Ctrl Pts',(-5.83281528514524,1.1323418517722,7.57427384477482));
#1032=CARTESIAN_POINT('Ctrl Pts',(-5.89747129707457,0.683665140263211,7.82072845238005));
#1033=CARTESIAN_POINT('Ctrl Pts',(-5.93674521841748,0.18708204291688,7.96205098063222));
#1034=CARTESIAN_POINT('Ctrl Pts',(-5.93718521295499,-0.374652787118088,
7.96557494182961));
#1035=CARTESIAN_POINT('Ctrl Pts',(-5.84287040341083,-1.0968868257965,7.62328003709425));
#1036=CARTESIAN_POINT('Ctrl Pts',(-5.72637496770959,-1.56549928744314,7.0361499709857));
#1037=CARTESIAN_POINT('Ctrl Pts',(-5.68765632831388,-1.69764946357914,6.49819402262843));
#1038=CARTESIAN_POINT('Ctrl Pts',(-5.68765632831388,-1.69764946357914,6.25));
#1039=CARTESIAN_POINT('Ctrl Pts',(-5.66370525175319,-1.66551752830871,6.25));
#1040=CARTESIAN_POINT('Ctrl Pts',(-5.66370525175319,-1.66551752830871,6.00544421368815));
#1041=CARTESIAN_POINT('Ctrl Pts',(-5.70149944699172,-1.53324422176705,5.4745006240653));
#1042=CARTESIAN_POINT('Ctrl Pts',(-5.81343275714305,-1.07403701665068,4.89981124724569));
#1043=CARTESIAN_POINT('Ctrl Pts',(-5.90304498476504,-0.366115422667738,
4.57165069676034));
#1044=CARTESIAN_POINT('Ctrl Pts',(-5.90409365067501,0.365823741745727,4.56757097432788));
#1045=CARTESIAN_POINT('Ctrl Pts',(-5.82730760232256,0.958188139102588,4.85123779617372));
#1046=CARTESIAN_POINT('Ctrl Pts',(-5.75797354375329,1.29667093947114,5.18571965467646));
#1047=CARTESIAN_POINT('Ctrl Pts',(-5.69052923369051,1.57659097500349,5.62102516080254));
#1048=CARTESIAN_POINT('Ctrl Pts',(-5.64539812969393,1.72638670563051,6.24685225921121));
#1049=CARTESIAN_POINT('Ctrl Pts',(-5.7002535771472,1.54161620222124,7.01546731553711));
#1050=CARTESIAN_POINT('Ctrl Pts',(-5.80364057208497,1.1062787116289,7.55144492196643));
#1051=CARTESIAN_POINT('Ctrl Pts',(-5.86552981991171,0.666852060909804,7.791042204797));
#1052=CARTESIAN_POINT('Ctrl Pts',(-5.90304554786447,0.182105604653936,7.92812010410987));
#1053=CARTESIAN_POINT('Ctrl Pts',(-5.90349609167391,-0.364593901933553,
7.93163031071174));
#1054=CARTESIAN_POINT('Ctrl Pts',(-5.8133387914525,-1.07111609066053,7.59945634926427));
#1055=CARTESIAN_POINT('Ctrl Pts',(-5.70114182134802,-1.53425534196827,7.02452192162855));
#1056=CARTESIAN_POINT('Ctrl Pts',(-5.66370525175319,-1.66551752830871,6.49455578631185));
#1057=CARTESIAN_POINT('Ctrl Pts',(-5.66370525175319,-1.66551752830871,6.25));
#1058=CARTESIAN_POINT('Ctrl Pts',(-5.73549861803404,-1.76183302345302,6.25));
#1059=CARTESIAN_POINT('Ctrl Pts',(-5.71168737373302,-1.72988868230201,6.25));
#1060=CARTESIAN_POINT('Ctrl Pts',(-5.687876129432,-1.69794434115101,6.25));
#1061=CARTESIAN_POINT('Ctrl Pts',(-5.66406488513098,-1.666,6.25));
#1062=CARTESIAN_POINT('Origin',(0.,0.,0.05));
#1063=CARTESIAN_POINT('',(-5.9,-7.22541611496939E-16,0.));
#1064=CARTESIAN_POINT('',(-5.95,-7.28664845492675E-16,0.05));
#1065=CARTESIAN_POINT('Origin',(0.,0.,0.));
#1066=CARTESIAN_POINT('Origin',(0.,0.,0.));
#1067=CARTESIAN_POINT('Origin',(0.,0.,12.45));
#1068=CARTESIAN_POINT('',(-5.9,7.22541611496939E-16,12.5));
#1069=CARTESIAN_POINT('',(-5.95,7.28664845492675E-16,12.45));
#1070=CARTESIAN_POINT('Origin',(0.,0.,12.5));
#1071=CARTESIAN_POINT('Origin',(0.,0.,12.5));
#1072=UNCERTAINTY_MEASURE_WITH_UNIT(LENGTH_MEASURE(0.01),#1076,
'DISTANCE_ACCURACY_VALUE',
'Maximum model space distance between geometric entities at asserted c
onnectivities');
#1073=UNCERTAINTY_MEASURE_WITH_UNIT(LENGTH_MEASURE(0.01),#1076,
'DISTANCE_ACCURACY_VALUE',
'Maximum model space distance between geometric entities at asserted c
onnectivities');
#1074=(
GEOMETRIC_REPRESENTATION_CONTEXT(3)
GLOBAL_UNCERTAINTY_ASSIGNED_CONTEXT((#1072))
GLOBAL_UNIT_ASSIGNED_CONTEXT((#1076,#1078,#1079))
REPRESENTATION_CONTEXT('','3D')
);
#1075=(
GEOMETRIC_REPRESENTATION_CONTEXT(3)
GLOBAL_UNCERTAINTY_ASSIGNED_CONTEXT((#1073))
GLOBAL_UNIT_ASSIGNED_CONTEXT((#1076,#1078,#1079))
REPRESENTATION_CONTEXT('','3D')
);
#1076=(
LENGTH_UNIT()
NAMED_UNIT(*)
SI_UNIT(.MILLI.,.METRE.)
);
#1077=(
LENGTH_UNIT()
NAMED_UNIT(*)
SI_UNIT($,.METRE.)
);
#1078=(
NAMED_UNIT(*)
PLANE_ANGLE_UNIT()
SI_UNIT($,.RADIAN.)
);
#1079=(
NAMED_UNIT(*)
SI_UNIT($,.STERADIAN.)
SOLID_ANGLE_UNIT()
);
#1080=SHAPE_DEFINITION_REPRESENTATION(#1081,#1082);
#1081=PRODUCT_DEFINITION_SHAPE('',$,#1084);
#1082=SHAPE_REPRESENTATION('',(#150),#1074);
#1083=PRODUCT_DEFINITION_CONTEXT('part definition',#1088,'design');
#1084=PRODUCT_DEFINITION('2026-03-28-18-44-25-090','centerpiece-lever',
#1085,#1083);
#1085=PRODUCT_DEFINITION_FORMATION('',$,#1090);
#1086=PRODUCT_RELATED_PRODUCT_CATEGORY('centerpiece-lever',
'centerpiece-lever',(#1090));
#1087=APPLICATION_PROTOCOL_DEFINITION('international standard',
'automotive_design',2009,#1088);
#1088=APPLICATION_CONTEXT(
'Core Data for Automotive Mechanical Design Process');
#1089=PRODUCT_CONTEXT('part definition',#1088,'mechanical');
#1090=PRODUCT('2026-03-28-18-44-25-090','centerpiece-lever',$,(#1089));
#1091=PRESENTATION_STYLE_ASSIGNMENT((#1093));
#1092=PRESENTATION_STYLE_ASSIGNMENT((#1094));
#1093=SURFACE_STYLE_USAGE(.BOTH.,#1095);
#1094=SURFACE_STYLE_USAGE(.BOTH.,#1096);
#1095=SURFACE_SIDE_STYLE('',(#1097));
#1096=SURFACE_SIDE_STYLE('',(#1098));
#1097=SURFACE_STYLE_FILL_AREA(#1099);
#1098=SURFACE_STYLE_FILL_AREA(#1100);
#1099=FILL_AREA_STYLE('Stahl - satiniert',(#1101));
#1100=FILL_AREA_STYLE('Opaque(243,203,124)',(#1102));
#1101=FILL_AREA_STYLE_COLOUR('Stahl - satiniert',#1103);
#1102=FILL_AREA_STYLE_COLOUR('Opaque(243,203,124)',#1104);
#1103=COLOUR_RGB('Stahl - satiniert',0.627450980392157,0.627450980392157,
0.627450980392157);
#1104=COLOUR_RGB('Opaque(243,203,124)',0.952941176470588,0.796078431372549,
0.486274509803922);
ENDSEC;
END-ISO-10303-21;
