ISO-10303-21;
HEADER;
/* Generated by software containing ST-Developer
 * from STEP Tools, Inc. (www.steptools.com) 
 */

FILE_DESCRIPTION(
/* description */ (''),
/* implementation_level */ '2;1');

FILE_NAME(
/* name */ 'jaw.step',
/* time_stamp */ '2026-03-30T11:10:22+02:00',
/* author */ (''),
/* organization */ (''),
/* preprocessor_version */ 'ST-DEVELOPER v20.1',
/* originating_system */ 'Autodesk Translation Framework v14.24.0.0',
/* authorisation */ '');

FILE_SCHEMA (('AUTOMOTIVE_DESIGN { 1 0 10303 214 3 1 1 }'));
ENDSEC;

DATA;
#10=MECHANICAL_DESIGN_GEOMETRIC_PRESENTATION_REPRESENTATION('',(#17),#1625);
#11=ITEM_DEFINED_TRANSFORMATION($,$,#1009,#1080);
#12=(
REPRESENTATION_RELATIONSHIP($,$,#1636,#1635)
REPRESENTATION_RELATIONSHIP_WITH_TRANSFORMATION(#11)
SHAPE_REPRESENTATION_RELATIONSHIP()
);
#13=CONTEXT_DEPENDENT_SHAPE_REPRESENTATION(#12,#1634);
#14=NEXT_ASSEMBLY_USAGE_OCCURRENCE('Konfiguration 1 v3:1',
'Konfiguration 1 v3:1','Konfiguration 1 v3:1',#1638,#1639,
'Konfiguration 1 v3:1');
#15=SHAPE_REPRESENTATION_RELATIONSHIP('SRR','None',#1636,#16);
#16=ADVANCED_BREP_SHAPE_REPRESENTATION('',(#18),#1624);
#17=STYLED_ITEM('',(#1650),#18);
#18=MANIFOLD_SOLID_BREP('K\X\F6rper1',#995);
#19=CYLINDRICAL_SURFACE('',#1041,2.1);
#20=CONICAL_SURFACE('',#1038,2.25,0.785398163397456);
#21=CONICAL_SURFACE('',#1045,2.25,0.785398163397444);
#22=CONICAL_SURFACE('',#1073,2.,0.0872664625997165);
#23=CONICAL_SURFACE('',#1076,2.,0.0872664625997165);
#24=FACE_BOUND('',#111,.T.);
#25=FACE_BOUND('',#113,.T.);
#26=CIRCLE('',#1025,2.4);
#27=CIRCLE('',#1027,2.4);
#28=CIRCLE('',#1032,2.);
#29=CIRCLE('',#1033,2.);
#30=CIRCLE('',#1039,2.1);
#31=CIRCLE('',#1042,2.1);
#32=CIRCLE('',#1074,2.30621032234073);
#33=CIRCLE('',#1077,2.30621032234073);
#34=FACE_OUTER_BOUND('',#96,.T.);
#35=FACE_OUTER_BOUND('',#97,.T.);
#36=FACE_OUTER_BOUND('',#98,.T.);
#37=FACE_OUTER_BOUND('',#99,.T.);
#38=FACE_OUTER_BOUND('',#100,.T.);
#39=FACE_OUTER_BOUND('',#101,.T.);
#40=FACE_OUTER_BOUND('',#102,.T.);
#41=FACE_OUTER_BOUND('',#103,.T.);
#42=FACE_OUTER_BOUND('',#104,.T.);
#43=FACE_OUTER_BOUND('',#105,.T.);
#44=FACE_OUTER_BOUND('',#106,.T.);
#45=FACE_OUTER_BOUND('',#107,.T.);
#46=FACE_OUTER_BOUND('',#108,.T.);
#47=FACE_OUTER_BOUND('',#109,.T.);
#48=FACE_OUTER_BOUND('',#110,.T.);
#49=FACE_OUTER_BOUND('',#112,.T.);
#50=FACE_OUTER_BOUND('',#114,.T.);
#51=FACE_OUTER_BOUND('',#115,.T.);
#52=FACE_OUTER_BOUND('',#116,.T.);
#53=FACE_OUTER_BOUND('',#117,.T.);
#54=FACE_OUTER_BOUND('',#118,.T.);
#55=FACE_OUTER_BOUND('',#119,.T.);
#56=FACE_OUTER_BOUND('',#120,.T.);
#57=FACE_OUTER_BOUND('',#121,.T.);
#58=FACE_OUTER_BOUND('',#122,.T.);
#59=FACE_OUTER_BOUND('',#123,.T.);
#60=FACE_OUTER_BOUND('',#124,.T.);
#61=FACE_OUTER_BOUND('',#125,.T.);
#62=FACE_OUTER_BOUND('',#126,.T.);
#63=FACE_OUTER_BOUND('',#127,.T.);
#64=FACE_OUTER_BOUND('',#128,.T.);
#65=FACE_OUTER_BOUND('',#129,.T.);
#66=FACE_OUTER_BOUND('',#130,.T.);
#67=FACE_OUTER_BOUND('',#131,.T.);
#68=FACE_OUTER_BOUND('',#132,.T.);
#69=FACE_OUTER_BOUND('',#133,.T.);
#70=FACE_OUTER_BOUND('',#134,.T.);
#71=FACE_OUTER_BOUND('',#135,.T.);
#72=FACE_OUTER_BOUND('',#136,.T.);
#73=FACE_OUTER_BOUND('',#137,.T.);
#74=FACE_OUTER_BOUND('',#138,.T.);
#75=FACE_OUTER_BOUND('',#139,.T.);
#76=FACE_OUTER_BOUND('',#140,.T.);
#77=FACE_OUTER_BOUND('',#141,.T.);
#78=FACE_OUTER_BOUND('',#142,.T.);
#79=FACE_OUTER_BOUND('',#143,.T.);
#80=FACE_OUTER_BOUND('',#144,.T.);
#81=FACE_OUTER_BOUND('',#145,.T.);
#82=FACE_OUTER_BOUND('',#146,.T.);
#83=FACE_OUTER_BOUND('',#147,.T.);
#84=FACE_OUTER_BOUND('',#148,.T.);
#85=FACE_OUTER_BOUND('',#149,.T.);
#86=FACE_OUTER_BOUND('',#150,.T.);
#87=FACE_OUTER_BOUND('',#151,.T.);
#88=FACE_OUTER_BOUND('',#152,.T.);
#89=FACE_OUTER_BOUND('',#153,.T.);
#90=FACE_OUTER_BOUND('',#154,.T.);
#91=FACE_OUTER_BOUND('',#155,.T.);
#92=FACE_OUTER_BOUND('',#156,.T.);
#93=FACE_OUTER_BOUND('',#157,.T.);
#94=FACE_OUTER_BOUND('',#158,.T.);
#95=FACE_OUTER_BOUND('',#159,.T.);
#96=EDGE_LOOP('',(#612,#613,#614));
#97=EDGE_LOOP('',(#615,#616,#617,#618));
#98=EDGE_LOOP('',(#619,#620,#621,#622));
#99=EDGE_LOOP('',(#623,#624,#625));
#100=EDGE_LOOP('',(#626,#627,#628));
#101=EDGE_LOOP('',(#629,#630,#631));
#102=EDGE_LOOP('',(#632,#633,#634,#635));
#103=EDGE_LOOP('',(#636,#637,#638,#639));
#104=EDGE_LOOP('',(#640,#641,#642,#643));
#105=EDGE_LOOP('',(#644,#645,#646,#647));
#106=EDGE_LOOP('',(#648,#649,#650,#651));
#107=EDGE_LOOP('',(#652,#653,#654,#655));
#108=EDGE_LOOP('',(#656,#657,#658,#659));
#109=EDGE_LOOP('',(#660,#661,#662,#663));
#110=EDGE_LOOP('',(#664,#665,#666,#667,#668,#669,#670,#671,#672,#673,#674,
#675));
#111=EDGE_LOOP('',(#676,#677,#678));
#112=EDGE_LOOP('',(#679,#680,#681,#682,#683,#684,#685,#686));
#113=EDGE_LOOP('',(#687,#688,#689));
#114=EDGE_LOOP('',(#690,#691,#692,#693));
#115=EDGE_LOOP('',(#694,#695,#696,#697));
#116=EDGE_LOOP('',(#698,#699,#700,#701));
#117=EDGE_LOOP('',(#702,#703,#704,#705,#706,#707,#708,#709,#710,#711));
#118=EDGE_LOOP('',(#712,#713,#714,#715));
#119=EDGE_LOOP('',(#716,#717,#718,#719));
#120=EDGE_LOOP('',(#720,#721,#722,#723));
#121=EDGE_LOOP('',(#724,#725,#726,#727));
#122=EDGE_LOOP('',(#728,#729,#730,#731));
#123=EDGE_LOOP('',(#732,#733,#734,#735));
#124=EDGE_LOOP('',(#736,#737,#738,#739));
#125=EDGE_LOOP('',(#740,#741,#742,#743));
#126=EDGE_LOOP('',(#744,#745,#746,#747));
#127=EDGE_LOOP('',(#748,#749,#750,#751));
#128=EDGE_LOOP('',(#752,#753,#754,#755));
#129=EDGE_LOOP('',(#756,#757,#758,#759));
#130=EDGE_LOOP('',(#760,#761,#762));
#131=EDGE_LOOP('',(#763,#764,#765));
#132=EDGE_LOOP('',(#766,#767,#768));
#133=EDGE_LOOP('',(#769,#770,#771));
#134=EDGE_LOOP('',(#772,#773,#774,#775));
#135=EDGE_LOOP('',(#776,#777,#778));
#136=EDGE_LOOP('',(#779,#780,#781,#782));
#137=EDGE_LOOP('',(#783,#784,#785,#786));
#138=EDGE_LOOP('',(#787,#788,#789));
#139=EDGE_LOOP('',(#790,#791,#792));
#140=EDGE_LOOP('',(#793,#794,#795));
#141=EDGE_LOOP('',(#796,#797,#798,#799));
#142=EDGE_LOOP('',(#800,#801,#802,#803));
#143=EDGE_LOOP('',(#804,#805,#806,#807));
#144=EDGE_LOOP('',(#808,#809,#810,#811));
#145=EDGE_LOOP('',(#812,#813,#814,#815));
#146=EDGE_LOOP('',(#816,#817,#818,#819));
#147=EDGE_LOOP('',(#820,#821,#822,#823));
#148=EDGE_LOOP('',(#824,#825,#826,#827));
#149=EDGE_LOOP('',(#828,#829,#830,#831));
#150=EDGE_LOOP('',(#832,#833,#834,#835));
#151=EDGE_LOOP('',(#836,#837,#838,#839));
#152=EDGE_LOOP('',(#840,#841,#842,#843));
#153=EDGE_LOOP('',(#844,#845,#846,#847));
#154=EDGE_LOOP('',(#848,#849,#850,#851));
#155=EDGE_LOOP('',(#852,#853,#854,#855));
#156=EDGE_LOOP('',(#856,#857,#858,#859));
#157=EDGE_LOOP('',(#860,#861,#862,#863));
#158=EDGE_LOOP('',(#864,#865,#866,#867));
#159=EDGE_LOOP('',(#868,#869,#870,#871,#872,#873,#874,#875));
#160=LINE('',#1356,#284);
#161=LINE('',#1358,#285);
#162=LINE('',#1359,#286);
#163=LINE('',#1363,#287);
#164=LINE('',#1364,#288);
#165=LINE('',#1365,#289);
#166=LINE('',#1369,#290);
#167=LINE('',#1370,#291);
#168=LINE('',#1371,#292);
#169=LINE('',#1375,#293);
#170=LINE('',#1377,#294);
#171=LINE('',#1378,#295);
#172=LINE('',#1382,#296);
#173=LINE('',#1384,#297);
#174=LINE('',#1385,#298);
#175=LINE('',#1389,#299);
#176=LINE('',#1391,#300);
#177=LINE('',#1392,#301);
#178=LINE('',#1394,#302);
#179=LINE('',#1395,#303);
#180=LINE('',#1399,#304);
#181=LINE('',#1400,#305);
#182=LINE('',#1401,#306);
#183=LINE('',#1405,#307);
#184=LINE('',#1406,#308);
#185=LINE('',#1407,#309);
#186=LINE('',#1409,#310);
#187=LINE('',#1410,#311);
#188=LINE('',#1414,#312);
#189=LINE('',#1415,#313);
#190=LINE('',#1416,#314);
#191=LINE('',#1418,#315);
#192=LINE('',#1419,#316);
#193=LINE('',#1423,#317);
#194=LINE('',#1424,#318);
#195=LINE('',#1425,#319);
#196=LINE('',#1427,#320);
#197=LINE('',#1430,#321);
#198=LINE('',#1432,#322);
#199=LINE('',#1434,#323);
#200=LINE('',#1436,#324);
#201=LINE('',#1437,#325);
#202=LINE('',#1439,#326);
#203=LINE('',#1441,#327);
#204=LINE('',#1442,#328);
#205=LINE('',#1445,#329);
#206=LINE('',#1448,#330);
#207=LINE('',#1451,#331);
#208=LINE('',#1453,#332);
#209=LINE('',#1455,#333);
#210=LINE('',#1457,#334);
#211=LINE('',#1458,#335);
#212=LINE('',#1461,#336);
#213=LINE('',#1464,#337);
#214=LINE('',#1466,#338);
#215=LINE('',#1469,#339);
#216=LINE('',#1470,#340);
#217=LINE('',#1473,#341);
#218=LINE('',#1474,#342);
#219=LINE('',#1477,#343);
#220=LINE('',#1481,#344);
#221=LINE('',#1484,#345);
#222=LINE('',#1487,#346);
#223=LINE('',#1488,#347);
#224=LINE('',#1491,#348);
#225=LINE('',#1492,#349);
#226=LINE('',#1495,#350);
#227=LINE('',#1496,#351);
#228=LINE('',#1500,#352);
#229=LINE('',#1501,#353);
#230=LINE('',#1502,#354);
#231=LINE('',#1505,#355);
#232=LINE('',#1508,#356);
#233=LINE('',#1511,#357);
#234=LINE('',#1514,#358);
#235=LINE('',#1517,#359);
#236=LINE('',#1518,#360);
#237=LINE('',#1520,#361);
#238=LINE('',#1521,#362);
#239=LINE('',#1522,#363);
#240=LINE('',#1524,#364);
#241=LINE('',#1529,#365);
#242=LINE('',#1531,#366);
#243=LINE('',#1532,#367);
#244=LINE('',#1535,#368);
#245=LINE('',#1537,#369);
#246=LINE('',#1538,#370);
#247=LINE('',#1542,#371);
#248=LINE('',#1543,#372);
#249=LINE('',#1544,#373);
#250=LINE('',#1548,#374);
#251=LINE('',#1549,#375);
#252=LINE('',#1550,#376);
#253=LINE('',#1552,#377);
#254=LINE('',#1555,#378);
#255=LINE('',#1557,#379);
#256=LINE('',#1558,#380);
#257=LINE('',#1560,#381);
#258=LINE('',#1562,#382);
#259=LINE('',#1563,#383);
#260=LINE('',#1566,#384);
#261=LINE('',#1567,#385);
#262=LINE('',#1570,#386);
#263=LINE('',#1571,#387);
#264=LINE('',#1574,#388);
#265=LINE('',#1575,#389);
#266=LINE('',#1577,#390);
#267=LINE('',#1579,#391);
#268=LINE('',#1580,#392);
#269=LINE('',#1582,#393);
#270=LINE('',#1584,#394);
#271=LINE('',#1586,#395);
#272=LINE('',#1587,#396);
#273=LINE('',#1589,#397);
#274=LINE('',#1591,#398);
#275=LINE('',#1593,#399);
#276=LINE('',#1594,#400);
#277=LINE('',#1597,#401);
#278=LINE('',#1598,#402);
#279=LINE('',#1607,#403);
#280=LINE('',#1610,#404);
#281=LINE('',#1611,#405);
#282=LINE('',#1615,#406);
#283=LINE('',#1617,#407);
#284=VECTOR('',#1087,10.);
#285=VECTOR('',#1088,10.);
#286=VECTOR('',#1089,10.);
#287=VECTOR('',#1092,10.);
#288=VECTOR('',#1093,10.);
#289=VECTOR('',#1094,10.);
#290=VECTOR('',#1097,10.);
#291=VECTOR('',#1098,10.);
#292=VECTOR('',#1099,10.);
#293=VECTOR('',#1102,10.);
#294=VECTOR('',#1103,10.);
#295=VECTOR('',#1104,10.);
#296=VECTOR('',#1107,9.99999999999999);
#297=VECTOR('',#1108,10.);
#298=VECTOR('',#1109,10.);
#299=VECTOR('',#1112,10.);
#300=VECTOR('',#1113,10.);
#301=VECTOR('',#1114,10.);
#302=VECTOR('',#1117,10.);
#303=VECTOR('',#1118,10.);
#304=VECTOR('',#1121,10.);
#305=VECTOR('',#1122,10.);
#306=VECTOR('',#1123,10.);
#307=VECTOR('',#1126,10.);
#308=VECTOR('',#1127,10.);
#309=VECTOR('',#1128,10.);
#310=VECTOR('',#1131,10.);
#311=VECTOR('',#1132,10.);
#312=VECTOR('',#1135,10.);
#313=VECTOR('',#1136,10.);
#314=VECTOR('',#1137,10.);
#315=VECTOR('',#1140,10.);
#316=VECTOR('',#1141,10.);
#317=VECTOR('',#1144,10.);
#318=VECTOR('',#1145,10.);
#319=VECTOR('',#1146,10.);
#320=VECTOR('',#1149,10.);
#321=VECTOR('',#1152,10.);
#322=VECTOR('',#1153,10.);
#323=VECTOR('',#1154,10.);
#324=VECTOR('',#1155,10.);
#325=VECTOR('',#1156,10.);
#326=VECTOR('',#1157,10.);
#327=VECTOR('',#1158,10.);
#328=VECTOR('',#1159,10.);
#329=VECTOR('',#1160,10.);
#330=VECTOR('',#1163,9.99999999999999);
#331=VECTOR('',#1166,10.);
#332=VECTOR('',#1167,10.);
#333=VECTOR('',#1168,10.);
#334=VECTOR('',#1169,10.);
#335=VECTOR('',#1170,10.);
#336=VECTOR('',#1171,9.99999999999999);
#337=VECTOR('',#1174,10.);
#338=VECTOR('',#1177,10.);
#339=VECTOR('',#1180,10.);
#340=VECTOR('',#1181,10.);
#341=VECTOR('',#1184,10.);
#342=VECTOR('',#1185,10.);
#343=VECTOR('',#1188,10.);
#344=VECTOR('',#1191,10.);
#345=VECTOR('',#1194,10.);
#346=VECTOR('',#1197,10.);
#347=VECTOR('',#1198,10.);
#348=VECTOR('',#1201,10.);
#349=VECTOR('',#1202,10.);
#350=VECTOR('',#1205,10.);
#351=VECTOR('',#1206,9.99999999999999);
#352=VECTOR('',#1209,10.);
#353=VECTOR('',#1210,10.);
#354=VECTOR('',#1211,10.);
#355=VECTOR('',#1214,10.);
#356=VECTOR('',#1219,9.99999999999999);
#357=VECTOR('',#1222,10.);
#358=VECTOR('',#1225,10.);
#359=VECTOR('',#1228,10.);
#360=VECTOR('',#1229,10.);
#361=VECTOR('',#1232,9.99999999999999);
#362=VECTOR('',#1233,10.);
#363=VECTOR('',#1234,10.);
#364=VECTOR('',#1237,10.);
#365=VECTOR('',#1244,10.);
#366=VECTOR('',#1245,10.);
#367=VECTOR('',#1246,10.);
#368=VECTOR('',#1249,10.);
#369=VECTOR('',#1250,10.);
#370=VECTOR('',#1251,10.);
#371=VECTOR('',#1254,10.);
#372=VECTOR('',#1255,10.);
#373=VECTOR('',#1256,10.);
#374=VECTOR('',#1259,10.);
#375=VECTOR('',#1260,10.);
#376=VECTOR('',#1261,10.);
#377=VECTOR('',#1264,10.);
#378=VECTOR('',#1267,10.);
#379=VECTOR('',#1268,10.);
#380=VECTOR('',#1269,10.);
#381=VECTOR('',#1272,10.);
#382=VECTOR('',#1275,10.);
#383=VECTOR('',#1276,10.);
#384=VECTOR('',#1279,10.);
#385=VECTOR('',#1280,10.);
#386=VECTOR('',#1283,10.);
#387=VECTOR('',#1284,10.);
#388=VECTOR('',#1287,10.);
#389=VECTOR('',#1288,10.);
#390=VECTOR('',#1291,10.);
#391=VECTOR('',#1294,10.);
#392=VECTOR('',#1295,10.);
#393=VECTOR('',#1298,10.);
#394=VECTOR('',#1301,10.);
#395=VECTOR('',#1304,10.);
#396=VECTOR('',#1305,10.);
#397=VECTOR('',#1308,10.);
#398=VECTOR('',#1311,10.);
#399=VECTOR('',#1314,10.);
#400=VECTOR('',#1315,10.);
#401=VECTOR('',#1318,10.);
#402=VECTOR('',#1319,10.);
#403=VECTOR('',#1334,10.);
#404=VECTOR('',#1337,10.);
#405=VECTOR('',#1338,10.);
#406=VECTOR('',#1343,10.);
#407=VECTOR('',#1346,10.);
#408=VERTEX_POINT('',#1354);
#409=VERTEX_POINT('',#1355);
#410=VERTEX_POINT('',#1357);
#411=VERTEX_POINT('',#1361);
#412=VERTEX_POINT('',#1362);
#413=VERTEX_POINT('',#1367);
#414=VERTEX_POINT('',#1368);
#415=VERTEX_POINT('',#1373);
#416=VERTEX_POINT('',#1374);
#417=VERTEX_POINT('',#1376);
#418=VERTEX_POINT('',#1380);
#419=VERTEX_POINT('',#1381);
#420=VERTEX_POINT('',#1383);
#421=VERTEX_POINT('',#1387);
#422=VERTEX_POINT('',#1388);
#423=VERTEX_POINT('',#1390);
#424=VERTEX_POINT('',#1397);
#425=VERTEX_POINT('',#1398);
#426=VERTEX_POINT('',#1403);
#427=VERTEX_POINT('',#1404);
#428=VERTEX_POINT('',#1412);
#429=VERTEX_POINT('',#1413);
#430=VERTEX_POINT('',#1421);
#431=VERTEX_POINT('',#1422);
#432=VERTEX_POINT('',#1429);
#433=VERTEX_POINT('',#1431);
#434=VERTEX_POINT('',#1433);
#435=VERTEX_POINT('',#1435);
#436=VERTEX_POINT('',#1438);
#437=VERTEX_POINT('',#1440);
#438=VERTEX_POINT('',#1443);
#439=VERTEX_POINT('',#1444);
#440=VERTEX_POINT('',#1446);
#441=VERTEX_POINT('',#1450);
#442=VERTEX_POINT('',#1452);
#443=VERTEX_POINT('',#1454);
#444=VERTEX_POINT('',#1456);
#445=VERTEX_POINT('',#1459);
#446=VERTEX_POINT('',#1460);
#447=VERTEX_POINT('',#1462);
#448=VERTEX_POINT('',#1468);
#449=VERTEX_POINT('',#1472);
#450=VERTEX_POINT('',#1476);
#451=VERTEX_POINT('',#1478);
#452=VERTEX_POINT('',#1480);
#453=VERTEX_POINT('',#1482);
#454=VERTEX_POINT('',#1486);
#455=VERTEX_POINT('',#1490);
#456=VERTEX_POINT('',#1494);
#457=VERTEX_POINT('',#1498);
#458=VERTEX_POINT('',#1499);
#459=VERTEX_POINT('',#1504);
#460=VERTEX_POINT('',#1510);
#461=VERTEX_POINT('',#1512);
#462=VERTEX_POINT('',#1516);
#463=VERTEX_POINT('',#1528);
#464=VERTEX_POINT('',#1530);
#465=VERTEX_POINT('',#1534);
#466=VERTEX_POINT('',#1536);
#467=VERTEX_POINT('',#1540);
#468=VERTEX_POINT('',#1541);
#469=VERTEX_POINT('',#1546);
#470=VERTEX_POINT('',#1547);
#471=VERTEX_POINT('',#1554);
#472=VERTEX_POINT('',#1556);
#473=VERTEX_POINT('',#1565);
#474=VERTEX_POINT('',#1569);
#475=VERTEX_POINT('',#1573);
#476=VERTEX_POINT('',#1596);
#477=VERTEX_POINT('',#1605);
#478=VERTEX_POINT('',#1609);
#479=VERTEX_POINT('',#1613);
#480=EDGE_CURVE('',#408,#409,#160,.T.);
#481=EDGE_CURVE('',#410,#408,#161,.T.);
#482=EDGE_CURVE('',#409,#410,#162,.T.);
#483=EDGE_CURVE('',#411,#412,#163,.T.);
#484=EDGE_CURVE('',#412,#410,#164,.T.);
#485=EDGE_CURVE('',#408,#411,#165,.T.);
#486=EDGE_CURVE('',#413,#414,#166,.F.);
#487=EDGE_CURVE('',#414,#409,#167,.T.);
#488=EDGE_CURVE('',#410,#413,#168,.T.);
#489=EDGE_CURVE('',#415,#416,#169,.T.);
#490=EDGE_CURVE('',#417,#415,#170,.T.);
#491=EDGE_CURVE('',#416,#417,#171,.T.);
#492=EDGE_CURVE('',#418,#419,#172,.T.);
#493=EDGE_CURVE('',#420,#418,#173,.T.);
#494=EDGE_CURVE('',#419,#420,#174,.T.);
#495=EDGE_CURVE('',#421,#422,#175,.T.);
#496=EDGE_CURVE('',#423,#421,#176,.T.);
#497=EDGE_CURVE('',#422,#423,#177,.T.);
#498=EDGE_CURVE('',#418,#423,#178,.T.);
#499=EDGE_CURVE('',#421,#420,#179,.T.);
#500=EDGE_CURVE('',#424,#425,#180,.F.);
#501=EDGE_CURVE('',#425,#422,#181,.T.);
#502=EDGE_CURVE('',#423,#424,#182,.T.);
#503=EDGE_CURVE('',#426,#427,#183,.T.);
#504=EDGE_CURVE('',#427,#421,#184,.T.);
#505=EDGE_CURVE('',#422,#426,#185,.T.);
#506=EDGE_CURVE('',#415,#419,#186,.T.);
#507=EDGE_CURVE('',#420,#417,#187,.T.);
#508=EDGE_CURVE('',#428,#429,#188,.F.);
#509=EDGE_CURVE('',#429,#418,#189,.T.);
#510=EDGE_CURVE('',#419,#428,#190,.T.);
#511=EDGE_CURVE('',#417,#408,#191,.T.);
#512=EDGE_CURVE('',#409,#416,#192,.T.);
#513=EDGE_CURVE('',#430,#431,#193,.F.);
#514=EDGE_CURVE('',#431,#415,#194,.T.);
#515=EDGE_CURVE('',#416,#430,#195,.T.);
#516=EDGE_CURVE('',#424,#429,#196,.T.);
#517=EDGE_CURVE('',#432,#425,#197,.T.);
#518=EDGE_CURVE('',#433,#432,#198,.T.);
#519=EDGE_CURVE('',#434,#433,#199,.T.);
#520=EDGE_CURVE('',#435,#434,#200,.T.);
#521=EDGE_CURVE('',#413,#435,#201,.T.);
#522=EDGE_CURVE('',#436,#412,#202,.T.);
#523=EDGE_CURVE('',#437,#436,#203,.T.);
#524=EDGE_CURVE('',#426,#437,#204,.T.);
#525=EDGE_CURVE('',#438,#439,#205,.T.);
#526=EDGE_CURVE('',#440,#438,#26,.T.);
#527=EDGE_CURVE('',#439,#440,#206,.T.);
#528=EDGE_CURVE('',#428,#441,#207,.T.);
#529=EDGE_CURVE('',#442,#431,#208,.T.);
#530=EDGE_CURVE('',#443,#442,#209,.T.);
#531=EDGE_CURVE('',#444,#443,#210,.T.);
#532=EDGE_CURVE('',#441,#444,#211,.T.);
#533=EDGE_CURVE('',#445,#446,#212,.T.);
#534=EDGE_CURVE('',#447,#445,#27,.T.);
#535=EDGE_CURVE('',#446,#447,#213,.T.);
#536=EDGE_CURVE('',#414,#430,#214,.F.);
#537=EDGE_CURVE('',#430,#448,#215,.T.);
#538=EDGE_CURVE('',#448,#442,#216,.T.);
#539=EDGE_CURVE('',#437,#449,#217,.F.);
#540=EDGE_CURVE('',#449,#427,#218,.T.);
#541=EDGE_CURVE('',#427,#450,#219,.T.);
#542=EDGE_CURVE('',#451,#450,#28,.T.);
#543=EDGE_CURVE('',#451,#452,#220,.T.);
#544=EDGE_CURVE('',#453,#452,#29,.T.);
#545=EDGE_CURVE('',#453,#411,#221,.T.);
#546=EDGE_CURVE('',#411,#454,#222,.T.);
#547=EDGE_CURVE('',#454,#436,#223,.F.);
#548=EDGE_CURVE('',#441,#455,#224,.T.);
#549=EDGE_CURVE('',#455,#429,#225,.T.);
#550=EDGE_CURVE('',#424,#456,#226,.T.);
#551=EDGE_CURVE('',#456,#432,#227,.T.);
#552=EDGE_CURVE('',#457,#458,#228,.T.);
#553=EDGE_CURVE('',#458,#438,#229,.T.);
#554=EDGE_CURVE('',#439,#457,#230,.T.);
#555=EDGE_CURVE('',#459,#440,#231,.T.);
#556=EDGE_CURVE('',#458,#459,#30,.T.);
#557=EDGE_CURVE('',#459,#457,#232,.T.);
#558=EDGE_CURVE('',#460,#458,#233,.T.);
#559=EDGE_CURVE('',#461,#460,#31,.T.);
#560=EDGE_CURVE('',#461,#459,#234,.T.);
#561=EDGE_CURVE('',#457,#462,#235,.T.);
#562=EDGE_CURVE('',#460,#462,#236,.T.);
#563=EDGE_CURVE('',#462,#461,#237,.T.);
#564=EDGE_CURVE('',#461,#445,#238,.T.);
#565=EDGE_CURVE('',#462,#446,#239,.T.);
#566=EDGE_CURVE('',#460,#447,#240,.T.);
#567=EDGE_CURVE('',#463,#434,#241,.T.);
#568=EDGE_CURVE('',#464,#463,#242,.T.);
#569=EDGE_CURVE('',#434,#464,#243,.T.);
#570=EDGE_CURVE('',#443,#465,#244,.T.);
#571=EDGE_CURVE('',#466,#443,#245,.T.);
#572=EDGE_CURVE('',#465,#466,#246,.T.);
#573=EDGE_CURVE('',#467,#468,#247,.T.);
#574=EDGE_CURVE('',#435,#467,#248,.T.);
#575=EDGE_CURVE('',#468,#435,#249,.T.);
#576=EDGE_CURVE('',#469,#470,#250,.T.);
#577=EDGE_CURVE('',#433,#469,#251,.T.);
#578=EDGE_CURVE('',#470,#433,#252,.T.);
#579=EDGE_CURVE('',#469,#463,#253,.T.);
#580=EDGE_CURVE('',#444,#471,#254,.T.);
#581=EDGE_CURVE('',#472,#444,#255,.T.);
#582=EDGE_CURVE('',#471,#472,#256,.T.);
#583=EDGE_CURVE('',#465,#472,#257,.T.);
#584=EDGE_CURVE('',#472,#469,#258,.T.);
#585=EDGE_CURVE('',#470,#471,#259,.T.);
#586=EDGE_CURVE('',#442,#473,#260,.T.);
#587=EDGE_CURVE('',#473,#448,#261,.T.);
#588=EDGE_CURVE('',#432,#474,#262,.T.);
#589=EDGE_CURVE('',#474,#456,#263,.T.);
#590=EDGE_CURVE('',#455,#475,#264,.T.);
#591=EDGE_CURVE('',#475,#441,#265,.T.);
#592=EDGE_CURVE('',#471,#475,#266,.T.);
#593=EDGE_CURVE('',#475,#474,#267,.T.);
#594=EDGE_CURVE('',#456,#455,#268,.T.);
#595=EDGE_CURVE('',#474,#470,#269,.T.);
#596=EDGE_CURVE('',#467,#414,#270,.T.);
#597=EDGE_CURVE('',#448,#467,#271,.T.);
#598=EDGE_CURVE('',#468,#473,#272,.T.);
#599=EDGE_CURVE('',#473,#466,#273,.T.);
#600=EDGE_CURVE('',#464,#468,#274,.T.);
#601=EDGE_CURVE('',#463,#465,#275,.T.);
#602=EDGE_CURVE('',#466,#464,#276,.T.);
#603=EDGE_CURVE('',#449,#476,#277,.F.);
#604=EDGE_CURVE('',#450,#476,#278,.T.);
#605=EDGE_CURVE('',#477,#476,#32,.T.);
#606=EDGE_CURVE('',#477,#451,#279,.T.);
#607=EDGE_CURVE('',#477,#478,#280,.F.);
#608=EDGE_CURVE('',#452,#478,#281,.T.);
#609=EDGE_CURVE('',#479,#478,#33,.T.);
#610=EDGE_CURVE('',#479,#453,#282,.T.);
#611=EDGE_CURVE('',#479,#454,#283,.F.);
#612=ORIENTED_EDGE('',*,*,#480,.F.);
#613=ORIENTED_EDGE('',*,*,#481,.F.);
#614=ORIENTED_EDGE('',*,*,#482,.F.);
#615=ORIENTED_EDGE('',*,*,#483,.T.);
#616=ORIENTED_EDGE('',*,*,#484,.T.);
#617=ORIENTED_EDGE('',*,*,#481,.T.);
#618=ORIENTED_EDGE('',*,*,#485,.T.);
#619=ORIENTED_EDGE('',*,*,#486,.T.);
#620=ORIENTED_EDGE('',*,*,#487,.T.);
#621=ORIENTED_EDGE('',*,*,#482,.T.);
#622=ORIENTED_EDGE('',*,*,#488,.T.);
#623=ORIENTED_EDGE('',*,*,#489,.F.);
#624=ORIENTED_EDGE('',*,*,#490,.F.);
#625=ORIENTED_EDGE('',*,*,#491,.F.);
#626=ORIENTED_EDGE('',*,*,#492,.F.);
#627=ORIENTED_EDGE('',*,*,#493,.F.);
#628=ORIENTED_EDGE('',*,*,#494,.F.);
#629=ORIENTED_EDGE('',*,*,#495,.F.);
#630=ORIENTED_EDGE('',*,*,#496,.F.);
#631=ORIENTED_EDGE('',*,*,#497,.F.);
#632=ORIENTED_EDGE('',*,*,#493,.T.);
#633=ORIENTED_EDGE('',*,*,#498,.T.);
#634=ORIENTED_EDGE('',*,*,#496,.T.);
#635=ORIENTED_EDGE('',*,*,#499,.T.);
#636=ORIENTED_EDGE('',*,*,#500,.T.);
#637=ORIENTED_EDGE('',*,*,#501,.T.);
#638=ORIENTED_EDGE('',*,*,#497,.T.);
#639=ORIENTED_EDGE('',*,*,#502,.T.);
#640=ORIENTED_EDGE('',*,*,#503,.T.);
#641=ORIENTED_EDGE('',*,*,#504,.T.);
#642=ORIENTED_EDGE('',*,*,#495,.T.);
#643=ORIENTED_EDGE('',*,*,#505,.T.);
#644=ORIENTED_EDGE('',*,*,#490,.T.);
#645=ORIENTED_EDGE('',*,*,#506,.T.);
#646=ORIENTED_EDGE('',*,*,#494,.T.);
#647=ORIENTED_EDGE('',*,*,#507,.T.);
#648=ORIENTED_EDGE('',*,*,#508,.T.);
#649=ORIENTED_EDGE('',*,*,#509,.T.);
#650=ORIENTED_EDGE('',*,*,#492,.T.);
#651=ORIENTED_EDGE('',*,*,#510,.T.);
#652=ORIENTED_EDGE('',*,*,#491,.T.);
#653=ORIENTED_EDGE('',*,*,#511,.T.);
#654=ORIENTED_EDGE('',*,*,#480,.T.);
#655=ORIENTED_EDGE('',*,*,#512,.T.);
#656=ORIENTED_EDGE('',*,*,#513,.T.);
#657=ORIENTED_EDGE('',*,*,#514,.T.);
#658=ORIENTED_EDGE('',*,*,#489,.T.);
#659=ORIENTED_EDGE('',*,*,#515,.T.);
#660=ORIENTED_EDGE('',*,*,#502,.F.);
#661=ORIENTED_EDGE('',*,*,#498,.F.);
#662=ORIENTED_EDGE('',*,*,#509,.F.);
#663=ORIENTED_EDGE('',*,*,#516,.F.);
#664=ORIENTED_EDGE('',*,*,#505,.F.);
#665=ORIENTED_EDGE('',*,*,#501,.F.);
#666=ORIENTED_EDGE('',*,*,#517,.F.);
#667=ORIENTED_EDGE('',*,*,#518,.F.);
#668=ORIENTED_EDGE('',*,*,#519,.F.);
#669=ORIENTED_EDGE('',*,*,#520,.F.);
#670=ORIENTED_EDGE('',*,*,#521,.F.);
#671=ORIENTED_EDGE('',*,*,#488,.F.);
#672=ORIENTED_EDGE('',*,*,#484,.F.);
#673=ORIENTED_EDGE('',*,*,#522,.F.);
#674=ORIENTED_EDGE('',*,*,#523,.F.);
#675=ORIENTED_EDGE('',*,*,#524,.F.);
#676=ORIENTED_EDGE('',*,*,#525,.F.);
#677=ORIENTED_EDGE('',*,*,#526,.F.);
#678=ORIENTED_EDGE('',*,*,#527,.F.);
#679=ORIENTED_EDGE('',*,*,#528,.F.);
#680=ORIENTED_EDGE('',*,*,#510,.F.);
#681=ORIENTED_EDGE('',*,*,#506,.F.);
#682=ORIENTED_EDGE('',*,*,#514,.F.);
#683=ORIENTED_EDGE('',*,*,#529,.F.);
#684=ORIENTED_EDGE('',*,*,#530,.F.);
#685=ORIENTED_EDGE('',*,*,#531,.F.);
#686=ORIENTED_EDGE('',*,*,#532,.F.);
#687=ORIENTED_EDGE('',*,*,#533,.F.);
#688=ORIENTED_EDGE('',*,*,#534,.F.);
#689=ORIENTED_EDGE('',*,*,#535,.F.);
#690=ORIENTED_EDGE('',*,*,#487,.F.);
#691=ORIENTED_EDGE('',*,*,#536,.T.);
#692=ORIENTED_EDGE('',*,*,#515,.F.);
#693=ORIENTED_EDGE('',*,*,#512,.F.);
#694=ORIENTED_EDGE('',*,*,#537,.T.);
#695=ORIENTED_EDGE('',*,*,#538,.T.);
#696=ORIENTED_EDGE('',*,*,#529,.T.);
#697=ORIENTED_EDGE('',*,*,#513,.F.);
#698=ORIENTED_EDGE('',*,*,#503,.F.);
#699=ORIENTED_EDGE('',*,*,#524,.T.);
#700=ORIENTED_EDGE('',*,*,#539,.T.);
#701=ORIENTED_EDGE('',*,*,#540,.T.);
#702=ORIENTED_EDGE('',*,*,#504,.F.);
#703=ORIENTED_EDGE('',*,*,#541,.T.);
#704=ORIENTED_EDGE('',*,*,#542,.F.);
#705=ORIENTED_EDGE('',*,*,#543,.T.);
#706=ORIENTED_EDGE('',*,*,#544,.F.);
#707=ORIENTED_EDGE('',*,*,#545,.T.);
#708=ORIENTED_EDGE('',*,*,#485,.F.);
#709=ORIENTED_EDGE('',*,*,#511,.F.);
#710=ORIENTED_EDGE('',*,*,#507,.F.);
#711=ORIENTED_EDGE('',*,*,#499,.F.);
#712=ORIENTED_EDGE('',*,*,#483,.F.);
#713=ORIENTED_EDGE('',*,*,#546,.T.);
#714=ORIENTED_EDGE('',*,*,#547,.T.);
#715=ORIENTED_EDGE('',*,*,#522,.T.);
#716=ORIENTED_EDGE('',*,*,#528,.T.);
#717=ORIENTED_EDGE('',*,*,#548,.T.);
#718=ORIENTED_EDGE('',*,*,#549,.T.);
#719=ORIENTED_EDGE('',*,*,#508,.F.);
#720=ORIENTED_EDGE('',*,*,#550,.T.);
#721=ORIENTED_EDGE('',*,*,#551,.T.);
#722=ORIENTED_EDGE('',*,*,#517,.T.);
#723=ORIENTED_EDGE('',*,*,#500,.F.);
#724=ORIENTED_EDGE('',*,*,#552,.T.);
#725=ORIENTED_EDGE('',*,*,#553,.T.);
#726=ORIENTED_EDGE('',*,*,#525,.T.);
#727=ORIENTED_EDGE('',*,*,#554,.T.);
#728=ORIENTED_EDGE('',*,*,#555,.T.);
#729=ORIENTED_EDGE('',*,*,#526,.T.);
#730=ORIENTED_EDGE('',*,*,#553,.F.);
#731=ORIENTED_EDGE('',*,*,#556,.T.);
#732=ORIENTED_EDGE('',*,*,#527,.T.);
#733=ORIENTED_EDGE('',*,*,#555,.F.);
#734=ORIENTED_EDGE('',*,*,#557,.T.);
#735=ORIENTED_EDGE('',*,*,#554,.F.);
#736=ORIENTED_EDGE('',*,*,#556,.F.);
#737=ORIENTED_EDGE('',*,*,#558,.F.);
#738=ORIENTED_EDGE('',*,*,#559,.F.);
#739=ORIENTED_EDGE('',*,*,#560,.T.);
#740=ORIENTED_EDGE('',*,*,#552,.F.);
#741=ORIENTED_EDGE('',*,*,#561,.T.);
#742=ORIENTED_EDGE('',*,*,#562,.F.);
#743=ORIENTED_EDGE('',*,*,#558,.T.);
#744=ORIENTED_EDGE('',*,*,#563,.T.);
#745=ORIENTED_EDGE('',*,*,#564,.T.);
#746=ORIENTED_EDGE('',*,*,#533,.T.);
#747=ORIENTED_EDGE('',*,*,#565,.F.);
#748=ORIENTED_EDGE('',*,*,#566,.T.);
#749=ORIENTED_EDGE('',*,*,#534,.T.);
#750=ORIENTED_EDGE('',*,*,#564,.F.);
#751=ORIENTED_EDGE('',*,*,#559,.T.);
#752=ORIENTED_EDGE('',*,*,#535,.T.);
#753=ORIENTED_EDGE('',*,*,#566,.F.);
#754=ORIENTED_EDGE('',*,*,#562,.T.);
#755=ORIENTED_EDGE('',*,*,#565,.T.);
#756=ORIENTED_EDGE('',*,*,#557,.F.);
#757=ORIENTED_EDGE('',*,*,#560,.F.);
#758=ORIENTED_EDGE('',*,*,#563,.F.);
#759=ORIENTED_EDGE('',*,*,#561,.F.);
#760=ORIENTED_EDGE('',*,*,#567,.F.);
#761=ORIENTED_EDGE('',*,*,#568,.F.);
#762=ORIENTED_EDGE('',*,*,#569,.F.);
#763=ORIENTED_EDGE('',*,*,#570,.F.);
#764=ORIENTED_EDGE('',*,*,#571,.F.);
#765=ORIENTED_EDGE('',*,*,#572,.F.);
#766=ORIENTED_EDGE('',*,*,#573,.F.);
#767=ORIENTED_EDGE('',*,*,#574,.F.);
#768=ORIENTED_EDGE('',*,*,#575,.F.);
#769=ORIENTED_EDGE('',*,*,#576,.F.);
#770=ORIENTED_EDGE('',*,*,#577,.F.);
#771=ORIENTED_EDGE('',*,*,#578,.F.);
#772=ORIENTED_EDGE('',*,*,#567,.T.);
#773=ORIENTED_EDGE('',*,*,#519,.T.);
#774=ORIENTED_EDGE('',*,*,#577,.T.);
#775=ORIENTED_EDGE('',*,*,#579,.T.);
#776=ORIENTED_EDGE('',*,*,#580,.F.);
#777=ORIENTED_EDGE('',*,*,#581,.F.);
#778=ORIENTED_EDGE('',*,*,#582,.F.);
#779=ORIENTED_EDGE('',*,*,#570,.T.);
#780=ORIENTED_EDGE('',*,*,#583,.T.);
#781=ORIENTED_EDGE('',*,*,#581,.T.);
#782=ORIENTED_EDGE('',*,*,#531,.T.);
#783=ORIENTED_EDGE('',*,*,#582,.T.);
#784=ORIENTED_EDGE('',*,*,#584,.T.);
#785=ORIENTED_EDGE('',*,*,#576,.T.);
#786=ORIENTED_EDGE('',*,*,#585,.T.);
#787=ORIENTED_EDGE('',*,*,#586,.F.);
#788=ORIENTED_EDGE('',*,*,#538,.F.);
#789=ORIENTED_EDGE('',*,*,#587,.F.);
#790=ORIENTED_EDGE('',*,*,#588,.F.);
#791=ORIENTED_EDGE('',*,*,#551,.F.);
#792=ORIENTED_EDGE('',*,*,#589,.F.);
#793=ORIENTED_EDGE('',*,*,#590,.F.);
#794=ORIENTED_EDGE('',*,*,#548,.F.);
#795=ORIENTED_EDGE('',*,*,#591,.F.);
#796=ORIENTED_EDGE('',*,*,#591,.T.);
#797=ORIENTED_EDGE('',*,*,#532,.T.);
#798=ORIENTED_EDGE('',*,*,#580,.T.);
#799=ORIENTED_EDGE('',*,*,#592,.T.);
#800=ORIENTED_EDGE('',*,*,#590,.T.);
#801=ORIENTED_EDGE('',*,*,#593,.T.);
#802=ORIENTED_EDGE('',*,*,#589,.T.);
#803=ORIENTED_EDGE('',*,*,#594,.T.);
#804=ORIENTED_EDGE('',*,*,#578,.T.);
#805=ORIENTED_EDGE('',*,*,#518,.T.);
#806=ORIENTED_EDGE('',*,*,#588,.T.);
#807=ORIENTED_EDGE('',*,*,#595,.T.);
#808=ORIENTED_EDGE('',*,*,#521,.T.);
#809=ORIENTED_EDGE('',*,*,#574,.T.);
#810=ORIENTED_EDGE('',*,*,#596,.T.);
#811=ORIENTED_EDGE('',*,*,#486,.F.);
#812=ORIENTED_EDGE('',*,*,#587,.T.);
#813=ORIENTED_EDGE('',*,*,#597,.T.);
#814=ORIENTED_EDGE('',*,*,#573,.T.);
#815=ORIENTED_EDGE('',*,*,#598,.T.);
#816=ORIENTED_EDGE('',*,*,#571,.T.);
#817=ORIENTED_EDGE('',*,*,#530,.T.);
#818=ORIENTED_EDGE('',*,*,#586,.T.);
#819=ORIENTED_EDGE('',*,*,#599,.T.);
#820=ORIENTED_EDGE('',*,*,#575,.T.);
#821=ORIENTED_EDGE('',*,*,#520,.T.);
#822=ORIENTED_EDGE('',*,*,#569,.T.);
#823=ORIENTED_EDGE('',*,*,#600,.T.);
#824=ORIENTED_EDGE('',*,*,#568,.T.);
#825=ORIENTED_EDGE('',*,*,#601,.T.);
#826=ORIENTED_EDGE('',*,*,#572,.T.);
#827=ORIENTED_EDGE('',*,*,#602,.T.);
#828=ORIENTED_EDGE('',*,*,#540,.F.);
#829=ORIENTED_EDGE('',*,*,#603,.T.);
#830=ORIENTED_EDGE('',*,*,#604,.F.);
#831=ORIENTED_EDGE('',*,*,#541,.F.);
#832=ORIENTED_EDGE('',*,*,#583,.F.);
#833=ORIENTED_EDGE('',*,*,#601,.F.);
#834=ORIENTED_EDGE('',*,*,#579,.F.);
#835=ORIENTED_EDGE('',*,*,#584,.F.);
#836=ORIENTED_EDGE('',*,*,#585,.F.);
#837=ORIENTED_EDGE('',*,*,#595,.F.);
#838=ORIENTED_EDGE('',*,*,#593,.F.);
#839=ORIENTED_EDGE('',*,*,#592,.F.);
#840=ORIENTED_EDGE('',*,*,#598,.F.);
#841=ORIENTED_EDGE('',*,*,#600,.F.);
#842=ORIENTED_EDGE('',*,*,#602,.F.);
#843=ORIENTED_EDGE('',*,*,#599,.F.);
#844=ORIENTED_EDGE('',*,*,#537,.F.);
#845=ORIENTED_EDGE('',*,*,#536,.F.);
#846=ORIENTED_EDGE('',*,*,#596,.F.);
#847=ORIENTED_EDGE('',*,*,#597,.F.);
#848=ORIENTED_EDGE('',*,*,#550,.F.);
#849=ORIENTED_EDGE('',*,*,#516,.T.);
#850=ORIENTED_EDGE('',*,*,#549,.F.);
#851=ORIENTED_EDGE('',*,*,#594,.F.);
#852=ORIENTED_EDGE('',*,*,#605,.F.);
#853=ORIENTED_EDGE('',*,*,#606,.T.);
#854=ORIENTED_EDGE('',*,*,#542,.T.);
#855=ORIENTED_EDGE('',*,*,#604,.T.);
#856=ORIENTED_EDGE('',*,*,#606,.F.);
#857=ORIENTED_EDGE('',*,*,#607,.T.);
#858=ORIENTED_EDGE('',*,*,#608,.F.);
#859=ORIENTED_EDGE('',*,*,#543,.F.);
#860=ORIENTED_EDGE('',*,*,#609,.F.);
#861=ORIENTED_EDGE('',*,*,#610,.T.);
#862=ORIENTED_EDGE('',*,*,#544,.T.);
#863=ORIENTED_EDGE('',*,*,#608,.T.);
#864=ORIENTED_EDGE('',*,*,#546,.F.);
#865=ORIENTED_EDGE('',*,*,#545,.F.);
#866=ORIENTED_EDGE('',*,*,#610,.F.);
#867=ORIENTED_EDGE('',*,*,#611,.T.);
#868=ORIENTED_EDGE('',*,*,#605,.T.);
#869=ORIENTED_EDGE('',*,*,#603,.F.);
#870=ORIENTED_EDGE('',*,*,#539,.F.);
#871=ORIENTED_EDGE('',*,*,#523,.T.);
#872=ORIENTED_EDGE('',*,*,#547,.F.);
#873=ORIENTED_EDGE('',*,*,#611,.F.);
#874=ORIENTED_EDGE('',*,*,#609,.T.);
#875=ORIENTED_EDGE('',*,*,#607,.F.);
#876=PLANE('',#1010);
#877=PLANE('',#1011);
#878=PLANE('',#1012);
#879=PLANE('',#1013);
#880=PLANE('',#1014);
#881=PLANE('',#1015);
#882=PLANE('',#1016);
#883=PLANE('',#1017);
#884=PLANE('',#1018);
#885=PLANE('',#1019);
#886=PLANE('',#1020);
#887=PLANE('',#1021);
#888=PLANE('',#1022);
#889=PLANE('',#1023);
#890=PLANE('',#1024);
#891=PLANE('',#1026);
#892=PLANE('',#1028);
#893=PLANE('',#1029);
#894=PLANE('',#1030);
#895=PLANE('',#1031);
#896=PLANE('',#1034);
#897=PLANE('',#1035);
#898=PLANE('',#1036);
#899=PLANE('',#1037);
#900=PLANE('',#1040);
#901=PLANE('',#1043);
#902=PLANE('',#1044);
#903=PLANE('',#1046);
#904=PLANE('',#1047);
#905=PLANE('',#1048);
#906=PLANE('',#1049);
#907=PLANE('',#1050);
#908=PLANE('',#1051);
#909=PLANE('',#1052);
#910=PLANE('',#1053);
#911=PLANE('',#1054);
#912=PLANE('',#1055);
#913=PLANE('',#1056);
#914=PLANE('',#1057);
#915=PLANE('',#1058);
#916=PLANE('',#1059);
#917=PLANE('',#1060);
#918=PLANE('',#1061);
#919=PLANE('',#1062);
#920=PLANE('',#1063);
#921=PLANE('',#1064);
#922=PLANE('',#1065);
#923=PLANE('',#1066);
#924=PLANE('',#1067);
#925=PLANE('',#1068);
#926=PLANE('',#1069);
#927=PLANE('',#1070);
#928=PLANE('',#1071);
#929=PLANE('',#1072);
#930=PLANE('',#1075);
#931=PLANE('',#1078);
#932=PLANE('',#1079);
#933=ADVANCED_FACE('',(#34),#876,.T.);
#934=ADVANCED_FACE('',(#35),#877,.T.);
#935=ADVANCED_FACE('',(#36),#878,.T.);
#936=ADVANCED_FACE('',(#37),#879,.T.);
#937=ADVANCED_FACE('',(#38),#880,.T.);
#938=ADVANCED_FACE('',(#39),#881,.T.);
#939=ADVANCED_FACE('',(#40),#882,.T.);
#940=ADVANCED_FACE('',(#41),#883,.T.);
#941=ADVANCED_FACE('',(#42),#884,.T.);
#942=ADVANCED_FACE('',(#43),#885,.T.);
#943=ADVANCED_FACE('',(#44),#886,.T.);
#944=ADVANCED_FACE('',(#45),#887,.T.);
#945=ADVANCED_FACE('',(#46),#888,.T.);
#946=ADVANCED_FACE('',(#47),#889,.F.);
#947=ADVANCED_FACE('',(#48,#24),#890,.T.);
#948=ADVANCED_FACE('',(#49,#25),#891,.T.);
#949=ADVANCED_FACE('',(#50),#892,.F.);
#950=ADVANCED_FACE('',(#51),#893,.T.);
#951=ADVANCED_FACE('',(#52),#894,.T.);
#952=ADVANCED_FACE('',(#53),#895,.T.);
#953=ADVANCED_FACE('',(#54),#896,.T.);
#954=ADVANCED_FACE('',(#55),#897,.T.);
#955=ADVANCED_FACE('',(#56),#898,.T.);
#956=ADVANCED_FACE('',(#57),#899,.T.);
#957=ADVANCED_FACE('',(#58),#20,.F.);
#958=ADVANCED_FACE('',(#59),#900,.T.);
#959=ADVANCED_FACE('',(#60),#19,.F.);
#960=ADVANCED_FACE('',(#61),#901,.F.);
#961=ADVANCED_FACE('',(#62),#902,.T.);
#962=ADVANCED_FACE('',(#63),#21,.F.);
#963=ADVANCED_FACE('',(#64),#903,.T.);
#964=ADVANCED_FACE('',(#65),#904,.F.);
#965=ADVANCED_FACE('',(#66),#905,.T.);
#966=ADVANCED_FACE('',(#67),#906,.T.);
#967=ADVANCED_FACE('',(#68),#907,.T.);
#968=ADVANCED_FACE('',(#69),#908,.T.);
#969=ADVANCED_FACE('',(#70),#909,.T.);
#970=ADVANCED_FACE('',(#71),#910,.T.);
#971=ADVANCED_FACE('',(#72),#911,.T.);
#972=ADVANCED_FACE('',(#73),#912,.T.);
#973=ADVANCED_FACE('',(#74),#913,.T.);
#974=ADVANCED_FACE('',(#75),#914,.T.);
#975=ADVANCED_FACE('',(#76),#915,.T.);
#976=ADVANCED_FACE('',(#77),#916,.T.);
#977=ADVANCED_FACE('',(#78),#917,.T.);
#978=ADVANCED_FACE('',(#79),#918,.T.);
#979=ADVANCED_FACE('',(#80),#919,.T.);
#980=ADVANCED_FACE('',(#81),#920,.T.);
#981=ADVANCED_FACE('',(#82),#921,.T.);
#982=ADVANCED_FACE('',(#83),#922,.T.);
#983=ADVANCED_FACE('',(#84),#923,.T.);
#984=ADVANCED_FACE('',(#85),#924,.T.);
#985=ADVANCED_FACE('',(#86),#925,.F.);
#986=ADVANCED_FACE('',(#87),#926,.F.);
#987=ADVANCED_FACE('',(#88),#927,.F.);
#988=ADVANCED_FACE('',(#89),#928,.F.);
#989=ADVANCED_FACE('',(#90),#929,.F.);
#990=ADVANCED_FACE('',(#91),#22,.F.);
#991=ADVANCED_FACE('',(#92),#930,.T.);
#992=ADVANCED_FACE('',(#93),#23,.F.);
#993=ADVANCED_FACE('',(#94),#931,.T.);
#994=ADVANCED_FACE('',(#95),#932,.T.);
#995=CLOSED_SHELL('',(#933,#934,#935,#936,#937,#938,#939,#940,#941,#942,
#943,#944,#945,#946,#947,#948,#949,#950,#951,#952,#953,#954,#955,#956,#957,
#958,#959,#960,#961,#962,#963,#964,#965,#966,#967,#968,#969,#970,#971,#972,
#973,#974,#975,#976,#977,#978,#979,#980,#981,#982,#983,#984,#985,#986,#987,
#988,#989,#990,#991,#992,#993,#994));
#996=DERIVED_UNIT_ELEMENT(#998,1.);
#997=DERIVED_UNIT_ELEMENT(#1627,-3.);
#998=(
MASS_UNIT()
NAMED_UNIT(*)
SI_UNIT(.KILO.,.GRAM.)
);
#999=DERIVED_UNIT((#996,#997));
#1000=MEASURE_REPRESENTATION_ITEM('density measure',
POSITIVE_RATIO_MEASURE(7850.),#999);
#1001=PROPERTY_DEFINITION_REPRESENTATION(#1006,#1003);
#1002=PROPERTY_DEFINITION_REPRESENTATION(#1007,#1004);
#1003=REPRESENTATION('material name',(#1005),#1624);
#1004=REPRESENTATION('density',(#1000),#1624);
#1005=DESCRIPTIVE_REPRESENTATION_ITEM('Stahl','Stahl');
#1006=PROPERTY_DEFINITION('material property','material name',#1639);
#1007=PROPERTY_DEFINITION('material property','density of part',#1639);
#1008=AXIS2_PLACEMENT_3D('',#1351,#1081,#1082);
#1009=AXIS2_PLACEMENT_3D('',#1352,#1083,#1084);
#1010=AXIS2_PLACEMENT_3D('',#1353,#1085,#1086);
#1011=AXIS2_PLACEMENT_3D('',#1360,#1090,#1091);
#1012=AXIS2_PLACEMENT_3D('',#1366,#1095,#1096);
#1013=AXIS2_PLACEMENT_3D('',#1372,#1100,#1101);
#1014=AXIS2_PLACEMENT_3D('',#1379,#1105,#1106);
#1015=AXIS2_PLACEMENT_3D('',#1386,#1110,#1111);
#1016=AXIS2_PLACEMENT_3D('',#1393,#1115,#1116);
#1017=AXIS2_PLACEMENT_3D('',#1396,#1119,#1120);
#1018=AXIS2_PLACEMENT_3D('',#1402,#1124,#1125);
#1019=AXIS2_PLACEMENT_3D('',#1408,#1129,#1130);
#1020=AXIS2_PLACEMENT_3D('',#1411,#1133,#1134);
#1021=AXIS2_PLACEMENT_3D('',#1417,#1138,#1139);
#1022=AXIS2_PLACEMENT_3D('',#1420,#1142,#1143);
#1023=AXIS2_PLACEMENT_3D('',#1426,#1147,#1148);
#1024=AXIS2_PLACEMENT_3D('',#1428,#1150,#1151);
#1025=AXIS2_PLACEMENT_3D('',#1447,#1161,#1162);
#1026=AXIS2_PLACEMENT_3D('',#1449,#1164,#1165);
#1027=AXIS2_PLACEMENT_3D('',#1463,#1172,#1173);
#1028=AXIS2_PLACEMENT_3D('',#1465,#1175,#1176);
#1029=AXIS2_PLACEMENT_3D('',#1467,#1178,#1179);
#1030=AXIS2_PLACEMENT_3D('',#1471,#1182,#1183);
#1031=AXIS2_PLACEMENT_3D('',#1475,#1186,#1187);
#1032=AXIS2_PLACEMENT_3D('',#1479,#1189,#1190);
#1033=AXIS2_PLACEMENT_3D('',#1483,#1192,#1193);
#1034=AXIS2_PLACEMENT_3D('',#1485,#1195,#1196);
#1035=AXIS2_PLACEMENT_3D('',#1489,#1199,#1200);
#1036=AXIS2_PLACEMENT_3D('',#1493,#1203,#1204);
#1037=AXIS2_PLACEMENT_3D('',#1497,#1207,#1208);
#1038=AXIS2_PLACEMENT_3D('',#1503,#1212,#1213);
#1039=AXIS2_PLACEMENT_3D('',#1506,#1215,#1216);
#1040=AXIS2_PLACEMENT_3D('',#1507,#1217,#1218);
#1041=AXIS2_PLACEMENT_3D('',#1509,#1220,#1221);
#1042=AXIS2_PLACEMENT_3D('',#1513,#1223,#1224);
#1043=AXIS2_PLACEMENT_3D('',#1515,#1226,#1227);
#1044=AXIS2_PLACEMENT_3D('',#1519,#1230,#1231);
#1045=AXIS2_PLACEMENT_3D('',#1523,#1235,#1236);
#1046=AXIS2_PLACEMENT_3D('',#1525,#1238,#1239);
#1047=AXIS2_PLACEMENT_3D('',#1526,#1240,#1241);
#1048=AXIS2_PLACEMENT_3D('',#1527,#1242,#1243);
#1049=AXIS2_PLACEMENT_3D('',#1533,#1247,#1248);
#1050=AXIS2_PLACEMENT_3D('',#1539,#1252,#1253);
#1051=AXIS2_PLACEMENT_3D('',#1545,#1257,#1258);
#1052=AXIS2_PLACEMENT_3D('',#1551,#1262,#1263);
#1053=AXIS2_PLACEMENT_3D('',#1553,#1265,#1266);
#1054=AXIS2_PLACEMENT_3D('',#1559,#1270,#1271);
#1055=AXIS2_PLACEMENT_3D('',#1561,#1273,#1274);
#1056=AXIS2_PLACEMENT_3D('',#1564,#1277,#1278);
#1057=AXIS2_PLACEMENT_3D('',#1568,#1281,#1282);
#1058=AXIS2_PLACEMENT_3D('',#1572,#1285,#1286);
#1059=AXIS2_PLACEMENT_3D('',#1576,#1289,#1290);
#1060=AXIS2_PLACEMENT_3D('',#1578,#1292,#1293);
#1061=AXIS2_PLACEMENT_3D('',#1581,#1296,#1297);
#1062=AXIS2_PLACEMENT_3D('',#1583,#1299,#1300);
#1063=AXIS2_PLACEMENT_3D('',#1585,#1302,#1303);
#1064=AXIS2_PLACEMENT_3D('',#1588,#1306,#1307);
#1065=AXIS2_PLACEMENT_3D('',#1590,#1309,#1310);
#1066=AXIS2_PLACEMENT_3D('',#1592,#1312,#1313);
#1067=AXIS2_PLACEMENT_3D('',#1595,#1316,#1317);
#1068=AXIS2_PLACEMENT_3D('',#1599,#1320,#1321);
#1069=AXIS2_PLACEMENT_3D('',#1600,#1322,#1323);
#1070=AXIS2_PLACEMENT_3D('',#1601,#1324,#1325);
#1071=AXIS2_PLACEMENT_3D('',#1602,#1326,#1327);
#1072=AXIS2_PLACEMENT_3D('',#1603,#1328,#1329);
#1073=AXIS2_PLACEMENT_3D('',#1604,#1330,#1331);
#1074=AXIS2_PLACEMENT_3D('',#1606,#1332,#1333);
#1075=AXIS2_PLACEMENT_3D('',#1608,#1335,#1336);
#1076=AXIS2_PLACEMENT_3D('',#1612,#1339,#1340);
#1077=AXIS2_PLACEMENT_3D('',#1614,#1341,#1342);
#1078=AXIS2_PLACEMENT_3D('',#1616,#1344,#1345);
#1079=AXIS2_PLACEMENT_3D('',#1618,#1347,#1348);
#1080=AXIS2_PLACEMENT_3D('',#1619,#1349,#1350);
#1081=DIRECTION('axis',(0.,0.,1.));
#1082=DIRECTION('refdir',(1.,0.,0.));
#1083=DIRECTION('axis',(0.,0.,1.));
#1084=DIRECTION('refdir',(1.,0.,0.));
#1085=DIRECTION('center_axis',(-0.577350269189659,0.577350269189608,0.577350269189611));
#1086=DIRECTION('ref_axis',(0.707106781186518,1.45435635631477E-16,0.707106781186577));
#1087=DIRECTION('',(-0.70710678118654,-4.20423234428149E-14,-0.707106781186555));
#1088=DIRECTION('',(8.6595605623549E-17,-0.70710678118655,0.707106781186545));
#1089=DIRECTION('',(0.707106781186516,0.707106781186579,-2.59786816870651E-16));
#1090=DIRECTION('center_axis',(9.59413940680963E-17,0.707106781186545,0.70710678118655));
#1091=DIRECTION('ref_axis',(1.,-2.13163025791785E-32,-1.35681620684083E-16));
#1092=DIRECTION('',(-0.612615289423144,0.558883935699086,-0.558883935699083));
#1093=DIRECTION('',(-1.,1.32169407693477E-17,1.22464679914735E-16));
#1094=DIRECTION('',(1.,-1.32169407693477E-17,-1.22464679914735E-16));
#1095=DIRECTION('center_axis',(-0.707106781186579,0.707106781186516,8.184431891668E-30));
#1096=DIRECTION('ref_axis',(2.4492935982946E-16,2.4492935982947E-16,1.));
#1097=DIRECTION('',(0.678529837493798,0.678529837493858,-0.281415207942284));
#1098=DIRECTION('',(1.22464679914735E-16,1.22464679914735E-16,1.));
#1099=DIRECTION('',(-1.22464679914735E-16,-1.22464679914735E-16,-1.));
#1100=DIRECTION('center_axis',(-0.577350269189636,-0.577350269189618,0.577350269189623));
#1101=DIRECTION('ref_axis',(0.70710678118654,-1.32120120524818E-16,0.707106781186555));
#1102=DIRECTION('',(-0.707106781186536,0.707106781186559,-8.65956056235531E-17));
#1103=DIRECTION('',(-8.65956056235489E-17,-0.707106781186551,-0.707106781186544));
#1104=DIRECTION('',(0.70710678118654,1.731912112471E-16,0.707106781186555));
#1105=DIRECTION('center_axis',(0.577350269189629,-0.577350269189613,0.577350269189636));
#1106=DIRECTION('ref_axis',(0.707106781186552,-6.21689087845815E-17,-0.707106781186543));
#1107=DIRECTION('',(-0.707106781186538,-0.707106781186557,-2.35703394760232E-15));
#1108=DIRECTION('',(0.707106781186552,-1.73191211247097E-16,-0.707106781186543));
#1109=DIRECTION('',(-2.084797051016E-14,0.707106781186551,0.707106781186544));
#1110=DIRECTION('center_axis',(0.577350269189628,0.577350269189615,0.577350269189635));
#1111=DIRECTION('ref_axis',(0.707106781186552,-3.11969089325242E-16,-0.707106781186543));
#1112=DIRECTION('',(2.084797051016E-14,0.70710678118655,-0.707106781186545));
#1113=DIRECTION('',(-0.707106781186552,1.73191211247097E-16,0.707106781186543));
#1114=DIRECTION('',(0.707106781186538,-0.707106781186557,2.70341637009652E-15));
#1115=DIRECTION('center_axis',(0.707106781186543,8.65956056235494E-17,0.707106781186552));
#1116=DIRECTION('ref_axis',(0.707106781186552,-1.73191211247097E-16,-0.707106781186543));
#1117=DIRECTION('',(-2.73691106313441E-48,1.,-1.22464679914735E-16));
#1118=DIRECTION('',(2.73691106313441E-48,-1.,1.22464679914735E-16));
#1119=DIRECTION('center_axis',(0.707106781186557,0.707106781186538,-1.73191211247098E-16));
#1120=DIRECTION('ref_axis',(-3.28178462523585E-30,-2.4492935982947E-16,
-1.));
#1121=DIRECTION('',(0.678529837493829,-0.678529837493846,0.281415207942239));
#1122=DIRECTION('',(1.22464679914735E-16,1.22464679914735E-16,1.));
#1123=DIRECTION('',(-1.22464679914735E-16,-1.22464679914735E-16,-1.));
#1124=DIRECTION('center_axis',(9.59413940680963E-17,0.707106781186545,0.70710678118655));
#1125=DIRECTION('ref_axis',(1.,-2.13163025791785E-32,-1.35681620684083E-16));
#1126=DIRECTION('',(-0.612615289423124,-0.558883935699097,0.558883935699094));
#1127=DIRECTION('',(1.,-1.32169407693477E-17,-1.22464679914735E-16));
#1128=DIRECTION('',(-1.,1.32169407693477E-17,1.22464679914735E-16));
#1129=DIRECTION('center_axis',(8.65956056235498E-17,-0.707106781186544,
0.707106781186551));
#1130=DIRECTION('ref_axis',(1.,-1.49975978266185E-32,-1.22464679914735E-16));
#1131=DIRECTION('',(1.,-1.49975978266185E-32,-1.22464679914735E-16));
#1132=DIRECTION('',(-1.,1.49975978266185E-32,1.22464679914735E-16));
#1133=DIRECTION('center_axis',(0.707106781186558,-0.707106781186538,-2.82264292649393E-30));
#1134=DIRECTION('ref_axis',(-2.44929359829467E-16,-2.4492935982947E-16,
-1.));
#1135=DIRECTION('',(-0.678529837493831,-0.67852983749385,-0.281415207942224));
#1136=DIRECTION('',(1.22464679914735E-16,1.22464679914735E-16,1.));
#1137=DIRECTION('',(-1.22464679914735E-16,-1.22464679914735E-16,-1.));
#1138=DIRECTION('center_axis',(-0.707106781186555,8.6595605623548E-17,0.70710678118654));
#1139=DIRECTION('ref_axis',(0.70710678118654,1.731912112471E-16,0.707106781186555));
#1140=DIRECTION('',(-2.73691106313441E-48,1.,-1.22464679914735E-16));
#1141=DIRECTION('',(2.73691106313441E-48,-1.,1.22464679914735E-16));
#1142=DIRECTION('center_axis',(-0.707106781186559,-0.707106781186536,1.73191211247098E-16));
#1143=DIRECTION('ref_axis',(3.620748295448E-30,2.4492935982947E-16,1.));
#1144=DIRECTION('',(-0.678529837493828,0.67852983749385,0.281415207942231));
#1145=DIRECTION('',(1.22464679914735E-16,1.22464679914735E-16,1.));
#1146=DIRECTION('',(-1.22464679914735E-16,-1.22464679914735E-16,-1.));
#1147=DIRECTION('center_axis',(-1.,1.49975978266185E-32,1.22464679914735E-16));
#1148=DIRECTION('ref_axis',(-1.22464679914735E-16,-1.22464679914735E-16,
-1.));
#1149=DIRECTION('',(2.73691106313441E-48,-1.,1.22464679914735E-16));
#1150=DIRECTION('center_axis',(1.32169407693477E-17,1.,-1.22464679914735E-16));
#1151=DIRECTION('ref_axis',(-1.,1.32169407693477E-17,1.22464679914735E-16));
#1152=DIRECTION('',(-0.707744940899294,9.58716059667806E-17,0.706468045017929));
#1153=DIRECTION('',(1.22464679914735E-16,1.22464679914735E-16,1.));
#1154=DIRECTION('',(1.,-1.32169407693477E-17,-1.22464679914735E-16));
#1155=DIRECTION('',(-1.22464679914735E-16,-1.22464679914735E-16,-1.));
#1156=DIRECTION('',(-0.707744940899294,-7.71631600394376E-17,-0.706468045017929));
#1157=DIRECTION('',(0.0871567471684254,1.20846708507888E-16,0.996194610215805));
#1158=DIRECTION('',(-1.,1.32169407693477E-17,1.22464679914735E-16));
#1159=DIRECTION('',(0.0871567471684252,-1.23150599637836E-16,-0.996194610215805));
#1160=DIRECTION('',(0.866025403784438,4.9786133490798E-17,0.5));
#1161=DIRECTION('center_axis',(1.32169407693477E-17,1.,-1.22464679914735E-16));
#1162=DIRECTION('ref_axis',(-1.22464679914735E-16,-1.22464679914735E-16,
-1.));
#1163=DIRECTION('',(0.866025403784438,-7.26785464239368E-17,-0.5));
#1164=DIRECTION('center_axis',(0.,-1.,1.22464679914735E-16));
#1165=DIRECTION('ref_axis',(1.,-1.49975978266185E-32,-1.22464679914735E-16));
#1166=DIRECTION('',(0.707744940899294,-8.65173830031091E-17,-0.706468045017929));
#1167=DIRECTION('',(0.707744940899294,8.65173830031091E-17,0.706468045017929));
#1168=DIRECTION('',(1.22464679914735E-16,1.22464679914735E-16,1.));
#1169=DIRECTION('',(-1.,1.49975978266185E-32,1.22464679914735E-16));
#1170=DIRECTION('',(-1.22464679914735E-16,-1.22464679914735E-16,-1.));
#1171=DIRECTION('',(-0.866025403784438,6.12323399573674E-17,0.5));
#1172=DIRECTION('center_axis',(0.,-1.,1.22464679914735E-16));
#1173=DIRECTION('ref_axis',(-1.22464679914735E-16,-1.22464679914735E-16,
-1.));
#1174=DIRECTION('',(-0.866025403784438,-6.12323399573673E-17,-0.5));
#1175=DIRECTION('center_axis',(1.,-1.49975978266185E-32,-1.22464679914735E-16));
#1176=DIRECTION('ref_axis',(1.22464679914735E-16,1.22464679914735E-16,1.));
#1177=DIRECTION('',(-2.73691106313441E-48,1.,-1.22464679914735E-16));
#1178=DIRECTION('center_axis',(-0.499548345323786,-0.70710678118654,0.500451247060369));
#1179=DIRECTION('ref_axis',(-0.707744940899294,-4.78346097778137E-16,-0.706468045017929));
#1180=DIRECTION('',(-0.707744940899294,-8.65173830031091E-17,-0.706468045017929));
#1181=DIRECTION('',(0.190950061986985,-0.65336785811188,-0.732562977370178));
#1182=DIRECTION('center_axis',(-0.702723020758267,0.708802117150153,-0.0614810118641301));
#1183=DIRECTION('ref_axis',(0.0871567471684252,-1.19097217875395E-16,-0.996194610215805));
#1184=DIRECTION('',(0.710145532662703,0.704054914363365,-1.73189605080323E-16));
#1185=DIRECTION('',(-0.0871567471684252,1.23150599637836E-16,0.996194610215805));
#1186=DIRECTION('center_axis',(1.22464679914735E-16,1.22464679914735E-16,
1.));
#1187=DIRECTION('ref_axis',(-1.,1.49975978266185E-32,1.22464679914735E-16));
#1188=DIRECTION('',(-0.00481922114453449,-0.999988387486355,1.23053442166872E-16));
#1189=DIRECTION('center_axis',(1.22464679914735E-16,1.22464679914735E-16,
1.));
#1190=DIRECTION('ref_axis',(0.705400871439589,-0.708808585283974,4.17324585193415E-19));
#1191=DIRECTION('',(-1.,1.49975978266185E-32,1.22464679914735E-16));
#1192=DIRECTION('center_axis',(1.22464679914735E-16,1.22464679914735E-16,
1.));
#1193=DIRECTION('ref_axis',(-0.705400871439592,-0.708808585283971,1.73190708450043E-16));
#1194=DIRECTION('',(-0.00481922114453621,0.999988387486355,-1.21873073417064E-16));
#1195=DIRECTION('center_axis',(0.702723020758247,0.708802117150173,-0.0614810118641285));
#1196=DIRECTION('ref_axis',(0.0871567471684254,1.60730581298839E-16,0.996194610215805));
#1197=DIRECTION('',(-0.0871567471684254,-1.20846708507888E-16,-0.996194610215805));
#1198=DIRECTION('',(0.710145532662723,-0.704054914363345,-7.45885620516658E-19));
#1199=DIRECTION('center_axis',(0.499548345323788,-0.707106781186538,0.50045124706037));
#1200=DIRECTION('ref_axis',(-0.707744940899294,-2.12542633031838E-17,0.706468045017929));
#1201=DIRECTION('',(0.190950061987007,0.653367858111887,0.732562977370167));
#1202=DIRECTION('',(-0.707744940899294,8.65173830031091E-17,0.706468045017929));
#1203=DIRECTION('center_axis',(0.499548345323783,0.707106781186545,0.500451247060365));
#1204=DIRECTION('ref_axis',(-0.707744940899294,3.11812644084363E-16,0.706468045017929));
#1205=DIRECTION('',(0.707744940899294,-9.58716059667806E-17,-0.706468045017929));
#1206=DIRECTION('',(-0.190950061986985,0.653367858111872,-0.732562977370186));
#1207=DIRECTION('center_axis',(0.353553390593276,0.707106781186544,-0.612372435695797));
#1208=DIRECTION('ref_axis',(0.866025403784439,-5.1591355924473E-16,0.5));
#1209=DIRECTION('',(-0.866025403784438,-4.9786133490798E-17,-0.5));
#1210=DIRECTION('',(-0.353553390593265,0.70710678118655,0.612372435695797));
#1211=DIRECTION('',(-9.25745964124328E-17,-0.654653670707981,-0.755928946018451));
#1212=DIRECTION('center_axis',(1.32169407693477E-17,1.,-1.22464679914735E-16));
#1213=DIRECTION('ref_axis',(-1.22464679914735E-16,-1.22464679914735E-16,
-1.));
#1214=DIRECTION('',(0.353553390593278,0.707106781186541,0.612372435695799));
#1215=DIRECTION('center_axis',(-1.32169407693477E-17,-1.,1.22464679914735E-16));
#1216=DIRECTION('ref_axis',(-1.22464679914735E-16,-1.22464679914735E-16,
-1.));
#1217=DIRECTION('center_axis',(-0.353553390593276,0.707106781186544,-0.612372435695797));
#1218=DIRECTION('ref_axis',(0.866025403784438,-2.05731406761622E-16,-0.500000000000001));
#1219=DIRECTION('',(-0.866025403784438,7.26785464239368E-17,0.5));
#1220=DIRECTION('center_axis',(0.,-1.,1.22464679914735E-16));
#1221=DIRECTION('ref_axis',(-1.22464679914735E-16,-1.22464679914735E-16,
-1.));
#1222=DIRECTION('',(0.,1.,-1.22464679914735E-16));
#1223=DIRECTION('center_axis',(0.,1.,-1.22464679914735E-16));
#1224=DIRECTION('ref_axis',(-1.22464679914735E-16,-1.22464679914735E-16,
-1.));
#1225=DIRECTION('',(0.,1.,-1.22464679914735E-16));
#1226=DIRECTION('center_axis',(-0.5,1.0605752387249E-16,0.866025403784439));
#1227=DIRECTION('ref_axis',(-0.866025403784439,-6.12323399573673E-17,-0.5));
#1228=DIRECTION('',(0.,-1.,1.22464679914735E-16));
#1229=DIRECTION('',(0.866025403784438,6.12323399573673E-17,0.5));
#1230=DIRECTION('center_axis',(-0.353553390593279,-0.707106781186537,-0.612372435695803));
#1231=DIRECTION('ref_axis',(0.866025403784438,3.21624529935328E-16,-0.500000000000001));
#1232=DIRECTION('',(0.866025403784438,-6.12323399573674E-17,-0.5));
#1233=DIRECTION('',(0.353553390593263,-0.707106781186554,0.612372435695793));
#1234=DIRECTION('',(9.78339564141745E-15,-0.654653670707987,0.755928946018446));
#1235=DIRECTION('center_axis',(0.,-1.,1.22464679914735E-16));
#1236=DIRECTION('ref_axis',(-1.22464679914735E-16,-1.22464679914735E-16,
-1.));
#1237=DIRECTION('',(-0.353553390593273,-0.707106781186552,0.61237243569579));
#1238=DIRECTION('center_axis',(0.353553390593278,-0.707106781186539,-0.612372435695802));
#1239=DIRECTION('ref_axis',(0.866025403784439,1.50220255530364E-16,0.5));
#1240=DIRECTION('center_axis',(0.5,1.0605752387249E-16,0.866025403784438));
#1241=DIRECTION('ref_axis',(-0.866025403784438,6.12323399573674E-17,0.500000000000001));
#1242=DIRECTION('center_axis',(-0.577350269189625,0.57735026918963,-0.577350269189622));
#1243=DIRECTION('ref_axis',(0.707106781186545,-5.61769269865903E-16,-0.70710678118655));
#1244=DIRECTION('',(8.659560562355E-17,0.707106781186542,0.707106781186553));
#1245=DIRECTION('',(0.70710678118655,1.03806874522682E-14,-0.707106781186545));
#1246=DIRECTION('',(-0.70710678118655,-0.707106781186545,1.73191211247098E-16));
#1247=DIRECTION('center_axis',(-0.577350269189624,-0.577350269189624,-0.577350269189629));
#1248=DIRECTION('ref_axis',(0.70710678118655,2.43142422987336E-16,-0.707106781186545));
#1249=DIRECTION('',(-8.65956056235489E-17,0.707106781186551,-0.707106781186544));
#1250=DIRECTION('',(0.707106781186547,-0.707106781186547,-3.57452597678271E-31));
#1251=DIRECTION('',(-0.70710678118655,8.65956056235486E-17,0.707106781186545));
#1252=DIRECTION('center_axis',(-0.756909784296045,0.573184186422376,0.313922708436699));
#1253=DIRECTION('ref_axis',(-0.383100479627784,-2.81754035950998E-16,-0.923706675578867));
#1254=DIRECTION('',(-0.383100479627783,-1.1312144235987E-16,-0.923706675578867));
#1255=DIRECTION('',(-0.190950061986985,-0.653367858111875,0.732562977370183));
#1256=DIRECTION('',(0.653367858111871,0.653367858111866,0.382388394139542));
#1257=DIRECTION('center_axis',(0.577350269189626,0.57735026918963,-0.577350269189622));
#1258=DIRECTION('ref_axis',(0.707106781186545,1.4543563563147E-16,0.70710678118655));
#1259=DIRECTION('',(0.70710678118655,-1.03806874522682E-14,0.707106781186545));
#1260=DIRECTION('',(-8.659560562355E-17,-0.707106781186542,-0.707106781186553));
#1261=DIRECTION('',(-0.70710678118655,0.707106781186545,-3.27102595559117E-16));
#1262=DIRECTION('center_axis',(-7.72498171790019E-17,0.707106781186553,
-0.707106781186542));
#1263=DIRECTION('ref_axis',(1.,-3.10196804289505E-32,-1.09247739145387E-16));
#1264=DIRECTION('',(-1.,1.32169407693477E-17,1.22464679914735E-16));
#1265=DIRECTION('center_axis',(0.577350269189624,-0.577350269189624,-0.577350269189629));
#1266=DIRECTION('ref_axis',(0.707106781186551,-2.43142422987336E-16,0.707106781186545));
#1267=DIRECTION('',(0.707106781186547,0.707106781186547,1.53911384312018E-16));
#1268=DIRECTION('',(8.65956056235489E-17,-0.707106781186551,0.707106781186544));
#1269=DIRECTION('',(-0.70710678118655,-8.65956056235486E-17,-0.707106781186545));
#1270=DIRECTION('center_axis',(-8.65956056235497E-17,-0.707106781186544,
-0.707106781186551));
#1271=DIRECTION('ref_axis',(1.,-1.37806327478226E-32,-1.22464679914735E-16));
#1272=DIRECTION('',(1.,-1.49975978266185E-32,-1.22464679914735E-16));
#1273=DIRECTION('center_axis',(0.707106781186545,-8.65956056235491E-17,
-0.70710678118655));
#1274=DIRECTION('ref_axis',(0.70710678118655,8.65956056235486E-17,0.707106781186545));
#1275=DIRECTION('',(0.,1.,-1.22464679914735E-16));
#1276=DIRECTION('',(0.,-1.,1.22464679914735E-16));
#1277=DIRECTION('center_axis',(-0.756909784296048,-0.573184186422372,0.3139227084367));
#1278=DIRECTION('ref_axis',(-0.383100479627783,-1.15220582257224E-16,-0.923706675578867));
#1279=DIRECTION('',(-0.653367858111867,0.653367858111867,-0.382388394139548));
#1280=DIRECTION('',(0.383100479627783,1.1312144235987E-16,0.923706675578867));
#1281=DIRECTION('center_axis',(0.756909784296044,0.573184186422378,0.313922708436698));
#1282=DIRECTION('ref_axis',(-0.383100479627783,1.70731733488482E-16,0.923706675578867));
#1283=DIRECTION('',(0.653367858111874,-0.653367858111869,-0.382388394139534));
#1284=DIRECTION('',(-0.383100479627784,1.11472279299912E-15,0.923706675578867));
#1285=DIRECTION('center_axis',(0.756909784296048,-0.573184186422376,0.313922708436692));
#1286=DIRECTION('ref_axis',(-0.383100479627775,1.42976157872854E-16,0.923706675578871));
#1287=DIRECTION('',(0.383100479627784,-1.1312144235987E-16,-0.923706675578867));
#1288=DIRECTION('',(-0.653367858111868,-0.653367858111868,0.382388394139545));
#1289=DIRECTION('center_axis',(0.707106781186548,-0.707106781186548,-3.69778549322349E-31));
#1290=DIRECTION('ref_axis',(1.22464679914735E-16,1.22464679914735E-16,1.));
#1291=DIRECTION('',(1.22464679914735E-16,1.22464679914735E-16,1.));
#1292=DIRECTION('center_axis',(0.923706675578867,4.69162776127979E-17,0.383100479627784));
#1293=DIRECTION('ref_axis',(-0.383100479627784,1.1312144235987E-16,0.923706675578867));
#1294=DIRECTION('',(0.,1.,-1.22464679914735E-16));
#1295=DIRECTION('',(0.,-1.,1.22464679914735E-16));
#1296=DIRECTION('center_axis',(0.707106781186545,0.70710678118655,-1.73191211247098E-16));
#1297=DIRECTION('ref_axis',(1.22464679914735E-16,1.22464679914735E-16,1.));
#1298=DIRECTION('',(-1.22464679914735E-16,-1.22464679914735E-16,-1.));
#1299=DIRECTION('center_axis',(-0.499548345323783,0.707106781186544,0.500451247060366));
#1300=DIRECTION('ref_axis',(-0.707744940899294,2.15543292612586E-16,-0.706468045017929));
#1301=DIRECTION('',(0.707744940899294,7.71631600394376E-17,0.706468045017929));
#1302=DIRECTION('center_axis',(-0.923706675578867,4.69162776127978E-17,
0.383100479627783));
#1303=DIRECTION('ref_axis',(-0.383100479627783,-1.1312144235987E-16,-0.923706675578867));
#1304=DIRECTION('',(0.,1.,-1.22464679914735E-16));
#1305=DIRECTION('',(0.,-1.,1.22464679914735E-16));
#1306=DIRECTION('center_axis',(-0.707106781186548,-0.707106781186548,1.73191211247098E-16));
#1307=DIRECTION('ref_axis',(-1.22464679914735E-16,-1.22464679914735E-16,
-1.));
#1308=DIRECTION('',(-1.22464679914735E-16,-1.22464679914735E-16,-1.));
#1309=DIRECTION('center_axis',(-0.707106781186545,0.707106781186551,-3.45126646034193E-31));
#1310=DIRECTION('ref_axis',(-1.22464679914735E-16,-1.22464679914735E-16,
-1.));
#1311=DIRECTION('',(1.22464679914735E-16,1.22464679914735E-16,1.));
#1312=DIRECTION('center_axis',(-0.707106781186545,-8.65956056235491E-17,
-0.70710678118655));
#1313=DIRECTION('ref_axis',(0.70710678118655,-8.65956056235486E-17,-0.707106781186545));
#1314=DIRECTION('',(0.,-1.,1.22464679914735E-16));
#1315=DIRECTION('',(0.,1.,-1.22464679914735E-16));
#1316=DIRECTION('center_axis',(-0.996183129767221,0.00480088255311689,-0.0871557427476581));
#1317=DIRECTION('ref_axis',(-0.0048192211445345,-0.999988387486355,1.2251396349036E-16));
#1318=DIRECTION('',(0.00481922114453449,0.999988387486355,-1.23053442166872E-16));
#1319=DIRECTION('',(0.0871547306504061,-0.000420022798317245,-0.996194698091746));
#1320=DIRECTION('center_axis',(1.22464679914735E-16,1.22464679914735E-16,
1.));
#1321=DIRECTION('ref_axis',(-1.,1.49975978266185E-32,1.22464679914735E-16));
#1322=DIRECTION('center_axis',(-1.,1.49975978266185E-32,1.22464679914735E-16));
#1323=DIRECTION('ref_axis',(-1.22464679914735E-16,-1.22464679914735E-16,
-1.));
#1324=DIRECTION('center_axis',(1.,-1.49975978266185E-32,-1.22464679914735E-16));
#1325=DIRECTION('ref_axis',(1.22464679914735E-16,1.22464679914735E-16,1.));
#1326=DIRECTION('center_axis',(0.706468045017929,-8.66737576485049E-17,
-0.707744940899294));
#1327=DIRECTION('ref_axis',(0.707744940899294,8.6517383003109E-17,0.706468045017929));
#1328=DIRECTION('center_axis',(-0.706468045017929,-8.66737576485049E-17,
-0.707744940899294));
#1329=DIRECTION('ref_axis',(0.707744940899294,-8.65173830031091E-17,-0.706468045017929));
#1330=DIRECTION('center_axis',(-1.22464679914735E-16,-1.22464679914735E-16,
-1.));
#1331=DIRECTION('ref_axis',(0.705400871439589,-0.708808585283974,4.17324585193415E-19));
#1332=DIRECTION('center_axis',(1.22464679914735E-16,1.22464679914735E-16,
1.));
#1333=DIRECTION('ref_axis',(0.705400871439589,-0.708808585283974,4.17324585193398E-19));
#1334=DIRECTION('',(1.21998664834562E-16,0.0871557427476582,0.996194698091746));
#1335=DIRECTION('center_axis',(-1.0673500138323E-17,0.996194698091746,-0.0871557427476582));
#1336=DIRECTION('ref_axis',(-1.,1.36954450606316E-32,1.22464679914735E-16));
#1337=DIRECTION('',(1.,-1.49975978266185E-32,-1.22464679914735E-16));
#1338=DIRECTION('',(-1.21998664834562E-16,-0.0871557427476582,-0.996194698091746));
#1339=DIRECTION('center_axis',(-1.22464679914735E-16,-1.22464679914735E-16,
-1.));
#1340=DIRECTION('ref_axis',(-0.705400871439592,-0.708808585283971,1.73190708450043E-16));
#1341=DIRECTION('center_axis',(1.22464679914735E-16,1.22464679914735E-16,
1.));
#1342=DIRECTION('ref_axis',(-0.705400871439592,-0.708808585283971,1.73190708450043E-16));
#1343=DIRECTION('',(0.0871547306504064,0.000420022798317216,0.996194698091746));
#1344=DIRECTION('center_axis',(0.996183129767221,0.00480088255311859,-0.0871557427476583));
#1345=DIRECTION('ref_axis',(-0.0048192211445362,0.999988387486355,-1.22580427238911E-16));
#1346=DIRECTION('',(0.00481922114453621,-0.999988387486355,1.21873073417064E-16));
#1347=DIRECTION('center_axis',(1.22464679914735E-16,1.22464679914735E-16,
1.));
#1348=DIRECTION('ref_axis',(-1.,1.49975978266185E-32,1.22464679914735E-16));
#1349=DIRECTION('',(0.,0.,1.));
#1350=DIRECTION('',(1.,0.,0.));
#1351=CARTESIAN_POINT('',(0.,0.,0.));
#1352=CARTESIAN_POINT('',(0.,0.,0.));
#1353=CARTESIAN_POINT('Origin',(5.04999999999995,47.5,11.7));
#1354=CARTESIAN_POINT('',(5.04999999999995,47.2,12.));
#1355=CARTESIAN_POINT('',(4.74999999999996,47.2,11.7));
#1356=CARTESIAN_POINT('',(5.04999999999995,47.2,12.));
#1357=CARTESIAN_POINT('',(5.04999999999995,47.5,11.7));
#1358=CARTESIAN_POINT('',(5.04999999999995,47.5,11.7));
#1359=CARTESIAN_POINT('',(4.74999999999996,47.2,11.7));
#1360=CARTESIAN_POINT('Origin',(31.9999999999995,47.35,11.85));
#1361=CARTESIAN_POINT('',(10.7538559218403,47.200001729455,11.9999994385141));
#1362=CARTESIAN_POINT('',(10.4250167568749,47.5,11.7));
#1363=CARTESIAN_POINT('',(12.400815449788,45.6974949553028,13.5025050446972));
#1364=CARTESIAN_POINT('',(31.9999999999995,47.5,11.7));
#1365=CARTESIAN_POINT('',(31.9999999999995,47.2,12.));
#1366=CARTESIAN_POINT('Origin',(4.89999999999997,47.35,3.87048956196088));
#1367=CARTESIAN_POINT('',(5.04999999999995,47.5,7.36700739702706));
#1368=CARTESIAN_POINT('',(4.74999999999996,47.2,7.4914301677257));
#1369=CARTESIAN_POINT('',(4.86350933390197,47.3135093339019,7.44435301497825));
#1370=CARTESIAN_POINT('',(4.74999999999996,47.2,3.87048956196089));
#1371=CARTESIAN_POINT('',(5.04999999999995,47.5,3.87048956196088));
#1372=CARTESIAN_POINT('Origin',(5.04999999999995,0.299999999999976,12.));
#1373=CARTESIAN_POINT('',(5.04999999999995,-2.66717284902767E-14,11.7));
#1374=CARTESIAN_POINT('',(4.74999999999996,0.299999999999976,11.7));
#1375=CARTESIAN_POINT('',(5.04999999999995,-2.66938163029328E-14,11.7));
#1376=CARTESIAN_POINT('',(5.04999999999995,0.299999999999977,12.));
#1377=CARTESIAN_POINT('',(5.04999999999995,0.299999999999976,12.));
#1378=CARTESIAN_POINT('',(4.74999999999996,0.299999999999977,11.7));
#1379=CARTESIAN_POINT('Origin',(101.45,0.299999999999977,12.));
#1380=CARTESIAN_POINT('',(101.75,0.299999999999977,11.7));
#1381=CARTESIAN_POINT('',(101.45,-2.66758877754E-14,11.7));
#1382=CARTESIAN_POINT('',(101.75,0.299999999999976,11.7));
#1383=CARTESIAN_POINT('',(101.45,0.299999999999976,12.));
#1384=CARTESIAN_POINT('',(101.45,0.299999999999977,12.));
#1385=CARTESIAN_POINT('',(101.45,-2.66717284902767E-14,11.7));
#1386=CARTESIAN_POINT('Origin',(101.75,47.2,11.7));
#1387=CARTESIAN_POINT('',(101.45,47.2,12.));
#1388=CARTESIAN_POINT('',(101.45,47.5,11.7));
#1389=CARTESIAN_POINT('',(101.45,47.2,12.));
#1390=CARTESIAN_POINT('',(101.75,47.2,11.7));
#1391=CARTESIAN_POINT('',(101.75,47.2,11.7));
#1392=CARTESIAN_POINT('',(101.45,47.5,11.7));
#1393=CARTESIAN_POINT('Origin',(101.6,36.75,11.85));
#1394=CARTESIAN_POINT('',(101.75,36.75,11.7));
#1395=CARTESIAN_POINT('',(101.45,36.75,12.));
#1396=CARTESIAN_POINT('Origin',(101.6,47.35,5.99999999999999));
#1397=CARTESIAN_POINT('',(101.75,47.2,7.49143016772569));
#1398=CARTESIAN_POINT('',(101.45,47.5,7.36700739702706));
#1399=CARTESIAN_POINT('',(98.6307689387793,50.3192310612208,6.19775226410464));
#1400=CARTESIAN_POINT('',(101.45,47.5,5.99999999999999));
#1401=CARTESIAN_POINT('',(101.75,47.2,5.99999999999999));
#1402=CARTESIAN_POINT('Origin',(31.9999999999995,47.35,11.85));
#1403=CARTESIAN_POINT('',(96.0749832431246,47.5,11.7));
#1404=CARTESIAN_POINT('',(95.7461440769521,47.2000017284355,11.9999994396124));
#1405=CARTESIAN_POINT('',(85.4334567557496,37.7918221144778,21.4081778855221));
#1406=CARTESIAN_POINT('',(31.9999999999995,47.2,12.));
#1407=CARTESIAN_POINT('',(31.9999999999995,47.5,11.7));
#1408=CARTESIAN_POINT('Origin',(21.5,0.149999999999975,11.85));
#1409=CARTESIAN_POINT('',(21.5,-2.66717284902767E-14,11.7));
#1410=CARTESIAN_POINT('',(21.5,0.299999999999976,12.));
#1411=CARTESIAN_POINT('Origin',(101.6,0.149999999999974,5.99999999999998));
#1412=CARTESIAN_POINT('',(101.45,-2.7206526327596E-14,7.36700739702706));
#1413=CARTESIAN_POINT('',(101.75,0.299999999999969,7.49143016772568));
#1414=CARTESIAN_POINT('',(97.9212686273656,-3.5287313726346,5.90349228224596));
#1415=CARTESIAN_POINT('',(101.75,0.299999999999976,5.99999999999998));
#1416=CARTESIAN_POINT('',(101.45,-2.7373936450914E-14,5.99999999999998));
#1417=CARTESIAN_POINT('Origin',(4.89999999999997,36.75,11.85));
#1418=CARTESIAN_POINT('',(5.04999999999995,36.75,12.));
#1419=CARTESIAN_POINT('',(4.74999999999996,36.75,11.7));
#1420=CARTESIAN_POINT('Origin',(4.89999999999997,0.149999999999973,3.8704895619609));
#1421=CARTESIAN_POINT('',(4.74999999999996,0.299999999999966,7.49143016772569));
#1422=CARTESIAN_POINT('',(5.04999999999995,-2.72244548551288E-14,7.36700739702706));
#1423=CARTESIAN_POINT('',(4.15400902248797,0.895990977511712,7.73861299683701));
#1424=CARTESIAN_POINT('',(5.04999999999995,-2.76526547926164E-14,3.8704895619609));
#1425=CARTESIAN_POINT('',(4.74999999999996,0.299999999999976,3.8704895619609));
#1426=CARTESIAN_POINT('Origin',(101.75,48.,12.));
#1427=CARTESIAN_POINT('',(101.75,48.,7.49143016772569));
#1428=CARTESIAN_POINT('Origin',(10.749999999999,47.5,-8.88178419700125E-15));
#1429=CARTESIAN_POINT('',(106.2,47.5,2.62557722930136));
#1430=CARTESIAN_POINT('',(80.4948320625319,47.5,28.2843685398628));
#1431=CARTESIAN_POINT('',(106.2,47.5,0.299999999999983));
#1432=CARTESIAN_POINT('',(106.2,47.5,1.37499999999998));
#1433=CARTESIAN_POINT('',(0.299999999999958,47.5,0.299999999999998));
#1434=CARTESIAN_POINT('',(31.9999999999995,47.5,0.299999999999991));
#1435=CARTESIAN_POINT('',(0.299999999999958,47.5,2.62557722930138));
#1436=CARTESIAN_POINT('',(0.299999999999958,47.5,-4.44089209850063E-15));
#1437=CARTESIAN_POINT('',(2.21679462930396,47.5,4.53891362524216));
#1438=CARTESIAN_POINT('',(10.145049782472,47.5,8.5));
#1439=CARTESIAN_POINT('',(9.41040165349197,47.5,0.103030972685991));
#1440=CARTESIAN_POINT('',(96.3549502175278,47.5,8.49999999999999));
#1441=CARTESIAN_POINT('',(31.9999999999995,47.5,8.49999999999999));
#1442=CARTESIAN_POINT('',(96.7675152868436,47.5,3.78441443986662));
#1443=CARTESIAN_POINT('',(52.05,47.5,6.57846096908264));
#1444=CARTESIAN_POINT('',(53.25,47.5,7.27128129211019));
#1445=CARTESIAN_POINT('',(35.6632214207422,47.5,-2.88245005480271));
#1446=CARTESIAN_POINT('',(54.45,47.5,6.57846096908264));
#1447=CARTESIAN_POINT('Origin',(53.25,47.5,4.49999999999999));
#1448=CARTESIAN_POINT('',(39.4867785792572,47.5,15.2174808842925));
#1449=CARTESIAN_POINT('Origin',(-10.25,-2.81149287499806E-14,8.88178419700125E-15));
#1450=CARTESIAN_POINT('',(106.2,-2.7471847800025E-14,2.62557722930137));
#1451=CARTESIAN_POINT('',(75.2353515981624,-1.9901379427805E-14,33.5343599799314));
#1452=CARTESIAN_POINT('',(0.299999999999958,-2.7471847800025E-14,2.62557722930139));
#1453=CARTESIAN_POINT('',(-3.04268583506504,-2.8289092583955E-14,-0.711077814826395));
#1454=CARTESIAN_POINT('',(0.299999999999958,-2.80414499420318E-14,0.300000000000007));
#1455=CARTESIAN_POINT('',(0.299999999999958,-2.81149287499806E-14,4.44089209850063E-15));
#1456=CARTESIAN_POINT('',(106.2,-2.80414499420318E-14,0.299999999999994));
#1457=CARTESIAN_POINT('',(21.5,-2.80414499420318E-14,0.300000000000007));
#1458=CARTESIAN_POINT('',(106.2,-2.77781508802151E-14,1.37499999999999));
#1459=CARTESIAN_POINT('',(54.45,-2.65036705161601E-14,6.57846096908264));
#1460=CARTESIAN_POINT('',(53.25,-2.63339784779641E-14,7.27128129211019));
#1461=CARTESIAN_POINT('',(31.6117785792575,-2.32741168981126E-14,19.7641142541606));
#1462=CARTESIAN_POINT('',(52.05,-2.65036705161601E-14,6.57846096908264));
#1463=CARTESIAN_POINT('Origin',(53.25,-2.7012746630748E-14,4.49999999999999));
#1464=CARTESIAN_POINT('',(27.7882214207425,-2.9934529397305E-14,-7.42908342467079));
#1465=CARTESIAN_POINT('Origin',(4.74999999999996,48.,7.74097912392179));
#1466=CARTESIAN_POINT('',(4.74999999999996,48.,7.4914301677257));
#1467=CARTESIAN_POINT('Origin',(-3.14865604181804,0.149999999999977,-0.604916073691495));
#1468=CARTESIAN_POINT('',(0.212323482269952,0.299999999999966,2.96194041350538));
#1469=CARTESIAN_POINT('',(-3.25462624857005,0.299999999999965,-0.498754332556595));
#1470=CARTESIAN_POINT('',(0.212323482269952,0.299999999999966,2.96194041350538));
#1471=CARTESIAN_POINT('Origin',(96.6173687033126,47.3500017286454,3.77127816339532));
#1472=CARTESIAN_POINT('',(96.0523584732294,47.2000034572909,8.49999999999999));
#1473=CARTESIAN_POINT('',(80.4522524194285,31.7336929243132,8.49999999999998));
#1474=CARTESIAN_POINT('',(96.4672221197817,47.2000034572909,3.75814188692403));
#1475=CARTESIAN_POINT('Origin',(53.25,25.5,12.));
#1476=CARTESIAN_POINT('',(95.5595921038927,8.49036155771092,12.));
#1477=CARTESIAN_POINT('',(95.7500000000009,48.,12.));
#1478=CARTESIAN_POINT('',(93.5596153289199,6.49999999999997,12.));
#1479=CARTESIAN_POINT('Origin',(93.5596153289199,8.49999999999998,12.));
#1480=CARTESIAN_POINT('',(12.9403846710801,6.49999999999996,12.));
#1481=CARTESIAN_POINT('',(95.55,6.49999999999997,12.));
#1482=CARTESIAN_POINT('',(10.940407896107,8.4903615577109,12.));
#1483=CARTESIAN_POINT('Origin',(12.9403846710801,8.49999999999996,12.));
#1484=CARTESIAN_POINT('',(10.95,6.49999999999996,12.));
#1485=CARTESIAN_POINT('Origin',(9.56054823702296,47.3500017286454,0.0898946962146918));
#1486=CARTESIAN_POINT('',(10.4476415267709,47.2000034572909,8.5));
#1487=CARTESIAN_POINT('',(9.71069482055396,47.2000034572909,0.0767584197433924));
#1488=CARTESIAN_POINT('',(25.9665332617132,31.8142107022609,8.49999999999999));
#1489=CARTESIAN_POINT('Origin',(75.3413218049151,0.149999999999986,33.6405217210663));
#1490=CARTESIAN_POINT('',(106.28767651773,0.299999999999966,2.96194041350535));
#1491=CARTESIAN_POINT('',(106.2,-2.7471847800025E-14,2.62557722930137));
#1492=CARTESIAN_POINT('',(75.4472920116678,0.299999999999974,33.7466834622011));
#1493=CARTESIAN_POINT('Origin',(80.6008022692846,47.35,28.3905302809977));
#1494=CARTESIAN_POINT('',(106.28767651773,47.2,2.96194041350536));
#1495=CARTESIAN_POINT('',(80.7067724760373,47.2,28.4966920221326));
#1496=CARTESIAN_POINT('',(106.28767651773,47.2,2.96194041350536));
#1497=CARTESIAN_POINT('Origin',(35.7382214207422,47.35,-3.01235386537031));
#1498=CARTESIAN_POINT('',(53.25,47.2,6.92487113059642));
#1499=CARTESIAN_POINT('',(52.2,47.2,6.31865334794731));
#1500=CARTESIAN_POINT('',(35.8132214207422,47.2,-3.14225767593801));
#1501=CARTESIAN_POINT('',(52.2,47.2,6.31865334794731));
#1502=CARTESIAN_POINT('',(53.25,47.5,7.27128129211019));
#1503=CARTESIAN_POINT('Origin',(53.25,47.35,4.49999999999999));
#1504=CARTESIAN_POINT('',(54.3,47.2,6.31865334794731));
#1505=CARTESIAN_POINT('',(54.3,47.2,6.31865334794731));
#1506=CARTESIAN_POINT('Origin',(53.25,47.2,4.49999999999999));
#1507=CARTESIAN_POINT('Origin',(39.4117785792572,47.35,15.0875770737249));
#1508=CARTESIAN_POINT('',(39.3367785792572,47.2,14.9576732631572));
#1509=CARTESIAN_POINT('Origin',(53.25,23.,4.49999999999998));
#1510=CARTESIAN_POINT('',(52.2,0.299999999999967,6.31865334794731));
#1511=CARTESIAN_POINT('',(52.2,23.,6.31865334794731));
#1512=CARTESIAN_POINT('',(54.3,0.299999999999967,6.31865334794731));
#1513=CARTESIAN_POINT('Origin',(53.25,0.299999999999967,4.49999999999999));
#1514=CARTESIAN_POINT('',(54.3,23.,6.31865334794731));
#1515=CARTESIAN_POINT('Origin',(53.25,48.,6.92487113059642));
#1516=CARTESIAN_POINT('',(53.25,0.299999999999967,6.92487113059642));
#1517=CARTESIAN_POINT('',(53.25,48.,6.92487113059642));
#1518=CARTESIAN_POINT('',(27.9382214207425,0.299999999999982,-7.68889104580609));
#1519=CARTESIAN_POINT('Origin',(31.5367785792575,0.149999999999982,19.634210443593));
#1520=CARTESIAN_POINT('',(31.4617785792575,0.299999999999988,19.5043066330253));
#1521=CARTESIAN_POINT('',(54.3,0.299999999999967,6.31865334794731));
#1522=CARTESIAN_POINT('',(53.25,0.299999999999967,6.92487113059642));
#1523=CARTESIAN_POINT('Origin',(53.25,0.149999999999979,4.49999999999999));
#1524=CARTESIAN_POINT('',(52.2,0.299999999999967,6.31865334794731));
#1525=CARTESIAN_POINT('Origin',(27.8632214207425,0.149999999999976,-7.5589872352384));
#1526=CARTESIAN_POINT('Origin',(54.3,48.,6.31865334794731));
#1527=CARTESIAN_POINT('Origin',(-3.5527136788005E-14,47.2,0.299999999999998));
#1528=CARTESIAN_POINT('',(0.299999999999958,47.2,-4.44089209850063E-15));
#1529=CARTESIAN_POINT('',(0.299999999999958,47.2,-4.44089209850063E-15));
#1530=CARTESIAN_POINT('',(-3.5527136788005E-14,47.2,0.299999999999998));
#1531=CARTESIAN_POINT('',(-3.5527136788005E-14,47.2,0.299999999999998));
#1532=CARTESIAN_POINT('',(0.299999999999958,47.5,0.299999999999998));
#1533=CARTESIAN_POINT('Origin',(-3.5527136788005E-14,0.299999999999966,
0.300000000000007));
#1534=CARTESIAN_POINT('',(0.299999999999958,0.299999999999966,4.44089209850063E-15));
#1535=CARTESIAN_POINT('',(0.299999999999958,-2.80414499420318E-14,0.300000000000007));
#1536=CARTESIAN_POINT('',(-3.5527136788005E-14,0.299999999999966,0.300000000000007));
#1537=CARTESIAN_POINT('',(-3.5527136788005E-14,0.299999999999966,0.300000000000007));
#1538=CARTESIAN_POINT('',(0.299999999999958,0.299999999999966,4.44089209850063E-15));
#1539=CARTESIAN_POINT('Origin',(0.299999999999958,47.5,2.62557722930138));
#1540=CARTESIAN_POINT('',(0.212323482269952,47.2,2.96194041350538));
#1541=CARTESIAN_POINT('',(-3.5527136788005E-14,47.2,2.45));
#1542=CARTESIAN_POINT('',(0.212323482269952,47.2,2.96194041350538));
#1543=CARTESIAN_POINT('',(0.299999999999958,47.5,2.62557722930138));
#1544=CARTESIAN_POINT('',(-3.5527136788005E-14,47.2,2.45));
#1545=CARTESIAN_POINT('Origin',(106.2,47.5,0.299999999999983));
#1546=CARTESIAN_POINT('',(106.2,47.2,-1.99840144432528E-14));
#1547=CARTESIAN_POINT('',(106.5,47.2,0.299999999999983));
#1548=CARTESIAN_POINT('',(106.2,47.2,-1.99840144432528E-14));
#1549=CARTESIAN_POINT('',(106.2,47.5,0.299999999999983));
#1550=CARTESIAN_POINT('',(106.5,47.2,0.299999999999983));
#1551=CARTESIAN_POINT('Origin',(31.9999999999995,47.35,0.14999999999999));
#1552=CARTESIAN_POINT('',(31.9999999999995,47.2,-1.11022302462516E-14));
#1553=CARTESIAN_POINT('Origin',(106.2,0.299999999999966,-8.88178419700125E-15));
#1554=CARTESIAN_POINT('',(106.5,0.299999999999966,0.299999999999994));
#1555=CARTESIAN_POINT('',(106.2,-2.80414499420318E-14,0.299999999999994));
#1556=CARTESIAN_POINT('',(106.2,0.299999999999966,-8.88178419700125E-15));
#1557=CARTESIAN_POINT('',(106.2,0.299999999999966,-8.88178419700125E-15));
#1558=CARTESIAN_POINT('',(106.5,0.299999999999966,0.299999999999994));
#1559=CARTESIAN_POINT('Origin',(21.5,0.149999999999978,0.150000000000006));
#1560=CARTESIAN_POINT('',(21.5,0.299999999999984,4.44089209850063E-15));
#1561=CARTESIAN_POINT('Origin',(106.35,36.75,0.149999999999983));
#1562=CARTESIAN_POINT('',(106.2,36.75,-1.77635683940025E-14));
#1563=CARTESIAN_POINT('',(106.5,36.75,0.299999999999985));
#1564=CARTESIAN_POINT('Origin',(0.212323482269952,0.299999999999966,2.96194041350538));
#1565=CARTESIAN_POINT('',(-3.5527136788005E-14,0.299999999999966,2.45));
#1566=CARTESIAN_POINT('',(0.299999999999958,-2.7471847800025E-14,2.62557722930139));
#1567=CARTESIAN_POINT('',(-3.5527136788005E-14,0.299999999999966,2.45));
#1568=CARTESIAN_POINT('Origin',(106.28767651773,47.2,2.96194041350536));
#1569=CARTESIAN_POINT('',(106.5,47.2,2.44999999999998));
#1570=CARTESIAN_POINT('',(106.2,47.5,2.62557722930136));
#1571=CARTESIAN_POINT('',(106.5,47.2,2.44999999999998));
#1572=CARTESIAN_POINT('Origin',(106.2,-2.7471847800025E-14,2.62557722930137));
#1573=CARTESIAN_POINT('',(106.5,0.299999999999966,2.44999999999998));
#1574=CARTESIAN_POINT('',(106.28767651773,0.299999999999966,2.96194041350537));
#1575=CARTESIAN_POINT('',(106.5,0.299999999999966,2.44999999999998));
#1576=CARTESIAN_POINT('Origin',(106.35,0.149999999999978,1.37499999999999));
#1577=CARTESIAN_POINT('',(106.5,0.299999999999966,1.37499999999999));
#1578=CARTESIAN_POINT('Origin',(106.393838258865,48.,2.70597020675267));
#1579=CARTESIAN_POINT('',(106.5,48.,2.44999999999998));
#1580=CARTESIAN_POINT('',(106.28767651773,48.,2.96194041350536));
#1581=CARTESIAN_POINT('Origin',(106.35,47.35,1.37499999999998));
#1582=CARTESIAN_POINT('',(106.5,47.2,1.37499999999998));
#1583=CARTESIAN_POINT('Origin',(2.11082442255195,47.35,4.64507536637705));
#1584=CARTESIAN_POINT('',(2.00485421579897,47.2,4.75123710751194));
#1585=CARTESIAN_POINT('Origin',(0.106161741134958,48.,2.70597020675269));
#1586=CARTESIAN_POINT('',(0.212323482269952,48.,2.96194041350538));
#1587=CARTESIAN_POINT('',(-3.5527136788005E-14,48.,2.45));
#1588=CARTESIAN_POINT('Origin',(0.14999999999997,0.149999999999978,4.44089209850063E-15));
#1589=CARTESIAN_POINT('',(-3.5527136788005E-14,0.299999999999966,4.44089209850063E-15));
#1590=CARTESIAN_POINT('Origin',(0.14999999999997,47.35,-4.44089209850063E-15));
#1591=CARTESIAN_POINT('',(-3.5527136788005E-14,47.2,-4.44089209850063E-15));
#1592=CARTESIAN_POINT('Origin',(0.14999999999997,36.75,0.149999999999997));
#1593=CARTESIAN_POINT('',(0.299999999999958,36.75,-4.44089209850063E-15));
#1594=CARTESIAN_POINT('',(-3.5527136788005E-14,36.75,0.299999999999998));
#1595=CARTESIAN_POINT('Origin',(96.7958567678058,47.9949597264202,0.045663622898986));
#1596=CARTESIAN_POINT('',(95.8657988703618,8.48888586245081,8.49999999999998));
#1597=CARTESIAN_POINT('',(96.0057143987502,37.5213580028971,8.49999999999999));
#1598=CARTESIAN_POINT('',(95.5595921038927,8.49036155771091,12.));
#1599=CARTESIAN_POINT('Origin',(53.25,25.5,-8.88178419700125E-15));
#1600=CARTESIAN_POINT('Origin',(106.5,48.,2.74999999999997));
#1601=CARTESIAN_POINT('Origin',(-3.5527136788005E-14,48.,-4.44089209850063E-15));
#1602=CARTESIAN_POINT('Origin',(-3.5527136788005E-14,48.,2.74999999999998));
#1603=CARTESIAN_POINT('Origin',(101.5,48.,7.74097912392177));
#1604=CARTESIAN_POINT('Origin',(93.5596153289199,8.49999999999998,12.));
#1605=CARTESIAN_POINT('',(93.5596153289199,6.19378967765924,8.49999999999999));
#1606=CARTESIAN_POINT('Origin',(93.5596153289199,8.49999999999998,8.49999999999998));
#1607=CARTESIAN_POINT('',(93.5596153289199,6.49999999999997,12.));
#1608=CARTESIAN_POINT('Origin',(95.55,5.45413108702807,0.0456636228989926));
#1609=CARTESIAN_POINT('',(12.9403846710801,6.19378967765923,8.49999999999999));
#1610=CARTESIAN_POINT('',(74.4,6.19378967765922,8.49999999999999));
#1611=CARTESIAN_POINT('',(12.9403846710801,6.49999999999996,12.));
#1612=CARTESIAN_POINT('Origin',(12.9403846710801,8.49999999999996,12.));
#1613=CARTESIAN_POINT('',(10.634201129638,8.4888858624508,8.49999999999999));
#1614=CARTESIAN_POINT('Origin',(12.9403846710801,8.49999999999996,8.49999999999999));
#1615=CARTESIAN_POINT('',(10.940407896107,8.4903615577109,12.));
#1616=CARTESIAN_POINT('Origin',(9.90414323219495,6.49495972642015,0.0456636228990059));
#1617=CARTESIAN_POINT('',(10.59428560125,16.7713580028971,8.49999999999999));
#1618=CARTESIAN_POINT('Origin',(53.25,27.25,8.49999999999999));
#1619=CARTESIAN_POINT('',(0.,0.,0.));
#1620=UNCERTAINTY_MEASURE_WITH_UNIT(LENGTH_MEASURE(0.01),#1626,
'DISTANCE_ACCURACY_VALUE',
'Maximum model space distance between geometric entities at asserted c
onnectivities');
#1621=UNCERTAINTY_MEASURE_WITH_UNIT(LENGTH_MEASURE(0.01),#1626,
'DISTANCE_ACCURACY_VALUE',
'Maximum model space distance between geometric entities at asserted c
onnectivities');
#1622=UNCERTAINTY_MEASURE_WITH_UNIT(LENGTH_MEASURE(0.01),#1626,
'DISTANCE_ACCURACY_VALUE',
'Maximum model space distance between geometric entities at asserted c
onnectivities');
#1623=(
GEOMETRIC_REPRESENTATION_CONTEXT(3)
GLOBAL_UNCERTAINTY_ASSIGNED_CONTEXT((#1620))
GLOBAL_UNIT_ASSIGNED_CONTEXT((#1626,#1628,#1629))
REPRESENTATION_CONTEXT('','3D')
);
#1624=(
GEOMETRIC_REPRESENTATION_CONTEXT(3)
GLOBAL_UNCERTAINTY_ASSIGNED_CONTEXT((#1621))
GLOBAL_UNIT_ASSIGNED_CONTEXT((#1626,#1628,#1629))
REPRESENTATION_CONTEXT('','3D')
);
#1625=(
GEOMETRIC_REPRESENTATION_CONTEXT(3)
GLOBAL_UNCERTAINTY_ASSIGNED_CONTEXT((#1622))
GLOBAL_UNIT_ASSIGNED_CONTEXT((#1626,#1628,#1629))
REPRESENTATION_CONTEXT('','3D')
);
#1626=(
LENGTH_UNIT()
NAMED_UNIT(*)
SI_UNIT(.MILLI.,.METRE.)
);
#1627=(
LENGTH_UNIT()
NAMED_UNIT(*)
SI_UNIT($,.METRE.)
);
#1628=(
NAMED_UNIT(*)
PLANE_ANGLE_UNIT()
SI_UNIT($,.RADIAN.)
);
#1629=(
NAMED_UNIT(*)
SI_UNIT($,.STERADIAN.)
SOLID_ANGLE_UNIT()
);
#1630=SHAPE_DEFINITION_REPRESENTATION(#1632,#1635);
#1631=SHAPE_DEFINITION_REPRESENTATION(#1633,#1636);
#1632=PRODUCT_DEFINITION_SHAPE('',$,#1638);
#1633=PRODUCT_DEFINITION_SHAPE('',$,#1639);
#1634=PRODUCT_DEFINITION_SHAPE($,$,#14);
#1635=SHAPE_REPRESENTATION('',(#1008,#1080),#1623);
#1636=SHAPE_REPRESENTATION('',(#1009),#1624);
#1637=PRODUCT_DEFINITION_CONTEXT('part definition',#1645,'design');
#1638=PRODUCT_DEFINITION('2026-03-28-16-31-41-991','jaw',#1640,#1637);
#1639=PRODUCT_DEFINITION('2026-03-28-16-31-41-992','Konfiguration 1 v3',
#1641,#1637);
#1640=PRODUCT_DEFINITION_FORMATION('',$,#1647);
#1641=PRODUCT_DEFINITION_FORMATION('',$,#1648);
#1642=PRODUCT_RELATED_PRODUCT_CATEGORY('jaw','jaw',(#1647));
#1643=PRODUCT_RELATED_PRODUCT_CATEGORY('Konfiguration 1 v3',
'Konfiguration 1 v3',(#1648));
#1644=APPLICATION_PROTOCOL_DEFINITION('international standard',
'automotive_design',2009,#1645);
#1645=APPLICATION_CONTEXT(
'Core Data for Automotive Mechanical Design Process');
#1646=PRODUCT_CONTEXT('part definition',#1645,'mechanical');
#1647=PRODUCT('2026-03-28-16-31-41-991','jaw',$,(#1646));
#1648=PRODUCT('2026-03-28-16-31-41-992','Konfiguration 1 v3',$,(#1646));
#1649=PRESENTATION_STYLE_ASSIGNMENT((#1651));
#1650=PRESENTATION_STYLE_ASSIGNMENT((#1652));
#1651=SURFACE_STYLE_USAGE(.BOTH.,#1653);
#1652=SURFACE_STYLE_USAGE(.BOTH.,#1654);
#1653=SURFACE_SIDE_STYLE('',(#1655));
#1654=SURFACE_SIDE_STYLE('',(#1656));
#1655=SURFACE_STYLE_FILL_AREA(#1657);
#1656=SURFACE_STYLE_FILL_AREA(#1658);
#1657=FILL_AREA_STYLE('Stahl - satiniert',(#1659));
#1658=FILL_AREA_STYLE('Opaque(255,149,57)',(#1660));
#1659=FILL_AREA_STYLE_COLOUR('Stahl - satiniert',#1661);
#1660=FILL_AREA_STYLE_COLOUR('Opaque(255,149,57)',#1662);
#1661=COLOUR_RGB('Stahl - satiniert',0.627450980392157,0.627450980392157,
0.627450980392157);
#1662=COLOUR_RGB('Opaque(255,149,57)',1.,0.584313725490196,0.223529411764706);
ENDSEC;
END-ISO-10303-21;
