ISO-10303-21;
HEADER;
/* Generated by software containing ST-Developer
 * from STEP Tools, Inc. (www.steptools.com) 
 */

FILE_DESCRIPTION(
/* description */ (''),
/* implementation_level */ '2;1');

FILE_NAME(
/* name */ 'motor cable clip M3.step',
/* time_stamp */ '2026-03-30T11:13:22+02:00',
/* author */ (''),
/* organization */ (''),
/* preprocessor_version */ 'ST-DEVELOPER v20.1',
/* originating_system */ 'Autodesk Translation Framework v14.24.0.0',
/* authorisation */ '');

FILE_SCHEMA (('AUTOMOTIVE_DESIGN { 1 0 10303 214 3 1 1 }'));
ENDSEC;

DATA;
#10=MECHANICAL_DESIGN_GEOMETRIC_PRESENTATION_REPRESENTATION('',(#13),#1495);
#11=SHAPE_REPRESENTATION_RELATIONSHIP('SRR','None',#1502,#12);
#12=ADVANCED_BREP_SHAPE_REPRESENTATION('',(#14),#1494);
#13=STYLED_ITEM('',(#1512),#14);
#14=MANIFOLD_SOLID_BREP('K\X\F6rper1',#875);
#15=CONICAL_SURFACE('',#928,1.15,0.785398163397448);
#16=CONICAL_SURFACE('',#938,0.74,0.785398163397448);
#17=CONICAL_SURFACE('',#941,0.510000000000003,0.785398163397448);
#18=CONICAL_SURFACE('',#944,0.74,0.785398163397448);
#19=CONICAL_SURFACE('',#957,0.74,0.785398163397449);
#20=CONICAL_SURFACE('',#958,0.510000000000003,0.785398163397449);
#21=CONICAL_SURFACE('',#959,0.74,0.785398163397449);
#22=CONICAL_SURFACE('',#963,1.15,0.785398163397449);
#23=ELLIPSE('',#927,130.169827255338,5.17137779410258);
#24=ELLIPSE('',#930,130.169830053572,5.17137785113824);
#25=ELLIPSE('',#962,130.169835004648,5.1713779526107);
#26=ELLIPSE('',#964,130.169832173915,5.17137789470986);
#27=FACE_BOUND('',#112,.T.);
#28=PLANE('',#892);
#29=PLANE('',#896);
#30=PLANE('',#900);
#31=PLANE('',#904);
#32=PLANE('',#911);
#33=PLANE('',#912);
#34=PLANE('',#915);
#35=PLANE('',#925);
#36=PLANE('',#926);
#37=PLANE('',#932);
#38=PLANE('',#933);
#39=PLANE('',#936);
#40=PLANE('',#937);
#41=PLANE('',#947);
#42=PLANE('',#948);
#43=PLANE('',#955);
#44=PLANE('',#956);
#45=PLANE('',#960);
#46=PLANE('',#961);
#47=PLANE('',#965);
#48=PLANE('',#967);
#49=PLANE('',#969);
#50=PLANE('',#972);
#51=PLANE('',#974);
#52=PLANE('',#975);
#53=FACE_OUTER_BOUND('',#100,.T.);
#54=FACE_OUTER_BOUND('',#101,.T.);
#55=FACE_OUTER_BOUND('',#102,.T.);
#56=FACE_OUTER_BOUND('',#103,.T.);
#57=FACE_OUTER_BOUND('',#104,.T.);
#58=FACE_OUTER_BOUND('',#105,.T.);
#59=FACE_OUTER_BOUND('',#106,.T.);
#60=FACE_OUTER_BOUND('',#107,.T.);
#61=FACE_OUTER_BOUND('',#108,.T.);
#62=FACE_OUTER_BOUND('',#109,.T.);
#63=FACE_OUTER_BOUND('',#110,.T.);
#64=FACE_OUTER_BOUND('',#111,.T.);
#65=FACE_OUTER_BOUND('',#113,.T.);
#66=FACE_OUTER_BOUND('',#114,.T.);
#67=FACE_OUTER_BOUND('',#115,.T.);
#68=FACE_OUTER_BOUND('',#116,.T.);
#69=FACE_OUTER_BOUND('',#117,.T.);
#70=FACE_OUTER_BOUND('',#118,.T.);
#71=FACE_OUTER_BOUND('',#119,.T.);
#72=FACE_OUTER_BOUND('',#120,.T.);
#73=FACE_OUTER_BOUND('',#121,.T.);
#74=FACE_OUTER_BOUND('',#122,.T.);
#75=FACE_OUTER_BOUND('',#123,.T.);
#76=FACE_OUTER_BOUND('',#124,.T.);
#77=FACE_OUTER_BOUND('',#125,.T.);
#78=FACE_OUTER_BOUND('',#126,.T.);
#79=FACE_OUTER_BOUND('',#127,.T.);
#80=FACE_OUTER_BOUND('',#128,.T.);
#81=FACE_OUTER_BOUND('',#129,.T.);
#82=FACE_OUTER_BOUND('',#130,.T.);
#83=FACE_OUTER_BOUND('',#131,.T.);
#84=FACE_OUTER_BOUND('',#132,.T.);
#85=FACE_OUTER_BOUND('',#133,.T.);
#86=FACE_OUTER_BOUND('',#134,.T.);
#87=FACE_OUTER_BOUND('',#135,.T.);
#88=FACE_OUTER_BOUND('',#136,.T.);
#89=FACE_OUTER_BOUND('',#137,.T.);
#90=FACE_OUTER_BOUND('',#138,.T.);
#91=FACE_OUTER_BOUND('',#139,.T.);
#92=FACE_OUTER_BOUND('',#140,.T.);
#93=FACE_OUTER_BOUND('',#141,.T.);
#94=FACE_OUTER_BOUND('',#142,.T.);
#95=FACE_OUTER_BOUND('',#143,.T.);
#96=FACE_OUTER_BOUND('',#144,.T.);
#97=FACE_OUTER_BOUND('',#145,.T.);
#98=FACE_OUTER_BOUND('',#146,.T.);
#99=FACE_OUTER_BOUND('',#147,.T.);
#100=EDGE_LOOP('',(#562,#563,#564,#565));
#101=EDGE_LOOP('',(#566,#567,#568,#569));
#102=EDGE_LOOP('',(#570,#571,#572,#573));
#103=EDGE_LOOP('',(#574,#575,#576,#577));
#104=EDGE_LOOP('',(#578,#579,#580,#581));
#105=EDGE_LOOP('',(#582,#583,#584,#585));
#106=EDGE_LOOP('',(#586,#587,#588,#589));
#107=EDGE_LOOP('',(#590,#591,#592,#593,#594,#595,#596,#597,#598,#599,#600,
#601,#602,#603,#604,#605,#606,#607,#608,#609));
#108=EDGE_LOOP('',(#610,#611,#612,#613));
#109=EDGE_LOOP('',(#614,#615,#616,#617));
#110=EDGE_LOOP('',(#618,#619,#620,#621));
#111=EDGE_LOOP('',(#622,#623,#624,#625,#626,#627,#628,#629,#630,#631,#632,
#633,#634,#635,#636,#637,#638,#639,#640,#641,#642,#643,#644,#645));
#112=EDGE_LOOP('',(#646,#647,#648,#649,#650,#651));
#113=EDGE_LOOP('',(#652,#653,#654,#655));
#114=EDGE_LOOP('',(#656,#657,#658,#659));
#115=EDGE_LOOP('',(#660,#661,#662,#663));
#116=EDGE_LOOP('',(#664,#665,#666,#667));
#117=EDGE_LOOP('',(#668,#669,#670,#671));
#118=EDGE_LOOP('',(#672,#673,#674,#675));
#119=EDGE_LOOP('',(#676,#677,#678,#679));
#120=EDGE_LOOP('',(#680,#681,#682,#683));
#121=EDGE_LOOP('',(#684,#685,#686,#687));
#122=EDGE_LOOP('',(#688,#689,#690,#691));
#123=EDGE_LOOP('',(#692,#693,#694,#695));
#124=EDGE_LOOP('',(#696,#697,#698,#699));
#125=EDGE_LOOP('',(#700,#701,#702,#703));
#126=EDGE_LOOP('',(#704,#705,#706,#707));
#127=EDGE_LOOP('',(#708,#709,#710,#711));
#128=EDGE_LOOP('',(#712,#713,#714,#715));
#129=EDGE_LOOP('',(#716,#717,#718,#719));
#130=EDGE_LOOP('',(#720,#721,#722,#723));
#131=EDGE_LOOP('',(#724,#725,#726,#727));
#132=EDGE_LOOP('',(#728,#729,#730,#731));
#133=EDGE_LOOP('',(#732,#733,#734,#735));
#134=EDGE_LOOP('',(#736,#737,#738,#739));
#135=EDGE_LOOP('',(#740,#741,#742,#743));
#136=EDGE_LOOP('',(#744,#745,#746,#747));
#137=EDGE_LOOP('',(#748,#749,#750,#751));
#138=EDGE_LOOP('',(#752,#753,#754,#755));
#139=EDGE_LOOP('',(#756,#757,#758,#759,#760,#761,#762,#763,#764,#765,#766,
#767,#768,#769,#770,#771,#772,#773,#774,#775));
#140=EDGE_LOOP('',(#776,#777,#778,#779));
#141=EDGE_LOOP('',(#780,#781,#782,#783));
#142=EDGE_LOOP('',(#784,#785,#786,#787));
#143=EDGE_LOOP('',(#788,#789,#790,#791));
#144=EDGE_LOOP('',(#792,#793,#794,#795));
#145=EDGE_LOOP('',(#796,#797,#798,#799));
#146=EDGE_LOOP('',(#800,#801,#802,#803,#804,#805,#806,#807,#808,#809));
#147=EDGE_LOOP('',(#810,#811,#812,#813));
#148=LINE('',#1244,#234);
#149=LINE('',#1247,#235);
#150=LINE('',#1250,#236);
#151=LINE('',#1252,#237);
#152=LINE('',#1253,#238);
#153=LINE('',#1258,#239);
#154=LINE('',#1262,#240);
#155=LINE('',#1264,#241);
#156=LINE('',#1265,#242);
#157=LINE('',#1270,#243);
#158=LINE('',#1274,#244);
#159=LINE('',#1276,#245);
#160=LINE('',#1277,#246);
#161=LINE('',#1283,#247);
#162=LINE('',#1286,#248);
#163=LINE('',#1290,#249);
#164=LINE('',#1294,#250);
#165=LINE('',#1298,#251);
#166=LINE('',#1302,#252);
#167=LINE('',#1306,#253);
#168=LINE('',#1309,#254);
#169=LINE('',#1312,#255);
#170=LINE('',#1313,#256);
#171=LINE('',#1316,#257);
#172=LINE('',#1317,#258);
#173=LINE('',#1321,#259);
#174=LINE('',#1326,#260);
#175=LINE('',#1330,#261);
#176=LINE('',#1334,#262);
#177=LINE('',#1338,#263);
#178=LINE('',#1340,#264);
#179=LINE('',#1344,#265);
#180=LINE('',#1346,#266);
#181=LINE('',#1349,#267);
#182=LINE('',#1352,#268);
#183=LINE('',#1354,#269);
#184=LINE('',#1361,#270);
#185=LINE('',#1363,#271);
#186=LINE('',#1367,#272);
#187=LINE('',#1369,#273);
#188=LINE('',#1371,#274);
#189=LINE('',#1381,#275);
#190=LINE('',#1383,#276);
#191=LINE('',#1384,#277);
#192=LINE('',#1387,#278);
#193=LINE('',#1389,#279);
#194=LINE('',#1390,#280);
#195=LINE('',#1393,#281);
#196=LINE('',#1397,#282);
#197=LINE('',#1398,#283);
#198=LINE('',#1402,#284);
#199=LINE('',#1404,#285);
#200=LINE('',#1406,#286);
#201=LINE('',#1407,#287);
#202=LINE('',#1412,#288);
#203=LINE('',#1417,#289);
#204=LINE('',#1424,#290);
#205=LINE('',#1429,#291);
#206=LINE('',#1430,#292);
#207=LINE('',#1431,#293);
#208=LINE('',#1434,#294);
#209=LINE('',#1436,#295);
#210=LINE('',#1437,#296);
#211=LINE('',#1440,#297);
#212=LINE('',#1444,#298);
#213=LINE('',#1448,#299);
#214=LINE('',#1452,#300);
#215=LINE('',#1453,#301);
#216=LINE('',#1455,#302);
#217=LINE('',#1456,#303);
#218=LINE('',#1458,#304);
#219=LINE('',#1460,#305);
#220=LINE('',#1462,#306);
#221=LINE('',#1464,#307);
#222=LINE('',#1466,#308);
#223=LINE('',#1471,#309);
#224=LINE('',#1473,#310);
#225=LINE('',#1474,#311);
#226=LINE('',#1476,#312);
#227=LINE('',#1477,#313);
#228=LINE('',#1478,#314);
#229=LINE('',#1480,#315);
#230=LINE('',#1481,#316);
#231=LINE('',#1483,#317);
#232=LINE('',#1485,#318);
#233=LINE('',#1487,#319);
#234=VECTOR('',#982,10.);
#235=VECTOR('',#985,10.);
#236=VECTOR('',#988,10.);
#237=VECTOR('',#989,10.);
#238=VECTOR('',#990,10.);
#239=VECTOR('',#995,10.);
#240=VECTOR('',#1000,10.);
#241=VECTOR('',#1001,10.);
#242=VECTOR('',#1002,10.);
#243=VECTOR('',#1007,10.);
#244=VECTOR('',#1012,10.);
#245=VECTOR('',#1013,10.);
#246=VECTOR('',#1014,10.);
#247=VECTOR('',#1021,10.);
#248=VECTOR('',#1024,10.);
#249=VECTOR('',#1027,10.);
#250=VECTOR('',#1030,10.);
#251=VECTOR('',#1033,10.);
#252=VECTOR('',#1036,10.);
#253=VECTOR('',#1039,10.);
#254=VECTOR('',#1042,10.);
#255=VECTOR('',#1045,10.);
#256=VECTOR('',#1046,10.);
#257=VECTOR('',#1049,10.);
#258=VECTOR('',#1050,10.);
#259=VECTOR('',#1055,10.);
#260=VECTOR('',#1060,10.);
#261=VECTOR('',#1063,10.);
#262=VECTOR('',#1066,10.);
#263=VECTOR('',#1069,10.);
#264=VECTOR('',#1070,10.);
#265=VECTOR('',#1073,10.);
#266=VECTOR('',#1074,10.);
#267=VECTOR('',#1077,10.);
#268=VECTOR('',#1078,10.);
#269=VECTOR('',#1079,10.);
#270=VECTOR('',#1086,10.);
#271=VECTOR('',#1089,10.);
#272=VECTOR('',#1092,10.);
#273=VECTOR('',#1093,10.);
#274=VECTOR('',#1094,10.);
#275=VECTOR('',#1107,10.);
#276=VECTOR('',#1108,10.);
#277=VECTOR('',#1109,10.);
#278=VECTOR('',#1112,10.);
#279=VECTOR('',#1113,10.);
#280=VECTOR('',#1114,10.);
#281=VECTOR('',#1117,10.);
#282=VECTOR('',#1122,10.);
#283=VECTOR('',#1123,10.);
#284=VECTOR('',#1126,10.);
#285=VECTOR('',#1127,10.);
#286=VECTOR('',#1128,10.);
#287=VECTOR('',#1129,10.);
#288=VECTOR('',#1134,10.);
#289=VECTOR('',#1139,10.);
#290=VECTOR('',#1148,10.);
#291=VECTOR('',#1153,10.);
#292=VECTOR('',#1154,10.);
#293=VECTOR('',#1155,10.);
#294=VECTOR('',#1158,10.);
#295=VECTOR('',#1159,10.);
#296=VECTOR('',#1160,10.);
#297=VECTOR('',#1163,10.);
#298=VECTOR('',#1168,10.);
#299=VECTOR('',#1173,10.);
#300=VECTOR('',#1178,10.);
#301=VECTOR('',#1179,10.);
#302=VECTOR('',#1182,10.);
#303=VECTOR('',#1183,10.);
#304=VECTOR('',#1186,9.99999999999999);
#305=VECTOR('',#1189,10.);
#306=VECTOR('',#1192,10.);
#307=VECTOR('',#1195,10.);
#308=VECTOR('',#1198,10.);
#309=VECTOR('',#1207,10.);
#310=VECTOR('',#1210,10.);
#311=VECTOR('',#1211,10.);
#312=VECTOR('',#1214,10.);
#313=VECTOR('',#1215,10.);
#314=VECTOR('',#1216,10.);
#315=VECTOR('',#1219,10.);
#316=VECTOR('',#1220,10.);
#317=VECTOR('',#1223,10.);
#318=VECTOR('',#1226,10.);
#319=VECTOR('',#1229,10.);
#320=CIRCLE('',#890,0.3);
#321=CIRCLE('',#891,0.3);
#322=CIRCLE('',#894,0.3);
#323=CIRCLE('',#895,0.3);
#324=CIRCLE('',#898,0.3);
#325=CIRCLE('',#899,0.3);
#326=CIRCLE('',#902,0.3);
#327=CIRCLE('',#903,0.3);
#328=CIRCLE('',#905,0.3);
#329=CIRCLE('',#906,0.3);
#330=CIRCLE('',#907,0.3);
#331=CIRCLE('',#908,0.3);
#332=CIRCLE('',#909,0.3);
#333=CIRCLE('',#910,0.3);
#334=CIRCLE('',#914,0.3);
#335=CIRCLE('',#916,0.3);
#336=CIRCLE('',#917,0.3);
#337=CIRCLE('',#918,0.3);
#338=CIRCLE('',#919,0.3);
#339=CIRCLE('',#920,1.05);
#340=CIRCLE('',#921,0.3);
#341=CIRCLE('',#922,0.64);
#342=CIRCLE('',#923,0.610000000000004);
#343=CIRCLE('',#924,0.64);
#344=CIRCLE('',#929,1.05);
#345=CIRCLE('',#931,1.25);
#346=CIRCLE('',#935,1.25);
#347=CIRCLE('',#939,0.84);
#348=CIRCLE('',#940,0.64);
#349=CIRCLE('',#942,0.610000000000004);
#350=CIRCLE('',#943,0.410000000000003);
#351=CIRCLE('',#945,0.84);
#352=CIRCLE('',#946,0.64);
#353=CIRCLE('',#950,0.84);
#354=CIRCLE('',#952,0.410000000000003);
#355=CIRCLE('',#954,0.84);
#356=VERTEX_POINT('',#1240);
#357=VERTEX_POINT('',#1241);
#358=VERTEX_POINT('',#1243);
#359=VERTEX_POINT('',#1245);
#360=VERTEX_POINT('',#1249);
#361=VERTEX_POINT('',#1251);
#362=VERTEX_POINT('',#1255);
#363=VERTEX_POINT('',#1257);
#364=VERTEX_POINT('',#1261);
#365=VERTEX_POINT('',#1263);
#366=VERTEX_POINT('',#1267);
#367=VERTEX_POINT('',#1269);
#368=VERTEX_POINT('',#1273);
#369=VERTEX_POINT('',#1275);
#370=VERTEX_POINT('',#1279);
#371=VERTEX_POINT('',#1281);
#372=VERTEX_POINT('',#1285);
#373=VERTEX_POINT('',#1287);
#374=VERTEX_POINT('',#1289);
#375=VERTEX_POINT('',#1291);
#376=VERTEX_POINT('',#1293);
#377=VERTEX_POINT('',#1295);
#378=VERTEX_POINT('',#1297);
#379=VERTEX_POINT('',#1299);
#380=VERTEX_POINT('',#1301);
#381=VERTEX_POINT('',#1303);
#382=VERTEX_POINT('',#1305);
#383=VERTEX_POINT('',#1307);
#384=VERTEX_POINT('',#1311);
#385=VERTEX_POINT('',#1315);
#386=VERTEX_POINT('',#1319);
#387=VERTEX_POINT('',#1323);
#388=VERTEX_POINT('',#1325);
#389=VERTEX_POINT('',#1327);
#390=VERTEX_POINT('',#1329);
#391=VERTEX_POINT('',#1331);
#392=VERTEX_POINT('',#1333);
#393=VERTEX_POINT('',#1335);
#394=VERTEX_POINT('',#1337);
#395=VERTEX_POINT('',#1339);
#396=VERTEX_POINT('',#1341);
#397=VERTEX_POINT('',#1343);
#398=VERTEX_POINT('',#1345);
#399=VERTEX_POINT('',#1347);
#400=VERTEX_POINT('',#1350);
#401=VERTEX_POINT('',#1351);
#402=VERTEX_POINT('',#1353);
#403=VERTEX_POINT('',#1355);
#404=VERTEX_POINT('',#1357);
#405=VERTEX_POINT('',#1359);
#406=VERTEX_POINT('',#1365);
#407=VERTEX_POINT('',#1366);
#408=VERTEX_POINT('',#1368);
#409=VERTEX_POINT('',#1370);
#410=VERTEX_POINT('',#1374);
#411=VERTEX_POINT('',#1376);
#412=VERTEX_POINT('',#1380);
#413=VERTEX_POINT('',#1382);
#414=VERTEX_POINT('',#1386);
#415=VERTEX_POINT('',#1388);
#416=VERTEX_POINT('',#1392);
#417=VERTEX_POINT('',#1396);
#418=VERTEX_POINT('',#1400);
#419=VERTEX_POINT('',#1401);
#420=VERTEX_POINT('',#1403);
#421=VERTEX_POINT('',#1405);
#422=VERTEX_POINT('',#1409);
#423=VERTEX_POINT('',#1411);
#424=VERTEX_POINT('',#1415);
#425=VERTEX_POINT('',#1416);
#426=VERTEX_POINT('',#1421);
#427=VERTEX_POINT('',#1423);
#428=VERTEX_POINT('',#1427);
#429=VERTEX_POINT('',#1428);
#430=VERTEX_POINT('',#1433);
#431=VERTEX_POINT('',#1435);
#432=VERTEX_POINT('',#1439);
#433=VERTEX_POINT('',#1443);
#434=VERTEX_POINT('',#1447);
#435=VERTEX_POINT('',#1451);
#436=EDGE_CURVE('',#356,#357,#320,.T.);
#437=EDGE_CURVE('',#357,#358,#148,.T.);
#438=EDGE_CURVE('',#358,#359,#321,.T.);
#439=EDGE_CURVE('',#359,#356,#149,.T.);
#440=EDGE_CURVE('',#360,#357,#150,.F.);
#441=EDGE_CURVE('',#361,#360,#151,.T.);
#442=EDGE_CURVE('',#358,#361,#152,.T.);
#443=EDGE_CURVE('',#360,#362,#322,.T.);
#444=EDGE_CURVE('',#362,#363,#153,.T.);
#445=EDGE_CURVE('',#363,#361,#323,.T.);
#446=EDGE_CURVE('',#364,#362,#154,.T.);
#447=EDGE_CURVE('',#365,#364,#155,.T.);
#448=EDGE_CURVE('',#365,#363,#156,.T.);
#449=EDGE_CURVE('',#364,#366,#324,.T.);
#450=EDGE_CURVE('',#366,#367,#157,.T.);
#451=EDGE_CURVE('',#367,#365,#325,.T.);
#452=EDGE_CURVE('',#368,#366,#158,.F.);
#453=EDGE_CURVE('',#369,#368,#159,.T.);
#454=EDGE_CURVE('',#367,#369,#160,.T.);
#455=EDGE_CURVE('',#370,#369,#326,.T.);
#456=EDGE_CURVE('',#368,#371,#327,.T.);
#457=EDGE_CURVE('',#371,#370,#161,.T.);
#458=EDGE_CURVE('',#356,#372,#162,.F.);
#459=EDGE_CURVE('',#373,#372,#328,.T.);
#460=EDGE_CURVE('',#373,#374,#163,.F.);
#461=EDGE_CURVE('',#375,#374,#329,.T.);
#462=EDGE_CURVE('',#375,#376,#164,.T.);
#463=EDGE_CURVE('',#377,#376,#330,.T.);
#464=EDGE_CURVE('',#377,#378,#165,.F.);
#465=EDGE_CURVE('',#379,#378,#331,.T.);
#466=EDGE_CURVE('',#379,#380,#166,.F.);
#467=EDGE_CURVE('',#381,#380,#332,.T.);
#468=EDGE_CURVE('',#381,#382,#167,.F.);
#469=EDGE_CURVE('',#383,#382,#333,.T.);
#470=EDGE_CURVE('',#383,#371,#168,.F.);
#471=EDGE_CURVE('',#359,#384,#169,.F.);
#472=EDGE_CURVE('',#372,#384,#170,.T.);
#473=EDGE_CURVE('',#385,#383,#171,.T.);
#474=EDGE_CURVE('',#385,#370,#172,.F.);
#475=EDGE_CURVE('',#384,#386,#334,.T.);
#476=EDGE_CURVE('',#386,#373,#173,.T.);
#477=EDGE_CURVE('',#387,#385,#335,.T.);
#478=EDGE_CURVE('',#387,#388,#174,.T.);
#479=EDGE_CURVE('',#389,#388,#336,.T.);
#480=EDGE_CURVE('',#390,#389,#175,.F.);
#481=EDGE_CURVE('',#391,#390,#337,.T.);
#482=EDGE_CURVE('',#392,#391,#176,.F.);
#483=EDGE_CURVE('',#393,#392,#338,.T.);
#484=EDGE_CURVE('',#393,#394,#177,.T.);
#485=EDGE_CURVE('',#395,#394,#178,.T.);
#486=EDGE_CURVE('',#396,#395,#339,.T.);
#487=EDGE_CURVE('',#397,#396,#179,.T.);
#488=EDGE_CURVE('',#397,#398,#180,.T.);
#489=EDGE_CURVE('',#399,#398,#340,.T.);
#490=EDGE_CURVE('',#399,#386,#181,.T.);
#491=EDGE_CURVE('',#400,#401,#182,.T.);
#492=EDGE_CURVE('',#402,#401,#183,.T.);
#493=EDGE_CURVE('',#403,#402,#341,.T.);
#494=EDGE_CURVE('',#404,#403,#342,.T.);
#495=EDGE_CURVE('',#405,#404,#343,.T.);
#496=EDGE_CURVE('',#400,#405,#184,.T.);
#497=EDGE_CURVE('',#374,#399,#185,.T.);
#498=EDGE_CURVE('',#406,#407,#186,.T.);
#499=EDGE_CURVE('',#407,#408,#187,.F.);
#500=EDGE_CURVE('',#408,#409,#188,.T.);
#501=EDGE_CURVE('',#409,#406,#23,.T.);
#502=EDGE_CURVE('',#409,#410,#344,.T.);
#503=EDGE_CURVE('',#410,#411,#24,.T.);
#504=EDGE_CURVE('',#411,#406,#345,.T.);
#505=EDGE_CURVE('',#410,#412,#189,.T.);
#506=EDGE_CURVE('',#412,#413,#190,.F.);
#507=EDGE_CURVE('',#413,#411,#191,.T.);
#508=EDGE_CURVE('',#414,#406,#192,.T.);
#509=EDGE_CURVE('',#415,#414,#193,.T.);
#510=EDGE_CURVE('',#415,#407,#194,.T.);
#511=EDGE_CURVE('',#416,#411,#195,.T.);
#512=EDGE_CURVE('',#414,#416,#346,.T.);
#513=EDGE_CURVE('',#417,#413,#196,.F.);
#514=EDGE_CURVE('',#416,#417,#197,.T.);
#515=EDGE_CURVE('',#418,#419,#198,.F.);
#516=EDGE_CURVE('',#419,#420,#199,.T.);
#517=EDGE_CURVE('',#420,#421,#200,.T.);
#518=EDGE_CURVE('',#421,#418,#201,.T.);
#519=EDGE_CURVE('',#420,#422,#347,.T.);
#520=EDGE_CURVE('',#422,#423,#202,.T.);
#521=EDGE_CURVE('',#423,#421,#348,.T.);
#522=EDGE_CURVE('',#424,#425,#203,.T.);
#523=EDGE_CURVE('',#425,#423,#349,.T.);
#524=EDGE_CURVE('',#422,#424,#350,.T.);
#525=EDGE_CURVE('',#424,#426,#351,.T.);
#526=EDGE_CURVE('',#426,#427,#204,.T.);
#527=EDGE_CURVE('',#427,#425,#352,.T.);
#528=EDGE_CURVE('',#428,#429,#205,.F.);
#529=EDGE_CURVE('',#429,#427,#206,.T.);
#530=EDGE_CURVE('',#426,#428,#207,.T.);
#531=EDGE_CURVE('',#430,#426,#208,.T.);
#532=EDGE_CURVE('',#431,#430,#209,.T.);
#533=EDGE_CURVE('',#431,#428,#210,.T.);
#534=EDGE_CURVE('',#424,#432,#211,.T.);
#535=EDGE_CURVE('',#430,#432,#353,.T.);
#536=EDGE_CURVE('',#433,#422,#212,.T.);
#537=EDGE_CURVE('',#432,#433,#354,.T.);
#538=EDGE_CURVE('',#420,#434,#213,.T.);
#539=EDGE_CURVE('',#433,#434,#355,.T.);
#540=EDGE_CURVE('',#435,#419,#214,.F.);
#541=EDGE_CURVE('',#434,#435,#215,.T.);
#542=EDGE_CURVE('',#435,#400,#216,.F.);
#543=EDGE_CURVE('',#405,#434,#217,.T.);
#544=EDGE_CURVE('',#404,#433,#218,.T.);
#545=EDGE_CURVE('',#403,#432,#219,.T.);
#546=EDGE_CURVE('',#402,#430,#220,.T.);
#547=EDGE_CURVE('',#401,#431,#221,.F.);
#548=EDGE_CURVE('',#417,#397,#222,.F.);
#549=EDGE_CURVE('',#396,#416,#25,.T.);
#550=EDGE_CURVE('',#395,#414,#26,.T.);
#551=EDGE_CURVE('',#394,#415,#223,.F.);
#552=EDGE_CURVE('',#376,#393,#224,.T.);
#553=EDGE_CURVE('',#392,#377,#225,.T.);
#554=EDGE_CURVE('',#398,#375,#226,.T.);
#555=EDGE_CURVE('',#429,#412,#227,.T.);
#556=EDGE_CURVE('',#408,#418,#228,.T.);
#557=EDGE_CURVE('',#378,#391,#229,.T.);
#558=EDGE_CURVE('',#390,#379,#230,.T.);
#559=EDGE_CURVE('',#380,#389,#231,.T.);
#560=EDGE_CURVE('',#388,#381,#232,.T.);
#561=EDGE_CURVE('',#382,#387,#233,.T.);
#562=ORIENTED_EDGE('',*,*,#436,.T.);
#563=ORIENTED_EDGE('',*,*,#437,.T.);
#564=ORIENTED_EDGE('',*,*,#438,.T.);
#565=ORIENTED_EDGE('',*,*,#439,.T.);
#566=ORIENTED_EDGE('',*,*,#437,.F.);
#567=ORIENTED_EDGE('',*,*,#440,.F.);
#568=ORIENTED_EDGE('',*,*,#441,.F.);
#569=ORIENTED_EDGE('',*,*,#442,.F.);
#570=ORIENTED_EDGE('',*,*,#443,.T.);
#571=ORIENTED_EDGE('',*,*,#444,.T.);
#572=ORIENTED_EDGE('',*,*,#445,.T.);
#573=ORIENTED_EDGE('',*,*,#441,.T.);
#574=ORIENTED_EDGE('',*,*,#444,.F.);
#575=ORIENTED_EDGE('',*,*,#446,.F.);
#576=ORIENTED_EDGE('',*,*,#447,.F.);
#577=ORIENTED_EDGE('',*,*,#448,.T.);
#578=ORIENTED_EDGE('',*,*,#449,.T.);
#579=ORIENTED_EDGE('',*,*,#450,.T.);
#580=ORIENTED_EDGE('',*,*,#451,.T.);
#581=ORIENTED_EDGE('',*,*,#447,.T.);
#582=ORIENTED_EDGE('',*,*,#450,.F.);
#583=ORIENTED_EDGE('',*,*,#452,.F.);
#584=ORIENTED_EDGE('',*,*,#453,.F.);
#585=ORIENTED_EDGE('',*,*,#454,.F.);
#586=ORIENTED_EDGE('',*,*,#455,.T.);
#587=ORIENTED_EDGE('',*,*,#453,.T.);
#588=ORIENTED_EDGE('',*,*,#456,.T.);
#589=ORIENTED_EDGE('',*,*,#457,.T.);
#590=ORIENTED_EDGE('',*,*,#456,.F.);
#591=ORIENTED_EDGE('',*,*,#452,.T.);
#592=ORIENTED_EDGE('',*,*,#449,.F.);
#593=ORIENTED_EDGE('',*,*,#446,.T.);
#594=ORIENTED_EDGE('',*,*,#443,.F.);
#595=ORIENTED_EDGE('',*,*,#440,.T.);
#596=ORIENTED_EDGE('',*,*,#436,.F.);
#597=ORIENTED_EDGE('',*,*,#458,.T.);
#598=ORIENTED_EDGE('',*,*,#459,.F.);
#599=ORIENTED_EDGE('',*,*,#460,.T.);
#600=ORIENTED_EDGE('',*,*,#461,.F.);
#601=ORIENTED_EDGE('',*,*,#462,.T.);
#602=ORIENTED_EDGE('',*,*,#463,.F.);
#603=ORIENTED_EDGE('',*,*,#464,.T.);
#604=ORIENTED_EDGE('',*,*,#465,.F.);
#605=ORIENTED_EDGE('',*,*,#466,.T.);
#606=ORIENTED_EDGE('',*,*,#467,.F.);
#607=ORIENTED_EDGE('',*,*,#468,.T.);
#608=ORIENTED_EDGE('',*,*,#469,.F.);
#609=ORIENTED_EDGE('',*,*,#470,.T.);
#610=ORIENTED_EDGE('',*,*,#439,.F.);
#611=ORIENTED_EDGE('',*,*,#471,.T.);
#612=ORIENTED_EDGE('',*,*,#472,.F.);
#613=ORIENTED_EDGE('',*,*,#458,.F.);
#614=ORIENTED_EDGE('',*,*,#457,.F.);
#615=ORIENTED_EDGE('',*,*,#470,.F.);
#616=ORIENTED_EDGE('',*,*,#473,.F.);
#617=ORIENTED_EDGE('',*,*,#474,.T.);
#618=ORIENTED_EDGE('',*,*,#459,.T.);
#619=ORIENTED_EDGE('',*,*,#472,.T.);
#620=ORIENTED_EDGE('',*,*,#475,.T.);
#621=ORIENTED_EDGE('',*,*,#476,.T.);
#622=ORIENTED_EDGE('',*,*,#455,.F.);
#623=ORIENTED_EDGE('',*,*,#474,.F.);
#624=ORIENTED_EDGE('',*,*,#477,.F.);
#625=ORIENTED_EDGE('',*,*,#478,.T.);
#626=ORIENTED_EDGE('',*,*,#479,.F.);
#627=ORIENTED_EDGE('',*,*,#480,.F.);
#628=ORIENTED_EDGE('',*,*,#481,.F.);
#629=ORIENTED_EDGE('',*,*,#482,.F.);
#630=ORIENTED_EDGE('',*,*,#483,.F.);
#631=ORIENTED_EDGE('',*,*,#484,.T.);
#632=ORIENTED_EDGE('',*,*,#485,.F.);
#633=ORIENTED_EDGE('',*,*,#486,.F.);
#634=ORIENTED_EDGE('',*,*,#487,.F.);
#635=ORIENTED_EDGE('',*,*,#488,.T.);
#636=ORIENTED_EDGE('',*,*,#489,.F.);
#637=ORIENTED_EDGE('',*,*,#490,.T.);
#638=ORIENTED_EDGE('',*,*,#475,.F.);
#639=ORIENTED_EDGE('',*,*,#471,.F.);
#640=ORIENTED_EDGE('',*,*,#438,.F.);
#641=ORIENTED_EDGE('',*,*,#442,.T.);
#642=ORIENTED_EDGE('',*,*,#445,.F.);
#643=ORIENTED_EDGE('',*,*,#448,.F.);
#644=ORIENTED_EDGE('',*,*,#451,.F.);
#645=ORIENTED_EDGE('',*,*,#454,.T.);
#646=ORIENTED_EDGE('',*,*,#491,.T.);
#647=ORIENTED_EDGE('',*,*,#492,.F.);
#648=ORIENTED_EDGE('',*,*,#493,.F.);
#649=ORIENTED_EDGE('',*,*,#494,.F.);
#650=ORIENTED_EDGE('',*,*,#495,.F.);
#651=ORIENTED_EDGE('',*,*,#496,.F.);
#652=ORIENTED_EDGE('',*,*,#476,.F.);
#653=ORIENTED_EDGE('',*,*,#490,.F.);
#654=ORIENTED_EDGE('',*,*,#497,.F.);
#655=ORIENTED_EDGE('',*,*,#460,.F.);
#656=ORIENTED_EDGE('',*,*,#498,.T.);
#657=ORIENTED_EDGE('',*,*,#499,.T.);
#658=ORIENTED_EDGE('',*,*,#500,.T.);
#659=ORIENTED_EDGE('',*,*,#501,.T.);
#660=ORIENTED_EDGE('',*,*,#502,.T.);
#661=ORIENTED_EDGE('',*,*,#503,.T.);
#662=ORIENTED_EDGE('',*,*,#504,.T.);
#663=ORIENTED_EDGE('',*,*,#501,.F.);
#664=ORIENTED_EDGE('',*,*,#505,.T.);
#665=ORIENTED_EDGE('',*,*,#506,.T.);
#666=ORIENTED_EDGE('',*,*,#507,.T.);
#667=ORIENTED_EDGE('',*,*,#503,.F.);
#668=ORIENTED_EDGE('',*,*,#498,.F.);
#669=ORIENTED_EDGE('',*,*,#508,.F.);
#670=ORIENTED_EDGE('',*,*,#509,.F.);
#671=ORIENTED_EDGE('',*,*,#510,.T.);
#672=ORIENTED_EDGE('',*,*,#504,.F.);
#673=ORIENTED_EDGE('',*,*,#511,.F.);
#674=ORIENTED_EDGE('',*,*,#512,.F.);
#675=ORIENTED_EDGE('',*,*,#508,.T.);
#676=ORIENTED_EDGE('',*,*,#507,.F.);
#677=ORIENTED_EDGE('',*,*,#513,.F.);
#678=ORIENTED_EDGE('',*,*,#514,.F.);
#679=ORIENTED_EDGE('',*,*,#511,.T.);
#680=ORIENTED_EDGE('',*,*,#515,.T.);
#681=ORIENTED_EDGE('',*,*,#516,.T.);
#682=ORIENTED_EDGE('',*,*,#517,.T.);
#683=ORIENTED_EDGE('',*,*,#518,.T.);
#684=ORIENTED_EDGE('',*,*,#517,.F.);
#685=ORIENTED_EDGE('',*,*,#519,.T.);
#686=ORIENTED_EDGE('',*,*,#520,.T.);
#687=ORIENTED_EDGE('',*,*,#521,.T.);
#688=ORIENTED_EDGE('',*,*,#522,.T.);
#689=ORIENTED_EDGE('',*,*,#523,.T.);
#690=ORIENTED_EDGE('',*,*,#520,.F.);
#691=ORIENTED_EDGE('',*,*,#524,.T.);
#692=ORIENTED_EDGE('',*,*,#522,.F.);
#693=ORIENTED_EDGE('',*,*,#525,.T.);
#694=ORIENTED_EDGE('',*,*,#526,.T.);
#695=ORIENTED_EDGE('',*,*,#527,.T.);
#696=ORIENTED_EDGE('',*,*,#528,.T.);
#697=ORIENTED_EDGE('',*,*,#529,.T.);
#698=ORIENTED_EDGE('',*,*,#526,.F.);
#699=ORIENTED_EDGE('',*,*,#530,.T.);
#700=ORIENTED_EDGE('',*,*,#530,.F.);
#701=ORIENTED_EDGE('',*,*,#531,.F.);
#702=ORIENTED_EDGE('',*,*,#532,.F.);
#703=ORIENTED_EDGE('',*,*,#533,.T.);
#704=ORIENTED_EDGE('',*,*,#525,.F.);
#705=ORIENTED_EDGE('',*,*,#534,.T.);
#706=ORIENTED_EDGE('',*,*,#535,.F.);
#707=ORIENTED_EDGE('',*,*,#531,.T.);
#708=ORIENTED_EDGE('',*,*,#524,.F.);
#709=ORIENTED_EDGE('',*,*,#536,.F.);
#710=ORIENTED_EDGE('',*,*,#537,.F.);
#711=ORIENTED_EDGE('',*,*,#534,.F.);
#712=ORIENTED_EDGE('',*,*,#519,.F.);
#713=ORIENTED_EDGE('',*,*,#538,.T.);
#714=ORIENTED_EDGE('',*,*,#539,.F.);
#715=ORIENTED_EDGE('',*,*,#536,.T.);
#716=ORIENTED_EDGE('',*,*,#516,.F.);
#717=ORIENTED_EDGE('',*,*,#540,.F.);
#718=ORIENTED_EDGE('',*,*,#541,.F.);
#719=ORIENTED_EDGE('',*,*,#538,.F.);
#720=ORIENTED_EDGE('',*,*,#542,.T.);
#721=ORIENTED_EDGE('',*,*,#496,.T.);
#722=ORIENTED_EDGE('',*,*,#543,.T.);
#723=ORIENTED_EDGE('',*,*,#541,.T.);
#724=ORIENTED_EDGE('',*,*,#544,.T.);
#725=ORIENTED_EDGE('',*,*,#539,.T.);
#726=ORIENTED_EDGE('',*,*,#543,.F.);
#727=ORIENTED_EDGE('',*,*,#495,.T.);
#728=ORIENTED_EDGE('',*,*,#544,.F.);
#729=ORIENTED_EDGE('',*,*,#494,.T.);
#730=ORIENTED_EDGE('',*,*,#545,.T.);
#731=ORIENTED_EDGE('',*,*,#537,.T.);
#732=ORIENTED_EDGE('',*,*,#546,.T.);
#733=ORIENTED_EDGE('',*,*,#535,.T.);
#734=ORIENTED_EDGE('',*,*,#545,.F.);
#735=ORIENTED_EDGE('',*,*,#493,.T.);
#736=ORIENTED_EDGE('',*,*,#547,.T.);
#737=ORIENTED_EDGE('',*,*,#532,.T.);
#738=ORIENTED_EDGE('',*,*,#546,.F.);
#739=ORIENTED_EDGE('',*,*,#492,.T.);
#740=ORIENTED_EDGE('',*,*,#514,.T.);
#741=ORIENTED_EDGE('',*,*,#548,.T.);
#742=ORIENTED_EDGE('',*,*,#487,.T.);
#743=ORIENTED_EDGE('',*,*,#549,.T.);
#744=ORIENTED_EDGE('',*,*,#512,.T.);
#745=ORIENTED_EDGE('',*,*,#549,.F.);
#746=ORIENTED_EDGE('',*,*,#486,.T.);
#747=ORIENTED_EDGE('',*,*,#550,.T.);
#748=ORIENTED_EDGE('',*,*,#485,.T.);
#749=ORIENTED_EDGE('',*,*,#551,.T.);
#750=ORIENTED_EDGE('',*,*,#509,.T.);
#751=ORIENTED_EDGE('',*,*,#550,.F.);
#752=ORIENTED_EDGE('',*,*,#463,.T.);
#753=ORIENTED_EDGE('',*,*,#552,.T.);
#754=ORIENTED_EDGE('',*,*,#483,.T.);
#755=ORIENTED_EDGE('',*,*,#553,.T.);
#756=ORIENTED_EDGE('',*,*,#552,.F.);
#757=ORIENTED_EDGE('',*,*,#462,.F.);
#758=ORIENTED_EDGE('',*,*,#554,.F.);
#759=ORIENTED_EDGE('',*,*,#488,.F.);
#760=ORIENTED_EDGE('',*,*,#548,.F.);
#761=ORIENTED_EDGE('',*,*,#513,.T.);
#762=ORIENTED_EDGE('',*,*,#506,.F.);
#763=ORIENTED_EDGE('',*,*,#555,.F.);
#764=ORIENTED_EDGE('',*,*,#528,.F.);
#765=ORIENTED_EDGE('',*,*,#533,.F.);
#766=ORIENTED_EDGE('',*,*,#547,.F.);
#767=ORIENTED_EDGE('',*,*,#491,.F.);
#768=ORIENTED_EDGE('',*,*,#542,.F.);
#769=ORIENTED_EDGE('',*,*,#540,.T.);
#770=ORIENTED_EDGE('',*,*,#515,.F.);
#771=ORIENTED_EDGE('',*,*,#556,.F.);
#772=ORIENTED_EDGE('',*,*,#499,.F.);
#773=ORIENTED_EDGE('',*,*,#510,.F.);
#774=ORIENTED_EDGE('',*,*,#551,.F.);
#775=ORIENTED_EDGE('',*,*,#484,.F.);
#776=ORIENTED_EDGE('',*,*,#465,.T.);
#777=ORIENTED_EDGE('',*,*,#557,.T.);
#778=ORIENTED_EDGE('',*,*,#481,.T.);
#779=ORIENTED_EDGE('',*,*,#558,.T.);
#780=ORIENTED_EDGE('',*,*,#558,.F.);
#781=ORIENTED_EDGE('',*,*,#480,.T.);
#782=ORIENTED_EDGE('',*,*,#559,.F.);
#783=ORIENTED_EDGE('',*,*,#466,.F.);
#784=ORIENTED_EDGE('',*,*,#467,.T.);
#785=ORIENTED_EDGE('',*,*,#559,.T.);
#786=ORIENTED_EDGE('',*,*,#479,.T.);
#787=ORIENTED_EDGE('',*,*,#560,.T.);
#788=ORIENTED_EDGE('',*,*,#469,.T.);
#789=ORIENTED_EDGE('',*,*,#561,.T.);
#790=ORIENTED_EDGE('',*,*,#477,.T.);
#791=ORIENTED_EDGE('',*,*,#473,.T.);
#792=ORIENTED_EDGE('',*,*,#560,.F.);
#793=ORIENTED_EDGE('',*,*,#478,.F.);
#794=ORIENTED_EDGE('',*,*,#561,.F.);
#795=ORIENTED_EDGE('',*,*,#468,.F.);
#796=ORIENTED_EDGE('',*,*,#461,.T.);
#797=ORIENTED_EDGE('',*,*,#497,.T.);
#798=ORIENTED_EDGE('',*,*,#489,.T.);
#799=ORIENTED_EDGE('',*,*,#554,.T.);
#800=ORIENTED_EDGE('',*,*,#500,.F.);
#801=ORIENTED_EDGE('',*,*,#556,.T.);
#802=ORIENTED_EDGE('',*,*,#518,.F.);
#803=ORIENTED_EDGE('',*,*,#521,.F.);
#804=ORIENTED_EDGE('',*,*,#523,.F.);
#805=ORIENTED_EDGE('',*,*,#527,.F.);
#806=ORIENTED_EDGE('',*,*,#529,.F.);
#807=ORIENTED_EDGE('',*,*,#555,.T.);
#808=ORIENTED_EDGE('',*,*,#505,.F.);
#809=ORIENTED_EDGE('',*,*,#502,.F.);
#810=ORIENTED_EDGE('',*,*,#553,.F.);
#811=ORIENTED_EDGE('',*,*,#482,.T.);
#812=ORIENTED_EDGE('',*,*,#557,.F.);
#813=ORIENTED_EDGE('',*,*,#464,.F.);
#814=CYLINDRICAL_SURFACE('',#889,0.3);
#815=CYLINDRICAL_SURFACE('',#893,0.3);
#816=CYLINDRICAL_SURFACE('',#897,0.3);
#817=CYLINDRICAL_SURFACE('',#901,0.3);
#818=CYLINDRICAL_SURFACE('',#913,0.3);
#819=CYLINDRICAL_SURFACE('',#934,1.25);
#820=CYLINDRICAL_SURFACE('',#949,0.84);
#821=CYLINDRICAL_SURFACE('',#951,0.410000000000003);
#822=CYLINDRICAL_SURFACE('',#953,0.84);
#823=CYLINDRICAL_SURFACE('',#966,0.3);
#824=CYLINDRICAL_SURFACE('',#968,0.3);
#825=CYLINDRICAL_SURFACE('',#970,0.3);
#826=CYLINDRICAL_SURFACE('',#971,0.3);
#827=CYLINDRICAL_SURFACE('',#973,0.3);
#828=ADVANCED_FACE('',(#53),#814,.F.);
#829=ADVANCED_FACE('',(#54),#28,.T.);
#830=ADVANCED_FACE('',(#55),#815,.F.);
#831=ADVANCED_FACE('',(#56),#29,.F.);
#832=ADVANCED_FACE('',(#57),#816,.F.);
#833=ADVANCED_FACE('',(#58),#30,.T.);
#834=ADVANCED_FACE('',(#59),#817,.T.);
#835=ADVANCED_FACE('',(#60),#31,.T.);
#836=ADVANCED_FACE('',(#61),#32,.T.);
#837=ADVANCED_FACE('',(#62),#33,.T.);
#838=ADVANCED_FACE('',(#63),#818,.T.);
#839=ADVANCED_FACE('',(#64,#27),#34,.F.);
#840=ADVANCED_FACE('',(#65),#35,.T.);
#841=ADVANCED_FACE('',(#66),#36,.T.);
#842=ADVANCED_FACE('',(#67),#15,.T.);
#843=ADVANCED_FACE('',(#68),#37,.T.);
#844=ADVANCED_FACE('',(#69),#38,.T.);
#845=ADVANCED_FACE('',(#70),#819,.T.);
#846=ADVANCED_FACE('',(#71),#39,.T.);
#847=ADVANCED_FACE('',(#72),#40,.T.);
#848=ADVANCED_FACE('',(#73),#16,.T.);
#849=ADVANCED_FACE('',(#74),#17,.F.);
#850=ADVANCED_FACE('',(#75),#18,.T.);
#851=ADVANCED_FACE('',(#76),#41,.T.);
#852=ADVANCED_FACE('',(#77),#42,.T.);
#853=ADVANCED_FACE('',(#78),#820,.T.);
#854=ADVANCED_FACE('',(#79),#821,.F.);
#855=ADVANCED_FACE('',(#80),#822,.T.);
#856=ADVANCED_FACE('',(#81),#43,.T.);
#857=ADVANCED_FACE('',(#82),#44,.T.);
#858=ADVANCED_FACE('',(#83),#19,.T.);
#859=ADVANCED_FACE('',(#84),#20,.F.);
#860=ADVANCED_FACE('',(#85),#21,.T.);
#861=ADVANCED_FACE('',(#86),#45,.T.);
#862=ADVANCED_FACE('',(#87),#46,.T.);
#863=ADVANCED_FACE('',(#88),#22,.T.);
#864=ADVANCED_FACE('',(#89),#47,.T.);
#865=ADVANCED_FACE('',(#90),#823,.T.);
#866=ADVANCED_FACE('',(#91),#48,.F.);
#867=ADVANCED_FACE('',(#92),#824,.T.);
#868=ADVANCED_FACE('',(#93),#49,.T.);
#869=ADVANCED_FACE('',(#94),#825,.T.);
#870=ADVANCED_FACE('',(#95),#826,.T.);
#871=ADVANCED_FACE('',(#96),#50,.T.);
#872=ADVANCED_FACE('',(#97),#827,.T.);
#873=ADVANCED_FACE('',(#98),#51,.T.);
#874=ADVANCED_FACE('',(#99),#52,.T.);
#875=CLOSED_SHELL('',(#828,#829,#830,#831,#832,#833,#834,#835,#836,#837,
#838,#839,#840,#841,#842,#843,#844,#845,#846,#847,#848,#849,#850,#851,#852,
#853,#854,#855,#856,#857,#858,#859,#860,#861,#862,#863,#864,#865,#866,#867,
#868,#869,#870,#871,#872,#873,#874));
#876=DERIVED_UNIT_ELEMENT(#878,1.);
#877=DERIVED_UNIT_ELEMENT(#1497,-3.);
#878=(
MASS_UNIT()
NAMED_UNIT(*)
SI_UNIT(.KILO.,.GRAM.)
);
#879=DERIVED_UNIT((#876,#877));
#880=MEASURE_REPRESENTATION_ITEM('density measure',
POSITIVE_RATIO_MEASURE(7850.),#879);
#881=PROPERTY_DEFINITION_REPRESENTATION(#886,#883);
#882=PROPERTY_DEFINITION_REPRESENTATION(#887,#884);
#883=REPRESENTATION('material name',(#885),#1494);
#884=REPRESENTATION('density',(#880),#1494);
#885=DESCRIPTIVE_REPRESENTATION_ITEM('Stahl','Stahl');
#886=PROPERTY_DEFINITION('material property','material name',#1504);
#887=PROPERTY_DEFINITION('material property','density of part',#1504);
#888=AXIS2_PLACEMENT_3D('',#1238,#976,#977);
#889=AXIS2_PLACEMENT_3D('',#1239,#978,#979);
#890=AXIS2_PLACEMENT_3D('',#1242,#980,#981);
#891=AXIS2_PLACEMENT_3D('',#1246,#983,#984);
#892=AXIS2_PLACEMENT_3D('',#1248,#986,#987);
#893=AXIS2_PLACEMENT_3D('',#1254,#991,#992);
#894=AXIS2_PLACEMENT_3D('',#1256,#993,#994);
#895=AXIS2_PLACEMENT_3D('',#1259,#996,#997);
#896=AXIS2_PLACEMENT_3D('',#1260,#998,#999);
#897=AXIS2_PLACEMENT_3D('',#1266,#1003,#1004);
#898=AXIS2_PLACEMENT_3D('',#1268,#1005,#1006);
#899=AXIS2_PLACEMENT_3D('',#1271,#1008,#1009);
#900=AXIS2_PLACEMENT_3D('',#1272,#1010,#1011);
#901=AXIS2_PLACEMENT_3D('',#1278,#1015,#1016);
#902=AXIS2_PLACEMENT_3D('',#1280,#1017,#1018);
#903=AXIS2_PLACEMENT_3D('',#1282,#1019,#1020);
#904=AXIS2_PLACEMENT_3D('',#1284,#1022,#1023);
#905=AXIS2_PLACEMENT_3D('',#1288,#1025,#1026);
#906=AXIS2_PLACEMENT_3D('',#1292,#1028,#1029);
#907=AXIS2_PLACEMENT_3D('',#1296,#1031,#1032);
#908=AXIS2_PLACEMENT_3D('',#1300,#1034,#1035);
#909=AXIS2_PLACEMENT_3D('',#1304,#1037,#1038);
#910=AXIS2_PLACEMENT_3D('',#1308,#1040,#1041);
#911=AXIS2_PLACEMENT_3D('',#1310,#1043,#1044);
#912=AXIS2_PLACEMENT_3D('',#1314,#1047,#1048);
#913=AXIS2_PLACEMENT_3D('',#1318,#1051,#1052);
#914=AXIS2_PLACEMENT_3D('',#1320,#1053,#1054);
#915=AXIS2_PLACEMENT_3D('',#1322,#1056,#1057);
#916=AXIS2_PLACEMENT_3D('',#1324,#1058,#1059);
#917=AXIS2_PLACEMENT_3D('',#1328,#1061,#1062);
#918=AXIS2_PLACEMENT_3D('',#1332,#1064,#1065);
#919=AXIS2_PLACEMENT_3D('',#1336,#1067,#1068);
#920=AXIS2_PLACEMENT_3D('',#1342,#1071,#1072);
#921=AXIS2_PLACEMENT_3D('',#1348,#1075,#1076);
#922=AXIS2_PLACEMENT_3D('',#1356,#1080,#1081);
#923=AXIS2_PLACEMENT_3D('',#1358,#1082,#1083);
#924=AXIS2_PLACEMENT_3D('',#1360,#1084,#1085);
#925=AXIS2_PLACEMENT_3D('',#1362,#1087,#1088);
#926=AXIS2_PLACEMENT_3D('',#1364,#1090,#1091);
#927=AXIS2_PLACEMENT_3D('',#1372,#1095,#1096);
#928=AXIS2_PLACEMENT_3D('',#1373,#1097,#1098);
#929=AXIS2_PLACEMENT_3D('',#1375,#1099,#1100);
#930=AXIS2_PLACEMENT_3D('',#1377,#1101,#1102);
#931=AXIS2_PLACEMENT_3D('',#1378,#1103,#1104);
#932=AXIS2_PLACEMENT_3D('',#1379,#1105,#1106);
#933=AXIS2_PLACEMENT_3D('',#1385,#1110,#1111);
#934=AXIS2_PLACEMENT_3D('',#1391,#1115,#1116);
#935=AXIS2_PLACEMENT_3D('',#1394,#1118,#1119);
#936=AXIS2_PLACEMENT_3D('',#1395,#1120,#1121);
#937=AXIS2_PLACEMENT_3D('',#1399,#1124,#1125);
#938=AXIS2_PLACEMENT_3D('',#1408,#1130,#1131);
#939=AXIS2_PLACEMENT_3D('',#1410,#1132,#1133);
#940=AXIS2_PLACEMENT_3D('',#1413,#1135,#1136);
#941=AXIS2_PLACEMENT_3D('',#1414,#1137,#1138);
#942=AXIS2_PLACEMENT_3D('',#1418,#1140,#1141);
#943=AXIS2_PLACEMENT_3D('',#1419,#1142,#1143);
#944=AXIS2_PLACEMENT_3D('',#1420,#1144,#1145);
#945=AXIS2_PLACEMENT_3D('',#1422,#1146,#1147);
#946=AXIS2_PLACEMENT_3D('',#1425,#1149,#1150);
#947=AXIS2_PLACEMENT_3D('',#1426,#1151,#1152);
#948=AXIS2_PLACEMENT_3D('',#1432,#1156,#1157);
#949=AXIS2_PLACEMENT_3D('',#1438,#1161,#1162);
#950=AXIS2_PLACEMENT_3D('',#1441,#1164,#1165);
#951=AXIS2_PLACEMENT_3D('',#1442,#1166,#1167);
#952=AXIS2_PLACEMENT_3D('',#1445,#1169,#1170);
#953=AXIS2_PLACEMENT_3D('',#1446,#1171,#1172);
#954=AXIS2_PLACEMENT_3D('',#1449,#1174,#1175);
#955=AXIS2_PLACEMENT_3D('',#1450,#1176,#1177);
#956=AXIS2_PLACEMENT_3D('',#1454,#1180,#1181);
#957=AXIS2_PLACEMENT_3D('',#1457,#1184,#1185);
#958=AXIS2_PLACEMENT_3D('',#1459,#1187,#1188);
#959=AXIS2_PLACEMENT_3D('',#1461,#1190,#1191);
#960=AXIS2_PLACEMENT_3D('',#1463,#1193,#1194);
#961=AXIS2_PLACEMENT_3D('',#1465,#1196,#1197);
#962=AXIS2_PLACEMENT_3D('',#1467,#1199,#1200);
#963=AXIS2_PLACEMENT_3D('',#1468,#1201,#1202);
#964=AXIS2_PLACEMENT_3D('',#1469,#1203,#1204);
#965=AXIS2_PLACEMENT_3D('',#1470,#1205,#1206);
#966=AXIS2_PLACEMENT_3D('',#1472,#1208,#1209);
#967=AXIS2_PLACEMENT_3D('',#1475,#1212,#1213);
#968=AXIS2_PLACEMENT_3D('',#1479,#1217,#1218);
#969=AXIS2_PLACEMENT_3D('',#1482,#1221,#1222);
#970=AXIS2_PLACEMENT_3D('',#1484,#1224,#1225);
#971=AXIS2_PLACEMENT_3D('',#1486,#1227,#1228);
#972=AXIS2_PLACEMENT_3D('',#1488,#1230,#1231);
#973=AXIS2_PLACEMENT_3D('',#1489,#1232,#1233);
#974=AXIS2_PLACEMENT_3D('',#1490,#1234,#1235);
#975=AXIS2_PLACEMENT_3D('',#1491,#1236,#1237);
#976=DIRECTION('axis',(0.,0.,1.));
#977=DIRECTION('refdir',(1.,0.,0.));
#978=DIRECTION('center_axis',(0.,0.,-1.));
#979=DIRECTION('ref_axis',(-0.707106781186547,0.707106781186548,0.));
#980=DIRECTION('center_axis',(0.,0.,1.));
#981=DIRECTION('ref_axis',(-0.707106781186547,0.707106781186548,0.));
#982=DIRECTION('',(0.,0.,-1.));
#983=DIRECTION('center_axis',(0.,0.,-1.));
#984=DIRECTION('ref_axis',(-0.707106781186547,0.707106781186548,0.));
#985=DIRECTION('',(0.,0.,1.));
#986=DIRECTION('center_axis',(1.,0.,0.));
#987=DIRECTION('ref_axis',(0.,0.,1.));
#988=DIRECTION('',(0.,-1.,0.));
#989=DIRECTION('',(0.,0.,1.));
#990=DIRECTION('',(0.,-1.,0.));
#991=DIRECTION('center_axis',(0.,0.,-1.));
#992=DIRECTION('ref_axis',(-0.707106781186547,-0.707106781186547,0.));
#993=DIRECTION('center_axis',(0.,0.,1.));
#994=DIRECTION('ref_axis',(-0.707106781186547,-0.707106781186547,0.));
#995=DIRECTION('',(0.,0.,-1.));
#996=DIRECTION('center_axis',(0.,0.,-1.));
#997=DIRECTION('ref_axis',(-0.707106781186547,-0.707106781186547,0.));
#998=DIRECTION('center_axis',(0.,-1.,0.));
#999=DIRECTION('ref_axis',(0.,0.,-1.));
#1000=DIRECTION('',(-1.,0.,0.));
#1001=DIRECTION('',(0.,0.,1.));
#1002=DIRECTION('',(-1.,0.,0.));
#1003=DIRECTION('center_axis',(0.,0.,-1.));
#1004=DIRECTION('ref_axis',(0.707106781186547,-0.707106781186547,0.));
#1005=DIRECTION('center_axis',(0.,0.,1.));
#1006=DIRECTION('ref_axis',(0.707106781186547,-0.707106781186547,0.));
#1007=DIRECTION('',(0.,0.,-1.));
#1008=DIRECTION('center_axis',(0.,0.,-1.));
#1009=DIRECTION('ref_axis',(0.707106781186547,-0.707106781186547,0.));
#1010=DIRECTION('center_axis',(-1.,0.,0.));
#1011=DIRECTION('ref_axis',(0.,0.,1.));
#1012=DIRECTION('',(0.,1.,0.));
#1013=DIRECTION('',(0.,0.,1.));
#1014=DIRECTION('',(0.,1.,0.));
#1015=DIRECTION('center_axis',(0.,0.,-1.));
#1016=DIRECTION('ref_axis',(-0.707106781186547,0.707106781186547,0.));
#1017=DIRECTION('center_axis',(0.,0.,1.));
#1018=DIRECTION('ref_axis',(-0.707106781186547,0.707106781186547,0.));
#1019=DIRECTION('center_axis',(0.,0.,-1.));
#1020=DIRECTION('ref_axis',(-0.707106781186547,0.707106781186547,0.));
#1021=DIRECTION('',(0.,0.,-1.));
#1022=DIRECTION('center_axis',(0.,0.,1.));
#1023=DIRECTION('ref_axis',(1.,0.,0.));
#1024=DIRECTION('',(-1.,0.,0.));
#1025=DIRECTION('center_axis',(0.,0.,-1.));
#1026=DIRECTION('ref_axis',(0.707106781186547,-0.707106781186548,0.));
#1027=DIRECTION('',(0.,-1.,0.));
#1028=DIRECTION('center_axis',(0.,0.,-1.));
#1029=DIRECTION('ref_axis',(0.707106781186548,0.707106781186547,0.));
#1030=DIRECTION('',(-1.,0.,0.));
#1031=DIRECTION('center_axis',(0.,0.,-1.));
#1032=DIRECTION('ref_axis',(-0.707106781186548,0.707106781186547,0.));
#1033=DIRECTION('',(0.,1.,0.));
#1034=DIRECTION('center_axis',(0.,0.,-1.));
#1035=DIRECTION('ref_axis',(-0.707106781186547,-0.707106781186547,0.));
#1036=DIRECTION('',(-1.,0.,0.));
#1037=DIRECTION('center_axis',(0.,0.,-1.));
#1038=DIRECTION('ref_axis',(0.707106781186547,-0.707106781186547,0.));
#1039=DIRECTION('',(0.,-1.,0.));
#1040=DIRECTION('center_axis',(0.,0.,-1.));
#1041=DIRECTION('ref_axis',(0.707106781186547,0.707106781186547,0.));
#1042=DIRECTION('',(1.,0.,0.));
#1043=DIRECTION('center_axis',(0.,-1.,0.));
#1044=DIRECTION('ref_axis',(0.,0.,-1.));
#1045=DIRECTION('',(-1.,0.,0.));
#1046=DIRECTION('',(0.,0.,-1.));
#1047=DIRECTION('center_axis',(0.,1.,0.));
#1048=DIRECTION('ref_axis',(0.,0.,1.));
#1049=DIRECTION('',(0.,0.,1.));
#1050=DIRECTION('',(1.,0.,0.));
#1051=DIRECTION('center_axis',(0.,0.,1.));
#1052=DIRECTION('ref_axis',(0.707106781186547,-0.707106781186548,0.));
#1053=DIRECTION('center_axis',(0.,0.,1.));
#1054=DIRECTION('ref_axis',(0.707106781186547,-0.707106781186548,0.));
#1055=DIRECTION('',(0.,0.,1.));
#1056=DIRECTION('center_axis',(0.,0.,1.));
#1057=DIRECTION('ref_axis',(1.,0.,0.));
#1058=DIRECTION('center_axis',(0.,0.,1.));
#1059=DIRECTION('ref_axis',(0.707106781186547,0.707106781186547,0.));
#1060=DIRECTION('',(0.,-1.,0.));
#1061=DIRECTION('center_axis',(0.,0.,1.));
#1062=DIRECTION('ref_axis',(0.707106781186547,-0.707106781186547,0.));
#1063=DIRECTION('',(-1.,0.,0.));
#1064=DIRECTION('center_axis',(0.,0.,1.));
#1065=DIRECTION('ref_axis',(-0.707106781186547,-0.707106781186547,0.));
#1066=DIRECTION('',(0.,1.,0.));
#1067=DIRECTION('center_axis',(0.,0.,1.));
#1068=DIRECTION('ref_axis',(-0.707106781186548,0.707106781186547,0.));
#1069=DIRECTION('',(1.,0.,0.));
#1070=DIRECTION('',(-5.78241158658938E-16,-1.,0.));
#1071=DIRECTION('center_axis',(0.,0.,1.));
#1072=DIRECTION('ref_axis',(-0.799999999999998,0.600000000000002,0.));
#1073=DIRECTION('',(-2.31296463463575E-16,1.,0.));
#1074=DIRECTION('',(1.,0.,0.));
#1075=DIRECTION('center_axis',(0.,0.,1.));
#1076=DIRECTION('ref_axis',(0.707106781186548,0.707106781186547,0.));
#1077=DIRECTION('',(0.,-1.,0.));
#1078=DIRECTION('',(1.,0.,0.));
#1079=DIRECTION('',(2.2429439142417E-16,-1.,0.));
#1080=DIRECTION('center_axis',(0.,0.,1.));
#1081=DIRECTION('ref_axis',(-0.938083151964685,0.346410161513777,0.));
#1082=DIRECTION('center_axis',(0.,0.,-1.));
#1083=DIRECTION('ref_axis',(-0.545454545454542,0.838140405208447,0.));
#1084=DIRECTION('center_axis',(0.,0.,1.));
#1085=DIRECTION('ref_axis',(0.938083151964685,0.346410161513777,0.));
#1086=DIRECTION('',(5.83165417702843E-16,1.,0.));
#1087=DIRECTION('center_axis',(1.,0.,0.));
#1088=DIRECTION('ref_axis',(0.,0.,1.));
#1089=DIRECTION('',(0.,0.,-1.));
#1090=DIRECTION('center_axis',(-0.707106781186548,4.08878244448902E-16,
0.707106781186547));
#1091=DIRECTION('ref_axis',(0.707106781186547,2.46519032881566E-32,0.707106781186548));
#1092=DIRECTION('',(-5.78241158658938E-16,-1.,0.));
#1093=DIRECTION('',(-0.707106781186547,0.,-0.707106781186548));
#1094=DIRECTION('',(5.78241158658938E-16,1.,0.));
#1095=DIRECTION('center_axis',(0.707106781186527,1.11107956588223E-13,-0.707106781186568));
#1096=DIRECTION('ref_axis',(0.707094712925184,0.00584242300422558,0.707094712925143));
#1097=DIRECTION('center_axis',(0.,0.,-1.));
#1098=DIRECTION('ref_axis',(-1.81014623580188E-16,1.,0.));
#1099=DIRECTION('center_axis',(0.,0.,-1.));
#1100=DIRECTION('ref_axis',(-0.799999999999998,0.600000000000002,0.));
#1101=DIRECTION('center_axis',(0.707106781186642,4.99985804644671E-13,0.707106781186453));
#1102=DIRECTION('ref_axis',(0.70709471292554,-0.00584242289068226,-0.707094712925726));
#1103=DIRECTION('center_axis',(0.,0.,1.));
#1104=DIRECTION('ref_axis',(-0.799999999999998,0.600000000000003,0.));
#1105=DIRECTION('center_axis',(0.707106781186548,1.63551297779561E-16,0.707106781186548));
#1106=DIRECTION('ref_axis',(0.707106781186548,0.,-0.707106781186548));
#1107=DIRECTION('',(2.31296463463575E-16,-1.,0.));
#1108=DIRECTION('',(-0.707106781186547,0.,0.707106781186547));
#1109=DIRECTION('',(-2.31296463463575E-16,1.,0.));
#1110=DIRECTION('center_axis',(-1.,5.78241158658938E-16,0.));
#1111=DIRECTION('ref_axis',(-5.78241158658938E-16,-1.,0.));
#1112=DIRECTION('',(0.,0.,1.));
#1113=DIRECTION('',(5.78241158658938E-16,1.,0.));
#1114=DIRECTION('',(0.,0.,1.));
#1115=DIRECTION('center_axis',(0.,0.,1.));
#1116=DIRECTION('ref_axis',(2.22044604925031E-16,1.,0.));
#1117=DIRECTION('',(0.,0.,1.));
#1118=DIRECTION('center_axis',(0.,0.,-1.));
#1119=DIRECTION('ref_axis',(-0.799999999999998,0.600000000000003,0.));
#1120=DIRECTION('center_axis',(1.,2.31296463463575E-16,0.));
#1121=DIRECTION('ref_axis',(-2.31296463463575E-16,1.,0.));
#1122=DIRECTION('',(0.,0.,-1.));
#1123=DIRECTION('',(2.31296463463575E-16,-1.,0.));
#1124=DIRECTION('center_axis',(0.707106781186548,-4.12360221411166E-16,
0.707106781186547));
#1125=DIRECTION('ref_axis',(0.707106781186547,0.,-0.707106781186548));
#1126=DIRECTION('',(-0.707106781186547,0.,0.707106781186548));
#1127=DIRECTION('',(5.83165417702843E-16,1.,0.));
#1128=DIRECTION('',(-0.707106781186547,0.,0.707106781186548));
#1129=DIRECTION('',(-5.83165417702843E-16,-1.,0.));
#1130=DIRECTION('center_axis',(0.,0.,-1.));
#1131=DIRECTION('ref_axis',(0.938083151964686,0.346410161513777,0.));
#1132=DIRECTION('center_axis',(0.,0.,1.));
#1133=DIRECTION('ref_axis',(0.938083151964686,0.346410161513777,0.));
#1134=DIRECTION('',(-0.537401153701774,-0.459565011723044,0.707106781186548));
#1135=DIRECTION('center_axis',(0.,0.,-1.));
#1136=DIRECTION('ref_axis',(0.938083151964685,0.346410161513777,0.));
#1137=DIRECTION('center_axis',(0.,0.,1.));
#1138=DIRECTION('ref_axis',(-0.545454545454542,0.838140405208446,0.));
#1139=DIRECTION('',(0.537401153701775,-0.459565011723043,0.707106781186548));
#1140=DIRECTION('center_axis',(0.,0.,1.));
#1141=DIRECTION('ref_axis',(-0.545454545454542,0.838140405208447,0.));
#1142=DIRECTION('center_axis',(0.,0.,-1.));
#1143=DIRECTION('ref_axis',(-0.545454545454542,0.838140405208446,0.));
#1144=DIRECTION('center_axis',(0.,0.,-1.));
#1145=DIRECTION('ref_axis',(-0.938083151964686,0.346410161513777,0.));
#1146=DIRECTION('center_axis',(0.,0.,1.));
#1147=DIRECTION('ref_axis',(-0.938083151964686,0.346410161513777,0.));
#1148=DIRECTION('',(0.707106781186547,0.,0.707106781186548));
#1149=DIRECTION('center_axis',(0.,0.,-1.));
#1150=DIRECTION('ref_axis',(-0.938083151964685,0.346410161513777,0.));
#1151=DIRECTION('center_axis',(-0.707106781186548,-1.58600085158141E-16,
0.707106781186547));
#1152=DIRECTION('ref_axis',(0.707106781186547,0.,0.707106781186548));
#1153=DIRECTION('',(-0.707106781186547,0.,-0.707106781186548));
#1154=DIRECTION('',(-2.2429439142417E-16,1.,0.));
#1155=DIRECTION('',(2.2429439142417E-16,-1.,0.));
#1156=DIRECTION('center_axis',(-1.,-2.2429439142417E-16,0.));
#1157=DIRECTION('ref_axis',(2.2429439142417E-16,-1.,0.));
#1158=DIRECTION('',(0.,0.,1.));
#1159=DIRECTION('',(-2.2429439142417E-16,1.,0.));
#1160=DIRECTION('',(0.,0.,1.));
#1161=DIRECTION('center_axis',(0.,0.,1.));
#1162=DIRECTION('ref_axis',(-0.938083151964686,0.346410161513777,0.));
#1163=DIRECTION('',(0.,0.,-1.));
#1164=DIRECTION('center_axis',(0.,0.,-1.));
#1165=DIRECTION('ref_axis',(-0.938083151964686,0.346410161513777,0.));
#1166=DIRECTION('center_axis',(0.,0.,1.));
#1167=DIRECTION('ref_axis',(4.23103286823608E-16,1.,0.));
#1168=DIRECTION('',(0.,0.,1.));
#1169=DIRECTION('center_axis',(0.,0.,1.));
#1170=DIRECTION('ref_axis',(-0.545454545454542,0.838140405208446,0.));
#1171=DIRECTION('center_axis',(0.,0.,-1.));
#1172=DIRECTION('ref_axis',(0.938083151964686,0.346410161513777,0.));
#1173=DIRECTION('',(0.,0.,-1.));
#1174=DIRECTION('center_axis',(0.,0.,-1.));
#1175=DIRECTION('ref_axis',(0.938083151964686,0.346410161513777,0.));
#1176=DIRECTION('center_axis',(1.,-5.83165417702843E-16,0.));
#1177=DIRECTION('ref_axis',(5.83165417702843E-16,1.,0.));
#1178=DIRECTION('',(0.,0.,-1.));
#1179=DIRECTION('',(-5.83165417702843E-16,-1.,0.));
#1180=DIRECTION('center_axis',(0.707106781186547,-4.12360221411165E-16,
-0.707106781186548));
#1181=DIRECTION('ref_axis',(-0.707106781186548,0.,-0.707106781186547));
#1182=DIRECTION('',(0.707106781186548,0.,0.707106781186547));
#1183=DIRECTION('',(0.707106781186548,0.,0.707106781186547));
#1184=DIRECTION('center_axis',(0.,0.,1.));
#1185=DIRECTION('ref_axis',(0.938083151964686,0.346410161513777,0.));
#1186=DIRECTION('',(0.537401153701774,0.459565011723044,0.707106781186548));
#1187=DIRECTION('center_axis',(0.,0.,-1.));
#1188=DIRECTION('ref_axis',(-0.545454545454542,0.838140405208446,0.));
#1189=DIRECTION('',(-0.537401153701775,0.459565011723044,0.707106781186547));
#1190=DIRECTION('center_axis',(0.,0.,1.));
#1191=DIRECTION('ref_axis',(-0.938083151964686,0.346410161513777,0.));
#1192=DIRECTION('',(-0.707106781186548,0.,0.707106781186547));
#1193=DIRECTION('center_axis',(-0.707106781186547,-1.58600085158141E-16,
-0.707106781186548));
#1194=DIRECTION('ref_axis',(-0.707106781186548,0.,0.707106781186547));
#1195=DIRECTION('',(0.707106781186548,0.,-0.707106781186547));
#1196=DIRECTION('center_axis',(0.707106781186547,1.63551297779561E-16,-0.707106781186548));
#1197=DIRECTION('ref_axis',(-0.707106781186548,0.,-0.707106781186547));
#1198=DIRECTION('',(0.707106781186548,0.,0.707106781186547));
#1199=DIRECTION('center_axis',(-0.707106781186487,3.05546880617053E-13,
0.707106781186608));
#1200=DIRECTION('ref_axis',(0.707094712926596,-0.00584242267178314,0.707094712926478));
#1201=DIRECTION('center_axis',(0.,0.,1.));
#1202=DIRECTION('ref_axis',(-1.81014623580188E-16,1.,0.));
#1203=DIRECTION('center_axis',(-0.707106781186765,1.11107956588421E-12,
-0.70710678118633));
#1204=DIRECTION('ref_axis',(0.707094712925821,0.0058424227934503,-0.707094712926248));
#1205=DIRECTION('center_axis',(-0.707106781186547,4.08878244448901E-16,
-0.707106781186548));
#1206=DIRECTION('ref_axis',(-0.707106781186548,2.46519032881566E-32,0.707106781186547));
#1207=DIRECTION('',(0.707106781186548,0.,-0.707106781186547));
#1208=DIRECTION('center_axis',(0.,0.,1.));
#1209=DIRECTION('ref_axis',(-0.707106781186548,0.707106781186547,0.));
#1210=DIRECTION('',(0.,0.,-1.));
#1211=DIRECTION('',(0.,0.,1.));
#1212=DIRECTION('center_axis',(0.,-1.,0.));
#1213=DIRECTION('ref_axis',(1.,0.,0.));
#1214=DIRECTION('',(0.,0.,1.));
#1215=DIRECTION('',(1.,0.,0.));
#1216=DIRECTION('',(1.,0.,0.));
#1217=DIRECTION('center_axis',(0.,0.,1.));
#1218=DIRECTION('ref_axis',(-0.707106781186547,-0.707106781186547,0.));
#1219=DIRECTION('',(0.,0.,-1.));
#1220=DIRECTION('',(0.,0.,1.));
#1221=DIRECTION('center_axis',(0.,-1.,0.));
#1222=DIRECTION('ref_axis',(0.,0.,-1.));
#1223=DIRECTION('',(0.,0.,-1.));
#1224=DIRECTION('center_axis',(0.,0.,1.));
#1225=DIRECTION('ref_axis',(0.707106781186547,-0.707106781186547,0.));
#1226=DIRECTION('',(0.,0.,1.));
#1227=DIRECTION('center_axis',(0.,0.,1.));
#1228=DIRECTION('ref_axis',(0.707106781186547,0.707106781186547,0.));
#1229=DIRECTION('',(0.,0.,-1.));
#1230=DIRECTION('center_axis',(1.,0.,0.));
#1231=DIRECTION('ref_axis',(0.,0.,1.));
#1232=DIRECTION('center_axis',(0.,0.,1.));
#1233=DIRECTION('ref_axis',(0.707106781186548,0.707106781186547,0.));
#1234=DIRECTION('center_axis',(0.,0.,1.));
#1235=DIRECTION('ref_axis',(1.,0.,0.));
#1236=DIRECTION('center_axis',(-1.,0.,0.));
#1237=DIRECTION('ref_axis',(0.,0.,-1.));
#1238=CARTESIAN_POINT('',(0.,0.,0.));
#1239=CARTESIAN_POINT('Origin',(1.2,3.3,-0.34999998473392));
#1240=CARTESIAN_POINT('',(1.2,3.6,2.9));
#1241=CARTESIAN_POINT('',(0.9,3.3,2.9));
#1242=CARTESIAN_POINT('Origin',(1.2,3.3,2.9));
#1243=CARTESIAN_POINT('',(0.9,3.3,0.));
#1244=CARTESIAN_POINT('',(0.9,3.3,-0.34999998473392));
#1245=CARTESIAN_POINT('',(1.2,3.6,0.));
#1246=CARTESIAN_POINT('Origin',(1.2,3.3,0.));
#1247=CARTESIAN_POINT('',(1.2,3.6,-0.34999998473392));
#1248=CARTESIAN_POINT('Origin',(0.9,3.8,-1.09999998224026));
#1249=CARTESIAN_POINT('',(0.9,1.2,2.9));
#1250=CARTESIAN_POINT('',(0.9,4.0525,2.9));
#1251=CARTESIAN_POINT('',(0.9,1.2,0.));
#1252=CARTESIAN_POINT('',(0.9,1.2,-0.349999978347708));
#1253=CARTESIAN_POINT('',(0.9,5.2,0.));
#1254=CARTESIAN_POINT('Origin',(1.2,1.2,-0.349999978347708));
#1255=CARTESIAN_POINT('',(1.2,0.9,2.9));
#1256=CARTESIAN_POINT('Origin',(1.2,1.2,2.9));
#1257=CARTESIAN_POINT('',(1.2,0.9,0.));
#1258=CARTESIAN_POINT('',(1.2,0.9,-0.349999978347708));
#1259=CARTESIAN_POINT('Origin',(1.2,1.2,0.));
#1260=CARTESIAN_POINT('Origin',(4.,0.9,0.40000002554485));
#1261=CARTESIAN_POINT('',(6.80000005960464,0.9,2.9));
#1262=CARTESIAN_POINT('',(4.125,0.9,2.9));
#1263=CARTESIAN_POINT('',(6.80000005960464,0.9,0.));
#1264=CARTESIAN_POINT('',(6.80000005960464,0.9,-0.349999974455152));
#1265=CARTESIAN_POINT('',(4.,0.9,0.));
#1266=CARTESIAN_POINT('Origin',(6.80000005960464,1.2,-0.349999974455152));
#1267=CARTESIAN_POINT('',(7.10000005960465,1.2,2.9));
#1268=CARTESIAN_POINT('Origin',(6.80000005960464,1.2,2.9));
#1269=CARTESIAN_POINT('',(7.10000005960465,1.2,0.));
#1270=CARTESIAN_POINT('',(7.10000005960465,1.2,-0.349999974455152));
#1271=CARTESIAN_POINT('Origin',(6.80000005960464,1.2,0.));
#1272=CARTESIAN_POINT('Origin',(7.10000005960465,2.3,-1.09999997445515));
#1273=CARTESIAN_POINT('',(7.10000005960465,2.95,2.9));
#1274=CARTESIAN_POINT('',(7.10000005960465,3.3025,2.9));
#1275=CARTESIAN_POINT('',(7.10000005960465,2.95,0.));
#1276=CARTESIAN_POINT('',(7.10000005960465,2.95,-0.349999969665493));
#1277=CARTESIAN_POINT('',(7.10000005960465,4.45,0.));
#1278=CARTESIAN_POINT('Origin',(7.40000005960465,2.95,-0.349999969665493));
#1279=CARTESIAN_POINT('',(7.40000005960465,3.25,0.));
#1280=CARTESIAN_POINT('Origin',(7.40000005960465,2.95,0.));
#1281=CARTESIAN_POINT('',(7.40000005960465,3.25,2.9));
#1282=CARTESIAN_POINT('Origin',(7.40000005960465,2.95,2.9));
#1283=CARTESIAN_POINT('',(7.40000005960465,3.25,-0.349999969665493));
#1284=CARTESIAN_POINT('Origin',(4.25,4.305,2.9));
#1285=CARTESIAN_POINT('',(7.7,3.6,2.9));
#1286=CARTESIAN_POINT('',(4.125,3.6,2.9));
#1287=CARTESIAN_POINT('',(8.,3.9,2.9));
#1288=CARTESIAN_POINT('Origin',(7.7,3.9,2.9));
#1289=CARTESIAN_POINT('',(8.,4.5,2.9));
#1290=CARTESIAN_POINT('',(8.,4.5525,2.9));
#1291=CARTESIAN_POINT('',(7.7,4.8,2.9));
#1292=CARTESIAN_POINT('Origin',(7.7,4.5,2.9));
#1293=CARTESIAN_POINT('',(0.299999999999999,4.8,2.9));
#1294=CARTESIAN_POINT('',(9.,4.8,2.9));
#1295=CARTESIAN_POINT('',(0.,4.5,2.9));
#1296=CARTESIAN_POINT('Origin',(0.299999999999999,4.5,2.9));
#1297=CARTESIAN_POINT('',(0.,0.3,2.9));
#1298=CARTESIAN_POINT('',(0.,4.5525,2.9));
#1299=CARTESIAN_POINT('',(0.299999999999999,5.55111512312578E-16,2.9));
#1300=CARTESIAN_POINT('Origin',(0.299999999999999,0.3,2.9));
#1301=CARTESIAN_POINT('',(7.7,5.55111512312578E-16,2.9));
#1302=CARTESIAN_POINT('',(4.125,5.55111512312578E-16,2.9));
#1303=CARTESIAN_POINT('',(8.,0.3,2.9));
#1304=CARTESIAN_POINT('Origin',(7.7,0.3,2.9));
#1305=CARTESIAN_POINT('',(8.,2.95,2.9));
#1306=CARTESIAN_POINT('',(8.,3.3025,2.9));
#1307=CARTESIAN_POINT('',(7.7,3.25,2.9));
#1308=CARTESIAN_POINT('Origin',(7.7,2.95,2.9));
#1309=CARTESIAN_POINT('',(6.37500001490116,3.25,2.9));
#1310=CARTESIAN_POINT('Origin',(4.,3.6,0.40000001277242));
#1311=CARTESIAN_POINT('',(7.7,3.6,0.));
#1312=CARTESIAN_POINT('',(4.,3.6,0.));
#1313=CARTESIAN_POINT('',(7.7,3.6,-0.349999980841364));
#1314=CARTESIAN_POINT('Origin',(8.50000002980232,3.25,0.40000003512417));
#1315=CARTESIAN_POINT('',(7.7,3.25,0.));
#1316=CARTESIAN_POINT('',(7.7,3.25,-0.349999969665494));
#1317=CARTESIAN_POINT('',(6.25000001490116,3.25,0.));
#1318=CARTESIAN_POINT('Origin',(7.7,3.9,-0.349999980841364));
#1319=CARTESIAN_POINT('',(8.,3.9,0.));
#1320=CARTESIAN_POINT('Origin',(7.7,3.9,0.));
#1321=CARTESIAN_POINT('',(8.,3.9,-0.349999980841364));
#1322=CARTESIAN_POINT('Origin',(4.,6.6,0.));
#1323=CARTESIAN_POINT('',(8.,2.95,0.));
#1324=CARTESIAN_POINT('Origin',(7.7,2.95,0.));
#1325=CARTESIAN_POINT('',(8.,0.3,0.));
#1326=CARTESIAN_POINT('',(8.,4.45,0.));
#1327=CARTESIAN_POINT('',(7.7,5.55111512312578E-16,0.));
#1328=CARTESIAN_POINT('Origin',(7.7,0.3,0.));
#1329=CARTESIAN_POINT('',(0.299999999999999,5.55111512312578E-16,0.));
#1330=CARTESIAN_POINT('',(4.,5.55111512312578E-16,0.));
#1331=CARTESIAN_POINT('',(0.,0.3,0.));
#1332=CARTESIAN_POINT('Origin',(0.299999999999999,0.3,0.));
#1333=CARTESIAN_POINT('',(0.,4.5,0.));
#1334=CARTESIAN_POINT('',(0.,5.7,0.));
#1335=CARTESIAN_POINT('',(0.299999999999999,4.8,0.));
#1336=CARTESIAN_POINT('Origin',(0.299999999999999,4.5,0.));
#1337=CARTESIAN_POINT('',(3.25,4.8,0.));
#1338=CARTESIAN_POINT('',(4.,4.8,0.));
#1339=CARTESIAN_POINT('',(3.25,6.16515307716504,0.));
#1340=CARTESIAN_POINT('',(3.25,6.3,0.));
#1341=CARTESIAN_POINT('',(4.75,6.16515307716504,0.));
#1342=CARTESIAN_POINT('Origin',(4.,6.9,0.));
#1343=CARTESIAN_POINT('',(4.75,4.8,0.));
#1344=CARTESIAN_POINT('',(4.75,5.7,0.));
#1345=CARTESIAN_POINT('',(7.7,4.8,0.));
#1346=CARTESIAN_POINT('',(4.,4.8,0.));
#1347=CARTESIAN_POINT('',(8.,4.5,0.));
#1348=CARTESIAN_POINT('Origin',(7.7,4.5,0.));
#1349=CARTESIAN_POINT('',(8.,5.7,0.));
#1350=CARTESIAN_POINT('',(3.69,4.8,0.));
#1351=CARTESIAN_POINT('',(4.31,4.8,0.));
#1352=CARTESIAN_POINT('',(4.,4.8,0.));
#1353=CARTESIAN_POINT('',(4.31,6.0875961595364,0.));
#1354=CARTESIAN_POINT('',(4.31,6.47341366628121,0.));
#1355=CARTESIAN_POINT('',(4.4636,6.50354692585376,0.));
#1356=CARTESIAN_POINT('Origin',(4.95,6.0875961595364,0.));
#1357=CARTESIAN_POINT('',(3.5364,6.50354692585376,0.));
#1358=CARTESIAN_POINT('Origin',(4.,6.9,0.));
#1359=CARTESIAN_POINT('',(3.69,6.0875961595364,0.));
#1360=CARTESIAN_POINT('Origin',(3.05,6.0875961595364,0.));
#1361=CARTESIAN_POINT('',(3.69,5.7,0.));
#1362=CARTESIAN_POINT('Origin',(8.,4.8,-1.09999997445515));
#1363=CARTESIAN_POINT('',(8.,4.5,-0.349999980841364));
#1364=CARTESIAN_POINT('Origin',(3.15,6.3,1.8));
#1365=CARTESIAN_POINT('',(3.05,6.0875961595364,1.7));
#1366=CARTESIAN_POINT('',(3.05,4.8,1.7));
#1367=CARTESIAN_POINT('',(3.05,6.3,1.7));
#1368=CARTESIAN_POINT('',(3.25,4.8,1.9));
#1369=CARTESIAN_POINT('',(3.01250000319311,4.8,1.66250000319311));
#1370=CARTESIAN_POINT('',(3.25,6.16515307716504,1.9));
#1371=CARTESIAN_POINT('',(3.25,6.3,1.9));
#1372=CARTESIAN_POINT('Origin',(-87.8976045722837,6.13257460622513,-89.2476045722783));
#1373=CARTESIAN_POINT('Origin',(4.,6.9,1.8));
#1374=CARTESIAN_POINT('',(4.75,6.16515307716504,1.9));
#1375=CARTESIAN_POINT('Origin',(4.,6.9,1.9));
#1376=CARTESIAN_POINT('',(4.95,6.0875961595364,1.7));
#1377=CARTESIAN_POINT('Origin',(95.8976065508792,6.13257460475687,-89.2476065509037));
#1378=CARTESIAN_POINT('Origin',(4.,6.9,1.7));
#1379=CARTESIAN_POINT('Origin',(4.85,5.7,1.8));
#1380=CARTESIAN_POINT('',(4.75,4.8,1.9));
#1381=CARTESIAN_POINT('',(4.75,5.7,1.9));
#1382=CARTESIAN_POINT('',(4.95,4.8,1.7));
#1383=CARTESIAN_POINT('',(4.98749999680689,4.8,1.66250000319311));
#1384=CARTESIAN_POINT('',(4.95,5.7,1.7));
#1385=CARTESIAN_POINT('Origin',(3.05,5.99999999999999,-1.1));
#1386=CARTESIAN_POINT('',(3.05,6.0875961595364,0.2));
#1387=CARTESIAN_POINT('',(3.05,6.0875961595364,-1.1));
#1388=CARTESIAN_POINT('',(3.05,4.8,0.2));
#1389=CARTESIAN_POINT('',(3.05,6.3,0.2));
#1390=CARTESIAN_POINT('',(3.05,4.8,-0.349999993613788));
#1391=CARTESIAN_POINT('Origin',(4.,6.9,-1.1));
#1392=CARTESIAN_POINT('',(4.95,6.0875961595364,0.2));
#1393=CARTESIAN_POINT('',(4.95,6.0875961595364,-1.1));
#1394=CARTESIAN_POINT('Origin',(4.,6.9,0.2));
#1395=CARTESIAN_POINT('Origin',(4.95,4.8,-1.1));
#1396=CARTESIAN_POINT('',(4.95,4.8,0.2));
#1397=CARTESIAN_POINT('',(4.95,4.8,-0.349999993613788));
#1398=CARTESIAN_POINT('',(4.95,5.7,0.2));
#1399=CARTESIAN_POINT('Origin',(3.79,5.7,1.8));
#1400=CARTESIAN_POINT('',(3.69,4.8,1.9));
#1401=CARTESIAN_POINT('',(3.89,4.8,1.7));
#1402=CARTESIAN_POINT('',(4.19249999680689,4.8,1.39750000319311));
#1403=CARTESIAN_POINT('',(3.89,6.0875961595364,1.7));
#1404=CARTESIAN_POINT('',(3.89,5.7,1.7));
#1405=CARTESIAN_POINT('',(3.69,6.0875961595364,1.9));
#1406=CARTESIAN_POINT('',(3.89,6.0875961595364,1.7));
#1407=CARTESIAN_POINT('',(3.69,5.7,1.9));
#1408=CARTESIAN_POINT('Origin',(3.05,6.0875961595364,1.8));
#1409=CARTESIAN_POINT('',(3.6884,6.63353154032794,1.7));
#1410=CARTESIAN_POINT('Origin',(3.05,6.0875961595364,1.7));
#1411=CARTESIAN_POINT('',(3.5364,6.50354692585376,1.9));
#1412=CARTESIAN_POINT('',(3.6884,6.63353154032794,1.7));
#1413=CARTESIAN_POINT('Origin',(3.05,6.0875961595364,1.9));
#1414=CARTESIAN_POINT('Origin',(4.,6.9,1.8));
#1415=CARTESIAN_POINT('',(4.3116,6.63353154032794,1.7));
#1416=CARTESIAN_POINT('',(4.4636,6.50354692585376,1.9));
#1417=CARTESIAN_POINT('',(4.3116,6.63353154032794,1.7));
#1418=CARTESIAN_POINT('Origin',(4.,6.9,1.9));
#1419=CARTESIAN_POINT('Origin',(4.,6.9,1.7));
#1420=CARTESIAN_POINT('Origin',(4.95,6.0875961595364,1.8));
#1421=CARTESIAN_POINT('',(4.11,6.0875961595364,1.7));
#1422=CARTESIAN_POINT('Origin',(4.95,6.0875961595364,1.7));
#1423=CARTESIAN_POINT('',(4.31,6.0875961595364,1.9));
#1424=CARTESIAN_POINT('',(4.11,6.0875961595364,1.7));
#1425=CARTESIAN_POINT('Origin',(4.95,6.0875961595364,1.9));
#1426=CARTESIAN_POINT('Origin',(4.21,6.47341366628121,1.8));
#1427=CARTESIAN_POINT('',(4.11,4.8,1.7));
#1428=CARTESIAN_POINT('',(4.31,4.8,1.9));
#1429=CARTESIAN_POINT('',(3.80750000319311,4.8,1.39750000319311));
#1430=CARTESIAN_POINT('',(4.31,6.47341366628121,1.9));
#1431=CARTESIAN_POINT('',(4.11,6.47341366628121,1.7));
#1432=CARTESIAN_POINT('Origin',(4.11,6.34682733256242,-1.1));
#1433=CARTESIAN_POINT('',(4.11,6.0875961595364,0.2));
#1434=CARTESIAN_POINT('',(4.11,6.0875961595364,-1.1));
#1435=CARTESIAN_POINT('',(4.11,4.8,0.2));
#1436=CARTESIAN_POINT('',(4.11,6.47341366628121,0.2));
#1437=CARTESIAN_POINT('',(4.11,4.8,-0.349999993613788));
#1438=CARTESIAN_POINT('Origin',(4.95,6.0875961595364,-1.1));
#1439=CARTESIAN_POINT('',(4.3116,6.63353154032794,0.2));
#1440=CARTESIAN_POINT('',(4.3116,6.63353154032794,-1.1));
#1441=CARTESIAN_POINT('Origin',(4.95,6.0875961595364,0.2));
#1442=CARTESIAN_POINT('Origin',(4.,6.9,-1.1));
#1443=CARTESIAN_POINT('',(3.6884,6.63353154032794,0.2));
#1444=CARTESIAN_POINT('',(3.6884,6.63353154032794,-1.1));
#1445=CARTESIAN_POINT('Origin',(4.,6.9,0.2));
#1446=CARTESIAN_POINT('Origin',(3.05,6.0875961595364,-1.1));
#1447=CARTESIAN_POINT('',(3.89,6.0875961595364,0.2));
#1448=CARTESIAN_POINT('',(3.89,6.0875961595364,-1.1));
#1449=CARTESIAN_POINT('Origin',(3.05,6.0875961595364,0.2));
#1450=CARTESIAN_POINT('Origin',(3.89,4.8,-1.1));
#1451=CARTESIAN_POINT('',(3.89,4.8,0.2));
#1452=CARTESIAN_POINT('',(3.89,4.8,-0.349999993613788));
#1453=CARTESIAN_POINT('',(3.89,5.7,0.2));
#1454=CARTESIAN_POINT('Origin',(3.79,5.7,0.0999999999999998));
#1455=CARTESIAN_POINT('',(3.91750000319311,4.8,0.22750000319311));
#1456=CARTESIAN_POINT('',(3.69,6.0875961595364,0.));
#1457=CARTESIAN_POINT('Origin',(3.05,6.0875961595364,0.0999999999999998));
#1458=CARTESIAN_POINT('',(3.5364,6.50354692585376,0.));
#1459=CARTESIAN_POINT('Origin',(4.,6.9,0.0999999999999998));
#1460=CARTESIAN_POINT('',(4.4636,6.50354692585376,0.));
#1461=CARTESIAN_POINT('Origin',(4.95,6.0875961595364,0.0999999999999998));
#1462=CARTESIAN_POINT('',(4.31,6.0875961595364,0.));
#1463=CARTESIAN_POINT('Origin',(4.21,6.47341366628121,0.0999999999999998));
#1464=CARTESIAN_POINT('',(4.08249999680689,4.8,0.22750000319311));
#1465=CARTESIAN_POINT('Origin',(4.85,5.7,0.0999999999999998));
#1466=CARTESIAN_POINT('',(4.7125000031931,4.8,-0.0374999968068901));
#1467=CARTESIAN_POINT('Origin',(95.8976100517004,6.13257460458523,91.1476100516849));
#1468=CARTESIAN_POINT('Origin',(4.,6.9,0.0999999999999998));
#1469=CARTESIAN_POINT('Origin',(-87.8976080500972,6.13257460515547,91.1476080501533));
#1470=CARTESIAN_POINT('Origin',(3.15,6.3,0.0999999999999998));
#1471=CARTESIAN_POINT('',(3.28749999680689,4.8,-0.0374999968068901));
#1472=CARTESIAN_POINT('Origin',(0.299999999999999,4.5,1.15000001915864));
#1473=CARTESIAN_POINT('',(0.299999999999999,4.8,1.15000001915864));
#1474=CARTESIAN_POINT('',(0.,4.5,1.15000001915864));
#1475=CARTESIAN_POINT('Origin',(4.,4.8,0.40000001277242));
#1476=CARTESIAN_POINT('',(7.7,4.8,-0.349999980841364));
#1477=CARTESIAN_POINT('',(6.5,4.8,1.9));
#1478=CARTESIAN_POINT('',(6.5,4.8,1.9));
#1479=CARTESIAN_POINT('Origin',(0.299999999999999,0.3,1.15000002554485));
#1480=CARTESIAN_POINT('',(0.,0.3,1.15000002554485));
#1481=CARTESIAN_POINT('',(0.299999999999999,5.55111512312578E-16,1.15000002554485));
#1482=CARTESIAN_POINT('Origin',(4.,5.55111512312578E-16,0.40000002554485));
#1483=CARTESIAN_POINT('',(7.7,5.55111512312578E-16,-0.349999974455153));
#1484=CARTESIAN_POINT('Origin',(7.7,0.3,-0.349999974455153));
#1485=CARTESIAN_POINT('',(8.,0.3,-0.349999974455153));
#1486=CARTESIAN_POINT('Origin',(7.7,2.95,-0.349999969665494));
#1487=CARTESIAN_POINT('',(8.,2.95,-0.349999969665494));
#1488=CARTESIAN_POINT('Origin',(8.,2.3,-1.09999997445515));
#1489=CARTESIAN_POINT('Origin',(7.7,4.5,-0.349999980841364));
#1490=CARTESIAN_POINT('Origin',(4.,6.6,1.9));
#1491=CARTESIAN_POINT('Origin',(0.,4.8,1.90000002554485));
#1492=UNCERTAINTY_MEASURE_WITH_UNIT(LENGTH_MEASURE(0.01),#1496,
'DISTANCE_ACCURACY_VALUE',
'Maximum model space distance between geometric entities at asserted c
onnectivities');
#1493=UNCERTAINTY_MEASURE_WITH_UNIT(LENGTH_MEASURE(0.01),#1496,
'DISTANCE_ACCURACY_VALUE',
'Maximum model space distance between geometric entities at asserted c
onnectivities');
#1494=(
GEOMETRIC_REPRESENTATION_CONTEXT(3)
GLOBAL_UNCERTAINTY_ASSIGNED_CONTEXT((#1492))
GLOBAL_UNIT_ASSIGNED_CONTEXT((#1496,#1498,#1499))
REPRESENTATION_CONTEXT('','3D')
);
#1495=(
GEOMETRIC_REPRESENTATION_CONTEXT(3)
GLOBAL_UNCERTAINTY_ASSIGNED_CONTEXT((#1493))
GLOBAL_UNIT_ASSIGNED_CONTEXT((#1496,#1498,#1499))
REPRESENTATION_CONTEXT('','3D')
);
#1496=(
LENGTH_UNIT()
NAMED_UNIT(*)
SI_UNIT(.MILLI.,.METRE.)
);
#1497=(
LENGTH_UNIT()
NAMED_UNIT(*)
SI_UNIT($,.METRE.)
);
#1498=(
NAMED_UNIT(*)
PLANE_ANGLE_UNIT()
SI_UNIT($,.RADIAN.)
);
#1499=(
NAMED_UNIT(*)
SI_UNIT($,.STERADIAN.)
SOLID_ANGLE_UNIT()
);
#1500=SHAPE_DEFINITION_REPRESENTATION(#1501,#1502);
#1501=PRODUCT_DEFINITION_SHAPE('',$,#1504);
#1502=SHAPE_REPRESENTATION('',(#888),#1494);
#1503=PRODUCT_DEFINITION_CONTEXT('part definition',#1508,'design');
#1504=PRODUCT_DEFINITION('2026-03-28-17-50-48-162',
'motor cable clip M3',#1505,#1503);
#1505=PRODUCT_DEFINITION_FORMATION('',$,#1510);
#1506=PRODUCT_RELATED_PRODUCT_CATEGORY('motor cable clip M3',
'motor cable clip M3',(#1510));
#1507=APPLICATION_PROTOCOL_DEFINITION('international standard',
'automotive_design',2009,#1508);
#1508=APPLICATION_CONTEXT(
'Core Data for Automotive Mechanical Design Process');
#1509=PRODUCT_CONTEXT('part definition',#1508,'mechanical');
#1510=PRODUCT('2026-03-28-17-50-48-162','motor cable clip M3',$,(#1509));
#1511=PRESENTATION_STYLE_ASSIGNMENT((#1513));
#1512=PRESENTATION_STYLE_ASSIGNMENT((#1514));
#1513=SURFACE_STYLE_USAGE(.BOTH.,#1515);
#1514=SURFACE_STYLE_USAGE(.BOTH.,#1516);
#1515=SURFACE_SIDE_STYLE('',(#1517));
#1516=SURFACE_SIDE_STYLE('',(#1518));
#1517=SURFACE_STYLE_FILL_AREA(#1519);
#1518=SURFACE_STYLE_FILL_AREA(#1520);
#1519=FILL_AREA_STYLE('Stahl - satiniert',(#1521));
#1520=FILL_AREA_STYLE('Opaque(108,108,108)',(#1522));
#1521=FILL_AREA_STYLE_COLOUR('Stahl - satiniert',#1523);
#1522=FILL_AREA_STYLE_COLOUR('Opaque(108,108,108)',#1524);
#1523=COLOUR_RGB('Stahl - satiniert',0.627450980392157,0.627450980392157,
0.627450980392157);
#1524=COLOUR_RGB('Opaque(108,108,108)',0.423529411764706,0.423529411764706,
0.423529411764706);
ENDSEC;
END-ISO-10303-21;
