ISO-10303-21;
HEADER;
/* Generated by software containing ST-Developer
 * from STEP Tools, Inc. (www.steptools.com) 
 */

FILE_DESCRIPTION(
/* description */ (''),
/* implementation_level */ '2;1');

FILE_NAME(
/* name */ 'x_house_slide.step',
/* time_stamp */ '2026-05-31T13:26:54+02:00',
/* author */ (''),
/* organization */ (''),
/* preprocessor_version */ 'ST-DEVELOPER v20.1',
/* originating_system */ 'Autodesk Translation Framework v15.8.0.0',
/* authorisation */ '');

FILE_SCHEMA (('AUTOMOTIVE_DESIGN { 1 0 10303 214 3 1 1 }'));
ENDSEC;

DATA;
#10=MECHANICAL_DESIGN_GEOMETRIC_PRESENTATION_REPRESENTATION('',(#13),#1260);
#11=SHAPE_REPRESENTATION_RELATIONSHIP('SRR','None',#1267,#12);
#12=ADVANCED_BREP_SHAPE_REPRESENTATION('',(#14),#1259);
#13=STYLED_ITEM('',(#1277),#14);
#14=MANIFOLD_SOLID_BREP('K\X\F6rper1',#786);
#15=FACE_BOUND('',#98,.T.);
#16=CYLINDRICAL_SURFACE('',#835,18.9693778002764);
#17=CIRCLE('',#817,18.9693778002764);
#18=CIRCLE('',#836,18.9693778002764);
#19=FACE_OUTER_BOUND('',#61,.T.);
#20=FACE_OUTER_BOUND('',#62,.T.);
#21=FACE_OUTER_BOUND('',#63,.T.);
#22=FACE_OUTER_BOUND('',#64,.T.);
#23=FACE_OUTER_BOUND('',#65,.T.);
#24=FACE_OUTER_BOUND('',#66,.T.);
#25=FACE_OUTER_BOUND('',#67,.T.);
#26=FACE_OUTER_BOUND('',#68,.T.);
#27=FACE_OUTER_BOUND('',#69,.T.);
#28=FACE_OUTER_BOUND('',#70,.T.);
#29=FACE_OUTER_BOUND('',#71,.T.);
#30=FACE_OUTER_BOUND('',#72,.T.);
#31=FACE_OUTER_BOUND('',#73,.T.);
#32=FACE_OUTER_BOUND('',#74,.T.);
#33=FACE_OUTER_BOUND('',#75,.T.);
#34=FACE_OUTER_BOUND('',#76,.T.);
#35=FACE_OUTER_BOUND('',#77,.T.);
#36=FACE_OUTER_BOUND('',#78,.T.);
#37=FACE_OUTER_BOUND('',#79,.T.);
#38=FACE_OUTER_BOUND('',#80,.T.);
#39=FACE_OUTER_BOUND('',#81,.T.);
#40=FACE_OUTER_BOUND('',#82,.T.);
#41=FACE_OUTER_BOUND('',#83,.T.);
#42=FACE_OUTER_BOUND('',#84,.T.);
#43=FACE_OUTER_BOUND('',#85,.T.);
#44=FACE_OUTER_BOUND('',#86,.T.);
#45=FACE_OUTER_BOUND('',#87,.T.);
#46=FACE_OUTER_BOUND('',#88,.T.);
#47=FACE_OUTER_BOUND('',#89,.T.);
#48=FACE_OUTER_BOUND('',#90,.T.);
#49=FACE_OUTER_BOUND('',#91,.T.);
#50=FACE_OUTER_BOUND('',#92,.T.);
#51=FACE_OUTER_BOUND('',#93,.T.);
#52=FACE_OUTER_BOUND('',#94,.T.);
#53=FACE_OUTER_BOUND('',#95,.T.);
#54=FACE_OUTER_BOUND('',#96,.T.);
#55=FACE_OUTER_BOUND('',#97,.T.);
#56=FACE_OUTER_BOUND('',#99,.T.);
#57=FACE_OUTER_BOUND('',#100,.T.);
#58=FACE_OUTER_BOUND('',#101,.T.);
#59=FACE_OUTER_BOUND('',#102,.T.);
#60=FACE_OUTER_BOUND('',#103,.T.);
#61=EDGE_LOOP('',(#489,#490,#491,#492));
#62=EDGE_LOOP('',(#493,#494,#495,#496));
#63=EDGE_LOOP('',(#497,#498,#499,#500));
#64=EDGE_LOOP('',(#501,#502,#503,#504));
#65=EDGE_LOOP('',(#505,#506,#507,#508));
#66=EDGE_LOOP('',(#509,#510,#511,#512));
#67=EDGE_LOOP('',(#513,#514,#515,#516));
#68=EDGE_LOOP('',(#517,#518,#519,#520));
#69=EDGE_LOOP('',(#521,#522,#523,#524));
#70=EDGE_LOOP('',(#525,#526,#527,#528,#529,#530));
#71=EDGE_LOOP('',(#531,#532,#533,#534));
#72=EDGE_LOOP('',(#535,#536,#537,#538));
#73=EDGE_LOOP('',(#539,#540,#541,#542,#543,#544,#545,#546,#547,#548,#549,
#550,#551,#552,#553,#554,#555,#556));
#74=EDGE_LOOP('',(#557,#558,#559,#560,#561));
#75=EDGE_LOOP('',(#562,#563,#564,#565));
#76=EDGE_LOOP('',(#566,#567,#568,#569));
#77=EDGE_LOOP('',(#570,#571,#572,#573,#574,#575,#576,#577,#578,#579));
#78=EDGE_LOOP('',(#580,#581,#582,#583,#584));
#79=EDGE_LOOP('',(#585,#586,#587,#588));
#80=EDGE_LOOP('',(#589,#590,#591,#592));
#81=EDGE_LOOP('',(#593,#594,#595,#596,#597,#598));
#82=EDGE_LOOP('',(#599,#600,#601,#602,#603));
#83=EDGE_LOOP('',(#604,#605,#606,#607));
#84=EDGE_LOOP('',(#608,#609,#610,#611,#612));
#85=EDGE_LOOP('',(#613,#614,#615));
#86=EDGE_LOOP('',(#616,#617,#618));
#87=EDGE_LOOP('',(#619,#620,#621,#622,#623));
#88=EDGE_LOOP('',(#624,#625,#626,#627,#628));
#89=EDGE_LOOP('',(#629,#630,#631));
#90=EDGE_LOOP('',(#632,#633,#634));
#91=EDGE_LOOP('',(#635,#636,#637,#638,#639,#640,#641,#642));
#92=EDGE_LOOP('',(#643,#644,#645,#646));
#93=EDGE_LOOP('',(#647,#648,#649,#650,#651));
#94=EDGE_LOOP('',(#652,#653,#654,#655,#656));
#95=EDGE_LOOP('',(#657,#658,#659,#660));
#96=EDGE_LOOP('',(#661,#662,#663,#664,#665,#666));
#97=EDGE_LOOP('',(#667,#668,#669,#670));
#98=EDGE_LOOP('',(#671,#672,#673,#674));
#99=EDGE_LOOP('',(#675,#676,#677,#678));
#100=EDGE_LOOP('',(#679,#680,#681,#682));
#101=EDGE_LOOP('',(#683,#684,#685,#686));
#102=EDGE_LOOP('',(#687,#688,#689,#690,#691,#692,#693,#694,#695,#696,#697,
#698));
#103=EDGE_LOOP('',(#699,#700,#701,#702));
#104=LINE('',#1043,#209);
#105=LINE('',#1045,#210);
#106=LINE('',#1047,#211);
#107=LINE('',#1048,#212);
#108=LINE('',#1051,#213);
#109=LINE('',#1053,#214);
#110=LINE('',#1054,#215);
#111=LINE('',#1057,#216);
#112=LINE('',#1059,#217);
#113=LINE('',#1060,#218);
#114=LINE('',#1064,#219);
#115=LINE('',#1066,#220);
#116=LINE('',#1068,#221);
#117=LINE('',#1069,#222);
#118=LINE('',#1071,#223);
#119=LINE('',#1072,#224);
#120=LINE('',#1074,#225);
#121=LINE('',#1075,#226);
#122=LINE('',#1078,#227);
#123=LINE('',#1080,#228);
#124=LINE('',#1081,#229);
#125=LINE('',#1084,#230);
#126=LINE('',#1085,#231);
#127=LINE('',#1088,#232);
#128=LINE('',#1089,#233);
#129=LINE('',#1094,#234);
#130=LINE('',#1096,#235);
#131=LINE('',#1098,#236);
#132=LINE('',#1099,#237);
#133=LINE('',#1103,#238);
#134=LINE('',#1105,#239);
#135=LINE('',#1107,#240);
#136=LINE('',#1108,#241);
#137=LINE('',#1111,#242);
#138=LINE('',#1113,#243);
#139=LINE('',#1115,#244);
#140=LINE('',#1117,#245);
#141=LINE('',#1119,#246);
#142=LINE('',#1121,#247);
#143=LINE('',#1122,#248);
#144=LINE('',#1124,#249);
#145=LINE('',#1126,#250);
#146=LINE('',#1127,#251);
#147=LINE('',#1129,#252);
#148=LINE('',#1131,#253);
#149=LINE('',#1133,#254);
#150=LINE('',#1134,#255);
#151=LINE('',#1138,#256);
#152=LINE('',#1140,#257);
#153=LINE('',#1141,#258);
#154=LINE('',#1142,#259);
#155=LINE('',#1144,#260);
#156=LINE('',#1145,#261);
#157=LINE('',#1149,#262);
#158=LINE('',#1151,#263);
#159=LINE('',#1153,#264);
#160=LINE('',#1155,#265);
#161=LINE('',#1157,#266);
#162=LINE('',#1159,#267);
#163=LINE('',#1160,#268);
#164=LINE('',#1162,#269);
#165=LINE('',#1166,#270);
#166=LINE('',#1168,#271);
#167=LINE('',#1169,#272);
#168=LINE('',#1171,#273);
#169=LINE('',#1172,#274);
#170=LINE('',#1176,#275);
#171=LINE('',#1177,#276);
#172=LINE('',#1181,#277);
#173=LINE('',#1183,#278);
#174=LINE('',#1185,#279);
#175=LINE('',#1187,#280);
#176=LINE('',#1188,#281);
#177=LINE('',#1191,#282);
#178=LINE('',#1193,#283);
#179=LINE('',#1194,#284);
#180=LINE('',#1197,#285);
#181=LINE('',#1198,#286);
#182=LINE('',#1199,#287);
#183=LINE('',#1202,#288);
#184=LINE('',#1205,#289);
#185=LINE('',#1207,#290);
#186=LINE('',#1209,#291);
#187=LINE('',#1210,#292);
#188=LINE('',#1214,#293);
#189=LINE('',#1215,#294);
#190=LINE('',#1216,#295);
#191=LINE('',#1217,#296);
#192=LINE('',#1220,#297);
#193=LINE('',#1223,#298);
#194=LINE('',#1225,#299);
#195=LINE('',#1226,#300);
#196=LINE('',#1228,#301);
#197=LINE('',#1231,#302);
#198=LINE('',#1232,#303);
#199=LINE('',#1235,#304);
#200=LINE('',#1236,#305);
#201=LINE('',#1241,#306);
#202=LINE('',#1242,#307);
#203=LINE('',#1245,#308);
#204=LINE('',#1246,#309);
#205=LINE('',#1248,#310);
#206=LINE('',#1251,#311);
#207=LINE('',#1252,#312);
#208=LINE('',#1254,#313);
#209=VECTOR('',#848,10.);
#210=VECTOR('',#849,10.);
#211=VECTOR('',#850,10.);
#212=VECTOR('',#851,10.);
#213=VECTOR('',#854,10.);
#214=VECTOR('',#855,10.);
#215=VECTOR('',#856,10.);
#216=VECTOR('',#859,10.);
#217=VECTOR('',#860,10.);
#218=VECTOR('',#861,10.);
#219=VECTOR('',#864,10.);
#220=VECTOR('',#865,10.);
#221=VECTOR('',#866,10.);
#222=VECTOR('',#867,10.);
#223=VECTOR('',#870,10.);
#224=VECTOR('',#871,10.);
#225=VECTOR('',#874,10.);
#226=VECTOR('',#875,10.);
#227=VECTOR('',#878,10.);
#228=VECTOR('',#879,10.);
#229=VECTOR('',#880,10.);
#230=VECTOR('',#883,10.);
#231=VECTOR('',#884,10.);
#232=VECTOR('',#887,10.);
#233=VECTOR('',#888,10.);
#234=VECTOR('',#893,10.);
#235=VECTOR('',#894,10.);
#236=VECTOR('',#895,10.);
#237=VECTOR('',#896,10.);
#238=VECTOR('',#899,10.);
#239=VECTOR('',#900,10.);
#240=VECTOR('',#901,10.);
#241=VECTOR('',#902,10.);
#242=VECTOR('',#905,10.);
#243=VECTOR('',#906,10.);
#244=VECTOR('',#907,10.);
#245=VECTOR('',#908,10.);
#246=VECTOR('',#909,10.);
#247=VECTOR('',#910,10.);
#248=VECTOR('',#911,10.);
#249=VECTOR('',#912,10.);
#250=VECTOR('',#913,10.);
#251=VECTOR('',#914,10.);
#252=VECTOR('',#915,10.);
#253=VECTOR('',#916,10.);
#254=VECTOR('',#917,10.);
#255=VECTOR('',#918,10.);
#256=VECTOR('',#921,10.);
#257=VECTOR('',#922,10.);
#258=VECTOR('',#923,10.);
#259=VECTOR('',#924,10.);
#260=VECTOR('',#927,10.);
#261=VECTOR('',#928,10.);
#262=VECTOR('',#933,10.);
#263=VECTOR('',#934,10.);
#264=VECTOR('',#935,10.);
#265=VECTOR('',#936,10.);
#266=VECTOR('',#937,10.);
#267=VECTOR('',#938,10.);
#268=VECTOR('',#939,10.);
#269=VECTOR('',#940,10.);
#270=VECTOR('',#945,10.);
#271=VECTOR('',#946,10.);
#272=VECTOR('',#947,10.);
#273=VECTOR('',#950,10.);
#274=VECTOR('',#951,10.);
#275=VECTOR('',#956,10.);
#276=VECTOR('',#957,10.);
#277=VECTOR('',#960,10.);
#278=VECTOR('',#961,10.);
#279=VECTOR('',#962,10.);
#280=VECTOR('',#963,10.);
#281=VECTOR('',#964,10.);
#282=VECTOR('',#967,10.);
#283=VECTOR('',#968,10.);
#284=VECTOR('',#969,10.);
#285=VECTOR('',#972,10.);
#286=VECTOR('',#973,10.);
#287=VECTOR('',#974,10.);
#288=VECTOR('',#979,10.);
#289=VECTOR('',#982,10.);
#290=VECTOR('',#983,10.);
#291=VECTOR('',#984,10.);
#292=VECTOR('',#985,10.);
#293=VECTOR('',#988,10.);
#294=VECTOR('',#989,10.);
#295=VECTOR('',#990,10.);
#296=VECTOR('',#991,10.);
#297=VECTOR('',#996,10.);
#298=VECTOR('',#999,10.);
#299=VECTOR('',#1000,10.);
#300=VECTOR('',#1001,10.);
#301=VECTOR('',#1004,10.);
#302=VECTOR('',#1007,10.);
#303=VECTOR('',#1008,10.);
#304=VECTOR('',#1011,10.);
#305=VECTOR('',#1012,10.);
#306=VECTOR('',#1019,10.);
#307=VECTOR('',#1020,10.);
#308=VECTOR('',#1023,10.);
#309=VECTOR('',#1024,10.);
#310=VECTOR('',#1027,10.);
#311=VECTOR('',#1030,10.);
#312=VECTOR('',#1031,10.);
#313=VECTOR('',#1034,10.);
#314=VERTEX_POINT('',#1041);
#315=VERTEX_POINT('',#1042);
#316=VERTEX_POINT('',#1044);
#317=VERTEX_POINT('',#1046);
#318=VERTEX_POINT('',#1050);
#319=VERTEX_POINT('',#1052);
#320=VERTEX_POINT('',#1056);
#321=VERTEX_POINT('',#1058);
#322=VERTEX_POINT('',#1062);
#323=VERTEX_POINT('',#1063);
#324=VERTEX_POINT('',#1065);
#325=VERTEX_POINT('',#1067);
#326=VERTEX_POINT('',#1077);
#327=VERTEX_POINT('',#1079);
#328=VERTEX_POINT('',#1083);
#329=VERTEX_POINT('',#1087);
#330=VERTEX_POINT('',#1092);
#331=VERTEX_POINT('',#1093);
#332=VERTEX_POINT('',#1095);
#333=VERTEX_POINT('',#1097);
#334=VERTEX_POINT('',#1101);
#335=VERTEX_POINT('',#1102);
#336=VERTEX_POINT('',#1104);
#337=VERTEX_POINT('',#1106);
#338=VERTEX_POINT('',#1110);
#339=VERTEX_POINT('',#1112);
#340=VERTEX_POINT('',#1114);
#341=VERTEX_POINT('',#1116);
#342=VERTEX_POINT('',#1118);
#343=VERTEX_POINT('',#1120);
#344=VERTEX_POINT('',#1123);
#345=VERTEX_POINT('',#1125);
#346=VERTEX_POINT('',#1128);
#347=VERTEX_POINT('',#1130);
#348=VERTEX_POINT('',#1132);
#349=VERTEX_POINT('',#1136);
#350=VERTEX_POINT('',#1137);
#351=VERTEX_POINT('',#1139);
#352=VERTEX_POINT('',#1148);
#353=VERTEX_POINT('',#1150);
#354=VERTEX_POINT('',#1152);
#355=VERTEX_POINT('',#1154);
#356=VERTEX_POINT('',#1156);
#357=VERTEX_POINT('',#1158);
#358=VERTEX_POINT('',#1161);
#359=VERTEX_POINT('',#1165);
#360=VERTEX_POINT('',#1167);
#361=VERTEX_POINT('',#1175);
#362=VERTEX_POINT('',#1179);
#363=VERTEX_POINT('',#1180);
#364=VERTEX_POINT('',#1182);
#365=VERTEX_POINT('',#1184);
#366=VERTEX_POINT('',#1186);
#367=VERTEX_POINT('',#1190);
#368=VERTEX_POINT('',#1192);
#369=VERTEX_POINT('',#1196);
#370=VERTEX_POINT('',#1204);
#371=VERTEX_POINT('',#1206);
#372=VERTEX_POINT('',#1208);
#373=VERTEX_POINT('',#1212);
#374=VERTEX_POINT('',#1213);
#375=VERTEX_POINT('',#1222);
#376=VERTEX_POINT('',#1224);
#377=VERTEX_POINT('',#1230);
#378=VERTEX_POINT('',#1234);
#379=VERTEX_POINT('',#1240);
#380=VERTEX_POINT('',#1244);
#381=VERTEX_POINT('',#1250);
#382=EDGE_CURVE('',#314,#315,#104,.T.);
#383=EDGE_CURVE('',#315,#316,#105,.T.);
#384=EDGE_CURVE('',#316,#317,#106,.T.);
#385=EDGE_CURVE('',#314,#317,#107,.T.);
#386=EDGE_CURVE('',#315,#318,#108,.T.);
#387=EDGE_CURVE('',#318,#319,#109,.T.);
#388=EDGE_CURVE('',#319,#316,#110,.T.);
#389=EDGE_CURVE('',#317,#320,#111,.T.);
#390=EDGE_CURVE('',#320,#321,#112,.T.);
#391=EDGE_CURVE('',#321,#314,#113,.T.);
#392=EDGE_CURVE('',#322,#323,#114,.T.);
#393=EDGE_CURVE('',#323,#324,#115,.T.);
#394=EDGE_CURVE('',#324,#325,#116,.T.);
#395=EDGE_CURVE('',#325,#322,#117,.T.);
#396=EDGE_CURVE('',#320,#324,#118,.T.);
#397=EDGE_CURVE('',#323,#321,#119,.T.);
#398=EDGE_CURVE('',#318,#322,#120,.T.);
#399=EDGE_CURVE('',#325,#319,#121,.T.);
#400=EDGE_CURVE('',#319,#326,#122,.T.);
#401=EDGE_CURVE('',#327,#326,#123,.T.);
#402=EDGE_CURVE('',#316,#327,#124,.T.);
#403=EDGE_CURVE('',#325,#328,#125,.T.);
#404=EDGE_CURVE('',#326,#328,#126,.T.);
#405=EDGE_CURVE('',#329,#324,#127,.T.);
#406=EDGE_CURVE('',#328,#329,#128,.T.);
#407=EDGE_CURVE('',#330,#331,#129,.F.);
#408=EDGE_CURVE('',#331,#332,#130,.T.);
#409=EDGE_CURVE('',#332,#333,#131,.T.);
#410=EDGE_CURVE('',#333,#330,#132,.F.);
#411=EDGE_CURVE('',#334,#335,#133,.T.);
#412=EDGE_CURVE('',#335,#336,#134,.F.);
#413=EDGE_CURVE('',#336,#337,#135,.F.);
#414=EDGE_CURVE('',#337,#334,#136,.T.);
#415=EDGE_CURVE('',#320,#338,#137,.T.);
#416=EDGE_CURVE('',#338,#339,#138,.T.);
#417=EDGE_CURVE('',#339,#340,#139,.T.);
#418=EDGE_CURVE('',#340,#341,#140,.T.);
#419=EDGE_CURVE('',#341,#342,#141,.T.);
#420=EDGE_CURVE('',#342,#343,#142,.T.);
#421=EDGE_CURVE('',#337,#343,#143,.T.);
#422=EDGE_CURVE('',#344,#336,#144,.T.);
#423=EDGE_CURVE('',#344,#345,#145,.T.);
#424=EDGE_CURVE('',#345,#330,#146,.F.);
#425=EDGE_CURVE('',#333,#346,#147,.T.);
#426=EDGE_CURVE('',#347,#346,#148,.T.);
#427=EDGE_CURVE('',#347,#348,#149,.T.);
#428=EDGE_CURVE('',#348,#329,#150,.T.);
#429=EDGE_CURVE('',#349,#350,#151,.T.);
#430=EDGE_CURVE('',#349,#351,#152,.T.);
#431=EDGE_CURVE('',#351,#332,#153,.T.);
#432=EDGE_CURVE('',#350,#331,#154,.T.);
#433=EDGE_CURVE('',#347,#349,#155,.T.);
#434=EDGE_CURVE('',#346,#351,#156,.T.);
#435=EDGE_CURVE('',#352,#335,#157,.F.);
#436=EDGE_CURVE('',#335,#353,#158,.T.);
#437=EDGE_CURVE('',#354,#353,#159,.T.);
#438=EDGE_CURVE('',#355,#354,#160,.T.);
#439=EDGE_CURVE('',#356,#355,#161,.T.);
#440=EDGE_CURVE('',#357,#356,#162,.T.);
#441=EDGE_CURVE('',#350,#357,#163,.T.);
#442=EDGE_CURVE('',#331,#358,#164,.F.);
#443=EDGE_CURVE('',#358,#352,#17,.F.);
#444=EDGE_CURVE('',#353,#359,#165,.T.);
#445=EDGE_CURVE('',#360,#334,#166,.T.);
#446=EDGE_CURVE('',#359,#360,#167,.T.);
#447=EDGE_CURVE('',#359,#342,#168,.T.);
#448=EDGE_CURVE('',#343,#360,#169,.T.);
#449=EDGE_CURVE('',#341,#361,#170,.T.);
#450=EDGE_CURVE('',#354,#361,#171,.T.);
#451=EDGE_CURVE('',#362,#363,#172,.T.);
#452=EDGE_CURVE('',#364,#362,#173,.T.);
#453=EDGE_CURVE('',#365,#364,#174,.T.);
#454=EDGE_CURVE('',#365,#366,#175,.T.);
#455=EDGE_CURVE('',#366,#363,#176,.T.);
#456=EDGE_CURVE('',#367,#362,#177,.T.);
#457=EDGE_CURVE('',#368,#367,#178,.T.);
#458=EDGE_CURVE('',#364,#368,#179,.T.);
#459=EDGE_CURVE('',#369,#367,#180,.T.);
#460=EDGE_CURVE('',#369,#366,#181,.T.);
#461=EDGE_CURVE('',#368,#365,#182,.T.);
#462=EDGE_CURVE('',#363,#369,#183,.T.);
#463=EDGE_CURVE('',#361,#370,#184,.T.);
#464=EDGE_CURVE('',#341,#371,#185,.T.);
#465=EDGE_CURVE('',#371,#372,#186,.T.);
#466=EDGE_CURVE('',#370,#372,#187,.T.);
#467=EDGE_CURVE('',#373,#374,#188,.T.);
#468=EDGE_CURVE('',#372,#373,#189,.T.);
#469=EDGE_CURVE('',#371,#340,#190,.T.);
#470=EDGE_CURVE('',#374,#340,#191,.T.);
#471=EDGE_CURVE('',#370,#373,#192,.T.);
#472=EDGE_CURVE('',#374,#375,#193,.T.);
#473=EDGE_CURVE('',#376,#375,#194,.T.);
#474=EDGE_CURVE('',#355,#376,#195,.T.);
#475=EDGE_CURVE('',#375,#339,#196,.T.);
#476=EDGE_CURVE('',#377,#345,#197,.T.);
#477=EDGE_CURVE('',#377,#358,#198,.T.);
#478=EDGE_CURVE('',#344,#378,#199,.T.);
#479=EDGE_CURVE('',#378,#352,#200,.T.);
#480=EDGE_CURVE('',#378,#377,#18,.T.);
#481=EDGE_CURVE('',#357,#379,#201,.T.);
#482=EDGE_CURVE('',#379,#348,#202,.T.);
#483=EDGE_CURVE('',#356,#380,#203,.T.);
#484=EDGE_CURVE('',#379,#380,#204,.T.);
#485=EDGE_CURVE('',#380,#376,#205,.T.);
#486=EDGE_CURVE('',#381,#317,#206,.T.);
#487=EDGE_CURVE('',#381,#338,#207,.T.);
#488=EDGE_CURVE('',#381,#327,#208,.T.);
#489=ORIENTED_EDGE('',*,*,#382,.T.);
#490=ORIENTED_EDGE('',*,*,#383,.T.);
#491=ORIENTED_EDGE('',*,*,#384,.T.);
#492=ORIENTED_EDGE('',*,*,#385,.F.);
#493=ORIENTED_EDGE('',*,*,#386,.T.);
#494=ORIENTED_EDGE('',*,*,#387,.T.);
#495=ORIENTED_EDGE('',*,*,#388,.T.);
#496=ORIENTED_EDGE('',*,*,#383,.F.);
#497=ORIENTED_EDGE('',*,*,#389,.T.);
#498=ORIENTED_EDGE('',*,*,#390,.T.);
#499=ORIENTED_EDGE('',*,*,#391,.T.);
#500=ORIENTED_EDGE('',*,*,#385,.T.);
#501=ORIENTED_EDGE('',*,*,#392,.T.);
#502=ORIENTED_EDGE('',*,*,#393,.T.);
#503=ORIENTED_EDGE('',*,*,#394,.T.);
#504=ORIENTED_EDGE('',*,*,#395,.T.);
#505=ORIENTED_EDGE('',*,*,#396,.T.);
#506=ORIENTED_EDGE('',*,*,#393,.F.);
#507=ORIENTED_EDGE('',*,*,#397,.T.);
#508=ORIENTED_EDGE('',*,*,#390,.F.);
#509=ORIENTED_EDGE('',*,*,#398,.T.);
#510=ORIENTED_EDGE('',*,*,#395,.F.);
#511=ORIENTED_EDGE('',*,*,#399,.T.);
#512=ORIENTED_EDGE('',*,*,#387,.F.);
#513=ORIENTED_EDGE('',*,*,#388,.F.);
#514=ORIENTED_EDGE('',*,*,#400,.T.);
#515=ORIENTED_EDGE('',*,*,#401,.F.);
#516=ORIENTED_EDGE('',*,*,#402,.F.);
#517=ORIENTED_EDGE('',*,*,#399,.F.);
#518=ORIENTED_EDGE('',*,*,#403,.T.);
#519=ORIENTED_EDGE('',*,*,#404,.F.);
#520=ORIENTED_EDGE('',*,*,#400,.F.);
#521=ORIENTED_EDGE('',*,*,#394,.F.);
#522=ORIENTED_EDGE('',*,*,#405,.F.);
#523=ORIENTED_EDGE('',*,*,#406,.F.);
#524=ORIENTED_EDGE('',*,*,#403,.F.);
#525=ORIENTED_EDGE('',*,*,#392,.F.);
#526=ORIENTED_EDGE('',*,*,#398,.F.);
#527=ORIENTED_EDGE('',*,*,#386,.F.);
#528=ORIENTED_EDGE('',*,*,#382,.F.);
#529=ORIENTED_EDGE('',*,*,#391,.F.);
#530=ORIENTED_EDGE('',*,*,#397,.F.);
#531=ORIENTED_EDGE('',*,*,#407,.T.);
#532=ORIENTED_EDGE('',*,*,#408,.T.);
#533=ORIENTED_EDGE('',*,*,#409,.T.);
#534=ORIENTED_EDGE('',*,*,#410,.T.);
#535=ORIENTED_EDGE('',*,*,#411,.T.);
#536=ORIENTED_EDGE('',*,*,#412,.T.);
#537=ORIENTED_EDGE('',*,*,#413,.T.);
#538=ORIENTED_EDGE('',*,*,#414,.T.);
#539=ORIENTED_EDGE('',*,*,#396,.F.);
#540=ORIENTED_EDGE('',*,*,#415,.T.);
#541=ORIENTED_EDGE('',*,*,#416,.T.);
#542=ORIENTED_EDGE('',*,*,#417,.T.);
#543=ORIENTED_EDGE('',*,*,#418,.T.);
#544=ORIENTED_EDGE('',*,*,#419,.T.);
#545=ORIENTED_EDGE('',*,*,#420,.T.);
#546=ORIENTED_EDGE('',*,*,#421,.F.);
#547=ORIENTED_EDGE('',*,*,#413,.F.);
#548=ORIENTED_EDGE('',*,*,#422,.F.);
#549=ORIENTED_EDGE('',*,*,#423,.T.);
#550=ORIENTED_EDGE('',*,*,#424,.T.);
#551=ORIENTED_EDGE('',*,*,#410,.F.);
#552=ORIENTED_EDGE('',*,*,#425,.T.);
#553=ORIENTED_EDGE('',*,*,#426,.F.);
#554=ORIENTED_EDGE('',*,*,#427,.T.);
#555=ORIENTED_EDGE('',*,*,#428,.T.);
#556=ORIENTED_EDGE('',*,*,#405,.T.);
#557=ORIENTED_EDGE('',*,*,#429,.F.);
#558=ORIENTED_EDGE('',*,*,#430,.T.);
#559=ORIENTED_EDGE('',*,*,#431,.T.);
#560=ORIENTED_EDGE('',*,*,#408,.F.);
#561=ORIENTED_EDGE('',*,*,#432,.F.);
#562=ORIENTED_EDGE('',*,*,#433,.F.);
#563=ORIENTED_EDGE('',*,*,#426,.T.);
#564=ORIENTED_EDGE('',*,*,#434,.T.);
#565=ORIENTED_EDGE('',*,*,#430,.F.);
#566=ORIENTED_EDGE('',*,*,#434,.F.);
#567=ORIENTED_EDGE('',*,*,#425,.F.);
#568=ORIENTED_EDGE('',*,*,#409,.F.);
#569=ORIENTED_EDGE('',*,*,#431,.F.);
#570=ORIENTED_EDGE('',*,*,#435,.T.);
#571=ORIENTED_EDGE('',*,*,#436,.T.);
#572=ORIENTED_EDGE('',*,*,#437,.F.);
#573=ORIENTED_EDGE('',*,*,#438,.F.);
#574=ORIENTED_EDGE('',*,*,#439,.F.);
#575=ORIENTED_EDGE('',*,*,#440,.F.);
#576=ORIENTED_EDGE('',*,*,#441,.F.);
#577=ORIENTED_EDGE('',*,*,#432,.T.);
#578=ORIENTED_EDGE('',*,*,#442,.T.);
#579=ORIENTED_EDGE('',*,*,#443,.T.);
#580=ORIENTED_EDGE('',*,*,#444,.F.);
#581=ORIENTED_EDGE('',*,*,#436,.F.);
#582=ORIENTED_EDGE('',*,*,#411,.F.);
#583=ORIENTED_EDGE('',*,*,#445,.F.);
#584=ORIENTED_EDGE('',*,*,#446,.F.);
#585=ORIENTED_EDGE('',*,*,#447,.F.);
#586=ORIENTED_EDGE('',*,*,#446,.T.);
#587=ORIENTED_EDGE('',*,*,#448,.F.);
#588=ORIENTED_EDGE('',*,*,#420,.F.);
#589=ORIENTED_EDGE('',*,*,#448,.T.);
#590=ORIENTED_EDGE('',*,*,#445,.T.);
#591=ORIENTED_EDGE('',*,*,#414,.F.);
#592=ORIENTED_EDGE('',*,*,#421,.T.);
#593=ORIENTED_EDGE('',*,*,#444,.T.);
#594=ORIENTED_EDGE('',*,*,#447,.T.);
#595=ORIENTED_EDGE('',*,*,#419,.F.);
#596=ORIENTED_EDGE('',*,*,#449,.T.);
#597=ORIENTED_EDGE('',*,*,#450,.F.);
#598=ORIENTED_EDGE('',*,*,#437,.T.);
#599=ORIENTED_EDGE('',*,*,#451,.F.);
#600=ORIENTED_EDGE('',*,*,#452,.F.);
#601=ORIENTED_EDGE('',*,*,#453,.F.);
#602=ORIENTED_EDGE('',*,*,#454,.T.);
#603=ORIENTED_EDGE('',*,*,#455,.T.);
#604=ORIENTED_EDGE('',*,*,#456,.F.);
#605=ORIENTED_EDGE('',*,*,#457,.F.);
#606=ORIENTED_EDGE('',*,*,#458,.F.);
#607=ORIENTED_EDGE('',*,*,#452,.T.);
#608=ORIENTED_EDGE('',*,*,#459,.F.);
#609=ORIENTED_EDGE('',*,*,#460,.T.);
#610=ORIENTED_EDGE('',*,*,#454,.F.);
#611=ORIENTED_EDGE('',*,*,#461,.F.);
#612=ORIENTED_EDGE('',*,*,#457,.T.);
#613=ORIENTED_EDGE('',*,*,#461,.T.);
#614=ORIENTED_EDGE('',*,*,#453,.T.);
#615=ORIENTED_EDGE('',*,*,#458,.T.);
#616=ORIENTED_EDGE('',*,*,#462,.F.);
#617=ORIENTED_EDGE('',*,*,#455,.F.);
#618=ORIENTED_EDGE('',*,*,#460,.F.);
#619=ORIENTED_EDGE('',*,*,#463,.F.);
#620=ORIENTED_EDGE('',*,*,#449,.F.);
#621=ORIENTED_EDGE('',*,*,#464,.T.);
#622=ORIENTED_EDGE('',*,*,#465,.T.);
#623=ORIENTED_EDGE('',*,*,#466,.F.);
#624=ORIENTED_EDGE('',*,*,#467,.F.);
#625=ORIENTED_EDGE('',*,*,#468,.F.);
#626=ORIENTED_EDGE('',*,*,#465,.F.);
#627=ORIENTED_EDGE('',*,*,#469,.T.);
#628=ORIENTED_EDGE('',*,*,#470,.F.);
#629=ORIENTED_EDGE('',*,*,#464,.F.);
#630=ORIENTED_EDGE('',*,*,#418,.F.);
#631=ORIENTED_EDGE('',*,*,#469,.F.);
#632=ORIENTED_EDGE('',*,*,#471,.F.);
#633=ORIENTED_EDGE('',*,*,#466,.T.);
#634=ORIENTED_EDGE('',*,*,#468,.T.);
#635=ORIENTED_EDGE('',*,*,#463,.T.);
#636=ORIENTED_EDGE('',*,*,#471,.T.);
#637=ORIENTED_EDGE('',*,*,#467,.T.);
#638=ORIENTED_EDGE('',*,*,#472,.T.);
#639=ORIENTED_EDGE('',*,*,#473,.F.);
#640=ORIENTED_EDGE('',*,*,#474,.F.);
#641=ORIENTED_EDGE('',*,*,#438,.T.);
#642=ORIENTED_EDGE('',*,*,#450,.T.);
#643=ORIENTED_EDGE('',*,*,#470,.T.);
#644=ORIENTED_EDGE('',*,*,#417,.F.);
#645=ORIENTED_EDGE('',*,*,#475,.F.);
#646=ORIENTED_EDGE('',*,*,#472,.F.);
#647=ORIENTED_EDGE('',*,*,#476,.F.);
#648=ORIENTED_EDGE('',*,*,#477,.T.);
#649=ORIENTED_EDGE('',*,*,#442,.F.);
#650=ORIENTED_EDGE('',*,*,#407,.F.);
#651=ORIENTED_EDGE('',*,*,#424,.F.);
#652=ORIENTED_EDGE('',*,*,#478,.F.);
#653=ORIENTED_EDGE('',*,*,#422,.T.);
#654=ORIENTED_EDGE('',*,*,#412,.F.);
#655=ORIENTED_EDGE('',*,*,#435,.F.);
#656=ORIENTED_EDGE('',*,*,#479,.F.);
#657=ORIENTED_EDGE('',*,*,#480,.F.);
#658=ORIENTED_EDGE('',*,*,#479,.T.);
#659=ORIENTED_EDGE('',*,*,#443,.F.);
#660=ORIENTED_EDGE('',*,*,#477,.F.);
#661=ORIENTED_EDGE('',*,*,#429,.T.);
#662=ORIENTED_EDGE('',*,*,#441,.T.);
#663=ORIENTED_EDGE('',*,*,#481,.T.);
#664=ORIENTED_EDGE('',*,*,#482,.T.);
#665=ORIENTED_EDGE('',*,*,#427,.F.);
#666=ORIENTED_EDGE('',*,*,#433,.T.);
#667=ORIENTED_EDGE('',*,*,#440,.T.);
#668=ORIENTED_EDGE('',*,*,#483,.T.);
#669=ORIENTED_EDGE('',*,*,#484,.F.);
#670=ORIENTED_EDGE('',*,*,#481,.F.);
#671=ORIENTED_EDGE('',*,*,#456,.T.);
#672=ORIENTED_EDGE('',*,*,#451,.T.);
#673=ORIENTED_EDGE('',*,*,#462,.T.);
#674=ORIENTED_EDGE('',*,*,#459,.T.);
#675=ORIENTED_EDGE('',*,*,#439,.T.);
#676=ORIENTED_EDGE('',*,*,#474,.T.);
#677=ORIENTED_EDGE('',*,*,#485,.F.);
#678=ORIENTED_EDGE('',*,*,#483,.F.);
#679=ORIENTED_EDGE('',*,*,#389,.F.);
#680=ORIENTED_EDGE('',*,*,#486,.F.);
#681=ORIENTED_EDGE('',*,*,#487,.T.);
#682=ORIENTED_EDGE('',*,*,#415,.F.);
#683=ORIENTED_EDGE('',*,*,#384,.F.);
#684=ORIENTED_EDGE('',*,*,#402,.T.);
#685=ORIENTED_EDGE('',*,*,#488,.F.);
#686=ORIENTED_EDGE('',*,*,#486,.T.);
#687=ORIENTED_EDGE('',*,*,#488,.T.);
#688=ORIENTED_EDGE('',*,*,#401,.T.);
#689=ORIENTED_EDGE('',*,*,#404,.T.);
#690=ORIENTED_EDGE('',*,*,#406,.T.);
#691=ORIENTED_EDGE('',*,*,#428,.F.);
#692=ORIENTED_EDGE('',*,*,#482,.F.);
#693=ORIENTED_EDGE('',*,*,#484,.T.);
#694=ORIENTED_EDGE('',*,*,#485,.T.);
#695=ORIENTED_EDGE('',*,*,#473,.T.);
#696=ORIENTED_EDGE('',*,*,#475,.T.);
#697=ORIENTED_EDGE('',*,*,#416,.F.);
#698=ORIENTED_EDGE('',*,*,#487,.F.);
#699=ORIENTED_EDGE('',*,*,#476,.T.);
#700=ORIENTED_EDGE('',*,*,#423,.F.);
#701=ORIENTED_EDGE('',*,*,#478,.T.);
#702=ORIENTED_EDGE('',*,*,#480,.T.);
#703=PLANE('',#800);
#704=PLANE('',#801);
#705=PLANE('',#802);
#706=PLANE('',#803);
#707=PLANE('',#804);
#708=PLANE('',#805);
#709=PLANE('',#806);
#710=PLANE('',#807);
#711=PLANE('',#808);
#712=PLANE('',#809);
#713=PLANE('',#810);
#714=PLANE('',#811);
#715=PLANE('',#812);
#716=PLANE('',#813);
#717=PLANE('',#814);
#718=PLANE('',#815);
#719=PLANE('',#816);
#720=PLANE('',#818);
#721=PLANE('',#819);
#722=PLANE('',#820);
#723=PLANE('',#821);
#724=PLANE('',#822);
#725=PLANE('',#823);
#726=PLANE('',#824);
#727=PLANE('',#825);
#728=PLANE('',#826);
#729=PLANE('',#827);
#730=PLANE('',#828);
#731=PLANE('',#829);
#732=PLANE('',#830);
#733=PLANE('',#831);
#734=PLANE('',#832);
#735=PLANE('',#833);
#736=PLANE('',#834);
#737=PLANE('',#837);
#738=PLANE('',#838);
#739=PLANE('',#839);
#740=PLANE('',#840);
#741=PLANE('',#841);
#742=PLANE('',#842);
#743=PLANE('',#843);
#744=ADVANCED_FACE('',(#19),#703,.T.);
#745=ADVANCED_FACE('',(#20),#704,.T.);
#746=ADVANCED_FACE('',(#21),#705,.T.);
#747=ADVANCED_FACE('',(#22),#706,.T.);
#748=ADVANCED_FACE('',(#23),#707,.T.);
#749=ADVANCED_FACE('',(#24),#708,.T.);
#750=ADVANCED_FACE('',(#25),#709,.T.);
#751=ADVANCED_FACE('',(#26),#710,.T.);
#752=ADVANCED_FACE('',(#27),#711,.T.);
#753=ADVANCED_FACE('',(#28),#712,.F.);
#754=ADVANCED_FACE('',(#29),#713,.F.);
#755=ADVANCED_FACE('',(#30),#714,.F.);
#756=ADVANCED_FACE('',(#31),#715,.T.);
#757=ADVANCED_FACE('',(#32),#716,.F.);
#758=ADVANCED_FACE('',(#33),#717,.F.);
#759=ADVANCED_FACE('',(#34),#718,.F.);
#760=ADVANCED_FACE('',(#35),#719,.T.);
#761=ADVANCED_FACE('',(#36),#720,.T.);
#762=ADVANCED_FACE('',(#37),#721,.T.);
#763=ADVANCED_FACE('',(#38),#722,.T.);
#764=ADVANCED_FACE('',(#39),#723,.T.);
#765=ADVANCED_FACE('',(#40),#724,.F.);
#766=ADVANCED_FACE('',(#41),#725,.F.);
#767=ADVANCED_FACE('',(#42),#726,.F.);
#768=ADVANCED_FACE('',(#43),#727,.F.);
#769=ADVANCED_FACE('',(#44),#728,.F.);
#770=ADVANCED_FACE('',(#45),#729,.T.);
#771=ADVANCED_FACE('',(#46),#730,.T.);
#772=ADVANCED_FACE('',(#47),#731,.T.);
#773=ADVANCED_FACE('',(#48),#732,.T.);
#774=ADVANCED_FACE('',(#49),#733,.T.);
#775=ADVANCED_FACE('',(#50),#734,.T.);
#776=ADVANCED_FACE('',(#51),#735,.T.);
#777=ADVANCED_FACE('',(#52),#736,.T.);
#778=ADVANCED_FACE('',(#53),#16,.F.);
#779=ADVANCED_FACE('',(#54),#737,.T.);
#780=ADVANCED_FACE('',(#55,#15),#738,.T.);
#781=ADVANCED_FACE('',(#56),#739,.T.);
#782=ADVANCED_FACE('',(#57),#740,.T.);
#783=ADVANCED_FACE('',(#58),#741,.T.);
#784=ADVANCED_FACE('',(#59),#742,.T.);
#785=ADVANCED_FACE('',(#60),#743,.T.);
#786=CLOSED_SHELL('',(#744,#745,#746,#747,#748,#749,#750,#751,#752,#753,
#754,#755,#756,#757,#758,#759,#760,#761,#762,#763,#764,#765,#766,#767,#768,
#769,#770,#771,#772,#773,#774,#775,#776,#777,#778,#779,#780,#781,#782,#783,
#784,#785));
#787=DERIVED_UNIT_ELEMENT(#789,1.);
#788=DERIVED_UNIT_ELEMENT(#1262,-3.);
#789=(
MASS_UNIT()
NAMED_UNIT(*)
SI_UNIT(.KILO.,.GRAM.)
);
#790=DERIVED_UNIT((#787,#788));
#791=MEASURE_REPRESENTATION_ITEM('density measure',
POSITIVE_RATIO_MEASURE(7850.),#790);
#792=PROPERTY_DEFINITION_REPRESENTATION(#797,#794);
#793=PROPERTY_DEFINITION_REPRESENTATION(#798,#795);
#794=REPRESENTATION('material name',(#796),#1259);
#795=REPRESENTATION('density',(#791),#1259);
#796=DESCRIPTIVE_REPRESENTATION_ITEM('Stahl','Stahl');
#797=PROPERTY_DEFINITION('material property','material name',#1269);
#798=PROPERTY_DEFINITION('material property','density of part',#1269);
#799=AXIS2_PLACEMENT_3D('',#1039,#844,#845);
#800=AXIS2_PLACEMENT_3D('',#1040,#846,#847);
#801=AXIS2_PLACEMENT_3D('',#1049,#852,#853);
#802=AXIS2_PLACEMENT_3D('',#1055,#857,#858);
#803=AXIS2_PLACEMENT_3D('',#1061,#862,#863);
#804=AXIS2_PLACEMENT_3D('',#1070,#868,#869);
#805=AXIS2_PLACEMENT_3D('',#1073,#872,#873);
#806=AXIS2_PLACEMENT_3D('',#1076,#876,#877);
#807=AXIS2_PLACEMENT_3D('',#1082,#881,#882);
#808=AXIS2_PLACEMENT_3D('',#1086,#885,#886);
#809=AXIS2_PLACEMENT_3D('',#1090,#889,#890);
#810=AXIS2_PLACEMENT_3D('',#1091,#891,#892);
#811=AXIS2_PLACEMENT_3D('',#1100,#897,#898);
#812=AXIS2_PLACEMENT_3D('',#1109,#903,#904);
#813=AXIS2_PLACEMENT_3D('',#1135,#919,#920);
#814=AXIS2_PLACEMENT_3D('',#1143,#925,#926);
#815=AXIS2_PLACEMENT_3D('',#1146,#929,#930);
#816=AXIS2_PLACEMENT_3D('',#1147,#931,#932);
#817=AXIS2_PLACEMENT_3D('',#1163,#941,#942);
#818=AXIS2_PLACEMENT_3D('',#1164,#943,#944);
#819=AXIS2_PLACEMENT_3D('',#1170,#948,#949);
#820=AXIS2_PLACEMENT_3D('',#1173,#952,#953);
#821=AXIS2_PLACEMENT_3D('',#1174,#954,#955);
#822=AXIS2_PLACEMENT_3D('',#1178,#958,#959);
#823=AXIS2_PLACEMENT_3D('',#1189,#965,#966);
#824=AXIS2_PLACEMENT_3D('',#1195,#970,#971);
#825=AXIS2_PLACEMENT_3D('',#1200,#975,#976);
#826=AXIS2_PLACEMENT_3D('',#1201,#977,#978);
#827=AXIS2_PLACEMENT_3D('',#1203,#980,#981);
#828=AXIS2_PLACEMENT_3D('',#1211,#986,#987);
#829=AXIS2_PLACEMENT_3D('',#1218,#992,#993);
#830=AXIS2_PLACEMENT_3D('',#1219,#994,#995);
#831=AXIS2_PLACEMENT_3D('',#1221,#997,#998);
#832=AXIS2_PLACEMENT_3D('',#1227,#1002,#1003);
#833=AXIS2_PLACEMENT_3D('',#1229,#1005,#1006);
#834=AXIS2_PLACEMENT_3D('',#1233,#1009,#1010);
#835=AXIS2_PLACEMENT_3D('',#1237,#1013,#1014);
#836=AXIS2_PLACEMENT_3D('',#1238,#1015,#1016);
#837=AXIS2_PLACEMENT_3D('',#1239,#1017,#1018);
#838=AXIS2_PLACEMENT_3D('',#1243,#1021,#1022);
#839=AXIS2_PLACEMENT_3D('',#1247,#1025,#1026);
#840=AXIS2_PLACEMENT_3D('',#1249,#1028,#1029);
#841=AXIS2_PLACEMENT_3D('',#1253,#1032,#1033);
#842=AXIS2_PLACEMENT_3D('',#1255,#1035,#1036);
#843=AXIS2_PLACEMENT_3D('',#1256,#1037,#1038);
#844=DIRECTION('axis',(0.,0.,1.));
#845=DIRECTION('refdir',(1.,0.,0.));
#846=DIRECTION('center_axis',(-0.500000000000075,-0.707106781186549,-0.499999999999923));
#847=DIRECTION('ref_axis',(-0.70710678118644,0.,0.707106781186655));
#848=DIRECTION('',(-0.70710678118644,0.,0.707106781186655));
#849=DIRECTION('',(-0.678598344545855,0.678598344545855,-0.281084637714782));
#850=DIRECTION('',(0.70710678118644,0.,-0.707106781186655));
#851=DIRECTION('',(-0.281084625135212,0.678598341493493,-0.678598352808846));
#852=DIRECTION('center_axis',(-0.707106781186547,-0.707106781186548,9.11144631402983E-16));
#853=DIRECTION('ref_axis',(1.28855309501353E-15,0.,1.));
#854=DIRECTION('',(1.28855309501353E-15,0.,1.));
#855=DIRECTION('',(-0.678598344545846,0.678598344545842,0.281084637714836));
#856=DIRECTION('',(-1.28855309501353E-15,0.,-1.));
#857=DIRECTION('center_axis',(2.84653115285695E-8,-0.70710678118654,-0.707106781186554));
#858=DIRECTION('ref_axis',(-0.999999999999999,0.,-4.02560296208777E-8));
#859=DIRECTION('',(0.999999999999999,0.,4.02560296208777E-8));
#860=DIRECTION('',(-0.5773502924313,-0.577350269189706,0.57735024594787));
#861=DIRECTION('',(-0.999999999999999,0.,-4.02560296208777E-8));
#862=DIRECTION('center_axis',(-2.84653115285694E-8,-0.70710678118654,0.707106781186554));
#863=DIRECTION('ref_axis',(0.999999999999999,0.,4.02560296208777E-8));
#864=DIRECTION('',(0.999999999999999,0.,4.02560296208777E-8));
#865=DIRECTION('',(0.577350245947797,0.577350269189634,0.577350292431446));
#866=DIRECTION('',(-0.999999999999999,0.,-4.02560296208777E-8));
#867=DIRECTION('',(0.2810818382452,-0.678597665277047,-0.678600183384326));
#868=DIRECTION('center_axis',(0.707106781186547,-0.707106781186548,2.8465311528569E-8));
#869=DIRECTION('ref_axis',(4.02560296208775E-8,0.,-0.999999999999999));
#870=DIRECTION('',(-4.02560296208775E-8,0.,0.999999999999999));
#871=DIRECTION('',(4.02560296208775E-8,0.,-0.999999999999999));
#872=DIRECTION('center_axis',(-0.499999999999982,-0.707106781186552,0.500000000000012));
#873=DIRECTION('ref_axis',(0.707106781186569,0.,0.707106781186526));
#874=DIRECTION('',(0.707106781186569,0.,0.707106781186526));
#875=DIRECTION('',(-0.707106781186569,0.,-0.707106781186526));
#876=DIRECTION('center_axis',(-1.,0.,1.28855309501353E-15));
#877=DIRECTION('ref_axis',(1.28855309501353E-15,0.,1.));
#878=DIRECTION('',(0.,1.,0.));
#879=DIRECTION('',(1.28855309501353E-15,0.,1.));
#880=DIRECTION('',(0.,1.,0.));
#881=DIRECTION('center_axis',(-0.707106781186526,0.,0.707106781186569));
#882=DIRECTION('ref_axis',(0.707106781186569,0.,0.707106781186526));
#883=DIRECTION('',(0.,1.,0.));
#884=DIRECTION('',(0.707106781186569,0.,0.707106781186526));
#885=DIRECTION('center_axis',(-4.02560296208777E-8,0.,0.999999999999999));
#886=DIRECTION('ref_axis',(0.,-1.,0.));
#887=DIRECTION('',(0.,-1.,0.));
#888=DIRECTION('',(1.,0.,0.));
#889=DIRECTION('center_axis',(0.,1.,0.));
#890=DIRECTION('ref_axis',(1.,0.,0.));
#891=DIRECTION('center_axis',(0.,1.,0.));
#892=DIRECTION('ref_axis',(-1.,0.,0.));
#893=DIRECTION('',(0.999999999999999,0.,4.02560258468712E-8));
#894=DIRECTION('',(8.05120592417554E-8,0.,-0.999999999999997));
#895=DIRECTION('',(0.999999999999997,0.,8.05120592417554E-8));
#896=DIRECTION('',(4.02560296208775E-8,0.,-0.999999999999999));
#897=DIRECTION('center_axis',(0.,1.,0.));
#898=DIRECTION('ref_axis',(-1.,0.,0.));
#899=DIRECTION('',(0.,0.,-1.));
#900=DIRECTION('',(-0.999999999999999,0.,-4.02560253617111E-8));
#901=DIRECTION('',(4.02560296208775E-8,0.,-0.999999999999999));
#902=DIRECTION('',(-1.,0.,0.));
#903=DIRECTION('center_axis',(0.999999999999999,0.,4.02560296208775E-8));
#904=DIRECTION('ref_axis',(4.02560296208775E-8,0.,-0.999999999999999));
#905=DIRECTION('',(0.,1.,0.));
#906=DIRECTION('',(-4.02560257995745E-8,0.,0.999999999999999));
#907=DIRECTION('',(0.,-1.,0.));
#908=DIRECTION('',(0.,-1.,0.));
#909=DIRECTION('',(0.,-1.,0.));
#910=DIRECTION('',(0.,0.,1.));
#911=DIRECTION('',(0.,1.,0.));
#912=DIRECTION('',(0.,1.,0.));
#913=DIRECTION('',(-4.02560258301635E-8,0.,0.999999999999999));
#914=DIRECTION('',(0.,-1.,0.));
#915=DIRECTION('',(0.,1.,0.));
#916=DIRECTION('',(8.05120592417554E-8,0.,-0.999999999999997));
#917=DIRECTION('',(0.,1.,0.));
#918=DIRECTION('',(-4.02560257995745E-8,0.,0.999999999999999));
#919=DIRECTION('center_axis',(0.999999999999997,0.,8.05120592417554E-8));
#920=DIRECTION('ref_axis',(0.,-1.,0.));
#921=DIRECTION('',(0.,-1.,0.));
#922=DIRECTION('',(8.05120592417554E-8,0.,-0.999999999999997));
#923=DIRECTION('',(0.,-1.,0.));
#924=DIRECTION('',(8.05120592417554E-8,0.,-0.999999999999997));
#925=DIRECTION('center_axis',(0.,-1.,0.));
#926=DIRECTION('ref_axis',(-0.999999999999997,0.,-8.05120592417554E-8));
#927=DIRECTION('',(-0.999999999999999,0.,-4.02560296208777E-8));
#928=DIRECTION('',(-0.999999999999997,0.,-8.05120592417554E-8));
#929=DIRECTION('center_axis',(-8.05120592417554E-8,0.,0.999999999999997));
#930=DIRECTION('ref_axis',(0.999999999999997,0.,8.05120592417554E-8));
#931=DIRECTION('center_axis',(0.,1.,0.));
#932=DIRECTION('ref_axis',(-1.,0.,0.));
#933=DIRECTION('',(-0.999999999999999,0.,-4.0256025361711E-8));
#934=DIRECTION('',(0.,0.,-1.));
#935=DIRECTION('',(0.999999999999999,0.,4.02560296208777E-8));
#936=DIRECTION('',(0.70710678118644,0.,-0.707106781186655));
#937=DIRECTION('',(-1.18826040495037E-15,0.,-1.));
#938=DIRECTION('',(-0.707106781186568,0.,-0.707106781186527));
#939=DIRECTION('',(-0.999999999999999,0.,-4.02560296208777E-8));
#940=DIRECTION('',(0.999999999999999,0.,4.02560258468712E-8));
#941=DIRECTION('center_axis',(0.,1.,0.));
#942=DIRECTION('ref_axis',(-1.,0.,0.));
#943=DIRECTION('center_axis',(-1.,0.,0.));
#944=DIRECTION('ref_axis',(0.,-1.,0.));
#945=DIRECTION('',(0.,1.,0.));
#946=DIRECTION('',(0.,-1.,0.));
#947=DIRECTION('',(0.,0.,1.));
#948=DIRECTION('center_axis',(0.,1.,0.));
#949=DIRECTION('ref_axis',(-1.,0.,0.));
#950=DIRECTION('',(0.999999999999999,0.,4.02560296208777E-8));
#951=DIRECTION('',(-1.,0.,0.));
#952=DIRECTION('center_axis',(0.,0.,1.));
#953=DIRECTION('ref_axis',(1.,0.,0.));
#954=DIRECTION('center_axis',(-4.02560296208777E-8,0.,0.999999999999999));
#955=DIRECTION('ref_axis',(0.999999999999999,0.,4.02560296208777E-8));
#956=DIRECTION('',(-0.999999999999998,-4.02560296208769E-8,-4.02560296208777E-8));
#957=DIRECTION('',(0.,1.,0.));
#958=DIRECTION('center_axis',(0.,-1.,0.));
#959=DIRECTION('ref_axis',(-8.0512050723422E-8,0.,0.999999999999997));
#960=DIRECTION('',(-0.707106781186568,0.,-0.707106781186527));
#961=DIRECTION('',(-0.999999999999997,0.,-8.05120507234221E-8));
#962=DIRECTION('',(-8.0512050723422E-8,0.,0.999999999999997));
#963=DIRECTION('',(-0.999999999999997,0.,-8.05120507234221E-8));
#964=DIRECTION('',(-8.0512050723422E-8,0.,0.999999999999997));
#965=DIRECTION('center_axis',(8.0512050723422E-8,0.,-0.999999999999997));
#966=DIRECTION('ref_axis',(0.,-1.,0.));
#967=DIRECTION('',(0.,1.,0.));
#968=DIRECTION('',(-0.999999999999997,0.,-8.05120507234221E-8));
#969=DIRECTION('',(0.,-1.,0.));
#970=DIRECTION('center_axis',(-5.69306170337664E-8,0.707106781186554,0.707106781186539));
#971=DIRECTION('ref_axis',(5.69306170337676E-8,0.70710678118654,-0.707106781186552));
#972=DIRECTION('',(0.577350284684204,-0.577350238200502,0.57735028468417));
#973=DIRECTION('',(5.69306170337676E-8,0.70710678118654,-0.707106781186552));
#974=DIRECTION('',(5.69306170337676E-8,0.70710678118654,-0.707106781186552));
#975=DIRECTION('center_axis',(-0.999999999999997,0.,-8.05120507234221E-8));
#976=DIRECTION('ref_axis',(0.,1.,0.));
#977=DIRECTION('center_axis',(0.999999999999997,0.,8.05120507234221E-8));
#978=DIRECTION('ref_axis',(8.0512050723422E-8,0.,-0.999999999999997));
#979=DIRECTION('',(0.,-1.,0.));
#980=DIRECTION('center_axis',(0.,-0.707106781186555,0.707106781186541));
#981=DIRECTION('ref_axis',(0.,0.70710678118654,0.707106781186554));
#982=DIRECTION('',(-0.577350269189512,0.577350269189677,0.577350269189688));
#983=DIRECTION('',(0.,0.70710678118654,0.707106781186554));
#984=DIRECTION('',(-1.,0.,0.));
#985=DIRECTION('',(0.,0.70710678118654,0.707106781186554));
#986=DIRECTION('center_axis',(0.,1.,0.));
#987=DIRECTION('ref_axis',(0.,0.,-1.));
#988=DIRECTION('',(0.70710678118644,0.,-0.707106781186655));
#989=DIRECTION('',(0.,0.,-1.));
#990=DIRECTION('',(0.,0.,-1.));
#991=DIRECTION('',(0.999999999999999,0.,4.02560296208777E-8));
#992=DIRECTION('center_axis',(1.,0.,0.));
#993=DIRECTION('ref_axis',(0.,1.,0.));
#994=DIRECTION('center_axis',(-1.,0.,0.));
#995=DIRECTION('ref_axis',(0.,0.,1.));
#996=DIRECTION('',(0.,1.,0.));
#997=DIRECTION('center_axis',(0.707106781186655,0.,0.70710678118644));
#998=DIRECTION('ref_axis',(0.70710678118644,0.,-0.707106781186655));
#999=DIRECTION('',(0.,1.,0.));
#1000=DIRECTION('',(0.70710678118644,0.,-0.707106781186655));
#1001=DIRECTION('',(0.,1.,0.));
#1002=DIRECTION('center_axis',(-4.02560296208777E-8,0.,0.999999999999999));
#1003=DIRECTION('ref_axis',(0.999999999999999,0.,4.02560296208777E-8));
#1004=DIRECTION('',(1.,0.,0.));
#1005=DIRECTION('center_axis',(4.02560258468712E-8,0.,-0.999999999999999));
#1006=DIRECTION('ref_axis',(-0.999999999999999,0.,-4.02560258468712E-8));
#1007=DIRECTION('',(0.999999999999999,0.,4.02560258468712E-8));
#1008=DIRECTION('',(0.,1.,0.));
#1009=DIRECTION('center_axis',(-4.02560253617111E-8,0.,0.999999999999999));
#1010=DIRECTION('ref_axis',(0.999999999999999,0.,4.02560253617111E-8));
#1011=DIRECTION('',(-0.999999999999999,0.,-4.02560253617111E-8));
#1012=DIRECTION('',(0.,1.,0.));
#1013=DIRECTION('center_axis',(0.,1.,0.));
#1014=DIRECTION('ref_axis',(-1.,0.,0.));
#1015=DIRECTION('center_axis',(0.,1.,0.));
#1016=DIRECTION('ref_axis',(-1.,0.,0.));
#1017=DIRECTION('center_axis',(4.02560296208777E-8,0.,-0.999999999999999));
#1018=DIRECTION('ref_axis',(-0.999999999999999,0.,-4.02560296208777E-8));
#1019=DIRECTION('',(0.,1.,0.));
#1020=DIRECTION('',(0.999999999999999,0.,4.02560296208777E-8));
#1021=DIRECTION('center_axis',(0.707106781186527,0.,-0.707106781186568));
#1022=DIRECTION('ref_axis',(-0.707106781186568,0.,-0.707106781186527));
#1023=DIRECTION('',(0.,1.,0.));
#1024=DIRECTION('',(-0.707106781186568,0.,-0.707106781186527));
#1025=DIRECTION('center_axis',(1.,0.,-1.18826040495037E-15));
#1026=DIRECTION('ref_axis',(-1.18826040495037E-15,0.,-1.));
#1027=DIRECTION('',(-1.18826040495037E-15,0.,-1.));
#1028=DIRECTION('center_axis',(4.02560296208777E-8,0.,-0.999999999999999));
#1029=DIRECTION('ref_axis',(0.,1.,0.));
#1030=DIRECTION('',(0.,-1.,0.));
#1031=DIRECTION('',(0.999999999999999,0.,4.02560296208777E-8));
#1032=DIRECTION('center_axis',(-0.707106781186655,0.,-0.70710678118644));
#1033=DIRECTION('ref_axis',(-0.70710678118644,0.,0.707106781186655));
#1034=DIRECTION('',(-0.70710678118644,0.,0.707106781186655));
#1035=DIRECTION('center_axis',(0.,1.,0.));
#1036=DIRECTION('ref_axis',(0.,0.,1.));
#1037=DIRECTION('center_axis',(0.,1.,0.));
#1038=DIRECTION('ref_axis',(0.,0.,1.));
#1039=CARTESIAN_POINT('',(0.,0.,0.));
#1040=CARTESIAN_POINT('Origin',(14.4426272106309,1.9,85.0843666456967));
#1041=CARTESIAN_POINT('',(15.6598340739293,1.7,84.1500024948726));
#1042=CARTESIAN_POINT('',(11.8552973088022,1.7,87.9545392600009));
#1043=CARTESIAN_POINT('',(14.5840485668683,1.7,85.225788001934));
#1044=CARTESIAN_POINT('',(11.4552973088022,2.1,87.7888538350517));
#1045=CARTESIAN_POINT('',(11.8552973088022,1.7,87.9545392600009));
#1046=CARTESIAN_POINT('',(15.4941486556498,2.1,83.7500024882028));
#1047=CARTESIAN_POINT('',(14.3012058543936,2.1,84.9429452894594));
#1048=CARTESIAN_POINT('',(15.6598340739293,1.7,84.1500024948726));
#1049=CARTESIAN_POINT('Origin',(11.6552973088022,1.9,96.3970628871442));
#1050=CARTESIAN_POINT('',(11.8552973088022,1.7,122.087344668621));
#1051=CARTESIAN_POINT('',(11.8552973088022,1.7,96.3970628871442));
#1052=CARTESIAN_POINT('',(11.4552973088022,2.1,122.25303009357));
#1053=CARTESIAN_POINT('',(11.8552973088022,1.7,122.087344668621));
#1054=CARTESIAN_POINT('',(11.4552973088022,2.1,96.3970628871442));
#1055=CARTESIAN_POINT('Origin',(42.2388266071238,1.9,83.9500035648373));
#1056=CARTESIAN_POINT('',(53.5000024936162,2.1,83.7500040181676));
#1057=CARTESIAN_POINT('',(42.238826615175,2.1,83.7500035648374));
#1058=CARTESIAN_POINT('',(53.1000024775139,1.7,84.1500040020652));
#1059=CARTESIAN_POINT('',(53.5000024936162,2.1,83.7500040181676));
#1060=CARTESIAN_POINT('',(42.2388265990726,1.7,84.1500035648373));
#1061=CARTESIAN_POINT('Origin',(42.2388249119209,1.9,126.060539487487));
#1062=CARTESIAN_POINT('',(15.6284910564423,1.7,125.860538416261));
#1063=CARTESIAN_POINT('',(53.1000007984134,1.7,125.860539924715));
#1064=CARTESIAN_POINT('',(42.2388249199721,1.7,125.860539487487));
#1065=CARTESIAN_POINT('',(53.500000782311,2.1,126.260539940818));
#1066=CARTESIAN_POINT('',(53.1000007984134,1.7,125.860539924715));
#1067=CARTESIAN_POINT('',(15.4628071157936,2.1,126.260539900562));
#1068=CARTESIAN_POINT('',(42.2388249038697,2.1,126.260539487487));
#1069=CARTESIAN_POINT('',(15.4628071157936,2.1,126.260539900562));
#1070=CARTESIAN_POINT('Origin',(53.3000012302653,1.9,115.132906385306));
#1071=CARTESIAN_POINT('',(53.5000012302653,2.1,115.132906393357));
#1072=CARTESIAN_POINT('',(53.1000012302653,1.7,115.132906377255));
#1073=CARTESIAN_POINT('Origin',(12.4153672695261,1.9,122.93025734182));
#1074=CARTESIAN_POINT('',(12.5567886257634,1.7,122.788835985582));
#1075=CARTESIAN_POINT('',(12.2739459132888,2.1,123.071678698057));
#1076=CARTESIAN_POINT('Origin',(11.4552973088022,1.,87.7888538350517));
#1077=CARTESIAN_POINT('',(11.4552973088022,15.5,122.25303009357));
#1078=CARTESIAN_POINT('',(11.4552973088022,1.,122.25303009357));
#1079=CARTESIAN_POINT('',(11.4552973088022,15.5,87.7888538350517));
#1080=CARTESIAN_POINT('',(11.4552973088022,15.5,122.25303009357));
#1081=CARTESIAN_POINT('',(11.4552973088022,1.,87.7888538350517));
#1082=CARTESIAN_POINT('Origin',(11.4552973088022,1.,122.25303009357));
#1083=CARTESIAN_POINT('',(15.4628071157936,15.5,126.260539900562));
#1084=CARTESIAN_POINT('',(15.4628071157936,1.,126.260539900562));
#1085=CARTESIAN_POINT('',(11.4552973088022,15.5,122.25303009357));
#1086=CARTESIAN_POINT('Origin',(52.500000782311,15.5,126.260539900562));
#1087=CARTESIAN_POINT('',(53.500000782311,15.5,126.260539940818));
#1088=CARTESIAN_POINT('',(53.500000782311,1.,126.260539940818));
#1089=CARTESIAN_POINT('',(15.4628071157936,15.5,126.260539900562));
#1090=CARTESIAN_POINT('Origin',(31.9776498810812,1.7,105.005271939237));
#1091=CARTESIAN_POINT('Origin',(15.9552973088022,12.5,105.020941964311));
#1092=CARTESIAN_POINT('',(53.5000008748427,12.5,123.961958571703));
#1093=CARTESIAN_POINT('',(52.6000009271183,12.5,123.961958535473));
#1094=CARTESIAN_POINT('',(34.7276487105775,12.5,123.961957816003));
#1095=CARTESIAN_POINT('',(52.6000009433347,12.5,123.760541981798));
#1096=CARTESIAN_POINT('',(52.6000016373325,12.5,115.140743448225));
#1097=CARTESIAN_POINT('',(53.5000009433347,12.5,123.760542054259));
#1098=CARTESIAN_POINT('',(34.5026483716867,12.5,123.760540524743));
#1099=CARTESIAN_POINT('',(53.5000012299499,12.5,115.140741728393));
#1100=CARTESIAN_POINT('Origin',(15.9552973088022,12.5,105.020941964311));
#1101=CARTESIAN_POINT('',(52.6000024533602,12.5,86.2500019047259));
#1102=CARTESIAN_POINT('',(52.6000024533602,12.5,86.0380461351502));
#1103=CARTESIAN_POINT('',(52.6000024533602,12.5,94.8854719345185));
#1104=CARTESIAN_POINT('',(53.5000024015089,12.5,86.0380461713806));
#1105=CARTESIAN_POINT('',(24.7052977915302,12.5,86.0380450122203));
#1106=CARTESIAN_POINT('',(53.5000024533602,12.5,86.2500019047259));
#1107=CARTESIAN_POINT('',(53.5000012299499,12.5,115.140741728393));
#1108=CARTESIAN_POINT('',(34.5026498810812,12.5,86.2500019047259));
#1109=CARTESIAN_POINT('Origin',(53.500000822567,1.,125.260539981074));
#1110=CARTESIAN_POINT('',(53.5000024936162,15.5,83.7500040181676));
#1111=CARTESIAN_POINT('',(53.5000024936162,1.,83.7500040181676));
#1112=CARTESIAN_POINT('',(53.5000024533602,15.5,84.7500040584236));
#1113=CARTESIAN_POINT('',(53.500000782311,15.5,126.260539940818));
#1114=CARTESIAN_POINT('',(53.500005865059,14.5,84.7500040584236));
#1115=CARTESIAN_POINT('',(53.5000024533602,1.,84.7500040584236));
#1116=CARTESIAN_POINT('',(53.500005865059,13.6,84.7500040584236));
#1117=CARTESIAN_POINT('',(53.5000024533602,1.,84.7500040584236));
#1118=CARTESIAN_POINT('',(53.5000024533602,13.4,84.7500019047259));
#1119=CARTESIAN_POINT('',(53.5000024533602,1.,84.7500040584236));
#1120=CARTESIAN_POINT('',(53.5000024533602,13.4,86.2500019047259));
#1121=CARTESIAN_POINT('',(53.5000024533602,13.4,84.7500019047259));
#1122=CARTESIAN_POINT('',(53.5000024533602,13.4,86.2500019047259));
#1123=CARTESIAN_POINT('',(53.5000024015087,3.,86.0380461713806));
#1124=CARTESIAN_POINT('',(53.5000024015089,2.,86.0380461713806));
#1125=CARTESIAN_POINT('',(53.5000008748427,3.,123.961958571703));
#1126=CARTESIAN_POINT('',(53.500000822567,3.,125.260539981074));
#1127=CARTESIAN_POINT('',(53.5000008748427,2.,123.961958571703));
#1128=CARTESIAN_POINT('',(53.5000009433347,13.4,123.760542054259));
#1129=CARTESIAN_POINT('',(53.5000009433347,13.4,123.760542054259));
#1130=CARTESIAN_POINT('',(53.5000008225666,13.4,125.260542054259));
#1131=CARTESIAN_POINT('',(53.5000008225666,13.4,125.260542054259));
#1132=CARTESIAN_POINT('',(53.500000822567,15.5,125.260539981074));
#1133=CARTESIAN_POINT('',(53.500000822567,1.,125.260539981074));
#1134=CARTESIAN_POINT('',(53.500000782311,15.5,126.260539940818));
#1135=CARTESIAN_POINT('Origin',(52.6000008225667,13.4,125.260541981798));
#1136=CARTESIAN_POINT('',(52.6000008225667,13.4,125.260541981798));
#1137=CARTESIAN_POINT('',(52.6000008225667,12.5,125.260541981798));
#1138=CARTESIAN_POINT('',(52.6000008225668,7.2,125.260539944843));
#1139=CARTESIAN_POINT('',(52.6000009433347,13.4,123.760541981798));
#1140=CARTESIAN_POINT('',(52.6000008225667,13.4,125.260541981798));
#1141=CARTESIAN_POINT('',(52.6000009433347,12.5,123.760541981798));
#1142=CARTESIAN_POINT('',(52.6000016373325,12.5,115.140743448225));
#1143=CARTESIAN_POINT('Origin',(53.5000008225666,13.4,125.260542054259));
#1144=CARTESIAN_POINT('',(53.0000008225669,13.4,125.260539960946));
#1145=CARTESIAN_POINT('',(52.6000009433347,13.4,123.760541981798));
#1146=CARTESIAN_POINT('Origin',(53.0500009433347,12.95,123.760542018029));
#1147=CARTESIAN_POINT('Origin',(15.9552973088022,12.5,105.020941964311));
#1148=CARTESIAN_POINT('',(33.5305768849205,12.5,86.0380453675023));
#1149=CARTESIAN_POINT('',(24.7052977915302,12.5,86.0380450122203));
#1150=CARTESIAN_POINT('',(52.6000024533602,12.5,84.7500019047259));
#1151=CARTESIAN_POINT('',(52.6000024533602,12.5,94.8854719345185));
#1152=CARTESIAN_POINT('',(15.9083607283143,12.5,84.7500039779115));
#1153=CARTESIAN_POINT('',(33.7276502890949,12.5,84.7500032624672));
#1154=CARTESIAN_POINT('',(12.4552973088022,12.5,88.2030673974247));
#1155=CARTESIAN_POINT('',(9.12582866708032,12.5,91.5325360391476));
#1156=CARTESIAN_POINT('',(12.4552973088022,12.5,121.838816531197));
#1157=CARTESIAN_POINT('',(12.4552973088022,12.5,113.429879247754));
#1158=CARTESIAN_POINT('',(15.8770206781667,12.5,125.260539900562));
#1159=CARTESIAN_POINT('',(10.8366903517629,12.5,120.220209574158));
#1160=CARTESIAN_POINT('',(34.2276486583017,12.5,125.260539205245));
#1161=CARTESIAN_POINT('',(33.5305766683133,12.5,123.961957767802));
#1162=CARTESIAN_POINT('',(34.7276487105775,12.5,123.961957816003));
#1163=CARTESIAN_POINT('Origin',(33.0000004917383,12.5,105.000001564622));
#1164=CARTESIAN_POINT('Origin',(52.6000024533602,13.4,84.7500019047259));
#1165=CARTESIAN_POINT('',(52.6000024533602,13.4,84.7500019047259));
#1166=CARTESIAN_POINT('',(52.6000024533602,7.2,84.7500040221932));
#1167=CARTESIAN_POINT('',(52.6000024533602,13.4,86.2500019047259));
#1168=CARTESIAN_POINT('',(52.6000024533602,12.5,86.2500019047259));
#1169=CARTESIAN_POINT('',(52.6000024533602,13.4,84.7500019047259));
#1170=CARTESIAN_POINT('Origin',(53.5000024533602,13.4,84.7500019047259));
#1171=CARTESIAN_POINT('',(52.5000024533601,13.4,84.7500040181676));
#1172=CARTESIAN_POINT('',(52.6000024533602,13.4,86.2500019047259));
#1173=CARTESIAN_POINT('Origin',(53.0500024533602,12.95,86.2500019047259));
#1174=CARTESIAN_POINT('Origin',(51.5000024533602,1.,84.7500039779115));
#1175=CARTESIAN_POINT('',(15.9083606478022,13.6,84.7500040584236));
#1176=CARTESIAN_POINT('',(52.5000039055966,13.5999999597441,84.7500040181676));
#1177=CARTESIAN_POINT('',(15.9083607283143,1.,84.7500039779115));
#1178=CARTESIAN_POINT('Origin',(53.500004307151,14.5,124.350000684661));
#1179=CARTESIAN_POINT('',(15.8664784323135,14.5,125.249997654708));
#1180=CARTESIAN_POINT('',(15.4580042675773,14.5,124.841523489972));
#1181=CARTESIAN_POINT('',(25.0551317814381,14.5,134.438651003832));
#1182=CARTESIAN_POINT('',(53.5000042346901,14.5,125.250000684661));
#1183=CARTESIAN_POINT('',(53.5000042346901,14.5,125.250000684661));
#1184=CARTESIAN_POINT('',(53.500004307151,14.5,124.350000684661));
#1185=CARTESIAN_POINT('',(53.500004307151,14.5,124.350000684661));
#1186=CARTESIAN_POINT('',(15.4580043071511,14.5,124.349997621821));
#1187=CARTESIAN_POINT('',(53.500004307151,14.5,124.350000684661));
#1188=CARTESIAN_POINT('',(15.4580043071511,14.5,124.349997621821));
#1189=CARTESIAN_POINT('Origin',(53.5000042346901,14.5,125.250000684661));
#1190=CARTESIAN_POINT('',(15.8664784323135,13.6,125.249997654708));
#1191=CARTESIAN_POINT('',(15.8664784323135,7.75,125.249997654708));
#1192=CARTESIAN_POINT('',(53.5000042346901,13.6,125.250000684661));
#1193=CARTESIAN_POINT('',(53.5000042346901,13.6,125.250000684661));
#1194=CARTESIAN_POINT('',(53.5000042346901,15.5,125.250000684661));
#1195=CARTESIAN_POINT('Origin',(53.5000042346901,13.6,125.250000684661));
#1196=CARTESIAN_POINT('',(15.4580042675773,14.0084741318491,124.841523489972));
#1197=CARTESIAN_POINT('',(24.2422476001449,5.22423150651964,133.625766822539));
#1198=CARTESIAN_POINT('',(15.4580042346902,13.6,125.249997621821));
#1199=CARTESIAN_POINT('',(53.5000042346901,13.6,125.250000684661));
#1200=CARTESIAN_POINT('Origin',(53.5000042709205,14.05,124.800000684661));
#1201=CARTESIAN_POINT('Origin',(15.4580042709207,14.05,124.799997621821));
#1202=CARTESIAN_POINT('',(15.4580042675773,7.52500000000001,124.841523489972));
#1203=CARTESIAN_POINT('Origin',(53.500005865059,13.6,84.7500040584236));
#1204=CARTESIAN_POINT('',(15.458005865059,14.0503547827434,85.200358841167));
#1205=CARTESIAN_POINT('',(23.1226137376757,6.38574691012445,77.5357509685479));
#1206=CARTESIAN_POINT('',(53.500005865059,14.5,85.6500040584236));
#1207=CARTESIAN_POINT('',(53.500005865059,13.6,84.7500040584236));
#1208=CARTESIAN_POINT('',(15.458005865059,14.5,85.6500040584236));
#1209=CARTESIAN_POINT('',(53.500005865059,14.5,85.6500040584236));
#1210=CARTESIAN_POINT('',(15.458005865059,13.6,84.7500040584236));
#1211=CARTESIAN_POINT('Origin',(53.500005865059,14.5,85.6500040584236));
#1212=CARTESIAN_POINT('',(15.458005865059,14.5,85.200358841167));
#1213=CARTESIAN_POINT('',(15.9083606478022,14.5,84.7500040584236));
#1214=CARTESIAN_POINT('',(23.3547402826135,14.5,77.30362442361));
#1215=CARTESIAN_POINT('',(15.458005865059,14.5,85.6500040584236));
#1216=CARTESIAN_POINT('',(53.500005865059,14.5,85.6500040584236));
#1217=CARTESIAN_POINT('',(52.5000041773248,14.5,84.7500040181676));
#1218=CARTESIAN_POINT('Origin',(53.500005865059,14.05,85.2000040584236));
#1219=CARTESIAN_POINT('Origin',(15.458005865059,14.05,85.2000040584236));
#1220=CARTESIAN_POINT('',(15.458005865059,7.52500000000001,85.200358841167));
#1221=CARTESIAN_POINT('Origin',(12.4552973088022,1.,88.2030673974247));
#1222=CARTESIAN_POINT('',(15.9083607283143,15.5,84.7500039779115));
#1223=CARTESIAN_POINT('',(15.9083607283143,1.,84.7500039779115));
#1224=CARTESIAN_POINT('',(12.4552973088022,15.5,88.2030673974247));
#1225=CARTESIAN_POINT('',(12.4552973088022,15.5,88.2030673974247));
#1226=CARTESIAN_POINT('',(12.4552973088022,1.,88.2030673974247));
#1227=CARTESIAN_POINT('Origin',(51.5000024533602,1.,84.7500039779115));
#1228=CARTESIAN_POINT('',(15.9083607283143,15.5,84.7500039779115));
#1229=CARTESIAN_POINT('Origin',(53.5000008748427,3.,123.961958571703));
#1230=CARTESIAN_POINT('',(33.5305766683133,3.,123.961957767802));
#1231=CARTESIAN_POINT('',(42.7388249964015,3.,123.961958138501));
#1232=CARTESIAN_POINT('',(33.5305766670904,3.,123.961957767814));
#1233=CARTESIAN_POINT('Origin',(33.4552975100823,3.,86.0380453644605));
#1234=CARTESIAN_POINT('',(33.5305768849205,3.,86.0380453675023));
#1235=CARTESIAN_POINT('',(32.7164740773543,3.,86.0380453347184));
#1236=CARTESIAN_POINT('',(33.5305768836978,3.,86.0380453674909));
#1237=CARTESIAN_POINT('Origin',(33.0000004917383,3.,105.000001564622));
#1238=CARTESIAN_POINT('Origin',(33.0000004917383,3.,105.000001564622));
#1239=CARTESIAN_POINT('Origin',(52.500000822567,1.,125.260539940818));
#1240=CARTESIAN_POINT('',(15.8770206781667,15.5,125.260539900562));
#1241=CARTESIAN_POINT('',(15.8770192441269,1.,125.260538466522));
#1242=CARTESIAN_POINT('',(52.500000822567,15.5,125.260539940818));
#1243=CARTESIAN_POINT('Origin',(15.8770206781667,1.,125.260539900562));
#1244=CARTESIAN_POINT('',(12.4552973088022,15.5,121.838816531197));
#1245=CARTESIAN_POINT('',(12.4552973088022,1.,121.838816531197));
#1246=CARTESIAN_POINT('',(12.4552973088022,15.5,121.838816531197));
#1247=CARTESIAN_POINT('Origin',(12.4552973088022,1.,121.838816531197));
#1248=CARTESIAN_POINT('',(12.4552973088022,15.5,121.838816531197));
#1249=CARTESIAN_POINT('Origin',(52.5000024936162,1.,83.7500039779115));
#1250=CARTESIAN_POINT('',(15.4941471659411,15.5,83.7500039779115));
#1251=CARTESIAN_POINT('',(15.4941486556498,1.,83.7500024882028));
#1252=CARTESIAN_POINT('',(52.5000024936162,15.5,83.7500039779115));
#1253=CARTESIAN_POINT('Origin',(15.4941471659411,1.,83.7500039779115));
#1254=CARTESIAN_POINT('',(11.4552973088022,15.5,87.7888538350517));
#1255=CARTESIAN_POINT('Origin',(31.9776499012092,15.5,105.005271939237));
#1256=CARTESIAN_POINT('Origin',(31.9776498810812,3.,105.005271939237));
#1257=UNCERTAINTY_MEASURE_WITH_UNIT(LENGTH_MEASURE(0.01),#1261,
'DISTANCE_ACCURACY_VALUE',
'Maximum model space distance between geometric entities at asserted c
onnectivities');
#1258=UNCERTAINTY_MEASURE_WITH_UNIT(LENGTH_MEASURE(0.01),#1261,
'DISTANCE_ACCURACY_VALUE',
'Maximum model space distance between geometric entities at asserted c
onnectivities');
#1259=(
GEOMETRIC_REPRESENTATION_CONTEXT(3)
GLOBAL_UNCERTAINTY_ASSIGNED_CONTEXT((#1257))
GLOBAL_UNIT_ASSIGNED_CONTEXT((#1261,#1263,#1264))
REPRESENTATION_CONTEXT('','3D')
);
#1260=(
GEOMETRIC_REPRESENTATION_CONTEXT(3)
GLOBAL_UNCERTAINTY_ASSIGNED_CONTEXT((#1258))
GLOBAL_UNIT_ASSIGNED_CONTEXT((#1261,#1263,#1264))
REPRESENTATION_CONTEXT('','3D')
);
#1261=(
LENGTH_UNIT()
NAMED_UNIT(*)
SI_UNIT(.MILLI.,.METRE.)
);
#1262=(
LENGTH_UNIT()
NAMED_UNIT(*)
SI_UNIT($,.METRE.)
);
#1263=(
NAMED_UNIT(*)
PLANE_ANGLE_UNIT()
SI_UNIT($,.RADIAN.)
);
#1264=(
NAMED_UNIT(*)
SI_UNIT($,.STERADIAN.)
SOLID_ANGLE_UNIT()
);
#1265=SHAPE_DEFINITION_REPRESENTATION(#1266,#1267);
#1266=PRODUCT_DEFINITION_SHAPE('',$,#1269);
#1267=SHAPE_REPRESENTATION('',(#799),#1259);
#1268=PRODUCT_DEFINITION_CONTEXT('part definition',#1273,'design');
#1269=PRODUCT_DEFINITION('x_house','x_house_slide',#1270,#1268);
#1270=PRODUCT_DEFINITION_FORMATION('',$,#1275);
#1271=PRODUCT_RELATED_PRODUCT_CATEGORY('x_house_slide','x_house_slide',
(#1275));
#1272=APPLICATION_PROTOCOL_DEFINITION('international standard',
'automotive_design',2009,#1273);
#1273=APPLICATION_CONTEXT(
'Core Data for Automotive Mechanical Design Process');
#1274=PRODUCT_CONTEXT('part definition',#1273,'mechanical');
#1275=PRODUCT('x_house','x_house_slide',$,(#1274));
#1276=PRESENTATION_STYLE_ASSIGNMENT((#1278));
#1277=PRESENTATION_STYLE_ASSIGNMENT((#1279));
#1278=SURFACE_STYLE_USAGE(.BOTH.,#1280);
#1279=SURFACE_STYLE_USAGE(.BOTH.,#1281);
#1280=SURFACE_SIDE_STYLE('',(#1282));
#1281=SURFACE_SIDE_STYLE('',(#1283));
#1282=SURFACE_STYLE_FILL_AREA(#1284);
#1283=SURFACE_STYLE_FILL_AREA(#1285);
#1284=FILL_AREA_STYLE('Stahl - satiniert',(#1286));
#1285=FILL_AREA_STYLE('Opaque(219,188,126)',(#1287));
#1286=FILL_AREA_STYLE_COLOUR('Stahl - satiniert',#1288);
#1287=FILL_AREA_STYLE_COLOUR('Opaque(219,188,126)',#1289);
#1288=COLOUR_RGB('Stahl - satiniert',0.627450980392157,0.627450980392157,
0.627450980392157);
#1289=COLOUR_RGB('Opaque(219,188,126)',1.,0.549019607843137,0.);
ENDSEC;
END-ISO-10303-21;
